<?xml version="1.0" encoding="UTF-8"?><svg id="Layer_1" xmlns="http://www.w3.org/2000/svg" xmlns:xlink="http://www.w3.org/1999/xlink" viewBox="0 0 21.64 279.28"><defs><linearGradient id="linear-gradient" x1="24.54" y1="-1143.42" x2="39.7" y2="-1143.42" gradientTransform="translate(-21.29 -997.57) scale(1 -1)" gradientUnits="userSpaceOnUse"><stop offset="0" stop-color="#f6f6f6"/><stop offset=".5" stop-color="#fff"/><stop offset="1" stop-color="#f6f6f6"/></linearGradient><linearGradient id="linear-gradient-2" x1="24.54" y1="-609.76" x2="39.7" y2="-609.76" gradientTransform="translate(-21.3 -1456.92) scale(1 -2.53)" gradientUnits="userSpaceOnUse"><stop offset="0" stop-color="#101010"/><stop offset=".5" stop-color="#282828"/><stop offset="1" stop-color="#101010"/></linearGradient><linearGradient id="linear-gradient-3" x1="24.54" y1="-1261.12" x2="39.7" y2="-1261.12" gradientTransform="translate(-21.29 -996.8) scale(1 -1)" gradientUnits="userSpaceOnUse"><stop offset="0" stop-color="#101010"/><stop offset=".5" stop-color="#282828"/><stop offset="1" stop-color="#101010"/></linearGradient><linearGradient id="linear-gradient-4" x1="24.57" y1="-1268.84" x2="39.66" y2="-1268.84" gradientTransform="translate(-21.29 -996.8) scale(1 -1)" gradientUnits="userSpaceOnUse"><stop offset="0" stop-color="#101010"/><stop offset=".5" stop-color="#282828"/><stop offset="1" stop-color="#101010"/></linearGradient><linearGradient id="linear-gradient-5" x1="22.48" y1="-1245.3" x2="32.25" y2="-1245.3" gradientTransform="translate(-21.29 -996.8) scale(1 -1)" gradientUnits="userSpaceOnUse"><stop offset="0" stop-color="#181818"/><stop offset="1" stop-color="#3c3c3c"/></linearGradient><linearGradient id="linear-gradient-6" x1="24.21" y1="-1250.78" x2="27.15" y2="-1266.5" gradientTransform="translate(-21.29 -996.8) scale(1 -1)" gradientUnits="userSpaceOnUse"><stop offset="0" stop-color="#080808"/><stop offset="1" stop-color="#141414"/></linearGradient><linearGradient id="linear-gradient-7" x1="-458.75" y1="-1245.3" x2="-448.97" y2="-1245.3" gradientTransform="translate(-438.24 -996.8) rotate(-180)" gradientUnits="userSpaceOnUse"><stop offset="0" stop-color="#181818"/><stop offset="1" stop-color="#3c3c3c"/></linearGradient><linearGradient id="linear-gradient-8" x1="-457.02" y1="-1250.78" x2="-454.07" y2="-1266.5" gradientTransform="translate(-438.24 -996.8) rotate(-180)" gradientUnits="userSpaceOnUse"><stop offset="0" stop-color="#080808"/><stop offset="1" stop-color="#141414"/></linearGradient><linearGradient id="linear-gradient-9" x1="30.04" y1="-1007.51" x2="46.58" y2="-1007.51" gradientTransform="translate(-27.48 -996.8) scale(1 -1)" gradientUnits="userSpaceOnUse"><stop offset="0" stop-color="#d2d2d2"/><stop offset=".5" stop-color="#fff"/><stop offset="1" stop-color="#d2d2d2"/></linearGradient><linearGradient id="linear-gradient-10" x1="-438.88" y1="-1007.82" x2="-437.27" y2="-1006.59" gradientTransform="translate(-432.13 -996.8) rotate(-180)" gradientUnits="userSpaceOnUse"><stop offset="0" stop-color="#d2d2d2"/><stop offset="1" stop-color="#e6e6e6"/></linearGradient><linearGradient id="linear-gradient-11" x1="-439.14" y1="-1004.94" x2="-435.59" y2="-1004.94" gradientTransform="translate(-432.13 -996.8) rotate(-180)" gradientUnits="userSpaceOnUse"><stop offset="0" stop-color="#e6e6e6"/><stop offset="1" stop-color="#fafafa"/></linearGradient><linearGradient id="linear-gradient-12" x1="42.36" y1="-1007.82" x2="43.97" y2="-1006.59" gradientTransform="translate(-27.48 -996.8) scale(1 -1)" gradientUnits="userSpaceOnUse"><stop offset="0" stop-color="#d2d2d2"/><stop offset="1" stop-color="#e6e6e6"/></linearGradient><linearGradient id="linear-gradient-13" x1="42.1" y1="-1004.94" x2="45.65" y2="-1004.94" gradientTransform="translate(-27.48 -996.8) scale(1 -1)" gradientUnits="userSpaceOnUse"><stop offset="0" stop-color="#e6e6e6"/><stop offset="1" stop-color="#fafafa"/></linearGradient><linearGradient id="linear-gradient-14" x1="30.14" y1="-1014.67" x2="46.48" y2="-1014.67" gradientTransform="translate(-27.48 -996.8) scale(1 -1)" gradientUnits="userSpaceOnUse"><stop offset="0" stop-color="#505050"/><stop offset=".51" stop-color="#606060"/><stop offset="1" stop-color="#505050"/></linearGradient><linearGradient id="linear-gradient-15" x1="-435.67" y1="-1023.43" x2="-432.25" y2="-1022.94" gradientTransform="translate(-432.04 -996.8) rotate(-180)" gradientUnits="userSpaceOnUse"><stop offset="0" stop-color="#e6e6e6"/><stop offset="1" stop-color="#fff"/></linearGradient><linearGradient id="linear-gradient-16" x1="45.56" y1="-1023.43" x2="48.98" y2="-1022.93" gradientTransform="translate(-27.49 -996.8) scale(1 -1)" gradientUnits="userSpaceOnUse"><stop offset="0" stop-color="#e6e6e6"/><stop offset="1" stop-color="#fff"/></linearGradient><linearGradient id="linear-gradient-17" x1="24.54" y1="-18323.63" x2="39.7" y2="-18323.63" gradientTransform="translate(-21.29 -1134.59) scale(1 -.06)" gradientUnits="userSpaceOnUse"><stop offset="0" stop-color="#f6f6f6"/><stop offset=".5" stop-color="#fff"/><stop offset="1" stop-color="#f6f6f6"/></linearGradient><linearGradient id="linear-gradient-18" x1="33.79" y1="-999.27" x2="42.82" y2="-999.27" gradientTransform="translate(-27.48 -996.8) scale(1 -1)" gradientUnits="userSpaceOnUse"><stop offset="0" stop-color="#f0f0f0"/><stop offset=".5" stop-color="#fff"/><stop offset="1" stop-color="#f0f0f0"/></linearGradient><radialGradient id="radial-gradient" cx="239.43" cy="-435.73" fx="239.43" fy="-435.73" r=".75" gradientTransform="translate(747.03 -230.31) rotate(90) scale(1 -1.7)" gradientUnits="userSpaceOnUse"><stop offset="0" stop-color="#423138"/><stop offset="1" stop-color="#251c1f"/></radialGradient><radialGradient id="radial-gradient-2" cx="-238.69" cy="-467.94" fx="-238.69" fy="-467.94" r=".75" gradientTransform="translate(-224.71 -784.94) rotate(-180) scale(1 1.7)" gradientUnits="userSpaceOnUse"><stop offset="0" stop-color="#423138"/><stop offset="1" stop-color="#251c1f"/></radialGradient><linearGradient id="linear-gradient-19" x1="32.71" y1="-1009.44" x2="31.59" y2="-1012.88" gradientTransform="translate(-27.51 -996.8) scale(1 -1)" gradientUnits="userSpaceOnUse"><stop offset="0" stop-color="#505050"/><stop offset="1" stop-color="#787878"/></linearGradient><linearGradient id="linear-gradient-20" x1="30.85" y1="-1010.78" x2="32.31" y2="-1014.06" gradientTransform="translate(-27.51 -996.8) scale(1 -1)" gradientUnits="userSpaceOnUse"><stop offset="0" stop-color="#828282"/><stop offset="1" stop-color="#646464"/></linearGradient><linearGradient id="linear-gradient-21" x1="-448.52" y1="-1009.44" x2="-449.65" y2="-1012.88" gradientTransform="translate(-432.06 -996.8) rotate(-180)" gradientUnits="userSpaceOnUse"><stop offset="0" stop-color="#505050"/><stop offset="1" stop-color="#787878"/></linearGradient><linearGradient id="linear-gradient-22" x1="-450.38" y1="-1010.78" x2="-448.92" y2="-1014.06" gradientTransform="translate(-432.06 -996.8) rotate(-180)" gradientUnits="userSpaceOnUse"><stop offset="0" stop-color="#828282"/><stop offset="1" stop-color="#646464"/></linearGradient><linearGradient id="linear-gradient-23" x1="35.54" y1="-1024.61" x2="38.34" y2="-1024.1" gradientTransform="translate(-27.48 -996.8) scale(1 -1)" gradientUnits="userSpaceOnUse"><stop offset="0" stop-color="#f0f0f0" stop-opacity="0"/><stop offset="1" stop-color="#e6e6e6"/></linearGradient><linearGradient id="linear-gradient-24" x1="41.23" y1="-1011.46" x2="41.47" y2="-1015.82" gradientTransform="translate(-27.48 -996.8) scale(1 -1)" gradientUnits="userSpaceOnUse"><stop offset="0" stop-color="#fafafa"/><stop offset="1" stop-color="#e6e6e6"/></linearGradient><linearGradient id="linear-gradient-25" x1="74.67" y1="-1015.67" x2="74.77" y2="-1014.32" gradientTransform="translate(-60.79 -996.8) scale(1 -1)" gradientUnits="userSpaceOnUse"><stop offset="0" stop-color="#787878"/><stop offset="1" stop-color="#000" stop-opacity="0"/></linearGradient></defs><rect x="3.25" y="32.9" width="15.16" height="237.1" fill="url(#linear-gradient)" stroke-width="0"/><rect x="3.25" y="71.59" width="15.16" height="28.99" fill="url(#linear-gradient-2)" stroke-width="0"/><rect x="3.25" y="258.59" width="15.16" height="11.46" fill="url(#linear-gradient-3)" stroke-width="0"/><path d="m3.95,273.96s-.06-.16-.06-.19v-.02h2.75v.05c.03.1.03.12,0,.15l-.02.04h-2.66l-.02-.04h0Z" fill="#f7f7f7" stroke-width="0"/><path d="m7.03,273.96s-.06-.16-.06-.18c0,0,.59,0,1.42,0h1.42v.02c-.02.06-.04.12-.06.16l-.02.05h-2.66l-.03-.05h0Z" fill="#f7f7f7" stroke-width="0"/><path d="m10.04,274.04s0-.03.02-.06c.02-.05.04-.13.06-.21v-.03h.72c.67,0,.71,0,.72.02,0,0,0,.03.01.06,0,.02.02.08.04.13.02.05.03.09.03.1h-.79c-.44,0-.79,0-.79,0h0Z" fill="#f7f7f7" stroke-width="0"/><path d="m11.93,273.96s-.06-.16-.06-.18c0,0,.59,0,1.42,0,1.06,0,1.42,0,1.42.01,0,.02-.04.13-.06.18l-.03.05h-2.66l-.03-.05h0Z" fill="#f7f7f7" stroke-width="0"/><path d="m15.03,273.96s-.03-.06-.01-.14c0-.04.01-.07.01-.07,0,0,.62,0,1.38,0h1.38v.02s-.05.13-.07.17l-.02.04h-2.66l-.02-.03h0Z" fill="#f7f7f7" stroke-width="0"/><path d="m3.28,269.98l15.08.03v2.66s-.56,1.42-.56,1.42l-13.94-.04-.57-1.42v-2.64Z" fill="url(#linear-gradient-4)" stroke-width="0"/><path d="m6.75,276.23c-.16-.39-.36-.84-.57-1.24l-.08-.16.03-.06c.06-.11.19-.34.27-.47l.03-.05h.16c.09,0,.27,0,.39,0h.23l.03.05c.07.11.25.42.29.5v.03s-.03.08-.03.08c-.22.43-.45.92-.63,1.37l-.03.08h-.05l-.05-.13h0Z" fill="#333" stroke-width="0"/><path d="m14.71,276.07c-.16-.39-.36-.84-.57-1.24l-.08-.16.03-.06c.06-.11.19-.34.27-.47l.03-.05h.16c.09,0,.27,0,.39,0h.23l.03.05c.07.11.25.42.29.5v.03s-.03.08-.03.08c-.22.43-.45.92-.63,1.37l-.03.08h-.05l-.05-.13h0Z" fill="#333" stroke-width="0"/><path d="m9.94,275.66c.06-.13.19-.35.27-.5l.15-.27-.18-.31-.18-.31h-.31c-.26,0-.31,0-.31-.03,0-.03-.03-.03-.13-.03-.12,0-.13.01-.18.08l-.04.08.23.44c.13.24.3.59.38.77.08.18.15.33.16.33,0,0,.07-.1.13-.23h0Z" fill="#333" stroke-width="0"/><path d="m11.78,275.66c-.06-.13-.19-.35-.27-.5l-.15-.27.18-.31.18-.31h.31c.26,0,.31,0,.31-.03,0-.03.03-.03.13-.03.12,0,.13.01.18.08l.04.08-.23.44c-.13.24-.3.59-.38.77-.08.18-.15.33-.16.33,0,0-.07-.1-.13-.23h0Z" fill="#333" stroke-width="0"/><path d="m8.93,279.07s.07-.31.08-.34c.14-1.83.29-1.45.86-2.56,0-.06.39-.85.61-1.24l.11-.2v-.51h.55v.52l.12.21c.12.22.46.88.54,1.06l.05.1c.72,1.95.18.24.91,2.76.02.08.03.17.03.18,0,.03,0,.03-1.93.03-1.06,0-1.93,0-1.93,0h0Z" fill="#333" stroke-width="0"/><path d="m3.26,71.63h15.14" fill="none" stroke="#000" stroke-width=".32"/><path d="m13.7,274.13h-.83" fill="none" stroke="#000" stroke-width=".32"/><path d="m4.85,278.43h3.99" fill="none" stroke="#000" stroke-width=".32"/><path d="m6.43,274.13h.83" fill="none" stroke="#000" stroke-width=".32"/><path d="m7.61,274.78c-.11-.23-.23-.45-.36-.67" fill="none" stroke="#000" stroke-width=".32"/><path d="m6.43,274.13c-.13.22-.24.44-.36.67" fill="none" stroke="#000" stroke-width=".32"/><path d="m9.17,274.13h.62" fill="none" stroke="#000" stroke-width=".32"/><path d="m10.4,274.86c-.11-.23-.24-.46-.36-.69" fill="none" stroke="#000" stroke-width=".32"/><path d="m9.17,274.13c-.06.11-.13.23-.19.34" fill="none" stroke="#000" stroke-width=".32"/><path d="m16.82,278.43h-3.99" fill="none" stroke="#000" stroke-width=".32"/><path d="m15.25,274.13h-.83" fill="none" stroke="#000" stroke-width=".32"/><path d="m14.42,274.13c-.13.22-.24.44-.36.67" fill="none" stroke="#000" stroke-width=".32"/><path d="m15.6,274.78c-.11-.23-.23-.45-.36-.67" fill="none" stroke="#000" stroke-width=".32"/><path d="m12.49,274.13h-.62" fill="none" stroke="#000" stroke-width=".32"/><path d="m9.79,274.13c.12-.16.18-.36.18-.56" fill="none" stroke="#000" stroke-width=".32"/><path d="m6.97,274.13h2.82" fill="none" stroke="#000" stroke-width=".32"/><path d="m11.7,273.56c0,.2.05.4.18.56" fill="none" stroke="#000" stroke-width=".32"/><path d="m14.7,274.13c.12-.16.18-.36.18-.56" fill="none" stroke="#000" stroke-width=".32"/><path d="m10.03,274.21h1.6" fill="none" stroke="#000" stroke-width=".32"/><path d="m9.38,274.13s.03.04.04.06" fill="none" stroke="#000" stroke-width=".32"/><path d="m12.25,274.21s.03-.04.04-.06" fill="none" stroke="#000" stroke-width=".32"/><path d="m9.43,274.21h2.82" fill="none" stroke="#000" stroke-width=".32"/><path d="m11.67,274.21c-.13.23-.25.46-.36.69" fill="none" stroke="#000" stroke-width=".32"/><path d="m11.67,274.21c-.13.23-.25.46-.36.69" fill="none" stroke="#000" stroke-width=".32"/><path d="m12.71,274.45c-.05-.1-.11-.2-.17-.31" fill="none" stroke="#000" stroke-width=".32"/><path d="m18.41,32.96v196.5" fill="none" stroke="#000" stroke-width=".33"/><path d="m9,278.43c-.05.22-.1.45-.14.67h3.99c-.04-.23-.09-.45-.14-.67" fill="none" stroke="#000" stroke-width=".32"/><path d="m9.75,276.16c.2-.47.43-.94.69-1.39v-.61" fill="none" stroke="#000" stroke-width=".32"/><path d="m11.27,274.21v.61c.25.43.47.88.67,1.34" fill="none" stroke="#000" stroke-width=".32"/><path d="m6.84,276.72c-.29-.89-.67-1.74-1.13-2.55h-.83c-.76,1.34-1.3,2.8-1.58,4.32h3.99" fill="#333" stroke="#000" stroke-width=".32"/><path d="m14.83,273.88c.03.09.07.17.13.24h2.82c.12-.16.18-.36.18-.56" fill="none" stroke="#000" stroke-width=".32"/><path d="m14.38,278.43h3.99c-.28-1.52-.82-2.98-1.58-4.32h-.83c-.46.81-.84,1.67-1.13,2.55" fill="#333" stroke="#000" stroke-width=".32"/><path d="m7.97,274.13c-.76,1.34-1.3,2.8-1.58,4.32h3.99c-.28-1.52-.82-2.98-1.58-4.32h-.83Z" fill="#333" stroke="#000" stroke-width=".32"/><path d="m3.26,229.46V32.96" fill="none" stroke="#000" stroke-width=".33"/><path d="m18.41,265.61v6.75c-.02.44-.16.86-.4,1.23H3.66c-.24-.37-.38-.79-.4-1.23v-6.75" fill="none" stroke="#000" stroke-width=".32"/><path d="m13.7,274.13c.76,1.34,1.3,2.8,1.58,4.32h-3.99c.28-1.52.82-2.98,1.58-4.32" fill="#333" stroke="#000" stroke-width=".32"/><path d="m11.88,274.13h2.82" fill="none" stroke="#000" stroke-width=".32"/><path d="m3.71,273.56c0,.2.05.4.18.56h2.82c.06-.07.1-.15.13-.24" fill="none" stroke="#000" stroke-width=".32"/><path d="m6.79,273.56c0,.2.05.4.18.56" fill="none" stroke="#000" stroke-width=".32"/><path d="m3.26,100.61h15.14" fill="none" stroke="#000" stroke-width=".32"/><path d="m11.98,170.92h-3.14l-.12.09v2.79h.87v-1.05l.08-.07h2.3c.58,0,.85-.16.85-.56v-.64c0-.4-.27-.56-.85-.56m0,1.03c0,.19-.13.23-.4.23h-1.9l-.09-.09v-.6l.08-.08h1.91c.27,0,.4.04.4.23v.31h0Z" fill="#005288" stroke-width="0"/><polyline points="10.15 177.28 10.9 178.37 10.86 178.48 9.21 178.48 8.78 179 11.25 179 11.42 179.1 11.8 179.63 12.79 179.63 10.61 176.71" fill="#005288" stroke-width="0"/><polyline points="9.7 191.83 9.7 191.06 9.79 190.98 11.45 190.98 11.45 190.49 8.81 190.49 8.81 192.4 12.7 192.4 12.7 191.91 9.79 191.91" fill="#005288" stroke-width="0"/><rect x="8.81" y="189.52" width="3.93" height=".54" fill="#005288" stroke-width="0"/><path d="m9.68,183.51h3.17c-.05-.4-.3-.51-.93-.51h-2.27c-.72,0-.94.14-.94.68v1.52c0,.54.23.68.94.68h2.27c.64,0,.89-.12.91-.54h-3.14l-.09-.09v-1.68" fill="#005288" stroke-width="0"/><path d="m11.94,165.4h-2.31l-.07-.07v-.49l.07-.05h3.11l.04-.1c-.11-.27-.38-.4-.89-.4h-2.16c-.72,0-.94.14-.94.68v.32c0,.54.23.68.94.68h2.3l.07.06v.52l-.06.08h-2.63s-.69,0-.69,0c0,0-.08.04-.08.06.06.38.32.49.93.49h2.35c.72,0,.95-.14.95-.68v-.4c0-.54-.24-.68-.95-.68" fill="#005288" stroke-width="0"/><path d="m9.73,196.2h-1.29l-.07.13,1.44,1.05c.27-.16.57-.32.89-.47" fill="#005288" stroke-width="0"/><path d="m10.88,198.17l1.26.92h1.31l.05-.12-1.89-1.38c-.25.18-.5.38-.74.58" fill="#005288" stroke-width="0"/><path d="m9.53,199.09h-1.17l-.1-.15c.8-.77,4.43-3.66,9.16-4.02,0,0-4.14.46-7.89,4.18" fill="#a7a9ac" stroke-width="0"/><rect x="7.09" y="118.79" width="7.47" height="4.2" fill="#b22234" stroke-width="0"/><path d="m7.09,119.28h7.47m0,.65h-7.47m0,.65h7.47m0,.65h-7.47m0,.65h7.47m0,.65h-7.47" stroke="#fff" stroke-miterlimit="10" stroke-width=".3"/><rect x="7.09" y="118.79" width="2.99" height="2.26" fill="#3c3b6e" stroke-width="0"/><path d="m7.34,118.89l.07.23-.19-.14h.23l-.19.14.07-.23Z" fill="#fff" stroke-width="0"/><path id="s" d="m7.34,119.34l.07.23-.19-.14h.23l-.19.14.07-.23Z" fill="#fff" stroke-width="0"/><path id="s-2" d="m7.34,119.8l.07.23-.19-.14h.23l-.19.14.07-.23Z" fill="#fff" stroke-width="0"/><path id="s-3" d="m7.34,120.25l.07.23-.19-.14h.23l-.19.14.07-.23Z" fill="#fff" stroke-width="0"/><path id="s-4" d="m7.34,120.7l.07.23-.19-.14h.23l-.19.14.07-.23Z" fill="#fff" stroke-width="0"/><g id="d"><path id="s-5" d="m7.58,119.12l.07.23-.19-.14h.23l-.19.14.07-.23Z" fill="#fff" stroke-width="0"/><path id="s-6" d="m7.58,119.57l.07.23-.19-.14h.23l-.19.14.07-.23Z" fill="#fff" stroke-width="0"/><path id="s-7" d="m7.58,120.02l.07.23-.19-.14h.23l-.19.14.07-.23Z" fill="#fff" stroke-width="0"/><path id="s-8" d="m7.58,120.47l.07.23-.19-.14h.23l-.19.14.07-.23Z" fill="#fff" stroke-width="0"/></g><g id="a"><g id="c"><g id="d-2"><path id="s-9" d="m7.83,118.89l.07.23-.19-.14h.23l-.19.14.07-.23Z" fill="#fff" stroke-width="0"/><path id="s-10" d="m7.83,119.34l.07.23-.19-.14h.23l-.19.14.07-.23Z" fill="#fff" stroke-width="0"/><path id="s-11" d="m7.83,119.8l.07.23-.19-.14h.23l-.19.14.07-.23Z" fill="#fff" stroke-width="0"/><path id="s-12" d="m7.83,120.25l.07.23-.19-.14h.23l-.19.14.07-.23Z" fill="#fff" stroke-width="0"/></g><path id="s-13" d="m7.83,120.7l.07.23-.19-.14h.23l-.19.14.07-.23Z" fill="#fff" stroke-width="0"/></g><g id="d-3"><path id="s-14" d="m8.08,119.12l.07.23-.19-.14h.23l-.19.14.07-.23Z" fill="#fff" stroke-width="0"/><path id="s-15" d="m8.08,119.57l.07.23-.19-.14h.23l-.19.14.07-.23Z" fill="#fff" stroke-width="0"/><path id="s-16" d="m8.08,120.02l.07.23-.19-.14h.23l-.19.14.07-.23Z" fill="#fff" stroke-width="0"/><path id="s-17" d="m8.08,120.47l.07.23-.19-.14h.23l-.19.14.07-.23Z" fill="#fff" stroke-width="0"/></g></g><g id="e"><g id="a-2"><g id="c-2"><g id="d-4"><path id="s-18" d="m8.33,118.89l.07.23-.19-.14h.23l-.19.14.07-.23Z" fill="#fff" stroke-width="0"/><path id="s-19" d="m8.33,119.34l.07.23-.19-.14h.23l-.19.14.07-.23Z" fill="#fff" stroke-width="0"/><path id="s-20" d="m8.33,119.8l.07.23-.19-.14h.23l-.19.14.07-.23Z" fill="#fff" stroke-width="0"/><path id="s-21" d="m8.33,120.25l.07.23-.19-.14h.23l-.19.14.07-.23Z" fill="#fff" stroke-width="0"/></g><path id="s-22" d="m8.33,120.7l.07.23-.19-.14h.23l-.19.14.07-.23Z" fill="#fff" stroke-width="0"/></g><g id="d-5"><path id="s-23" d="m8.58,119.12l.07.23-.19-.14h.23l-.19.14.07-.23Z" fill="#fff" stroke-width="0"/><path id="s-24" d="m8.58,119.57l.07.23-.19-.14h.23l-.19.14.07-.23Z" fill="#fff" stroke-width="0"/><path id="s-25" d="m8.58,120.02l.07.23-.19-.14h.23l-.19.14.07-.23Z" fill="#fff" stroke-width="0"/><path id="s-26" d="m8.58,120.47l.07.23-.19-.14h.23l-.19.14.07-.23Z" fill="#fff" stroke-width="0"/></g></g><g id="a-3"><g id="c-3"><g id="d-6"><path id="s-27" d="m8.83,118.89l.07.23-.19-.14h.23l-.19.14.07-.23Z" fill="#fff" stroke-width="0"/><path id="s-28" d="m8.83,119.34l.07.23-.19-.14h.23l-.19.14.07-.23Z" fill="#fff" stroke-width="0"/><path id="s-29" d="m8.83,119.8l.07.23-.19-.14h.23l-.19.14.07-.23Z" fill="#fff" stroke-width="0"/><path id="s-30" d="m8.83,120.25l.07.23-.19-.14h.23l-.19.14.07-.23Z" fill="#fff" stroke-width="0"/></g><path id="s-31" d="m8.83,120.7l.07.23-.19-.14h.23l-.19.14.07-.23Z" fill="#fff" stroke-width="0"/></g><g id="d-7"><path id="s-32" d="m9.08,119.12l.07.23-.19-.14h.23l-.19.14.07-.23Z" fill="#fff" stroke-width="0"/><path id="s-33" d="m9.08,119.57l.07.23-.19-.14h.23l-.19.14.07-.23Z" fill="#fff" stroke-width="0"/><path id="s-34" d="m9.08,120.02l.07.23-.19-.14h.23l-.19.14.07-.23Z" fill="#fff" stroke-width="0"/><path id="s-35" d="m9.08,120.47l.07.23-.19-.14h.23l-.19.14.07-.23Z" fill="#fff" stroke-width="0"/></g></g></g><g id="a-4"><g id="c-4"><g id="d-8"><path id="s-36" d="m9.33,118.89l.07.23-.19-.14h.23l-.19.14.07-.23Z" fill="#fff" stroke-width="0"/><path id="s-37" d="m9.33,119.34l.07.23-.19-.14h.23l-.19.14.07-.23Z" fill="#fff" stroke-width="0"/><path id="s-38" d="m9.33,119.8l.07.23-.19-.14h.23l-.19.14.07-.23Z" fill="#fff" stroke-width="0"/><path id="s-39" d="m9.33,120.25l.07.23-.19-.14h.23l-.19.14.07-.23Z" fill="#fff" stroke-width="0"/></g><path id="s-40" d="m9.33,120.7l.07.23-.19-.14h.23l-.19.14.07-.23Z" fill="#fff" stroke-width="0"/></g><g id="d-9"><path id="s-41" d="m9.58,119.12l.07.23-.19-.14h.23l-.19.14.07-.23Z" fill="#fff" stroke-width="0"/><path id="s-42" d="m9.58,119.57l.07.23-.19-.14h.23l-.19.14.07-.23Z" fill="#fff" stroke-width="0"/><path id="s-43" d="m9.58,120.02l.07.23-.19-.14h.23l-.19.14.07-.23Z" fill="#fff" stroke-width="0"/><path id="s-44" d="m9.58,120.47l.07.23-.19-.14h.23l-.19.14.07-.23Z" fill="#fff" stroke-width="0"/></g></g><g id="c-5"><g id="d-10"><path id="s-45" d="m9.83,118.89l.07.23-.19-.14h.23l-.19.14.07-.23Z" fill="#fff" stroke-width="0"/><path id="s-46" d="m9.83,119.34l.07.23-.19-.14h.23l-.19.14.07-.23Z" fill="#fff" stroke-width="0"/><path id="s-47" d="m9.83,119.8l.07.23-.19-.14h.23l-.19.14.07-.23Z" fill="#fff" stroke-width="0"/><path id="s-48" d="m9.83,120.25l.07.23-.19-.14h.23l-.19.14.07-.23Z" fill="#fff" stroke-width="0"/></g><path id="s-49" d="m9.83,120.7l.07.23-.19-.14h.23l-.19.14.07-.23Z" fill="#fff" stroke-width="0"/></g><path d="m8.67,112.51c.25-.13.5-.26.76-.37-2.98-1.57-3.15-2.75-3.76-3.99.47,1.44.87,2.87,3,4.36h0Z" fill="#a80126" fill-rule="evenodd" stroke-width="0"/><path d="m7.11,110.15c1.14.95,2.12,1.63,2.85,1.83.72-.38,3.1-.59,3.05-.05-.52-.26-.83-.13-1.12-.04.15,0,.54-.05.66,0-.05.06-.1.08-.15.12.19.04.37.1.53.19.1,0,.16,0,.19.02-.1.03-.22.15-.28.24.66.02,1.36.01,1.44.71.21-.62-.16-.94-.89-1.08-.1-.21-.25-.39-.4-.6-1.99-.11-3.97-.25-5.86-1.34h0Z" fill="#a80126" fill-rule="evenodd" stroke-width="0"/><path d="m5.55,114.96v-1.2h.8s-.06.08-.13.11h-.5v.32h.45s-.05.07-.1.09h-.35v.43c-.04.1-.09.19-.17.26h0Z" fill-rule="evenodd" stroke-width="0"/><path d="m7.73,113.88v.88h.23v-.83c-.31-.28-.62-.28-.93,0v.83h.21v-.49h.16s.06-.04.08-.07h-.24v-.32c.18-.13.33-.13.49,0h0Z" fill-rule="evenodd" stroke-width="0"/><path d="m10.12,114.79h-.93v-1.01h.23v.93h.82s-.05.07-.12.08h0Z" fill-rule="evenodd" stroke-width="0"/><path d="m11.5,113.76v.2c-.37.51.26,1.11.98.67h.05c-.44.49-2.07.08-1.03-.87h0Z" fill-rule="evenodd" stroke-width="0"/><path d="m11.01,113.78v.37c.36-.64.85-.96,2.36-.54-1.45-.57-1.99-.27-2.36.17Z" fill-rule="evenodd" stroke-width="0"/><path d="m13.83,113.68c-.3,0-.61.21-.61.59,0,.77,1.21.81,1.21,0,0-.4-.3-.6-.61-.59h0Zm0,.08c.18,0,.36.17.36.51,0,.69-.71.67-.72,0,0-.34.18-.51.36-.51h0Z" fill-rule="evenodd" stroke-width="0"/><path d="m15.56,113.88v.91h-.18v-.96l.18-.09v.04c.28,0,.47.12.52.19v.82h-.18v-.81c-.06-.11-.14-.13-.35-.14v.02Z" fill-rule="evenodd" stroke-width="0"/><path d="m10.83,115.5c-1.87,0-1.38,1.5-.35,1.47.48-.01.57-.06.89-.41-.2,1.01-.89,1.01-1.71,1.09-.1.07-.12.08-.2.19,1.4-.03,2.57-.28,2.54-1.36-.02-.76-.53-.99-1.18-.98h0Zm-.03.18c.34,0,.62.22.62.48h0c0,.27-.28.48-.62.48-.34,0-.61-.22-.61-.48,0-.27.27-.48.61-.48Z" fill-rule="evenodd" stroke-width="0"/><path d="m18.4,100.89l1.04,1.79v17.3l-.43,2.8v143.23l-.79,2.99v-27.2l-.41-1.32v-2.33l.38-1.43v-12.93l-.45-1.67v-3.35l.37-1.73v-89.37l-.36-1.98v-24.77l.63-.04Z" fill="#101010" fill-rule="evenodd" stroke="#000" stroke-linecap="round" stroke-linejoin="round" stroke-width=".32"/><path d="m3.26,269.98h15.14" fill="none" stroke="#000" stroke-width=".32"/><path d="m3.26,258.65h15.14" fill="none" stroke="#000" stroke-width=".32"/><rect x="2.8" y="270.31" width=".39" height=".37" fill="#101010" stroke-width="0"/><path d="m5.17,225.98h-.05s-.05.01-.05.01h-.05s-.05.03-.05.03l-.05.02-.05.03-.05.03-.05.04-.05.04-.05.05-.05.05-.05.06-.06.07-.06.07-.06.08-.06.09-.06.1-.06.1-.06.11-.06.12-.06.12-.06.13-.06.13-.06.13-.06.14-.06.14-.06.14-.06.14-.05.14-.05.14-.05.14-.05.14-.04.13-.04.13-.04.13-.03.13-.03.14-.03.14-.02.12v.03s-.03.06-.03.06l-.02.06-.04.12-.04.12-.04.12-.03.11-.03.11-.03.11-.03.11-.03.11-.03.11-.03.11-.03.11-.03.12-.03.12v.06s-.02.06-.02.06v.07s-.02.07-.02.07v.07s-.02.07-.02.07v.07s-.02.07-.02.07v.07s-.02.07-.02.07v.04s0,0,0,0h0s0,.04,0,.04v.36s-.06,1.47-.06,1.47l-.2,5.86-.39,11.71-.39,11.71-.2,5.86v.09s0,.05,0,.05h0s0,.02,0,.02v.02s.01.04.01.04v.07s.05.15.05.15l.02.08.04.15.03.08.03.07.03.07.03.07.04.07.04.07.04.07.05.07.05.07.06.07.03.03.03.03.03.03.03.03.03.03.04.03.04.03.04.03.04.03.04.03.04.03.09.06.05.03.05.03.05.03.05.03h.03s.05.01.05.01h0s0-.02,0-.02v-.02s.02-.01.02-.01h0s0-.01,0-.01h0s0-.02,0-.02v-.03s.01-.1.01-.1l.03-.21.02-.21.02-.21.02-.21.05-.43.02-.22.05-.44.02-.22.05-.45.05-.45.05-.46.05-.46.1-.92.05-.46.05-.45.05-.45.05-.45.03-.22.03-.22.03-.22.03-.22.03-.21.03-.21.03-.21.03-.21.03-.21.03-.2.03-.2.03-.2.03-.2.03-.2.03-.19.03-.19.03-.18.03-.18.03-.18.03-.17.04-.12.06-.13.09-.13.11-.13.13-.12.15-.11.16-.09.17-.07.18-.04h.19l.2.04.2.09.33.86.34.95.34.95.34.95.34.95.34.95.34.95.34.95.34.95.34.95.34.95.34.95.09.23.02.03.02.03.02.02.02.02.02.02.02.02.02.02.03.02h.02s.03.03.03.03h.03s.05.03.05.03h.03s.25,0,.25,0l.04-.02.04-.04.04-.06.04-.08.04-.09.03-.1.03-.11.03-.12.03-.13.02-.13.02-.13-.16-1.48-.36-3.1-.36-3.1-.36-3.1-.36-3.1-.36-3.1-.36-3.1-.36-3.1-.36-3.1-.36-3.1-.36-3.1-.36-3.1-.24-2.1v-.2s0-.2,0-.2v-.41s0-.2,0-.2v-.2s0-.2,0-.2v-.41s0-.2,0-.2v-.2s0-.26,0-.26l-.03-.4-.03-.36-.03-.33-.03-.29-.03-.26-.03-.23-.03-.21-.03-.19-.03-.17-.03-.15-.04-.14-.04-.13-.04-.12-.04-.11-.04-.1-.04-.09-.04-.08-.04-.07-.04-.07-.04-.06-.04-.05-.04-.05-.04-.04-.04-.04-.04-.03-.04-.03-.04-.02-.05-.02h-.05s-.05-.02-.05-.02h-.05Z" fill="url(#linear-gradient-5)" stroke-width="0"/><path d="m2.68,271.04l.56-5.1.14-1.6.49-3.76.08-.52.27-.43.34-.3.34-.15.36-.04.24.04.22.16,4.14,11.47.24.22.28.05v-.19s-6.25-16.79-6.25-16.79l-.3-.34-.33-.22-.34.09-.14.42-1.31,16.16.32.41.32.29.36.13Z" fill="url(#linear-gradient-6)" fill-rule="evenodd" stroke-width="0"/><path d="m6.37,229.93l-1-1.06" fill="none" stroke="#000" stroke-width=".32"/><path d="m5.37,228.87h-1.97" fill="none" stroke="#000" stroke-width=".32"/><path d="m3.33,253.52l.14-19.58" fill="none" stroke="#000" stroke-width=".32"/><path d="m3.47,233.93l1.75-2.38" fill="none" stroke="#000" stroke-width=".32"/><path d="m3.47,233.93l-.84-2.17" fill="none" stroke="#000" stroke-width=".32"/><path d="m5.23,231.56l.15-2.7" fill="none" stroke="#000" stroke-linecap="round" stroke-width=".32"/><path d="m2.77,270.31h.5" fill="none" stroke="#000" stroke-width=".32"/><path d="m2.7,270.8h.56" fill="none" stroke="#000" stroke-width=".32"/><path d="m1.7,270.23l.29-3.66.1-1.22.48-6.1.1-1.22.29-3.66.04-.39.03-.1.03-.08.04-.07.04-.06.04-.05.05-.03.05-.03.05-.02h.05s.05,0,.05,0h.05s.05.02.05.02l.05.02.05.03.05.03.05.03.05.04.05.04.04.04.04.05.04.05.04.05.04.05.04.05.04.05.14.36,1.42,3.82.47,1.27,1.42,3.82.95,2.55.47,1.27.95,2.55.47,1.27" fill="none" stroke="#000" stroke-width=".32"/><path d="m5.17,225.98h-.05s-.05.01-.05.01h-.05s-.05.03-.05.03l-.05.02-.05.03-.05.03-.05.04-.05.04-.05.05-.05.05-.05.06-.06.07-.06.07-.06.08-.06.09-.06.1-.06.1-.06.11-.06.12-.06.12-.06.13-.06.13-.06.13-.06.14-.06.14-.06.14-.06.14-.05.14-.05.14-.05.14-.05.14-.04.13-.04.13-.04.13-.03.13-.03.14-.03.14-.02.12v.03s-.03.06-.03.06l-.02.06-.04.12-.04.12-.04.12-.03.11-.03.11-.03.11-.03.11-.03.11-.03.11-.03.11-.03.11-.03.12-.03.12v.06s-.02.06-.02.06v.07s-.02.07-.02.07v.07s-.02.07-.02.07v.07s-.02.07-.02.07v.07s-.02.07-.02.07v.04s0,0,0,0h0s0,.04,0,.04v.36s-.06,1.47-.06,1.47l-.2,5.86-.39,11.71-.39,11.71-.2,5.86v.09s0,.05,0,.05h0s0,.02,0,.02v.02s.01.04.01.04v.07s.05.15.05.15l.02.08.04.15.03.08.03.07.03.07.03.07.04.07.04.07.04.07.05.07.05.07.06.07.03.03.03.03.03.03.03.03.03.03.04.03.04.03.04.03.04.03.04.03.04.03.09.06.05.03.05.03.05.03.05.03h.03s.05.01.05.01h0s0-.02,0-.02v-.02s.02-.01.02-.01h0s0-.01,0-.01h0s0-.02,0-.02v-.03s.01-.1.01-.1l.03-.21.02-.21.02-.21.02-.21.05-.43.02-.22.05-.44.02-.22.05-.45.05-.45.05-.46.05-.46.1-.92.05-.46.05-.45.05-.45.05-.45.03-.22.03-.22.03-.22.03-.22.03-.21.03-.21.03-.21.03-.21.03-.21.03-.2.03-.2.03-.2.03-.2.03-.2.03-.19.03-.19.03-.18.03-.18.03-.18.03-.17.04-.12.06-.13.09-.13.11-.13.13-.12.15-.11.16-.09.17-.07.18-.04h.19l.2.04.2.09.33.86.34.95.34.95.34.95.34.95.34.95.34.95.34.95.34.95.34.95.34.95.34.95.09.23.02.03.02.03.02.02.02.02.02.02.02.02.02.02.03.02h.02s.03.03.03.03h.03s.05.03.05.03h.03s.25,0,.25,0l.04-.02.04-.04.04-.06.04-.08.04-.09.03-.1.03-.11.03-.12.03-.13.02-.13.02-.13-.16-1.48-.36-3.1-.36-3.1-.36-3.1-.36-3.1-.36-3.1-.36-3.1-.36-3.1-.36-3.1-.36-3.1-.36-3.1-.36-3.1-.24-2.1v-.2s0-.2,0-.2v-.41s0-.2,0-.2v-.2s0-.2,0-.2v-.41s0-.2,0-.2v-.2s0-.26,0-.26l-.03-.4-.03-.36-.03-.33-.03-.29-.03-.26-.03-.23-.03-.21-.03-.19-.03-.17-.03-.15-.04-.14-.04-.13-.04-.12-.04-.11-.04-.1-.04-.09-.04-.08-.04-.07-.04-.07-.04-.06-.04-.05-.04-.05-.04-.04-.04-.04-.04-.03-.04-.03-.04-.02-.05-.02h-.05s-.05-.02-.05-.02h-.05Z" fill="none" stroke="#000" stroke-width=".32"/><rect x="18.51" y="270.31" width=".39" height=".37" fill="#101010" stroke-width="0"/><path d="m16.52,225.98h.05s.05.01.05.01h.05s.05.03.05.03l.05.02.05.03.05.03.05.04.05.04.05.05.05.05.05.06.06.07.06.07.06.08.06.09.06.1.06.1.06.11.06.12.06.12.06.13.06.13.06.13.06.14.06.14.06.14.06.14.05.14.05.14.05.14.05.14.04.13.04.13.04.13.03.13.03.14.03.14.02.12v.03s.03.06.03.06l.02.06.04.12.04.12.04.12.03.11.03.11.03.11.03.11.03.11.03.11.03.11.03.11.03.12.03.12v.06s.02.06.02.06v.07s.02.07.02.07v.07s.02.07.02.07v.07s.02.07.02.07v.07s.02.07.02.07v.04s0,0,0,0h0s0,.04,0,.04v.36s.06,1.47.06,1.47l.2,5.86.39,11.71.39,11.71.2,5.86v.09s0,.05,0,.05h0s0,.02,0,.02v.02s-.01.04-.01.04v.07s-.05.15-.05.15l-.02.08-.04.15-.03.08-.03.07-.03.07-.03.07-.04.07-.04.07-.04.07-.05.07-.05.07-.06.07-.03.03-.03.03-.03.03-.03.03-.03.03-.04.03-.04.03-.04.03-.04.03-.04.03-.04.03-.09.06-.05.03-.05.03-.05.03-.05.03h-.03s-.05.01-.05.01h0s0-.02,0-.02v-.02s-.02-.01-.02-.01h0s0-.01,0-.01h0s0-.02,0-.02v-.03s-.01-.1-.01-.1l-.03-.21-.02-.21-.02-.21-.02-.21-.05-.43-.02-.22-.05-.44-.02-.22-.05-.45-.05-.45-.05-.46-.05-.46-.1-.92-.05-.46-.05-.45-.05-.45-.05-.45-.03-.22-.03-.22-.03-.22-.03-.22-.03-.21-.03-.21-.03-.21-.03-.21-.03-.21-.03-.2-.03-.2-.03-.2-.03-.2-.03-.2-.03-.19-.03-.19-.03-.18-.03-.18-.03-.18-.03-.17-.04-.12-.06-.13-.09-.13-.11-.13-.13-.12-.15-.11-.16-.09-.17-.07-.18-.04h-.19l-.2.04-.2.09-.33.86-.34.95-.34.95-.34.95-.34.95-.34.95-.34.95-.34.95-.34.95-.34.95-.34.95-.34.95-.09.23-.02.03-.02.03-.02.02-.02.02-.02.02-.02.02-.02.02-.03.02h-.02s-.03.03-.03.03h-.03s-.05.03-.05.03h-.03s-.25,0-.25,0l-.04-.02-.04-.04-.04-.06-.04-.08-.04-.09-.03-.1-.03-.11-.03-.12-.03-.13-.02-.13-.02-.13.16-1.48.36-3.1.36-3.1.36-3.1.36-3.1.36-3.1.36-3.1.36-3.1.36-3.1.36-3.1.36-3.1.36-3.1.24-2.1v-.2s0-.2,0-.2v-.41s0-.2,0-.2v-.2s0-.2,0-.2v-.41s0-.2,0-.2v-.2s0-.26,0-.26l.03-.4.03-.36.03-.33.03-.29.03-.26.03-.23.03-.21.03-.19.03-.17.03-.15.04-.14.04-.13.04-.12.04-.11.04-.1.04-.09.04-.08.04-.07.04-.07.04-.06.04-.05.04-.05.04-.04.04-.04.04-.03.04-.03.04-.02.05-.02h.05s.05-.02.05-.02h.05Z" fill="url(#linear-gradient-7)" stroke-width="0"/><path d="m19.01,271.04l-.56-5.1-.14-1.6-.49-3.76-.08-.52-.27-.43-.34-.3-.34-.15-.36-.04-.24.04-.22.16-4.14,11.47-.24.22-.28.05v-.19s6.25-16.79,6.25-16.79l.3-.34.33-.22.34.09.14.42,1.31,16.16-.32.41-.32.29-.36.13Z" fill="url(#linear-gradient-8)" fill-rule="evenodd" stroke-width="0"/><path d="m15.32,229.93l1-1.06" fill="none" stroke="#000" stroke-width=".32"/><path d="m16.32,228.87h1.97" fill="none" stroke="#000" stroke-width=".32"/><path d="m18.37,253.52l-.14-19.58" fill="none" stroke="#000" stroke-width=".32"/><path d="m18.22,233.93l-1.75-2.38" fill="none" stroke="#000" stroke-width=".32"/><path d="m18.22,233.93l.84-2.17" fill="none" stroke="#000" stroke-width=".32"/><path d="m16.47,231.56l-.15-2.7" fill="none" stroke="#000" stroke-linecap="round" stroke-width=".32"/><path d="m18.93,270.31h-.5" fill="none" stroke="#000" stroke-width=".32"/><path d="m18.99,270.8h-.56" fill="none" stroke="#000" stroke-width=".32"/><path d="m20,270.23l-.29-3.66-.1-1.22-.48-6.1-.1-1.22-.29-3.66-.04-.39-.03-.1-.03-.08-.04-.07-.04-.06-.04-.05-.05-.03-.05-.03-.05-.02h-.05s-.05,0-.05,0h-.05s-.05.02-.05.02l-.05.02-.05.03-.05.03-.05.03-.05.04-.05.04-.04.04-.04.05-.04.05-.04.05-.04.05-.04.05-.04.05-.14.36-1.42,3.82-.47,1.27-1.42,3.82-.95,2.55-.47,1.27-.95,2.55-.47,1.27" fill="none" stroke="#000" stroke-width=".32"/><path d="m16.52,225.98h.05s.05.01.05.01h.05s.05.03.05.03l.05.02.05.03.05.03.05.04.05.04.05.05.05.05.05.06.06.07.06.07.06.08.06.09.06.1.06.1.06.11.06.12.06.12.06.13.06.13.06.13.06.14.06.14.06.14.06.14.05.14.05.14.05.14.05.14.04.13.04.13.04.13.03.13.03.14.03.14.02.12v.03s.03.06.03.06l.02.06.04.12.04.12.04.12.03.11.03.11.03.11.03.11.03.11.03.11.03.11.03.11.03.12.03.12v.06s.02.06.02.06v.07s.02.07.02.07v.07s.02.07.02.07v.07s.02.07.02.07v.07s.02.07.02.07v.04s0,0,0,0h0s0,.04,0,.04v.36s.06,1.47.06,1.47l.2,5.86.39,11.71.39,11.71.2,5.86v.09s0,.05,0,.05h0s0,.02,0,.02v.02s-.01.04-.01.04v.07s-.05.15-.05.15l-.02.08-.04.15-.03.08-.03.07-.03.07-.03.07-.04.07-.04.07-.04.07-.05.07-.05.07-.06.07-.03.03-.03.03-.03.03-.03.03-.03.03-.04.03-.04.03-.04.03-.04.03-.04.03-.04.03-.09.06-.05.03-.05.03-.05.03-.05.03h-.03s-.05.01-.05.01h0s0-.02,0-.02v-.02s-.02-.01-.02-.01h0s0-.01,0-.01h0s0-.02,0-.02v-.03s-.01-.1-.01-.1l-.03-.21-.02-.21-.02-.21-.02-.21-.05-.43-.02-.22-.05-.44-.02-.22-.05-.45-.05-.45-.05-.46-.05-.46-.1-.92-.05-.46-.05-.45-.05-.45-.05-.45-.03-.22-.03-.22-.03-.22-.03-.22-.03-.21-.03-.21-.03-.21-.03-.21-.03-.21-.03-.2-.03-.2-.03-.2-.03-.2-.03-.2-.03-.19-.03-.19-.03-.18-.03-.18-.03-.18-.03-.17-.04-.12-.06-.13-.09-.13-.11-.13-.13-.12-.15-.11-.16-.09-.17-.07-.18-.04h-.19l-.2.04-.2.09-.33.86-.34.95-.34.95-.34.95-.34.95-.34.95-.34.95-.34.95-.34.95-.34.95-.34.95-.34.95-.09.23-.02.03-.02.03-.02.02-.02.02-.02.02-.02.02-.02.02-.03.02h-.02s-.03.03-.03.03h-.03s-.05.03-.05.03h-.03s-.25,0-.25,0l-.04-.02-.04-.04-.04-.06-.04-.08-.04-.09-.03-.1-.03-.11-.03-.12-.03-.13-.02-.13-.02-.13.16-1.48.36-3.1.36-3.1.36-3.1.36-3.1.36-3.1.36-3.1.36-3.1.36-3.1.36-3.1.36-3.1.36-3.1.24-2.1v-.2s0-.2,0-.2v-.41s0-.2,0-.2v-.2s0-.2,0-.2v-.41s0-.2,0-.2v-.2s0-.26,0-.26l.03-.4.03-.36.03-.33.03-.29.03-.26.03-.23.03-.21.03-.19.03-.17.03-.15.04-.14.04-.13.04-.12.04-.11.04-.1.04-.09.04-.08.04-.07.04-.07.04-.06.04-.05.04-.05.04-.04.04-.04.04-.03.04-.03.04-.02.05-.02h.05s.05-.02.05-.02h.05Z" fill="none" stroke="#000" stroke-width=".32"/><path d="m16.81,96.29l.66.31.18.73-.47.6-.87.04-.49-.55.12-.68.35-.41.51-.04Z" fill="#1a1a1a" fill-rule="evenodd" stroke-width="0"/><path d="m15.38,98.06l-.43-.05-1.05,1.29-.02.75-.13.63.16.68-.15.75.1.63-.12.56.16.56-.15.66.07.45-.05.66.53.16-.02-6.43,1.08-1.31Z" fill="#474747" fill-rule="evenodd" stroke-width="0"/><path d="m14.3,105.84l4.77-.03v-6.45l-1.39-2.11-.56.79-.74.05-.3-.29-.45-.22-.23.53-1.09,1.24v6.48Z" fill="#999" fill-rule="evenodd" stroke-width="0"/><path d="m14.33,99.37v6.39h4.7l-4.7-6.39,1.06-1.32.31-.81" fill="none" stroke="#000" stroke-linecap="round" stroke-linejoin="round" stroke-width=".31"/><path d="m14.33,100.85l3.68,4.89" fill="none" stroke="#000" stroke-linecap="round" stroke-linejoin="round" stroke-width=".31"/><path d="m17.04,105.74l-2.71-3.57" fill="none" stroke="#000" stroke-linecap="round" stroke-linejoin="round" stroke-width=".31"/><path d="m16.15,105.72l-1.82-2.23" fill="none" stroke="#000" stroke-linecap="round" stroke-linejoin="round" stroke-width=".31"/><path d="m15.18,105.76l-.85-1.08" fill="none" stroke="#000" stroke-linecap="round" stroke-linejoin="round" stroke-width=".31"/><path d="m19.02,105.75v-6.41l-.93-1.4" fill="none" stroke="#000" stroke-linecap="round" stroke-linejoin="round" stroke-width=".31"/><path d="m14.34,105.76l4.67-6.4" fill="none" stroke="#000" stroke-linecap="round" stroke-linejoin="round" stroke-width=".31"/><path d="m19.03,100.85l-3.68,4.89" fill="none" stroke="#000" stroke-linecap="round" stroke-linejoin="round" stroke-width=".31"/><path d="m16.29,105.74l2.71-3.57" fill="none" stroke="#000" stroke-linecap="round" stroke-linejoin="round" stroke-width=".31"/><path d="m17.2,105.72l1.81-2.21" fill="none" stroke="#000" stroke-linecap="round" stroke-linejoin="round" stroke-width=".31"/><path d="m16.15,105.72l-1.82-2.23" fill="none" stroke="#000" stroke-linecap="round" stroke-linejoin="round" stroke-width=".31"/><path d="m18.16,105.76l.85-1.08" fill="none" stroke="#000" stroke-linecap="round" stroke-linejoin="round" stroke-width=".31"/><path d="m14.34,104.54l4.23-5.89" fill="none" stroke="#000" stroke-linecap="round" stroke-linejoin="round" stroke-width=".31"/><path d="m14.31,103.32l3.34-4.76" fill="none" stroke="#000" stroke-linecap="round" stroke-linejoin="round" stroke-width=".31"/><path d="m19.02,104.51l-4.17-5.79" fill="none" stroke="#000" stroke-linecap="round" stroke-linejoin="round" stroke-width=".31"/><path d="m19.02,103.25l-3.23-4.61" fill="none" stroke="#000" stroke-linecap="round" stroke-linejoin="round" stroke-width=".31"/><path d="m14.31,101.97l2.39-3.4,1.01-1.23" fill="none" stroke="#000" stroke-linecap="round" stroke-linejoin="round" stroke-width=".31"/><path d="m19.05,101.97l-2.34-3.43-1.02-1.31" fill="none" stroke="#000" stroke-linecap="round" stroke-linejoin="round" stroke-width=".31"/><path d="m14.33,100.68l1.46-2.03" fill="none" stroke="#000" stroke-linecap="round" stroke-linejoin="round" stroke-width=".31"/><path d="m19.01,100.66l-1.35-2.1" fill="none" stroke="#000" stroke-linecap="round" stroke-linejoin="round" stroke-width=".31"/><path d="m18.13,97.98h-.19s-.27.58-.27.58l.07-.63-.02-.61.41.65Z" fill="#474747" fill-rule="evenodd" stroke="#000" stroke-linecap="round" stroke-linejoin="round" stroke-width=".31"/><path d="m15.38,98.05l.16.02.25.58-.09-.71v-.68s-.32.8-.32.8Z" fill="#474747" fill-rule="evenodd" stroke="#000" stroke-linecap="round" stroke-linejoin="round" stroke-width=".31"/><path d="m16.67,97.3v.58h-.1s-.2.2-.2.2l.34.46.42-.41-.18-.22-.1-.02v-.59s-.18,0-.18,0Z" fill="#474747" fill-rule="evenodd" stroke="#000" stroke-linecap="round" stroke-linejoin="round" stroke-width=".31"/><path d="m16.35,98.11l-.6.06" fill="none" stroke="#000" stroke-linecap="round" stroke-linejoin="round" stroke-width=".31"/><path d="m17.15,98.11l.57.06" fill="none" stroke="#000" stroke-linecap="round" stroke-linejoin="round" stroke-width=".31"/><path d="m15.41,98.02l-.46-.04s-.09.25-.19.36-.42.22-.42.22c0,0,0,.22-.07.35-.08.13-.43.33-.43.33,0,0,.11.44.09.66-.02.23-.21.66-.21.66,0,0,.2.46.2.69s-.19.65-.19.65c0,0,.16.5.16.74s-.13.64-.13.64c0,0,.17.44.16.66s-.2.58-.2.58c0,0,.16.39.16.57,0,.19-.16.49-.16.49l.58.17" fill="none" stroke="#000" stroke-linecap="round" stroke-linejoin="round" stroke-width=".31"/><path d="m13.85,99.26l.44.1" fill="none" stroke="#000" stroke-linecap="round" stroke-linejoin="round" stroke-width=".31"/><path d="m14.85,98.75l-.06,1.26" fill="none" stroke="#000" stroke-linecap="round" stroke-linejoin="round" stroke-width=".31"/><path d="m15.78,98.7l-.06,1.18" fill="none" stroke="#000" stroke-linecap="round" stroke-linejoin="round" stroke-width=".31"/><path d="m17.65,98.62v1.26" fill="none" stroke="#000" stroke-linecap="round" stroke-linejoin="round" stroke-width=".31"/><path d="m18.57,98.68v1.27" fill="none" stroke="#000" stroke-linecap="round" stroke-linejoin="round" stroke-width=".31"/><path d="m15.47,97.29h.39s.06-.47.06-.47l.27-.38.48-.14.34-.05-.39-.29h-.6l-.41.33-.15.55v.46Z" fill="#4d4d4d" fill-rule="evenodd" stroke-width="0"/><path d="m17.19,96.34s-.4-.3-.53-.34c-.16-.05-.33-.08-.49-.05-.15.02-.3.07-.41.16-.11.09-.17.23-.21.36-.05.15-.07.31-.08.47-.02.15-.02.45-.02.45l.38.34" fill="none" stroke="#000" stroke-linecap="round" stroke-linejoin="round" stroke-width=".31"/><path d="m15.86,97.23s0-.29.07-.41c.07-.17.19-.34.35-.43.13-.08.29-.07.44-.07.15,0,.3-.02.44.04.13.05.26.14.35.25.06.08.07.19.1.29.04.15.07.45.07.45" fill="none" stroke="#000" stroke-linecap="round" stroke-linejoin="round" stroke-width=".31"/><path d="m4.89,96.29l-.66.31-.18.73.47.6.87.04.49-.55-.12-.68-.35-.41-.51-.04Z" fill="#1a1a1a" fill-rule="evenodd" stroke-width="0"/><path d="m6.32,98.06l.43-.05,1.05,1.29.02.75.13.63-.16.68.15.75-.1.63.12.56-.16.56.15.66-.07.45.05.66-.53.16.02-6.43-1.08-1.31Z" fill="#474747" fill-rule="evenodd" stroke-width="0"/><path d="m7.4,105.84l-4.77-.03v-6.45l1.39-2.11.56.79.74.05.3-.29.45-.22.23.53,1.09,1.24v6.48Z" fill="#999" fill-rule="evenodd" stroke-width="0"/><path d="m7.36,99.37v6.39H2.66l4.7-6.39-1.06-1.32-.31-.81" fill="none" stroke="#000" stroke-linecap="round" stroke-linejoin="round" stroke-width=".31"/><path d="m7.36,100.85l-3.68,4.89" fill="none" stroke="#000" stroke-linecap="round" stroke-linejoin="round" stroke-width=".31"/><path d="m4.65,105.74l2.71-3.57" fill="none" stroke="#000" stroke-linecap="round" stroke-linejoin="round" stroke-width=".31"/><path d="m5.54,105.72l1.82-2.23" fill="none" stroke="#000" stroke-linecap="round" stroke-linejoin="round" stroke-width=".31"/><path d="m6.51,105.76l.85-1.08" fill="none" stroke="#000" stroke-linecap="round" stroke-linejoin="round" stroke-width=".31"/><path d="m2.67,105.75v-6.41l.93-1.4" fill="none" stroke="#000" stroke-linecap="round" stroke-linejoin="round" stroke-width=".31"/><path d="m7.35,105.76l-4.67-6.4" fill="none" stroke="#000" stroke-linecap="round" stroke-linejoin="round" stroke-width=".31"/><path d="m2.66,100.85l3.68,4.89" fill="none" stroke="#000" stroke-linecap="round" stroke-linejoin="round" stroke-width=".31"/><path d="m5.41,105.74l-2.71-3.57" fill="none" stroke="#000" stroke-linecap="round" stroke-linejoin="round" stroke-width=".31"/><path d="m4.49,105.72l-1.81-2.21" fill="none" stroke="#000" stroke-linecap="round" stroke-linejoin="round" stroke-width=".31"/><path d="m5.54,105.72l1.82-2.23" fill="none" stroke="#000" stroke-linecap="round" stroke-linejoin="round" stroke-width=".31"/><path d="m3.53,105.76l-.85-1.08" fill="none" stroke="#000" stroke-linecap="round" stroke-linejoin="round" stroke-width=".31"/><path d="m7.35,104.54l-4.23-5.89" fill="none" stroke="#000" stroke-linecap="round" stroke-linejoin="round" stroke-width=".31"/><path d="m7.38,103.32l-3.34-4.76" fill="none" stroke="#000" stroke-linecap="round" stroke-linejoin="round" stroke-width=".31"/><path d="m2.67,104.51l4.17-5.79" fill="none" stroke="#000" stroke-linecap="round" stroke-linejoin="round" stroke-width=".31"/><path d="m2.67,103.25l3.23-4.61" fill="none" stroke="#000" stroke-linecap="round" stroke-linejoin="round" stroke-width=".31"/><path d="m7.39,101.97l-2.39-3.4-1.01-1.23" fill="none" stroke="#000" stroke-linecap="round" stroke-linejoin="round" stroke-width=".31"/><path d="m2.65,101.97l2.34-3.43,1.02-1.31" fill="none" stroke="#000" stroke-linecap="round" stroke-linejoin="round" stroke-width=".31"/><path d="m7.36,100.68l-1.46-2.03" fill="none" stroke="#000" stroke-linecap="round" stroke-linejoin="round" stroke-width=".31"/><path d="m2.69,100.66l1.35-2.1" fill="none" stroke="#000" stroke-linecap="round" stroke-linejoin="round" stroke-width=".31"/><path d="m3.56,97.98h.19s.27.58.27.58l-.07-.63.02-.61-.41.65Z" fill="#474747" fill-rule="evenodd" stroke="#000" stroke-linecap="round" stroke-linejoin="round" stroke-width=".31"/><path d="m6.32,98.05l-.16.02-.25.58.09-.71v-.68s.32.8.32.8Z" fill="#474747" fill-rule="evenodd" stroke="#000" stroke-linecap="round" stroke-linejoin="round" stroke-width=".31"/><path d="m5.02,97.3v.58h.1s.2.2.2.2l-.34.46-.42-.41.18-.22.1-.02v-.59s.18,0,.18,0Z" fill="#474747" fill-rule="evenodd" stroke="#000" stroke-linecap="round" stroke-linejoin="round" stroke-width=".31"/><path d="m5.34,98.11l.6.06" fill="none" stroke="#000" stroke-linecap="round" stroke-linejoin="round" stroke-width=".31"/><path d="m4.55,98.11l-.57.06" fill="none" stroke="#000" stroke-linecap="round" stroke-linejoin="round" stroke-width=".31"/><path d="m6.28,98.02l.46-.04s.09.25.19.36.42.22.42.22c0,0,0,.22.07.35.08.13.43.33.43.33,0,0-.11.44-.09.66.02.23.21.66.21.66,0,0-.2.46-.2.69s.19.65.19.65c0,0-.16.5-.16.74s.13.64.13.64c0,0-.17.44-.16.66s.2.58.2.58c0,0-.16.39-.16.57,0,.19.16.49.16.49l-.58.17" fill="none" stroke="#000" stroke-linecap="round" stroke-linejoin="round" stroke-width=".31"/><path d="m7.84,99.26l-.44.1" fill="none" stroke="#000" stroke-linecap="round" stroke-linejoin="round" stroke-width=".31"/><path d="m6.84,98.75l.06,1.26" fill="none" stroke="#000" stroke-linecap="round" stroke-linejoin="round" stroke-width=".31"/><path d="m5.91,98.7l.06,1.18" fill="none" stroke="#000" stroke-linecap="round" stroke-linejoin="round" stroke-width=".31"/><path d="m4.04,98.62v1.26" fill="none" stroke="#000" stroke-linecap="round" stroke-linejoin="round" stroke-width=".31"/><path d="m3.12,98.68v1.27" fill="none" stroke="#000" stroke-linecap="round" stroke-linejoin="round" stroke-width=".31"/><path d="m6.23,97.29h-.39s-.06-.47-.06-.47l-.27-.38-.48-.14-.34-.05.39-.29h.6l.41.33.15.55v.46Z" fill="#4d4d4d" fill-rule="evenodd" stroke-width="0"/><path d="m4.5,96.34s.4-.3.53-.34c.16-.05.33-.08.49-.05.15.02.3.07.41.16.11.09.17.23.21.36.05.15.07.31.08.47.02.15.02.45.02.45l-.38.34" fill="none" stroke="#000" stroke-linecap="round" stroke-linejoin="round" stroke-width=".31"/><path d="m5.84,97.23s0-.29-.07-.41c-.07-.17-.19-.34-.35-.43-.13-.08-.29-.07-.44-.07-.15,0-.3-.02-.44.04-.13.05-.26.14-.35.25-.06.08-.07.19-.1.29-.04.15-.07.45-.07.45" fill="none" stroke="#000" stroke-linecap="round" stroke-linejoin="round" stroke-width=".31"/><path d="m15.35,4.72c.39.83.29.81.74,1.89s1.6,3.52,1.98,4.61,1.01,3.19.85,6.25H2.75c-.17-3.06.47-5.16.85-6.25s1.54-3.52,1.98-4.61.34-1.06.74-1.89l.09.02s2.93-.79,4.43-.79,4.43.79,4.43.79l.09-.02Z" fill="url(#linear-gradient-9)" fill-rule="evenodd" stroke="#000" stroke-linecap="round" stroke-linejoin="round" stroke-width=".33"/><path d="m7.43,4.48c-.74,4.28-1.24,8.61-1.47,13l-.71-5.46-.35-.43-1.44.11s0-.14.11-.47c.38-1.09,1.54-3.52,1.98-4.61s.34-1.06.74-1.89l.09.02,1.06-.26Z" fill="url(#linear-gradient-10)" fill-rule="evenodd" stroke-width="0"/><path d="m4.9,11.59l-1.44.11s0-.14.11-.47c.38-1.09,1.54-3.52,1.98-4.61s.34-1.06.74-1.89l.09.02.64-.16c-.75,2.32-1.52,4.63-2.11,7.01h0Z" fill="url(#linear-gradient-11)" fill-rule="evenodd" stroke-width="0"/><path d="m14.2,4.48c.74,4.28,1.24,8.61,1.47,13l.71-5.46.35-.43,1.44.11s0-.14-.11-.47c-.38-1.09-1.54-3.52-1.98-4.61s-.34-1.06-.74-1.89l-.09.02-1.06-.26Z" fill="url(#linear-gradient-12)" fill-rule="evenodd" stroke-width="0"/><path d="m16.73,11.59l1.44.11s0-.14-.11-.47c-.38-1.09-1.54-3.52-1.98-4.61s-.34-1.06-.74-1.89l-.09.02-.64-.16c.75,2.32,1.52,4.63,2.11,7.01h0Z" fill="url(#linear-gradient-13)" fill-rule="evenodd" stroke-width="0"/><path d="m3.17,18.38s-.21-.18-.27-.31c-.09-.21-.07-.7-.07-.7h16.01s.02.48-.07.7c-.05.12-.27.31-.27.31H3.17Z" fill="url(#linear-gradient-14)" fill-rule="evenodd" stroke="#000" stroke-linecap="round" stroke-linejoin="round" stroke-width=".33"/><path d="m3.13,33.21s-2.31-.45-2.53-.48c-.22-.04-.33-.13-.36-.33,0-.84-.05-5-.05-5l3.15-7.46.1,13.25-.31.02Z" fill="url(#linear-gradient-15)" fill-rule="evenodd" stroke="#000" stroke-linecap="round" stroke-linejoin="round" stroke-width=".33"/><path d="m18.53,33.21s2.31-.45,2.53-.48c.22-.04.33-.13.36-.33,0-.84.05-5,.05-5l-3.15-7.46-.1,13.25.31.02Z" fill="url(#linear-gradient-16)" fill-rule="evenodd" stroke="#000" stroke-linecap="round" stroke-linejoin="round" stroke-width=".33"/><rect x="3.25" y="18.29" width="15.16" height="14.94" fill="url(#linear-gradient-17)" stroke="#000" stroke-width=".33"/><path d="m6.31,4.72c.39-.83,1.11-2.32,1.73-3.03s1.2-1.08,1.67-1.3.93-.2,1.12-.2.66-.02,1.12.2c.46.22,1.06.6,1.67,1.3s1.33,2.2,1.73,3.03l-.09.02s-2.93-.79-4.43-.79-4.43.79-4.43.79l-.09-.02Z" fill="url(#linear-gradient-18)" fill-rule="evenodd" stroke-width="0"/><ellipse cx="7.63" cy="9.11" rx="1.1" ry=".58" transform="translate(-2.29 15.66) rotate(-83.48)" fill="url(#radial-gradient)" stroke="#000" stroke-linecap="round" stroke-linejoin="round" stroke-width=".33"/><ellipse cx="14.02" cy="9.12" rx=".58" ry="1.1" transform="translate(-.94 1.65) rotate(-6.52)" fill="url(#radial-gradient-2)" stroke="#000" stroke-linecap="round" stroke-linejoin="round" stroke-width=".33"/><path d="m5.95,17.34s-.56-5.18-.66-5.37c-.08-.16-.19-.33-.36-.39-.15-.06-1.4.08-1.4.08-.58,1.79-.78,3.69-.71,5.72l3.12-.04Z" fill="#787878" fill-rule="evenodd" stroke-width="0"/><path d="m5.57,17.3s-.25-2.5-.48-3.73c-.07-.35-.25-1.03-.25-1.03-.03-.08-.07-.17-.23-.25l-.99.04c-.17.05-.21.14-.28.22-.45,1.6-.54,3.21-.48,4.81l2.72-.05Z" fill="url(#linear-gradient-19)" fill-rule="evenodd" stroke-width="0"/><path d="m5.05,13.47s-.12-.18-.22-.23c-.07-.04-.23-.06-.29-.02-.87.53-1.21,1.93-1.69,2.93l.03,1.17,2.7-.03-.53-3.83Z" fill="url(#linear-gradient-20)" fill-rule="evenodd" stroke-width="0"/><path d="m5.05,13.47s-.12-.18-.22-.23c-.07-.04-.23-.06-.29-.02-.87.53-1.24,2.04-1.72,3.04" stroke="#000" stroke-linecap="round" stroke-linejoin="round" stroke-width=".33"/><path d="m5.95,17.34s-.56-5.18-.66-5.37c-.08-.16-.19-.33-.36-.39-.15-.06-1.4.08-1.4.08-.58,1.79-.78,3.69-.71,5.72l3.12-.04Z" stroke="#000" stroke-linecap="round" stroke-linejoin="round" stroke-width=".33"/><path d="m5.57,17.3s-.25-2.5-.48-3.73c-.07-.35-.25-1.03-.25-1.03-.03-.08-.07-.17-.23-.25l-.99.04c-.17.05-.26.18-.33.26" stroke="#000" stroke-linecap="round" stroke-linejoin="round" stroke-width=".33"/><path d="m15.71,17.34s.56-5.18.66-5.37c.08-.16.19-.33.36-.39.15-.06,1.4.08,1.4.08.58,1.79.78,3.69.71,5.72l-3.12-.04Z" fill="#787878" fill-rule="evenodd" stroke-width="0"/><path d="m16.09,17.3s.25-2.5.48-3.73c.07-.35.25-1.03.25-1.03.03-.08.07-.17.23-.25l.99.04c.17.05.21.14.28.22.45,1.6.54,3.21.48,4.81l-2.72-.05Z" fill="url(#linear-gradient-21)" fill-rule="evenodd" stroke-width="0"/><path d="m16.61,13.47s.12-.18.22-.23c.07-.04.23-.06.29-.02.87.53,1.21,1.93,1.69,2.93l-.03,1.17-2.7-.03.53-3.83Z" fill="url(#linear-gradient-22)" fill-rule="evenodd" stroke-width="0"/><path d="m16.61,13.47s.12-.18.22-.23c.07-.04.23-.06.29-.02.87.53,1.24,2.04,1.72,3.04" stroke="#000" stroke-linecap="round" stroke-linejoin="round" stroke-width=".33"/><path d="m15.71,17.34s.56-5.18.66-5.37c.08-.16.19-.33.36-.39.15-.06,1.4.08,1.4.08.58,1.79.78,3.69.71,5.72l-3.12-.04Z" stroke="#000" stroke-linecap="round" stroke-linejoin="round" stroke-width=".33"/><path d="m16.09,17.3s.25-2.5.48-3.73c.07-.35.25-1.03.25-1.03.03-.08.07-.17.23-.25l.99.04c.17.05.26.18.33.26" stroke="#000" stroke-linecap="round" stroke-linejoin="round" stroke-width=".33"/><path d="m6.4,4.74s2.93-.79,4.43-.79,4.43.79,4.43.79" fill="none" stroke="#000" stroke-linecap="round" stroke-linejoin="round" stroke-width=".33"/><path d="m9.33,5.54h-.7l-.03.02v.63h.19v-.23l.02-.02h.52c.13,0,.19-.04.19-.12v-.14c0-.09-.06-.13-.19-.13m0,.23s-.03.05-.09.05h-.42l-.02-.02v-.13l.02-.02h.43c.06,0,.09,0,.09.05v.07Z" fill="#005288" stroke-width="0"/><polyline points="9.87 5.65 10.04 5.9 10.03 5.92 9.66 5.92 9.56 6.04 10.12 6.04 10.15 6.06 10.24 6.18 10.46 6.18 9.97 5.53" fill="#005288" stroke-width="0"/><polyline points="12.08 6.05 12.08 5.88 12.1 5.86 12.48 5.86 12.48 5.75 11.89 5.75 11.89 6.18 12.76 6.18 12.76 6.07 12.11 6.07" fill="#005288" stroke-width="0"/><rect x="11.89" y="5.54" width=".88" height=".12" fill="#005288" stroke-width="0"/><path d="m10.91,5.65h.71c-.01-.09-.07-.12-.21-.12h-.51c-.16,0-.21.03-.21.15v.34c0,.12.05.15.21.15h.51c.14,0,.2-.03.2-.12h-.7l-.02-.02v-.38" fill="#005288" stroke-width="0"/><path d="m8.12,5.79h-.52l-.02-.02v-.11h.02s.7-.01.7-.01v-.02c-.01-.06-.08-.09-.19-.09h-.48c-.16,0-.21.03-.21.15v.07c0,.12.05.15.21.15h.53v.15h-.6s-.15,0-.15,0c0,0-.02,0-.02.01.01.08.07.11.21.11h.53c.16,0,.21-.03.21-.15v-.09c0-.12-.05-.15-.21-.15" fill="#005288" stroke-width="0"/><path d="m13.32,5.53h-.29l-.02.03.32.23c.06-.04.13-.07.2-.11" fill="#005288" stroke-width="0"/><path d="m13.58,5.97l.28.21h.29v-.03s-.41-.31-.41-.31c-.06.04-.11.08-.17.13" fill="#005288" stroke-width="0"/><path d="m13.28,6.18h-.26l-.02-.03c.18-.17.97-.91,2.71-.99,0,0-1.45.05-2.42,1.02" fill="#a7a9ac" stroke-width="0"/><path d="m12.41,11.2c.17-.07.3-.17.33-.37l-.25-3.5c-.05-.27-.22-.35-.41-.38h-2.49c-.19.03-.35.11-.41.38l-.25,3.5c.03.2.16.3.33.37h3.15Z" fill="none" stroke="#000" stroke-linecap="round" stroke-linejoin="round" stroke-width=".33"/><path color-rendering="auto" d="m11.5,8.71l-.07.07v.59l.07.07h.75l.07-.07v-.59l-.07-.07h-.75Zm.07.14h.62v.45h-.62v-.45Z" image-rendering="auto" shape-rendering="auto" fill-rule="evenodd" stroke-width="0"/><path d="m9.18,15.77c.54-.06,1.21-.09,1.23.4.35-.18.88-.49,1.46-.02.09,0,.19-.02.27.01-.07-.07-.11-.19-.14-.32-.31-.04-.59-.13-.88-.19-.3-.02-.59-.06-.89-.12-.33-.21-.56-.5-.89-.73-.27-.1-.5-.28-.75-.43.46.4,1.4,1.08.59,1.39h0Z" fill="#00006d" fill-rule="evenodd" stroke-width="0"/><path d="m8.82,14.29c.59.28,1.18.55,1.77.75.1.08.2.16.4.17.27.3.71.46.9.42.12.05.16.03.2.09.06.09.11.3.12.41-.06-.04-.12-.11-.13-.19-.03-.26-.09-.23-.14-.24-.08,0-.16,0,.06.08l-.7-.14-.74-.26-.12.08.26.08-.36-.05c-.33-.16-.54-.44-.88-.66.24.09.49.18.73.2l-1.37-.75Z" fill="#00006d" fill-rule="evenodd" stroke-width="0"/><path d="m10.4,16.77h.12s0-.33,0-.33c-.16-.1-.28-.1-.42,0v.32s.12,0,.12,0v-.19s.06,0,.06,0c.02,0,.03-.04.04-.05h-.11s0-.09,0-.09c.08-.05.18,0,.18,0,0,0,0,.25,0,.34h0Z" fill-rule="evenodd" stroke-width="0"/><path d="m11.91,16.36c-.12,0-.26.08-.26.21,0,.28.52.29.52,0,0-.15-.14-.22-.26-.21h0Zm0,.04c.07,0,.14.05.14.18,0,.24-.28.24-.29,0,0-.12.08-.18.15-.18Z" fill-rule="evenodd" stroke-width="0"/><path d="m12.69,16.78h-.12v-.37s.11-.04.12-.04h0c.17,0,.25.03.3.07v.34s-.12,0-.12,0v-.33s-.06-.04-.19-.03c0,0,0,.25,0,.36h0Z" fill-rule="evenodd" stroke-width="0"/><path d="m8.4,16.36v.43h.18c.39,0,.37-.42,0-.42h-.17Zm.11.04h.09c.2.01.16.35,0,.35h-.08v-.35Z" fill-rule="evenodd" stroke-width="0"/><path d="m9.39,16.79h-.12s0-.42,0-.42c0,0,.16,0,.28,0,0,0,.06,0,.11.03,0,.07,0,.15,0,.15,0,.03-.1.02-.1.03,0,.02.11,0,.11.03v.19s-.09,0-.12-.02c0-.06,0-.18,0-.18h-.06s-.04-.04-.05-.05h.11s0-.14,0-.14c-.08-.01-.1-.01-.17,0v.39Z" fill-rule="evenodd" stroke-width="0"/><path d="m11.08,16.55h.21s0,.21,0,.21c-.16.02-.25.03-.4,0v-.38c.14-.03.25-.02.4,0v.08h-.11v-.06c-.07-.02-.1-.02-.18,0v.34c.07.01.11.02.18,0v-.17h-.09s-.01,0-.02-.03h0Z" fill-rule="evenodd" stroke-width="0"/><polygon points="4.33 9.92 5.34 9.84 5.06 10.87 4.06 10.96 4.33 9.92" fill="#b22234" stroke-width="0"/><path d="m4.3,10.04l1-.09m-.04.16l-1,.09m-.04.16l1-.09m-.04.16l-1,.09m-.04.16l1-.09m-.04.16l-1,.09" stroke="#fff" stroke-miterlimit="10" stroke-width=".04"/><polygon points="4.33 9.92 4.74 9.89 4.59 10.45 4.18 10.48 4.33 9.92" fill="#3c3b6e" stroke-width="0"/><path d="m4.36,9.95v.06s-.02-.03-.02-.03h.03s-.03.04-.03.04l.02-.06Z" fill="#fff" stroke-width="0"/><path id="s-50" d="m4.33,10.06v.06s-.02-.03-.02-.03h.03s-.03.04-.03.04l.02-.06Z" fill="#fff" stroke-width="0"/><path id="s-51" d="m4.3,10.17v.06s-.02-.03-.02-.03h.03s-.03.04-.03.04l.02-.06Z" fill="#fff" stroke-width="0"/><path id="s-52" d="m4.27,10.28v.06s-.02-.03-.02-.03h.03s-.03.04-.03.04l.02-.06Z" fill="#fff" stroke-width="0"/><path id="s-53" d="m4.24,10.39v.06s-.02-.03-.02-.03h.03s-.03.04-.03.04l.02-.06Z" fill="#fff" stroke-width="0"/><g id="d-11"><path id="s-54" d="m4.38,10v.06s-.02-.03-.02-.03h.03s-.03.04-.03.04l.02-.06Z" fill="#fff" stroke-width="0"/><path id="s-55" d="m4.35,10.11v.06s-.02-.03-.02-.03h.03s-.03.04-.03.04l.02-.06Z" fill="#fff" stroke-width="0"/><path id="s-56" d="m4.32,10.22v.06s-.02-.03-.02-.03h.03s-.03.04-.03.04l.02-.06Z" fill="#fff" stroke-width="0"/><path id="s-57" d="m4.29,10.33v.06s-.02-.03-.02-.03h.03s-.03.04-.03.04l.02-.06Z" fill="#fff" stroke-width="0"/></g><g id="a-5"><g id="c-6"><g id="d-12"><path id="s-58" d="m4.43,9.94v.06s-.02-.03-.02-.03h.03s-.03.04-.03.04l.02-.06Z" fill="#fff" stroke-width="0"/><path id="s-59" d="m4.4,10.05v.06s-.02-.03-.02-.03h.03s-.03.04-.03.04l.02-.06Z" fill="#fff" stroke-width="0"/><path id="s-60" d="m4.37,10.16v.06s-.02-.03-.02-.03h.03s-.03.04-.03.04l.02-.06Z" fill="#fff" stroke-width="0"/><path id="s-61" d="m4.34,10.27v.06s-.02-.03-.02-.03h.03s-.03.04-.03.04l.02-.06Z" fill="#fff" stroke-width="0"/></g><path id="s-62" d="m4.31,10.39v.06s-.02-.03-.02-.03h.03s-.03.04-.03.04l.02-.06Z" fill="#fff" stroke-width="0"/></g><g id="d-13"><path id="s-63" d="m4.45,9.99v.06s-.02-.03-.02-.03h.03s-.03.04-.03.04l.02-.06Z" fill="#fff" stroke-width="0"/><path id="s-64" d="m4.42,10.1v.06s-.02-.03-.02-.03h.03s-.03.04-.03.04l.02-.06Z" fill="#fff" stroke-width="0"/><path id="s-65" d="m4.39,10.22v.06s-.02-.03-.02-.03h.03s-.03.04-.03.04l.02-.06Z" fill="#fff" stroke-width="0"/><path id="s-66" d="m4.36,10.33v.06s-.02-.03-.02-.03h.03s-.03.04-.03.04l.02-.06Z" fill="#fff" stroke-width="0"/></g></g><g id="e-2"><g id="a-6"><g id="c-7"><g id="d-14"><path id="s-67" d="m4.5,9.93v.06s-.02-.03-.02-.03h.03s-.03.04-.03.04l.02-.06Z" fill="#fff" stroke-width="0"/><path id="s-68" d="m4.47,10.05v.06s-.02-.03-.02-.03h.03s-.03.04-.03.04l.02-.06Z" fill="#fff" stroke-width="0"/><path id="s-69" d="m4.44,10.16v.06s-.02-.03-.02-.03h.03s-.03.04-.03.04l.02-.06Z" fill="#fff" stroke-width="0"/><path id="s-70" d="m4.41,10.27v.06s-.02-.03-.02-.03h.03s-.03.04-.03.04l.02-.06Z" fill="#fff" stroke-width="0"/></g><path id="s-71" d="m4.38,10.38v.06s-.02-.03-.02-.03h.03s-.03.04-.03.04l.02-.06Z" fill="#fff" stroke-width="0"/></g><g id="d-15"><path id="s-72" d="m4.51,9.99v.06s-.02-.03-.02-.03h.03s-.03.04-.03.04l.02-.06Z" fill="#fff" stroke-width="0"/><path id="s-73" d="m4.48,10.1v.06s-.02-.03-.02-.03h.03s-.03.04-.03.04l.02-.06Z" fill="#fff" stroke-width="0"/><path id="s-74" d="m4.45,10.21v.06s-.02-.03-.02-.03h.03s-.03.04-.03.04l.02-.06Z" fill="#fff" stroke-width="0"/><path id="s-75" d="m4.42,10.32v.06s-.02-.03-.02-.03h.03s-.03.04-.03.04l.02-.06Z" fill="#fff" stroke-width="0"/></g></g><g id="a-7"><g id="c-8"><g id="d-16"><path id="s-76" d="m4.56,9.93v.06s-.02-.03-.02-.03h.03s-.03.04-.03.04l.02-.06Z" fill="#fff" stroke-width="0"/><path id="s-77" d="m4.53,10.04v.06s-.02-.03-.02-.03h.03s-.03.04-.03.04l.02-.06Z" fill="#fff" stroke-width="0"/><path id="s-78" d="m4.5,10.15v.06s-.02-.03-.02-.03h.03s-.03.04-.03.04l.02-.06Z" fill="#fff" stroke-width="0"/><path id="s-79" d="m4.47,10.26v.06s-.02-.03-.02-.03h.03s-.03.04-.03.04l.02-.06Z" fill="#fff" stroke-width="0"/></g><path id="s-80" d="m4.44,10.37v.06s-.02-.03-.02-.03h.03s-.03.04-.03.04l.02-.06Z" fill="#fff" stroke-width="0"/></g><g id="d-17"><path id="s-81" d="m4.58,9.98v.06s-.02-.03-.02-.03h.03s-.03.04-.03.04l.02-.06Z" fill="#fff" stroke-width="0"/><path id="s-82" d="m4.55,10.09v.06s-.02-.03-.02-.03h.03s-.03.04-.03.04l.02-.06Z" fill="#fff" stroke-width="0"/><path id="s-83" d="m4.52,10.2v.06s-.02-.03-.02-.03h.03s-.03.04-.03.04l.02-.06Z" fill="#fff" stroke-width="0"/><path id="s-84" d="m4.49,10.32v.06s-.02-.03-.02-.03h.03s-.03.04-.03.04l.02-.06Z" fill="#fff" stroke-width="0"/></g></g></g><g id="a-8"><g id="c-9"><g id="d-18"><path id="s-85" d="m4.63,9.92v.06s-.02-.03-.02-.03h.03s-.03.04-.03.04l.02-.06Z" fill="#fff" stroke-width="0"/><path id="s-86" d="m4.6,10.03v.06s-.02-.03-.02-.03h.03s-.03.04-.03.04l.02-.06Z" fill="#fff" stroke-width="0"/><path id="s-87" d="m4.57,10.15v.06s-.02-.03-.02-.03h.03s-.03.04-.03.04l.02-.06Z" fill="#fff" stroke-width="0"/><path id="s-88" d="m4.54,10.26v.06s-.02-.03-.02-.03h.03s-.03.04-.03.04l.02-.06Z" fill="#fff" stroke-width="0"/></g><path id="s-89" d="m4.51,10.37v.06s-.02-.03-.02-.03h.03s-.03.04-.03.04l.02-.06Z" fill="#fff" stroke-width="0"/></g><g id="d-19"><path id="s-90" d="m4.65,9.98v.06s-.02-.03-.02-.03h.03s-.03.04-.03.04l.02-.06Z" fill="#fff" stroke-width="0"/><path id="s-91" d="m4.62,10.09v.06s-.02-.03-.02-.03h.03s-.03.04-.03.04l.02-.06Z" fill="#fff" stroke-width="0"/><path id="s-92" d="m4.59,10.2v.06s-.02-.03-.02-.03h.03s-.03.04-.03.04l.02-.06Z" fill="#fff" stroke-width="0"/><path id="s-93" d="m4.56,10.31v.06s-.02-.03-.02-.03h.03s-.03.04-.03.04l.02-.06Z" fill="#fff" stroke-width="0"/></g></g><g id="c-10"><g id="d-20"><path id="s-94" d="m4.7,9.92v.06s-.02-.03-.02-.03h.03s-.03.04-.03.04l.02-.06Z" fill="#fff" stroke-width="0"/><path id="s-95" d="m4.67,10.03v.06s-.02-.03-.02-.03h.03s-.03.04-.03.04l.02-.06Z" fill="#fff" stroke-width="0"/><path id="s-96" d="m4.64,10.14v.06s-.02-.03-.02-.03h.03s-.03.04-.03.04l.02-.06Z" fill="#fff" stroke-width="0"/><path id="s-97" d="m4.61,10.25v.06s-.02-.03-.02-.03h.03s-.03.04-.03.04l.02-.06Z" fill="#fff" stroke-width="0"/></g><path id="s-98" d="m4.58,10.36v.06s-.02-.03-.02-.03h.03s-.03.04-.03.04l.02-.06Z" fill="#fff" stroke-width="0"/></g><ellipse cx="16.91" cy="10.26" rx=".48" ry=".74" transform="translate(-2.84 11.3) rotate(-34.27)" fill="#0b3d91" stroke-width="0"/><path d="m17,10.11c-.06.02-.11.05-.16.06-.1.03-.36.12-.49.24h.02c.09-.06.15-.07.21-.09.07-.02.28-.07.38-.09.03,0,.07-.02.11-.04-.02-.02-.03-.04-.05-.06,0,0-.01-.01-.02-.02Zm.11.14s-.02.02-.03.03c-.04.03-.24.22-.28.26s-.16.21-.19.26v.02c.11-.15.15-.19.19-.24.06-.06.18-.18.22-.21.04-.03.08-.07.11-.1,0,0,0,0,0,0,0,0,0-.01-.01-.02Zm.16-.29c-.06.05-.16.1-.26.14,0,0,0,0,.01.01.02.02.04.04.05.06.08-.03.16-.08.22-.14-.03.04-.12.14-.18.2,0,0,.01.02.02.02.09-.08.15-.14.18-.18.04-.06.15-.18.15-.37-.05.14-.14.21-.2.25Z" fill="#fc3d21" stroke-width="0"/><path d="m16.89,10.42s-.04-.05-.06-.07c-.02-.03-.05-.05-.07-.08,0,0,0,0-.01,0,.03.03.05.07.08.1.02.02.04.04.05.06,0,0,0,0,.01.02,0,0,0,0,.01,0,0,0-.01-.01-.02-.02Zm.11.1s-.04-.03-.07-.06c0,0,0,0-.01.01.02.03.05.06.07.08.03.02.03,0,.01-.02Zm.02-.4c-.2-.23-.41-.37-.46-.3-.04.05.02.22.15.4,0,0,0,0,.01,0-.13-.18-.19-.33-.15-.38.05-.06.25.07.45.3.04.05.08.09.11.14.13.17.19.32.15.38-.01.02-.06.02-.14-.02,0,0,0,0,0,0,.07.03.13.05.15.03.05-.06-.07-.3-.27-.53Z" fill="#fff" stroke-width="0"/><path d="m16.42,10.09h.09s.12.17.12.17l-.03-.12s-.02-.03-.03-.04h.06s-.01.02,0,.04l.05.18s.02.03.03.03h-.09s-.12-.17-.12-.17l.03.12s.02.03.03.04h-.07s.01-.02.01-.04-.05-.17-.05-.18c0-.02-.02-.03-.03-.04Z" fill="#fff" stroke-width="0"/><path d="m17.32,10.41h.12s-.02,0-.02-.02-.13-.23-.13-.23h-.05s-.02.02-.03.03c0,0,0,0,0,0,0,.01,0,.17,0,.18,0,.01-.01.02-.02.03h.07s-.02-.01-.02-.02,0-.03,0-.03h.07s.01.03.01.03c0,.01,0,.02,0,.03Zm-.08-.09v-.09s.05.09.05.09h-.05Zm-.05-.15s0,0,0,0h-.02s0,0,.01,0Z" fill="#fff" stroke-width="0"/><path d="m16.78,10.34s0-.03,0-.03h.07s.01.03.01.03c0,.01,0,.02,0,.03h.11s0,0,0,0c0,0-.01-.01-.02-.02,0-.01-.13-.23-.13-.23h-.11s.03.01.03.03c0,.01,0,.17,0,.18,0,.01-.01.02-.02.03h.07s-.02-.01-.02-.02Zm0-.15l.05.09h-.05s0-.09,0-.09Z" fill="#fff" stroke-width="0"/><path d="m17.13,10.27s-.03.03-.05.05c.01,0,.02.01.02.02,0,.02-.02.02-.05.02,0,0-.01,0-.02,0,0,0,0,0-.01.01,0,0-.01,0-.02.01v.03s.02-.02.03-.02c0,0,.02.02.08.02.03,0,.07-.03.06-.07,0-.02-.02-.04-.04-.06Zm-.14.05v.03s.01,0,.02-.01c0,0-.02-.01-.02-.02Zm.11-.07s-.01,0-.02-.01c-.03-.02-.06-.02-.07-.04,0-.01,0-.03.03-.02s.06.03.07.03l-.02-.06s0,.01-.02.01c-.02,0-.04-.01-.08-.02-.03,0-.06.03-.05.07.01.06.06.08.08.09,0,0,0,0,0,0,.02-.01.03-.03.04-.03,0,0,.01,0,.02-.02Z" fill="#fff" stroke-width="0"/><path d="m2.74,17.48c-.17-3.06.47-5.16.85-6.25s1.54-3.52,1.98-4.61.34-1.06.74-1.89,1.11-2.32,1.73-3.03,1.2-1.08,1.67-1.3.93-.2,1.12-.2.66-.02,1.12.2c.46.22,1.06.6,1.67,1.3s1.33,2.2,1.73,3.03.29.81.74,1.89,1.6,3.52,1.98,4.61,1.01,3.19.85,6.25H2.74Z" fill="none" stroke="#000" stroke-linecap="round" stroke-linejoin="round" stroke-width=".33"/><path d="m10.9,20.37l-2.4,9.65.04,4.45.23.14,2.08-1.56.05-12.69Z" fill="url(#linear-gradient-23)" fill-rule="evenodd" stroke-width="0"/><rect x="3.25" y="18.29" width="15.16" height="14.94" fill="none" stroke="#000" stroke-width=".33"/><path d="m10.94,20.26l.07,12.92" stroke="#000" stroke-linecap="round" stroke-linejoin="round" stroke-width=".33"/><path d="m12.98,18.84c0,.25,0,.49.05.74.02.11.01.25.11.31.43.08.82.08,1.2.04.11-.01.18-.11.25-.2.07-.09.11-.2.14-.31.04-.12.04-.24.05-.36.02-.21-.01-.43,0-.65.02-.37.1-.73.11-1.09,0-.26-.03-.52-.05-.77-.05-.44-.03-.9-.2-1.31-.1-.25-.24-.51-.47-.66-.12-.08-.27-.11-.41-.11-.14,0-.3.04-.41.13-.09.07-.13.18-.16.29-.05.17-.04.36-.04.54,0,.43.09.85.11,1.27,0,.19.01.38,0,.57,0,.16-.02.31-.05.47-.04.15-.19.45-.19.45,0,0-.05.44-.04.66h0Z" fill="url(#linear-gradient-24)" fill-rule="evenodd" stroke="#000" stroke-linecap="round" stroke-linejoin="round" stroke-width=".33"/><path d="m12.94,18.52l.52.47.77.05.6-.18.09-1.22-1.64-.09-.34.96Z" fill="url(#linear-gradient-25)" fill-rule="evenodd" stroke-width="0"/><path d="m13.05,18.63s.23.27.4.39c.25.04.68.03.99.02.21,0,.34-.18.34-.17" fill="none" stroke="#000" stroke-linecap="round" stroke-linejoin="round" stroke-width=".33"/><path d="m12.98,18.84c0,.25,0,.49.05.74.02.11.01.25.11.31.43.08.82.08,1.2.04.11-.01.18-.11.25-.2.07-.09.11-.2.14-.31.04-.12.04-.24.05-.36.02-.21-.01-.43,0-.65.02-.37.1-.73.11-1.09,0-.26-.03-.52-.05-.77-.05-.44-.03-.9-.2-1.31-.1-.25-.24-.51-.47-.66-.12-.08-.27-.11-.41-.11-.14,0-.3.04-.41.13-.09.07-.13.18-.16.29-.05.17-.04.36-.04.54,0,.43.09.85.11,1.27,0,.19.01.38,0,.57,0,.16-.02.31-.05.47-.04.15-.19.45-.19.45,0,0-.05.44-.04.66h0Z" fill="none" stroke="#000" stroke-linecap="round" stroke-linejoin="round" stroke-width=".33"/></svg>