<?xml version="1.0" encoding="UTF-8"?><svg id="Layer_1" xmlns="http://www.w3.org/2000/svg" xmlns:xlink="http://www.w3.org/1999/xlink" viewBox="0 0 21.51 294.69"><defs><linearGradient id="linear-gradient" x1="591.89" y1="-457.8" x2="598.99" y2="-457.8" gradientTransform="translate(-297.85 -323.55) scale(.51 -1.08)" gradientUnits="userSpaceOnUse"><stop offset="0" stop-color="#000"/><stop offset="1" stop-color="#000" stop-opacity="0"/></linearGradient><linearGradient id="linear-gradient-2" x1="-1203.67" y1="-458.12" x2="-1196.57" y2="-458.12" gradientTransform="translate(-593.01 -323.83) rotate(-180) scale(.51 1.08)" gradientUnits="userSpaceOnUse"><stop offset="0" stop-color="#000"/><stop offset="1" stop-color="#000" stop-opacity="0"/></linearGradient><linearGradient id="linear-gradient-3" x1="-23.58" y1="-477.85" x2="-12.11" y2="-477.85" gradientTransform="translate(21.1 -452.17) scale(1 -1)" gradientUnits="userSpaceOnUse"><stop offset="0" stop-color="#e6e6e6"/><stop offset="1" stop-color="#f9f9f9"/></linearGradient><linearGradient id="linear-gradient-4" x1="-23.58" y1="-506.06" x2="-12.11" y2="-506.06" gradientTransform="translate(21.1 -452.17) scale(1 -1)" gradientUnits="userSpaceOnUse"><stop offset="0" stop-color="#e6e6e6"/><stop offset="1" stop-color="#f9f9f9"/></linearGradient><linearGradient id="linear-gradient-5" x1="-938.93" y1="-477.85" x2="-924.74" y2="-477.85" gradientTransform="translate(-914.18 -452.17) rotate(-180)" gradientUnits="userSpaceOnUse"><stop offset="0" stop-color="#e6e6e6"/><stop offset="1" stop-color="#f9f9f9"/></linearGradient><linearGradient id="linear-gradient-6" x1="-938.93" y1="-506.06" x2="-924.74" y2="-506.06" gradientTransform="translate(-914.18 -452.17) rotate(-180)" gradientUnits="userSpaceOnUse"><stop offset="0" stop-color="#e6e6e6"/><stop offset="1" stop-color="#f9f9f9"/></linearGradient></defs><rect x="3.18" y="56.48" width="15.16" height="231.3" fill="#fff" stroke-width="0"/><rect x="3.34" y="56.71" width="7.52" height="230.95" fill="url(#linear-gradient)" isolation="isolate" opacity=".03" stroke-width="0"/><rect x="10.75" y="56.66" width="7.41" height="230.87" fill="url(#linear-gradient-2)" isolation="isolate" opacity=".03" stroke-width="0"/><path d="m3.2,285.4h15.14" fill="none" stroke="#000" stroke-width=".32"/><rect x="18.37" y="285.72" width=".39" height=".39" fill="#f7f7f7" stroke-width="0"/><rect x="2.73" y="285.72" width=".39" height=".37" fill="#f7f7f7" stroke-width="0"/><path d="m3.89,289.38s-.06-.16-.06-.19v-.02h2.75v.05c.03.1.03.12,0,.15l-.02.04h-2.66l-.02-.04h0Z" fill="#f7f7f7" stroke-width="0"/><path d="m6.96,289.38s-.06-.16-.06-.18c0,0,.59,0,1.42,0h1.42v.02c-.02.06-.04.12-.06.16l-.02.05h-2.66l-.03-.05h0Z" fill="#f7f7f7" stroke-width="0"/><path d="m9.98,289.46s0-.03.02-.06c.02-.05.04-.13.06-.21v-.03h.72c.67,0,.71,0,.72.02,0,0,0,.03.01.06,0,.02.02.08.04.13.02.05.03.09.03.1h-.79c-.44,0-.79,0-.79,0h0Z" fill="#f7f7f7" stroke-width="0"/><path d="m11.87,289.38s-.06-.16-.06-.18c0,0,.59,0,1.42,0,1.06,0,1.42,0,1.42.01,0,.02-.04.13-.06.18l-.03.05h-2.66l-.03-.05h0Z" fill="#f7f7f7" stroke-width="0"/><path d="m14.96,289.38s-.03-.06-.01-.14c0-.04.01-.07.01-.07,0,0,.62,0,1.38,0h1.38v.02s-.05.13-.07.17l-.02.04h-2.66l-.02-.03h0Z" fill="#f7f7f7" stroke-width="0"/><path d="m3.67,288.81c-.1-.11-.21-.39-.29-.77l-.02-.1h7.41c5.91,0,7.41,0,7.41.04,0,.1-.11.44-.21.66l-.11.23h-7.07c-6.68,0-7.07,0-7.12-.06h0Z" fill="#f7f7f7" stroke-width="0"/><path d="m3.92,275.49l.04-.11.06-.13.09-.13.11-.13.13-.12.15-.11.16-.09.17-.07.18-.04h.19s.19.04.19.04l.2.09.33.86,1.03,2.84.34.95.34.95,1.03,2.84.34.95.69,1.89.09.23.02.03.02.03.02.02.02.02.02.02.02.02.02.02.02.02h.02s.03.03.03.03h.03s.03.02.03.02l.05.02h.1s.14,0,.14,0l.04-.02.04-.04.04-.06.04-.08.04-.09.04-.1.03-.11.03-.12.03-.13.02-.13.02-.13-.16-1.48-.36-3.1-.36-3.1-.73-6.2-2.19-18.59-.36-3.1-.24-2.1v-.41s0-.2,0-.2v-1.63s-.02-.25-.02-.25l-.03-.4-.03-.36-.03-.32-.03-.29-.03-.26-.03-.24-.03-.21-.03-.19-.03-.17-.04-.15-.04-.14-.04-.13-.04-.12-.04-.11-.04-.1-.04-.09-.04-.08-.04-.07-.04-.07-.04-.06-.04-.05-.04-.05-.04-.04-.04-.04-.04-.03-.04-.03-.04-.02-.05-.02h-.05s-.05-.02-.05-.02h-.05s-.05,0-.05,0h-.05s-.05.02-.05.02l-.05.02-.05.02-.05.03-.05.03-.05.04-.05.04-.05.05-.05.06-.05.06-.06.07-.06.07-.06.08-.06.09-.06.1-.06.1-.06.11-.06.12-.06.12-.06.13-.06.13-.06.14-.06.14-.06.14-.06.14-.06.14-.05.14-.05.14-.05.14-.05.14-.04.13-.04.13-.04.13-.03.14-.03.14-.03.14-.02.14" fill="#f2f2f2" stroke="#000" stroke-width=".32"/><path d="m3.92,275.49l-.03.17-.03.18-.03.18-.03.18-.03.19-.03.19-.03.19-.03.2-.03.2-.03.2-.03.2-.03.21-.03.21-.03.21-.03.21-.03.21-.03.22-.03.22-.03.22-.03.22-.03.22-.03.22-.05.45-.05.45-.05.46-.1.91-.05.46-.05.46-.05.45-.05.45-.02.22-.02.22-.02.22-.02.22-.02.22-.02.22-.02.21-.02.21-.02.21-.02.21v.1s-.02.04-.02.04h0s0,0,0,0h0s0,.03,0,.03h0s-.02.03-.02.03h-.08s-.05-.04-.05-.04l-.05-.03-.05-.03-.05-.03-.05-.03-.04-.03-.04-.03-.04-.03-.04-.03-.04-.03-.04-.03-.04-.03-.04-.03-.03-.03-.03-.03-.03-.03-.03-.03-.06-.07-.05-.07-.05-.07-.04-.07-.04-.07-.04-.07-.03-.07-.03-.07-.03-.08-.03-.08-.02-.08-.02-.08-.02-.08-.02-.08-.02-.08-.02-.08v-.04s-.01-.02-.01-.02h0s0,0,0,0h0s0,0,0,0h0s0-.05,0-.05v-.09s.2-5.86.2-5.86l.39-11.71.59-17.57.05-1.46v-.37s.01-.02.01-.02h0s0,0,0,0h0s0,0,0,0h0s0,0,0,0h0s0-.01,0-.01v-.04s.02-.08.02-.08v-.07s.02-.07.02-.07v-.07s.02-.07.02-.07v-.07s.02-.07.02-.07v-.06s.02-.06.02-.06v-.06s.04-.12.04-.12l.03-.12.03-.11.03-.11.03-.11.03-.11.03-.11.03-.11.03-.11.03-.11.04-.12.04-.12.04-.12.02-.06.02-.06.02-.06.03-.06.03-.06.03-.07.03-.07.03-.07.03-.07.03-.07.03-.07.04-.07.04-.07.04-.07" fill="#f2f2f2" stroke="#000" stroke-linecap="round" stroke-width=".32"/><path d="m17.62,275.49l-.04-.11-.06-.13-.09-.13-.11-.13-.13-.12-.15-.11-.16-.09-.17-.07-.18-.04h-.19s-.19.04-.19.04l-.2.09-.33.86-1.03,2.84-.34.95-1.37,3.79-.34.95-.69,1.89-.09.23-.02.03-.02.03-.02.02-.02.02-.02.02-.02.02-.02.02-.02.02h-.02s-.03.03-.03.03h-.03s-.03.02-.03.02l-.05.02h-.1s-.14,0-.14,0l-.04-.02-.04-.04-.04-.06-.04-.08-.04-.09-.04-.1-.03-.11-.03-.12-.03-.13-.02-.13-.02-.13.16-1.48.36-3.1.36-3.1.36-3.1.73-6.2.73-6.2.36-3.1.73-6.2.36-3.1.24-2.1v-.41s0-.2,0-.2v-1.63s.02-.25.02-.25l.03-.4.03-.36.03-.32.03-.29.03-.26.03-.24.03-.21.03-.19.03-.17.04-.15.04-.14.04-.13.04-.12.04-.11.04-.1.04-.09.04-.08.04-.07.04-.07.04-.06.04-.05.04-.05.04-.04.04-.04.04-.03.04-.03.04-.02.05-.02h.05s.05-.02.05-.02h.05s.05,0,.05,0h.05s.05.02.05.02l.05.02.05.02.05.03.05.03.05.04.05.04.05.05.05.06.05.06.06.07.06.07.06.08.06.09.06.1.06.1.06.11.06.12.06.12.06.13.06.13.06.14.06.14.06.14.06.14.06.14.05.14.05.14.05.14.05.14.04.13.04.13.04.13.03.14.03.14.03.14.02.14" fill="#f2f2f2" stroke="#000" stroke-width=".32"/><path d="m17.62,275.49l.03.17.03.18.03.18.03.18.03.19.03.19.03.19.03.2.03.2.03.2.03.2.03.21.03.21.03.21.03.21.03.21.03.22.03.22.03.22.03.22.03.22.03.22.05.45.05.45.05.46.1.91.05.46.05.46.05.45.05.45.02.22.02.22.02.22.02.22.02.22.02.22.02.21.02.21.02.21.02.21v.1s.02.04.02.04h0s0,0,0,0h0s0,.03,0,.03h0s.02.03.02.03h.08s.05-.04.05-.04l.05-.03.05-.03.05-.03.05-.03.04-.03.04-.03.04-.03.04-.03.04-.03.04-.03.04-.03.04-.03.03-.03.03-.03.03-.03.03-.03.06-.07.05-.07.05-.07.04-.07.04-.07.04-.07.03-.07.03-.07.03-.08.03-.08.02-.08.02-.08.02-.08.02-.08.02-.08.02-.08v-.04s.01-.02.01-.02h0s0,0,0,0h0s0,0,0,0h0s0-.05,0-.05v-.09s-.2-5.86-.2-5.86l-.39-11.71-.39-11.71-.2-5.86-.05-1.46v-.37s-.01-.02-.01-.02h0s0,0,0,0h0s0,0,0,0h0s0-.01,0-.01v-.04s-.02-.08-.02-.08v-.07s-.02-.07-.02-.07v-.07s-.02-.07-.02-.07v-.07s-.02-.07-.02-.07v-.06s-.02-.06-.02-.06v-.06s-.04-.12-.04-.12l-.03-.12-.03-.11-.03-.11-.03-.11-.03-.11-.03-.11-.03-.11-.03-.11-.03-.11-.04-.12-.04-.12-.04-.12-.02-.06-.02-.06-.02-.06-.03-.06-.03-.06-.03-.07-.03-.07-.03-.07-.03-.07-.03-.07-.03-.07-.04-.07-.04-.07-.04-.07" fill="#f2f2f2" stroke="#000" stroke-linecap="round" stroke-width=".32"/><path d="m6.68,291.65c-.16-.39-.36-.84-.57-1.24l-.08-.16.03-.06c.06-.11.19-.34.27-.47l.03-.05h.16c.09,0,.27,0,.39,0h.23l.03.05c.07.11.25.42.29.5v.03s-.03.08-.03.08c-.22.43-.45.92-.63,1.37l-.03.08h-.05l-.05-.13h0Z" fill="#333" stroke-width="0"/><path d="m14.65,291.49c-.16-.39-.36-.84-.57-1.24l-.08-.16.03-.06c.06-.11.19-.34.27-.47l.03-.05h.16c.09,0,.27,0,.39,0h.23l.03.05c.07.11.25.42.29.5v.03s-.03.08-.03.08c-.22.43-.45.92-.63,1.37l-.03.08h-.05l-.05-.13h0Z" fill="#333" stroke-width="0"/><path d="m9.87,291.08c.06-.13.19-.35.27-.5l.15-.27-.18-.31-.18-.31h-.31c-.26,0-.31,0-.31-.03,0-.03-.03-.03-.13-.03-.12,0-.13.01-.18.08l-.04.08.23.44c.13.24.3.59.38.77.08.18.15.33.16.33,0,0,.07-.1.13-.23h0Z" fill="#333" stroke-width="0"/><path d="m11.71,291.08c-.06-.13-.19-.35-.27-.5l-.15-.27.18-.31.18-.31h.31c.26,0,.31,0,.31-.03,0-.03.03-.03.13-.03.12,0,.13.01.18.08l.04.08-.23.44c-.13.24-.3.59-.38.77-.08.18-.15.33-.16.33,0,0-.07-.1-.13-.23h0Z" fill="#333" stroke-width="0"/><path d="m8.86,294.49s.07-.31.08-.34c.14-1.83.29-1.45.86-2.56,0-.06.39-.85.61-1.24l.11-.2v-.51h.55v.52l.12.21c.12.22.46.88.54,1.06l.05.1c.72,1.95.18.24.91,2.76.02.08.03.17.03.18,0,.03,0,.03-1.93.03-1.06,0-1.93,0-1.93,0h0Z" fill="#333" stroke-width="0"/><path d="m3.2,115.94h15.14" fill="none" stroke="#000" stroke-width=".32"/><path d="m3.2,90.19h15.14" fill="none" stroke="#000" stroke-width=".32"/><path d="m13.64,289.54h-.83" fill="none" stroke="#000" stroke-width=".32"/><path d="m4.78,293.84h3.99" fill="none" stroke="#000" stroke-width=".32"/><path d="m6.36,289.54h.83" fill="none" stroke="#000" stroke-width=".32"/><path d="m7.54,290.19c-.11-.23-.23-.45-.36-.67" fill="none" stroke="#000" stroke-width=".32"/><path d="m6.36,289.54c-.13.22-.24.44-.36.67" fill="none" stroke="#000" stroke-width=".32"/><path d="m9.11,289.54h.62" fill="none" stroke="#000" stroke-width=".32"/><path d="m10.33,290.27c-.11-.23-.24-.46-.36-.69" fill="none" stroke="#000" stroke-width=".32"/><path d="m9.11,289.54c-.06.11-.13.23-.19.34" fill="none" stroke="#000" stroke-width=".32"/><path d="m16.76,293.84h-3.99" fill="none" stroke="#000" stroke-width=".32"/><path d="m15.17,289.54h-.83" fill="none" stroke="#000" stroke-width=".32"/><path d="m14.35,289.54c-.13.22-.24.44-.36.67" fill="none" stroke="#000" stroke-width=".32"/><path d="m15.53,290.19c-.11-.23-.23-.45-.36-.67" fill="none" stroke="#000" stroke-width=".32"/><path d="m12.43,289.54h-.62" fill="none" stroke="#000" stroke-width=".32"/><path d="m9.73,289.54c.12-.16.18-.36.18-.56" fill="none" stroke="#000" stroke-width=".32"/><path d="m6.9,289.54h2.82" fill="none" stroke="#000" stroke-width=".32"/><path d="m11.63,288.97c0,.2.05.4.18.56" fill="none" stroke="#000" stroke-width=".32"/><path d="m14.64,289.54c.12-.16.18-.36.18-.56" fill="none" stroke="#000" stroke-width=".32"/><path d="m9.97,289.62h1.6" fill="none" stroke="#000" stroke-width=".32"/><path d="m9.31,289.54s.03.04.04.06" fill="none" stroke="#000" stroke-width=".32"/><path d="m12.18,289.62s.03-.04.04-.06" fill="none" stroke="#000" stroke-width=".32"/><path d="m9.36,289.62h2.82" fill="none" stroke="#000" stroke-width=".32"/><path d="m11.61,289.62c-.13.23-.25.46-.36.69" fill="none" stroke="#000" stroke-width=".32"/><path d="m11.61,289.62c-.13.23-.25.46-.36.69" fill="none" stroke="#000" stroke-width=".32"/><path d="m12.64,289.87c-.05-.1-.11-.2-.17-.31" fill="none" stroke="#000" stroke-width=".32"/><path d="m18.34,56.56v188.31" fill="none" stroke="#000" stroke-width=".32"/><path d="m8.94,293.84c-.05.22-.1.45-.14.67h3.99c-.04-.23-.09-.45-.14-.67" fill="none" stroke="#000" stroke-width=".32"/><path d="m9.68,291.57c.2-.47.43-.94.69-1.39v-.61" fill="none" stroke="#000" stroke-width=".32"/><path d="m11.2,289.62v.61c.25.43.47.88.67,1.34" fill="none" stroke="#000" stroke-width=".32"/><path d="m6.77,292.14c-.29-.89-.67-1.74-1.13-2.55h-.83c-.76,1.34-1.3,2.8-1.58,4.32h3.99" fill="#333" stroke="#000" stroke-width=".32"/><path d="m14.77,289.3c.03.09.07.17.13.24h2.82c.12-.16.18-.36.18-.56" fill="none" stroke="#000" stroke-width=".32"/><path d="m14.31,293.84h3.99c-.28-1.52-.82-2.98-1.58-4.32h-.83c-.46.81-.84,1.67-1.13,2.55" fill="#333" stroke="#000" stroke-width=".32"/><path d="m7.9,289.54c-.76,1.34-1.3,2.8-1.58,4.32h3.99c-.28-1.52-.82-2.98-1.58-4.32h-.83Z" fill="#333" stroke="#000" stroke-width=".32"/><path d="m.4,49.54c-.05-.81-.07-8-.04-15.97.06-15.76.05-15.56.91-19.59.98-4.6,2.86-8.21,6.04-11.62,1.26-1.35,2.26-2.02,3.03-2.02h.32s0,50.67,0,50.67H.5l-.1-1.47h0Z" fill="url(#linear-gradient-3)" stroke-width="0"/><path d="m3.23,56.29c-.08-.1-.61-1.05-1.19-2.12-.58-1.07-1.17-2.15-1.33-2.4l-.28-.47h10.21v5.17h-3.64c-2.74,0-3.68-.04-3.78-.18h0Z" fill="url(#linear-gradient-4)" stroke-width="0"/><path d="m21.18,49.54c.05-.81.07-8,.04-15.97-.06-15.76-.05-15.56-.91-19.59-.98-4.6-2.86-8.21-6.04-11.62-1.26-1.35-2.26-2.02-3.03-2.02h-.32s0,50.67,0,50.67h10.16l.1-1.47h0Z" fill="url(#linear-gradient-5)" stroke-width="0"/><path d="m18.35,56.29c.08-.1.61-1.05,1.19-2.12.58-1.07,1.17-2.15,1.33-2.4l.28-.47h-10.21v5.17h3.64c2.74,0,3.68-.04,3.78-.18h0Z" fill="url(#linear-gradient-6)" stroke-width="0"/><path d="m3.2,56.56h15.14" fill="none" stroke="#000" stroke-width=".32"/><path d="m.24,51.15h21.05" fill="none" stroke="#000" stroke-width=".32"/><path d="m3.2,56.56l-.32-.58-1.26-2.32-.32-.58-.32-.58-.63-1.16-.11-2.33v-28.61s.05-.43.05-.43l.04-.43.04-.43.04-.43.05-.43.05-.43.05-.43.05-.43.06-.43.06-.43.07-.43.07-.43.08-.43.08-.43.09-.43.09-.43.1-.42.11-.42.11-.42.12-.42.12-.42.13-.41.14-.41.15-.41.15-.4.16-.4.17-.39.18-.39.18-.39.19-.38.2-.38.21-.37.21-.37.22-.37.23-.36.23-.36.24-.36.25-.35.26-.35.26-.35.27-.35.28-.35.28-.34.29-.34.3-.34.3-.34.31-.33.32-.32.33-.3.35-.27.36-.24.38-.2.4-.15.42-.1.44-.05h.46s.44.05.44.05l.42.1.4.15.38.2.36.24.35.27.33.3.32.32.31.33.3.34.3.34.29.34.28.34.28.35.27.35.26.35.26.35.25.35.24.36.23.36.23.36.22.37.21.37.21.37.2.38.19.38.18.39.18.39.17.39.16.4.15.4.15.41.14.41.13.41.13.42.12.42.11.42.11.42.1.42.09.43.09.43.08.43.08.43.07.43.07.43.06.43.06.43.05.43.05.43.04.43.04.43.04.43.04.43.04.43.04.43v2.43s.01,26.18.01,26.18l-.11,2.33-.63,1.16-1.26,2.32-.32.58-.63,1.16" fill="none" stroke="#000" stroke-width=".32"/><path d="m10.76,56.56V.21" fill="none" stroke="#000" stroke-width=".32"/><path d="m6.31,245.34l-1-1.06" fill="none" stroke="#000" stroke-width=".32"/><path d="m5.31,244.28h-1.83" fill="none" stroke="#000" stroke-width=".32"/><path d="m3.26,268.93l.14-19.58" fill="none" stroke="#000" stroke-width=".32"/><path d="m3.4,249.35l1.75-2.38" fill="none" stroke="#000" stroke-width=".32"/><path d="m3.4,249.35l-.84-2.17" fill="none" stroke="#000" stroke-width=".32"/><path d="m5.15,246.98l.15-2.7" fill="none" stroke="#000" stroke-linecap="round" stroke-width=".32"/><path d="m3.2,244.87V56.57" fill="none" stroke="#000" stroke-width=".32"/><path d="m2.7,285.72h.5" fill="none" stroke="#000" stroke-width=".32"/><path d="m2.64,286.21h.56" fill="none" stroke="#000" stroke-width=".32"/><path d="m18.34,281.02v6.75c-.02.44-.16.86-.4,1.23H3.6c-.24-.37-.38-.79-.4-1.23v-6.75" fill="none" stroke="#000" stroke-width=".32"/><path d="m10.52,286.21h.5" fill="none" stroke="#000" stroke-width=".32"/><path d="m10.68,285.72h.18" fill="none" stroke="#000" stroke-width=".32"/><path d="m1.63,285.64l.29-3.66.1-1.22.48-6.1.1-1.22.29-3.66.04-.39.03-.1.03-.08.04-.07.04-.06.04-.05.05-.03.05-.03.05-.02h.05s.05,0,.05,0h.05s.05.02.05.02l.05.02.05.03.05.03.05.03.05.04.05.04.04.04.04.05.04.05.04.05.04.05.04.05.04.05.14.36,1.42,3.82.47,1.27,1.42,3.82.95,2.55.47,1.27.95,2.55.47,1.27" fill="none" stroke="#000" stroke-width=".32"/><path d="m15.23,245.34l1-1.06" fill="none" stroke="#000" stroke-width=".32"/><path d="m16.23,244.28h1.83" fill="none" stroke="#000" stroke-width=".32"/><path d="m18.28,268.93l-.14-19.58" fill="none" stroke="#000" stroke-width=".32"/><path d="m18.14,249.35l-1.75-2.38" fill="none" stroke="#000" stroke-width=".32"/><path d="m18.14,249.35l.84-2.17" fill="none" stroke="#000" stroke-width=".32"/><path d="m16.38,246.98l-.15-2.7" fill="none" stroke="#000" stroke-linecap="round" stroke-width=".32"/><path d="m18.84,285.72h-.5" fill="none" stroke="#000" stroke-width=".32"/><path d="m18.9,286.21h-.56" fill="none" stroke="#000" stroke-width=".32"/><path d="m19.91,285.64l-.1-1.22-.1-1.22-.48-6.1-.1-1.22-.38-4.88-.1-1.22-.04-.39-.03-.1-.03-.08-.04-.07-.04-.06-.04-.05-.05-.03-.05-.03-.05-.02h-.05s-.05,0-.05,0h-.05s-.05.02-.05.02l-.05.02-.05.03-.05.03-.05.03-.05.04-.05.04-.04.04-.04.05-.04.05-.04.05-.04.05-.04.05-.04.05-.14.36-.47,1.27-.95,2.55-.47,1.27-1.42,3.82-.95,2.55-.47,1.27-1.42,3.82" fill="none" stroke="#000" stroke-width=".32"/><path d="m13.64,289.54c.76,1.34,1.3,2.8,1.58,4.32h-3.99c.28-1.52.82-2.98,1.58-4.32" fill="#333" stroke="#000" stroke-width=".32"/><path d="m11.81,289.54h2.82" fill="none" stroke="#000" stroke-width=".32"/><path d="m3.64,288.97c0,.2.05.4.18.56h2.82c.06-.07.1-.15.13-.24" fill="none" stroke="#000" stroke-width=".32"/><path d="m6.73,288.97c0,.2.05.4.18.56" fill="none" stroke="#000" stroke-width=".32"/><path d="m11.91,235.06h-3.14l-.12.09v2.79h.87v-1.05l.08-.07h2.3c.58,0,.85-.16.85-.56v-.64c0-.4-.27-.56-.85-.56m0,1.03c0,.19-.13.23-.4.23h-1.9l-.09-.09v-.6l.08-.08h1.91c.27,0,.4.04.4.23v.31h0Z" fill="#005288" stroke-width="0"/><polyline points="10.09 241.41 10.84 242.51 10.8 242.61 9.14 242.61 8.72 243.13 11.18 243.13 11.35 243.23 11.74 243.76 12.73 243.76 10.55 240.84" fill="#005288" stroke-width="0"/><polyline points="9.63 255.97 9.63 255.19 9.72 255.11 11.38 255.11 11.38 254.62 8.75 254.62 8.75 256.53 12.64 256.53 12.64 256.04 9.72 256.04" fill="#005288" stroke-width="0"/><rect x="8.75" y="253.65" width="3.93" height=".54" fill="#005288" stroke-width="0"/><path d="m9.61,247.64h3.17c-.05-.4-.3-.51-.93-.51h-2.27c-.72,0-.94.14-.94.68v1.52c0,.54.23.68.94.68h2.27c.64,0,.89-.12.91-.54h-3.14l-.09-.09v-1.68" fill="#005288" stroke-width="0"/><path d="m11.88,229.54h-2.31l-.07-.07v-.49l.07-.05h3.11l.04-.1c-.11-.27-.38-.4-.89-.4h-2.16c-.72,0-.94.14-.94.68v.32c0,.54.23.68.94.68h2.3l.07.06v.52l-.06.08h-2.63s-.69,0-.69,0c0,0-.08.04-.08.06.06.38.32.49.93.49h2.35c.72,0,.95-.14.95-.68v-.4c0-.54-.24-.68-.95-.68" fill="#005288" stroke-width="0"/><path d="m9.66,260.33h-1.29l-.07.13,1.44,1.05c.27-.16.57-.32.89-.47" fill="#005288" stroke-width="0"/><path d="m10.81,262.31l1.26.92h1.31l.05-.12-1.89-1.38c-.25.18-.5.38-.74.58" fill="#005288" stroke-width="0"/><path d="m9.47,263.22h-1.17l-.1-.15c.8-.77,4.43-3.66,9.16-4.02,0,0-4.14.46-7.89,4.18" fill="#a7a9ac" stroke-width="0"/><rect x="7.04" y="104.98" width="7.47" height="4.2" fill="#b22234" stroke-width="0"/><path d="m7.04,105.46h7.47m0,.65h-7.47m0,.65h7.47m0,.65h-7.47m0,.65h7.47m0,.65h-7.47" stroke="#fff" stroke-miterlimit="10" stroke-width=".3"/><rect x="7.04" y="104.98" width="2.99" height="2.26" fill="#3c3b6e" stroke-width="0"/><path d="m7.29,105.08l.07.23-.19-.14h.23l-.19.14.07-.23Z" fill="#fff" stroke-width="0"/><path id="s" d="m7.29,105.53l.07.23-.19-.14h.23l-.19.14.07-.23Z" fill="#fff" stroke-width="0"/><path id="s-2" d="m7.29,105.98l.07.23-.19-.14h.23l-.19.14.07-.23Z" fill="#fff" stroke-width="0"/><path id="s-3" d="m7.29,106.43l.07.23-.19-.14h.23l-.19.14.07-.23Z" fill="#fff" stroke-width="0"/><path id="s-4" d="m7.29,106.88l.07.23-.19-.14h.23l-.19.14.07-.23Z" fill="#fff" stroke-width="0"/><g id="d"><path id="s-5" d="m7.54,105.3l.07.23-.19-.14h.23l-.19.14.07-.23Z" fill="#fff" stroke-width="0"/><path id="s-6" d="m7.54,105.75l.07.23-.19-.14h.23l-.19.14.07-.23Z" fill="#fff" stroke-width="0"/><path id="s-7" d="m7.54,106.21l.07.23-.19-.14h.23l-.19.14.07-.23Z" fill="#fff" stroke-width="0"/><path id="s-8" d="m7.54,106.66l.07.23-.19-.14h.23l-.19.14.07-.23Z" fill="#fff" stroke-width="0"/></g><g id="a"><g id="c"><g id="d-2"><path id="s-9" d="m7.78,105.08l.07.23-.19-.14h.23l-.19.14.07-.23Z" fill="#fff" stroke-width="0"/><path id="s-10" d="m7.78,105.53l.07.23-.19-.14h.23l-.19.14.07-.23Z" fill="#fff" stroke-width="0"/><path id="s-11" d="m7.78,105.98l.07.23-.19-.14h.23l-.19.14.07-.23Z" fill="#fff" stroke-width="0"/><path id="s-12" d="m7.78,106.43l.07.23-.19-.14h.23l-.19.14.07-.23Z" fill="#fff" stroke-width="0"/></g><path id="s-13" d="m7.78,106.88l.07.23-.19-.14h.23l-.19.14.07-.23Z" fill="#fff" stroke-width="0"/></g><g id="d-3"><path id="s-14" d="m8.03,105.3l.07.23-.19-.14h.23l-.19.14.07-.23Z" fill="#fff" stroke-width="0"/><path id="s-15" d="m8.03,105.75l.07.23-.19-.14h.23l-.19.14.07-.23Z" fill="#fff" stroke-width="0"/><path id="s-16" d="m8.03,106.21l.07.23-.19-.14h.23l-.19.14.07-.23Z" fill="#fff" stroke-width="0"/><path id="s-17" d="m8.03,106.66l.07.23-.19-.14h.23l-.19.14.07-.23Z" fill="#fff" stroke-width="0"/></g></g><g id="e"><g id="a-2"><g id="c-2"><g id="d-4"><path id="s-18" d="m8.28,105.08l.07.23-.19-.14h.23l-.19.14.07-.23Z" fill="#fff" stroke-width="0"/><path id="s-19" d="m8.28,105.53l.07.23-.19-.14h.23l-.19.14.07-.23Z" fill="#fff" stroke-width="0"/><path id="s-20" d="m8.28,105.98l.07.23-.19-.14h.23l-.19.14.07-.23Z" fill="#fff" stroke-width="0"/><path id="s-21" d="m8.28,106.43l.07.23-.19-.14h.23l-.19.14.07-.23Z" fill="#fff" stroke-width="0"/></g><path id="s-22" d="m8.28,106.88l.07.23-.19-.14h.23l-.19.14.07-.23Z" fill="#fff" stroke-width="0"/></g><g id="d-5"><path id="s-23" d="m8.53,105.3l.07.23-.19-.14h.23l-.19.14.07-.23Z" fill="#fff" stroke-width="0"/><path id="s-24" d="m8.53,105.75l.07.23-.19-.14h.23l-.19.14.07-.23Z" fill="#fff" stroke-width="0"/><path id="s-25" d="m8.53,106.21l.07.23-.19-.14h.23l-.19.14.07-.23Z" fill="#fff" stroke-width="0"/><path id="s-26" d="m8.53,106.66l.07.23-.19-.14h.23l-.19.14.07-.23Z" fill="#fff" stroke-width="0"/></g></g><g id="a-3"><g id="c-3"><g id="d-6"><path id="s-27" d="m8.78,105.08l.07.23-.19-.14h.23l-.19.14.07-.23Z" fill="#fff" stroke-width="0"/><path id="s-28" d="m8.78,105.53l.07.23-.19-.14h.23l-.19.14.07-.23Z" fill="#fff" stroke-width="0"/><path id="s-29" d="m8.78,105.98l.07.23-.19-.14h.23l-.19.14.07-.23Z" fill="#fff" stroke-width="0"/><path id="s-30" d="m8.78,106.43l.07.23-.19-.14h.23l-.19.14.07-.23Z" fill="#fff" stroke-width="0"/></g><path id="s-31" d="m8.78,106.88l.07.23-.19-.14h.23l-.19.14.07-.23Z" fill="#fff" stroke-width="0"/></g><g id="d-7"><path id="s-32" d="m9.03,105.3l.07.23-.19-.14h.23l-.19.14.07-.23Z" fill="#fff" stroke-width="0"/><path id="s-33" d="m9.03,105.75l.07.23-.19-.14h.23l-.19.14.07-.23Z" fill="#fff" stroke-width="0"/><path id="s-34" d="m9.03,106.21l.07.23-.19-.14h.23l-.19.14.07-.23Z" fill="#fff" stroke-width="0"/><path id="s-35" d="m9.03,106.66l.07.23-.19-.14h.23l-.19.14.07-.23Z" fill="#fff" stroke-width="0"/></g></g></g><g id="a-4"><g id="c-4"><g id="d-8"><path id="s-36" d="m9.28,105.08l.07.23-.19-.14h.23l-.19.14.07-.23Z" fill="#fff" stroke-width="0"/><path id="s-37" d="m9.28,105.53l.07.23-.19-.14h.23l-.19.14.07-.23Z" fill="#fff" stroke-width="0"/><path id="s-38" d="m9.28,105.98l.07.23-.19-.14h.23l-.19.14.07-.23Z" fill="#fff" stroke-width="0"/><path id="s-39" d="m9.28,106.43l.07.23-.19-.14h.23l-.19.14.07-.23Z" fill="#fff" stroke-width="0"/></g><path id="s-40" d="m9.28,106.88l.07.23-.19-.14h.23l-.19.14.07-.23Z" fill="#fff" stroke-width="0"/></g><g id="d-9"><path id="s-41" d="m9.53,105.3l.07.23-.19-.14h.23l-.19.14.07-.23Z" fill="#fff" stroke-width="0"/><path id="s-42" d="m9.53,105.75l.07.23-.19-.14h.23l-.19.14.07-.23Z" fill="#fff" stroke-width="0"/><path id="s-43" d="m9.53,106.21l.07.23-.19-.14h.23l-.19.14.07-.23Z" fill="#fff" stroke-width="0"/><path id="s-44" d="m9.53,106.66l.07.23-.19-.14h.23l-.19.14.07-.23Z" fill="#fff" stroke-width="0"/></g></g><g id="c-5"><g id="d-10"><path id="s-45" d="m9.78,105.08l.07.23-.19-.14h.23l-.19.14.07-.23Z" fill="#fff" stroke-width="0"/><path id="s-46" d="m9.78,105.53l.07.23-.19-.14h.23l-.19.14.07-.23Z" fill="#fff" stroke-width="0"/><path id="s-47" d="m9.78,105.98l.07.23-.19-.14h.23l-.19.14.07-.23Z" fill="#fff" stroke-width="0"/><path id="s-48" d="m9.78,106.43l.07.23-.19-.14h.23l-.19.14.07-.23Z" fill="#fff" stroke-width="0"/></g><path id="s-49" d="m9.78,106.88l.07.23-.19-.14h.23l-.19.14.07-.23Z" fill="#fff" stroke-width="0"/></g><path d="m8.61,98.69c.25-.13.5-.26.76-.37-2.98-1.57-3.15-2.75-3.76-3.99.47,1.44.87,2.87,3,4.36h0Z" fill="#a80126" fill-rule="evenodd" stroke-width="0"/><path d="m7.06,96.34c1.14.95,2.12,1.63,2.85,1.83.72-.38,3.1-.59,3.05-.05-.52-.26-.83-.13-1.12-.04.15,0,.54-.05.66,0-.05.06-.1.08-.15.12.19.04.37.1.53.19.1,0,.16,0,.19.02-.1.03-.22.15-.28.24.66.02,1.36.01,1.44.71.21-.62-.16-.94-.89-1.08-.1-.21-.25-.39-.4-.6-1.99-.11-3.97-.25-5.86-1.34h0Z" fill="#a80126" fill-rule="evenodd" stroke-width="0"/><path d="m5.5,101.14v-1.2h.8s-.06.08-.13.11h-.5v.32h.45s-.05.07-.1.09h-.35v.43c-.04.1-.09.19-.17.26h0Z" fill-rule="evenodd" stroke-width="0"/><path d="m7.67,100.06v.88h.23v-.83c-.31-.28-.62-.28-.93,0v.83h.21v-.49h.16s.06-.04.08-.07h-.24v-.32c.18-.13.33-.13.49,0h0Z" fill-rule="evenodd" stroke-width="0"/><path d="m10.06,100.97h-.93v-1.01h.23v.93h.82s-.05.07-.12.08h0Z" fill-rule="evenodd" stroke-width="0"/><path d="m11.44,99.94v.2c-.37.51.26,1.11.98.67h.05c-.44.49-2.07.08-1.03-.87h0Z" fill-rule="evenodd" stroke-width="0"/><path d="m10.95,99.97v.37c.36-.64.85-.96,2.36-.54-1.45-.57-1.99-.27-2.36.17Z" fill-rule="evenodd" stroke-width="0"/><path d="m13.78,99.86c-.3,0-.61.21-.61.59,0,.77,1.21.81,1.21,0,0-.4-.3-.6-.61-.59h0Zm0,.08c.18,0,.36.17.36.51,0,.69-.71.67-.72,0,0-.34.18-.51.36-.51h0Z" fill-rule="evenodd" stroke-width="0"/><path d="m15.51,100.06v.91h-.18v-.96l.18-.09v.04c.28,0,.47.12.52.19v.82h-.18v-.81c-.06-.11-.14-.13-.35-.14v.02Z" fill-rule="evenodd" stroke-width="0"/><path d="m10.78,101.68c-1.87,0-1.38,1.5-.35,1.47.48-.01.57-.06.89-.41-.2,1.01-.89,1.01-1.71,1.09-.1.07-.12.08-.2.19,1.4-.03,2.57-.28,2.54-1.36-.02-.76-.53-.99-1.18-.98h0Zm-.03.18c.34,0,.62.22.62.48h0c0,.27-.28.48-.62.48-.34,0-.61-.22-.61-.48,0-.27.27-.48.61-.48Z" fill-rule="evenodd" stroke-width="0"/><path d="m18.56,119.14l.03-5.2-.86-1.27.03-1.37-.69-1.29-.23-.74-.56-.2-.56.05-.33.1-.3.81-.18.89-.03.76v.81l.08.58-.66.74v5.25l.51.1,3.76-.03Z" fill="#fff" fill-rule="evenodd" stroke="#040404" stroke-linecap="round" stroke-linejoin="round" stroke-width=".16"/><path d="m14.81,113.93v5.22h3.75v-5.2l-.76-1.31h-1.79l-1.2,1.29Z" fill="none" stroke="#040404" stroke-linecap="square" stroke-linejoin="round" stroke-width=".16"/><path d="m17.76,119.05v-7.7l-.63-1.26c-.73-.34-1.36-.22-1.9.25l.09,2.35" fill="none" stroke="#040404" stroke-linecap="square" stroke-linejoin="round" stroke-width=".16"/><path d="m16.09,112.68v6.45" fill="none" stroke="#040404" stroke-linecap="square" stroke-linejoin="round" stroke-width=".16"/><path d="m16.04,112.66l-.61-.02-1.11,1.2v5.25l.51.05" fill="none" stroke="#040404" stroke-linecap="square" stroke-linejoin="round" stroke-width=".16"/><path d="m15.98,112.63l-.02-1.29-.7-.9" fill="none" stroke="#040404" stroke-linecap="square" stroke-linejoin="round" stroke-width=".16"/><path d="m17.15,110.09l-.32-.79c-.4-.24-.89-.23-1.44-.09-.54,1.23-.59,2.52-.41,3.84" fill="none" stroke="#040404" stroke-linecap="square" stroke-linejoin="round" stroke-width=".16"/><path d="m17.72,111.25c-.66-.27-1.22-.23-1.74-.02" fill="none" stroke="#040404" stroke-linecap="round" stroke-linejoin="round" stroke-width=".16"/><path d="m16.1,119.14l-1.28-1.4" fill="#fff" fill-rule="evenodd" stroke="#040404" stroke-linecap="round" stroke-linejoin="round" stroke-width=".16"/><path d="m17.25,119.14l-2.42-3.06" fill="#fff" fill-rule="evenodd" stroke="#040404" stroke-linecap="round" stroke-linejoin="round" stroke-width=".16"/><path d="m14.82,114.58l3.57,4.53" fill="#fff" fill-rule="evenodd" stroke="#040404" stroke-linecap="round" stroke-linejoin="round" stroke-width=".16"/><path d="m15.18,113.57l3.36,4.3" fill="#fff" fill-rule="evenodd" stroke="#040404" stroke-linecap="round" stroke-linejoin="round" stroke-width=".16"/><path d="m15.85,112.85l2.72,3.55" fill="#fff" fill-rule="evenodd" stroke="#040404" stroke-linecap="round" stroke-linejoin="round" stroke-width=".16"/><path d="m16.9,112.67l1.66,2.13" fill="#fff" fill-rule="evenodd" stroke="#040404" stroke-linecap="round" stroke-linejoin="round" stroke-width=".16"/><path d="m16.65,119.13l1.91-2.71" fill="#fff" fill-rule="evenodd" stroke="#040404" stroke-linecap="round" stroke-linejoin="round" stroke-width=".16"/><path d="m18.51,117.9l-.79,1.24" fill="#fff" fill-rule="evenodd" stroke="#040404" stroke-linecap="round" stroke-linejoin="round" stroke-width=".16"/><path d="m15.4,119.13l3.14-4.1" fill="#fff" fill-rule="evenodd" stroke="#040404" stroke-linecap="round" stroke-linejoin="round" stroke-width=".16"/><path d="m14.84,118.35l3.6-4.57" fill="#fff" fill-rule="evenodd" stroke="#040404" stroke-linecap="round" stroke-linejoin="round" stroke-width=".16"/><path d="m14.84,116.75l3.15-3.7" fill="#fff" fill-rule="evenodd" stroke="#040404" stroke-linecap="round" stroke-linejoin="round" stroke-width=".16"/><path d="m14.81,115.28l2.28-2.59" fill="#fff" fill-rule="evenodd" stroke="#040404" stroke-linecap="round" stroke-linejoin="round" stroke-width=".16"/><path d="m14.31,113.83l.5.1" fill="#ccc" fill-rule="evenodd" stroke="#040404" stroke-linecap="round" stroke-linejoin="round" stroke-width=".16"/><path d="m2.96,119.14l-.03-5.2.86-1.27-.03-1.37.69-1.29.23-.74.56-.2.56.05.33.1.3.81.18.89.03.76v.81l-.08.58.66.74v5.25l-.51.1-3.76-.03Z" fill="#fff" fill-rule="evenodd" stroke="#040404" stroke-linecap="round" stroke-linejoin="round" stroke-width=".16"/><path d="m6.71,113.93v5.22h-3.75v-5.2l.76-1.31h1.79l1.2,1.29Z" fill="none" stroke="#040404" stroke-linecap="square" stroke-linejoin="round" stroke-width=".16"/><path d="m3.76,119.05v-7.7l.63-1.26c.73-.34,1.36-.22,1.9.25l-.09,2.35" fill="none" stroke="#040404" stroke-linecap="square" stroke-linejoin="round" stroke-width=".16"/><path d="m5.42,112.68v6.45" fill="none" stroke="#040404" stroke-linecap="square" stroke-linejoin="round" stroke-width=".16"/><path d="m5.48,112.66l.61-.02,1.11,1.2v5.25l-.51.05" fill="none" stroke="#040404" stroke-linecap="square" stroke-linejoin="round" stroke-width=".16"/><path d="m5.54,112.63l.02-1.29.7-.9" fill="none" stroke="#040404" stroke-linecap="square" stroke-linejoin="round" stroke-width=".16"/><path d="m4.37,110.09l.32-.79c.4-.24.89-.23,1.44-.09.54,1.23.59,2.52.41,3.84" fill="none" stroke="#040404" stroke-linecap="square" stroke-linejoin="round" stroke-width=".16"/><path d="m3.8,111.25c.66-.27,1.22-.23,1.74-.02" fill="none" stroke="#040404" stroke-linecap="round" stroke-linejoin="round" stroke-width=".16"/><path d="m5.42,119.14l1.28-1.4" fill="#fff" fill-rule="evenodd" stroke="#040404" stroke-linecap="round" stroke-linejoin="round" stroke-width=".16"/><path d="m4.27,119.14l2.42-3.06" fill="#fff" fill-rule="evenodd" stroke="#040404" stroke-linecap="round" stroke-linejoin="round" stroke-width=".16"/><path d="m6.7,114.58l-3.57,4.53" fill="#fff" fill-rule="evenodd" stroke="#040404" stroke-linecap="round" stroke-linejoin="round" stroke-width=".16"/><path d="m6.34,113.57l-3.36,4.3" fill="#fff" fill-rule="evenodd" stroke="#040404" stroke-linecap="round" stroke-linejoin="round" stroke-width=".16"/><path d="m5.67,112.85l-2.72,3.55" fill="#fff" fill-rule="evenodd" stroke="#040404" stroke-linecap="round" stroke-linejoin="round" stroke-width=".16"/><path d="m4.62,112.67l-1.66,2.13" fill="#fff" fill-rule="evenodd" stroke="#040404" stroke-linecap="round" stroke-linejoin="round" stroke-width=".16"/><path d="m4.86,119.13l-1.91-2.71" fill="#fff" fill-rule="evenodd" stroke="#040404" stroke-linecap="round" stroke-linejoin="round" stroke-width=".16"/><path d="m3,117.9l.79,1.24" fill="#fff" fill-rule="evenodd" stroke="#040404" stroke-linecap="round" stroke-linejoin="round" stroke-width=".16"/><path d="m6.12,119.13l-3.14-4.1" fill="#fff" fill-rule="evenodd" stroke="#040404" stroke-linecap="round" stroke-linejoin="round" stroke-width=".16"/><path d="m6.68,118.35l-3.6-4.57" fill="#fff" fill-rule="evenodd" stroke="#040404" stroke-linecap="round" stroke-linejoin="round" stroke-width=".16"/><path d="m6.68,116.75l-3.15-3.7" fill="#fff" fill-rule="evenodd" stroke="#040404" stroke-linecap="round" stroke-linejoin="round" stroke-width=".16"/><path d="m6.71,115.28l-2.28-2.59" fill="#fff" fill-rule="evenodd" stroke="#040404" stroke-linecap="round" stroke-linejoin="round" stroke-width=".16"/><path d="m7.21,113.83l-.5.1" fill="#ccc" fill-rule="evenodd" stroke="#040404" stroke-linecap="round" stroke-linejoin="round" stroke-width=".16"/></svg>