<?xml version="1.0" encoding="UTF-8"?><svg id="Layer_1" xmlns="http://www.w3.org/2000/svg" xmlns:xlink="http://www.w3.org/1999/xlink" viewBox="0 0 19.46 268.03"><defs><linearGradient id="linear-gradient" x1="653.56" y1="-444.22" x2="660.65" y2="-444.22" gradientTransform="translate(-330.45 -331.8) scale(.51 -1.07)" gradientUnits="userSpaceOnUse"><stop offset="0" stop-color="#000"/><stop offset="1" stop-color="#000" stop-opacity="0"/></linearGradient><linearGradient id="linear-gradient-2" x1="-1199.81" y1="-444.54" x2="-1192.72" y2="-444.54" gradientTransform="translate(-591.94 -332.08) rotate(-180) scale(.51 1.07)" gradientUnits="userSpaceOnUse"><stop offset="0" stop-color="#000"/><stop offset="1" stop-color="#000" stop-opacity="0"/></linearGradient><linearGradient id="linear-gradient-3" x1="638.22" y1="-18474.04" x2="645.31" y2="-18474.04" gradientTransform="translate(-328.2 -1086.4) scale(.52 -.06)" gradientUnits="userSpaceOnUse"><stop offset="0" stop-color="#000"/><stop offset="1" stop-color="#000" stop-opacity="0"/></linearGradient><linearGradient id="linear-gradient-4" x1="-1184.25" y1="-18479.77" x2="-1177.15" y2="-18479.77" gradientTransform="translate(-594.13 -1086.42) rotate(-180) scale(.51 .06)" gradientUnits="userSpaceOnUse"><stop offset="0" stop-color="#000"/><stop offset="1" stop-color="#000" stop-opacity="0"/></linearGradient><radialGradient id="radial-gradient" cx="355.19" cy="-1083.21" fx="355.19" fy="-1083.21" r="8.4" gradientTransform="translate(-296.39 -1055.22) rotate(-7) scale(.49 -1.01)" gradientUnits="userSpaceOnUse"><stop offset="0" stop-color="#f9f9f9"/><stop offset="1" stop-color="#f9f9f9"/></radialGradient><linearGradient id="linear-gradient-5" x1="164.47" y1="-1060.17" x2="166.62" y2="-1060.17" gradientTransform="translate(-148.04 -1036.3) scale(1 -1)" gradientUnits="userSpaceOnUse"><stop offset="0" stop-color="#fff"/><stop offset="1" stop-color="#f2f2f2"/></linearGradient><linearGradient id="linear-gradient-6" x1="148.93" y1="-1060.17" x2="151.08" y2="-1060.17" gradientTransform="translate(-148.04 -1036.3) scale(1 -1)" gradientUnits="userSpaceOnUse"><stop offset="0" stop-color="#ececec"/><stop offset="1" stop-color="#fff"/></linearGradient></defs><rect x="2.16" y="29.66" width="15.16" height="228.92" fill="#fff" stroke-width="0"/><rect x="2.31" y="29.95" width="7.52" height="228.55" fill="url(#linear-gradient)" isolation="isolate" opacity=".03" stroke-width="0"/><rect x="9.72" y="29.9" width="7.41" height="228.47" fill="url(#linear-gradient-2)" isolation="isolate" opacity=".03" stroke-width="0"/><rect x="1.7" y="258.98" width=".36" height=".39" fill="#f7f7f7" stroke-width="0"/><rect x="17.29" y="258.98" width=".48" height=".48" fill="#f7f7f7" stroke-width="0"/><path d="m2.82,262.55s-.04-.1-.04-.12v-.04s2.75,0,2.75,0v.07c.03.06.03.08,0,.11l-.02.04h-2.67l-.03-.08h0Z" fill="#f7f7f7" stroke-width="0"/><path d="m5.91,262.55s-.04-.1-.04-.12v-.04s1.41,0,1.41,0c1.18,0,1.42,0,1.42.02,0,.03-.05.16-.07.19l-.02.03h-2.66l-.03-.08h0Z" fill="#f7f7f7" stroke-width="0"/><path d="m8.94,262.72c.03-.08.06-.17.06-.22v-.06h.72c.78,0,.73,0,.73.07,0,.02.02.07.04.13l.04.1h-.8c-.76,0-.8,0-.79-.02h0Z" fill="#f7f7f7" stroke-width="0"/><path d="m10.82,262.55s-.03-.09-.04-.12l-.02-.06h1.42c.97,0,1.42,0,1.42.01,0,.02-.05.17-.07.2l-.02.03h-2.67l-.03-.06h0Z" fill="#f7f7f7" stroke-width="0"/><path d="m13.92,262.63s-.02-.06,0-.12v-.08h1.4c.94,0,1.38,0,1.38.01,0,.02-.05.17-.07.2l-.02.03h-2.66l-.02-.04h0Z" fill="#f7f7f7" stroke-width="0"/><path d="m2.17,258.66l15.08.03v2.66s-.56,1.42-.56,1.42l-13.94-.04-.57-1.42v-2.64Z" fill="#f7f7f7" stroke-width="0"/><path d="m5.58,264.91c-.16-.39-.37-.84-.57-1.24l-.08-.16.03-.06c.06-.11.19-.34.27-.47l.03-.05h.16c.09,0,.27,0,.4,0h.24l.03.05c.07.11.25.42.29.5v.03s-.03.08-.03.08c-.23.43-.45.92-.63,1.37l-.03.08h-.05l-.05-.13h0Z" fill="#333" stroke-width="0"/><path d="m13.62,264.75c-.16-.39-.37-.84-.57-1.24l-.08-.16.03-.06c.06-.11.19-.34.27-.47l.03-.05h.16c.09,0,.27,0,.4,0h.24l.03.05c.07.11.25.42.29.5v.03s-.03.08-.03.08c-.23.43-.45.92-.63,1.37l-.03.08h-.05l-.05-.13h0Z" fill="#333" stroke-width="0"/><path d="m8.81,264.34c.07-.13.19-.35.27-.5l.15-.27-.18-.31-.18-.31h-.31c-.26,0-.31,0-.31-.03,0-.03-.03-.03-.13-.03-.13,0-.14.01-.18.08l-.04.08.23.44c.13.24.3.59.38.77.08.18.16.33.16.33,0,0,.07-.1.13-.23h0Z" fill="#333" stroke-width="0"/><path d="m10.67,264.34c-.07-.13-.19-.35-.27-.5l-.15-.27.18-.31.18-.31h.31c.26,0,.31,0,.31-.03,0-.03.03-.03.13-.03.13,0,.14.01.18.08l.04.08-.23.44c-.13.24-.3.59-.38.77-.08.18-.16.33-.16.33,0,0-.07-.1-.13-.23h0Z" fill="#333" stroke-width="0"/><path d="m7.79,267.75s.07-.31.08-.34c.14-1.83.29-1.45.87-2.56,0-.06.4-.85.62-1.24l.11-.2v-.51h.55v.52l.12.21c.12.22.46.88.54,1.06l.05.1c.72,1.95.18.24.92,2.76.02.08.03.17.03.18,0,.03,0,.03-1.95.03-1.07,0-1.95,0-1.95,0h0Z" fill="#333" stroke-width="0"/><path d="m2.16,258.66h15.14" fill="none" stroke="#000" stroke-width=".32"/><path d="m2.16,89.2h15.14" fill="none" stroke="#000" stroke-width=".32"/><path d="m12.6,262.8h-.83" fill="none" stroke="#000" stroke-width=".32"/><path d="m3.74,267.1h3.99" fill="none" stroke="#000" stroke-width=".32"/><path d="m5.33,262.8h.83" fill="none" stroke="#000" stroke-width=".32"/><path d="m6.51,263.45c-.11-.23-.23-.45-.36-.67" fill="none" stroke="#000" stroke-width=".32"/><path d="m5.33,262.8c-.13.22-.24.44-.36.67" fill="none" stroke="#000" stroke-width=".32"/><path d="m8.07,262.8h.62" fill="none" stroke="#000" stroke-width=".32"/><path d="m9.3,263.53c-.11-.23-.24-.46-.36-.69" fill="none" stroke="#000" stroke-width=".32"/><path d="m8.07,262.8c-.06.11-.13.23-.19.34" fill="none" stroke="#000" stroke-width=".32"/><path d="m15.72,267.1h-3.99" fill="none" stroke="#000" stroke-width=".32"/><path d="m14.14,262.8h-.83" fill="none" stroke="#000" stroke-width=".32"/><path d="m13.32,262.8c-.13.22-.24.44-.36.67" fill="none" stroke="#000" stroke-width=".32"/><path d="m14.5,263.45c-.11-.23-.23-.45-.36-.67" fill="none" stroke="#000" stroke-width=".32"/><path d="m11.39,262.8h-.62" fill="none" stroke="#000" stroke-width=".32"/><path d="m5.69,262.23c0,.2.05.4.18.56" fill="none" stroke="#000" stroke-width=".32"/><path d="m8.69,262.8c.12-.16.18-.36.18-.56" fill="none" stroke="#000" stroke-width=".32"/><path d="m5.87,262.8h2.82" fill="none" stroke="#000" stroke-width=".32"/><path d="m10.6,262.23c0,.2.05.4.18.56" fill="none" stroke="#000" stroke-width=".32"/><path d="m13.6,262.8c.12-.16.18-.36.18-.56" fill="none" stroke="#000" stroke-width=".32"/><path d="m10.77,262.8h2.82" fill="none" stroke="#000" stroke-width=".32"/><path d="m8.93,262.88h1.6" fill="none" stroke="#000" stroke-width=".32"/><path d="m8.27,262.8s.03.04.04.06" fill="none" stroke="#000" stroke-width=".32"/><path d="m11.15,262.88s.03-.04.04-.06" fill="none" stroke="#000" stroke-width=".32"/><path d="m8.32,262.88h2.82" fill="none" stroke="#000" stroke-width=".32"/><path d="m10.57,262.88c-.13.23-.25.46-.36.69" fill="none" stroke="#000" stroke-width=".32"/><path d="m10.57,262.88c-.13.23-.25.46-.36.69" fill="none" stroke="#000" stroke-width=".32"/><path d="m11.6,263.12c-.05-.1-.11-.2-.17-.31" fill="none" stroke="#000" stroke-width=".32"/><path d="m2.16,63.45h15.14" fill="none" stroke="#000" stroke-width=".32"/><path d="m17.3,30.49v230.54c-.02.44-.16.86-.4,1.23H2.56c-.24-.37-.38-.79-.4-1.23V30.49" fill="none" stroke="#000" stroke-width=".32"/><path d="m7.9,267.1c-.05.22-.1.45-.14.67h3.99c-.04-.23-.09-.45-.14-.67" fill="none" stroke="#000" stroke-width=".32"/><path d="m8.65,264.91c.2-.47.43-.94.69-1.39v-.61" fill="none" stroke="#000" stroke-width=".32"/><path d="m10.16,262.88v.61c.25.43.47.88.67,1.34" fill="none" stroke="#000" stroke-width=".32"/><path d="m5.74,265.4c-.29-.89-.67-1.74-1.13-2.55h-.83c-.76,1.34-1.3,2.8-1.58,4.32h3.99" fill="#333" stroke="#000" stroke-width=".32"/><path d="m2.61,262.23c0,.2.05.4.18.56h2.82c.06-.07.1-.15.13-.24" fill="none" stroke="#000" stroke-width=".32"/><path d="m13.73,262.55c.03.09.07.17.13.24h2.82c.12-.16.18-.36.18-.56" fill="none" stroke="#000" stroke-width=".32"/><path d="m13.27,267.1h3.99c-.28-1.52-.82-2.98-1.58-4.32h-.83c-.46.81-.84,1.67-1.13,2.55" fill="#333" stroke="#000" stroke-width=".32"/><path d="m12.6,262.8c.76,1.34,1.3,2.8,1.58,4.32h-3.99c.28-1.52.82-2.98,1.58-4.32" fill="#333" stroke="#000" stroke-width=".32"/><path d="m6.87,262.8c-.76,1.34-1.3,2.8-1.58,4.32h3.99c-.28-1.52-.82-2.98-1.58-4.32h-.83Z" fill="#333" stroke="#000" stroke-width=".32"/><path d="m2.9,248.75l.04-.11.06-.13.09-.13.11-.13.13-.12.15-.11.16-.09.17-.07.18-.04h.19s.19.04.19.04l.2.09.33.86,1.03,2.84.34.95.34.95,1.03,2.84.34.95.69,1.89.09.23.02.03.02.03.02.02.02.02.02.02.02.02.02.02.02.02h.02s.03.03.03.03h.03s.03.02.03.02l.05.02h.1s.14,0,.14,0l.04-.02.04-.04.04-.06.04-.08.04-.09.04-.1.03-.11.03-.12.03-.13.02-.13.02-.13-.16-1.48-.36-3.1-.36-3.1-.73-6.2-2.19-18.59-.36-3.1-.24-2.1v-.41s0-.2,0-.2v-1.63s-.02-.25-.02-.25l-.03-.4-.03-.36-.03-.32-.03-.29-.03-.26-.03-.24-.03-.21-.03-.19-.03-.17-.04-.15-.04-.14-.04-.13-.04-.12-.04-.11-.04-.1-.04-.09-.04-.08-.04-.07-.04-.07-.04-.06-.04-.05-.04-.05-.04-.04-.04-.04-.04-.03-.04-.03-.04-.02-.05-.02h-.05s-.05-.02-.05-.02h-.05s-.05,0-.05,0h-.05s-.05.02-.05.02l-.05.02-.05.02-.05.03-.05.03-.05.04-.05.04-.05.05-.05.06-.05.06-.06.07-.06.07-.06.08-.06.09-.06.1-.06.1-.06.11-.06.12-.06.12-.06.13-.06.13-.06.14-.06.14-.06.14-.06.14-.06.14-.05.14-.05.14-.05.14-.05.14-.04.13-.04.13-.04.13-.03.14-.03.14-.03.14-.02.14" fill="#f2f2f2" stroke="#000" stroke-width=".32"/><path d="m2.9,248.75l-.03.17-.03.18-.03.18-.03.18-.03.19-.03.19-.03.19-.03.2-.03.2-.03.2-.03.2-.03.21-.03.21-.03.21-.03.21-.03.21-.03.22-.03.22-.03.22-.03.22-.03.22-.03.22-.05.45-.05.45-.05.46-.1.91-.05.46-.05.46-.05.45-.05.45-.02.22-.02.22-.02.22-.02.22-.02.22-.02.22-.02.21-.02.21-.02.21-.02.21v.1s-.02.04-.02.04h0s0,0,0,0h0s0,.03,0,.03h0s-.02.03-.02.03h-.08s-.05-.04-.05-.04l-.05-.03-.05-.03-.05-.03-.05-.03-.04-.03-.04-.03-.04-.03-.04-.03-.04-.03-.04-.03-.04-.03-.04-.03-.03-.03-.03-.03-.03-.03-.03-.03-.06-.07-.05-.07-.05-.07-.04-.07-.04-.07-.04-.07-.03-.07-.03-.07-.03-.08-.03-.08-.02-.08-.02-.08-.02-.08-.02-.08-.02-.08-.02-.08v-.04s-.01-.02-.01-.02h0s0,0,0,0h0s0,0,0,0h0s0-.05,0-.05v-.09s.2-5.86.2-5.86l.39-11.71.59-17.57.05-1.46v-.37s.01-.02.01-.02h0s0,0,0,0h0s0,0,0,0h0s0,0,0,0h0s0-.01,0-.01v-.04s.02-.08.02-.08v-.07s.02-.07.02-.07v-.07s.02-.07.02-.07v-.07s.02-.07.02-.07v-.06s.02-.06.02-.06v-.06s.04-.12.04-.12l.03-.12.03-.11.03-.11.03-.11.03-.11.03-.11.03-.11.03-.11.03-.11.04-.12.04-.12.04-.12.02-.06.02-.06.02-.06.03-.06.03-.06.03-.07.03-.07.03-.07.03-.07.03-.07.03-.07.04-.07.04-.07.04-.07" fill="#f2f2f2" stroke="#000" stroke-linecap="round" stroke-width=".32"/><path d="m16.6,248.75l-.04-.11-.06-.13-.09-.13-.11-.13-.13-.12-.15-.11-.16-.09-.17-.07-.18-.04h-.19s-.19.04-.19.04l-.2.09-.33.86-1.03,2.84-.34.95-1.37,3.79-.34.95-.69,1.89-.09.23-.02.03-.02.03-.02.02-.02.02-.02.02-.02.02-.02.02-.02.02h-.02s-.03.03-.03.03h-.03s-.03.02-.03.02l-.05.02h-.1s-.14,0-.14,0l-.04-.02-.04-.04-.04-.06-.04-.08-.04-.09-.04-.1-.03-.11-.03-.12-.03-.13-.02-.13-.02-.13.16-1.48.36-3.1.36-3.1.36-3.1.73-6.2.73-6.2.36-3.1.73-6.2.36-3.1.24-2.1v-.41s0-.2,0-.2v-1.63s.02-.25.02-.25l.03-.4.03-.36.03-.32.03-.29.03-.26.03-.24.03-.21.03-.19.03-.17.04-.15.04-.14.04-.13.04-.12.04-.11.04-.1.04-.09.04-.08.04-.07.04-.07.04-.06.04-.05.04-.05.04-.04.04-.04.04-.03.04-.03.04-.02.05-.02h.05s.05-.02.05-.02h.05s.05,0,.05,0h.05s.05.02.05.02l.05.02.05.02.05.03.05.03.05.04.05.04.05.05.05.06.05.06.06.07.06.07.06.08.06.09.06.1.06.1.06.11.06.12.06.12.06.13.06.13.06.14.06.14.06.14.06.14.06.14.05.14.05.14.05.14.05.14.04.13.04.13.04.13.03.14.03.14.03.14.02.14" fill="#f2f2f2" stroke="#000" stroke-width=".32"/><path d="m16.6,248.75l.03.17.03.18.03.18.03.18.03.19.03.19.03.19.03.2.03.2.03.2.03.2.03.21.03.21.03.21.03.21.03.21.03.22.03.22.03.22.03.22.03.22.03.22.05.45.05.45.05.46.1.91.05.46.05.46.05.45.05.45.02.22.02.22.02.22.02.22.02.22.02.22.02.21.02.21.02.21.02.21v.1s.02.04.02.04h0s0,0,0,0h0s0,.03,0,.03h0s.02.03.02.03h.08s.05-.04.05-.04l.05-.03.05-.03.05-.03.05-.03.04-.03.04-.03.04-.03.04-.03.04-.03.04-.03.04-.03.04-.03.03-.03.03-.03.03-.03.03-.03.06-.07.05-.07.05-.07.04-.07.04-.07.04-.07.03-.07.03-.07.03-.08.03-.08.02-.08.02-.08.02-.08.02-.08.02-.08.02-.08v-.04s.01-.02.01-.02h0s0,0,0,0h0s0,0,0,0h0s0-.05,0-.05v-.09s-.2-5.86-.2-5.86l-.39-11.71-.39-11.71-.2-5.86-.05-1.46v-.37s-.01-.02-.01-.02h0s0,0,0,0h0s0,0,0,0h0s0-.01,0-.01v-.04s-.02-.08-.02-.08v-.07s-.02-.07-.02-.07v-.07s-.02-.07-.02-.07v-.07s-.02-.07-.02-.07v-.06s-.02-.06-.02-.06v-.06s-.04-.12-.04-.12l-.03-.12-.03-.11-.03-.11-.03-.11-.03-.11-.03-.11-.03-.11-.03-.11-.03-.11-.04-.12-.04-.12-.04-.12-.02-.06-.02-.06-.02-.06-.03-.06-.03-.06-.03-.07-.03-.07-.03-.07-.03-.07-.03-.07-.03-.07-.04-.07-.04-.07-.04-.07" fill="#f2f2f2" stroke="#000" stroke-linecap="round" stroke-width=".32"/><path d="m5.28,218.6l-1-1.06" fill="none" stroke="#000" stroke-width=".32"/><path d="m4.29,217.54h-1.83" fill="none" stroke="#000" stroke-width=".32"/><path d="m2.24,242.17l.14-19.58" fill="none" stroke="#000" stroke-width=".32"/><path d="m2.38,222.6l1.75-2.38" fill="none" stroke="#000" stroke-width=".32"/><path d="m2.38,222.6l-.84-2.17" fill="none" stroke="#000" stroke-width=".32"/><path d="m4.13,220.23l.15-2.7" fill="none" stroke="#000" stroke-linecap="round" stroke-width=".32"/><path d="m1.68,258.98h.5" fill="none" stroke="#000" stroke-width=".32"/><path d="m1.61,259.47h.56" fill="none" stroke="#000" stroke-width=".32"/><path d="m9.5,259.47h.5" fill="none" stroke="#000" stroke-width=".32"/><path d="m9.66,258.98h.18" fill="none" stroke="#000" stroke-width=".32"/><path d="m.61,258.9l.29-3.66.1-1.22.48-6.1.1-1.22.29-3.66.04-.39.03-.1.03-.08.04-.07.04-.06.04-.05.05-.03.05-.03.05-.02h.05s.05,0,.05,0h.05s.05.02.05.02l.05.02.05.03.05.03.05.03.05.04.05.04.04.04.04.05.04.05.04.05.04.05.04.05.04.05.14.36,1.42,3.82.47,1.27,1.42,3.82.95,2.55.47,1.27.95,2.55.47,1.27" fill="none" stroke="#000" stroke-width=".32"/><path d="m14.21,218.6l1-1.06" fill="none" stroke="#000" stroke-width=".32"/><path d="m15.21,217.54h1.83" fill="none" stroke="#000" stroke-width=".32"/><path d="m17.25,242.17l-.14-19.58" fill="none" stroke="#000" stroke-width=".32"/><path d="m17.12,222.6l-1.75-2.38" fill="none" stroke="#000" stroke-width=".32"/><path d="m17.12,222.6l.84-2.17" fill="none" stroke="#000" stroke-width=".32"/><path d="m15.36,220.23l-.15-2.7" fill="none" stroke="#000" stroke-linecap="round" stroke-width=".32"/><path d="m17.81,258.98h-.5" fill="none" stroke="#000" stroke-width=".32"/><path d="m17.88,259.47h-.56" fill="none" stroke="#000" stroke-width=".32"/><path d="m18.89,258.9l-.1-1.22-.1-1.22-.48-6.1-.1-1.22-.38-4.88-.1-1.22-.04-.39-.03-.1-.03-.08-.04-.07-.04-.06-.04-.05-.05-.03-.05-.03-.05-.02h-.05s-.05,0-.05,0h-.05s-.05.02-.05.02l-.05.02-.05.03-.05.03-.05.03-.05.04-.05.04-.04.04-.04.05-.04.05-.04.05-.04.05-.04.05-.04.05-.14.36-.47,1.27-.95,2.55-.47,1.27-1.42,3.82-.95,2.55-.47,1.27-1.42,3.82" fill="none" stroke="#000" stroke-width=".32"/><path d="m10.89,208.31h-3.14l-.12.09v2.79h.87v-1.05l.08-.07h2.3c.58,0,.85-.16.85-.56v-.64c0-.4-.27-.56-.85-.56m0,1.03c0,.19-.13.23-.4.23h-1.9l-.09-.09v-.6l.08-.08h1.91c.27,0,.4.04.4.23v.31h0Z" fill="#005288" stroke-width="0"/><polyline points="9.07 214.67 9.82 215.76 9.78 215.87 8.12 215.87 7.7 216.39 10.16 216.39 10.33 216.49 10.72 217.02 11.71 217.02 9.53 214.1" fill="#005288" stroke-width="0"/><polyline points="8.61 229.22 8.61 228.45 8.7 228.37 10.36 228.37 10.36 227.88 7.73 227.88 7.73 229.79 11.62 229.79 11.62 229.3 8.7 229.3" fill="#005288" stroke-width="0"/><rect x="7.73" y="226.91" width="3.93" height=".54" fill="#005288" stroke-width="0"/><path d="m8.59,220.9h3.17c-.05-.4-.3-.51-.93-.51h-2.27c-.72,0-.94.14-.94.68v1.52c0,.54.23.68.94.68h2.27c.64,0,.89-.12.91-.54h-3.14l-.09-.09v-1.68" fill="#005288" stroke-width="0"/><path d="m10.86,202.79h-2.31l-.07-.07v-.49l.07-.05h3.11l.04-.1c-.11-.27-.38-.4-.89-.4h-2.16c-.72,0-.94.14-.94.68v.32c0,.54.23.68.94.68h2.3l.07.06v.52l-.06.08h-2.63s-.69,0-.69,0c0,0-.08.04-.08.06.06.38.32.49.93.49h2.35c.72,0,.95-.14.95-.68v-.4c0-.54-.24-.68-.95-.68" fill="#005288" stroke-width="0"/><path d="m8.64,233.59h-1.29l-.07.13,1.44,1.05c.27-.16.57-.32.89-.47" fill="#005288" stroke-width="0"/><path d="m9.79,235.56l1.26.92h1.31l.05-.12-1.89-1.38c-.25.18-.5.38-.74.58" fill="#005288" stroke-width="0"/><path d="m8.45,236.48h-1.17l-.1-.15c.8-.77,4.43-3.66,9.16-4.02,0,0-4.14.46-7.89,4.18" fill="#a7a9ac" stroke-width="0"/><rect x="6.02" y="78.24" width="7.47" height="4.2" fill="#b22234" stroke-width="0"/><path d="m6.02,78.72h7.47m0,.65h-7.47m0,.65h7.47m0,.65h-7.47m0,.65h7.47m0,.65h-7.47" stroke="#fff" stroke-miterlimit="10" stroke-width=".3"/><rect x="6.02" y="78.24" width="2.99" height="2.26" fill="#3c3b6e" stroke-width="0"/><g id="e"><g id="a"><g id="c"><g id="d"><path id="s" d="m6.26,78.33l.07.23-.19-.14h.23l-.19.14.07-.23Z" fill="#fff" stroke-width="0"/><path id="s-2" d="m6.26,78.78l.07.23-.19-.14h.23l-.19.14.07-.23Z" fill="#fff" stroke-width="0"/><path id="s-3" d="m6.26,79.24l.07.23-.19-.14h.23l-.19.14.07-.23Z" fill="#fff" stroke-width="0"/><path id="s-4" d="m6.26,79.69l.07.23-.19-.14h.23l-.19.14.07-.23Z" fill="#fff" stroke-width="0"/></g><path id="s-5" d="m6.26,80.14l.07.23-.19-.14h.23l-.19.14.07-.23Z" fill="#fff" stroke-width="0"/></g><g id="d-2"><path id="s-6" d="m6.51,78.56l.07.23-.19-.14h.23l-.19.14.07-.23Z" fill="#fff" stroke-width="0"/><path id="s-7" d="m6.51,79.01l.07.23-.19-.14h.23l-.19.14.07-.23Z" fill="#fff" stroke-width="0"/><path id="s-8" d="m6.51,79.46l.07.23-.19-.14h.23l-.19.14.07-.23Z" fill="#fff" stroke-width="0"/><path id="s-9" d="m6.51,79.91l.07.23-.19-.14h.23l-.19.14.07-.23Z" fill="#fff" stroke-width="0"/></g></g><g id="a-2"><g id="c-2"><g id="d-3"><path id="s-10" d="m6.76,78.33l.07.23-.19-.14h.23l-.19.14.07-.23Z" fill="#fff" stroke-width="0"/><path id="s-11" d="m6.76,78.78l.07.23-.19-.14h.23l-.19.14.07-.23Z" fill="#fff" stroke-width="0"/><path id="s-12" d="m6.76,79.24l.07.23-.19-.14h.23l-.19.14.07-.23Z" fill="#fff" stroke-width="0"/><path id="s-13" d="m6.76,79.69l.07.23-.19-.14h.23l-.19.14.07-.23Z" fill="#fff" stroke-width="0"/></g><path id="s-14" d="m6.76,80.14l.07.23-.19-.14h.23l-.19.14.07-.23Z" fill="#fff" stroke-width="0"/></g><g id="d-4"><path id="s-15" d="m7.01,78.56l.07.23-.19-.14h.23l-.19.14.07-.23Z" fill="#fff" stroke-width="0"/><path id="s-16" d="m7.01,79.01l.07.23-.19-.14h.23l-.19.14.07-.23Z" fill="#fff" stroke-width="0"/><path id="s-17" d="m7.01,79.46l.07.23-.19-.14h.23l-.19.14.07-.23Z" fill="#fff" stroke-width="0"/><path id="s-18" d="m7.01,79.91l.07.23-.19-.14h.23l-.19.14.07-.23Z" fill="#fff" stroke-width="0"/></g></g></g><g id="e-2"><g id="a-3"><g id="c-3"><g id="d-5"><path id="s-19" d="m7.26,78.33l.07.23-.19-.14h.23l-.19.14.07-.23Z" fill="#fff" stroke-width="0"/><path id="s-20" d="m7.26,78.78l.07.23-.19-.14h.23l-.19.14.07-.23Z" fill="#fff" stroke-width="0"/><path id="s-21" d="m7.26,79.24l.07.23-.19-.14h.23l-.19.14.07-.23Z" fill="#fff" stroke-width="0"/><path id="s-22" d="m7.26,79.69l.07.23-.19-.14h.23l-.19.14.07-.23Z" fill="#fff" stroke-width="0"/></g><path id="s-23" d="m7.26,80.14l.07.23-.19-.14h.23l-.19.14.07-.23Z" fill="#fff" stroke-width="0"/></g><g id="d-6"><path id="s-24" d="m7.51,78.56l.07.23-.19-.14h.23l-.19.14.07-.23Z" fill="#fff" stroke-width="0"/><path id="s-25" d="m7.51,79.01l.07.23-.19-.14h.23l-.19.14.07-.23Z" fill="#fff" stroke-width="0"/><path id="s-26" d="m7.51,79.46l.07.23-.19-.14h.23l-.19.14.07-.23Z" fill="#fff" stroke-width="0"/><path id="s-27" d="m7.51,79.91l.07.23-.19-.14h.23l-.19.14.07-.23Z" fill="#fff" stroke-width="0"/></g></g><g id="a-4"><g id="c-4"><g id="d-7"><path id="s-28" d="m7.76,78.33l.07.23-.19-.14h.23l-.19.14.07-.23Z" fill="#fff" stroke-width="0"/><path id="s-29" d="m7.76,78.78l.07.23-.19-.14h.23l-.19.14.07-.23Z" fill="#fff" stroke-width="0"/><path id="s-30" d="m7.76,79.24l.07.23-.19-.14h.23l-.19.14.07-.23Z" fill="#fff" stroke-width="0"/><path id="s-31" d="m7.76,79.69l.07.23-.19-.14h.23l-.19.14.07-.23Z" fill="#fff" stroke-width="0"/></g><path id="s-32" d="m7.76,80.14l.07.23-.19-.14h.23l-.19.14.07-.23Z" fill="#fff" stroke-width="0"/></g><g id="d-8"><path id="s-33" d="m8.01,78.56l.07.23-.19-.14h.23l-.19.14.07-.23Z" fill="#fff" stroke-width="0"/><path id="s-34" d="m8.01,79.01l.07.23-.19-.14h.23l-.19.14.07-.23Z" fill="#fff" stroke-width="0"/><path id="s-35" d="m8.01,79.46l.07.23-.19-.14h.23l-.19.14.07-.23Z" fill="#fff" stroke-width="0"/><path id="s-36" d="m8.01,79.91l.07.23-.19-.14h.23l-.19.14.07-.23Z" fill="#fff" stroke-width="0"/></g></g></g><g id="a-5"><g id="c-5"><g id="d-9"><path id="s-37" d="m8.26,78.33l.07.23-.19-.14h.23l-.19.14.07-.23Z" fill="#fff" stroke-width="0"/><path id="s-38" d="m8.26,78.78l.07.23-.19-.14h.23l-.19.14.07-.23Z" fill="#fff" stroke-width="0"/><path id="s-39" d="m8.26,79.24l.07.23-.19-.14h.23l-.19.14.07-.23Z" fill="#fff" stroke-width="0"/><path id="s-40" d="m8.26,79.69l.07.23-.19-.14h.23l-.19.14.07-.23Z" fill="#fff" stroke-width="0"/></g><path id="s-41" d="m8.26,80.14l.07.23-.19-.14h.23l-.19.14.07-.23Z" fill="#fff" stroke-width="0"/></g><g id="d-10"><path id="s-42" d="m8.51,78.56l.07.23-.19-.14h.23l-.19.14.07-.23Z" fill="#fff" stroke-width="0"/><path id="s-43" d="m8.51,79.01l.07.23-.19-.14h.23l-.19.14.07-.23Z" fill="#fff" stroke-width="0"/><path id="s-44" d="m8.51,79.46l.07.23-.19-.14h.23l-.19.14.07-.23Z" fill="#fff" stroke-width="0"/><path id="s-45" d="m8.51,79.91l.07.23-.19-.14h.23l-.19.14.07-.23Z" fill="#fff" stroke-width="0"/></g></g><g id="c-6"><g id="d-11"><path id="s-46" d="m8.75,78.33l.07.23-.19-.14h.23l-.19.14.07-.23Z" fill="#fff" stroke-width="0"/><path id="s-47" d="m8.75,78.78l.07.23-.19-.14h.23l-.19.14.07-.23Z" fill="#fff" stroke-width="0"/><path id="s-48" d="m8.75,79.24l.07.23-.19-.14h.23l-.19.14.07-.23Z" fill="#fff" stroke-width="0"/><path id="s-49" d="m8.75,79.69l.07.23-.19-.14h.23l-.19.14.07-.23Z" fill="#fff" stroke-width="0"/></g><path id="s-50" d="m8.75,80.14l.07.23-.19-.14h.23l-.19.14.07-.23Z" fill="#fff" stroke-width="0"/></g><path d="m7.59,71.95c.25-.13.5-.26.76-.37-2.98-1.57-3.15-2.75-3.76-3.99.47,1.44.87,2.87,3,4.36h0Z" fill="#a80126" fill-rule="evenodd" stroke-width="0"/><path d="m6.04,69.59c1.14.95,2.12,1.63,2.85,1.83.72-.38,3.1-.59,3.05-.05-.52-.26-.83-.13-1.12-.04.15,0,.54-.05.66,0-.05.06-.1.08-.15.12.19.04.37.1.53.19.1,0,.16,0,.19.02-.1.03-.22.15-.28.24.66.02,1.36.01,1.44.71.21-.62-.16-.94-.89-1.08-.1-.21-.25-.39-.4-.6-1.99-.11-3.97-.25-5.86-1.34h0Z" fill="#a80126" fill-rule="evenodd" stroke-width="0"/><path d="m4.48,74.4v-1.2h.8s-.06.08-.13.11h-.5v.32h.45s-.05.07-.1.09h-.35v.43c-.04.1-.09.19-.17.26h0Z" fill-rule="evenodd" stroke-width="0"/><path d="m6.65,73.32v.88h.23v-.83c-.31-.28-.62-.28-.93,0v.83h.21v-.49h.16s.06-.04.08-.07h-.24v-.32c.18-.13.33-.13.49,0h0Z" fill-rule="evenodd" stroke-width="0"/><path d="m9.04,74.23h-.93v-1.01h.23v.93h.82s-.05.07-.12.08h0Z" fill-rule="evenodd" stroke-width="0"/><path d="m10.42,73.2v.2c-.37.51.26,1.11.98.67h.05c-.44.49-2.07.08-1.03-.87h0Z" fill-rule="evenodd" stroke-width="0"/><path d="m9.93,73.22v.37c.36-.64.85-.96,2.36-.54-1.45-.57-1.99-.27-2.36.17Z" fill-rule="evenodd" stroke-width="0"/><path d="m12.75,73.12c-.3,0-.61.21-.61.59,0,.77,1.21.81,1.21,0,0-.4-.3-.6-.61-.59h0Zm0,.08c.18,0,.36.17.36.51,0,.69-.71.67-.72,0,0-.34.18-.51.36-.51h0Z" fill-rule="evenodd" stroke-width="0"/><path d="m14.49,73.32v.91h-.18v-.96l.18-.09v.04c.28,0,.47.12.52.19v.82h-.18v-.81c-.06-.11-.14-.13-.35-.14v.02Z" fill-rule="evenodd" stroke-width="0"/><path d="m9.76,74.94c-1.87,0-1.38,1.5-.35,1.47.48-.01.57-.06.89-.41-.2,1.01-.89,1.01-1.71,1.09-.1.07-.12.08-.2.19,1.4-.03,2.57-.28,2.54-1.36-.02-.76-.53-.99-1.18-.98h0Zm-.03.18c.34,0,.62.22.62.48h0c0,.27-.28.48-.62.48-.34,0-.61-.22-.61-.48,0-.27.27-.48.61-.48Z" fill-rule="evenodd" stroke-width="0"/><rect x="2.16" y="16.92" width="15.16" height="12.81" fill="#fff" stroke-width="0"/><rect x="2.2" y="16.97" width="7.64" height="12.81" fill="url(#linear-gradient-3)" isolation="isolate" opacity=".03" stroke-width="0"/><rect x="9.73" y="16.96" width="7.53" height="12.81" fill="url(#linear-gradient-4)" isolation="isolate" opacity=".03" stroke-width="0"/><path d="m17.95,16.67v-.11s.01-.11.01-.11v-.11s-.02-.11-.02-.11l-.09-.36-1.3-4.71-.65-2.36-.22-.79-.65-2.36-.22-.79-.06-.2-.05-.15-.06-.15-.06-.16-.07-.17-.07-.17-.08-.17-.08-.18-.09-.18-.09-.18-.1-.18-.1-.17-.11-.17-.11-.17-.11-.16-.12-.16-.12-.15-.12-.14-.13-.14-.13-.13-.13-.13-.13-.12-.13-.11-.14-.11-.14-.1-.14-.1-.14-.09-.14-.09-.14-.08-.14-.08-.14-.07-.14-.06-.14-.06-.14-.05-.14-.05-.14-.04-.14-.04-.14-.03-.14-.03-.14-.02-.13-.02-.13-.02h-.13s-.13-.01-.13-.01h-.13s-.13.03-.13.03l-.13.02-.14.02-.14.03-.14.03-.14.04-.14.04-.14.05-.14.05-.14.06-.14.06-.14.07-.14.08-.14.08-.14.09-.14.09-.14.1-.14.1-.14.11-.13.11-.13.12-.13.13-.13.13-.13.14-.12.14-.12.15-.12.16-.11.16-.11.17-.11.17-.1.17-.1.18-.09.18-.09.18-.08.18-.08.17-.07.17-.07.17-.06.16-.06.15-.05.15-.06.2-.65,2.36-.22.79-.65,2.36-.22.79-.65,2.36-.22.79-.43,1.57-.09.36v.11s-.02.11-.02.11v.11s.01.11.01.11" fill="url(#radial-gradient)" stroke-width="0"/><path d="m2.9,17.72s-.04-.06-.12-.11c-.06-.04-.15-.11-.19-.15-.08-.09-.17-.31-.2-.46-.03-.18-.05-.23-.14-.27-.16-.09-.32-.12-.55-.11h-.21s0-.07,0-.07v-.08h16.37v.08s.01.08.01.08h-.21c-.23-.02-.39,0-.55.1-.08.05-.11.09-.14.27-.02.15-.12.37-.2.46-.04.05-.13.11-.19.15-.08.05-.12.09-.12.11,0,.04-.28.04-6.79.04s-6.79,0-6.79-.04h0Z" fill="#ececec" stroke-width="0"/><path d="m17.95,16.83v-.11s.01-.11.01-.11v-.11s-.02-.11-.02-.11l-.09-.36-1.3-4.71-.65-2.36-.22-.79-.65-2.36-.22-.79-.06-.2-.05-.15-.06-.15-.06-.16-.07-.17-.07-.17-.08-.17-.08-.18-.09-.18-.09-.18-.1-.18-.1-.17-.11-.17-.11-.17-.11-.16-.12-.16-.12-.15-.12-.14-.13-.14-.13-.13-.13-.13-.13-.12-.13-.11-.14-.11-.14-.1-.14-.1-.14-.09-.14-.09-.14-.08-.14-.08-.14-.07-.14-.06-.14-.06-.14-.05-.14-.05-.14-.04-.14-.04-.14-.03-.14-.03-.14-.02-.13-.02-.13-.02h-.13s-.13-.01-.13-.01h-.13s-.13.03-.13.03l-.13.02-.14.02-.14.03-.14.03-.14.04-.14.04-.14.05-.14.05-.14.06-.14.06-.14.07-.14.08-.14.08-.14.09-.14.09-.14.1-.14.1-.14.11-.13.11-.13.12-.13.13-.13.13-.13.14-.12.14-.12.15-.12.16-.11.16-.11.17-.11.17-.1.17-.1.18-.09.18-.09.18-.08.18-.08.17-.07.17-.07.17-.06.16-.06.15-.05.15-.06.2-.65,2.36-.22.79-.65,2.36-.22.79-.65,2.36-.22.79-.43,1.57-.09.36v.11s-.02.11-.02.11v.11s.01.11.01.11" fill="none" stroke="#000" stroke-width=".32"/><path d="m2.87,29.83h13.71" fill="none" stroke="#000" stroke-width=".32"/><path d="m2.87,17.66h13.71" fill="none" stroke="#000" stroke-width=".32"/><path d="m1.53,16.31h16.4" fill="#f2f2f2" stroke="#000" stroke-width=".32"/><path d="m4.66,4.94h10.14" fill="none" stroke="#000" stroke-width=".32"/><path d="m2.87,29.83h13.71" fill="none" stroke="#000" stroke-width=".32"/><path d="m16.59,17.54v12.72l.04.74.21-.14.2-.15.19-.15.18-.15.16-.15.15-.15.14-.14.12-.14.11-.13.09-.12.08-.11.06-.1.05-.09.03-.08v-.31s.01-11.24.01-11.24l-.02-.43-.04-.05-.04-.05-.05-.05-.05-.05-.05-.05-.06-.04-.06-.04-.06-.03-.07-.03-.07-.03-.07-.02-.07-.02h-.07s-.07-.02-.07-.02h-.07s-.07,0-.07,0h-.07s-.07.02-.07.02l-.07.02-.06.02-.06.02-.02.05v.05s-.02.05-.02.05v.05s-.03.05-.03.05l-.02.05-.03.05-.03.05-.03.05-.04.04-.04.04-.04.04-.04.03-.04.03-.05.03-.05.02-.05.02h0Z" fill="url(#linear-gradient-5)" stroke="#000" stroke-width=".32"/><path d="m2.87,17.54v12.72l-.04.74-.21-.14-.2-.15-.19-.15-.18-.15-.16-.15-.15-.15-.14-.14-.12-.14-.11-.13-.09-.12-.08-.11-.06-.1-.05-.09-.03-.08v-.31s-.01-11.24-.01-11.24l.02-.43.04-.05.04-.05.05-.05.05-.05.05-.05.06-.04.06-.04.06-.03.07-.03.07-.03.07-.02.07-.02h.07s.07-.02.07-.02h.07s.07,0,.07,0h.07s.07.02.07.02l.07.02.06.02.06.02.02.05v.05s.02.05.02.05v.05s.03.05.03.05l.02.05.03.05.03.05.03.05.04.04.04.04.04.04.04.03.04.03.05.03.05.02.05.02h0Z" fill="url(#linear-gradient-6)" stroke="#000" stroke-width=".32"/><path d="m7.33,13.32h-1.02l-.04.03v.91h.28v-.34l.03-.02h.75c.19,0,.28-.05.28-.18v-.21c0-.13-.09-.18-.28-.18m0,.34c0,.06-.04.07-.13.07h-.62l-.03-.03v-.19l.03-.02h.62c.09,0,.13.01.13.07v.1Z" fill="#005288" stroke-width="0"/><polyline points="8.13 13.5 8.37 13.85 8.36 13.89 7.82 13.89 7.68 14.06 8.48 14.06 8.54 14.09 8.66 14.26 8.99 14.26 8.28 13.31" fill="#005288" stroke-width="0"/><polyline points="11.35 14.08 11.35 13.83 11.38 13.8 11.92 13.8 11.92 13.64 11.06 13.64 11.06 14.26 12.33 14.26 12.33 14.1 11.38 14.1" fill="#005288" stroke-width="0"/><rect x="11.06" y="13.32" width="1.28" height=".18" fill="#005288" stroke-width="0"/><path d="m9.63,13.49h1.03c-.02-.13-.1-.17-.3-.17h-.74c-.23,0-.31.05-.31.22v.49c0,.18.07.22.31.22h.74c.21,0,.29-.04.3-.18h-1.02l-.03-.03v-.55" fill="#005288" stroke-width="0"/><path d="m5.58,13.69h-.75l-.02-.02v-.16l.02-.02h1.01v-.03c-.02-.09-.11-.13-.28-.13h-.7c-.23,0-.31.05-.31.22v.1c0,.18.07.22.31.22h.75l.02.02v.17l-.02.03h-.86s-.22,0-.22,0c0,0-.03.01-.02.02.02.12.1.16.3.16h.77c.23,0,.31-.05.31-.22v-.13c0-.18-.08-.22-.31-.22" fill="#005288" stroke-width="0"/><path d="m13.15,13.32h-.42l-.02.04.47.34c.09-.05.19-.1.29-.15" fill="#005288" stroke-width="0"/><path d="m13.53,13.96l.41.3h.43l.02-.04-.61-.45c-.08.06-.16.12-.24.19" fill="#005288" stroke-width="0"/><path d="m13.09,14.26h-.38l-.03-.05c.26-.25,1.42-1.32,3.94-1.44,0,0-2.12.07-3.53,1.49" fill="#005288" stroke-width="0"/><path d="m9.17,24.35h.24s-.01-.64-.01-.64c-.3-.2-.55-.2-.82,0v.63s.24,0,.24,0v-.38s.12,0,.12,0c.03-.02.06-.07.07-.09h-.21s0-.17,0-.17c.16-.1.35,0,.35,0,0,0,0,.49,0,.66h0Z" fill-rule="evenodd" stroke-width="0"/><path d="m12.14,23.54c-.23,0-.51.15-.51.42,0,.55,1.01.57,1.01,0,0-.29-.27-.42-.5-.42Zm0,.07c.14,0,.27.11.27.35,0,.47-.56.48-.56,0,0-.24.15-.35.29-.35Z" fill-rule="evenodd" stroke-width="0"/><path d="m13.65,24.37h-.24v-.73c.06-.03.21-.08.24-.08v.02c.32-.02.5.03.59.11v.67s-.23,0-.23,0v-.64c-.08-.07-.12-.08-.36-.06,0,0,0,.49,0,.71Z" fill-rule="evenodd" stroke-width="0"/><path d="m5.26,23.54v.83h.35c.77,0,.73-.82,0-.83h-.34Zm.22.07h.17c.39.03.31.68,0,.69h-.17v-.69Z" fill-rule="evenodd" stroke-width="0"/><path d="m7.2,24.38h-.24s0-.83,0-.83c0,0,.31-.02.55,0,0,0,.13,0,.22.05,0,.14,0,.29,0,.29,0,.06-.19.04-.2.06,0,.03.21,0,.21.07v.37s-.18,0-.23-.04c0-.11,0-.35,0-.35h-.12s-.08-.07-.09-.1h.21s0-.28,0-.28c-.15-.02-.19-.02-.33,0v.76Z" fill-rule="evenodd" stroke-width="0"/><path d="m10.5,23.91h.41s0,.41,0,.41c-.32.04-.48.05-.78,0v-.75c.27-.06.49-.03.78,0v.16h-.22v-.12c-.13-.04-.21-.04-.34,0v.67c.14.03.21.04.35,0v-.32h-.17s-.03-.02-.04-.05Z" fill-rule="evenodd" stroke-width="0"/><path d="m10.23,19.65s-.02,0-.01.02c.16.29.21.46.15.51-.11.08-.14-.25-.28-.27-.05,0-.07.06-.1.05-.04-.01-.03-.13-.09-.13-.12,0-.1.1-.27.15-.18.06-.54,0-.93-.14,0,.03.12.08.33.19.21.11.56.31.71.28,0,.02,0,.03-.01.04-.15.02-.3.07-.4.15-.29.21-.52.14-.91.08.19.1.5.23.81.17.15-.03.27-.18.37-.14-1.56.91-.52,2.14.35,1.98-.61-.3-.83-1.05-.31-1.65.02.02.07.02.1.03-.03.04-.06.05-.04.09.01.04.05.08.11.08.03,0,.04-.19.09-.23-.03.36.29.48.65.59.14.04.12.12.14.13.01,0,.03.01.05,0,.03,0-.09-.15-.15-.19-.15-.1-.29-.11-.31-.18-.02-.05.15-.04.22.02.24.2.25.36.43.36.12,0,.11-.21.09-.38-.1-.08-.14-.2-.05-.2-.06-.14-.15-.27-.22-.37-.02-.03.03-.08.02-.11-.02-.06-.05-.06-.06-.16-.04-.23-.05-.42-.47-.77,0,0,0,0,0,0h0Zm-.08,1.14s.03,0,.05,0c.06.02.11.07.14.1.04.05-.07-.06-.15-.07-.02,0-.03,0-.04-.01,0,0-.02-.01-.02-.02,0,0,0,0,.02,0Zm-.11.03c.05.08.13.13.15.14,0,0-.1-.03-.12-.06,0-.01-.04-.04-.03-.08Zm.16.04s.03.01.03.01c.03,0,.08.06.03.1-.01,0-.04,0-.06-.02-.02-.02-.03-.06-.03-.09,0,0,.01,0,.02,0Z" fill="#00006d" fill-rule="evenodd" stroke-width="0"/><path d="m6.04,25.18l.84-.07c.4.62,1.1.97,1.84.96.79,0,1.06-.1,2.06-.57.68-.31,1.47-.57,2.02-.56.79,0,.97.5.96.81-.01.9-.8,1.37-1.69,1.35-.67-.01-1.02-.18-1.21-.35-.02-.02,0-.04.03-.02.16.11.66.29.86.04.92.14,1.85-.12,1.82-.99-.02-.43-.24-.64-.71-.62-.71.02-1.59.42-1.9.55-.44.2-1.34.73-2.25.76-1.07.03-1.9-.5-2.67-1.27h0Z" fill="#00006d" fill-rule="evenodd" stroke-width="0"/><path d="m4.5,24.52c-.3-.31-.79-1.08-.78-1.82,0-.91.69-1.46,1.83-1.82.18-.06.4-.11.59-.14-.04.04-.04.05-.04.07-.25.05-.43.1-.51.13-1.06.33-1.69.88-1.69,1.78,0,.39.21.99.46,1.38.03.14.05.21.14.41h0Z" fill="#00006d" fill-rule="evenodd" stroke-width="0"/><path d="m14.93,24.4c.07-.16.09-.2.15-.44.3-.55.45-.93.46-1.34.01-1.25-1.14-1.71-2.2-1.93-.02-.03-.03-.05-.04-.09,1.18.25,2.42.75,2.43,1.95,0,.81-.46,1.44-.79,1.85h0Z" fill="#00006d" fill-rule="evenodd" stroke-width="0"/><path d="m15.06,23.46c.8-1.73-1.1-2.68-2.11-2.66v.04c.26.04.59.25.6.33-.26-.2-.64-.35-.94-.27-.26.07-.26.15-.57.29.02.13,0,.23-.04.29-.27.41-.81.62-1.24.6.31.13.79.34.83.7.05-.06.1-.11.19-.18.36-.28.63,0,.88.19-.27-.4-.12-.62.43-.31.2.11.22.16.46.29-.61-.88-.25-.94.27-.93,1.04.02,1.32.78,1.25,1.63h0Z" fill="#00006d" fill-rule="evenodd" stroke-width="0"/><path d="m9.34,22.61c-.33-.15-.46-.34-.57-.57-1.5.04-1.28-.41-1.2-.56-.28-.07-.61-.24-.8-.3-.19-.07-.32-.08-.84-.05.35-.06.75-.17,1.32.13.17.09.22.07.39.17-.06.54.58.53,1.1.54l-.03-.14c-.69.07-1.16-.05-.93-.45-.02-.01-.17,0-.1-.04.02,0,.02,0,.03-.04-.32-.07-.5-.38-1.23-.39-.55,0-1.17.27-1.47.45-.51.32-1.07.99-.57,2.11-.18-.71.46-1.47,1.82-1.6.36-.03.43.07.27.28-.12.16-.3.38-.39.62.51-.32,1.2-.75,1.42.02.17-.32.52-.14,1.03-.09.21.02.49,0,.76-.12h0Z" fill="#00006d" fill-rule="evenodd" stroke-width="0"/><path d="m10.64,21.94l-.17-.09c.66.08,1.3-.15,1.34-.69.03,0,.03,0,.05,0,.02,0,0-.03-.02-.04s-.07-.04-.04-.04c.36-.09.55-.23.84-.28-.22.11-.5.34-.7.32-.03,0-.04,0-.02.02s.06.02.06.04c0,.03-.03.02-.06.04.02.22-.2.46-.49.6-.26.13-.49.16-.8.13h0Z" fill="#00006d" fill-rule="evenodd" stroke-width="0"/><path d="m10.88,23.25c.23-.07.53-.2.53-.43,0-.46-.73-.59-1.27-.79-.23-.09-.38-.13-.59-.34.09.22.19.42.59.59.49.21,1.28.43.74.97h0Z" fill="#00006d" fill-rule="evenodd" stroke-width="0"/><path d="m9.54,21.4c.08.03.14.13.24.15.04.19.08.24.07.29-.14-.05-.32-.18-.31-.44Z" fill="#00006d" fill-rule="evenodd" stroke-width="0"/><path d="m9.78,21.47c.03-.07-.02-.18.02-.22.02-.02.15.04.13,0-.18-.05-.23-.12-.27-.2-.04.07-.12.22-.1.29s.13.11.22.14h0Z" fill="#00006d" fill-rule="evenodd" stroke-width="0"/><path d="m17.55,92.4l.03-5.2-.86-1.27.03-1.37-.69-1.29-.23-.74-.56-.2-.56.05-.33.1-.3.81-.18.89-.03.76v.81l.08.58-.66.74v5.25l.51.1,3.76-.03Z" fill="#fff" fill-rule="evenodd" stroke="#040404" stroke-linecap="round" stroke-linejoin="round" stroke-width=".16"/><path d="m13.8,87.19v5.22h3.75v-5.2l-.76-1.31h-1.79l-1.2,1.29Z" fill="none" stroke="#040404" stroke-linecap="square" stroke-linejoin="round" stroke-width=".16"/><path d="m16.75,92.31v-7.7l-.63-1.26c-.73-.34-1.36-.22-1.9.25l.09,2.35" fill="none" stroke="#040404" stroke-linecap="square" stroke-linejoin="round" stroke-width=".16"/><path d="m15.09,85.94v6.45" fill="none" stroke="#040404" stroke-linecap="square" stroke-linejoin="round" stroke-width=".16"/><path d="m15.03,85.92l-.61-.02-1.11,1.2v5.25l.51.05" fill="none" stroke="#040404" stroke-linecap="square" stroke-linejoin="round" stroke-width=".16"/><path d="m14.97,85.88l-.02-1.29-.7-.9" fill="none" stroke="#040404" stroke-linecap="square" stroke-linejoin="round" stroke-width=".16"/><path d="m16.14,83.35l-.32-.79c-.4-.24-.89-.23-1.44-.09-.54,1.23-.59,2.52-.41,3.84" fill="none" stroke="#040404" stroke-linecap="square" stroke-linejoin="round" stroke-width=".16"/><path d="m16.71,84.5c-.66-.27-1.22-.23-1.74-.02" fill="none" stroke="#040404" stroke-linecap="round" stroke-linejoin="round" stroke-width=".16"/><path d="m15.09,92.4l-1.28-1.4" fill="#fff" fill-rule="evenodd" stroke="#040404" stroke-linecap="round" stroke-linejoin="round" stroke-width=".16"/><path d="m16.24,92.4l-2.42-3.06" fill="#fff" fill-rule="evenodd" stroke="#040404" stroke-linecap="round" stroke-linejoin="round" stroke-width=".16"/><path d="m13.81,87.84l3.57,4.53" fill="#fff" fill-rule="evenodd" stroke="#040404" stroke-linecap="round" stroke-linejoin="round" stroke-width=".16"/><path d="m14.17,86.83l3.36,4.3" fill="#fff" fill-rule="evenodd" stroke="#040404" stroke-linecap="round" stroke-linejoin="round" stroke-width=".16"/><path d="m14.84,86.1l2.72,3.55" fill="#fff" fill-rule="evenodd" stroke="#040404" stroke-linecap="round" stroke-linejoin="round" stroke-width=".16"/><path d="m15.89,85.92l1.66,2.13" fill="#fff" fill-rule="evenodd" stroke="#040404" stroke-linecap="round" stroke-linejoin="round" stroke-width=".16"/><path d="m15.65,92.39l1.91-2.71" fill="#fff" fill-rule="evenodd" stroke="#040404" stroke-linecap="round" stroke-linejoin="round" stroke-width=".16"/><path d="m17.51,91.15l-.79,1.24" fill="#fff" fill-rule="evenodd" stroke="#040404" stroke-linecap="round" stroke-linejoin="round" stroke-width=".16"/><path d="m14.39,92.39l3.14-4.1" fill="#fff" fill-rule="evenodd" stroke="#040404" stroke-linecap="round" stroke-linejoin="round" stroke-width=".16"/><path d="m13.83,91.61l3.6-4.57" fill="#fff" fill-rule="evenodd" stroke="#040404" stroke-linecap="round" stroke-linejoin="round" stroke-width=".16"/><path d="m13.83,90.01l3.15-3.7" fill="#fff" fill-rule="evenodd" stroke="#040404" stroke-linecap="round" stroke-linejoin="round" stroke-width=".16"/><path d="m13.8,88.54l2.28-2.59" fill="#fff" fill-rule="evenodd" stroke="#040404" stroke-linecap="round" stroke-linejoin="round" stroke-width=".16"/><path d="m13.3,87.09l.5.1" fill="#ccc" fill-rule="evenodd" stroke="#040404" stroke-linecap="round" stroke-linejoin="round" stroke-width=".16"/><path d="m1.95,92.4l-.03-5.2.86-1.27-.03-1.37.69-1.29.23-.74.56-.2.56.05.33.1.3.81.18.89.03.76v.81l-.08.58.66.74v5.25l-.51.1-3.76-.03Z" fill="#fff" fill-rule="evenodd" stroke="#040404" stroke-linecap="round" stroke-linejoin="round" stroke-width=".16"/><path d="m5.7,87.19v5.22H1.94v-5.2l.76-1.31h1.79l1.2,1.29Z" fill="none" stroke="#040404" stroke-linecap="square" stroke-linejoin="round" stroke-width=".16"/><path d="m2.75,92.31v-7.7l.63-1.26c.73-.34,1.36-.22,1.9.25l-.09,2.35" fill="none" stroke="#040404" stroke-linecap="square" stroke-linejoin="round" stroke-width=".16"/><path d="m4.42,85.94v6.45" fill="none" stroke="#040404" stroke-linecap="square" stroke-linejoin="round" stroke-width=".16"/><path d="m4.47,85.92l.61-.02,1.11,1.2v5.25l-.51.05" fill="none" stroke="#040404" stroke-linecap="square" stroke-linejoin="round" stroke-width=".16"/><path d="m4.53,85.88l.02-1.29.7-.9" fill="none" stroke="#040404" stroke-linecap="square" stroke-linejoin="round" stroke-width=".16"/><path d="m3.36,83.35l.32-.79c.4-.24.89-.23,1.44-.09.54,1.23.59,2.52.41,3.84" fill="none" stroke="#040404" stroke-linecap="square" stroke-linejoin="round" stroke-width=".16"/><path d="m2.79,84.5c.66-.27,1.22-.23,1.74-.02" fill="none" stroke="#040404" stroke-linecap="round" stroke-linejoin="round" stroke-width=".16"/><path d="m4.41,92.4l1.28-1.4" fill="#fff" fill-rule="evenodd" stroke="#040404" stroke-linecap="round" stroke-linejoin="round" stroke-width=".16"/><path d="m3.26,92.4l2.42-3.06" fill="#fff" fill-rule="evenodd" stroke="#040404" stroke-linecap="round" stroke-linejoin="round" stroke-width=".16"/><path d="m5.69,87.84l-3.57,4.53" fill="#fff" fill-rule="evenodd" stroke="#040404" stroke-linecap="round" stroke-linejoin="round" stroke-width=".16"/><path d="m5.33,86.83l-3.36,4.3" fill="#fff" fill-rule="evenodd" stroke="#040404" stroke-linecap="round" stroke-linejoin="round" stroke-width=".16"/><path d="m4.66,86.1l-2.72,3.55" fill="#fff" fill-rule="evenodd" stroke="#040404" stroke-linecap="round" stroke-linejoin="round" stroke-width=".16"/><path d="m3.61,85.92l-1.66,2.13" fill="#fff" fill-rule="evenodd" stroke="#040404" stroke-linecap="round" stroke-linejoin="round" stroke-width=".16"/><path d="m3.86,92.39l-1.91-2.71" fill="#fff" fill-rule="evenodd" stroke="#040404" stroke-linecap="round" stroke-linejoin="round" stroke-width=".16"/><path d="m2,91.15l.79,1.24" fill="#fff" fill-rule="evenodd" stroke="#040404" stroke-linecap="round" stroke-linejoin="round" stroke-width=".16"/><path d="m5.11,92.39l-3.14-4.1" fill="#fff" fill-rule="evenodd" stroke="#040404" stroke-linecap="round" stroke-linejoin="round" stroke-width=".16"/><path d="m5.67,91.61l-3.6-4.57" fill="#fff" fill-rule="evenodd" stroke="#040404" stroke-linecap="round" stroke-linejoin="round" stroke-width=".16"/><path d="m5.67,90.01l-3.15-3.7" fill="#fff" fill-rule="evenodd" stroke="#040404" stroke-linecap="round" stroke-linejoin="round" stroke-width=".16"/><path d="m5.7,88.54l-2.28-2.59" fill="#fff" fill-rule="evenodd" stroke="#040404" stroke-linecap="round" stroke-linejoin="round" stroke-width=".16"/><path d="m6.2,87.09l-.5.1" fill="#ccc" fill-rule="evenodd" stroke="#040404" stroke-linecap="round" stroke-linejoin="round" stroke-width=".16"/></svg>