<?xml version="1.0" encoding="UTF-8"?><svg id="Layer_1" xmlns="http://www.w3.org/2000/svg" xmlns:xlink="http://www.w3.org/1999/xlink" viewBox="0 0 21.35 371.75"><defs><linearGradient id="linear-gradient" x1="971.09" y1="-14.96" x2="979.83" y2="-14.96" gradientTransform="translate(-493.72 247.61) scale(.51 -.81)" gradientUnits="userSpaceOnUse"><stop offset="0" stop-color="#000"/><stop offset="1" stop-color="#000" stop-opacity="0"/></linearGradient><linearGradient id="linear-gradient-2" x1="-1838.74" y1="-15.25" x2="-1830" y2="-15.25" gradientTransform="translate(-913.24 247.31) rotate(-180) scale(.51 .81)" gradientUnits="userSpaceOnUse"><stop offset="0" stop-color="#000"/><stop offset="1" stop-color="#000" stop-opacity="0"/></linearGradient><linearGradient id="linear-gradient-3" x1="949.52" y1="-12503.73" x2="958.26" y2="-12503.73" gradientTransform="translate(-490.41 -603.07) scale(.52 -.06)" gradientUnits="userSpaceOnUse"><stop offset="0" stop-color="#000"/><stop offset="1" stop-color="#000" stop-opacity="0"/></linearGradient><linearGradient id="linear-gradient-4" x1="-1816.85" y1="-12507.77" x2="-1808.11" y2="-12507.77" gradientTransform="translate(-916.52 -603.09) rotate(-180) scale(.51 .06)" gradientUnits="userSpaceOnUse"><stop offset="0" stop-color="#000"/><stop offset="1" stop-color="#000" stop-opacity="0"/></linearGradient><radialGradient id="radial-gradient" cx="778.41" cy="-390.49" fx="778.41" fy="-390.49" r="10.34" gradientTransform="translate(-416.5 -218.23) rotate(-7) scale(.49 -1.01)" gradientUnits="userSpaceOnUse"><stop offset="0" stop-color="#f9f9f9"/><stop offset="1" stop-color="#f9f9f9"/></radialGradient><linearGradient id="linear-gradient-5" x1="254.91" y1="-336.54" x2="257.56" y2="-336.54" gradientTransform="translate(-236.05 -190.43) scale(1 -1)" gradientUnits="userSpaceOnUse"><stop offset="0" stop-color="#fff"/><stop offset="1" stop-color="#f2f2f2"/></linearGradient><linearGradient id="linear-gradient-6" x1="235.77" y1="-336.54" x2="238.42" y2="-336.54" gradientTransform="translate(-236.05 -190.43) scale(1 -1)" gradientUnits="userSpaceOnUse"><stop offset="0" stop-color="#ececec"/><stop offset="1" stop-color="#fff"/></linearGradient></defs><rect x="1.23" y="153.36" width="18.67" height="212.66" fill="#fff" stroke-width="0"/><rect x="1.57" y="153.58" width="9.26" height="212.24" fill="url(#linear-gradient)" isolation="isolate" opacity=".03" stroke-width="0"/><rect x="10.7" y="153.54" width="9.12" height="212.17" fill="url(#linear-gradient-2)" isolation="isolate" opacity=".03" stroke-width="0"/><path d="m1.34,211.62h18.65" fill="none" stroke="#000" stroke-width=".4"/><path d="m19.98,151.02v202.41" fill="none" stroke="#000" stroke-width=".4"/><path d="m1.34,366h18.65" fill="none" stroke="#000" stroke-width=".4"/><path d="m1.34,151.02v202.41" fill="none" stroke="#000" stroke-width=".4"/><path d="m1.34,179.88h18.65" fill="none" stroke="#000" stroke-width=".4"/><path d="m17.38,366v.28c-.94,1.65-1.6,3.45-1.95,5.32h4.91c-.35-1.87-1.01-3.66-1.95-5.32v-.28h-1.02Z" fill="#333" stroke="#000" stroke-width=".4"/><path d="m10.15,366v.28c-.94,1.65-1.6,3.45-1.95,5.32h4.91c-.35-1.87-1.01-3.66-1.95-5.32v-.28h-1.02Z" fill="#333" stroke="#000" stroke-width=".4"/><path d="m2.92,366v.28c-.94,1.65-1.6,3.45-1.95,5.32h4.91c-.35-1.87-1.01-3.66-1.95-5.32v-.28h-1.02Z" fill="#333" stroke="#000" stroke-width=".4"/><path d="m5.15,360.7h11.02" fill="none" stroke="#000" stroke-width=".4"/><path d="m21.09,358.2l-.03-.32-.04-.32-.04-.33-.04-.33-.05-.33-.05-.33-.06-.33-.07-.33-.07-.33-.08-.32-.09-.31-.1-.3-.11-.3-.12-.28-.13-.27-.13-.26-.14-.25-.15-.23-.15-.22-.15-.21-.15-.19-.15-.18-.15-.16-.15-.15-.15-.13-.14-.11-.13-.1-.1.07-.1.1-.1.11-.1.12-.1.13-.1.14-.1.15-.1.16-.1.17-.1.18-.1.2-.1.21-.09.22-.09.23-.08.24-.08.26-.07.27-.07.29-.06.31-.06.33-.05.35-.05.38-.04.41-.04.44-.03.47-.03.5-.02.53v.56s0,6.65,0,6.65l.05.48h4.71l.16-.33v-7.41h0Z" fill="#f2f2f2" stroke="#000" stroke-width=".4"/><path d="m.23,358.2l.03-.32.04-.32.04-.33.04-.33.05-.33.05-.33.06-.33.07-.33.07-.33.08-.32.09-.31.1-.3.11-.3.12-.28.13-.27.13-.26.14-.25.15-.23.15-.22.15-.21.15-.19.15-.18.15-.16.15-.15.15-.13.14-.11.13-.1.1.07.1.1.1.11.1.12.1.13.1.14.1.15.1.16.1.17.1.18.1.2.1.21.09.22.09.23.08.24.08.26.07.27.07.29.06.31.06.33.05.35.05.38.04.41.04.44.03.47.03.5.02.53v.56s0,6.65,0,6.65l-.05.48H.39l-.16-.33v-7.41h0Z" fill="#f2f2f2" stroke="#000" stroke-width=".4"/><path d="m12.09,306.3h-3.87l-.14.11v3.44h1.07v-1.29l.1-.09h2.84c.72,0,1.05-.19,1.05-.69v-.79c0-.5-.34-.69-1.05-.69m0,1.27c0,.23-.15.28-.49.28h-2.34l-.11-.11v-.74l.1-.09h2.35c.34,0,.49.05.49.28v.38h0Z" fill="#005288" stroke-width="0"/><polyline points="9.85 314.13 10.77 315.48 10.72 315.61 8.68 315.61 8.16 316.25 11.19 316.25 11.4 316.38 11.88 317.03 13.1 317.03 10.42 313.43" fill="#005288" stroke-width="0"/><polyline points="9.28 332.06 9.28 331.1 9.39 331.01 11.44 331.01 11.44 330.4 8.19 330.4 8.19 332.76 12.99 332.76 12.99 332.15 9.4 332.15" fill="#005288" stroke-width="0"/><rect x="8.19" y="329.21" width="4.84" height=".67" fill="#005288" stroke-width="0"/><path d="m9.26,321.8h3.9c-.06-.5-.37-.63-1.15-.63h-2.79c-.88,0-1.16.17-1.16.84v1.87c0,.67.28.84,1.16.84h2.79c.79,0,1.1-.15,1.12-.66h-3.87l-.11-.11v-2.07" fill="#005288" stroke-width="0"/><path d="m12.05,299.5h-2.84l-.08-.09v-.61l.08-.06h3.83l.05-.13c-.13-.34-.47-.49-1.09-.49h-2.66c-.88,0-1.16.17-1.16.84v.39c0,.67.28.84,1.16.84h2.83l.09.08v.63l-.07.1h-3.24s-.85,0-.85,0c0,0-.1.05-.09.07.07.47.39.6,1.15.6h2.9c.88,0,1.17-.17,1.17-.84v-.49c0-.67-.29-.84-1.17-.84" fill="#005288" stroke-width="0"/><path d="m9.32,337.43h-1.59l-.09.16,1.77,1.29c.34-.19.7-.39,1.1-.58" fill="#005288" stroke-width="0"/><path d="m10.74,339.86l1.56,1.13h1.61l.07-.15-2.32-1.7c-.31.23-.61.47-.91.72" fill="#005288" stroke-width="0"/><path d="m9.08,340.99h-1.44l-.12-.19c.98-.95,5.46-4.5,11.28-4.96,0,0-5.1.57-9.72,5.15" fill="#005288" stroke-width="0"/><rect x="6.09" y="199.71" width="9.2" height="5.17" fill="#b22234" stroke-width="0"/><path d="m6.09,200.31h9.2m0,.8H6.09m0,.8h9.2m0,.8H6.09m0,.8h9.2m0,.8H6.09" stroke="#fff" stroke-miterlimit="10" stroke-width=".37"/><rect x="6.09" y="199.71" width="3.68" height="2.78" fill="#3c3b6e" stroke-width="0"/><path d="m6.39,199.83l.09.29-.23-.18h.28l-.23.18.09-.29Z" fill="#fff" stroke-width="0"/><path id="s" d="m6.39,200.39l.09.29-.23-.18h.28l-.23.18.09-.29Z" fill="#fff" stroke-width="0"/><path id="s-2" d="m6.39,200.95l.09.29-.23-.18h.28l-.23.18.09-.29Z" fill="#fff" stroke-width="0"/><path id="s-3" d="m6.39,201.5l.09.29-.23-.18h.28l-.23.18.09-.29Z" fill="#fff" stroke-width="0"/><path id="s-4" d="m6.39,202.06l.09.29-.23-.18h.28l-.23.18.09-.29Z" fill="#fff" stroke-width="0"/><g id="d"><path id="s-5" d="m6.7,200.11l.09.29-.23-.18h.28l-.23.18.09-.29Z" fill="#fff" stroke-width="0"/><path id="s-6" d="m6.7,200.67l.09.29-.23-.18h.28l-.23.18.09-.29Z" fill="#fff" stroke-width="0"/><path id="s-7" d="m6.7,201.22l.09.29-.23-.18h.28l-.23.18.09-.29Z" fill="#fff" stroke-width="0"/><path id="s-8" d="m6.7,201.78l.09.29-.23-.18h.28l-.23.18.09-.29Z" fill="#fff" stroke-width="0"/></g><g id="a"><g id="c"><g id="d-2"><path id="s-9" d="m7.01,199.83l.09.29-.23-.18h.28l-.23.18.09-.29Z" fill="#fff" stroke-width="0"/><path id="s-10" d="m7.01,200.39l.09.29-.23-.18h.28l-.23.18.09-.29Z" fill="#fff" stroke-width="0"/><path id="s-11" d="m7.01,200.95l.09.29-.23-.18h.28l-.23.18.09-.29Z" fill="#fff" stroke-width="0"/><path id="s-12" d="m7.01,201.5l.09.29-.23-.18h.28l-.23.18.09-.29Z" fill="#fff" stroke-width="0"/></g><path id="s-13" d="m7.01,202.06l.09.29-.23-.18h.28l-.23.18.09-.29Z" fill="#fff" stroke-width="0"/></g><g id="d-3"><path id="s-14" d="m7.31,200.11l.09.29-.23-.18h.28l-.23.18.09-.29Z" fill="#fff" stroke-width="0"/><path id="s-15" d="m7.31,200.67l.09.29-.23-.18h.28l-.23.18.09-.29Z" fill="#fff" stroke-width="0"/><path id="s-16" d="m7.31,201.22l.09.29-.23-.18h.28l-.23.18.09-.29Z" fill="#fff" stroke-width="0"/><path id="s-17" d="m7.31,201.78l.09.29-.23-.18h.28l-.23.18.09-.29Z" fill="#fff" stroke-width="0"/></g></g><g id="e"><g id="a-2"><g id="c-2"><g id="d-4"><path id="s-18" d="m7.62,199.83l.09.29-.23-.18h.28l-.23.18.09-.29Z" fill="#fff" stroke-width="0"/><path id="s-19" d="m7.62,200.39l.09.29-.23-.18h.28l-.23.18.09-.29Z" fill="#fff" stroke-width="0"/><path id="s-20" d="m7.62,200.95l.09.29-.23-.18h.28l-.23.18.09-.29Z" fill="#fff" stroke-width="0"/><path id="s-21" d="m7.62,201.5l.09.29-.23-.18h.28l-.23.18.09-.29Z" fill="#fff" stroke-width="0"/></g><path id="s-22" d="m7.62,202.06l.09.29-.23-.18h.28l-.23.18.09-.29Z" fill="#fff" stroke-width="0"/></g><g id="d-5"><path id="s-23" d="m7.93,200.11l.09.29-.23-.18h.28l-.23.18.09-.29Z" fill="#fff" stroke-width="0"/><path id="s-24" d="m7.93,200.67l.09.29-.23-.18h.28l-.23.18.09-.29Z" fill="#fff" stroke-width="0"/><path id="s-25" d="m7.93,201.22l.09.29-.23-.18h.28l-.23.18.09-.29Z" fill="#fff" stroke-width="0"/><path id="s-26" d="m7.93,201.78l.09.29-.23-.18h.28l-.23.18.09-.29Z" fill="#fff" stroke-width="0"/></g></g><g id="a-3"><g id="c-3"><g id="d-6"><path id="s-27" d="m8.23,199.83l.09.29-.23-.18h.28l-.23.18.09-.29Z" fill="#fff" stroke-width="0"/><path id="s-28" d="m8.23,200.39l.09.29-.23-.18h.28l-.23.18.09-.29Z" fill="#fff" stroke-width="0"/><path id="s-29" d="m8.23,200.95l.09.29-.23-.18h.28l-.23.18.09-.29Z" fill="#fff" stroke-width="0"/><path id="s-30" d="m8.23,201.5l.09.29-.23-.18h.28l-.23.18.09-.29Z" fill="#fff" stroke-width="0"/></g><path id="s-31" d="m8.23,202.06l.09.29-.23-.18h.28l-.23.18.09-.29Z" fill="#fff" stroke-width="0"/></g><g id="d-7"><path id="s-32" d="m8.54,200.11l.09.29-.23-.18h.28l-.23.18.09-.29Z" fill="#fff" stroke-width="0"/><path id="s-33" d="m8.54,200.67l.09.29-.23-.18h.28l-.23.18.09-.29Z" fill="#fff" stroke-width="0"/><path id="s-34" d="m8.54,201.22l.09.29-.23-.18h.28l-.23.18.09-.29Z" fill="#fff" stroke-width="0"/><path id="s-35" d="m8.54,201.78l.09.29-.23-.18h.28l-.23.18.09-.29Z" fill="#fff" stroke-width="0"/></g></g></g><g id="a-4"><g id="c-4"><g id="d-8"><path id="s-36" d="m8.85,199.83l.09.29-.23-.18h.28l-.23.18.09-.29Z" fill="#fff" stroke-width="0"/><path id="s-37" d="m8.85,200.39l.09.29-.23-.18h.28l-.23.18.09-.29Z" fill="#fff" stroke-width="0"/><path id="s-38" d="m8.85,200.95l.09.29-.23-.18h.28l-.23.18.09-.29Z" fill="#fff" stroke-width="0"/><path id="s-39" d="m8.85,201.5l.09.29-.23-.18h.28l-.23.18.09-.29Z" fill="#fff" stroke-width="0"/></g><path id="s-40" d="m8.85,202.06l.09.29-.23-.18h.28l-.23.18.09-.29Z" fill="#fff" stroke-width="0"/></g><g id="d-9"><path id="s-41" d="m9.15,200.11l.09.29-.23-.18h.28l-.23.18.09-.29Z" fill="#fff" stroke-width="0"/><path id="s-42" d="m9.15,200.67l.09.29-.23-.18h.28l-.23.18.09-.29Z" fill="#fff" stroke-width="0"/><path id="s-43" d="m9.15,201.22l.09.29-.23-.18h.28l-.23.18.09-.29Z" fill="#fff" stroke-width="0"/><path id="s-44" d="m9.15,201.78l.09.29-.23-.18h.28l-.23.18.09-.29Z" fill="#fff" stroke-width="0"/></g></g><g id="c-5"><g id="d-10"><path id="s-45" d="m9.46,199.83l.09.29-.23-.18h.28l-.23.18.09-.29Z" fill="#fff" stroke-width="0"/><path id="s-46" d="m9.46,200.39l.09.29-.23-.18h.28l-.23.18.09-.29Z" fill="#fff" stroke-width="0"/><path id="s-47" d="m9.46,200.95l.09.29-.23-.18h.28l-.23.18.09-.29Z" fill="#fff" stroke-width="0"/><path id="s-48" d="m9.46,201.5l.09.29-.23-.18h.28l-.23.18.09-.29Z" fill="#fff" stroke-width="0"/></g><path id="s-49" d="m9.46,202.06l.09.29-.23-.18h.28l-.23.18.09-.29Z" fill="#fff" stroke-width="0"/></g><path d="m8.03,191.97c.31-.16.62-.33.94-.45-3.67-1.93-3.88-3.38-4.63-4.91.58,1.77,1.07,3.54,3.69,5.36h0Z" fill="#a80126" fill-rule="evenodd" stroke-width="0"/><path d="m6.11,189.07c1.4,1.17,2.61,2,3.51,2.26.89-.47,3.81-.73,3.75-.06-.64-.32-1.02-.17-1.39-.05.18,0,.67-.06.81,0-.06.07-.12.1-.19.14.24.05.46.12.65.23.12-.01.2,0,.24.03-.12.03-.27.19-.34.3.81.02,1.68.02,1.77.87.26-.76-.2-1.16-1.1-1.33-.12-.26-.31-.48-.49-.73-2.45-.14-4.89-.3-7.22-1.65h0Z" fill="#a80126" fill-rule="evenodd" stroke-width="0"/><path d="m4.19,194.98v-1.48h.99c-.04.05-.07.1-.16.14h-.62v.39h.55s-.07.09-.13.11h-.43v.53c-.05.12-.1.23-.21.32h0Z" fill-rule="evenodd" stroke-width="0"/><path d="m6.87,193.66v1.08h.28v-1.02c-.38-.35-.76-.35-1.14,0v1.02h.25v-.6h.2s.08-.05.1-.09h-.29v-.39c.23-.16.41-.16.6,0h0Z" fill-rule="evenodd" stroke-width="0"/><path d="m9.81,194.77h-1.14v-1.25h.29v1.15h1s-.06.09-.15.1h0Z" fill-rule="evenodd" stroke-width="0"/><path d="m11.52,193.51v.25c-.46.62.32,1.37,1.2.82h.07c-.55.6-2.54.1-1.27-1.07h0Z" fill-rule="evenodd" stroke-width="0"/><path d="m10.91,193.54v.45c.44-.79,1.05-1.18,2.91-.66-1.79-.7-2.45-.33-2.91.21Z" fill-rule="evenodd" stroke-width="0"/><path d="m14.39,193.41c-.37,0-.75.26-.75.73,0,.94,1.49.99,1.49,0,0-.5-.37-.73-.75-.73h0Zm0,.1c.22,0,.44.21.45.63,0,.85-.88.83-.88,0,0-.41.22-.63.44-.63h0Z" fill-rule="evenodd" stroke-width="0"/><path d="m16.52,193.66v1.13h-.22v-1.18l.22-.11v.05c.34,0,.58.15.64.24v1.01h-.22v-.99c-.08-.13-.17-.17-.43-.17v.03Z" fill-rule="evenodd" stroke-width="0"/><path d="m10.7,195.66c-2.3.01-1.7,1.85-.43,1.82.59-.02.7-.08,1.1-.5-.25,1.24-1.09,1.24-2.11,1.34-.13.08-.15.1-.24.24,1.72-.03,3.17-.34,3.13-1.68-.03-.94-.66-1.22-1.45-1.21h0Zm-.03.22c.42,0,.76.27.76.6h0c0,.33-.34.6-.76.6-.42,0-.76-.27-.76-.59,0-.33.34-.6.76-.6Z" fill-rule="evenodd" stroke-width="0"/><rect x="1.23" y="137.56" width="18.67" height="15.78" fill="#fff" stroke-width="0"/><rect x="1.42" y="137.6" width="9.41" height="15.72" fill="url(#linear-gradient-3)" isolation="isolate" opacity=".03" stroke-width="0"/><rect x="10.69" y="137.6" width="9.27" height="15.72" fill="url(#linear-gradient-4)" isolation="isolate" opacity=".03" stroke-width="0"/><path d="m20.75,137.44v-.14s.02-.14.02-.14v-.14s-.02-.14-.02-.14l-.12-.45-1.6-5.81-.8-2.9-.27-.97-.8-2.9-.27-.97-.08-.24-.07-.18-.07-.19-.08-.2-.09-.2-.09-.21-.1-.21-.1-.22-.11-.22-.12-.22-.12-.22-.13-.22-.13-.21-.14-.21-.14-.2-.14-.19-.15-.18-.15-.18-.16-.17-.16-.16-.16-.15-.16-.15-.17-.14-.17-.13-.17-.13-.17-.12-.17-.11-.17-.11-.17-.1-.17-.09-.17-.09-.17-.08-.17-.07-.17-.07-.17-.06-.17-.05-.17-.05-.17-.04-.17-.04-.17-.03-.17-.02-.17-.02h-.16s-.16-.01-.16-.01h-.16s-.17.03-.17.03l-.17.02-.17.03-.17.04-.17.04-.17.05-.17.05-.17.06-.17.07-.17.07-.17.08-.17.09-.17.09-.17.1-.17.11-.17.11-.17.12-.17.13-.17.13-.17.14-.16.15-.16.15-.16.16-.16.17-.15.18-.15.18-.14.19-.14.2-.14.21-.13.21-.13.22-.12.22-.12.22-.11.22-.1.22-.1.21-.09.21-.09.2-.08.2-.07.19-.07.18-.08.24-.8,2.9-.27.97-.8,2.9-.27.97-.8,2.9-.27.97-.53,1.94-.12.45-.02.14v.14s0,.14,0,.14v.14" fill="url(#radial-gradient)" stroke-width="0"/><path d="m2.2,138.52s-.05-.08-.15-.14c-.08-.05-.19-.13-.24-.19-.1-.11-.21-.38-.24-.57-.03-.22-.06-.28-.17-.34-.19-.11-.39-.15-.67-.13h-.26s0-.09,0-.09v-.1h20.16v.1s.01.1.01.1h-.26c-.28-.03-.48.01-.67.12-.1.06-.13.11-.17.34-.03.19-.14.46-.24.57-.05.06-.16.14-.24.19-.1.06-.15.11-.15.14,0,.05-.35.05-8.36.05s-8.36,0-8.36-.05h0Z" fill="#ececec" stroke-width="0"/><path d="m19.06,138.31v15.67l.04.91.26-.18.25-.18.23-.18.22-.18.2-.18.19-.18.17-.18.15-.17.13-.16.12-.15.1-.14.08-.13.06-.11.04-.09.02-.38v-13.84l-.02-.53-.05-.07-.05-.06-.06-.06-.06-.06-.07-.06-.07-.05-.07-.05-.08-.04-.08-.04-.08-.03-.09-.03-.09-.02h-.09s-.09-.02-.09-.02h-.09s-.09,0-.09,0h-.09s-.08.03-.08.03l-.08.02-.08.03-.07.03-.02.06v.06s-.02.06-.02.06l-.02.06-.02.06-.03.06-.03.06-.04.06-.04.06-.04.05-.05.05-.05.05-.05.04-.05.04-.06.03-.06.03-.06.03h0Z" fill="url(#linear-gradient-5)" stroke-width="0"/><path d="m2.18,138.31v15.67l-.04.91-.26-.18-.25-.18-.23-.18-.22-.18-.2-.18-.19-.18-.17-.18-.15-.17-.13-.16-.12-.15-.1-.14-.08-.13-.06-.11-.04-.09-.02-.38v-13.84l.02-.53.05-.07.05-.06.06-.06.06-.06.07-.06.07-.05.07-.05.08-.04.08-.04.08-.03.09-.03.09-.02h.09s.09-.02.09-.02h.09s.09,0,.09,0h.09s.08.03.08.03l.08.02.08.03.07.03.02.06v.06s.02.06.02.06l.02.06.02.06.03.06.03.06.04.06.04.06.04.05.05.05.05.05.05.04.05.04.06.03.06.03.06.03h0Z" fill="url(#linear-gradient-6)" stroke-width="0"/><path d="m2.22,153.44h16.88" fill="none" stroke="#000" stroke-width=".4"/><path d="m2.22,138.46h16.88" fill="none" stroke="#000" stroke-width=".4"/><path d="m.56,136.8h20.2" fill="none" stroke="#000" stroke-width=".4"/><path d="m4.41,122.8h12.49" fill="none" stroke="#000" stroke-width=".4"/><path d="m19.1,138.31v15.67l.04.91.26-.18.25-.18.23-.18.22-.18.2-.18.19-.18.17-.18.15-.17.13-.16.12-.15.1-.14.08-.13.06-.11.04-.09.02-.38v-13.84l-.02-.53-.05-.07-.05-.06-.06-.06-.06-.06-.07-.06-.07-.05-.07-.05-.08-.04-.08-.04-.08-.03-.09-.03-.09-.02h-.09s-.09-.02-.09-.02h-.09s-.09,0-.09,0h-.09s-.08.03-.08.03l-.08.02-.08.03-.07.03-.02.06v.06s-.02.06-.02.06l-.02.06-.02.06-.03.06-.03.06-.04.06-.04.06-.04.05-.05.05-.05.05-.05.04-.05.04-.06.03-.06.03-.06.03h0Z" fill="none" stroke="#000" stroke-width=".4"/><path d="m2.22,138.31v15.67l-.04.91-.26-.18-.25-.18-.23-.18-.22-.18-.2-.18-.19-.18-.17-.18-.15-.17-.13-.16-.12-.15-.1-.14-.08-.13-.06-.11-.04-.09-.02-.38v-13.84l.02-.53.05-.07.05-.06.06-.06.06-.06.07-.06.07-.05.07-.05.08-.04.08-.04.08-.03.09-.03.09-.02h.09s.09-.02.09-.02h.09s.09,0,.09,0h.09s.08.03.08.03l.08.02.08.03.07.03.02.06v.06s.02.06.02.06l.02.06.02.06.03.06.03.06.04.06.04.06.04.05.05.05.05.05.05.04.05.04.06.03.06.03.06.03h0Z" fill="none" stroke="#000" stroke-width=".4"/><path d="m20.79,137.44v-.14s.02-.14.02-.14v-.14s-.02-.14-.02-.14l-.12-.45-.8-2.9-.27-.97-.8-2.9-.27-.97-.8-2.9-.27-.97-.53-1.94-.08-.24-.07-.18-.07-.19-.08-.2-.09-.2-.09-.21-.1-.21-.1-.22-.11-.22-.12-.22-.12-.22-.13-.22-.13-.21-.14-.21-.14-.2-.14-.19-.15-.18-.15-.18-.16-.17-.16-.16-.16-.15-.16-.15-.17-.14-.17-.13-.17-.13-.17-.12-.17-.11-.17-.11-.17-.1-.17-.09-.17-.09-.17-.08-.17-.07-.17-.07-.17-.06-.17-.05-.17-.05-.17-.04-.17-.04-.17-.03-.17-.02-.17-.02h-.16s-.16-.01-.16-.01h-.16s-.17.03-.17.03l-.17.02-.17.03-.17.04-.17.04-.17.05-.17.05-.17.06-.17.07-.17.07-.17.08-.17.09-.17.09-.17.1-.17.11-.17.11-.17.12-.17.13-.17.13-.17.14-.16.15-.16.15-.16.16-.16.17-.15.18-.15.18-.14.19-.14.2-.14.21-.13.21-.13.22-.12.22-.12.22-.11.22-.1.22-.1.21-.09.21-.09.2-.08.2-.07.19-.07.18-.08.24-.27.97-.27.97-.8,2.9-1.33,4.84-.27.97-.8,2.9-.12.45-.02.14v.14s0,.14,0,.14v.14" fill="none" stroke="#000" stroke-width=".4"/><path d="m10.01,146.67h.3s-.02-.79-.02-.79c-.37-.25-.67-.25-1.01,0v.78s.3,0,.3,0l-.02-.47h.17s.07-.09.09-.12h-.26s0-.21,0-.21c.2-.13.43,0,.43,0,0,0,0,.6.01.81h0Z" fill-rule="evenodd" stroke-width="0"/><path d="m13.66,145.68c-.29,0-.63.18-.63.52,0,.67,1.25.71,1.25,0,0-.35-.33-.52-.62-.52Zm0,.09c.17,0,.34.13.34.43,0,.58-.68.59-.69,0,0-.29.18-.43.35-.43Z" fill-rule="evenodd" stroke-width="0"/><path d="m15.53,146.69h-.29v-.89c.08-.03.26-.1.29-.1v.03c.4-.02.61.04.73.14v.82s-.29,0-.29,0v-.79c-.1-.09-.14-.1-.45-.08,0,0,0,.6,0,.87Z" fill-rule="evenodd" stroke-width="0"/><path d="m5.19,145.67v1.03h.43c.94,0,.9-1.01,0-1.02h-.42Zm.27.09h.21c.48.03.39.84,0,.85h-.2v-.85Z" fill-rule="evenodd" stroke-width="0"/><path d="m7.58,146.71h-.29s0-1.02,0-1.02c0,0,.38-.02.68,0,0,0,.16,0,.27.06,0,.17,0,.36,0,.36-.01.07-.24.04-.25.07.01.04.26,0,.26.08v.45s-.22,0-.28-.05c0-.13,0-.43,0-.43h-.15s-.1-.09-.11-.12h.26s0-.34,0-.34c-.18-.03-.23-.03-.4,0v.94Z" fill-rule="evenodd" stroke-width="0"/><path d="m11.65,146.13h.51s0,.51,0,.51c-.39.05-.59.07-.96,0v-.92c.33-.08.61-.04.96,0v.2h-.27v-.14c-.16-.06-.25-.05-.42-.01v.83c.17.04.25.04.43,0v-.4h-.21s-.04-.02-.05-.06Z" fill-rule="evenodd" stroke-width="0"/><path d="m11.31,140.88s-.02,0-.02.02c.19.36.26.57.18.62-.13.09-.17-.31-.34-.33-.06,0-.08.08-.13.07-.05-.01-.03-.16-.11-.16-.15,0-.13.12-.33.18-.22.07-.67,0-1.14-.18.01.04.15.1.41.24.25.14.69.38.88.35,0,.03,0,.04-.01.06-.19.02-.36.09-.49.18-.36.26-.65.17-1.12.1.23.12.62.29,1,.21.18-.04.33-.22.45-.17-1.92,1.12-.64,2.64.43,2.44-.75-.37-1.02-1.29-.38-2.04.03.02.08.03.12.04-.03.04-.07.06-.05.1.02.05.06.09.13.1.04,0,.05-.24.11-.28-.03.44.36.59.8.73.17.05.15.15.18.15.02,0,.04.01.06,0,.03-.01-.12-.18-.19-.23-.19-.12-.36-.14-.39-.22-.02-.06.19-.05.27.02.29.24.31.45.53.45.15,0,.14-.26.11-.47-.13-.1-.18-.25-.06-.25-.07-.17-.18-.33-.27-.46-.03-.04.04-.09.03-.14-.02-.08-.06-.08-.08-.2-.05-.28-.07-.52-.58-.95,0,0,0,0,0,0h0Zm-.1,1.41s.04,0,.06.01c.08.03.14.08.17.12.05.06-.09-.07-.19-.09-.02,0-.04,0-.04-.02,0,0-.03-.01-.02-.02,0,0,.01,0,.02,0Zm-.13.03c.06.1.16.16.18.18-.01,0-.12-.04-.15-.08,0-.01-.05-.05-.04-.1Zm.19.05s.03.02.04.02c.04.01.09.08.04.12-.01,0-.05,0-.07-.02-.03-.03-.04-.07-.04-.11,0,0,.01,0,.03,0Z" fill="#00006d" fill-rule="evenodd" stroke-width="0"/><path d="m6.15,147.69l1.03-.09c.49.76,1.35,1.2,2.27,1.19.97-.01,1.3-.13,2.54-.71.83-.39,1.81-.7,2.49-.69.97.01,1.19.61,1.19.99-.01,1.1-.99,1.68-2.08,1.66-.82-.02-1.26-.22-1.49-.44-.03-.03,0-.05.04-.02.2.13.81.36,1.06.04,1.14.17,2.28-.15,2.24-1.23-.02-.53-.29-.79-.88-.77-.88.03-1.96.51-2.34.68-.55.24-1.65.9-2.77.94-1.32.04-2.34-.61-3.29-1.56h0Z" fill="#00006d" fill-rule="evenodd" stroke-width="0"/><path d="m4.25,146.88c-.37-.38-.97-1.33-.96-2.24,0-1.12.85-1.8,2.26-2.24.23-.07.5-.14.73-.17-.05.05-.05.06-.05.08-.31.06-.53.13-.63.16-1.31.41-2.08,1.08-2.08,2.19,0,.48.26,1.22.57,1.7.03.17.07.25.17.51h0Z" fill="#00006d" fill-rule="evenodd" stroke-width="0"/><path d="m17.1,146.73c.08-.2.11-.24.18-.54.37-.68.56-1.14.57-1.65.02-1.54-1.41-2.1-2.71-2.37-.03-.03-.04-.06-.05-.11,1.45.31,2.98.92,3,2.4,0,.99-.57,1.77-.98,2.28h0Z" fill="#00006d" fill-rule="evenodd" stroke-width="0"/><path d="m17.26,145.57c.98-2.13-1.36-3.3-2.6-3.28v.05c.32.05.72.3.74.4-.33-.24-.79-.43-1.16-.33-.32.08-.32.19-.7.36.02.16,0,.28-.05.36-.33.5-.99.77-1.53.74.39.16.97.42,1.02.87.06-.08.12-.13.23-.22.44-.34.78.01,1.08.23-.33-.49-.15-.76.52-.38.25.14.28.2.57.36-.75-1.09-.3-1.16.33-1.15,1.28.03,1.62.96,1.54,2h0Z" fill="#00006d" fill-rule="evenodd" stroke-width="0"/><path d="m10.21,144.53c-.4-.18-.57-.42-.7-.7-1.85.05-1.57-.51-1.48-.69-.34-.08-.75-.29-.99-.37-.24-.08-.4-.1-1.03-.06.43-.07.93-.2,1.63.16.21.11.27.09.49.21-.07.67.72.65,1.36.66l-.03-.17c-.85.09-1.43-.06-1.14-.55-.03-.01-.21,0-.13-.05.02-.01.03-.01.03-.04-.39-.08-.61-.46-1.52-.48-.68-.01-1.45.33-1.81.56-.63.39-1.31,1.22-.7,2.6-.22-.88.57-1.81,2.24-1.97.44-.04.53.09.33.34-.15.2-.37.47-.49.76.62-.4,1.47-.93,1.75.02.21-.39.64-.17,1.26-.11.26.03.6,0,.94-.14h0Z" fill="#00006d" fill-rule="evenodd" stroke-width="0"/><path d="m11.81,143.71l-.21-.11c.81.09,1.6-.19,1.65-.86.04,0,.04,0,.07,0,.03,0,.01-.04-.03-.06s-.09-.04-.05-.06c.44-.11.67-.28,1.03-.34-.27.13-.62.42-.86.39-.03,0-.05,0-.02.02s.08.02.08.05c0,.03-.04.02-.07.05.03.27-.25.56-.6.74-.32.16-.6.19-.98.17h0Z" fill="#00006d" fill-rule="evenodd" stroke-width="0"/><path d="m12.11,145.31c.28-.09.66-.25.66-.54,0-.56-.9-.72-1.56-.97-.29-.11-.47-.16-.73-.42.11.27.24.52.73.73.61.25,1.58.53.91,1.2h0Z" fill="#00006d" fill-rule="evenodd" stroke-width="0"/><path d="m10.47,143.04c.1.04.18.16.3.18.05.23.1.3.08.36-.17-.06-.4-.22-.38-.54Z" fill="#00006d" fill-rule="evenodd" stroke-width="0"/><path d="m10.76,143.13c.03-.08-.02-.23.03-.27.02-.02.19.05.16,0-.22-.06-.29-.15-.33-.25-.05.09-.14.27-.12.36s.16.14.27.17h0Z" fill="#00006d" fill-rule="evenodd" stroke-width="0"/><path d="m7.83,133.41h-1.26l-.05.03v1.12h.35v-.42l.03-.03h.92c.23,0,.34-.06.34-.22v-.26c0-.16-.11-.22-.34-.22m0,.41c0,.08-.05.09-.16.09h-.76l-.04-.04v-.24l.03-.03h.76c.11,0,.16.02.16.09v.12Z" fill="#005288" stroke-width="0"/><polyline points="8.81 133.62 9.11 134.06 9.1 134.11 8.43 134.11 8.26 134.32 9.25 134.32 9.32 134.36 9.47 134.57 9.87 134.57 9 133.4" fill="#005288" stroke-width="0"/><polyline points="12.78 134.34 12.78 134.03 12.82 134 13.49 134 13.49 133.8 12.43 133.8 12.43 134.57 13.99 134.57 13.99 134.37 12.82 134.37" fill="#005288" stroke-width="0"/><rect x="12.43" y="133.41" width="1.58" height=".22" fill="#005288" stroke-width="0"/><path d="m10.67,133.62h1.27c-.02-.16-.12-.21-.37-.21h-.91c-.29,0-.38.06-.38.27v.61c0,.22.09.27.38.27h.91c.26,0,.36-.05.36-.22h-1.26l-.04-.04v-.67" fill="#005288" stroke-width="0"/><path d="m5.68,133.86h-.92l-.03-.03v-.2l.03-.02h1.25l.02-.04c-.04-.11-.15-.16-.36-.16h-.87c-.29,0-.38.06-.38.27v.13c0,.22.09.27.38.27h.92l.03.03v.21l-.02.03h-1.06s-.28,0-.28,0c0,0-.03.02-.03.02.02.15.13.2.37.2h.94c.29,0,.38-.06.38-.27v-.16c0-.22-.09-.27-.38-.27" fill="#005288" stroke-width="0"/><path d="m15,133.41h-.52l-.03.05.58.42c.11-.06.23-.13.36-.19" fill="#005288" stroke-width="0"/><path d="m15.46,134.2l.51.37h.53l.02-.05-.76-.55c-.1.07-.2.15-.3.23" fill="#005288" stroke-width="0"/><path d="m14.92,134.57h-.47l-.04-.06c.32-.31,1.75-1.63,4.85-1.77,0,0-2.61.09-4.34,1.83" fill="#005288" stroke-width="0"/></svg>