<?xml version="1.0" encoding="UTF-8"?><svg id="Layer_1" xmlns="http://www.w3.org/2000/svg" xmlns:xlink="http://www.w3.org/1999/xlink" viewBox="0 0 7.35 86.77"><defs><linearGradient id="linear-gradient" x1="2344.2" y1="-2706.82" x2="2351.3" y2="-2706.82" gradientTransform="translate(-531.78 -705.56) scale(.23 -.28)" gradientUnits="userSpaceOnUse"><stop offset="0" stop-color="#000"/><stop offset="1" stop-color="#000" stop-opacity="0"/></linearGradient><linearGradient id="linear-gradient-2" x1="-2803.72" y1="-2707.82" x2="-2796.62" y2="-2707.82" gradientTransform="translate(-622.66 -705.63) rotate(-180) scale(.22 .28)" xlink:href="#linear-gradient"/></defs><rect x=".18" y="15.78" width="6.88" height="59.55" fill="#f7f7f7" stroke-width="0"/><rect x=".4" y="15.96" width="3.3" height="59.19" fill="#fff" isolation="isolate" opacity=".03" stroke-width="0"/><rect x="3.65" y="15.95" width="3.25" height="59.17" fill="#fff" isolation="isolate" opacity=".03" stroke-width="0"/><rect x=".2" y="22.61" width="6.89" height="13.1" fill="#4d4d4d" stroke-width="0"/><path d="m.2,15.81h6.88" fill="none" stroke="#000" stroke-width=".32"/><path d="m.2,35.7h6.88" fill="none" stroke="#000" stroke-width=".32"/><path d="m.2,22.59h6.88" fill="none" stroke="#000" stroke-width=".32"/><path d="m3.64.24v13.75" fill="none" stroke="#000" stroke-width=".32"/><path d="m5.64,86.5H1.67l.1-.56.16-.61.18-.6.21-.6.24-.59.26-.57.08-.28-.06-.08-.05-.08-.05-.09-.05-.09-.05-.09-.04-.09-.04-.1-.04-.1-.04-.1-.03-.11-.03-.11-.03-.11-.03-.11-.03-.12-.02-.12-.02-.12-.02-.13-.02-.13v-.13s-.02-.14-.02-.14v-.14s.05-.07.05-.07h2.72l.07.06v.14s-.02.14-.02.14v.13s-.03.13-.03.13l-.02.13-.02.12-.02.12-.02.12-.03.12-.03.11-.03.11-.03.11-.04.1-.04.1-.04.1-.04.09-.05.09-.05.09-.05.09-.05.08-.06.08.05.24.27.57.24.58.21.6.19.6.16.61.13.62h0Z" fill="#333" stroke="#000" stroke-width=".32"/><path d="m.6,14h6.07v-6.24l-.61-2.99L4.26.66c-.14-.34-.53-.51-.87-.37-.17.07-.3.2-.37.37l-1.81,4.11-.61,2.99v6.24Z" fill="none" stroke="#000" stroke-width=".32"/><path d="m6.68,14l.4,1.82v59.46l-2.75,2.42c-.42.29-.97.29-1.39,0l-2.75-2.42V15.82l.4-1.82" fill="none" stroke="#000" stroke-width=".32"/><path d="m7.08,75.29H.2" fill="none" stroke="#000" stroke-width=".32"/><path d="m3.64,77.89v2.38" fill="none" stroke="#000" stroke-width=".32"/><path d="m.2,75.29l2.07,5.01" fill="none" stroke="#000" stroke-width=".32"/><path d="m7.08,75.29l-2.07,5.01" fill="none" stroke="#000" stroke-width=".32"/><path d="m3.82,7.15c0-3.67.02-6.67.04-6.67.14,0,.32.37,1.14,2.21l.92,2.07.3,1.42.3,1.42v6.22s-2.69,0-2.69,0v-6.67h0Z" fill="#f2f2f2" stroke-width="0"/><path d="m.77,10.78v-3.07l.59-2.89.91-2.08c.5-1.14.94-2.11.97-2.14.06-.06.17-.13.22-.13.02,0,.03,2.03.03,6.69v6.69H.77v-3.07h0Z" fill="#f2f2f2" stroke-width="0"/><path d="m.41,15.62s.07-.36.16-.75l.16-.71h5.82s.01.04.01.04c.05.21.32,1.43.32,1.44,0,.01-1.46.02-3.24.02-3.06,0-3.24,0-3.23-.04h0Z" fill="#f2f2f2" stroke-width="0"/><path d="m3.25,77.81c-.22-.08-.2-.07-1.55-1.29l-1.27-1.15h1.59c.88-.02,2.3-.02,3.17-.01h1.58s-1.29,1.19-1.29,1.19c-.89.81-1.35,1.2-1.47,1.25-.21.08-.57.09-.77.02h0Z" fill="#efefef" stroke-width="0"/><rect x=".34" y="15.96" width="3.33" height="59.18" fill="url(#linear-gradient)" isolation="isolate" opacity=".03" stroke-width="0"/><rect x="3.62" y="15.95" width="3.28" height="59.16" fill="url(#linear-gradient-2)" isolation="isolate" opacity=".03" stroke-width="0"/><path d="m4.04,48.13h-1.62l-.06.04v1.44h.45v-.54l.04-.04h1.19c.3,0,.44-.08.44-.29v-.33c0-.21-.14-.29-.44-.29m0,.53c0,.1-.06.12-.21.12h-.98l-.05-.05v-.31l.04-.04h.98c.14,0,.21.02.21.12v.16h0Z" fill="#005288" stroke-width="0"/><polyline points="3.1 51.41 3.49 51.97 3.46 52.03 2.61 52.03 2.39 52.3 3.66 52.3 3.75 52.35 3.95 52.62 4.46 52.62 3.34 51.12" fill="#005288" stroke-width="0"/><polyline points="2.86 58.93 2.86 58.53 2.91 58.49 3.77 58.49 3.77 58.23 2.41 58.23 2.41 59.22 4.42 59.22 4.42 58.97 2.91 58.97" fill="#005288" stroke-width="0"/><rect x="2.41" y="57.73" width="2.03" height=".28" fill="#005288" stroke-width="0"/><path d="m2.85,54.63h1.64c-.03-.21-.15-.27-.48-.27h-1.17c-.37,0-.49.07-.49.35v.78c0,.28.12.35.49.35h1.17c.33,0,.46-.06.47-.28h-1.62l-.05-.05v-.87" fill="#005288" stroke-width="0"/><path d="m4.02,45.28h-1.19l-.04-.04v-.25l.03-.03h1.6l.02-.05c-.05-.14-.2-.21-.46-.21h-1.11c-.37,0-.49.07-.49.35v.16c0,.28.12.35.49.35h1.19l.04.03v.27l-.03.04h-1.36s-.36,0-.36,0c0,0-.04.02-.04.03.03.2.16.25.48.25h1.21c.37,0,.49-.07.49-.35v-.2c0-.28-.12-.35-.49-.35" fill="#005288" stroke-width="0"/><path d="m2.88,61.18h-.67l-.04.07.74.54c.14-.08.29-.16.46-.25" fill="#005288" stroke-width="0"/><path d="m3.47,62.2l.65.48h.68l.03-.06-.97-.71c-.13.09-.26.2-.38.3" fill="#005288" stroke-width="0"/><path d="m2.78,62.67h-.6l-.05-.08c.41-.4,2.29-1.89,4.73-2.08,0,0-2.14.24-4.08,2.16" fill="#005288" stroke-width="0"/></svg>