<?xml version="1.0" encoding="UTF-8"?><svg id="Layer_1" xmlns="http://www.w3.org/2000/svg" xmlns:xlink="http://www.w3.org/1999/xlink" viewBox="0 0 53.85 301.91"><defs><linearGradient id="linear-gradient" x1="-233.4" y1="-842.92" x2="-226.31" y2="-842.92" gradientTransform="translate(125.18 -461.55) scale(.52 -.79)" gradientUnits="userSpaceOnUse"><stop offset="0" stop-color="#000"/><stop offset="1" stop-color="#000" stop-opacity="0"/></linearGradient><linearGradient id="linear-gradient-2" x1="-713.88" y1="-843.36" x2="-706.78" y2="-843.36" gradientTransform="translate(-348.23 -461.76) rotate(-180) scale(.51 .79)" gradientUnits="userSpaceOnUse"><stop offset="0" stop-color="#000"/><stop offset="1" stop-color="#000" stop-opacity="0"/></linearGradient><linearGradient id="linear-gradient-3" x1="-247.74" y1="-844.92" x2="-240.64" y2="-844.92" gradientTransform="translate(166.41 -461.97) scale(.51 -.79)" gradientUnits="userSpaceOnUse"><stop offset="0" stop-color="#000"/><stop offset="1" stop-color="#000" stop-opacity="0"/></linearGradient><linearGradient id="linear-gradient-4" x1="-699.33" y1="-845.36" x2="-692.23" y2="-845.36" gradientTransform="translate(-304.59 -462.18) rotate(-180) scale(.51 .79)" gradientUnits="userSpaceOnUse"><stop offset="0" stop-color="#000"/><stop offset="1" stop-color="#000" stop-opacity="0"/></linearGradient><linearGradient id="linear-gradient-5" x1="-239.69" y1="-444.38" x2="-232.59" y2="-444.38" gradientTransform="translate(144.94 -316.28) scale(.51 -1.1)" gradientUnits="userSpaceOnUse"><stop offset="0" stop-color="#000"/><stop offset="1" stop-color="#000" stop-opacity="0"/></linearGradient><linearGradient id="linear-gradient-6" x1="-707.49" y1="-444.69" x2="-700.4" y2="-444.69" gradientTransform="translate(-325.5 -316.56) rotate(-180) scale(.51 1.1)" gradientUnits="userSpaceOnUse"><stop offset="0" stop-color="#000"/><stop offset="1" stop-color="#000" stop-opacity="0"/></linearGradient><radialGradient id="radial-gradient" cx="-788.93" cy="-73.57" fx="-788.93" fy="-73.57" r="7.53" gradientTransform="translate(-32.97 -1751.79) rotate(-90) scale(2.38 -1.05)" gradientUnits="userSpaceOnUse"><stop offset="0" stop-color="#fff"/><stop offset="1" stop-color="#f9f9f9"/></radialGradient><radialGradient id="radial-gradient-2" cx="-787" cy="-81.16" fx="-787" fy="-81.16" r="7.53" gradientTransform="translate(-75.47 -1754.63) rotate(-90) scale(2.39 -1.05)" gradientUnits="userSpaceOnUse"><stop offset="0" stop-color="#fff"/><stop offset="1" stop-color="#f9f9f9"/></radialGradient><linearGradient id="linear-gradient-7" x1="-534.48" y1="-486.74" x2="-523.02" y2="-486.74" gradientTransform="translate(548.15 -461.06) scale(1 -1)" gradientUnits="userSpaceOnUse"><stop offset="0" stop-color="#e6e6e6"/><stop offset="1" stop-color="#f9f9f9"/></linearGradient><linearGradient id="linear-gradient-8" x1="-534.48" y1="-514.94" x2="-523.02" y2="-514.94" gradientTransform="translate(548.15 -461.06) scale(1 -1)" gradientUnits="userSpaceOnUse"><stop offset="0" stop-color="#e6e6e6"/><stop offset="1" stop-color="#f9f9f9"/></linearGradient><linearGradient id="linear-gradient-9" x1="-773.22" y1="-486.74" x2="-759.03" y2="-486.74" gradientTransform="translate(-732.33 -461.06) rotate(-180)" gradientUnits="userSpaceOnUse"><stop offset="0" stop-color="#e6e6e6"/><stop offset="1" stop-color="#f9f9f9"/></linearGradient><linearGradient id="linear-gradient-10" x1="-773.22" y1="-514.94" x2="-759.03" y2="-514.94" gradientTransform="translate(-732.33 -461.06) rotate(-180)" gradientUnits="userSpaceOnUse"><stop offset="0" stop-color="#e6e6e6"/><stop offset="1" stop-color="#f9f9f9"/></linearGradient></defs><rect x="2.13" y="122.88" width="15.16" height="169.67" fill="#fff" stroke-width="0"/><rect x="2.23" y="123.1" width="7.56" height="169.36" fill="url(#linear-gradient)" isolation="isolate" opacity=".03" stroke-width="0"/><rect x="9.68" y="123.07" width="7.45" height="169.3" fill="url(#linear-gradient-2)" isolation="isolate" opacity=".03" stroke-width="0"/><rect x="36.57" y="123.21" width="15.16" height="169.43" fill="#fff" stroke-width="0"/><rect x="36.73" y="123.43" width="7.52" height="169.11" fill="url(#linear-gradient-3)" isolation="isolate" opacity=".03" stroke-width="0"/><rect x="44.14" y="123.39" width="7.41" height="169.06" fill="url(#linear-gradient-4)" isolation="isolate" opacity=".03" stroke-width="0"/><rect x="19.35" y="56.68" width="15.16" height="235.93" fill="#fff" stroke-width="0"/><rect x="19.53" y="56.84" width="7.51" height="235.62" fill="url(#linear-gradient-5)" isolation="isolate" opacity=".03" stroke-width="0"/><rect x="26.93" y="56.8" width="7.4" height="235.54" fill="url(#linear-gradient-6)" isolation="isolate" opacity=".03" stroke-width="0"/><path d="m34.58,293.43v-.4h.15c.11,0,.17.02.22.05.09.06.16.06.29,0,.15-.06.46-.06.6,0,.06.03.13.05.17.05s.09-.02.13-.05c.05-.03.11-.05.22-.05h.15v.81h-1.92v-.4Z" fill="#101010" stroke-width="0"/><path d="m2.78,296.51s-.04-.1-.04-.12v-.04s2.76,0,2.76,0v.07s.02.09.01.12l-.02.05h-2.68l-.03-.08h0Z" fill="#f7f7f7" stroke-width="0"/><path d="m5.87,296.51s-.04-.1-.04-.12v-.04s1.41,0,1.41,0c1.23,0,1.41,0,1.41.02,0,.01-.02.07-.04.13l-.04.1h-2.67l-.03-.08h0Z" fill="#f7f7f7" stroke-width="0"/><path d="m8.89,296.67s.02-.07.04-.12c.02-.05.04-.12.05-.14l.02-.04,1.41.02v.04c.04.09.08.21.09.24.01.03-.03.03-.8.03-.64,0-.81,0-.8-.02h0Z" fill="#f7f7f7" stroke-width="0"/><path d="m10.77,296.51s-.04-.11-.04-.13v-.04l2.83.02v.04s-.03.08-.05.12l-.03.08h-2.67l-.04-.09h0Z" fill="#f7f7f7" stroke-width="0"/><path d="m13.87,296.59s-.01-.07,0-.12l.02-.08h2.76v.04s-.03.08-.05.12l-.03.08h-2.68l-.02-.04h0Z" fill="#f7f7f7" stroke-width="0"/><path d="m20.02,296.51c-.08-.21-.15-.19,1.34-.19h1.38l.02.09c.05.19.05.19-1.38.19h-1.32l-.03-.09h0Z" fill="#f7f7f7" stroke-width="0"/><path d="m23.24,296.59c-.11-.01-.19-.1-.19-.23,0-.02.56-.03,1.42-.03,1.34,0,1.42,0,1.42.06,0,.04-.02.09-.04.13-.04.05-.17.06-1.26.07-.67,0-1.27,0-1.34,0h0Z" fill="#f7f7f7" stroke-width="0"/><path d="m26.14,296.67s.02-.09.04-.16l.04-.13h1.42l.11.32h-.8c-.44,0-.8-.01-.8-.03h0Z" fill="#f7f7f7" stroke-width="0"/><path d="m28.33,296.59c-.28-.01-.36-.05-.36-.19,0-.06.07-.06,1.42-.06s1.42,0,1.42.06c0,.04-.02.1-.05.13-.05.07-.1.07-1.1.07-.58,0-1.17,0-1.32,0h0Z" fill="#f7f7f7" stroke-width="0"/><path d="m31.23,296.59c-.11-.02-.13-.03-.13-.13v-.11h1.39c1.49-.02,1.44-.03,1.34.16l-.05.09h-1.22c-.67,0-1.28,0-1.34-.02h0Z" fill="#f7f7f7" stroke-width="0"/><path d="m19.36,292.61l15.08.03v2.66s-.56,1.42-.56,1.42l-13.94-.04-.57-1.42v-2.64Z" fill="#101010" stroke-width="0"/><path d="m37.26,296.51c-.08-.2-.15-.19,1.34-.19,1.37,0,1.38,0,1.4.08.03.11,0,.18-.11.18-.05,0-.66,0-1.34.01h-1.25s-.03-.08-.03-.08h0Z" fill="#f7f7f7" stroke-width="0"/><path d="m40.49,296.59c-.13-.01-.17-.07-.17-.21,0-.03.31-.04,1.42-.04.87,0,1.42.01,1.42.03,0,.02-.02.08-.04.13-.04.09-.06.09-.31.09-.15,0-.7,0-1.22,0-.52,0-1.01,0-1.08,0h0Z" fill="#f7f7f7" stroke-width="0"/><path d="m43.38,296.59s.03-.11.04-.16l.02-.1h1.45l.02.1c.01.05.03.13.04.16.02.06-.03.06-.79.06s-.81,0-.79-.06h0Z" fill="#f7f7f7" stroke-width="0"/><path d="m45.56,296.59c-.29-.01-.29-.01-.33-.12-.02-.06-.04-.12-.04-.12,0,0,.65-.01,1.44-.01s1.44,0,1.44.01c0,0-.02.06-.04.13-.03.1-.06.11-.17.12-.22.01-1.98.01-2.29,0h0Z" fill="#f7f7f7" stroke-width="0"/><path d="m48.48,296.59c-.13-.01-.16-.05-.13-.17l.02-.09h2.79l-.03.11c-.02.06-.04.12-.05.13-.02.02-2.39.03-2.58,0h0Z" fill="#f7f7f7" stroke-width="0"/><path d="m36.64,292.61l15.08.03v2.66s-.56,1.42-.56,1.42l-13.94-.04-.57-1.42v-2.64Z" fill="#101010" stroke-width="0"/><path d="m17.25,293.34v-.38h.18c.1,0,.22.02.26.04.06.03.11.03.23,0,.15-.04.45-.03.79.01.1.01.15,0,.15-.01,0-.02.08-.03.2-.03h.2v.75h-2.02v-.38h0Z" fill="#101010" stroke-width="0"/><path d="m2.12,292.69l15.08.03v2.66s-.56,1.42-.56,1.42l-13.94-.04-.57-1.42v-2.64Z" fill="#101010" stroke-width="0"/><path d="m36.64,122.96c0-.13.06-.93.13-1.78.48-5.73.61-7.78,2.12-10.87,1.5-3.07,3.29-4.77,4.63-5.24,1.45-.5,3.27.58,5.02,3.62.86,1.49,1.78,3.41,2.2,4.73.38,1.21.57,3.18.81,5.41.11.99.16,3.97.16,4.23v.14h-15.06v-.24Z" fill="url(#radial-gradient)" stroke-width="0"/><path d="m2.13,122.96c0-.13-.08-.97-.01-1.83.48-5.75.77-7.73,2.28-10.84,1.5-3.08,3.28-4.84,4.62-5.3,1.45-.5,3.34.67,5.09,3.72.86,1.5,1.68,3.39,2.1,4.71.38,1.22.61,3.09.85,5.33.11,1,.15,4.04.15,4.3v.14H2.13v-.24Z" fill="url(#radial-gradient-2)" stroke-width="0"/><path d="m16.54,49.54c-.05-.81-.07-8-.04-15.97.06-15.76.05-15.56.91-19.59.98-4.6,2.86-8.21,6.04-11.62,1.26-1.35,2.26-2.02,3.03-2.02h.32s0,50.67,0,50.67h-10.16l-.1-1.47h0Z" fill="url(#linear-gradient-7)" stroke-width="0"/><path d="m19.37,56.29c-.08-.1-.61-1.05-1.19-2.12-.58-1.07-1.17-2.15-1.33-2.4l-.28-.47h10.21v5.17h-3.64c-2.74,0-3.68-.04-3.78-.18h0Z" fill="url(#linear-gradient-8)" stroke-width="0"/><path d="m37.31,49.54c.05-.81.07-8,.04-15.97-.06-15.76-.05-15.56-.91-19.59-.98-4.6-2.86-8.21-6.04-11.62-1.26-1.35-2.26-2.02-3.03-2.02h-.32s0,50.67,0,50.67h10.16l.1-1.47h0Z" fill="url(#linear-gradient-9)" stroke-width="0"/><path d="m34.48,56.29c.08-.1.61-1.05,1.19-2.12.58-1.07,1.17-2.15,1.33-2.4l.28-.47h-10.21v5.17h3.64c2.74,0,3.68-.04,3.78-.18h0Z" fill="url(#linear-gradient-10)" stroke-width="0"/><path d="m40.01,298.93c-.16-.39-.37-.84-.58-1.25l-.08-.16.03-.06c.06-.11.19-.34.28-.48l.03-.05h.16c.09,0,.27,0,.4,0h.24l.03.05c.07.12.25.43.29.51v.03s-.03.08-.03.08c-.23.43-.46.93-.64,1.38l-.03.08h-.05l-.05-.13h0Z" fill="#333" stroke-width="0"/><path d="m48.11,298.76c-.16-.39-.37-.84-.58-1.25l-.08-.16.03-.06c.06-.11.19-.34.28-.48l.03-.05h.16c.09,0,.27,0,.4,0h.24l.03.05c.07.12.25.43.29.51v.03s-.03.08-.03.08c-.23.43-.46.93-.64,1.38l-.03.08h-.05l-.05-.13h0Z" fill="#333" stroke-width="0"/><path d="m43.25,298.35c.07-.13.19-.36.27-.51l.15-.27-.18-.32-.18-.32h-.31c-.27,0-.31,0-.31-.03,0-.03-.03-.03-.13-.03-.13,0-.14.01-.18.08l-.04.08.23.44c.13.24.3.59.38.77.08.18.16.33.16.33,0,0,.07-.1.13-.23h0Z" fill="#333" stroke-width="0"/><path d="m45.13,298.35c-.07-.13-.19-.36-.27-.51l-.15-.27.18-.32.18-.32h.31c.27,0,.31,0,.31-.03,0-.03.03-.03.13-.03.13,0,.14.01.18.08l.04.08-.23.44c-.13.24-.3.59-.38.77-.08.18-.16.33-.16.33,0,0-.07-.1-.13-.23h0Z" fill="#333" stroke-width="0"/><path d="m42.23,301.8s.07-.31.08-.35c.14-1.84.29-1.46.88-2.58,0-.06.4-.86.62-1.25l.11-.2v-.51h.55v.52l.12.21c.12.22.47.89.55,1.07l.05.1c.73,1.97.18.24.93,2.78.02.09.03.17.03.18,0,.03,0,.03-1.96.03-1.08,0-1.96,0-1.96,0h0Z" fill="#333" stroke-width="0"/><path d="m22.77,298.87c-.16-.39-.37-.84-.58-1.24l-.08-.16.03-.06c.06-.11.19-.34.27-.47l.03-.05h.16c.09,0,.27,0,.4,0h.24l.03.05c.07.11.25.42.29.5v.03s-.03.08-.03.08c-.23.43-.45.92-.64,1.37l-.03.08h-.05l-.05-.13h0Z" fill="#333" stroke-width="0"/><path d="m30.85,298.7c-.16-.39-.37-.84-.58-1.24l-.08-.16.03-.06c.06-.11.19-.34.27-.47l.03-.05h.16c.09,0,.27,0,.4,0h.24l.03.05c.07.11.25.42.29.5v.03s-.03.08-.03.08c-.23.43-.45.92-.64,1.37l-.03.08h-.05l-.05-.13h0Z" fill="#333" stroke-width="0"/><path d="m26.01,298.3c.07-.13.19-.35.27-.5l.15-.27-.18-.31-.18-.31h-.31c-.26,0-.31,0-.31-.03,0-.03-.03-.03-.13-.03-.13,0-.14.01-.18.08l-.04.08.23.44c.13.24.3.59.38.77.08.18.16.33.16.33,0,0,.07-.1.13-.23h0Z" fill="#333" stroke-width="0"/><path d="m27.88,298.3c-.07-.13-.19-.35-.27-.5l-.15-.27.18-.31.18-.31h.31c.26,0,.31,0,.31-.03,0-.03.03-.03.13-.03.13,0,.14.01.18.08l.04.08-.23.44c-.13.24-.3.59-.38.77-.08.18-.16.33-.16.33,0,0-.07-.1-.13-.23h0Z" fill="#333" stroke-width="0"/><path d="m24.99,301.71s.07-.31.08-.34c.14-1.83.29-1.45.88-2.56,0-.06.4-.85.62-1.24l.11-.2v-.51h.55v.52l.12.21c.12.22.47.88.55,1.06l.05.1c.73,1.95.18.24.93,2.76.02.08.03.17.03.18,0,.03,0,.03-1.96.03-1.08,0-1.96,0-1.96,0h0Z" fill="#333" stroke-width="0"/><path d="m5.51,298.87c-.16-.39-.37-.84-.58-1.24l-.08-.16.03-.06c.06-.11.19-.34.28-.47l.03-.05h.16c.09,0,.27,0,.4,0h.24l.03.05c.07.11.25.42.29.5v.03s-.03.08-.03.08c-.23.43-.46.92-.64,1.37l-.03.08h-.05l-.05-.13h0Z" fill="#333" stroke-width="0"/><path d="m13.64,298.7c-.16-.39-.37-.84-.58-1.24l-.08-.16.03-.06c.06-.11.19-.34.28-.47l.03-.05h.16c.09,0,.27,0,.4,0h.24l.03.05c.07.11.25.42.29.5v.03s-.03.08-.03.08c-.23.43-.46.92-.64,1.37l-.03.08h-.05l-.05-.13h0Z" fill="#333" stroke-width="0"/><path d="m8.77,298.3c.07-.13.19-.35.27-.5l.15-.27-.18-.31-.18-.31h-.31c-.27,0-.31,0-.31-.03,0-.03-.03-.03-.13-.03-.13,0-.14.01-.18.08l-.04.08.23.44c.13.24.3.59.38.77.08.18.16.33.16.33,0,0,.07-.1.13-.23h0Z" fill="#333" stroke-width="0"/><path d="m10.65,298.3c-.07-.13-.19-.35-.27-.5l-.15-.27.18-.31.18-.31h.31c.27,0,.31,0,.31-.03,0-.03.03-.03.13-.03.13,0,.14.01.18.08l.04.08-.23.44c-.13.24-.3.59-.38.77-.08.18-.16.33-.16.33,0,0-.07-.1-.13-.23h0Z" fill="#333" stroke-width="0"/><path d="m7.74,301.71s.07-.31.08-.34c.14-1.83.29-1.45.88-2.56,0-.06.4-.85.62-1.24l.11-.2v-.51h.56v.52l.12.21c.12.22.47.88.55,1.06l.05.1c.73,1.95.18.24.93,2.76.02.08.03.17.03.18,0,.03,0,.03-1.97.03-1.08,0-1.97,0-1.97,0h0Z" fill="#333" stroke-width="0"/><path d="m19.36,56.59h15.14" fill="none" stroke="#000" stroke-width=".32"/><path d="m2.12,123.24h15.14" fill="none" stroke="#000" stroke-width=".32"/><path d="m19.36,292.61h15.14" fill="none" stroke="#000" stroke-width=".32"/><path d="m19.36,94.26h15.14" fill="none" stroke="#000" stroke-width=".32"/><path d="m2.12,292.61h15.14" fill="none" stroke="#000" stroke-width=".32"/><path d="m51.74,123.24h-15.14" fill="none" stroke="#000" stroke-width=".32"/><path d="m36.61,123.24h15.14" fill="none" stroke="#000" stroke-width=".32"/><path d="m36.61,292.61h15.14" fill="none" stroke="#000" stroke-width=".32"/><path d="m16.41,51.17h21.05" fill="none" stroke="#000" stroke-width=".32"/><path d="m19.36,56.59l-.63-1.16-.63-1.16-1.26-2.32-.32-.58-.11-2.33v-28.61s.05-.43.05-.43l.04-.43.04-.43.04-.43.05-.43.05-.43.05-.43.05-.43.06-.43.06-.43.07-.43.07-.43.08-.43.08-.43.09-.43.09-.43.1-.42.11-.42.11-.42.12-.42.12-.42.13-.41.14-.41.15-.41.15-.4.16-.4.17-.39.18-.39.18-.39.19-.38.2-.38.21-.37.21-.37.22-.37.23-.36.23-.36.24-.36.25-.35.26-.35.26-.35.27-.35.28-.35.28-.34.29-.34.3-.34.3-.34.31-.33.32-.32.33-.3.35-.27.36-.24.38-.2.4-.15.42-.1.44-.05h.46s.44.05.44.05l.42.1.4.15.38.2.36.24.35.27.33.3.32.32.31.33.3.34.3.34.29.34.28.34.28.35.27.35.26.35.26.35.25.35.24.36.23.36.23.36.22.37.21.37.21.37.2.38.19.38.18.39.18.39.17.39.16.4.15.4.15.41.14.41.13.41.13.42.12.42.11.42.11.42.1.42.09.43.09.43.08.43.08.43.07.43.07.43.06.43.06.43.05.43.05.43.04.43.04.43.04.43.04.43.04.43.04.43v2.43s.01,26.18.01,26.18l-.11,2.33-.63,1.16-1.58,2.9-.63,1.16" fill="none" stroke="#000" stroke-width=".32"/><path d="m29.8,296.75h-.83" fill="none" stroke="#000" stroke-width=".32"/><path d="m20.95,301.06h3.99" fill="none" stroke="#000" stroke-width=".32"/><path d="m22.52,296.75h.83" fill="none" stroke="#000" stroke-width=".32"/><path d="m23.71,297.4c-.11-.23-.23-.45-.36-.67" fill="none" stroke="#000" stroke-width=".32"/><path d="m22.52,296.75c-.13.22-.24.44-.36.67" fill="none" stroke="#000" stroke-width=".32"/><path d="m25.27,296.75h.62" fill="none" stroke="#000" stroke-width=".32"/><path d="m26.49,297.49c-.11-.23-.24-.46-.36-.69" fill="none" stroke="#000" stroke-width=".32"/><path d="m25.27,296.75c-.06.11-.13.23-.19.34" fill="none" stroke="#000" stroke-width=".32"/><path d="m32.92,301.06h-3.99" fill="none" stroke="#000" stroke-width=".32"/><path d="m31.34,296.75h-.83" fill="none" stroke="#000" stroke-width=".32"/><path d="m30.51,296.75c-.13.22-.24.44-.36.67" fill="none" stroke="#000" stroke-width=".32"/><path d="m31.7,297.4c-.11-.23-.23-.45-.36-.67" fill="none" stroke="#000" stroke-width=".32"/><path d="m28.59,296.75h-.62" fill="none" stroke="#000" stroke-width=".32"/><path d="m22.89,296.19c0,.2.05.4.18.56" fill="none" stroke="#000" stroke-width=".32"/><path d="m25.89,296.75c.12-.16.18-.36.18-.56" fill="none" stroke="#000" stroke-width=".32"/><path d="m23.06,296.75h2.82" fill="none" stroke="#000" stroke-width=".32"/><path d="m27.8,296.19c0,.2.05.4.18.56" fill="none" stroke="#000" stroke-width=".32"/><path d="m30.79,296.75c.12-.16.18-.36.18-.56" fill="none" stroke="#000" stroke-width=".32"/><path d="m27.98,296.75h2.82" fill="none" stroke="#000" stroke-width=".32"/><path d="m26.13,296.84h1.6" fill="none" stroke="#000" stroke-width=".32"/><path d="m25.48,296.75s.03.04.04.06" fill="none" stroke="#000" stroke-width=".32"/><path d="m28.34,296.84s.03-.04.04-.06" fill="none" stroke="#000" stroke-width=".32"/><path d="m25.52,296.84h2.82" fill="none" stroke="#000" stroke-width=".32"/><path d="m27.77,296.84c-.13.23-.25.46-.36.69" fill="none" stroke="#000" stroke-width=".32"/><path d="m27.77,296.84c-.13.23-.25.46-.36.69" fill="none" stroke="#000" stroke-width=".32"/><path d="m28.81,297.08c-.05-.1-.11-.2-.17-.31" fill="none" stroke="#000" stroke-width=".32"/><path d="m34.51,56.51v195.58" fill="none" stroke="#000" stroke-width=".32"/><path d="m25.1,301.06c-.05.22-.1.45-.14.67h3.99c-.04-.23-.09-.45-.14-.67" fill="none" stroke="#000" stroke-width=".32"/><path d="m25.85,298.87c.2-.47.43-.94.69-1.39v-.61" fill="none" stroke="#000" stroke-width=".32"/><path d="m27.37,296.84v.61c.25.43.47.88.67,1.34" fill="none" stroke="#000" stroke-width=".32"/><path d="m22.93,299.35c-.29-.89-.67-1.74-1.13-2.55h-.83c-.76,1.34-1.3,2.8-1.58,4.32h3.99" fill="#333" stroke="#000" stroke-width=".32"/><path d="m19.81,296.19c0,.2.05.4.18.56h2.82c.06-.07.1-.15.13-.24" fill="none" stroke="#000" stroke-width=".32"/><path d="m30.92,296.51c.03.09.07.17.13.24h2.82c.12-.16.18-.36.18-.56" fill="none" stroke="#000" stroke-width=".32"/><path d="m30.48,301.06h3.99c-.28-1.52-.82-2.98-1.58-4.32h-.83c-.46.81-.84,1.67-1.13,2.55" fill="#333" stroke="#000" stroke-width=".32"/><path d="m29.8,296.75c.76,1.34,1.3,2.8,1.58,4.32h-3.99c.28-1.52.82-2.98,1.58-4.32" fill="#333" stroke="#000" stroke-width=".32"/><path d="m24.06,296.75c-.76,1.34-1.3,2.8-1.58,4.32h3.99c-.28-1.52-.82-2.98-1.58-4.32h-.83Z" fill="#333" stroke="#000" stroke-width=".32"/><path d="m12.56,296.75h-.83" fill="none" stroke="#000" stroke-width=".32"/><path d="m3.7,301.06h3.99" fill="none" stroke="#000" stroke-width=".32"/><path d="m5.28,296.75h.83" fill="none" stroke="#000" stroke-width=".32"/><path d="m6.47,297.4c-.11-.23-.23-.45-.36-.67" fill="none" stroke="#000" stroke-width=".32"/><path d="m5.28,296.75c-.13.22-.24.44-.36.67" fill="none" stroke="#000" stroke-width=".32"/><path d="m8.03,296.75h.62" fill="none" stroke="#000" stroke-width=".32"/><path d="m9.25,297.49c-.11-.23-.24-.46-.36-.69" fill="none" stroke="#000" stroke-width=".32"/><path d="m8.03,296.75c-.06.11-.13.23-.19.34" fill="none" stroke="#000" stroke-width=".32"/><path d="m15.68,301.06h-3.99" fill="none" stroke="#000" stroke-width=".32"/><path d="m14.1,296.75h-.83" fill="none" stroke="#000" stroke-width=".32"/><path d="m13.27,296.75c-.13.22-.24.44-.36.67" fill="none" stroke="#000" stroke-width=".32"/><path d="m14.46,297.4c-.11-.23-.23-.45-.36-.67" fill="none" stroke="#000" stroke-width=".32"/><path d="m11.36,296.75h-.62" fill="none" stroke="#000" stroke-width=".32"/><path d="m5.65,296.19c0,.2.05.4.18.56" fill="none" stroke="#000" stroke-width=".32"/><path d="m8.64,296.75c.12-.16.18-.36.18-.56" fill="none" stroke="#000" stroke-width=".32"/><path d="m5.83,296.75h2.82" fill="none" stroke="#000" stroke-width=".32"/><path d="m10.56,296.19c0,.2.05.4.18.56" fill="none" stroke="#000" stroke-width=".32"/><path d="m13.56,296.75c.12-.16.18-.36.18-.56" fill="none" stroke="#000" stroke-width=".32"/><path d="m10.73,296.75h2.82" fill="none" stroke="#000" stroke-width=".32"/><path d="m8.89,296.84h1.6" fill="none" stroke="#000" stroke-width=".32"/><path d="m8.23,296.75s.03.04.04.06" fill="none" stroke="#000" stroke-width=".32"/><path d="m11.1,296.84s.03-.04.04-.06" fill="none" stroke="#000" stroke-width=".32"/><path d="m8.28,296.84h2.82" fill="none" stroke="#000" stroke-width=".32"/><path d="m10.53,296.84c-.13.23-.25.46-.36.69" fill="none" stroke="#000" stroke-width=".32"/><path d="m10.53,296.84c-.13.23-.25.46-.36.69" fill="none" stroke="#000" stroke-width=".32"/><path d="m11.56,297.08c-.05-.1-.11-.2-.17-.31" fill="none" stroke="#000" stroke-width=".32"/><path d="m7.86,301.06c-.05.22-.1.45-.14.67h3.99c-.04-.23-.09-.45-.14-.67" fill="none" stroke="#000" stroke-width=".32"/><path d="m8.6,298.87c.2-.47.43-.94.69-1.39v-.61" fill="none" stroke="#000" stroke-width=".32"/><path d="m10.12,296.84v.61c.25.43.47.88.67,1.34" fill="none" stroke="#000" stroke-width=".32"/><path d="m5.7,299.35c-.29-.89-.67-1.74-1.13-2.55h-.83c-.76,1.34-1.3,2.8-1.58,4.32h3.99" fill="#333" stroke="#000" stroke-width=".32"/><path d="m2.56,296.19c0,.2.05.4.18.56h2.82c.06-.07.1-.15.13-.24" fill="none" stroke="#000" stroke-width=".32"/><path d="m13.69,296.51c.03.09.07.17.13.24h2.82c.12-.16.18-.36.18-.56" fill="none" stroke="#000" stroke-width=".32"/><path d="m13.23,301.06h3.99c-.28-1.52-.82-2.98-1.58-4.32h-.83c-.46.81-.84,1.67-1.13,2.55" fill="#333" stroke="#000" stroke-width=".32"/><path d="m12.56,296.75c.76,1.34,1.3,2.8,1.58,4.32h-3.99c.28-1.52.82-2.98,1.58-4.32" fill="#333" stroke="#000" stroke-width=".32"/><path d="m6.83,296.75c-.76,1.34-1.3,2.8-1.58,4.32h3.99c-.28-1.52-.82-2.98-1.58-4.32h-.83Z" fill="#333" stroke="#000" stroke-width=".32"/><path d="m47.04,296.75h-.83" fill="none" stroke="#000" stroke-width=".32"/><path d="m38.18,301.06h3.99" fill="none" stroke="#000" stroke-width=".32"/><path d="m39.77,296.75h.83" fill="none" stroke="#000" stroke-width=".32"/><path d="m40.95,297.4c-.11-.23-.23-.45-.36-.67" fill="none" stroke="#000" stroke-width=".32"/><path d="m39.77,296.75c-.13.22-.24.44-.36.67" fill="none" stroke="#000" stroke-width=".32"/><path d="m42.51,296.75h.62" fill="none" stroke="#000" stroke-width=".32"/><path d="m43.74,297.49c-.11-.23-.24-.46-.36-.69" fill="none" stroke="#000" stroke-width=".32"/><path d="m42.51,296.75c-.06.11-.13.23-.19.34" fill="none" stroke="#000" stroke-width=".32"/><path d="m50.16,301.06h-3.99" fill="none" stroke="#000" stroke-width=".32"/><path d="m48.59,296.75h-.83" fill="none" stroke="#000" stroke-width=".32"/><path d="m47.76,296.75c-.13.22-.24.44-.36.67" fill="none" stroke="#000" stroke-width=".32"/><path d="m48.94,297.4c-.11-.23-.23-.45-.36-.67" fill="none" stroke="#000" stroke-width=".32"/><path d="m45.84,296.75h-.62" fill="none" stroke="#000" stroke-width=".32"/><path d="m40.13,296.19c0,.2.05.4.18.56" fill="none" stroke="#000" stroke-width=".32"/><path d="m43.13,296.75c.12-.16.18-.36.18-.56" fill="none" stroke="#000" stroke-width=".32"/><path d="m40.31,296.75h2.82" fill="none" stroke="#000" stroke-width=".32"/><path d="m45.04,296.19c0,.2.05.4.18.56" fill="none" stroke="#000" stroke-width=".32"/><path d="m48.04,296.75c.12-.16.18-.36.18-.56" fill="none" stroke="#000" stroke-width=".32"/><path d="m45.22,296.75h2.82" fill="none" stroke="#000" stroke-width=".32"/><path d="m43.37,296.84h1.6" fill="none" stroke="#000" stroke-width=".32"/><path d="m42.72,296.75s.03.04.04.06" fill="none" stroke="#000" stroke-width=".32"/><path d="m45.59,296.84s.03-.04.04-.06" fill="none" stroke="#000" stroke-width=".32"/><path d="m42.76,296.84h2.82" fill="none" stroke="#000" stroke-width=".32"/><path d="m45.01,296.84c-.13.23-.25.46-.36.69" fill="none" stroke="#000" stroke-width=".32"/><path d="m45.01,296.84c-.13.23-.25.46-.36.69" fill="none" stroke="#000" stroke-width=".32"/><path d="m46.04,297.08c-.05-.1-.11-.2-.17-.31" fill="none" stroke="#000" stroke-width=".32"/><path d="m42.34,301.06c-.05.22-.1.45-.14.67h3.99c-.04-.23-.09-.45-.14-.67" fill="none" stroke="#000" stroke-width=".32"/><path d="m43.1,298.87c.2-.47.43-.94.69-1.39v-.61" fill="none" stroke="#000" stroke-width=".32"/><path d="m44.61,296.84v.61c.25.43.47.88.67,1.34" fill="none" stroke="#000" stroke-width=".32"/><path d="m40.18,299.35c-.29-.89-.67-1.74-1.13-2.55h-.83c-.76,1.34-1.3,2.8-1.58,4.32h3.99" fill="#333" stroke="#000" stroke-width=".32"/><path d="m37.05,296.19c0,.2.05.4.18.56h2.82c.06-.07.1-.15.13-.24" fill="none" stroke="#000" stroke-width=".32"/><path d="m48.17,296.51c.03.09.07.17.13.24h2.82c.12-.16.18-.36.18-.56" fill="none" stroke="#000" stroke-width=".32"/><path d="m47.72,301.06h3.99c-.28-1.52-.82-2.98-1.58-4.32h-.83c-.46.81-.84,1.67-1.13,2.55" fill="#333" stroke="#000" stroke-width=".32"/><path d="m47.04,296.75c.76,1.34,1.3,2.8,1.58,4.32h-3.99c.28-1.52.82-2.98,1.58-4.32" fill="#333" stroke="#000" stroke-width=".32"/><path d="m41.31,296.75c-.76,1.34-1.3,2.8-1.58,4.32h3.99c-.28-1.52-.82-2.98-1.58-4.32h-.83Z" fill="#333" stroke="#000" stroke-width=".32"/><path d="m26.93,56.59V.23" fill="none" stroke="#000" stroke-width=".32"/><path d="m34.51,293.83h2.1" fill="none" stroke="#000" stroke-width=".32"/><path d="m2.12,288.24v6.75h0s0,.05,0,.05l.02.17.03.17.04.17.05.16.07.16.08.15.09.15v.02s.02,0,.02,0h0s.01,0,.01,0h14.34s.05-.08.05-.08l.08-.15.07-.16.06-.16.05-.17.04-.17.03-.17v-.17s.01-6.75.01-6.75" fill="none" stroke="#000" stroke-width=".32"/><path d="m2.84,282.71l.04-.11.06-.13.09-.13.11-.13.13-.12.15-.11.16-.09.17-.07.18-.04h.19s.19.04.19.04l.2.09.33.86.34.95.34.95.34.95.34.95,1.37,3.79.34.95.69,1.89.09.23.02.03.02.03.02.02.02.02.02.02.02.02.02.02.02.02h.02s.03.03.03.03h.03s.03.02.03.02l.05.02h.1s.02,0,.02,0h.12l.04-.02.04-.04.04-.06.04-.08.04-.09.04-.1.03-.11.03-.12.03-.13.02-.13.02-.13-.16-1.48-.36-3.1-.36-3.1-.73-6.2-.36-3.1-.36-3.1-.73-6.2-.36-3.1-.73-6.2-.24-2.1v-.41s0-.2,0-.2v-1.63s-.02-.25-.02-.25l-.03-.4-.03-.36-.03-.32-.03-.29-.03-.26-.03-.24-.03-.21-.03-.19-.03-.17-.04-.15-.04-.14-.04-.13-.04-.12-.04-.11-.04-.1-.04-.09-.04-.08-.04-.07-.04-.07-.04-.06-.04-.05-.04-.05-.04-.04-.04-.04-.04-.03-.04-.03-.04-.02-.05-.02h-.05s-.05-.02-.05-.02h-.05s-.05,0-.05,0h-.05s-.05.02-.05.02l-.05.02-.05.02-.05.03-.05.03-.05.04-.05.04-.05.05-.05.06-.05.06-.06.07-.06.07-.06.08-.06.09-.06.1-.06.1-.06.11-.06.12-.06.12-.06.13-.06.13-.06.14-.06.14-.06.14-.06.14-.06.14-.05.14-.05.14-.05.14-.05.14-.04.13-.04.13-.04.13-.03.14-.03.14-.03.14-.02.14" fill="#f2f2f2" stroke="#000" stroke-width=".32"/><path d="m17.26,293.83h2.1" fill="none" stroke="#000" stroke-width=".32"/><path d="m20.08,282.71l.04-.11.06-.13.09-.13.11-.13.13-.12.15-.11.16-.09.17-.07.18-.04h.19s.19.04.19.04l.2.09.33.86,1.03,2.84.34.95,1.37,3.79.34.95.69,1.89.09.23.02.03.02.03.02.02.02.02.02.02.02.02.02.02.02.02h.02s.03.03.03.03h.03s.03.02.03.02l.05.02h.1s.02,0,.02,0h.12l.04-.02.04-.04.04-.06.04-.08.04-.09.04-.1.03-.11.03-.12.03-.13.02-.13.02-.13-.16-1.48-.36-3.1-.36-3.1-.73-6.2-.36-3.1-.36-3.1-.73-6.2-.36-3.1-.73-6.2-.24-2.1v-.41s0-.2,0-.2v-1.63s-.02-.25-.02-.25l-.03-.4-.03-.36-.03-.32-.03-.29-.03-.26-.03-.24-.03-.21-.03-.19-.03-.17-.04-.15-.04-.14-.04-.13-.04-.12-.04-.11-.04-.1-.04-.09-.04-.08-.04-.07-.04-.07-.04-.06-.04-.05-.04-.05-.04-.04-.04-.04-.04-.03-.04-.03-.04-.02-.05-.02h-.05s-.05-.02-.05-.02h-.05s-.05,0-.05,0h-.05s-.05.02-.05.02l-.05.02-.05.02-.05.03-.05.03-.05.04-.05.04-.05.05-.05.06-.05.06-.06.07-.06.07-.06.08-.06.09-.06.1-.06.1-.06.11-.06.12-.06.12-.06.13-.06.13-.06.14-.06.14-.06.14-.06.14-.06.14-.05.14-.05.14-.05.14-.05.14-.04.13-.04.13-.04.13-.03.14-.03.14-.03.14-.02.14" fill="#f2f2f2" stroke="#000" stroke-width=".32"/><path d="m34.51,288.24v6.75c-.02.44-.16.86-.4,1.23h-14.35c-.24-.37-.38-.79-.4-1.23v-6.75" fill="none" stroke="#000" stroke-width=".32"/><path d="m36.61,288.24v6.75h0s0,.05,0,.05l.02.17.03.17.04.17.05.16.07.16.08.15.09.15v.02s.02,0,.02,0h0s.01,0,.01,0h14.34s.05-.08.05-.08l.08-.15.07-.16.06-.16.05-.17.04-.17.03-.17v-.17s.01-6.75.01-6.75" fill="none" stroke="#000" stroke-width=".32"/><path d="m5.23,252.56l-1-1.06" fill="none" stroke="#000" stroke-width=".32"/><path d="m4.23,251.5h-1.83" fill="none" stroke="#000" stroke-width=".32"/><path d="m2.84,282.71l-.03.17-.03.18-.03.18-.03.18-.03.19-.03.19-.03.19-.03.2-.03.2-.03.2-.03.2-.03.21-.03.21-.03.21-.03.21-.03.21-.03.22-.03.22-.03.22-.03.22-.03.22-.03.22-.05.45-.05.45-.05.46-.1.91-.05.46-.05.46-.05.45-.05.45-.02.22-.02.22-.02.22-.02.22-.02.22-.02.22-.02.21-.02.21-.02.21-.02.21v.1s-.02.04-.02.04h0s0,0,0,0h0s0,.03,0,.03h0s-.02.03-.02.03h-.08s-.05-.04-.05-.04l-.05-.03-.05-.03-.05-.03-.05-.03-.04-.03-.04-.03-.04-.03-.04-.03-.04-.03-.04-.03-.04-.03-.04-.03-.03-.03-.03-.03-.03-.03-.03-.03-.06-.07-.05-.07-.05-.07-.04-.07-.04-.07-.04-.07-.03-.07-.03-.07-.03-.08-.03-.08-.02-.08-.02-.08-.02-.08-.02-.08-.02-.08-.02-.08v-.04s-.01-.02-.01-.02h0s0,0,0,0h0s0,0,0,0h0s0-.05,0-.05v-.09s.59-17.57.59-17.57l.39-11.71.2-5.86.05-1.46v-.37s.01-.02.01-.02h0s0,0,0,0h0s0,0,0,0h0s0,0,0,0h0s0-.05,0-.05v-.08s.02-.07.02-.07v-.07s.02-.07.02-.07v-.07s.02-.07.02-.07v-.07s.02-.06.02-.06v-.06s.02-.06.02-.06l.02-.12.03-.12.03-.11.03-.11.03-.11.03-.11.03-.11.03-.11.03-.11.03-.11.04-.12.04-.12.04-.12.02-.06.02-.06.02-.06.03-.06.03-.06.03-.07.03-.07.03-.07.03-.07.03-.07.03-.07.04-.07.04-.07.04-.07" fill="#f2f2f2" stroke="#000" stroke-linecap="round" stroke-width=".32"/><path d="m2.18,276.15l.14-19.58" fill="none" stroke="#000" stroke-width=".32"/><path d="m2.33,256.57l1.75-2.38" fill="none" stroke="#000" stroke-width=".32"/><path d="m2.33,256.57l-.84-2.17" fill="none" stroke="#000" stroke-width=".32"/><path d="m4.08,254.19l.15-2.7" fill="none" stroke="#000" stroke-linecap="round" stroke-width=".32"/><path d="m1.62,292.94h.5" fill="none" stroke="#000" stroke-width=".32"/><path d="m1.56,293.43h.56" fill="none" stroke="#000" stroke-width=".32"/><path d="m16.54,282.71l-.04-.11-.06-.13-.09-.13-.11-.13-.13-.12-.15-.11-.16-.09-.17-.07-.18-.04h-.19s-.19.04-.19.04l-.2.09-.33.86-.34.95-.69,1.89-.34.95-1.37,3.79-.34.95-.69,1.89-.09.23-.02.03-.02.03-.02.02-.02.02-.02.02-.02.02-.02.02-.02.02h-.02s-.03.03-.03.03h-.03s-.03.02-.03.02l-.05.02h-.1s-.02,0-.02,0h-.12l-.04-.02-.04-.04-.04-.06-.04-.08-.04-.09-.04-.1-.03-.11-.03-.12-.03-.13-.02-.13-.02-.13.16-1.48.36-3.1.36-3.1.73-6.2.36-3.1.36-3.1.73-6.2.36-3.1.73-6.2.24-2.1v-.41s0-.2,0-.2v-1.63s.02-.25.02-.25l.03-.4.03-.36.03-.32.03-.29.03-.26.03-.24.03-.21.03-.19.03-.17.04-.15.04-.14.04-.13.04-.12.04-.11.04-.1.04-.09.04-.08.04-.07.04-.07.04-.06.04-.05.04-.05.04-.04.04-.04.04-.03.04-.03.04-.02.05-.02h.05s.05-.02.05-.02h.05s.05,0,.05,0h.05s.05.02.05.02l.05.02.05.02.05.03.05.03.05.04.05.04.05.05.05.06.05.06.06.07.06.07.06.08.06.09.06.1.06.1.06.11.06.12.06.12.06.13.06.13.06.14.06.14.06.14.06.14.06.14.05.14.05.14.05.14.05.14.04.13.04.13.04.13.03.14.03.14.03.14.02.14" fill="#f2f2f2" stroke="#000" stroke-width=".32"/><path d="m9.44,293.43h.5" fill="none" stroke="#000" stroke-width=".32"/><path d="m.55,292.86l.48-6.1.1-1.22.38-4.88.1-1.22.19-2.44.04-.39.03-.1.03-.08.04-.07.04-.06.04-.05.05-.03.05-.03.05-.02h.05s.05,0,.05,0h.05s.05.02.05.02l.05.02.05.03.05.03.05.03.05.04.05.04.04.04.04.05.04.05.04.05.04.05.04.05.04.05.14.36.95,2.55.47,1.27.47,1.27,2.37,6.37.47,1.27,1.42,3.82" fill="none" stroke="#000" stroke-width=".32"/><path d="m14.15,252.56l1-1.06" fill="none" stroke="#000" stroke-width=".32"/><path d="m15.15,251.5h1.83" fill="none" stroke="#000" stroke-width=".32"/><path d="m17.19,276.15l-.14-19.58" fill="none" stroke="#000" stroke-width=".32"/><path d="m18.31,265.86l-.12-3.47-.2-5.86-.05-1.46v-.37s-.01-.02-.01-.02h0s0,0,0,0h0s0,0,0,0h0s0,0,0,0h0s0-.01,0-.01v-.04s-.02-.08-.02-.08v-.07s-.02-.07-.02-.07v-.07s-.02-.07-.02-.07v-.07s-.02-.07-.02-.07v-.06s-.02-.06-.02-.06v-.06s-.04-.12-.04-.12l-.03-.12-.03-.11-.03-.11-.03-.11-.03-.11-.03-.11-.03-.11-.03-.11-.03-.11-.04-.12-.04-.12-.04-.12-.02-.06-.02-.06-.02-.06-.03-.06-.03-.06-.03-.07-.03-.07-.03-.07-.03-.07-.03-.07-.03-.07-.04-.07-.04-.07-.04-.07" fill="#f2f2f2" stroke="#000" stroke-width=".32"/><path d="m17.06,256.57l-1.75-2.38" fill="none" stroke="#000" stroke-width=".32"/><path d="m17.06,256.57l.84-2.17" fill="none" stroke="#000" stroke-width=".32"/><path d="m15.3,254.19l-.15-2.7" fill="none" stroke="#000" stroke-linecap="round" stroke-width=".32"/><path d="m17.75,292.94h-.5" fill="none" stroke="#000" stroke-width=".32"/><path d="m17.82,293.43h-.56" fill="none" stroke="#000" stroke-width=".32"/><path d="m16.54,282.71l.03.17.03.18.03.18.03.18.03.19.03.19.03.19.03.2.03.2.03.2.03.2.03.21.03.21.03.21.03.21.03.21.03.22.03.22.03.22.03.22.03.22.03.22.05.45.05.45.05.46.1.91.05.46.05.46v.06" fill="none" stroke="#000" stroke-linecap="round" stroke-width=".32"/><path d="m22.47,252.56l-1-1.06" fill="none" stroke="#000" stroke-width=".32"/><path d="m21.47,251.5h-1.83" fill="none" stroke="#000" stroke-width=".32"/><path d="m20.08,282.71l-.03.17-.03.18-.03.18-.03.18-.03.19-.03.19-.03.19-.03.2-.03.2-.03.2-.03.2-.03.21-.03.21-.03.21-.03.21-.03.21-.03.22-.03.22-.03.22-.03.22-.03.22-.03.22-.05.45-.05.45-.05.46-.1.91-.05.46-.05.46-.05.45-.05.45-.02.22-.02.22-.02.22-.02.22-.02.22-.02.22-.02.21-.02.21-.02.21-.02.21v.1s-.02.04-.02.04h0s0,0,0,0h0s0,.03,0,.03h0s-.02.03-.02.03h-.08s-.05-.04-.05-.04l-.05-.03-.05-.03-.05-.03-.05-.03-.04-.03-.04-.03-.04-.03-.04-.03-.04-.03-.04-.03-.04-.03-.04-.03-.03-.03-.03-.03-.03-.03-.03-.03-.06-.07-.05-.07-.05-.07-.04-.07-.04-.07-.04-.07-.03-.07-.03-.07-.03-.08-.03-.08-.02-.08-.02-.08-.02-.08-.02-.08-.02-.08-.02-.08v-.04s-.01-.02-.01-.02h0s0,0,0,0h0s0,0,0,0h0s0-.05,0-.05v-.09s.59-17.57.59-17.57l.39-11.71.2-5.86.05-1.46v-.37s.01-.02.01-.02h0s0,0,0,0h0s0,0,0,0h0s0,0,0,0h0s0-.01,0-.01v-.04s.02-.08.02-.08v-.07s.02-.07.02-.07v-.07s.02-.07.02-.07v-.07s.02-.07.02-.07v-.06s.02-.06.02-.06v-.06s.04-.12.04-.12l.03-.12.03-.11.03-.11.03-.11.03-.11.03-.11.03-.11.03-.11.03-.11.04-.12.04-.12.04-.12.02-.06.02-.06.02-.06.03-.06.03-.06.03-.07.03-.07.03-.07.03-.07.03-.07.03-.07.04-.07.04-.07.04-.07" fill="#f2f2f2" stroke="#000" stroke-linecap="round" stroke-width=".32"/><path d="m19.43,276.15l.14-19.58" fill="none" stroke="#000" stroke-width=".32"/><path d="m19.57,256.57l1.75-2.38" fill="none" stroke="#000" stroke-width=".32"/><path d="m19.57,256.57l-.84-2.17" fill="none" stroke="#000" stroke-width=".32"/><path d="m21.32,254.19l.15-2.7" fill="none" stroke="#000" stroke-linecap="round" stroke-width=".32"/><path d="m18.87,292.94h.5" fill="none" stroke="#000" stroke-width=".32"/><path d="m18.8,293.43h.56" fill="none" stroke="#000" stroke-width=".32"/><path d="m33.78,282.71l-.04-.11-.06-.13-.09-.13-.11-.13-.13-.12-.15-.11-.16-.09-.17-.07-.18-.04h-.19s-.19.04-.19.04l-.2.09-.33.86-.34.95-.69,1.89-.34.95-1.37,3.79-.34.95-.69,1.89-.09.23-.02.03-.02.03-.02.02-.02.02-.02.02-.02.02-.02.02-.02.02h-.02s-.03.03-.03.03h-.03s-.03.02-.03.02l-.05.02h-.1s-.02,0-.02,0h-.12l-.04-.02-.04-.04-.04-.06-.04-.08-.04-.09-.04-.1-.03-.11-.03-.12-.03-.13-.02-.13-.02-.13.16-1.48.73-6.2.73-6.2.36-3.1.36-3.1.73-6.2.36-3.1.73-6.2.24-2.1v-.41s0-.2,0-.2v-1.63s.02-.25.02-.25l.03-.4.03-.36.03-.32.03-.29.03-.26.03-.24.03-.21.03-.19.03-.17.04-.15.04-.14.04-.13.04-.12.04-.11.04-.1.04-.09.04-.08.04-.07.04-.07.04-.06.04-.05.04-.05.04-.04.04-.04.04-.03.04-.03.04-.02.05-.02h.05s.05-.02.05-.02h.05s.05,0,.05,0h.05s.05.02.05.02l.05.02.05.02.05.03.05.03.05.04.05.04.05.05.05.06.05.06.06.07.06.07.06.08.06.09.06.1.06.1.06.11.06.12.06.12.06.13.06.13.06.14.06.14.06.14.06.14.06.14.05.14.05.14.05.14.05.14.04.13.04.13.04.13.03.14.03.14.03.14.02.14" fill="#f2f2f2" stroke="#000" stroke-width=".32"/><path d="m26.69,293.43h.5" fill="none" stroke="#000" stroke-width=".32"/><path d="m17.8,292.86l.1-1.22.38-4.88.1-1.22.38-4.88.1-1.22.19-2.44.04-.39.03-.1.03-.08.04-.07.04-.06.04-.05.05-.03.05-.03.05-.02h.05s.05,0,.05,0h.05s.05.02.05.02l.05.02.05.03.05.03.05.03.05.04.05.04.04.04.04.05.04.05.04.05.04.05.04.05.04.05.14.36.95,2.55.47,1.27.47,1.27.47,1.27,1.89,5.1.47,1.27,1.42,3.82" fill="none" stroke="#000" stroke-width=".32"/><path d="m31.4,252.56l1-1.06" fill="none" stroke="#000" stroke-width=".32"/><path d="m32.39,251.5h1.83" fill="none" stroke="#000" stroke-width=".32"/><path d="m33.78,282.71l.03.17.03.18.03.18.03.18.03.19.03.19.03.19.03.2.03.2.03.2.03.2.03.21.03.21.03.21.03.21.03.21.03.22.03.22.03.22.03.22.03.22.03.22.05.45.05.45.05.46.1.91.05.46.05.46.05.45.05.45.02.22.02.22.02.22.02.22.02.22.02.22.02.21.02.21.02.21.02.21v.1s.02.04.02.04h0s0,0,0,0h0s0,.03,0,.03h0s.02.03.02.03h.08s.05-.04.05-.04l.05-.03.05-.03.05-.03.05-.03.04-.03.04-.03.04-.03.04-.03.04-.03.04-.03.04-.03.04-.03.03-.03.03-.03.03-.03.03-.03.06-.07.05-.07.05-.07.04-.07.04-.07.04-.07.03-.07.03-.07.03-.08.03-.08.02-.08.02-.08.02-.08.02-.08.02-.08.02-.08v-.04s.01-.02.01-.02h0s0,0,0,0h0s0,0,0,0h0s0-.05,0-.05v-.09s-.59-17.57-.59-17.57l-.39-11.71-.2-5.86-.05-1.46v-.37s-.01-.02-.01-.02h0s0,0,0,0h0s0,0,0,0h0s0,0,0,0h0s0-.01,0-.01v-.04s-.02-.08-.02-.08v-.07s-.02-.07-.02-.07v-.07s-.02-.07-.02-.07v-.07s-.02-.07-.02-.07v-.06s-.02-.06-.02-.06v-.06s-.04-.12-.04-.12l-.03-.12-.03-.11-.03-.11-.03-.11-.03-.11-.03-.11-.03-.11-.03-.11-.03-.11-.04-.12-.04-.12-.04-.12-.02-.06-.02-.06-.02-.06-.03-.06-.03-.06-.03-.07-.03-.07-.03-.07-.03-.07-.03-.07-.03-.07-.04-.07-.04-.07-.04-.07" fill="#f2f2f2" stroke="#000" stroke-linecap="round" stroke-width=".32"/><path d="m34.44,276.15l-.14-19.58" fill="none" stroke="#000" stroke-width=".32"/><path d="m34.29,256.57l-1.75-2.38" fill="none" stroke="#000" stroke-width=".32"/><path d="m34.29,256.57l.84-2.17" fill="none" stroke="#000" stroke-width=".32"/><path d="m32.54,254.19l-.15-2.7" fill="none" stroke="#000" stroke-linecap="round" stroke-width=".32"/><path d="m35,292.94h-.5" fill="none" stroke="#000" stroke-width=".32"/><path d="m35.06,293.43h-.56" fill="none" stroke="#000" stroke-width=".32"/><path d="m36.07,292.86l-.1-1.22-.38-4.88-.1-1.22-.48-6.1-.1-1.22-.1-1.22-.04-.39-.03-.1-.03-.08-.04-.07-.04-.06-.04-.05-.05-.03-.05-.03-.05-.02h-.05s-.05,0-.05,0h-.05s-.05.02-.05.02l-.05.02-.05.03-.05.03-.05.03-.05.04-.05.04-.04.04-.04.05-.04.05-.04.05-.04.05-.04.05-.04.05-.14.36-1.42,3.82-.47,1.27-.95,2.55-1.42,3.82-.47,1.27-.47,1.27-.95,2.55" fill="none" stroke="#000" stroke-width=".32"/><path d="m37.33,282.71l.04-.11.06-.13.09-.13.11-.13.13-.12.15-.11.16-.09.17-.07.18-.04h.19s.19.04.19.04l.2.09.33.86,1.03,2.84.34.95,1.37,3.79.34.95.69,1.89.09.23.02.03.02.03.02.02.02.02.02.02.02.02.02.02.02.02h.02s.03.03.03.03h.03s.03.02.03.02l.05.02h.1s.02,0,.02,0h.12l.04-.02.04-.04.04-.06.04-.08.04-.09.04-.1.03-.11.03-.12.03-.13.02-.13.02-.13-.16-1.48-.36-3.1-.36-3.1-.73-6.2-.36-3.1-.36-3.1-.73-6.2-.36-3.1-.73-6.2-.24-2.1v-.41s0-.2,0-.2v-1.63s-.02-.25-.02-.25l-.03-.4-.03-.36-.03-.32-.03-.29-.03-.26-.03-.24-.03-.21-.03-.19-.03-.17-.04-.15-.04-.14-.04-.13-.04-.12-.04-.11-.04-.1-.04-.09-.04-.08-.04-.07-.04-.07-.04-.06-.04-.05-.04-.05-.04-.04-.04-.04-.04-.03-.04-.03-.04-.02-.05-.02h-.05s-.05-.02-.05-.02h-.05s-.05,0-.05,0h-.05s-.05.02-.05.02l-.05.02-.05.02-.05.03-.05.03-.05.04-.05.04-.05.05-.05.06-.05.06-.06.07-.06.07-.06.08-.06.09-.06.1-.06.1-.06.11-.06.12-.06.12-.06.13-.06.13-.06.14-.06.14-.06.14-.06.14-.06.14-.05.14-.05.14-.05.14-.05.14-.04.13-.04.13-.04.13-.03.14-.03.14-.03.14-.02.14" fill="#f2f2f2" stroke="#000" stroke-width=".32"/><path d="m39.72,252.56l-1-1.06" fill="none" stroke="#000" stroke-width=".32"/><path d="m38.71,251.5h-1.83" fill="none" stroke="#000" stroke-width=".32"/><path d="m36.67,276.15l.14-19.58" fill="none" stroke="#000" stroke-width=".32"/><path d="m36.81,256.57l1.75-2.38" fill="none" stroke="#000" stroke-width=".32"/><path d="m36.81,256.57l-.84-2.17" fill="none" stroke="#000" stroke-width=".32"/><path d="m38.57,254.19l.15-2.7" fill="none" stroke="#000" stroke-linecap="round" stroke-width=".32"/><path d="m36.11,292.94h.5" fill="none" stroke="#000" stroke-width=".32"/><path d="m36.05,293.43h.56" fill="none" stroke="#000" stroke-width=".32"/><path d="m43.92,293.43h.5" fill="none" stroke="#000" stroke-width=".32"/><path d="m37.33,282.71l-.03.17-.03.18-.03.18-.03.18-.03.19-.03.19-.03.19-.03.2-.03.2-.03.2-.03.2-.03.21-.03.21-.03.21-.03.21-.03.21-.03.22-.03.22-.03.22-.03.22-.03.22-.03.22-.05.45-.05.45-.05.46-.1.91-.05.46-.05.46v.06" fill="none" stroke="#000" stroke-linecap="round" stroke-width=".32"/><path d="m36.02,279.97l.07-.56.1-1.22.1-1.22.04-.39.03-.1.03-.08.04-.07.04-.06.04-.05.05-.03.05-.03.05-.02h.05s.05,0,.05,0h.05s.05.02.05.02l.05.02.05.03.05.03.05.03.05.04.05.04.04.04.04.05.04.05.04.05.04.05.04.05.04.05.14.36,1.42,3.82.47,1.27.47,1.27,1.89,5.1.47,1.27,1.42,3.82" fill="none" stroke="#000" stroke-width=".32"/><path d="m51.02,282.71l-.04-.11-.06-.13-.09-.13-.11-.13-.13-.12-.15-.11-.16-.09-.17-.07-.18-.04h-.19s-.19.04-.19.04l-.2.09-.33.86-.34.95-.34.95-.34.95-.34.95-1.37,3.79-.34.95-.69,1.89-.09.23-.02.03-.02.03-.02.02-.02.02-.02.02-.02.02-.02.02-.02.02h-.02s-.03.03-.03.03h-.03s-.03.02-.03.02l-.05.02h-.1s-.02,0-.02,0h-.12l-.04-.02-.04-.04-.04-.06-.04-.08-.04-.09-.04-.1-.03-.11-.03-.12-.03-.13-.02-.13-.02-.13.16-1.48.73-6.2.73-6.2.36-3.1.36-3.1.73-6.2.36-3.1.73-6.2.24-2.1v-.41s0-.2,0-.2v-1.63s.02-.25.02-.25l.03-.4.03-.36.03-.32.03-.29.03-.26.03-.24.03-.21.03-.19.03-.17.04-.15.04-.14.04-.13.04-.12.04-.11.04-.1.04-.09.04-.08.04-.07.04-.07.04-.06.04-.05.04-.05.04-.04.04-.04.04-.03.04-.03.04-.02.05-.02h.05s.05-.02.05-.02h.05s.05,0,.05,0h.05s.05.02.05.02l.05.02.05.02.05.03.05.03.05.04.05.04.05.05.05.06.05.06.06.07.06.07.06.08.06.09.06.1.06.1.06.11.06.12.06.12.06.13.06.13.06.14.06.14.06.14.06.14.06.14.05.14.05.14.05.14.05.14.04.13.04.13.04.13.03.14.03.14.03.14.02.14" fill="#f2f2f2" stroke="#000" stroke-width=".32"/><path d="m48.63,252.56l1-1.06" fill="none" stroke="#000" stroke-width=".32"/><path d="m49.64,251.5h1.83" fill="none" stroke="#000" stroke-width=".32"/><path d="m51.02,282.71l.03.17.03.18.03.18.03.18.03.19.03.19.03.19.03.2.03.2.03.2.03.2.03.21.03.21.03.21.03.21.03.21.03.22.03.22.03.22.03.22.03.22.03.22.05.45.05.45.05.46.1.91.05.46.05.46.05.45.05.45.02.22.02.22.02.22.02.22.02.22.02.22.02.21.02.21.02.21.02.21v.1s.02.04.02.04h0s0,0,0,0h0s0,.03,0,.03h0s.02.03.02.03h.08s.05-.04.05-.04l.05-.03.05-.03.05-.03.05-.03.04-.03.04-.03.04-.03.04-.03.04-.03.04-.03.04-.03.04-.03.03-.03.03-.03.03-.03.03-.03.06-.07.05-.07.05-.07.04-.07.04-.07.04-.07.03-.07.03-.07.03-.08.03-.08.02-.08.02-.08.02-.08.02-.08.02-.08.02-.08v-.04s.01-.02.01-.02h0s0,0,0,0h0s0,0,0,0h0s0-.05,0-.05v-.09s-.2-5.86-.2-5.86l-.39-11.71-.39-11.71-.2-5.86-.05-1.46v-.37s-.01-.02-.01-.02h0s0,0,0,0h0s0,0,0,0h0s0,0,0,0h0s0-.05,0-.05v-.08s-.02-.07-.02-.07v-.07s-.02-.07-.02-.07v-.07s-.02-.07-.02-.07v-.07s-.02-.06-.02-.06v-.06s-.02-.06-.02-.06l-.02-.12-.03-.12-.03-.11-.03-.11-.03-.11-.03-.11-.03-.11-.03-.11-.03-.11-.03-.11-.04-.12-.04-.12-.04-.12-.02-.06-.02-.06-.02-.06-.03-.06-.03-.06-.03-.07-.03-.07-.03-.07-.03-.07-.03-.07-.03-.07-.04-.07-.04-.07-.04-.07" fill="#f2f2f2" stroke="#000" stroke-linecap="round" stroke-width=".32"/><path d="m51.68,276.15l-.14-19.58" fill="none" stroke="#000" stroke-width=".32"/><path d="m51.54,256.57l-1.75-2.38" fill="none" stroke="#000" stroke-width=".32"/><path d="m51.54,256.57l.84-2.17" fill="none" stroke="#000" stroke-width=".32"/><path d="m49.79,254.19l-.15-2.7" fill="none" stroke="#000" stroke-linecap="round" stroke-width=".32"/><path d="m52.25,292.94h-.5" fill="none" stroke="#000" stroke-width=".32"/><path d="m52.3,293.43h-.56" fill="none" stroke="#000" stroke-width=".32"/><path d="m53.31,292.86l-.38-4.88-.1-1.22-.48-6.1-.1-1.22-.19-2.44-.04-.39-.03-.1-.03-.08-.04-.07-.04-.06-.04-.05-.05-.03-.05-.03-.05-.02h-.05s-.05,0-.05,0h-.05s-.05.02-.05.02l-.05.02-.05.03-.05.03-.05.03-.05.04-.05.04-.04.04-.04.05-.04.05-.04.05-.04.05-.04.05-.04.05-.14.36-1.42,3.82-.47,1.27-2.37,6.37-.47,1.27-.47,1.27-.95,2.55" fill="none" stroke="#000" stroke-width=".32"/><path d="m17.26,252.09V120.79h0s0,0,0,0h0s-.01-.19-.01-.19l-.03-.34-.06-.66-.06-.62-.06-.59-.06-.56-.06-.53-.06-.5-.06-.47-.06-.44-.06-.42-.07-.4-.07-.38-.07-.36-.07-.34-.07-.32-.08-.31-.08-.29-.08-.28-.09-.27-.09-.26-.19-.5-.21-.48-.23-.47-.25-.48-.27-.49-.29-.51-.31-.51-.33-.51-.34-.5-.36-.49-.38-.46-.19-.22-.2-.21-.2-.2-.2-.19-.2-.18-.21-.16-.21-.15-.21-.14-.21-.12-.22-.1-.22-.09-.22-.07-.22-.05-.22-.03h-.22s-.22.01-.22.01l-.22.04-.22.06-.22.08-.22.1-.21.11-.21.13-.21.15-.21.16-.21.17-.2.19-.2.2-.2.21-.38.44-.37.47-.36.49-.34.51-.32.51-.3.51-.28.5-.26.49-.24.47-.22.47-.2.48-.19.51-.09.27-.08.28-.08.29-.08.3-.08.32-.07.33-.07.35-.07.37-.07.39-.06.41-.06.44-.06.46-.06.49-.06.52-.06.55-.06.58-.06.61-.06.65-.06.68v.07s0,.01,0,.01h0v131.3" fill="none" stroke="#000" stroke-width=".33"/><path d="m19.36,252.09V56.51" fill="none" stroke="#000" stroke-width=".32"/><path d="m51.74,252.09V120.79h0s0,0,0,0h0s-.01-.19-.01-.19l-.03-.34-.06-.66-.06-.62-.06-.59-.06-.56-.06-.53-.06-.5-.06-.47-.06-.44-.06-.42-.07-.4-.07-.38-.07-.36-.07-.34-.07-.32-.08-.31-.08-.29-.08-.28-.09-.27-.09-.26-.19-.5-.21-.48-.23-.47-.25-.48-.27-.49-.29-.51-.31-.51-.33-.51-.34-.5-.36-.49-.38-.46-.19-.22-.2-.21-.2-.2-.2-.19-.2-.18-.21-.16-.21-.15-.21-.14-.21-.12-.22-.1-.22-.09-.22-.07-.22-.05-.22-.03h-.22s-.22.01-.22.01l-.22.04-.22.06-.22.08-.22.1-.21.11-.21.13-.21.15-.21.16-.21.17-.2.19-.2.2-.2.21-.38.44-.37.47-.36.49-.34.51-.32.51-.3.51-.28.5-.26.49-.24.47-.22.47-.2.48-.19.51-.09.27-.08.28-.08.29-.08.3-.08.32-.07.33-.07.35-.07.37-.07.39-.06.41-.06.44-.06.46-.06.49-.06.52-.06.55-.06.58-.06.61-.06.65-.06.68v.08s0,0,0,0v131.29" fill="none" stroke="#000" stroke-width=".33"/><path d="m17.84,280.19l-.06-.78-.1-1.22-.1-1.22-.04-.39-.03-.1-.03-.08-.04-.07-.04-.06-.04-.05-.05-.03-.05-.03-.05-.02h-.05s-.05,0-.05,0h-.05s-.05.02-.05.02l-.05.02-.05.03-.05.03-.05.03-.05.04-.05.04-.04.04-.04.05-.04.05-.04.05-.04.05-.04.05-.04.05-.14.36-1.42,3.82-.47,1.27-.95,2.55-1.42,3.82-.47,1.27-.47,1.27-.95,2.55" fill="none" stroke="#000" stroke-width=".32"/><path d="m18.88,292.69v-.02s.05-.07.05-.07l.03-.07.03-.07.03-.08.03-.08.02-.08.02-.08.02-.08.02-.08.02-.08.02-.08v-.04s.01-.02.01-.02h0s0,0,0,0h0s0,0,0,0h0s0-.05,0-.05v-.09s-.04-1.25-.04-1.25" fill="none" stroke="#000" stroke-width=".32"/><path d="m17.74,292.69v.06s.03.21.03.21l.02.21.02.21v.1s.02.04.02.04h0s0,0,0,0h0s0,.03,0,.03h0s.02.03.02.03h.08s.05-.04.05-.04l.05-.03.05-.03.05-.03.05-.03.04-.03.04-.03.02-.02" fill="none" stroke="#000" stroke-width=".32"/><path d="m35.55,265.86l.12-3.47.2-5.86.05-1.46v-.37s.01-.02.01-.02h0s0,0,0,0h0s0,0,0,0h0s0,0,0,0h0s0-.01,0-.01v-.04s.02-.08.02-.08v-.07s.02-.07.02-.07v-.07s.02-.07.02-.07v-.07s.02-.07.02-.07v-.06s.02-.06.02-.06v-.06s.04-.12.04-.12l.03-.12.03-.11.03-.11.03-.11.03-.11.03-.11.03-.11.03-.11.03-.11.04-.12.04-.12.04-.12.02-.06.02-.06.02-.06.03-.06.03-.06.03-.07.03-.07.03-.07.03-.07.03-.07.03-.07.04-.07.04-.07.04-.07" fill="none" stroke="#000" stroke-width=".32"/><path d="m36.13,292.69v.06s-.03.21-.03.21l-.02.21-.02.21v.1s-.02.04-.02.04h0s0,0,0,0h0s0,.03,0,.03h0s-.02.03-.02.03h-.08s-.05-.04-.05-.04l-.05-.03-.05-.03-.05-.03-.05-.03-.04-.03-.04-.03-.02-.02" fill="none" stroke="#000" stroke-width=".32"/><path d="m34.98,292.69v-.02s-.05-.07-.05-.07l-.03-.07-.03-.07-.03-.08-.03-.08-.02-.08-.02-.08-.02-.08-.02-.08-.02-.08-.02-.08v-.04s-.01-.02-.01-.02h0s0,0,0,0h0s0,0,0,0h0s0-.05,0-.05v-.09s.04-1.25.04-1.25" fill="none" stroke="#000" stroke-width=".32"/><path d="m17.28,266.52c0-.5-.02-2.94-.04-5.42l-.03-4.51.28-.73c.16-.4.29-.73.29-.72,0,0,.09,2.43.18,5.39l.18,5.37-.03.7c-.01.38-.03.73-.03.77v.07h-.8v-.91s-.01,0-.01,0Z" fill="#f2f2f2" stroke-width="0"/><path d="m16.43,255.46l-.57-.78v-.27h.93c.61,0,.93,0,.93,0,0,.03-.7,1.82-.7,1.82,0,0-.26-.35-.58-.78h0Z" fill="#f2f2f2" stroke-width="0"/><path d="m17.76,277.21c-.07-.74-.12-.89-.3-1.08l-.11-.11-.03-3.8c-.02-2.09-.05-6.46-.07-9.72l-.04-5.92.23-.59c.19-.49.25-.59.31-.6.07-.01.08,0,.08.2,0,.11.07,2.38.16,5.04.12,3.6.16,5.05.15,5.72-.02.81-.33,10.16-.36,10.71,0,.13-.02.2-.02.16h0Z" fill="#f2f2f2" stroke-width="0"/><path d="m15.58,279.41s.2-.54.43-1.17c.48-1.28.53-1.43.59-1.51.05-.07.16-.2.21-.25.14-.13.28-.19.38-.16.04.01.1.07.13.13.06.13.07.17.19,1.78.05.63.09,1.16.09,1.17v.03s-2.04,0-2.04,0v-.02s0,0,0,0Z" fill="#f2f2f2" stroke-width="0"/><path d="m11.92,277.33v-2.1l.22-1.83c.12-1.01.22-1.83.22-1.84,0,0,1.05,0,2.33,0h2.33v.07s0,1.03.01,2.22c.01,1.81.01,2.15,0,2.16,0,0-.03,0-.04.01-.05,0-.2.09-.27.14-.12.09-.26.24-.37.4-.07.11-.11.21-.65,1.65l-.45,1.22h-3.31v-2.1h0Z" fill="#f2f2f2" stroke-width="0"/><path d="m17.39,287.92c-.01-.07-.08-.63-.15-1.26-.15-1.32-.29-2.41-.45-3.37-.09-.55-.13-.73-.21-.87-.14-.26-.44-.54-.72-.68-.2-.1-.28-.11-.51-.11-.35,0-.59.1-.66.27-.03.06-.05.1-.05.08,0-.04.47-1.34,1.46-3.97.32-.86.49-1.26.57-1.37.24-.32.5-.41.63-.23.1.13.13.4.35,3.33.03.36-.05,3.07-.22,8.02,0,.23-.02.26-.04.16h0Z" fill="#f2f2f2" stroke-width="0"/><path d="m36.49,255.3l-.35-.92.03-.2c.11-.71.4-1.66.69-2.27l.12-.26h1.58v.2c-.02.11-.05.67-.08,1.24l-.06,1.04-.77,1.04c-.42.57-.77,1.04-.78,1.04,0,0-.18-.41-.37-.91h0Z" fill="#f2f2f2" stroke-width="0"/><path d="m35.85,270.05c0-.07-.04-1.05-.08-2.18l-.07-2.04.18-5.34c.1-2.94.18-5.35.18-5.36s.14.32.29.73l.29.75-.04,5.82c-.02,3.2-.05,6.26-.06,6.79l-.02.97h-.68v-.13s-.01,0-.01,0Z" fill="#f2f2f2" stroke-width="0"/><path d="m36.08,276.91c-.01-.2-.06-1.74-.12-3.43-.06-1.68-.12-3.65-.15-4.38-.12-3.1-.12-3.17-.04-5.37.04-1.1.07-2.15.08-2.35l.02-.36h.75v.58c0,.32-.02,3.22-.05,6.45s-.05,6.34-.05,6.92v1.04s-.12.12-.12.12c-.16.16-.22.32-.26.72-.02.17-.03.34-.04.37,0,.03-.01-.11-.02-.32h0Z" fill="#f2f2f2" stroke-width="0"/><path d="m36.28,282.64s-.02-.65-.05-1.37l-.04-1.3.03-.27c.02-.18.07-.67.13-1.51.11-1.41.12-1.55.16-1.65.03-.09.09-.18.14-.21.15-.08.38.07.6.38.04.05.07.11.11.23.13.33,2.14,5.76,2.13,5.76,0,0-.01,0-.01,0,0,0-.08-.21-.18-.46-.1-.25-.18-.46-.18-.46,0,0-.06-.03-.14-.06-.18-.08-.29-.11-.48-.11-.32,0-.62.13-.91.39-.19.17-.37.43-.42.63l-.02.07h-.88s0-.07,0-.07h0Z" fill="#f2f2f2" stroke-width="0"/><path d="m38.7,279.62s-.22-.59-.49-1.3c-.52-1.39-.62-1.66-.66-1.72-.22-.33-.46-.53-.7-.59h-.04s0-.37,0-.37c0-.2,0-1.08.01-1.97,0-.88.01-1.68.01-1.76v-.15h4.68v.04c.01.05.93,7.82.93,7.83s-3.75.01-3.75,0h0Z" fill="#f2f2f2" stroke-width="0"/><path d="m41.89,289.34s-.28-.76-1.52-4.19c-.71-1.96-1.08-2.96-1.24-3.35,0-.01-.09-.06-.2-.1-.15-.06-.24-.08-.41-.08-.16,0-.28.02-.42.07-.4.15-.79.54-.91.93-.05.15-.2,1.08-.34,2.13-.1.78-.26,2.06-.37,3.06-.02.15-.03.27-.03.26,0,0-.04-1.21-.09-2.68-.11-3.31-.12-3.67-.13-3.8v-.11s2.82,0,2.82,0l.08.2c.04.11.7,1.88,1.46,3.93.76,2.05,1.38,3.73,1.38,3.73,0,0-.02,0-.04,0-.03,0-.04,0-.05-.02h0Z" fill="#f2f2f2" stroke-width="0"/><path d="m51.91,293.18v-.11h.2v.08c.02.15.03.14-.09.14h-.11v-.11h0Z" fill="#f7f7f7" stroke-width="0"/><path d="m35.83,293.43h-.01s.08-.08.08-.08v.04c0,.06,0,.06-.04.06-.02,0-.03,0-.04,0h0Z" fill="#f7f7f7" stroke-width="0"/><path d="m17.97,293.43s-.01-.09,0-.09c0,0,.08.07.08.08,0,0,0,0-.01,0,0,0-.02,0-.03,0h-.02Z" fill="#f7f7f7" stroke-width="0"/><path d="m1.74,293.26s0-.06,0-.11v-.08h.21v.22h-.11c-.1,0-.11,0-.11-.03h0Z" fill="#f7f7f7" stroke-width="0"/><path d="m26.33,116.46c-.46.75-.61,2.18-.61,2.18,0,0-.01,3.23,0,4.02,0,.33.43.61.43.61.42,0,1.1,0,1.6,0,0,0,.41-.31.41-.61,0-.86,0-4.02,0-4.02,0,0-.14-1.44-.61-2.18h-1.22Z" fill="#f7f7f7" fill-rule="evenodd" stroke="#000" stroke-linecap="round" stroke-linejoin="round" stroke-width=".24"/><path d="m17.26,119.64c.75.17,1.53-.04,2.1-.56" fill="none" stroke="#000" stroke-width=".32"/><path d="m19.36,121.06c-.67-.23-1.39-.33-2.1-.27" fill="none" stroke="#000" stroke-width=".32"/><path d="m34.51,119.09c.57.51,1.35.72,2.1.56" fill="none" stroke="#000" stroke-width=".32"/><path d="m36.61,120.78c-.71-.05-1.43.04-2.1.27" fill="none" stroke="#000" stroke-width=".32"/><path d="m18.75,120.77c-.2-.05-.58-.1-.84-.1h-.48v-.85l.52-.03c.37-.02.63-.09.9-.22l.37-.19v.75c0,.41-.02.75-.05.74-.03,0-.22-.05-.41-.1h0Z" fill="#f7f7f7" stroke-width="0"/><path d="m34.64,120.12v-.77l.16.1c.3.19.87.34,1.29.34h.42l-.04.83-.61.04c-.34.02-.69.07-.79.1-.47.14-.43.19-.43-.64h0Z" fill="#f7f7f7" stroke-width="0"/><path d="m28.07,242.27h-3.14l-.12.09v2.79h.87v-1.05l.08-.07h2.3c.58,0,.85-.16.85-.56v-.64c0-.4-.27-.56-.85-.56m0,1.03c0,.19-.13.23-.4.23h-1.9l-.09-.09v-.6l.08-.08h1.91c.27,0,.4.04.4.23v.31h0Z" fill="#005288" stroke-width="0"/><polyline points="26.25 248.62 27 249.72 26.96 249.83 25.31 249.83 24.88 250.35 27.35 250.35 27.52 250.45 27.9 250.98 28.89 250.98 26.71 248.06" fill="#005288" stroke-width="0"/><polyline points="25.8 263.18 25.8 262.41 25.88 262.33 27.55 262.33 27.55 261.83 24.91 261.83 24.91 263.75 28.8 263.75 28.8 263.26 25.89 263.26" fill="#005288" stroke-width="0"/><rect x="24.91" y="260.87" width="3.93" height=".54" fill="#005288" stroke-width="0"/><path d="m25.78,254.86h3.17c-.05-.4-.3-.51-.93-.51h-2.27c-.72,0-.94.14-.94.68v1.52c0,.54.23.68.94.68h2.27c.64,0,.89-.12.91-.54h-3.14l-.09-.09v-1.68" fill="#005288" stroke-width="0"/><path d="m28.04,236.75h-2.31l-.07-.07v-.49l.07-.05h3.11l.04-.1c-.11-.27-.38-.4-.89-.4h-2.16c-.72,0-.94.14-.94.68v.32c0,.54.23.68.94.68h2.3l.07.06v.52l-.06.08h-2.63s-.69,0-.69,0c0,0-.08.04-.08.06.06.38.32.49.93.49h2.35c.72,0,.95-.14.95-.68v-.4c0-.54-.24-.68-.95-.68" fill="#005288" stroke-width="0"/><path d="m25.83,267.55h-1.29l-.07.13,1.44,1.05c.27-.16.57-.32.89-.47" fill="#005288" stroke-width="0"/><path d="m26.98,269.52l1.26.92h1.31l.05-.12-1.89-1.38c-.25.18-.5.38-.74.58" fill="#005288" stroke-width="0"/><path d="m25.63,270.44h-1.17l-.1-.15c.8-.77,4.43-3.66,9.16-4.02,0,0-4.14.46-7.89,4.18" fill="#a7a9ac" stroke-width="0"/><rect x="23.2" y="108.94" width="7.47" height="4.2" fill="#b22234" stroke-width="0"/><path d="m23.2,109.43h7.47m0,.65h-7.47m0,.65h7.47m0,.65h-7.47m0,.65h7.47m0,.65h-7.47" stroke="#fff" stroke-miterlimit="10" stroke-width=".3"/><rect x="23.2" y="108.94" width="2.99" height="2.26" fill="#3c3b6e" stroke-width="0"/><path d="m23.45,109.04l.07.23-.19-.14h.23l-.19.14.07-.23Z" fill="#fff" stroke-width="0"/><path id="s" d="m23.45,109.49l.07.23-.19-.14h.23l-.19.14.07-.23Z" fill="#fff" stroke-width="0"/><path id="s-2" d="m23.45,109.95l.07.23-.19-.14h.23l-.19.14.07-.23Z" fill="#fff" stroke-width="0"/><path id="s-3" d="m23.45,110.4l.07.23-.19-.14h.23l-.19.14.07-.23Z" fill="#fff" stroke-width="0"/><path id="s-4" d="m23.45,110.85l.07.23-.19-.14h.23l-.19.14.07-.23Z" fill="#fff" stroke-width="0"/><g id="d"><path id="s-5" d="m23.7,109.27l.07.23-.19-.14h.23l-.19.14.07-.23Z" fill="#fff" stroke-width="0"/><path id="s-6" d="m23.7,109.72l.07.23-.19-.14h.23l-.19.14.07-.23Z" fill="#fff" stroke-width="0"/><path id="s-7" d="m23.7,110.17l.07.23-.19-.14h.23l-.19.14.07-.23Z" fill="#fff" stroke-width="0"/><path id="s-8" d="m23.7,110.62l.07.23-.19-.14h.23l-.19.14.07-.23Z" fill="#fff" stroke-width="0"/></g><g id="a"><g id="c"><g id="d-2"><path id="s-9" d="m23.95,109.04l.07.23-.19-.14h.23l-.19.14.07-.23Z" fill="#fff" stroke-width="0"/><path id="s-10" d="m23.95,109.49l.07.23-.19-.14h.23l-.19.14.07-.23Z" fill="#fff" stroke-width="0"/><path id="s-11" d="m23.95,109.95l.07.23-.19-.14h.23l-.19.14.07-.23Z" fill="#fff" stroke-width="0"/><path id="s-12" d="m23.95,110.4l.07.23-.19-.14h.23l-.19.14.07-.23Z" fill="#fff" stroke-width="0"/></g><path id="s-13" d="m23.95,110.85l.07.23-.19-.14h.23l-.19.14.07-.23Z" fill="#fff" stroke-width="0"/></g><g id="d-3"><path id="s-14" d="m24.2,109.27l.07.23-.19-.14h.23l-.19.14.07-.23Z" fill="#fff" stroke-width="0"/><path id="s-15" d="m24.2,109.72l.07.23-.19-.14h.23l-.19.14.07-.23Z" fill="#fff" stroke-width="0"/><path id="s-16" d="m24.2,110.17l.07.23-.19-.14h.23l-.19.14.07-.23Z" fill="#fff" stroke-width="0"/><path id="s-17" d="m24.2,110.62l.07.23-.19-.14h.23l-.19.14.07-.23Z" fill="#fff" stroke-width="0"/></g></g><g id="e"><g id="a-2"><g id="c-2"><g id="d-4"><path id="s-18" d="m24.45,109.04l.07.23-.19-.14h.23l-.19.14.07-.23Z" fill="#fff" stroke-width="0"/><path id="s-19" d="m24.45,109.49l.07.23-.19-.14h.23l-.19.14.07-.23Z" fill="#fff" stroke-width="0"/><path id="s-20" d="m24.45,109.95l.07.23-.19-.14h.23l-.19.14.07-.23Z" fill="#fff" stroke-width="0"/><path id="s-21" d="m24.45,110.4l.07.23-.19-.14h.23l-.19.14.07-.23Z" fill="#fff" stroke-width="0"/></g><path id="s-22" d="m24.45,110.85l.07.23-.19-.14h.23l-.19.14.07-.23Z" fill="#fff" stroke-width="0"/></g><g id="d-5"><path id="s-23" d="m24.7,109.27l.07.23-.19-.14h.23l-.19.14.07-.23Z" fill="#fff" stroke-width="0"/><path id="s-24" d="m24.7,109.72l.07.23-.19-.14h.23l-.19.14.07-.23Z" fill="#fff" stroke-width="0"/><path id="s-25" d="m24.7,110.17l.07.23-.19-.14h.23l-.19.14.07-.23Z" fill="#fff" stroke-width="0"/><path id="s-26" d="m24.7,110.62l.07.23-.19-.14h.23l-.19.14.07-.23Z" fill="#fff" stroke-width="0"/></g></g><g id="a-3"><g id="c-3"><g id="d-6"><path id="s-27" d="m24.95,109.04l.07.23-.19-.14h.23l-.19.14.07-.23Z" fill="#fff" stroke-width="0"/><path id="s-28" d="m24.95,109.49l.07.23-.19-.14h.23l-.19.14.07-.23Z" fill="#fff" stroke-width="0"/><path id="s-29" d="m24.95,109.95l.07.23-.19-.14h.23l-.19.14.07-.23Z" fill="#fff" stroke-width="0"/><path id="s-30" d="m24.95,110.4l.07.23-.19-.14h.23l-.19.14.07-.23Z" fill="#fff" stroke-width="0"/></g><path id="s-31" d="m24.95,110.85l.07.23-.19-.14h.23l-.19.14.07-.23Z" fill="#fff" stroke-width="0"/></g><g id="d-7"><path id="s-32" d="m25.19,109.27l.07.23-.19-.14h.23l-.19.14.07-.23Z" fill="#fff" stroke-width="0"/><path id="s-33" d="m25.19,109.72l.07.23-.19-.14h.23l-.19.14.07-.23Z" fill="#fff" stroke-width="0"/><path id="s-34" d="m25.19,110.17l.07.23-.19-.14h.23l-.19.14.07-.23Z" fill="#fff" stroke-width="0"/><path id="s-35" d="m25.19,110.62l.07.23-.19-.14h.23l-.19.14.07-.23Z" fill="#fff" stroke-width="0"/></g></g></g><g id="a-4"><g id="c-4"><g id="d-8"><path id="s-36" d="m25.44,109.04l.07.23-.19-.14h.23l-.19.14.07-.23Z" fill="#fff" stroke-width="0"/><path id="s-37" d="m25.44,109.49l.07.23-.19-.14h.23l-.19.14.07-.23Z" fill="#fff" stroke-width="0"/><path id="s-38" d="m25.44,109.95l.07.23-.19-.14h.23l-.19.14.07-.23Z" fill="#fff" stroke-width="0"/><path id="s-39" d="m25.44,110.4l.07.23-.19-.14h.23l-.19.14.07-.23Z" fill="#fff" stroke-width="0"/></g><path id="s-40" d="m25.44,110.85l.07.23-.19-.14h.23l-.19.14.07-.23Z" fill="#fff" stroke-width="0"/></g><g id="d-9"><path id="s-41" d="m25.69,109.27l.07.23-.19-.14h.23l-.19.14.07-.23Z" fill="#fff" stroke-width="0"/><path id="s-42" d="m25.69,109.72l.07.23-.19-.14h.23l-.19.14.07-.23Z" fill="#fff" stroke-width="0"/><path id="s-43" d="m25.69,110.17l.07.23-.19-.14h.23l-.19.14.07-.23Z" fill="#fff" stroke-width="0"/><path id="s-44" d="m25.69,110.62l.07.23-.19-.14h.23l-.19.14.07-.23Z" fill="#fff" stroke-width="0"/></g></g><g id="c-5"><g id="d-10"><path id="s-45" d="m25.94,109.04l.07.23-.19-.14h.23l-.19.14.07-.23Z" fill="#fff" stroke-width="0"/><path id="s-46" d="m25.94,109.49l.07.23-.19-.14h.23l-.19.14.07-.23Z" fill="#fff" stroke-width="0"/><path id="s-47" d="m25.94,109.95l.07.23-.19-.14h.23l-.19.14.07-.23Z" fill="#fff" stroke-width="0"/><path id="s-48" d="m25.94,110.4l.07.23-.19-.14h.23l-.19.14.07-.23Z" fill="#fff" stroke-width="0"/></g><path id="s-49" d="m25.94,110.85l.07.23-.19-.14h.23l-.19.14.07-.23Z" fill="#fff" stroke-width="0"/></g><path d="m24.21,102.66c.31-.13.62-.26.95-.37-3.72-1.57-3.92-2.75-4.69-3.99.59,1.44,1.08,2.87,3.73,4.36h0Z" fill="#a80126" fill-rule="evenodd" stroke-width="0"/><path d="m22.27,100.3c1.42.95,2.64,1.63,3.55,1.83.9-.38,3.86-.59,3.8-.05-.65-.26-1.03-.13-1.4-.04.19,0,.67-.05.82,0-.06.06-.12.08-.19.12.24.04.47.1.65.19.12,0,.2,0,.24.02-.12.03-.28.15-.35.24.82.02,1.7.01,1.79.71.26-.62-.2-.94-1.11-1.08-.12-.21-.31-.39-.5-.6-2.48-.11-4.95-.25-7.31-1.34h0Z" fill="#a80126" fill-rule="evenodd" stroke-width="0"/><path d="m23.51,106.67v-3.04h3.32c-.1.12-.2.23-.33.28h-2.16v.79h1.83c-.06.08-.09.15-.33.28h-1.5v1.01c-.18.23-.29.47-.84.69h0Z" fill-rule="evenodd" stroke-width="0"/><path d="m28.94,104.96h-.91v1.32h-.88v-2.63h.88v1.03h1.21c-.04.07-.1.16-.29.28Z" fill-rule="evenodd" stroke-width="0"/><path d="m30.36,106.66v-3h-.76v2.3c.19.31.41.58.76.7h0Z" fill-rule="evenodd" stroke-width="0"/><g isolation="isolate"><text transform="translate(23.45 107.7)" font-family="ArialMT, Arial" font-size=".74" isolation="isolate"><tspan x="0" y="0" letter-spacing=".11em">F</tspan><tspan x=".53" y="0" letter-spacing=".16em">ALCON HE</tspan><tspan x="5.26" y="0" letter-spacing=".09em">A</tspan><tspan x="5.82" y="0" letter-spacing=".16em">V</tspan><tspan x="6.43" y="0" letter-spacing=".15em">Y</tspan></text></g><path color-rendering="auto" d="m28.17,115.42c-.13,0-.24.12-.23.26s.12.24.26.23h6.84c.13,0,.25-.1.25-.23,0-.13-.1-.25-.23-.25,0,0-.01,0-.02,0h-6.84s-.02,0-.02,0Z" image-rendering="auto" shape-rendering="auto" fill="#fff" fill-rule="evenodd" stroke="#000" stroke-linecap="round" stroke-linejoin="round" stroke-width=".16"/><path d="m36.44,116.35l-1.42-.92v.92h1.42Z" fill="#f0f0f0" fill-rule="evenodd" stroke="#000" stroke-linecap="round" stroke-linejoin="round" stroke-width=".24"/><path color-rendering="auto" d="m18.77,115.42c-.13,0-.24.12-.23.26,0,.13.12.24.26.23h6.84c.13,0,.25-.1.25-.23,0-.13-.1-.25-.23-.25,0,0-.01,0-.02,0h-6.84s-.02,0-.03,0Z" image-rendering="auto" shape-rendering="auto" fill="#fff" fill-rule="evenodd" stroke="#000" stroke-linecap="round" stroke-linejoin="round" stroke-width=".16"/><path d="m17.39,116.35l1.42-.92v.92h-1.42Z" fill="#f0f0f0" fill-rule="evenodd" stroke="#000" stroke-linecap="round" stroke-linejoin="round" stroke-width=".24"/><rect x="9.64" y="116.36" width="34.61" height=".76" fill="#f7f7f7" stroke="#000" stroke-linecap="round" stroke-linejoin="round" stroke-width=".24"/><path d="m43.39,123.27s-.42-.28-.43-.61c-.01-.79,0-4.02,0-4.02,0,0,.25-2.62,1.22-2.62s1.22,2.62,1.22,2.62c0,0,0,3.16,0,4.02,0,.3-.41.61-.41.61-.5,0-1.18,0-1.6,0h0Z" fill="#f7f7f7" fill-rule="evenodd" stroke="#000" stroke-linecap="round" stroke-linejoin="round" stroke-width=".24"/><path d="m8.9,123.27s-.42-.28-.43-.61c-.01-.79,0-4.02,0-4.02,0,0,.25-2.62,1.22-2.62s1.22,2.62,1.22,2.62c0,0,0,3.16,0,4.02,0,.3-.41.61-.41.61-.5,0-1.18,0-1.6,0h0Z" fill="#f7f7f7" fill-rule="evenodd" stroke="#000" stroke-linecap="round" stroke-linejoin="round" stroke-width=".24"/><path d="m17.26,123.24H2.12" fill="none" stroke="#000" stroke-width=".32"/><path d="m19.36,123.24h15.14" fill="none" stroke="#000" stroke-width=".32"/><path d="m51.74,123.24h-15.14" fill="none" stroke="#000" stroke-width=".32"/><path d="m29.03,117.11l-.9-1.64h-2.43l-.9,1.64" fill="none" stroke="#000" stroke-linecap="round" stroke-linejoin="round" stroke-width=".24"/><path d="m25.22,116.34l.47-.88h2.43l.47.86h-3.37Z" fill="#f0f0f0" fill-rule="evenodd" stroke="#000" stroke-linecap="round" stroke-linejoin="round" stroke-width=".24"/><path d="m15.45,294.24h2.63l.46.2h1.45l.39-.43h.67c.2,0,.36.39.36.59v.5c0,.2-.17.7-.36.63h-.64l-.42-.53h-1.46l-.46.27h-2.62c-.2,0-.36-.16-.36-.36v-.5c0-.2.16-.36.36-.36h0Z" fill="#101010" fill-rule="evenodd" stroke="#000" stroke-linecap="round" stroke-linejoin="round" stroke-width=".32"/><path d="m38.41,294.24h-2.63l-.46.2h-1.45l-.39-.43h-.67c-.2,0-.36.39-.36.59v.5c0,.2.17.7.36.63h.64l.42-.53h1.46l.46.27h2.62c.2,0,.36-.16.36-.36v-.5c0-.2-.16-.36-.36-.36h0Z" fill="#101010" fill-rule="evenodd" stroke="#000" stroke-linecap="round" stroke-linejoin="round" stroke-width=".32"/><path d="m34.74,127.55l.03-5.2-.86-1.27.03-1.37-.69-1.29-.23-.74-.56-.2-.56.05-.33.1-.3.81-.18.89-.03.76v.81l.08.58-.66.74v5.25l.51.1,3.76-.03Z" fill="#fff" fill-rule="evenodd" stroke="#040404" stroke-linecap="round" stroke-linejoin="round" stroke-width=".16"/><path d="m30.99,122.34v5.22h3.75v-5.2l-.76-1.31h-1.79l-1.2,1.29Z" fill="none" stroke="#040404" stroke-linecap="square" stroke-linejoin="round" stroke-width=".16"/><path d="m33.94,127.46v-7.7l-.63-1.26c-.73-.34-1.36-.22-1.9.25l.09,2.35" fill="none" stroke="#040404" stroke-linecap="square" stroke-linejoin="round" stroke-width=".16"/><path d="m32.27,121.09v6.45" fill="none" stroke="#040404" stroke-linecap="square" stroke-linejoin="round" stroke-width=".16"/><path d="m32.22,121.07l-.61-.02-1.11,1.2v5.25l.51.05" fill="none" stroke="#040404" stroke-linecap="square" stroke-linejoin="round" stroke-width=".16"/><path d="m32.16,121.04l-.02-1.29-.7-.9" fill="none" stroke="#040404" stroke-linecap="square" stroke-linejoin="round" stroke-width=".16"/><path d="m33.33,118.5l-.32-.79c-.4-.24-.89-.23-1.44-.09-.54,1.23-.59,2.52-.41,3.84" fill="none" stroke="#040404" stroke-linecap="square" stroke-linejoin="round" stroke-width=".16"/><path d="m33.9,119.66c-.66-.27-1.22-.23-1.74-.02" fill="none" stroke="#040404" stroke-linecap="round" stroke-linejoin="round" stroke-width=".16"/><path d="m32.28,127.55l-1.28-1.4" fill="#fff" fill-rule="evenodd" stroke="#040404" stroke-linecap="round" stroke-linejoin="round" stroke-width=".16"/><path d="m33.43,127.55l-2.42-3.06" fill="#fff" fill-rule="evenodd" stroke="#040404" stroke-linecap="round" stroke-linejoin="round" stroke-width=".16"/><path d="m31,122.99l3.57,4.53" fill="#fff" fill-rule="evenodd" stroke="#040404" stroke-linecap="round" stroke-linejoin="round" stroke-width=".16"/><path d="m31.36,121.98l3.36,4.3" fill="#fff" fill-rule="evenodd" stroke="#040404" stroke-linecap="round" stroke-linejoin="round" stroke-width=".16"/><path d="m32.03,121.26l2.72,3.55" fill="#fff" fill-rule="evenodd" stroke="#040404" stroke-linecap="round" stroke-linejoin="round" stroke-width=".16"/><path d="m33.08,121.08l1.66,2.13" fill="#fff" fill-rule="evenodd" stroke="#040404" stroke-linecap="round" stroke-linejoin="round" stroke-width=".16"/><path d="m32.83,127.54l1.91-2.71" fill="#fff" fill-rule="evenodd" stroke="#040404" stroke-linecap="round" stroke-linejoin="round" stroke-width=".16"/><path d="m34.69,126.31l-.79,1.24" fill="#fff" fill-rule="evenodd" stroke="#040404" stroke-linecap="round" stroke-linejoin="round" stroke-width=".16"/><path d="m31.57,127.54l3.14-4.1" fill="#fff" fill-rule="evenodd" stroke="#040404" stroke-linecap="round" stroke-linejoin="round" stroke-width=".16"/><path d="m31.01,126.76l3.6-4.57" fill="#fff" fill-rule="evenodd" stroke="#040404" stroke-linecap="round" stroke-linejoin="round" stroke-width=".16"/><path d="m31.01,125.16l3.15-3.7" fill="#fff" fill-rule="evenodd" stroke="#040404" stroke-linecap="round" stroke-linejoin="round" stroke-width=".16"/><path d="m30.99,123.69l2.28-2.59" fill="#fff" fill-rule="evenodd" stroke="#040404" stroke-linecap="round" stroke-linejoin="round" stroke-width=".16"/><path d="m30.49,122.24l.5.1" fill="#ccc" fill-rule="evenodd" stroke="#040404" stroke-linecap="round" stroke-linejoin="round" stroke-width=".16"/><path d="m19.13,127.55l-.03-5.2.86-1.27-.03-1.37.69-1.29.23-.74.56-.2.56.05.33.1.3.81.18.89.03.76v.81l-.08.58.66.74v5.25l-.51.1-3.76-.03Z" fill="#fff" fill-rule="evenodd" stroke="#040404" stroke-linecap="round" stroke-linejoin="round" stroke-width=".16"/><path d="m22.89,122.34v5.22h-3.75v-5.2l.76-1.31h1.79l1.2,1.29Z" fill="none" stroke="#040404" stroke-linecap="square" stroke-linejoin="round" stroke-width=".16"/><path d="m19.94,127.46v-7.7l.63-1.26c.73-.34,1.36-.22,1.9.25l-.09,2.35" fill="none" stroke="#040404" stroke-linecap="square" stroke-linejoin="round" stroke-width=".16"/><path d="m21.6,121.09v6.45" fill="none" stroke="#040404" stroke-linecap="square" stroke-linejoin="round" stroke-width=".16"/><path d="m21.66,121.07l.61-.02,1.11,1.2v5.25l-.51.05" fill="none" stroke="#040404" stroke-linecap="square" stroke-linejoin="round" stroke-width=".16"/><path d="m21.72,121.04l.02-1.29.7-.9" fill="none" stroke="#040404" stroke-linecap="square" stroke-linejoin="round" stroke-width=".16"/><path d="m20.55,118.5l.32-.79c.4-.24.89-.23,1.44-.09.54,1.23.59,2.52.41,3.84" fill="none" stroke="#040404" stroke-linecap="square" stroke-linejoin="round" stroke-width=".16"/><path d="m19.98,119.66c.66-.27,1.22-.23,1.74-.02" fill="none" stroke="#040404" stroke-linecap="round" stroke-linejoin="round" stroke-width=".16"/><path d="m21.6,127.55l1.28-1.4" fill="#fff" fill-rule="evenodd" stroke="#040404" stroke-linecap="round" stroke-linejoin="round" stroke-width=".16"/><path d="m20.45,127.55l2.42-3.06" fill="#fff" fill-rule="evenodd" stroke="#040404" stroke-linecap="round" stroke-linejoin="round" stroke-width=".16"/><path d="m22.88,122.99l-3.57,4.53" fill="#fff" fill-rule="evenodd" stroke="#040404" stroke-linecap="round" stroke-linejoin="round" stroke-width=".16"/><path d="m22.52,121.98l-3.36,4.3" fill="#fff" fill-rule="evenodd" stroke="#040404" stroke-linecap="round" stroke-linejoin="round" stroke-width=".16"/><path d="m21.85,121.26l-2.72,3.55" fill="#fff" fill-rule="evenodd" stroke="#040404" stroke-linecap="round" stroke-linejoin="round" stroke-width=".16"/><path d="m20.8,121.08l-1.66,2.13" fill="#fff" fill-rule="evenodd" stroke="#040404" stroke-linecap="round" stroke-linejoin="round" stroke-width=".16"/><path d="m21.04,127.54l-1.91-2.71" fill="#fff" fill-rule="evenodd" stroke="#040404" stroke-linecap="round" stroke-linejoin="round" stroke-width=".16"/><path d="m19.18,126.31l.79,1.24" fill="#fff" fill-rule="evenodd" stroke="#040404" stroke-linecap="round" stroke-linejoin="round" stroke-width=".16"/><path d="m22.3,127.54l-3.14-4.1" fill="#fff" fill-rule="evenodd" stroke="#040404" stroke-linecap="round" stroke-linejoin="round" stroke-width=".16"/><path d="m22.86,126.76l-3.6-4.57" fill="#fff" fill-rule="evenodd" stroke="#040404" stroke-linecap="round" stroke-linejoin="round" stroke-width=".16"/><path d="m22.86,125.16l-3.15-3.7" fill="#fff" fill-rule="evenodd" stroke="#040404" stroke-linecap="round" stroke-linejoin="round" stroke-width=".16"/><path d="m22.89,123.69l-2.28-2.59" fill="#fff" fill-rule="evenodd" stroke="#040404" stroke-linecap="round" stroke-linejoin="round" stroke-width=".16"/><path d="m23.39,122.24l-.5.1" fill="#ccc" fill-rule="evenodd" stroke="#040404" stroke-linecap="round" stroke-linejoin="round" stroke-width=".16"/><path d="m15.61,118.7l.71.54.18.73-.47.6-.87.04-.86-.79.07-.78.49-.45.74.11Z" fill="#f9f9f9" fill-rule="evenodd" stroke-width="0"/><path d="m14.23,120.69l-.43-.05-1.05,1.29-.02.75-.13.63.16.68-.15.75.1.63-.12.56.16.56-.15.66.07.45-.05.66.53.16-.02-6.43,1.08-1.31Z" fill="#474747" fill-rule="evenodd" stroke-width="0"/><path d="m13.15,128.46l4.77-.03v-6.45l-1.39-2.11-.56.79-.74.05-.3-.29-.45-.22-.23.53-1.09,1.24v6.48Z" fill="#ececec" fill-rule="evenodd" stroke-width="0"/><path d="m13.18,122v6.39h4.7l-4.7-6.39,1.06-1.32.31-.81" fill="none" stroke="#000" stroke-linecap="round" stroke-linejoin="round" stroke-width=".31"/><path d="m13.18,123.48l3.68,4.89" fill="none" stroke="#000" stroke-linecap="round" stroke-linejoin="round" stroke-width=".31"/><path d="m15.9,128.37l-2.71-3.57" fill="none" stroke="#000" stroke-linecap="round" stroke-linejoin="round" stroke-width=".31"/><path d="m15,128.35l-1.82-2.23" fill="none" stroke="#000" stroke-linecap="round" stroke-linejoin="round" stroke-width=".31"/><path d="m14.04,128.39l-.85-1.08" fill="none" stroke="#000" stroke-linecap="round" stroke-linejoin="round" stroke-width=".31"/><path d="m17.88,128.38v-6.41l-.93-1.4" fill="none" stroke="#000" stroke-linecap="round" stroke-linejoin="round" stroke-width=".31"/><path d="m13.19,128.39l4.67-6.4" fill="none" stroke="#000" stroke-linecap="round" stroke-linejoin="round" stroke-width=".31"/><path d="m17.88,123.48l-3.68,4.89" fill="none" stroke="#000" stroke-linecap="round" stroke-linejoin="round" stroke-width=".31"/><path d="m15.14,128.37l2.71-3.57" fill="none" stroke="#000" stroke-linecap="round" stroke-linejoin="round" stroke-width=".31"/><path d="m16.06,128.35l1.81-2.21" fill="none" stroke="#000" stroke-linecap="round" stroke-linejoin="round" stroke-width=".31"/><path d="m15,128.35l-1.82-2.23" fill="none" stroke="#000" stroke-linecap="round" stroke-linejoin="round" stroke-width=".31"/><path d="m17.02,128.39l.85-1.08" fill="none" stroke="#000" stroke-linecap="round" stroke-linejoin="round" stroke-width=".31"/><path d="m13.19,127.17l4.23-5.89" fill="none" stroke="#000" stroke-linecap="round" stroke-linejoin="round" stroke-width=".31"/><path d="m13.17,125.95l3.34-4.76" fill="none" stroke="#000" stroke-linecap="round" stroke-linejoin="round" stroke-width=".31"/><path d="m17.88,127.14l-4.17-5.79" fill="none" stroke="#000" stroke-linecap="round" stroke-linejoin="round" stroke-width=".31"/><path d="m17.88,125.87l-3.23-4.61" fill="none" stroke="#000" stroke-linecap="round" stroke-linejoin="round" stroke-width=".31"/><path d="m13.16,124.6l2.39-3.4,1.01-1.23" fill="none" stroke="#000" stroke-linecap="round" stroke-linejoin="round" stroke-width=".31"/><path d="m17.9,124.6l-2.34-3.43-1.02-1.31" fill="none" stroke="#000" stroke-linecap="round" stroke-linejoin="round" stroke-width=".31"/><path d="m13.18,123.31l1.46-2.03" fill="none" stroke="#000" stroke-linecap="round" stroke-linejoin="round" stroke-width=".31"/><path d="m17.86,123.28l-1.35-2.1" fill="none" stroke="#000" stroke-linecap="round" stroke-linejoin="round" stroke-width=".31"/><path d="m16.98,120.6h-.19s-.27.58-.27.58l.07-.63-.02-.61.41.65Z" fill="#474747" fill-rule="evenodd" stroke="#000" stroke-linecap="round" stroke-linejoin="round" stroke-width=".31"/><path d="m14.23,120.68l.16.02.25.58-.09-.71v-.68s-.32.8-.32.8Z" fill="#474747" fill-rule="evenodd" stroke="#000" stroke-linecap="round" stroke-linejoin="round" stroke-width=".31"/><path d="m15.52,119.93v.58h-.1s-.2.2-.2.2l.34.46.42-.41-.18-.22-.1-.02v-.59s-.18,0-.18,0Z" fill="#474747" fill-rule="evenodd" stroke="#000" stroke-linecap="round" stroke-linejoin="round" stroke-width=".31"/><path d="m15.2,120.74l-.6.06" fill="none" stroke="#000" stroke-linecap="round" stroke-linejoin="round" stroke-width=".31"/><path d="m16,120.74l.57.06" fill="none" stroke="#000" stroke-linecap="round" stroke-linejoin="round" stroke-width=".31"/><path d="m14.26,120.65l-.46-.04s-.09.25-.19.36-.42.22-.42.22c0,0,0,.22-.07.35-.08.13-.43.33-.43.33,0,0,.11.44.09.66-.02.23-.21.66-.21.66,0,0,.2.46.2.69s-.19.65-.19.65c0,0,.16.5.16.74s-.13.64-.13.64c0,0,.17.44.16.66s-.2.58-.2.58c0,0,.16.39.16.57,0,.19-.16.49-.16.49l.58.17" fill="none" stroke="#000" stroke-linecap="round" stroke-linejoin="round" stroke-width=".31"/><path d="m12.7,121.89l.44.1" fill="none" stroke="#000" stroke-linecap="round" stroke-linejoin="round" stroke-width=".31"/><path d="m13.7,121.38l-.06,1.26" fill="none" stroke="#000" stroke-linecap="round" stroke-linejoin="round" stroke-width=".31"/><path d="m14.64,121.33l-.06,1.18" fill="none" stroke="#000" stroke-linecap="round" stroke-linejoin="round" stroke-width=".31"/><path d="m16.5,121.25v1.26" fill="none" stroke="#000" stroke-linecap="round" stroke-linejoin="round" stroke-width=".31"/><path d="m17.42,121.31v1.27" fill="none" stroke="#000" stroke-linecap="round" stroke-linejoin="round" stroke-width=".31"/><path d="m16.04,118.97s-.4-.3-.53-.34c-.16-.05-.33-.08-.49-.05-.15.02-.3.07-.41.16-.11.09-.17.23-.21.36-.05.15-.07.31-.08.47-.02.15-.02.45-.02.45l.38.34" fill="none" stroke="#000" stroke-linecap="round" stroke-linejoin="round" stroke-width=".31"/><path d="m14.71,119.86s0-.29.07-.41c.07-.17.19-.34.35-.43.13-.08.29-.07.44-.07.15,0,.3-.02.44.04.13.05.26.14.35.25.06.08.07.19.1.29.04.15.07.45.07.45" fill="none" stroke="#000" stroke-linecap="round" stroke-linejoin="round" stroke-width=".31"/><path d="m3.79,118.7l-.71.54-.18.73.47.6.87.04.86-.79-.07-.78-.49-.45-.74.11Z" fill="#f9f9f9" fill-rule="evenodd" stroke-width="0"/><path d="m5.17,120.69l.43-.05,1.05,1.29.02.75.13.63-.16.68.15.75-.1.63.12.56-.16.56.15.66-.07.45.05.66-.53.16.02-6.43-1.08-1.31Z" fill="#474747" fill-rule="evenodd" stroke-width="0"/><path d="m6.25,128.46l-4.77-.03v-6.45l1.39-2.11.56.79.74.05.3-.29.45-.22.23.53,1.09,1.24v6.48Z" fill="#ececec" fill-rule="evenodd" stroke-width="0"/><path d="m6.22,122v6.39H1.52l4.7-6.39-1.06-1.32-.31-.81" fill="none" stroke="#000" stroke-linecap="round" stroke-linejoin="round" stroke-width=".31"/><path d="m6.22,123.48l-3.68,4.89" fill="none" stroke="#000" stroke-linecap="round" stroke-linejoin="round" stroke-width=".31"/><path d="m3.5,128.37l2.71-3.57" fill="none" stroke="#000" stroke-linecap="round" stroke-linejoin="round" stroke-width=".31"/><path d="m4.4,128.35l1.82-2.23" fill="none" stroke="#000" stroke-linecap="round" stroke-linejoin="round" stroke-width=".31"/><path d="m5.36,128.39l.85-1.08" fill="none" stroke="#000" stroke-linecap="round" stroke-linejoin="round" stroke-width=".31"/><path d="m1.52,128.38v-6.41l.93-1.4" fill="none" stroke="#000" stroke-linecap="round" stroke-linejoin="round" stroke-width=".31"/><path d="m6.21,128.39l-4.67-6.4" fill="none" stroke="#000" stroke-linecap="round" stroke-linejoin="round" stroke-width=".31"/><path d="m1.52,123.48l3.68,4.89" fill="none" stroke="#000" stroke-linecap="round" stroke-linejoin="round" stroke-width=".31"/><path d="m4.26,128.37l-2.71-3.57" fill="none" stroke="#000" stroke-linecap="round" stroke-linejoin="round" stroke-width=".31"/><path d="m3.34,128.35l-1.81-2.21" fill="none" stroke="#000" stroke-linecap="round" stroke-linejoin="round" stroke-width=".31"/><path d="m4.4,128.35l1.82-2.23" fill="none" stroke="#000" stroke-linecap="round" stroke-linejoin="round" stroke-width=".31"/><path d="m2.38,128.39l-.85-1.08" fill="none" stroke="#000" stroke-linecap="round" stroke-linejoin="round" stroke-width=".31"/><path d="m6.21,127.17l-4.23-5.89" fill="none" stroke="#000" stroke-linecap="round" stroke-linejoin="round" stroke-width=".31"/><path d="m6.23,125.95l-3.34-4.76" fill="none" stroke="#000" stroke-linecap="round" stroke-linejoin="round" stroke-width=".31"/><path d="m1.52,127.14l4.17-5.79" fill="none" stroke="#000" stroke-linecap="round" stroke-linejoin="round" stroke-width=".31"/><path d="m1.52,125.87l3.23-4.61" fill="none" stroke="#000" stroke-linecap="round" stroke-linejoin="round" stroke-width=".31"/><path d="m6.24,124.6l-2.39-3.4-1.01-1.23" fill="none" stroke="#000" stroke-linecap="round" stroke-linejoin="round" stroke-width=".31"/><path d="m1.5,124.6l2.34-3.43,1.02-1.31" fill="none" stroke="#000" stroke-linecap="round" stroke-linejoin="round" stroke-width=".31"/><path d="m6.22,123.31l-1.46-2.03" fill="none" stroke="#000" stroke-linecap="round" stroke-linejoin="round" stroke-width=".31"/><path d="m1.54,123.28l1.35-2.1" fill="none" stroke="#000" stroke-linecap="round" stroke-linejoin="round" stroke-width=".31"/><path d="m2.42,120.6h.19s.27.58.27.58l-.07-.63.02-.61-.41.65Z" fill="#474747" fill-rule="evenodd" stroke="#000" stroke-linecap="round" stroke-linejoin="round" stroke-width=".31"/><path d="m5.17,120.68l-.16.02-.25.58.09-.71v-.68s.32.8.32.8Z" fill="#474747" fill-rule="evenodd" stroke="#000" stroke-linecap="round" stroke-linejoin="round" stroke-width=".31"/><path d="m3.88,119.93v.58h.1s.2.2.2.2l-.34.46-.42-.41.18-.22.1-.02v-.59s.18,0,.18,0Z" fill="#474747" fill-rule="evenodd" stroke="#000" stroke-linecap="round" stroke-linejoin="round" stroke-width=".31"/><path d="m4.19,120.74l.6.06" fill="none" stroke="#000" stroke-linecap="round" stroke-linejoin="round" stroke-width=".31"/><path d="m3.4,120.74l-.57.06" fill="none" stroke="#000" stroke-linecap="round" stroke-linejoin="round" stroke-width=".31"/><path d="m5.14,120.65l.46-.04s.09.25.19.36.42.22.42.22c0,0,0,.22.07.35.08.13.43.33.43.33,0,0-.11.44-.09.66.02.23.21.66.21.66,0,0-.2.46-.2.69s.19.65.19.65c0,0-.16.5-.16.74s.13.64.13.64c0,0-.17.44-.16.66s.2.58.2.58c0,0-.16.39-.16.57,0,.19.16.49.16.49l-.58.17" fill="none" stroke="#000" stroke-linecap="round" stroke-linejoin="round" stroke-width=".31"/><path d="m6.7,121.89l-.44.1" fill="none" stroke="#000" stroke-linecap="round" stroke-linejoin="round" stroke-width=".31"/><path d="m5.7,121.38l.06,1.26" fill="none" stroke="#000" stroke-linecap="round" stroke-linejoin="round" stroke-width=".31"/><path d="m4.76,121.33l.06,1.18" fill="none" stroke="#000" stroke-linecap="round" stroke-linejoin="round" stroke-width=".31"/><path d="m2.9,121.25v1.26" fill="none" stroke="#000" stroke-linecap="round" stroke-linejoin="round" stroke-width=".31"/><path d="m1.98,121.31v1.27" fill="none" stroke="#000" stroke-linecap="round" stroke-linejoin="round" stroke-width=".31"/><path d="m3.36,118.97s.4-.3.53-.34c.16-.05.33-.08.49-.05.15.02.3.07.41.16.11.09.17.23.21.36.05.15.07.31.08.47.02.15.02.45.02.45l-.38.34" fill="none" stroke="#000" stroke-linecap="round" stroke-linejoin="round" stroke-width=".31"/><path d="m4.69,119.86s0-.29-.07-.41c-.07-.17-.19-.34-.35-.43-.13-.08-.29-.07-.44-.07-.15,0-.3-.02-.44.04-.13.05-.26.14-.35.25-.06.08-.07.19-.1.29-.04.15-.07.45-.07.45" fill="none" stroke="#000" stroke-linecap="round" stroke-linejoin="round" stroke-width=".31"/><path d="m50.07,118.7l.71.54.18.73-.47.6-.87.04-.86-.79.07-.78.49-.45.74.11Z" fill="#f9f9f9" fill-rule="evenodd" stroke-width="0"/><path d="m48.69,120.69l-.43-.05-1.05,1.29-.02.75-.13.63.16.68-.15.75.1.63-.12.56.16.56-.15.66.07.45-.05.66.53.16-.02-6.43,1.08-1.31Z" fill="#474747" fill-rule="evenodd" stroke-width="0"/><path d="m47.61,128.46l4.77-.03v-6.45l-1.39-2.11-.56.79-.74.05-.3-.29-.45-.22-.23.53-1.09,1.24v6.48Z" fill="#ececec" fill-rule="evenodd" stroke-width="0"/><path d="m47.64,122v6.39h4.7l-4.7-6.39,1.06-1.32.31-.81" fill="none" stroke="#000" stroke-linecap="round" stroke-linejoin="round" stroke-width=".31"/><path d="m47.64,123.48l3.68,4.89" fill="none" stroke="#000" stroke-linecap="round" stroke-linejoin="round" stroke-width=".31"/><path d="m50.36,128.37l-2.71-3.57" fill="none" stroke="#000" stroke-linecap="round" stroke-linejoin="round" stroke-width=".31"/><path d="m49.46,128.35l-1.82-2.23" fill="none" stroke="#000" stroke-linecap="round" stroke-linejoin="round" stroke-width=".31"/><path d="m48.5,128.39l-.85-1.08" fill="none" stroke="#000" stroke-linecap="round" stroke-linejoin="round" stroke-width=".31"/><path d="m52.34,128.38v-6.41l-.93-1.4" fill="none" stroke="#000" stroke-linecap="round" stroke-linejoin="round" stroke-width=".31"/><path d="m47.65,128.39l4.67-6.4" fill="none" stroke="#000" stroke-linecap="round" stroke-linejoin="round" stroke-width=".31"/><path d="m52.34,123.48l-3.68,4.89" fill="none" stroke="#000" stroke-linecap="round" stroke-linejoin="round" stroke-width=".31"/><path d="m49.6,128.37l2.71-3.57" fill="none" stroke="#000" stroke-linecap="round" stroke-linejoin="round" stroke-width=".31"/><path d="m50.52,128.35l1.81-2.21" fill="none" stroke="#000" stroke-linecap="round" stroke-linejoin="round" stroke-width=".31"/><path d="m49.46,128.35l-1.82-2.23" fill="none" stroke="#000" stroke-linecap="round" stroke-linejoin="round" stroke-width=".31"/><path d="m51.48,128.39l.85-1.08" fill="none" stroke="#000" stroke-linecap="round" stroke-linejoin="round" stroke-width=".31"/><path d="m47.65,127.17l4.23-5.89" fill="none" stroke="#000" stroke-linecap="round" stroke-linejoin="round" stroke-width=".31"/><path d="m47.63,125.95l3.34-4.76" fill="none" stroke="#000" stroke-linecap="round" stroke-linejoin="round" stroke-width=".31"/><path d="m52.34,127.14l-4.17-5.79" fill="none" stroke="#000" stroke-linecap="round" stroke-linejoin="round" stroke-width=".31"/><path d="m52.34,125.87l-3.23-4.61" fill="none" stroke="#000" stroke-linecap="round" stroke-linejoin="round" stroke-width=".31"/><path d="m47.62,124.6l2.39-3.4,1.01-1.23" fill="none" stroke="#000" stroke-linecap="round" stroke-linejoin="round" stroke-width=".31"/><path d="m52.36,124.6l-2.34-3.43-1.02-1.31" fill="none" stroke="#000" stroke-linecap="round" stroke-linejoin="round" stroke-width=".31"/><path d="m47.64,123.31l1.46-2.03" fill="none" stroke="#000" stroke-linecap="round" stroke-linejoin="round" stroke-width=".31"/><path d="m52.32,123.28l-1.35-2.1" fill="none" stroke="#000" stroke-linecap="round" stroke-linejoin="round" stroke-width=".31"/><path d="m51.44,120.6h-.19s-.27.58-.27.58l.07-.63-.02-.61.41.65Z" fill="#474747" fill-rule="evenodd" stroke="#000" stroke-linecap="round" stroke-linejoin="round" stroke-width=".31"/><path d="m48.69,120.68l.16.02.25.58-.09-.71v-.68s-.32.8-.32.8Z" fill="#474747" fill-rule="evenodd" stroke="#000" stroke-linecap="round" stroke-linejoin="round" stroke-width=".31"/><path d="m49.98,119.93v.58h-.1s-.2.2-.2.2l.34.46.42-.41-.18-.22-.1-.02v-.59s-.18,0-.18,0Z" fill="#474747" fill-rule="evenodd" stroke="#000" stroke-linecap="round" stroke-linejoin="round" stroke-width=".31"/><path d="m49.67,120.74l-.6.06" fill="none" stroke="#000" stroke-linecap="round" stroke-linejoin="round" stroke-width=".31"/><path d="m50.46,120.74l.57.06" fill="none" stroke="#000" stroke-linecap="round" stroke-linejoin="round" stroke-width=".31"/><path d="m48.72,120.65l-.46-.04s-.09.25-.19.36-.42.22-.42.22c0,0,0,.22-.07.35-.08.13-.43.33-.43.33,0,0,.11.44.09.66-.02.23-.21.66-.21.66,0,0,.2.46.2.69s-.19.65-.19.65c0,0,.16.5.16.74s-.13.64-.13.64c0,0,.17.44.16.66s-.2.58-.2.58c0,0,.16.39.16.57,0,.19-.16.49-.16.49l.58.17" fill="none" stroke="#000" stroke-linecap="round" stroke-linejoin="round" stroke-width=".31"/><path d="m47.16,121.89l.44.1" fill="none" stroke="#000" stroke-linecap="round" stroke-linejoin="round" stroke-width=".31"/><path d="m48.16,121.38l-.06,1.26" fill="none" stroke="#000" stroke-linecap="round" stroke-linejoin="round" stroke-width=".31"/><path d="m49.1,121.33l-.06,1.18" fill="none" stroke="#000" stroke-linecap="round" stroke-linejoin="round" stroke-width=".31"/><path d="m50.96,121.25v1.26" fill="none" stroke="#000" stroke-linecap="round" stroke-linejoin="round" stroke-width=".31"/><path d="m51.88,121.31v1.27" fill="none" stroke="#000" stroke-linecap="round" stroke-linejoin="round" stroke-width=".31"/><path d="m50.5,118.97s-.4-.3-.53-.34c-.16-.05-.33-.08-.49-.05-.15.02-.3.07-.41.16-.11.09-.17.23-.21.36-.05.15-.07.31-.08.47-.02.15-.02.45-.02.45l.38.34" fill="none" stroke="#000" stroke-linecap="round" stroke-linejoin="round" stroke-width=".31"/><path d="m49.17,119.86s0-.29.07-.41c.07-.17.19-.34.35-.43.13-.08.29-.07.44-.07.15,0,.3-.02.44.04.13.05.26.14.35.25.06.08.07.19.1.29.04.15.07.45.07.45" fill="none" stroke="#000" stroke-linecap="round" stroke-linejoin="round" stroke-width=".31"/><path d="m38.25,118.7l-.71.54-.18.73.47.6.87.04.86-.79-.07-.78-.49-.45-.74.11Z" fill="#f9f9f9" fill-rule="evenodd" stroke-width="0"/><path d="m39.63,120.69l.43-.05,1.05,1.29.02.75.13.63-.16.68.15.75-.1.63.12.56-.16.56.15.66-.07.45.05.66-.53.16.02-6.43-1.08-1.31Z" fill="#474747" fill-rule="evenodd" stroke-width="0"/><path d="m40.71,128.46l-4.77-.03v-6.45l1.39-2.11.56.79.74.05.3-.29.45-.22.23.53,1.09,1.24v6.48Z" fill="#ececec" fill-rule="evenodd" stroke-width="0"/><path d="m40.68,122v6.39h-4.7l4.7-6.39-1.06-1.32-.31-.81" fill="none" stroke="#000" stroke-linecap="round" stroke-linejoin="round" stroke-width=".31"/><path d="m40.68,123.48l-3.68,4.89" fill="none" stroke="#000" stroke-linecap="round" stroke-linejoin="round" stroke-width=".31"/><path d="m37.96,128.37l2.71-3.57" fill="none" stroke="#000" stroke-linecap="round" stroke-linejoin="round" stroke-width=".31"/><path d="m38.86,128.35l1.82-2.23" fill="none" stroke="#000" stroke-linecap="round" stroke-linejoin="round" stroke-width=".31"/><path d="m39.82,128.39l.85-1.08" fill="none" stroke="#000" stroke-linecap="round" stroke-linejoin="round" stroke-width=".31"/><path d="m35.98,128.38v-6.41l.93-1.4" fill="none" stroke="#000" stroke-linecap="round" stroke-linejoin="round" stroke-width=".31"/><path d="m40.67,128.39l-4.67-6.4" fill="none" stroke="#000" stroke-linecap="round" stroke-linejoin="round" stroke-width=".31"/><path d="m35.98,123.48l3.68,4.89" fill="none" stroke="#000" stroke-linecap="round" stroke-linejoin="round" stroke-width=".31"/><path d="m38.72,128.37l-2.71-3.57" fill="none" stroke="#000" stroke-linecap="round" stroke-linejoin="round" stroke-width=".31"/><path d="m37.8,128.35l-1.81-2.21" fill="none" stroke="#000" stroke-linecap="round" stroke-linejoin="round" stroke-width=".31"/><path d="m38.86,128.35l1.82-2.23" fill="none" stroke="#000" stroke-linecap="round" stroke-linejoin="round" stroke-width=".31"/><path d="m36.84,128.39l-.85-1.08" fill="none" stroke="#000" stroke-linecap="round" stroke-linejoin="round" stroke-width=".31"/><path d="m40.67,127.17l-4.23-5.89" fill="none" stroke="#000" stroke-linecap="round" stroke-linejoin="round" stroke-width=".31"/><path d="m40.69,125.95l-3.34-4.76" fill="none" stroke="#000" stroke-linecap="round" stroke-linejoin="round" stroke-width=".31"/><path d="m35.98,127.14l4.17-5.79" fill="none" stroke="#000" stroke-linecap="round" stroke-linejoin="round" stroke-width=".31"/><path d="m35.98,125.87l3.23-4.61" fill="none" stroke="#000" stroke-linecap="round" stroke-linejoin="round" stroke-width=".31"/><path d="m40.7,124.6l-2.39-3.4-1.01-1.23" fill="none" stroke="#000" stroke-linecap="round" stroke-linejoin="round" stroke-width=".31"/><path d="m35.96,124.6l2.34-3.43,1.02-1.31" fill="none" stroke="#000" stroke-linecap="round" stroke-linejoin="round" stroke-width=".31"/><path d="m40.68,123.31l-1.46-2.03" fill="none" stroke="#000" stroke-linecap="round" stroke-linejoin="round" stroke-width=".31"/><path d="m36,123.28l1.35-2.1" fill="none" stroke="#000" stroke-linecap="round" stroke-linejoin="round" stroke-width=".31"/><path d="m36.88,120.6h.19s.27.58.27.58l-.07-.63.02-.61-.41.65Z" fill="#474747" fill-rule="evenodd" stroke="#000" stroke-linecap="round" stroke-linejoin="round" stroke-width=".31"/><path d="m39.63,120.68l-.16.02-.25.58.09-.71v-.68s.32.8.32.8Z" fill="#474747" fill-rule="evenodd" stroke="#000" stroke-linecap="round" stroke-linejoin="round" stroke-width=".31"/><path d="m38.34,119.93v.58h.1s.2.2.2.2l-.34.46-.42-.41.18-.22.1-.02v-.59s.18,0,.18,0Z" fill="#474747" fill-rule="evenodd" stroke="#000" stroke-linecap="round" stroke-linejoin="round" stroke-width=".31"/><path d="m38.65,120.74l.6.06" fill="none" stroke="#000" stroke-linecap="round" stroke-linejoin="round" stroke-width=".31"/><path d="m37.86,120.74l-.57.06" fill="none" stroke="#000" stroke-linecap="round" stroke-linejoin="round" stroke-width=".31"/><path d="m39.6,120.65l.46-.04s.09.25.19.36.42.22.42.22c0,0,0,.22.07.35.08.13.43.33.43.33,0,0-.11.44-.09.66.02.23.21.66.21.66,0,0-.2.46-.2.69s.19.65.19.65c0,0-.16.5-.16.74s.13.64.13.64c0,0-.17.44-.16.66s.2.58.2.58c0,0-.16.39-.16.57,0,.19.16.49.16.49l-.58.17" fill="none" stroke="#000" stroke-linecap="round" stroke-linejoin="round" stroke-width=".31"/><path d="m41.16,121.89l-.44.1" fill="none" stroke="#000" stroke-linecap="round" stroke-linejoin="round" stroke-width=".31"/><path d="m40.16,121.38l.06,1.26" fill="none" stroke="#000" stroke-linecap="round" stroke-linejoin="round" stroke-width=".31"/><path d="m39.22,121.33l.06,1.18" fill="none" stroke="#000" stroke-linecap="round" stroke-linejoin="round" stroke-width=".31"/><path d="m37.36,121.25v1.26" fill="none" stroke="#000" stroke-linecap="round" stroke-linejoin="round" stroke-width=".31"/><path d="m36.44,121.31v1.27" fill="none" stroke="#000" stroke-linecap="round" stroke-linejoin="round" stroke-width=".31"/><path d="m37.82,118.97s.4-.3.53-.34c.16-.05.33-.08.49-.05.15.02.3.07.41.16.11.09.17.23.21.36.05.15.07.31.08.47.02.15.02.45.02.45l-.38.34" fill="none" stroke="#000" stroke-linecap="round" stroke-linejoin="round" stroke-width=".31"/><path d="m39.15,119.86s0-.29-.07-.41c-.07-.17-.19-.34-.35-.43-.13-.08-.29-.07-.44-.07-.15,0-.3-.02-.44.04-.13.05-.26.14-.35.25-.06.08-.07.19-.1.29-.04.15-.07.45-.07.45" fill="none" stroke="#000" stroke-linecap="round" stroke-linejoin="round" stroke-width=".31"/></svg>