<?xml version="1.0" encoding="UTF-8"?><svg id="Layer_1" xmlns="http://www.w3.org/2000/svg" xmlns:xlink="http://www.w3.org/1999/xlink" viewBox="0 0 23.83 371.75"><defs><linearGradient id="linear-gradient" x1="884.97" y1="230.81" x2="893.71" y2="230.81" gradientTransform="translate(-448.14 466.7) scale(.51 -1.07)" gradientUnits="userSpaceOnUse"><stop offset="0" stop-color="#000"/><stop offset="1" stop-color="#000" stop-opacity="0"/></linearGradient><linearGradient id="linear-gradient-2" x1="-1926.1" y1="230.59" x2="-1917.36" y2="230.59" gradientTransform="translate(-955.82 466.29) rotate(-180) scale(.51 1.07)" gradientUnits="userSpaceOnUse"><stop offset="0" stop-color="#000"/><stop offset="1" stop-color="#000" stop-opacity="0"/></linearGradient><linearGradient id="linear-gradient-3" x1="861.71" y1="-12457.21" x2="870.45" y2="-12457.21" gradientTransform="translate(-443.79 -677.79) scale(.52 -.06)" gradientUnits="userSpaceOnUse"><stop offset="0" stop-color="#000"/><stop offset="1" stop-color="#000" stop-opacity="0"/></linearGradient><linearGradient id="linear-gradient-4" x1="-1902.49" y1="-12461.23" x2="-1893.75" y2="-12461.23" gradientTransform="translate(-960.08 -677.81) rotate(-180) scale(.51 .06)" gradientUnits="userSpaceOnUse"><stop offset="0" stop-color="#000"/><stop offset="1" stop-color="#000" stop-opacity="0"/></linearGradient><radialGradient id="radial-gradient" cx="691.68" cy="-390.49" fx="691.68" fy="-390.49" r="10.34" gradientTransform="translate(-372.98 -298.58) rotate(-7) scale(.49 -1.01)" gradientUnits="userSpaceOnUse"><stop offset="0" stop-color="#f9f9f9"/><stop offset="1" stop-color="#f9f9f9"/></radialGradient><linearGradient id="linear-gradient-5" x1="168.18" y1="-336.54" x2="170.83" y2="-336.54" gradientTransform="translate(-148.04 -265.39) scale(1 -1)" gradientUnits="userSpaceOnUse"><stop offset="0" stop-color="#fff"/><stop offset="1" stop-color="#f2f2f2"/></linearGradient><linearGradient id="linear-gradient-6" x1="149.04" y1="-336.54" x2="151.69" y2="-336.54" gradientTransform="translate(-148.04 -265.39) scale(1 -1)" gradientUnits="userSpaceOnUse"><stop offset="0" stop-color="#ececec"/><stop offset="1" stop-color="#fff"/></linearGradient></defs><rect x="2.57" y="78.28" width="18.67" height="281.93" fill="#fff" stroke-width="0"/><rect x="2.76" y="78.63" width="9.26" height="281.47" fill="url(#linear-gradient)" isolation="isolate" opacity=".03" stroke-width="0"/><rect x="11.88" y="78.58" width="9.12" height="281.37" fill="url(#linear-gradient-2)" isolation="isolate" opacity=".03" stroke-width="0"/><rect x="2" y="360.7" width=".45" height=".48" fill="#f7f7f7" stroke-width="0"/><rect x="21.21" y="360.7" width=".59" height=".6" fill="#f7f7f7" stroke-width="0"/><path d="m3.39,365.1c-.02-.05-.05-.12-.05-.15v-.05s3.39,0,3.39,0l.02.09c.02.08.01.1,0,.14l-.02.05h-3.28l-.04-.09v.02Z" fill="#f7f7f7" stroke-width="0"/><path d="m7.19,365.1c-.02-.05-.05-.12-.05-.15v-.05s1.74,0,1.74,0c1.45,0,1.74,0,1.74.02,0,.03-.06.2-.09.24l-.02.04h-3.28l-.04-.09h0Z" fill="#f7f7f7" stroke-width="0"/><path d="m10.92,365.3c.04-.09.07-.21.08-.27v-.07h.89c.96,0,.9-.01.9.08,0,.02.02.09.04.16l.04.13h-.98c-.93,0-.98,0-.97-.03h0Z" fill="#f7f7f7" stroke-width="0"/><path d="m13.24,365.1s-.04-.11-.05-.15l-.02-.07h1.75c1.19,0,1.75,0,1.75.02,0,.03-.06.21-.09.25l-.02.03h-3.28l-.03-.07h0Z" fill="#f7f7f7" stroke-width="0"/><path d="m17.05,365.2s-.02-.07,0-.15l.02-.09h1.7c1.16,0,1.7,0,1.7.02,0,.03-.06.21-.09.25l-.02.03h-3.28l-.03-.05h0Z" fill="#f7f7f7" stroke-width="0"/><path d="m2.59,360.3l18.57.03v3.27s-.69,1.75-.69,1.75l-17.17-.05-.7-1.75-.02-3.25Z" fill="#f7f7f7" stroke-width="0"/><path d="m6.79,368c-.19-.48-.45-1.03-.71-1.53l-.1-.19.04-.08c.07-.13.24-.42.34-.58l.04-.06h.2c.11,0,.33,0,.49,0h.29l.04.06c.09.14.3.52.36.62l.02.03-.05.1c-.28.53-.56,1.13-.78,1.69l-.04.09h-.07l-.06-.16h0Z" fill="#333" stroke-width="0"/><path d="m16.69,367.8c-.19-.48-.45-1.03-.71-1.53l-.1-.19.04-.08c.07-.13.24-.42.34-.58l.04-.06h.2c.11,0,.33,0,.49,0h.29l.04.06c.09.14.3.52.36.62l.02.03-.05.1c-.28.53-.56,1.13-.78,1.69l-.04.09h-.07l-.06-.16h0Z" fill="#333" stroke-width="0"/><path d="m10.75,367.3c.08-.16.23-.43.33-.62l.19-.33-.22-.39-.22-.39h-.38c-.32,0-.38-.01-.38-.04,0-.03-.03-.04-.16-.03-.16.01-.17.01-.22.1l-.05.09.28.54c.16.3.37.72.47.94.1.22.19.4.2.4,0,0,.08-.13.16-.28h0Z" fill="#333" stroke-width="0"/><path d="m13.05,367.3c-.08-.16-.23-.43-.33-.62l-.19-.33.22-.39.22-.39h.38c.32,0,.38-.01.38-.04,0-.03.03-.04.16-.03.16.01.17.01.22.1l.05.09-.28.54c-.16.3-.37.72-.47.94-.1.22-.19.4-.2.4,0,0-.08-.13-.16-.28h0Z" fill="#333" stroke-width="0"/><path d="m9.5,371.5s.08-.38.1-.42c.17-2.25.36-1.78,1.07-3.15,0-.07.49-1.05.76-1.52l.14-.24v-.63h.68v.64l.15.25c.15.27.57,1.08.67,1.3l.06.13c.89,2.4.22.29,1.14,3.39.02.1.04.2.04.22,0,.03,0,.03-2.4.03-1.32,0-2.4,0-2.4-.01h0Z" fill="#333" stroke-width="0"/><path d="m2.57,360.3h18.65" fill="none" stroke="#000" stroke-width=".4"/><path d="m2.57,151.6h18.65" fill="none" stroke="#000" stroke-width=".4"/><path d="m15.43,365.4h-1.02" fill="none" stroke="#000" stroke-width=".4"/><path d="m4.52,370.7h4.91" fill="none" stroke="#000" stroke-width=".4"/><path d="m6.47,365.4h1.02" fill="none" stroke="#000" stroke-width=".4"/><path d="m7.93,366.2c-.14-.28-.29-.56-.44-.83" fill="none" stroke="#000" stroke-width=".4"/><path d="m6.47,365.4c-.15.27-.3.55-.44.83" fill="none" stroke="#000" stroke-width=".4"/><path d="m9.85,365.4h.76" fill="none" stroke="#000" stroke-width=".4"/><path d="m11.36,366.3c-.14-.29-.29-.57-.45-.85" fill="none" stroke="#000" stroke-width=".4"/><path d="m9.85,365.4c-.08.14-.16.28-.23.42" fill="none" stroke="#000" stroke-width=".4"/><path d="m19.27,370.7h-4.91" fill="none" stroke="#000" stroke-width=".4"/><path d="m17.33,365.4h-1.02" fill="none" stroke="#000" stroke-width=".4"/><path d="m16.31,365.4c-.15.27-.3.55-.44.83" fill="none" stroke="#000" stroke-width=".4"/><path d="m17.77,366.2c-.14-.28-.29-.56-.44-.83" fill="none" stroke="#000" stroke-width=".4"/><path d="m13.94,365.4h-.76" fill="none" stroke="#000" stroke-width=".4"/><path d="m6.92,364.7c-.01.25.07.49.22.68" fill="none" stroke="#000" stroke-width=".4"/><path d="m10.61,365.4c.15-.2.23-.44.22-.68" fill="none" stroke="#000" stroke-width=".4"/><path d="m7.14,365.4h3.48" fill="none" stroke="#000" stroke-width=".4"/><path d="m12.96,364.7c-.01.25.07.49.22.68" fill="none" stroke="#000" stroke-width=".4"/><path d="m16.66,365.4c.15-.2.23-.44.22-.68" fill="none" stroke="#000" stroke-width=".4"/><path d="m13.18,365.4h3.48" fill="none" stroke="#000" stroke-width=".4"/><path d="m10.91,365.5h1.97" fill="none" stroke="#000" stroke-width=".4"/><path d="m10.1,365.4s.04.05.05.08" fill="none" stroke="#000" stroke-width=".4"/><path d="m13.64,365.5s.04-.05.05-.08" fill="none" stroke="#000" stroke-width=".4"/><path d="m10.16,365.5h3.48" fill="none" stroke="#000" stroke-width=".4"/><path d="m12.93,365.5c-.16.28-.31.56-.45.85" fill="none" stroke="#000" stroke-width=".4"/><path d="m12.93,365.5c-.16.28-.31.56-.45.85" fill="none" stroke="#000" stroke-width=".4"/><path d="m14.2,365.8c-.07-.13-.14-.25-.21-.38" fill="none" stroke="#000" stroke-width=".4"/><path d="m2.57,119.89h18.65" fill="none" stroke="#000" stroke-width=".4"/><path d="m21.22,79.3v283.92c-.02.54-.19,1.06-.49,1.51H3.06c-.3-.45-.46-.97-.49-1.51V79.3" fill="none" stroke="#000" stroke-width=".4"/><path d="m9.64,370.7c-.07.28-.12.55-.18.83h4.91c-.05-.28-.11-.56-.18-.83" fill="none" stroke="#000" stroke-width=".4"/><path d="m10.56,368c.25-.58.53-1.16.85-1.71v-.75" fill="none" stroke="#000" stroke-width=".4"/><path d="m12.43,365.5v.75c.3.53.58,1.08.82,1.65" fill="none" stroke="#000" stroke-width=".4"/><path d="m6.98,368.6c-.36-1.09-.82-2.14-1.39-3.14h-1.02c-.94,1.65-1.6,3.45-1.95,5.32h4.91" fill="#333" stroke="#000" stroke-width=".4"/><path d="m3.12,364.7c-.01.25.07.49.22.68h3.48c.07-.09.12-.19.16-.3" fill="none" stroke="#000" stroke-width=".4"/><path d="m16.82,365.1c.04.11.09.21.16.3h3.48c.15-.2.23-.44.22-.68" fill="none" stroke="#000" stroke-width=".4"/><path d="m16.26,370.7h4.91c-.35-1.87-1.01-3.66-1.95-5.32h-1.02c-.57,1-1.03,2.05-1.39,3.14" fill="#333" stroke="#000" stroke-width=".4"/><path d="m15.43,365.4c.94,1.65,1.6,3.45,1.95,5.32h-4.91c.35-1.87,1.01-3.66,1.95-5.32" fill="#333" stroke="#000" stroke-width=".4"/><path d="m8.37,365.4c-.94,1.65-1.6,3.45-1.95,5.32h4.91c-.35-1.87-1.01-3.66-1.95-5.32h-1.02Z" fill="#333" stroke="#000" stroke-width=".4"/><path d="m3.48,348.1l.05-.14.08-.16.11-.16.14-.16.16-.15.18-.14.2-.11.21-.08.23-.04h.23s.24.05.24.05l.24.11.4,1.06,1.27,3.5.42,1.17.42,1.17,1.27,3.5.42,1.17.85,2.33.11.28.02.03.02.03.02.03.02.03.03.03.03.02.03.02.03.02.03.02.03.02h.03s.03.02.03.02l.07.02h.13s.18,0,.18,0l.05-.02.05-.05.05-.07.05-.09.05-.11.04-.13.04-.14.04-.15.03-.16.03-.16.02-.16-.19-1.82-.45-3.82-.45-3.82-.9-7.63-2.69-22.89-.45-3.82-.29-2.58v-.5s0-.25,0-.25l-.02-2.01v-.31s-.05-.49-.05-.49l-.04-.44-.04-.4-.04-.36-.04-.32-.04-.29-.04-.26-.04-.23-.04-.21-.04-.19-.04-.17-.04-.16-.05-.14-.05-.13-.05-.12-.05-.11-.05-.1-.05-.09-.05-.08-.05-.07-.05-.07-.05-.06-.05-.05-.05-.04-.05-.04-.05-.03-.06-.03-.06-.02h-.06s-.06-.02-.06-.02h-.06s-.06,0-.06,0h-.06s-.06.03-.06.03l-.06.02-.06.03-.06.03-.06.04-.06.05-.06.05-.07.06-.07.07-.07.08-.07.08-.07.09-.07.1-.07.11-.07.12-.07.13-.08.14-.08.14-.08.15-.08.16-.08.16-.08.17-.07.17-.07.17-.07.17-.07.17-.07.17-.06.17-.06.17-.06.17-.05.17-.05.17-.05.17-.04.17-.04.17-.03.17-.03.17" fill="#f2f2f2" stroke="#000" stroke-width=".4"/><path d="m3.48,348.1l-.04.22-.04.22-.04.22-.04.23-.04.23-.04.24-.04.24-.03.24-.03.25-.03.25-.03.25-.03.25-.03.26-.03.26-.03.26-.03.26-.03.27-.03.27-.03.27-.03.27-.03.27-.03.28-.06.55-.06.56-.06.56-.12,1.13-.06.56-.06.56-.06.56-.06.55-.03.28-.03.27-.03.27-.03.27-.03.27-.03.27-.03.26-.03.26-.03.26-.03.26v.13s-.02.05-.02.05h0s0,.01,0,.01v.02s-.01.01-.01.01h0s-.02.04-.02.04h-.07l-.03-.02-.07-.04-.06-.04-.06-.04-.06-.04-.06-.04-.06-.04-.05-.04-.05-.04-.05-.04-.05-.04-.05-.04-.05-.04-.04-.04-.04-.04-.04-.04-.04-.04-.04-.04-.07-.09-.06-.09-.06-.09-.05-.09-.05-.09-.05-.09-.04-.09-.04-.09-.03-.09-.03-.09-.03-.09-.03-.09-.02-.09-.02-.09-.02-.09-.02-.09v-.05s-.01-.02-.01-.02h0s0-.01,0-.01h0s0,0,0,0h0s0-.07,0-.07v-.11s.24-7.21.24-7.21l.48-14.43.72-21.64.06-1.8.02-.45v-.03s0,0,0,0h0s0,0,0,0h0s0,0,0,0h0s0-.02,0-.02v-.05s.02-.09.02-.09v-.09s.03-.09.03-.09v-.09s.03-.08.03-.08v-.08s.03-.08.03-.08v-.08s.03-.08.03-.08l.02-.08.03-.15.03-.14.03-.14.03-.14.03-.14.04-.14.04-.14.04-.14.04-.14.04-.14.05-.14.05-.15.05-.15.03-.08.03-.08.03-.08.03-.08.03-.08.03-.08.04-.08.04-.08.04-.08.04-.09.04-.09.04-.09.05-.09.05-.09" fill="#f2f2f2" stroke="#000" stroke-linecap="round" stroke-width=".4"/><path d="m20.35,348.1l-.05-.14-.08-.16-.11-.16-.14-.16-.16-.15-.18-.14-.2-.11-.21-.08-.23-.04h-.23s-.24.05-.24.05l-.24.11-.4,1.06-1.27,3.5-.42,1.17-1.69,4.66-.42,1.17-.85,2.33-.11.28-.02.03-.02.03-.02.03-.02.03-.03.03-.03.02-.03.02-.03.02-.03.02-.03.02h-.03s-.03.02-.03.02l-.07.02h-.13s-.18,0-.18,0l-.05-.02-.05-.05-.05-.07-.05-.09-.05-.11-.04-.13-.04-.14-.04-.15-.03-.16-.03-.16-.02-.16.19-1.82.45-3.82.45-3.82.45-3.82.9-7.63.9-7.63.45-3.82.9-7.63.45-3.82.29-2.58v-.5s0-.25,0-.25l.02-2.01v-.31s.05-.49.05-.49l.04-.44.04-.4.04-.36.04-.32.04-.29.04-.26.04-.23.04-.21.04-.19.04-.17.04-.16.05-.14.05-.13.05-.12.05-.11.05-.1.05-.09.05-.08.05-.07.05-.07.05-.06.05-.05.05-.04.05-.04.05-.03.06-.03.06-.02h.06s.06-.02.06-.02h.06s.06,0,.06,0h.06s.06.03.06.03l.06.02.06.03.06.03.06.04.06.05.06.05.07.06.07.07.07.08.07.08.07.09.07.1.07.11.07.12.07.13.08.14.08.14.08.15.08.16.08.16.08.17.07.17.07.17.07.17.07.17.07.17.06.17.06.17.06.17.05.17.05.17.05.17.04.17.04.17.03.17.03.17" fill="#f2f2f2" stroke="#000" stroke-width=".4"/><path d="m20.35,348.1l.04.22.04.22.04.22.04.23.04.23.04.24.04.24.03.24.03.25.03.25.03.25.03.25.03.26.03.26.03.26.03.26.03.27.03.27.03.27.03.27.03.27.03.28.06.55.06.56.06.56.12,1.13.06.56.06.56.06.56.06.55.03.28.03.27.03.27.03.27.03.27.03.27.03.26.03.26.03.26.03.26v.13s.02.05.02.05h0s0,.01,0,.01v.02s.01.01.01.01h0s.02.04.02.04h.07l.03-.02.07-.04.06-.04.06-.04.06-.04.06-.04.06-.04.05-.04.05-.04.05-.04.05-.04.05-.04.05-.04.04-.04.04-.04.04-.04.04-.04.04-.04.07-.09.06-.09.06-.09.05-.09.05-.09.05-.09.04-.09.04-.09.03-.09.03-.09.03-.09.03-.09.02-.09.02-.09.02-.09.02-.09v-.05s.01-.02.01-.02h0s0-.01,0-.01h0s0,0,0,0h0s0-.07,0-.07v-.11s-.24-7.21-.24-7.21l-.48-14.43-.48-14.43-.24-7.21-.06-1.8-.02-.45v-.03s0,0,0,0h0s0,0,0,0h0s0,0,0,0h0s0-.02,0-.02v-.05s-.02-.09-.02-.09v-.09s-.03-.09-.03-.09v-.09s-.03-.08-.03-.08v-.08s-.03-.08-.03-.08v-.08s-.03-.08-.03-.08l-.02-.08-.03-.15-.03-.14-.03-.14-.03-.14-.03-.14-.04-.14-.04-.14-.04-.14-.04-.14-.04-.14-.05-.14-.05-.15-.05-.15-.03-.08-.03-.08-.03-.08-.03-.08-.03-.08-.03-.08-.04-.08-.04-.08-.04-.08-.04-.09-.04-.09-.04-.09-.05-.09-.05-.09" fill="#f2f2f2" stroke="#000" stroke-linecap="round" stroke-width=".4"/><path d="m6.42,310.97l-1.23-1.31" fill="none" stroke="#000" stroke-width=".4"/><path d="m5.19,309.66h-2.25" fill="none" stroke="#000" stroke-width=".4"/><path d="m2.67,340l.17-24.12" fill="none" stroke="#000" stroke-width=".4"/><path d="m2.84,315.9l2.16-2.93" fill="none" stroke="#000" stroke-width=".4"/><path d="m2.84,315.9l-1.03-2.67" fill="none" stroke="#000" stroke-width=".4"/><path d="m5,312.98l.18-3.32" fill="none" stroke="#000" stroke-linecap="round" stroke-width=".4"/><path d="m1.98,360.7h.61" fill="none" stroke="#000" stroke-width=".4"/><path d="m1.9,361.3h.69" fill="none" stroke="#000" stroke-width=".4"/><path d="m11.61,361.3h.61" fill="none" stroke="#000" stroke-width=".4"/><path d="m11.81,360.7h.22" fill="none" stroke="#000" stroke-width=".4"/><path d="m.66,360.6l.36-4.51.12-1.5.59-7.51.12-1.5.36-4.51.05-.48.03-.12.04-.1.04-.09.05-.07.05-.06.06-.04.06-.03.06-.02h.06s.07-.01.07-.01h.07s.07.03.07.03l.06.03.06.03.06.04.06.04.06.05.06.05.06.05.05.06.05.06.05.06.05.06.05.06.04.06.18.44,1.75,4.71.58,1.57,1.75,4.71,1.17,3.14.58,1.57,1.17,3.14.58,1.57" fill="none" stroke="#000" stroke-width=".4"/><path d="m17.41,310.97l1.23-1.31" fill="none" stroke="#000" stroke-width=".4"/><path d="m18.64,309.66h2.25" fill="none" stroke="#000" stroke-width=".4"/><path d="m21.16,340l-.17-24.12" fill="none" stroke="#000" stroke-width=".4"/><path d="m20.99,315.9l-2.16-2.93" fill="none" stroke="#000" stroke-width=".4"/><path d="m20.99,315.9l1.03-2.67" fill="none" stroke="#000" stroke-width=".4"/><path d="m18.83,312.98l-.18-3.32" fill="none" stroke="#000" stroke-linecap="round" stroke-width=".4"/><path d="m21.85,360.7h-.61" fill="none" stroke="#000" stroke-width=".4"/><path d="m21.93,361.3h-.69" fill="none" stroke="#000" stroke-width=".4"/><path d="m23.17,360.6l-.12-1.5-.12-1.5-.59-7.51-.12-1.5-.47-6.01-.12-1.5-.05-.48-.03-.12-.04-.1-.04-.09-.05-.07-.05-.06-.06-.04-.06-.03-.06-.02h-.06s-.07-.01-.07-.01h-.07s-.07.03-.07.03l-.06.03-.06.03-.06.04-.06.04-.06.05-.06.05-.06.05-.05.06-.05.06-.05.06-.05.06-.05.06-.04.06-.18.44-.58,1.57-1.17,3.14-.58,1.57-1.75,4.71-1.17,3.14-.58,1.57-1.75,4.71" fill="none" stroke="#000" stroke-width=".4"/><path d="m13.32,298.3h-3.87l-.14.11v3.44h1.07v-1.29l.1-.09h2.84c.72,0,1.05-.19,1.05-.69v-.79c0-.5-.34-.69-1.05-.69m0,1.27c0,.23-.15.28-.49.28h-2.34l-.11-.11v-.74l.1-.09h2.35c.34,0,.49.05.49.28v.38h0Z" fill="#005288" stroke-width="0"/><polyline points="11.08 306.13 12 307.48 11.95 307.61 9.91 307.61 9.39 308.25 12.42 308.25 12.63 308.38 13.11 309.03 14.33 309.03 11.64 305.43" fill="#005288" stroke-width="0"/><polyline points="10.51 324.06 10.51 323.1 10.62 323.01 12.67 323.01 12.67 322.4 9.42 322.4 9.42 324.76 14.22 324.76 14.22 324.15 10.63 324.15" fill="#005288" stroke-width="0"/><rect x="9.42" y="321.21" width="4.84" height=".67" fill="#005288" stroke-width="0"/><path d="m10.49,313.8h3.9c-.06-.5-.37-.63-1.15-.63h-2.79c-.88,0-1.16.17-1.16.84v1.87c0,.67.28.84,1.16.84h2.79c.79,0,1.1-.15,1.12-.66h-3.87l-.11-.11v-2.07" fill="#005288" stroke-width="0"/><path d="m13.28,291.5h-2.84l-.08-.09v-.61l.08-.06h3.83l.05-.13c-.13-.34-.47-.49-1.09-.49h-2.66c-.88,0-1.16.17-1.16.84v.39c0,.67.28.84,1.16.84h2.83l.09.08v.63l-.07.1h-3.24s-.85,0-.85,0c0,0-.1.05-.09.07.07.47.39.6,1.15.6h2.9c.88,0,1.17-.17,1.17-.84v-.49c0-.67-.29-.84-1.17-.84" fill="#005288" stroke-width="0"/><path d="m10.55,329.43h-1.59l-.09.16,1.77,1.29c.34-.19.7-.39,1.1-.58" fill="#005288" stroke-width="0"/><path d="m11.97,331.86l1.56,1.13h1.61l.07-.15-2.32-1.7c-.31.23-.61.47-.91.72" fill="#005288" stroke-width="0"/><path d="m10.31,332.99h-1.44l-.12-.19c.98-.95,5.46-4.5,11.28-4.96,0,0-5.1.57-9.72,5.15" fill="#a7a9ac" stroke-width="0"/><rect x="7.32" y="138.1" width="9.2" height="5.17" fill="#b22234" stroke-width="0"/><path d="m7.32,138.7h9.2m0,.8H7.32m0,.8h9.2m0,.8H7.32m0,.8h9.2m0,.8H7.32" stroke="#fff" stroke-miterlimit="10" stroke-width=".37"/><rect x="7.32" y="138.1" width="3.68" height="2.78" fill="#3c3b6e" stroke-width="0"/><g id="e"><g id="a"><g id="c"><g id="d"><path id="s" d="m7.62,138.22l.09.29-.23-.18h.28l-.23.18.09-.29Z" fill="#fff" stroke-width="0"/><path id="s-2" d="m7.62,138.78l.09.29-.23-.18h.28l-.23.18.09-.29Z" fill="#fff" stroke-width="0"/><path id="s-3" d="m7.62,139.34l.09.29-.23-.18h.28l-.23.18.09-.29Z" fill="#fff" stroke-width="0"/><path id="s-4" d="m7.62,139.89l.09.29-.23-.18h.28l-.23.18.09-.29Z" fill="#fff" stroke-width="0"/></g><path id="s-5" d="m7.62,140.45l.09.29-.23-.18h.28l-.23.18.09-.29Z" fill="#fff" stroke-width="0"/></g><g id="d-2"><path id="s-6" d="m7.93,138.5l.09.29-.23-.18h.28l-.23.18.09-.29Z" fill="#fff" stroke-width="0"/><path id="s-7" d="m7.93,139.06l.09.29-.23-.18h.28l-.23.18.09-.29Z" fill="#fff" stroke-width="0"/><path id="s-8" d="m7.93,139.62l.09.29-.23-.18h.28l-.23.18.09-.29Z" fill="#fff" stroke-width="0"/><path id="s-9" d="m7.93,140.17l.09.29-.23-.18h.28l-.23.18.09-.29Z" fill="#fff" stroke-width="0"/></g></g><g id="a-2"><g id="c-2"><g id="d-3"><path id="s-10" d="m8.24,138.22l.09.29-.23-.18h.28l-.23.18.09-.29Z" fill="#fff" stroke-width="0"/><path id="s-11" d="m8.24,138.78l.09.29-.23-.18h.28l-.23.18.09-.29Z" fill="#fff" stroke-width="0"/><path id="s-12" d="m8.24,139.34l.09.29-.23-.18h.28l-.23.18.09-.29Z" fill="#fff" stroke-width="0"/><path id="s-13" d="m8.24,139.89l.09.29-.23-.18h.28l-.23.18.09-.29Z" fill="#fff" stroke-width="0"/></g><path id="s-14" d="m8.24,140.45l.09.29-.23-.18h.28l-.23.18.09-.29Z" fill="#fff" stroke-width="0"/></g><g id="d-4"><path id="s-15" d="m8.54,138.5l.09.29-.23-.18h.28l-.23.18.09-.29Z" fill="#fff" stroke-width="0"/><path id="s-16" d="m8.54,139.06l.09.29-.23-.18h.28l-.23.18.09-.29Z" fill="#fff" stroke-width="0"/><path id="s-17" d="m8.54,139.62l.09.29-.23-.18h.28l-.23.18.09-.29Z" fill="#fff" stroke-width="0"/><path id="s-18" d="m8.54,140.17l.09.29-.23-.18h.28l-.23.18.09-.29Z" fill="#fff" stroke-width="0"/></g></g></g><g id="e-2"><g id="a-3"><g id="c-3"><g id="d-5"><path id="s-19" d="m8.85,138.22l.09.29-.23-.18h.28l-.23.18.09-.29Z" fill="#fff" stroke-width="0"/><path id="s-20" d="m8.85,138.78l.09.29-.23-.18h.28l-.23.18.09-.29Z" fill="#fff" stroke-width="0"/><path id="s-21" d="m8.85,139.34l.09.29-.23-.18h.28l-.23.18.09-.29Z" fill="#fff" stroke-width="0"/><path id="s-22" d="m8.85,139.89l.09.29-.23-.18h.28l-.23.18.09-.29Z" fill="#fff" stroke-width="0"/></g><path id="s-23" d="m8.85,140.45l.09.29-.23-.18h.28l-.23.18.09-.29Z" fill="#fff" stroke-width="0"/></g><g id="d-6"><path id="s-24" d="m9.16,138.5l.09.29-.23-.18h.28l-.23.18.09-.29Z" fill="#fff" stroke-width="0"/><path id="s-25" d="m9.16,139.06l.09.29-.23-.18h.28l-.23.18.09-.29Z" fill="#fff" stroke-width="0"/><path id="s-26" d="m9.16,139.62l.09.29-.23-.18h.28l-.23.18.09-.29Z" fill="#fff" stroke-width="0"/><path id="s-27" d="m9.16,140.17l.09.29-.23-.18h.28l-.23.18.09-.29Z" fill="#fff" stroke-width="0"/></g></g><g id="a-4"><g id="c-4"><g id="d-7"><path id="s-28" d="m9.46,138.22l.09.29-.23-.18h.28l-.23.18.09-.29Z" fill="#fff" stroke-width="0"/><path id="s-29" d="m9.46,138.78l.09.29-.23-.18h.28l-.23.18.09-.29Z" fill="#fff" stroke-width="0"/><path id="s-30" d="m9.46,139.34l.09.29-.23-.18h.28l-.23.18.09-.29Z" fill="#fff" stroke-width="0"/><path id="s-31" d="m9.46,139.89l.09.29-.23-.18h.28l-.23.18.09-.29Z" fill="#fff" stroke-width="0"/></g><path id="s-32" d="m9.46,140.45l.09.29-.23-.18h.28l-.23.18.09-.29Z" fill="#fff" stroke-width="0"/></g><g id="d-8"><path id="s-33" d="m9.77,138.5l.09.29-.23-.18h.28l-.23.18.09-.29Z" fill="#fff" stroke-width="0"/><path id="s-34" d="m9.77,139.06l.09.29-.23-.18h.28l-.23.18.09-.29Z" fill="#fff" stroke-width="0"/><path id="s-35" d="m9.77,139.62l.09.29-.23-.18h.28l-.23.18.09-.29Z" fill="#fff" stroke-width="0"/><path id="s-36" d="m9.77,140.17l.09.29-.23-.18h.28l-.23.18.09-.29Z" fill="#fff" stroke-width="0"/></g></g></g><g id="a-5"><g id="c-5"><g id="d-9"><path id="s-37" d="m10.08,138.22l.09.29-.23-.18h.28l-.23.18.09-.29Z" fill="#fff" stroke-width="0"/><path id="s-38" d="m10.08,138.78l.09.29-.23-.18h.28l-.23.18.09-.29Z" fill="#fff" stroke-width="0"/><path id="s-39" d="m10.08,139.34l.09.29-.23-.18h.28l-.23.18.09-.29Z" fill="#fff" stroke-width="0"/><path id="s-40" d="m10.08,139.89l.09.29-.23-.18h.28l-.23.18.09-.29Z" fill="#fff" stroke-width="0"/></g><path id="s-41" d="m10.08,140.45l.09.29-.23-.18h.28l-.23.18.09-.29Z" fill="#fff" stroke-width="0"/></g><g id="d-10"><path id="s-42" d="m10.38,138.5l.09.29-.23-.18h.28l-.23.18.09-.29Z" fill="#fff" stroke-width="0"/><path id="s-43" d="m10.38,139.06l.09.29-.23-.18h.28l-.23.18.09-.29Z" fill="#fff" stroke-width="0"/><path id="s-44" d="m10.38,139.62l.09.29-.23-.18h.28l-.23.18.09-.29Z" fill="#fff" stroke-width="0"/><path id="s-45" d="m10.38,140.17l.09.29-.23-.18h.28l-.23.18.09-.29Z" fill="#fff" stroke-width="0"/></g></g><g id="c-6"><g id="d-11"><path id="s-46" d="m10.69,138.22l.09.29-.23-.18h.28l-.23.18.09-.29Z" fill="#fff" stroke-width="0"/><path id="s-47" d="m10.69,138.78l.09.29-.23-.18h.28l-.23.18.09-.29Z" fill="#fff" stroke-width="0"/><path id="s-48" d="m10.69,139.34l.09.29-.23-.18h.28l-.23.18.09-.29Z" fill="#fff" stroke-width="0"/><path id="s-49" d="m10.69,139.89l.09.29-.23-.18h.28l-.23.18.09-.29Z" fill="#fff" stroke-width="0"/></g><path id="s-50" d="m10.69,140.45l.09.29-.23-.18h.28l-.23.18.09-.29Z" fill="#fff" stroke-width="0"/></g><path d="m9.26,130.36c.31-.16.62-.33.94-.45-3.67-1.93-3.88-3.38-4.63-4.91.58,1.77,1.07,3.54,3.69,5.36h0Z" fill="#a80126" fill-rule="evenodd" stroke-width="0"/><path d="m7.34,127.46c1.4,1.17,2.61,2,3.51,2.26.89-.47,3.81-.73,3.75-.06-.64-.32-1.02-.17-1.39-.05.18,0,.67-.06.81,0-.06.07-.12.1-.19.14.24.05.46.12.65.23.12-.01.2,0,.24.03-.12.03-.27.19-.34.3.81.02,1.68.02,1.77.87.26-.76-.2-1.16-1.1-1.33-.12-.26-.31-.48-.49-.73-2.45-.14-4.89-.3-7.22-1.65h0Z" fill="#a80126" fill-rule="evenodd" stroke-width="0"/><path d="m5.42,133.38v-1.48h.99c-.04.05-.07.1-.16.14h-.62v.39h.55s-.07.09-.13.11h-.43v.53c-.05.12-.1.23-.21.32h0Z" fill-rule="evenodd" stroke-width="0"/><path d="m8.1,132.05v1.08h.28v-1.02c-.38-.35-.76-.35-1.14,0v1.02h.25v-.6h.2s.08-.05.1-.09h-.29v-.39c.23-.16.41-.16.6,0h0Z" fill-rule="evenodd" stroke-width="0"/><path d="m11.04,133.17h-1.14v-1.25h.29v1.15h1s-.06.09-.15.1h0Z" fill-rule="evenodd" stroke-width="0"/><path d="m12.74,131.9v.25c-.46.62.32,1.37,1.2.82h.07c-.55.6-2.54.1-1.27-1.07h0Z" fill-rule="evenodd" stroke-width="0"/><path d="m12.14,131.93v.45c.44-.79,1.05-1.18,2.91-.66-1.79-.7-2.45-.33-2.91.21Z" fill-rule="evenodd" stroke-width="0"/><path d="m15.62,131.8c-.37,0-.75.26-.75.73,0,.94,1.49.99,1.49,0,0-.5-.37-.73-.75-.73h0Zm0,.1c.22,0,.44.21.45.63,0,.85-.88.83-.88,0,0-.41.22-.63.44-.63h0Z" fill-rule="evenodd" stroke-width="0"/><path d="m17.75,132.05v1.13h-.22v-1.18l.22-.11v.05c.34,0,.58.15.64.24v1.01h-.22v-.99c-.08-.13-.17-.17-.43-.17v.03Z" fill-rule="evenodd" stroke-width="0"/><path d="m11.93,134.05c-2.3.01-1.7,1.85-.43,1.82.59-.02.7-.08,1.1-.5-.25,1.24-1.09,1.24-2.11,1.34-.13.08-.15.1-.24.24,1.72-.03,3.17-.34,3.13-1.68-.03-.94-.66-1.22-1.45-1.21h0Zm-.03.22c.42,0,.76.27.76.6h0c0,.33-.34.6-.76.6-.42,0-.76-.27-.76-.59,0-.33.34-.6.76-.6Z" fill-rule="evenodd" stroke-width="0"/><rect x="2.57" y="62.59" width="18.67" height="15.78" fill="#fff" stroke-width="0"/><rect x="2.61" y="62.65" width="9.41" height="15.78" fill="url(#linear-gradient-3)" isolation="isolate" opacity=".03" stroke-width="0"/><rect x="11.89" y="62.65" width="9.28" height="15.77" fill="url(#linear-gradient-4)" isolation="isolate" opacity=".03" stroke-width="0"/><path d="m22.02,62.28v-.14s.02-.14.02-.14v-.14s-.02-.14-.02-.14l-.12-.45-1.6-5.81-.8-2.9-.27-.97-.8-2.9-.27-.97-.08-.24-.07-.18-.07-.19-.08-.2-.09-.2-.09-.21-.1-.21-.1-.22-.11-.22-.12-.22-.12-.22-.13-.22-.13-.21-.14-.21-.14-.2-.14-.19-.15-.18-.15-.18-.16-.17-.16-.16-.16-.15-.16-.15-.17-.14-.17-.13-.17-.13-.17-.12-.17-.11-.17-.11-.17-.1-.17-.09-.17-.09-.17-.08-.17-.07-.17-.07-.17-.06-.17-.05-.17-.05-.17-.04-.17-.04-.17-.03-.17-.02-.17-.02h-.16s-.16-.01-.16-.01h-.16s-.17.03-.17.03l-.17.02-.17.03-.17.04-.17.04-.17.05-.17.05-.17.06-.17.07-.17.07-.17.08-.17.09-.17.09-.17.1-.17.11-.17.11-.17.12-.17.13-.17.13-.17.14-.16.15-.16.15-.16.16-.16.17-.15.18-.15.18-.14.19-.14.2-.14.21-.13.21-.13.22-.12.22-.12.22-.11.22-.1.22-.1.21-.09.21-.09.2-.08.2-.07.19-.07.18-.08.24-.8,2.9-.27.97-.8,2.9-.27.97-.8,2.9-.27.97-.53,1.94-.12.45-.02.14v.14s0,.14,0,.14v.14" fill="url(#radial-gradient)" stroke-width="0"/><path d="m3.48,63.57s-.05-.08-.15-.14c-.08-.05-.19-.13-.24-.19-.1-.11-.21-.38-.24-.57-.03-.22-.06-.28-.17-.34-.19-.11-.39-.15-.67-.13h-.26s0-.09,0-.09v-.1h20.16v.1s.01.1.01.1h-.26c-.28-.03-.48.01-.67.12-.1.06-.13.11-.17.34-.03.19-.14.46-.24.57-.05.06-.16.14-.24.19-.1.06-.15.11-.15.14,0,.05-.35.05-8.36.05s-8.36,0-8.36-.05h0Z" fill="#ececec" stroke-width="0"/><path d="m22.02,62.48v-.14s.02-.14.02-.14v-.14s-.02-.14-.02-.14l-.12-.45-1.6-5.81-.8-2.9-.27-.97-.8-2.9-.27-.97-.08-.24-.07-.18-.07-.19-.08-.2-.09-.2-.09-.21-.1-.21-.1-.22-.11-.22-.12-.22-.12-.22-.13-.22-.13-.21-.14-.21-.14-.2-.14-.19-.15-.18-.15-.18-.16-.17-.16-.16-.16-.15-.16-.15-.17-.14-.17-.13-.17-.13-.17-.12-.17-.11-.17-.11-.17-.1-.17-.09-.17-.09-.17-.08-.17-.07-.17-.07-.17-.06-.17-.05-.17-.05-.17-.04-.17-.04-.17-.03-.17-.02-.17-.02h-.16s-.16-.01-.16-.01h-.16s-.17.03-.17.03l-.17.02-.17.03-.17.04-.17.04-.17.05-.17.05-.17.06-.17.07-.17.07-.17.08-.17.09-.17.09-.17.1-.17.11-.17.11-.17.12-.17.13-.17.13-.17.14-.16.15-.16.15-.16.16-.16.17-.15.18-.15.18-.14.19-.14.2-.14.21-.13.21-.13.22-.12.22-.12.22-.11.22-.1.22-.1.21-.09.21-.09.2-.08.2-.07.19-.07.18-.08.24-.8,2.9-.27.97-.8,2.9-.27.97-.8,2.9-.27.97-.53,1.94-.12.45-.02.14v.14s0,.14,0,.14v.14" fill="none" stroke="#000" stroke-width=".4"/><path d="m3.45,78.48h16.88" fill="none" stroke="#000" stroke-width=".4"/><path d="m3.45,63.5h16.88" fill="none" stroke="#000" stroke-width=".4"/><path d="m1.8,61.84h20.2" fill="#f2f2f2" stroke="#000" stroke-width=".4"/><path d="m5.65,47.83h12.49" fill="none" stroke="#000" stroke-width=".4"/><path d="m3.45,78.48h16.88" fill="none" stroke="#000" stroke-width=".4"/><path d="m20.34,63.35v15.67l.04.91.26-.18.25-.18.23-.18.22-.18.2-.18.19-.18.17-.18.15-.17.13-.16.12-.15.1-.14.08-.13.06-.11.04-.09.02-.38v-13.84l-.02-.53-.05-.07-.05-.06-.06-.06-.06-.06-.07-.06-.07-.05-.07-.05-.08-.04-.08-.04-.08-.03-.09-.03-.09-.02h-.09s-.09-.02-.09-.02h-.09s-.09,0-.09,0h-.09s-.08.03-.08.03l-.08.02-.08.03-.07.03-.02.06v.06s-.02.06-.02.06l-.02.06-.02.06-.03.06-.03.06-.04.06-.04.06-.04.05-.05.05-.05.05-.05.04-.05.04-.06.03-.06.03-.06.03h0Z" fill="url(#linear-gradient-5)" stroke="#000" stroke-width=".4"/><path d="m3.45,63.35v15.67l-.04.91-.26-.18-.25-.18-.23-.18-.22-.18-.2-.18-.19-.18-.17-.18-.15-.17-.13-.16-.12-.15-.1-.14-.08-.13-.06-.11-.04-.09-.02-.38v-13.84l.02-.53.05-.07.05-.06.06-.06.06-.06.07-.06.07-.05.07-.05.08-.04.08-.04.08-.03.09-.03.09-.02h.09s.09-.02.09-.02h.09s.09,0,.09,0h.09s.08.03.08.03l.08.02.08.03.07.03.02.06v.06s.02.06.02.06l.02.06.02.06.03.06.03.06.04.06.04.06.04.05.05.05.05.05.05.04.05.04.06.03.06.03.06.03h0Z" fill="url(#linear-gradient-6)" stroke="#000" stroke-width=".4"/><path d="m8.94,58.16h-1.26l-.05.03v1.12h.35v-.42l.03-.03h.92c.23,0,.34-.06.34-.22v-.26c0-.16-.11-.22-.34-.22m0,.41c0,.08-.05.09-.16.09h-.76l-.04-.04v-.24l.03-.03h.76c.11,0,.16.02.16.09v.12Z" fill="#005288" stroke-width="0"/><polyline points="9.92 58.37 10.22 58.81 10.2 58.86 9.54 58.86 9.37 59.07 10.36 59.07 10.43 59.11 10.58 59.32 10.98 59.32 10.1 58.15" fill="#005288" stroke-width="0"/><polyline points="13.89 59.09 13.89 58.78 13.92 58.75 14.59 58.75 14.59 58.55 13.53 58.55 13.53 59.32 15.1 59.32 15.1 59.12 13.93 59.12" fill="#005288" stroke-width="0"/><rect x="13.53" y="58.16" width="1.58" height=".22" fill="#005288" stroke-width="0"/><path d="m11.77,58.37h1.27c-.02-.16-.12-.21-.37-.21h-.91c-.29,0-.38.06-.38.27v.61c0,.22.09.27.38.27h.91c.26,0,.36-.05.36-.22h-1.26l-.04-.04v-.67" fill="#005288" stroke-width="0"/><path d="m6.79,58.61h-.92l-.03-.03v-.2l.03-.02h1.25l.02-.04c-.04-.11-.15-.16-.36-.16h-.87c-.29,0-.38.06-.38.27v.13c0,.22.09.27.38.27h.92l.03.03v.21l-.02.03h-1.06s-.28,0-.28,0c0,0-.03.02-.03.02.02.15.13.2.37.2h.94c.29,0,.38-.06.38-.27v-.16c0-.22-.09-.27-.38-.27" fill="#005288" stroke-width="0"/><path d="m16.1,58.16h-.52l-.03.05.58.42c.11-.06.23-.13.36-.19" fill="#005288" stroke-width="0"/><path d="m16.57,58.95l.51.37h.53l.02-.05-.76-.55c-.1.07-.2.15-.3.23" fill="#005288" stroke-width="0"/><path d="m16.03,59.32h-.47l-.04-.06c.32-.31,1.75-1.63,4.85-1.77,0,0-2.61.09-4.34,1.83" fill="#005288" stroke-width="0"/><path d="m11.21,71.74h.3s-.02-.79-.02-.79c-.37-.25-.67-.25-1.01,0v.78s.3,0,.3,0l-.02-.47h.17s.07-.09.09-.12h-.26s0-.21,0-.21c.2-.13.43,0,.43,0,0,0,0,.6.01.81h0Z" fill-rule="evenodd" stroke-width="0"/><path d="m14.86,70.75c-.29,0-.63.18-.63.52,0,.67,1.25.71,1.25,0,0-.35-.33-.52-.62-.52Zm0,.09c.17,0,.34.13.34.43,0,.58-.68.59-.69,0,0-.29.18-.43.35-.43Z" fill-rule="evenodd" stroke-width="0"/><path d="m16.72,71.76h-.29v-.89c.08-.03.26-.1.29-.1v.03c.4-.02.61.04.73.14v.82s-.29,0-.29,0v-.79c-.1-.09-.14-.1-.45-.08,0,0,0,.6,0,.87Z" fill-rule="evenodd" stroke-width="0"/><path d="m6.39,70.74v1.03h.43c.94,0,.9-1.01,0-1.02h-.42Zm.27.09h.21c.48.03.39.84,0,.85h-.2v-.85Z" fill-rule="evenodd" stroke-width="0"/><path d="m8.78,71.78h-.29s0-1.02,0-1.02c0,0,.38-.02.68,0,0,0,.16,0,.27.06,0,.17,0,.36,0,.36-.01.07-.24.04-.25.07.01.04.26,0,.26.08v.45s-.22,0-.28-.05c0-.13,0-.43,0-.43h-.15s-.1-.09-.11-.12h.26s0-.34,0-.34c-.18-.03-.23-.03-.4,0v.94Z" fill-rule="evenodd" stroke-width="0"/><path d="m12.84,71.2h.51s0,.51,0,.51c-.39.05-.59.07-.96,0v-.92c.33-.08.61-.04.96,0v.2h-.27v-.14c-.16-.06-.25-.05-.42-.01v.83c.17.04.25.04.43,0v-.4h-.21s-.04-.02-.05-.06Z" fill-rule="evenodd" stroke-width="0"/><path d="m12.51,65.95s-.02,0-.02.02c.19.36.26.57.18.62-.13.09-.17-.31-.34-.33-.06,0-.08.08-.13.07-.05-.01-.03-.16-.11-.16-.15,0-.13.12-.33.18-.22.07-.67,0-1.14-.18.01.04.15.1.41.24.25.14.69.38.88.35,0,.03,0,.04-.01.06-.19.02-.36.09-.49.18-.36.26-.65.17-1.12.1.23.12.62.29,1,.21.18-.04.33-.22.45-.17-1.92,1.12-.64,2.64.43,2.44-.75-.37-1.02-1.29-.38-2.04.03.02.08.03.12.04-.03.04-.07.06-.05.1.02.05.06.09.13.1.04,0,.05-.24.11-.28-.03.44.36.59.8.73.17.05.15.15.18.15.02,0,.04.01.06,0,.03-.01-.12-.18-.19-.23-.19-.12-.36-.14-.39-.22-.02-.06.19-.05.27.02.29.24.31.45.53.45.15,0,.14-.26.11-.47-.13-.1-.18-.25-.06-.25-.07-.17-.18-.33-.27-.46-.03-.04.04-.09.03-.14-.02-.08-.06-.08-.08-.2-.05-.28-.07-.52-.58-.95,0,0,0,0,0,0h0Zm-.1,1.41s.04,0,.06.01c.08.03.14.08.17.12.05.06-.09-.07-.19-.09-.02,0-.04,0-.04-.02,0,0-.03-.01-.02-.02,0,0,.01,0,.02,0Zm-.13.03c.06.1.16.16.18.18-.01,0-.12-.04-.15-.08,0-.01-.05-.05-.04-.1Zm.19.05s.03.02.04.02c.04.01.09.08.04.12-.01,0-.05,0-.07-.02-.03-.03-.04-.07-.04-.11,0,0,.01,0,.03,0Z" fill="#00006d" fill-rule="evenodd" stroke-width="0"/><path d="m7.35,72.76l1.03-.09c.49.76,1.35,1.2,2.27,1.19.97-.01,1.3-.13,2.54-.71.83-.39,1.81-.7,2.49-.69.97.01,1.19.61,1.19.99-.01,1.1-.99,1.68-2.08,1.66-.82-.02-1.26-.22-1.49-.44-.03-.03,0-.05.04-.02.2.13.81.36,1.06.04,1.14.17,2.28-.15,2.24-1.23-.02-.53-.29-.79-.88-.77-.88.03-1.96.51-2.34.68-.55.24-1.65.9-2.77.94-1.32.04-2.34-.61-3.29-1.56h0Z" fill="#00006d" fill-rule="evenodd" stroke-width="0"/><path d="m5.45,71.95c-.37-.38-.97-1.33-.96-2.24,0-1.12.85-1.8,2.26-2.24.23-.07.5-.14.73-.17-.05.05-.05.06-.05.08-.31.06-.53.13-.63.16-1.31.41-2.08,1.08-2.08,2.19,0,.48.26,1.22.57,1.7.03.17.07.25.17.51h0Z" fill="#00006d" fill-rule="evenodd" stroke-width="0"/><path d="m18.3,71.8c.08-.2.11-.24.18-.54.37-.68.56-1.14.57-1.65.02-1.54-1.41-2.1-2.71-2.37-.03-.03-.04-.06-.05-.11,1.45.31,2.98.92,3,2.4,0,.99-.57,1.77-.98,2.28h0Z" fill="#00006d" fill-rule="evenodd" stroke-width="0"/><path d="m18.46,70.64c.98-2.13-1.36-3.3-2.6-3.28v.05c.32.05.72.3.74.4-.33-.24-.79-.43-1.16-.33-.32.08-.32.19-.7.36.02.16,0,.28-.05.36-.33.5-.99.77-1.53.74.39.16.97.42,1.02.87.06-.08.12-.13.23-.22.44-.34.78.01,1.08.23-.33-.49-.15-.76.52-.38.25.14.28.2.57.36-.75-1.09-.3-1.16.33-1.15,1.28.03,1.62.96,1.54,2h0Z" fill="#00006d" fill-rule="evenodd" stroke-width="0"/><path d="m11.41,69.6c-.4-.18-.57-.42-.7-.7-1.85.05-1.57-.51-1.48-.69-.34-.08-.75-.29-.99-.37-.24-.08-.4-.1-1.03-.06.43-.07.93-.2,1.63.16.21.11.27.09.49.21-.07.67.72.65,1.36.66l-.03-.17c-.85.09-1.43-.06-1.14-.55-.03-.01-.21,0-.13-.05.02-.01.03-.01.03-.04-.39-.08-.61-.46-1.52-.48-.68-.01-1.45.33-1.81.56-.63.39-1.31,1.22-.7,2.6-.22-.88.57-1.81,2.24-1.97.44-.04.53.09.33.34-.15.2-.37.47-.49.76.62-.4,1.47-.93,1.75.02.21-.39.64-.17,1.26-.11.26.03.6,0,.94-.14h0Z" fill="#00006d" fill-rule="evenodd" stroke-width="0"/><path d="m13.01,68.78l-.21-.11c.81.09,1.6-.19,1.65-.86.04,0,.04,0,.07,0,.03,0,.01-.04-.03-.06s-.09-.04-.05-.06c.44-.11.67-.28,1.03-.34-.27.13-.62.42-.86.39-.03,0-.05,0-.02.02s.08.02.08.05c0,.03-.04.02-.07.05.03.27-.25.56-.6.74-.32.16-.6.19-.98.17h0Z" fill="#00006d" fill-rule="evenodd" stroke-width="0"/><path d="m13.31,70.38c.28-.09.66-.25.66-.54,0-.56-.9-.72-1.56-.97-.29-.11-.47-.16-.73-.42.11.27.24.52.73.73.61.25,1.58.53.91,1.2h0Z" fill="#00006d" fill-rule="evenodd" stroke-width="0"/><path d="m11.66,68.11c.1.04.18.16.3.18.05.23.1.3.08.36-.17-.06-.4-.22-.38-.54Z" fill="#00006d" fill-rule="evenodd" stroke-width="0"/><path d="m11.96,68.2c.03-.08-.02-.23.03-.27.02-.02.19.05.16,0-.22-.06-.29-.15-.33-.25-.05.09-.14.27-.12.36s.16.14.27.17h0Z" fill="#00006d" fill-rule="evenodd" stroke-width="0"/><path d="m21.53,155.54l.03-6.41-1.06-1.56.03-1.69-.84-1.59-.28-.91-.69-.25-.69.06-.41.12-.38,1-.22,1.09-.03.94v1l.09.72-.81.91v6.47l.62.12,4.63-.03Z" fill="#fff" fill-rule="evenodd" stroke="#040404" stroke-linecap="round" stroke-linejoin="round" stroke-width=".2"/><path d="m16.91,149.13v6.43h4.62v-6.4l-.93-1.62h-2.21l-1.48,1.59Z" fill="none" stroke="#040404" stroke-linecap="square" stroke-linejoin="round" stroke-width=".2"/><path d="m20.54,155.43v-9.48l-.77-1.55c-.9-.42-1.67-.27-2.34.31l.11,2.89" fill="none" stroke="#040404" stroke-linecap="square" stroke-linejoin="round" stroke-width=".2"/><path d="m18.49,147.59v7.95" fill="none" stroke="#040404" stroke-linecap="square" stroke-linejoin="round" stroke-width=".2"/><path d="m18.42,147.56l-.75-.02-1.37,1.48v6.47l.63.06" fill="none" stroke="#040404" stroke-linecap="square" stroke-linejoin="round" stroke-width=".2"/><path d="m18.35,147.52l-.02-1.59-.86-1.1" fill="none" stroke="#040404" stroke-linecap="square" stroke-linejoin="round" stroke-width=".2"/><path d="m19.79,144.4l-.4-.97c-.49-.29-1.1-.29-1.77-.11-.66,1.51-.73,3.1-.51,4.73" fill="none" stroke="#040404" stroke-linecap="square" stroke-linejoin="round" stroke-width=".2"/><path d="m20.49,145.82c-.81-.33-1.51-.28-2.14-.02" fill="none" stroke="#040404" stroke-linecap="round" stroke-linejoin="round" stroke-width=".2"/><path d="m18.5,155.54l-1.57-1.73" fill="#fff" fill-rule="evenodd" stroke="#040404" stroke-linecap="round" stroke-linejoin="round" stroke-width=".2"/><path d="m19.91,155.54l-2.98-3.77" fill="#fff" fill-rule="evenodd" stroke="#040404" stroke-linecap="round" stroke-linejoin="round" stroke-width=".2"/><path d="m16.92,149.93l4.39,5.58" fill="#fff" fill-rule="evenodd" stroke="#040404" stroke-linecap="round" stroke-linejoin="round" stroke-width=".2"/><path d="m17.36,148.68l4.14,5.3" fill="#fff" fill-rule="evenodd" stroke="#040404" stroke-linecap="round" stroke-linejoin="round" stroke-width=".2"/><path d="m18.19,147.79l3.34,4.38" fill="#fff" fill-rule="evenodd" stroke="#040404" stroke-linecap="round" stroke-linejoin="round" stroke-width=".2"/><path d="m19.48,147.57l2.04,2.62" fill="#fff" fill-rule="evenodd" stroke="#040404" stroke-linecap="round" stroke-linejoin="round" stroke-width=".2"/><path d="m19.18,155.53l2.35-3.34" fill="#fff" fill-rule="evenodd" stroke="#040404" stroke-linecap="round" stroke-linejoin="round" stroke-width=".2"/><path d="m21.47,154.01l-.97,1.53" fill="#fff" fill-rule="evenodd" stroke="#040404" stroke-linecap="round" stroke-linejoin="round" stroke-width=".2"/><path d="m17.63,155.53l3.87-5.05" fill="#fff" fill-rule="evenodd" stroke="#040404" stroke-linecap="round" stroke-linejoin="round" stroke-width=".2"/><path d="m16.94,154.57l4.44-5.62" fill="#fff" fill-rule="evenodd" stroke="#040404" stroke-linecap="round" stroke-linejoin="round" stroke-width=".2"/><path d="m16.94,152.6l3.88-4.56" fill="#fff" fill-rule="evenodd" stroke="#040404" stroke-linecap="round" stroke-linejoin="round" stroke-width=".2"/><path d="m16.91,150.79l2.81-3.19" fill="#fff" fill-rule="evenodd" stroke="#040404" stroke-linecap="round" stroke-linejoin="round" stroke-width=".2"/><path d="m16.29,149l.61.13" fill="#ccc" fill-rule="evenodd" stroke="#040404" stroke-linecap="round" stroke-linejoin="round" stroke-width=".2"/><path d="m2.31,155.54l-.03-6.41,1.06-1.56-.03-1.69.84-1.59.28-.91.69-.25.69.06.41.12.38,1,.22,1.09.03.94v1l-.09.72.81.91v6.47l-.62.12-4.63-.03Z" fill="#fff" fill-rule="evenodd" stroke="#040404" stroke-linecap="round" stroke-linejoin="round" stroke-width=".2"/><path d="m6.93,149.13v6.43H2.3v-6.4l.93-1.62h2.21l1.48,1.59Z" fill="none" stroke="#040404" stroke-linecap="square" stroke-linejoin="round" stroke-width=".2"/><path d="m3.3,155.43v-9.48l.77-1.55c.9-.42,1.67-.27,2.34.31l-.11,2.89" fill="none" stroke="#040404" stroke-linecap="square" stroke-linejoin="round" stroke-width=".2"/><path d="m5.35,147.59v7.95" fill="none" stroke="#040404" stroke-linecap="square" stroke-linejoin="round" stroke-width=".2"/><path d="m5.42,147.56l.75-.02,1.37,1.48v6.47l-.63.06" fill="none" stroke="#040404" stroke-linecap="square" stroke-linejoin="round" stroke-width=".2"/><path d="m5.49,147.52l.02-1.59.86-1.1" fill="none" stroke="#040404" stroke-linecap="square" stroke-linejoin="round" stroke-width=".2"/><path d="m4.05,144.4l.4-.97c.49-.29,1.1-.29,1.77-.11.66,1.51.73,3.1.51,4.73" fill="none" stroke="#040404" stroke-linecap="square" stroke-linejoin="round" stroke-width=".2"/><path d="m3.35,145.82c.81-.33,1.51-.28,2.14-.02" fill="none" stroke="#040404" stroke-linecap="round" stroke-linejoin="round" stroke-width=".2"/><path d="m5.34,155.54l1.57-1.73" fill="#fff" fill-rule="evenodd" stroke="#040404" stroke-linecap="round" stroke-linejoin="round" stroke-width=".2"/><path d="m3.93,155.54l2.98-3.77" fill="#fff" fill-rule="evenodd" stroke="#040404" stroke-linecap="round" stroke-linejoin="round" stroke-width=".2"/><path d="m6.92,149.93l-4.39,5.58" fill="#fff" fill-rule="evenodd" stroke="#040404" stroke-linecap="round" stroke-linejoin="round" stroke-width=".2"/><path d="m6.48,148.68l-4.14,5.3" fill="#fff" fill-rule="evenodd" stroke="#040404" stroke-linecap="round" stroke-linejoin="round" stroke-width=".2"/><path d="m5.65,147.79l-3.34,4.38" fill="#fff" fill-rule="evenodd" stroke="#040404" stroke-linecap="round" stroke-linejoin="round" stroke-width=".2"/><path d="m4.36,147.57l-2.04,2.62" fill="#fff" fill-rule="evenodd" stroke="#040404" stroke-linecap="round" stroke-linejoin="round" stroke-width=".2"/><path d="m4.66,155.53l-2.35-3.34" fill="#fff" fill-rule="evenodd" stroke="#040404" stroke-linecap="round" stroke-linejoin="round" stroke-width=".2"/><path d="m2.37,154.01l.97,1.53" fill="#fff" fill-rule="evenodd" stroke="#040404" stroke-linecap="round" stroke-linejoin="round" stroke-width=".2"/><path d="m6.21,155.53l-3.87-5.05" fill="#fff" fill-rule="evenodd" stroke="#040404" stroke-linecap="round" stroke-linejoin="round" stroke-width=".2"/><path d="m6.9,154.57l-4.44-5.62" fill="#fff" fill-rule="evenodd" stroke="#040404" stroke-linecap="round" stroke-linejoin="round" stroke-width=".2"/><path d="m6.9,152.6l-3.88-4.56" fill="#fff" fill-rule="evenodd" stroke="#040404" stroke-linecap="round" stroke-linejoin="round" stroke-width=".2"/><path d="m6.93,150.79l-2.81-3.19" fill="#fff" fill-rule="evenodd" stroke="#040404" stroke-linecap="round" stroke-linejoin="round" stroke-width=".2"/><path d="m7.55,149l-.61.13" fill="#ccc" fill-rule="evenodd" stroke="#040404" stroke-linecap="round" stroke-linejoin="round" stroke-width=".2"/></svg>