<?xml version="1.0" encoding="UTF-8"?><svg id="Layer_1" xmlns="http://www.w3.org/2000/svg" xmlns:xlink="http://www.w3.org/1999/xlink" viewBox="0 0 19.46 276.12"><defs><linearGradient id="linear-gradient" x1="360.33" y1="-416.55" x2="367.42" y2="-416.55" gradientTransform="translate(-180.07 -313.89) scale(.51 -1.11)" gradientUnits="userSpaceOnUse"><stop offset="0" stop-color="#000"/><stop offset="1" stop-color="#000" stop-opacity="0"/></linearGradient><linearGradient id="linear-gradient-2" x1="-1044.59" y1="-416.86" x2="-1037.49" y2="-416.86" gradientTransform="translate(-513.59 -314.18) rotate(-180) scale(.51 1.11)" gradientUnits="userSpaceOnUse"><stop offset="0" stop-color="#000"/><stop offset="1" stop-color="#000" stop-opacity="0"/></linearGradient><linearGradient id="linear-gradient-3" x1="360.33" y1="-416.55" x2="367.42" y2="-416.55" gradientTransform="translate(-180.07 -313.89) scale(.51 -1.11)" gradientUnits="userSpaceOnUse"><stop offset="0" stop-color="#000"/><stop offset="1" stop-color="#000" stop-opacity="0"/></linearGradient><linearGradient id="linear-gradient-4" x1="-1044.59" y1="-416.86" x2="-1037.49" y2="-416.86" gradientTransform="translate(-513.59 -314.18) rotate(-180) scale(.51 1.11)" gradientUnits="userSpaceOnUse"><stop offset="0" stop-color="#000"/><stop offset="1" stop-color="#000" stop-opacity="0"/></linearGradient><linearGradient id="linear-gradient-5" x1="359.48" y1="-19374.02" x2="366.58" y2="-19374.02" gradientTransform="translate(-179.88 -1097.42) scale(.51 -.06)" gradientUnits="userSpaceOnUse"><stop offset="0" stop-color="#000"/><stop offset="1" stop-color="#000" stop-opacity="0"/></linearGradient><linearGradient id="linear-gradient-6" x1="-1043.73" y1="-19380.01" x2="-1036.64" y2="-19380.01" gradientTransform="translate(-513.82 -1097.44) rotate(-180) scale(.51 .06)" gradientUnits="userSpaceOnUse"><stop offset="0" stop-color="#000"/><stop offset="1" stop-color="#000" stop-opacity="0"/></linearGradient><radialGradient id="radial-gradient" cx="51.22" cy="-1079.3" fx="51.22" fy="-1079.3" r="8.4" gradientTransform="translate(-147.88 -1069.54) rotate(-7) scale(.49 -1.01)" gradientUnits="userSpaceOnUse"><stop offset="0" stop-color="#f9f9f9"/><stop offset="1" stop-color="#f9f9f9"/></radialGradient><linearGradient id="linear-gradient-7" x1="-20.31" y1="-1070.22" x2="-18.16" y2="-1070.22" gradientTransform="translate(36.71 -1046.39) scale(1 -1)" gradientUnits="userSpaceOnUse"><stop offset="0" stop-color="#fff"/><stop offset="1" stop-color="#f2f2f2"/></linearGradient><linearGradient id="linear-gradient-8" x1="-35.86" y1="-1070.22" x2="-33.7" y2="-1070.22" gradientTransform="translate(36.71 -1046.39) scale(1 -1)" gradientUnits="userSpaceOnUse"><stop offset="0" stop-color="#ececec"/><stop offset="1" stop-color="#fff"/></linearGradient></defs><rect x="2.13" y="29.86" width="15.16" height="236.95" fill="#fff" stroke-width="0"/><rect x="2.28" y="30.02" width="7.52" height="236.68" fill="url(#linear-gradient)" isolation="isolate" opacity=".03" stroke-width="0"/><rect x="9.69" y="29.98" width="7.41" height="236.6" fill="url(#linear-gradient-2)" isolation="isolate" opacity=".03" stroke-width="0"/><rect x="1.66" y="267.13" width=".36" height=".39" fill="#f7f7f7" stroke-width="0"/><rect x="17.26" y="267.13" width=".48" height=".48" fill="#f7f7f7" stroke-width="0"/><path d="m2.79,270.71s-.04-.1-.04-.12v-.04s2.75,0,2.75,0v.07c.03.06.03.08,0,.11l-.02.04h-2.67l-.03-.08h0Z" fill="#f7f7f7" stroke-width="0"/><path d="m5.88,270.71s-.04-.1-.04-.12v-.04s1.41,0,1.41,0c1.18,0,1.42,0,1.42.02,0,.03-.05.16-.07.19l-.02.03h-2.66l-.03-.08h0Z" fill="#f7f7f7" stroke-width="0"/><path d="m8.91,270.87c.03-.08.06-.17.06-.22v-.06h.72c.78,0,.73,0,.73.07,0,.02.02.07.04.13l.04.1h-.8c-.76,0-.8,0-.79-.02h0Z" fill="#f7f7f7" stroke-width="0"/><path d="m10.79,270.71s-.03-.09-.04-.12l-.02-.06h1.42c.97,0,1.42,0,1.42.01,0,.02-.05.17-.07.2l-.02.03h-2.67l-.03-.06h0Z" fill="#f7f7f7" stroke-width="0"/><path d="m13.88,270.79s-.02-.06,0-.12v-.08h1.4c.94,0,1.38,0,1.38.01,0,.02-.05.17-.07.2l-.02.03h-2.66l-.02-.04h0Z" fill="#f7f7f7" stroke-width="0"/><path d="m2.14,266.81l15.08.03v2.66s-.56,1.42-.56,1.42l-13.94-.04-.57-1.42v-2.64Z" fill="#101010" stroke-width="0"/><path d="m5.55,273.06c-.16-.39-.37-.84-.57-1.24l-.08-.16.03-.06c.06-.11.19-.34.27-.47l.03-.05h.16c.09,0,.27,0,.4,0h.24l.03.05c.07.11.25.42.29.5v.03s-.03.08-.03.08c-.23.43-.45.92-.63,1.37l-.03.08h-.05l-.05-.13h0Z" fill="#333" stroke-width="0"/><path d="m13.59,272.9c-.16-.39-.37-.84-.57-1.24l-.08-.16.03-.06c.06-.11.19-.34.27-.47l.03-.05h.16c.09,0,.27,0,.4,0h.24l.03.05c.07.11.25.42.29.5v.03s-.03.08-.03.08c-.23.43-.45.92-.63,1.37l-.03.08h-.05l-.05-.13h0Z" fill="#333" stroke-width="0"/><path d="m8.77,272.49c.07-.13.19-.35.27-.5l.15-.27-.18-.31-.18-.31h-.31c-.26,0-.31,0-.31-.03,0-.03-.03-.03-.13-.03-.13,0-.14.01-.18.08l-.04.08.23.44c.13.24.3.59.38.77.08.18.16.33.16.33,0,0,.07-.1.13-.23h0Z" fill="#333" stroke-width="0"/><path d="m10.63,272.49c-.07-.13-.19-.35-.27-.5l-.15-.27.18-.31.18-.31h.31c.26,0,.31,0,.31-.03,0-.03.03-.03.13-.03.13,0,.14.01.18.08l.04.08-.23.44c-.13.24-.3.59-.38.77-.08.18-.16.33-.16.33,0,0-.07-.1-.13-.23h0Z" fill="#333" stroke-width="0"/><path d="m7.76,275.9s.07-.31.08-.34c.14-1.83.29-1.45.87-2.56,0-.06.4-.85.62-1.24l.11-.2v-.51h.55v.52l.12.21c.12.22.46.88.54,1.06l.05.1c.72,1.95.18.24.92,2.76.02.08.03.17.03.18,0,.03,0,.03-1.95.03-1.07,0-1.95,0-1.95,0h0Z" fill="#333" stroke-width="0"/><path d="m2.13,97.44h15.14" fill="none" stroke="#000" stroke-width=".32"/><path d="m12.57,270.95h-.83" fill="none" stroke="#000" stroke-width=".32"/><path d="m3.71,275.25h3.99" fill="none" stroke="#000" stroke-width=".32"/><path d="m5.29,270.95h.83" fill="none" stroke="#000" stroke-width=".32"/><path d="m6.48,271.6c-.11-.23-.23-.45-.36-.67" fill="none" stroke="#000" stroke-width=".32"/><path d="m5.29,270.95c-.13.22-.24.44-.36.67" fill="none" stroke="#000" stroke-width=".32"/><path d="m8.04,270.95h.62" fill="none" stroke="#000" stroke-width=".32"/><path d="m9.26,271.68c-.11-.23-.24-.46-.36-.69" fill="none" stroke="#000" stroke-width=".32"/><path d="m8.04,270.95c-.06.11-.13.23-.19.34" fill="none" stroke="#000" stroke-width=".32"/><path d="m15.69,275.25h-3.99" fill="none" stroke="#000" stroke-width=".32"/><path d="m14.11,270.95h-.83" fill="none" stroke="#000" stroke-width=".32"/><path d="m13.28,270.95c-.13.22-.24.44-.36.67" fill="none" stroke="#000" stroke-width=".32"/><path d="m14.47,271.6c-.11-.23-.23-.45-.36-.67" fill="none" stroke="#000" stroke-width=".32"/><path d="m11.36,270.95h-.62" fill="none" stroke="#000" stroke-width=".32"/><path d="m5.66,270.38c0,.2.05.4.18.56" fill="none" stroke="#000" stroke-width=".32"/><path d="m8.65,270.95c.12-.16.18-.36.18-.56" fill="none" stroke="#000" stroke-width=".32"/><path d="m5.84,270.95h2.82" fill="none" stroke="#000" stroke-width=".32"/><path d="m10.56,270.38c0,.2.05.4.18.56" fill="none" stroke="#000" stroke-width=".32"/><path d="m13.57,270.95c.12-.16.18-.36.18-.56" fill="none" stroke="#000" stroke-width=".32"/><path d="m10.74,270.95h2.82" fill="none" stroke="#000" stroke-width=".32"/><path d="m8.9,271.03h1.6" fill="none" stroke="#000" stroke-width=".32"/><path d="m8.24,270.95s.03.04.04.06" fill="none" stroke="#000" stroke-width=".32"/><path d="m11.12,271.03s.03-.04.04-.06" fill="none" stroke="#000" stroke-width=".32"/><path d="m8.29,271.03h2.82" fill="none" stroke="#000" stroke-width=".32"/><path d="m10.54,271.03c-.13.23-.25.46-.36.69" fill="none" stroke="#000" stroke-width=".32"/><path d="m10.54,271.03c-.13.23-.25.46-.36.69" fill="none" stroke="#000" stroke-width=".32"/><path d="m11.57,271.28c-.05-.1-.11-.2-.17-.31" fill="none" stroke="#000" stroke-width=".32"/><path d="m2.13,68.45h15.14" fill="none" stroke="#000" stroke-width=".32"/><path d="m17.27,30.42v238.76c-.02.44-.16.86-.4,1.23H2.53c-.24-.37-.38-.79-.4-1.23V30.42" fill="none" stroke="#000" stroke-width=".32"/><path d="m7.87,275.25c-.05.22-.1.45-.14.67h3.99c-.04-.23-.09-.45-.14-.67" fill="none" stroke="#000" stroke-width=".32"/><path d="m8.61,273.06c.2-.47.43-.94.69-1.39v-.61" fill="none" stroke="#000" stroke-width=".32"/><path d="m10.13,271.03v.61c.25.43.47.88.67,1.34" fill="none" stroke="#000" stroke-width=".32"/><path d="m5.71,273.55c-.29-.89-.67-1.74-1.13-2.55h-.83c-.76,1.34-1.3,2.8-1.58,4.32h3.99" fill="#333" stroke="#000" stroke-width=".32"/><path d="m2.57,270.38c0,.2.05.4.18.56h2.82c.06-.07.1-.15.13-.24" fill="none" stroke="#000" stroke-width=".32"/><path d="m13.7,270.71c.03.09.07.17.13.24h2.82c.12-.16.18-.36.18-.56" fill="none" stroke="#000" stroke-width=".32"/><path d="m13.24,275.25h3.99c-.28-1.52-.82-2.98-1.58-4.32h-.83c-.46.81-.84,1.67-1.13,2.55" fill="#333" stroke="#000" stroke-width=".32"/><path d="m12.57,270.95c.76,1.34,1.3,2.8,1.58,4.32h-3.99c.28-1.52.82-2.98,1.58-4.32" fill="#333" stroke="#000" stroke-width=".32"/><path d="m6.84,270.95c-.76,1.34-1.3,2.8-1.58,4.32h3.99c-.28-1.52-.82-2.98-1.58-4.32h-.83Z" fill="#333" stroke="#000" stroke-width=".32"/><path d="m2.13,266.81h15.14" fill="none" stroke="#000" stroke-width=".32"/><path d="m2.87,256.9l.04-.11.06-.13.09-.13.11-.13.13-.12.15-.11.16-.09.17-.07.18-.04h.19s.19.04.19.04l.2.09.33.86,1.03,2.84.34.95.34.95,1.03,2.84.34.95.69,1.89.09.23.02.03.02.03.02.02.02.02.02.02.02.02.02.02.02.02h.02s.03.03.03.03h.03s.03.02.03.02l.05.02h.1s.14,0,.14,0l.04-.02.04-.04.04-.06.04-.08.04-.09.04-.1.03-.11.03-.12.03-.13.02-.13.02-.13-.16-1.48-.36-3.1-.36-3.1-.73-6.2-2.19-18.59-.36-3.1-.24-2.1v-.41s0-.2,0-.2v-1.63s-.02-.25-.02-.25l-.03-.4-.03-.36-.03-.32-.03-.29-.03-.26-.03-.24-.03-.21-.03-.19-.03-.17-.04-.15-.04-.14-.04-.13-.04-.12-.04-.11-.04-.1-.04-.09-.04-.08-.04-.07-.04-.07-.04-.06-.04-.05-.04-.05-.04-.04-.04-.04-.04-.03-.04-.03-.04-.02-.05-.02h-.05s-.05-.02-.05-.02h-.05s-.05,0-.05,0h-.05s-.05.02-.05.02l-.05.02-.05.02-.05.03-.05.03-.05.04-.05.04-.05.05-.05.06-.05.06-.06.07-.06.07-.06.08-.06.09-.06.1-.06.1-.06.11-.06.12-.06.12-.06.13-.06.13-.06.14-.06.14-.06.14-.06.14-.06.14-.05.14-.05.14-.05.14-.05.14-.04.13-.04.13-.04.13-.03.14-.03.14-.03.14-.02.14" fill="#f2f2f2" stroke="#000" stroke-width=".32"/><path d="m2.87,256.9l-.03.17-.03.18-.03.18-.03.18-.03.19-.03.19-.03.19-.03.2-.03.2-.03.2-.03.2-.03.21-.03.21-.03.21-.03.21-.03.21-.03.22-.03.22-.03.22-.03.22-.03.22-.03.22-.05.45-.05.45-.05.46-.1.91-.05.46-.05.46-.05.45-.05.45-.02.22-.02.22-.02.22-.02.22-.02.22-.02.22-.02.21-.02.21-.02.21-.02.21v.1s-.02.04-.02.04h0s0,0,0,0h0s0,.03,0,.03h0s-.02.03-.02.03h-.08s-.05-.04-.05-.04l-.05-.03-.05-.03-.05-.03-.05-.03-.04-.03-.04-.03-.04-.03-.04-.03-.04-.03-.04-.03-.04-.03-.04-.03-.03-.03-.03-.03-.03-.03-.03-.03-.06-.07-.05-.07-.05-.07-.04-.07-.04-.07-.04-.07-.03-.07-.03-.07-.03-.08-.03-.08-.02-.08-.02-.08-.02-.08-.02-.08-.02-.08-.02-.08v-.04s-.01-.02-.01-.02h0s0,0,0,0h0s0,0,0,0h0s0-.05,0-.05v-.09s.2-5.86.2-5.86l.39-11.71.59-17.57.05-1.46v-.37s.01-.02.01-.02h0s0,0,0,0h0s0,0,0,0h0s0,0,0,0h0s0-.01,0-.01v-.04s.02-.08.02-.08v-.07s.02-.07.02-.07v-.07s.02-.07.02-.07v-.07s.02-.07.02-.07v-.06s.02-.06.02-.06v-.06s.04-.12.04-.12l.03-.12.03-.11.03-.11.03-.11.03-.11.03-.11.03-.11.03-.11.03-.11.04-.12.04-.12.04-.12.02-.06.02-.06.02-.06.03-.06.03-.06.03-.07.03-.07.03-.07.03-.07.03-.07.03-.07.04-.07.04-.07.04-.07" fill="#f2f2f2" stroke="#000" stroke-linecap="round" stroke-width=".32"/><path d="m16.56,256.9l-.04-.11-.06-.13-.09-.13-.11-.13-.13-.12-.15-.11-.16-.09-.17-.07-.18-.04h-.19s-.19.04-.19.04l-.2.09-.33.86-1.03,2.84-.34.95-1.37,3.79-.34.95-.69,1.89-.09.23-.02.03-.02.03-.02.02-.02.02-.02.02-.02.02-.02.02-.02.02h-.02s-.03.03-.03.03h-.03s-.03.02-.03.02l-.05.02h-.1s-.14,0-.14,0l-.04-.02-.04-.04-.04-.06-.04-.08-.04-.09-.04-.1-.03-.11-.03-.12-.03-.13-.02-.13-.02-.13.16-1.48.36-3.1.36-3.1.36-3.1.73-6.2.73-6.2.36-3.1.73-6.2.36-3.1.24-2.1v-.41s0-.2,0-.2v-1.63s.02-.25.02-.25l.03-.4.03-.36.03-.32.03-.29.03-.26.03-.24.03-.21.03-.19.03-.17.04-.15.04-.14.04-.13.04-.12.04-.11.04-.1.04-.09.04-.08.04-.07.04-.07.04-.06.04-.05.04-.05.04-.04.04-.04.04-.03.04-.03.04-.02.05-.02h.05s.05-.02.05-.02h.05s.05,0,.05,0h.05s.05.02.05.02l.05.02.05.02.05.03.05.03.05.04.05.04.05.05.05.06.05.06.06.07.06.07.06.08.06.09.06.1.06.1.06.11.06.12.06.12.06.13.06.13.06.14.06.14.06.14.06.14.06.14.05.14.05.14.05.14.05.14.04.13.04.13.04.13.03.14.03.14.03.14.02.14" fill="#f2f2f2" stroke="#000" stroke-width=".32"/><path d="m16.56,256.9l.03.17.03.18.03.18.03.18.03.19.03.19.03.19.03.2.03.2.03.2.03.2.03.21.03.21.03.21.03.21.03.21.03.22.03.22.03.22.03.22.03.22.03.22.05.45.05.45.05.46.1.91.05.46.05.46.05.45.05.45.02.22.02.22.02.22.02.22.02.22.02.22.02.21.02.21.02.21.02.21v.1s.02.04.02.04h0s0,0,0,0h0s0,.03,0,.03h0s.02.03.02.03h.08s.05-.04.05-.04l.05-.03.05-.03.05-.03.05-.03.04-.03.04-.03.04-.03.04-.03.04-.03.04-.03.04-.03.04-.03.03-.03.03-.03.03-.03.03-.03.06-.07.05-.07.05-.07.04-.07.04-.07.04-.07.03-.07.03-.07.03-.08.03-.08.02-.08.02-.08.02-.08.02-.08.02-.08.02-.08v-.04s.01-.02.01-.02h0s0,0,0,0h0s0,0,0,0h0s0-.05,0-.05v-.09s-.2-5.86-.2-5.86l-.39-11.71-.39-11.71-.2-5.86-.05-1.46v-.37s-.01-.02-.01-.02h0s0,0,0,0h0s0,0,0,0h0s0-.01,0-.01v-.04s-.02-.08-.02-.08v-.07s-.02-.07-.02-.07v-.07s-.02-.07-.02-.07v-.07s-.02-.07-.02-.07v-.06s-.02-.06-.02-.06v-.06s-.04-.12-.04-.12l-.03-.12-.03-.11-.03-.11-.03-.11-.03-.11-.03-.11-.03-.11-.03-.11-.03-.11-.04-.12-.04-.12-.04-.12-.02-.06-.02-.06-.02-.06-.03-.06-.03-.06-.03-.07-.03-.07-.03-.07-.03-.07-.03-.07-.03-.07-.04-.07-.04-.07-.04-.07" fill="#f2f2f2" stroke="#000" stroke-linecap="round" stroke-width=".32"/><path d="m5.25,226.75l-1-1.06" fill="none" stroke="#000" stroke-width=".32"/><path d="m4.25,225.69h-1.83" fill="none" stroke="#000" stroke-width=".32"/><path d="m2.21,250.33l.14-19.58" fill="none" stroke="#000" stroke-width=".32"/><path d="m2.35,230.76l1.75-2.38" fill="none" stroke="#000" stroke-width=".32"/><path d="m2.35,230.76l-.84-2.17" fill="none" stroke="#000" stroke-width=".32"/><path d="m4.1,228.39l.15-2.7" fill="none" stroke="#000" stroke-linecap="round" stroke-width=".32"/><path d="m1.65,267.13h.5" fill="none" stroke="#000" stroke-width=".32"/><path d="m1.58,267.62h.56" fill="none" stroke="#000" stroke-width=".32"/><path d="m9.47,267.62h.5" fill="none" stroke="#000" stroke-width=".32"/><path d="m9.63,267.13h.18" fill="none" stroke="#000" stroke-width=".32"/><path d="m.58,267.05l.29-3.66.1-1.22.48-6.1.1-1.22.29-3.66.04-.39.03-.1.03-.08.04-.07.04-.06.04-.05.05-.03.05-.03.05-.02h.05s.05,0,.05,0h.05s.05.02.05.02l.05.02.05.03.05.03.05.03.05.04.05.04.04.04.04.05.04.05.04.05.04.05.04.05.04.05.14.36,1.42,3.82.47,1.27,1.42,3.82.95,2.55.47,1.27.95,2.55.47,1.27" fill="none" stroke="#000" stroke-width=".32"/><path d="m14.18,226.75l1-1.06" fill="none" stroke="#000" stroke-width=".32"/><path d="m15.17,225.69h1.83" fill="none" stroke="#000" stroke-width=".32"/><path d="m17.22,250.33l-.14-19.58" fill="none" stroke="#000" stroke-width=".32"/><path d="m17.08,230.76l-1.75-2.38" fill="none" stroke="#000" stroke-width=".32"/><path d="m17.08,230.76l.84-2.17" fill="none" stroke="#000" stroke-width=".32"/><path d="m15.33,228.39l-.15-2.7" fill="none" stroke="#000" stroke-linecap="round" stroke-width=".32"/><path d="m17.78,267.13h-.5" fill="none" stroke="#000" stroke-width=".32"/><path d="m17.85,267.62h-.56" fill="none" stroke="#000" stroke-width=".32"/><path d="m18.85,267.05l-.1-1.22-.1-1.22-.48-6.1-.1-1.22-.38-4.88-.1-1.22-.04-.39-.03-.1-.03-.08-.04-.07-.04-.06-.04-.05-.05-.03-.05-.03-.05-.02h-.05s-.05,0-.05,0h-.05s-.05.02-.05.02l-.05.02-.05.03-.05.03-.05.03-.05.04-.05.04-.04.04-.04.05-.04.05-.04.05-.04.05-.04.05-.04.05-.14.36-.47,1.27-.95,2.55-.47,1.27-1.42,3.82-.95,2.55-.47,1.27-1.42,3.82" fill="none" stroke="#000" stroke-width=".32"/><path d="m10.83,216.47h-3.14l-.12.09v2.79h.87v-1.05l.08-.07h2.3c.58,0,.85-.16.85-.56v-.64c0-.4-.27-.56-.85-.56m0,1.03c0,.19-.13.23-.4.23h-1.9l-.09-.09v-.6l.08-.08h1.91c.27,0,.4.04.4.23v.31h0Z" fill="#005288" stroke-width="0"/><polyline points="9.01 222.82 9.76 223.92 9.72 224.02 8.06 224.02 7.64 224.54 10.1 224.54 10.27 224.64 10.66 225.17 11.65 225.17 9.47 222.25" fill="#005288" stroke-width="0"/><polyline points="8.55 237.38 8.55 236.6 8.64 236.52 10.31 236.52 10.31 236.03 7.67 236.03 7.67 237.94 11.56 237.94 11.56 237.45 8.64 237.45" fill="#005288" stroke-width="0"/><rect x="7.67" y="235.06" width="3.93" height=".54" fill="#005288" stroke-width="0"/><path d="m8.53,229.05h3.17c-.05-.4-.3-.51-.93-.51h-2.27c-.72,0-.94.14-.94.68v1.52c0,.54.23.68.94.68h2.27c.64,0,.89-.12.91-.54h-3.14l-.09-.09v-1.68" fill="#005288" stroke-width="0"/><path d="m10.8,210.95h-2.31l-.07-.07v-.49l.07-.05h3.11l.04-.1c-.11-.27-.38-.4-.89-.4h-2.16c-.72,0-.94.14-.94.68v.32c0,.54.23.68.94.68h2.3l.07.06v.52l-.06.08h-2.63s-.69,0-.69,0c0,0-.08.04-.08.06.06.38.32.49.93.49h2.35c.72,0,.95-.14.95-.68v-.4c0-.54-.24-.68-.95-.68" fill="#005288" stroke-width="0"/><path d="m8.58,241.74h-1.29l-.07.13,1.44,1.05c.27-.16.57-.32.89-.47" fill="#005288" stroke-width="0"/><path d="m9.73,243.72l1.26.92h1.31l.05-.12-1.89-1.38c-.25.18-.5.38-.74.58" fill="#005288" stroke-width="0"/><path d="m8.39,244.63h-1.17l-.1-.15c.8-.77,4.43-3.66,9.16-4.02,0,0-4.14.46-7.89,4.18" fill="#a7a9ac" stroke-width="0"/><rect x="5.96" y="88.01" width="7.47" height="4.2" fill="#b22234" stroke-width="0"/><path d="m5.96,88.5h7.47m0,.65h-7.47m0,.65h7.47m0,.65h-7.47m0,.65h7.47m0,.65h-7.47" stroke="#fff" stroke-miterlimit="10" stroke-width=".3"/><rect x="5.96" y="88.01" width="2.99" height="2.26" fill="#3c3b6e" stroke-width="0"/><path d="m6.21,88.11l.07.23-.19-.14h.23l-.19.14.07-.23Z" fill="#fff" stroke-width="0"/><path id="s" d="m6.21,88.56l.07.23-.19-.14h.23l-.19.14.07-.23Z" fill="#fff" stroke-width="0"/><path id="s-2" d="m6.21,89.01l.07.23-.19-.14h.23l-.19.14.07-.23Z" fill="#fff" stroke-width="0"/><path id="s-3" d="m6.21,89.47l.07.23-.19-.14h.23l-.19.14.07-.23Z" fill="#fff" stroke-width="0"/><path id="s-4" d="m6.21,89.92l.07.23-.19-.14h.23l-.19.14.07-.23Z" fill="#fff" stroke-width="0"/><g id="d"><path id="s-5" d="m6.46,88.34l.07.23-.19-.14h.23l-.19.14.07-.23Z" fill="#fff" stroke-width="0"/><path id="s-6" d="m6.46,88.79l.07.23-.19-.14h.23l-.19.14.07-.23Z" fill="#fff" stroke-width="0"/><path id="s-7" d="m6.46,89.24l.07.23-.19-.14h.23l-.19.14.07-.23Z" fill="#fff" stroke-width="0"/><path id="s-8" d="m6.46,89.69l.07.23-.19-.14h.23l-.19.14.07-.23Z" fill="#fff" stroke-width="0"/></g><g id="a"><g id="c"><g id="d-2"><path id="s-9" d="m6.71,88.11l.07.23-.19-.14h.23l-.19.14.07-.23Z" fill="#fff" stroke-width="0"/><path id="s-10" d="m6.71,88.56l.07.23-.19-.14h.23l-.19.14.07-.23Z" fill="#fff" stroke-width="0"/><path id="s-11" d="m6.71,89.01l.07.23-.19-.14h.23l-.19.14.07-.23Z" fill="#fff" stroke-width="0"/><path id="s-12" d="m6.71,89.47l.07.23-.19-.14h.23l-.19.14.07-.23Z" fill="#fff" stroke-width="0"/></g><path id="s-13" d="m6.71,89.92l.07.23-.19-.14h.23l-.19.14.07-.23Z" fill="#fff" stroke-width="0"/></g><g id="d-3"><path id="s-14" d="m6.95,88.34l.07.23-.19-.14h.23l-.19.14.07-.23Z" fill="#fff" stroke-width="0"/><path id="s-15" d="m6.95,88.79l.07.23-.19-.14h.23l-.19.14.07-.23Z" fill="#fff" stroke-width="0"/><path id="s-16" d="m6.95,89.24l.07.23-.19-.14h.23l-.19.14.07-.23Z" fill="#fff" stroke-width="0"/><path id="s-17" d="m6.95,89.69l.07.23-.19-.14h.23l-.19.14.07-.23Z" fill="#fff" stroke-width="0"/></g></g><g id="e"><g id="a-2"><g id="c-2"><g id="d-4"><path id="s-18" d="m7.2,88.11l.07.23-.19-.14h.23l-.19.14.07-.23Z" fill="#fff" stroke-width="0"/><path id="s-19" d="m7.2,88.56l.07.23-.19-.14h.23l-.19.14.07-.23Z" fill="#fff" stroke-width="0"/><path id="s-20" d="m7.2,89.01l.07.23-.19-.14h.23l-.19.14.07-.23Z" fill="#fff" stroke-width="0"/><path id="s-21" d="m7.2,89.47l.07.23-.19-.14h.23l-.19.14.07-.23Z" fill="#fff" stroke-width="0"/></g><path id="s-22" d="m7.2,89.92l.07.23-.19-.14h.23l-.19.14.07-.23Z" fill="#fff" stroke-width="0"/></g><g id="d-5"><path id="s-23" d="m7.45,88.34l.07.23-.19-.14h.23l-.19.14.07-.23Z" fill="#fff" stroke-width="0"/><path id="s-24" d="m7.45,88.79l.07.23-.19-.14h.23l-.19.14.07-.23Z" fill="#fff" stroke-width="0"/><path id="s-25" d="m7.45,89.24l.07.23-.19-.14h.23l-.19.14.07-.23Z" fill="#fff" stroke-width="0"/><path id="s-26" d="m7.45,89.69l.07.23-.19-.14h.23l-.19.14.07-.23Z" fill="#fff" stroke-width="0"/></g></g><g id="a-3"><g id="c-3"><g id="d-6"><path id="s-27" d="m7.7,88.11l.07.23-.19-.14h.23l-.19.14.07-.23Z" fill="#fff" stroke-width="0"/><path id="s-28" d="m7.7,88.56l.07.23-.19-.14h.23l-.19.14.07-.23Z" fill="#fff" stroke-width="0"/><path id="s-29" d="m7.7,89.01l.07.23-.19-.14h.23l-.19.14.07-.23Z" fill="#fff" stroke-width="0"/><path id="s-30" d="m7.7,89.47l.07.23-.19-.14h.23l-.19.14.07-.23Z" fill="#fff" stroke-width="0"/></g><path id="s-31" d="m7.7,89.92l.07.23-.19-.14h.23l-.19.14.07-.23Z" fill="#fff" stroke-width="0"/></g><g id="d-7"><path id="s-32" d="m7.95,88.34l.07.23-.19-.14h.23l-.19.14.07-.23Z" fill="#fff" stroke-width="0"/><path id="s-33" d="m7.95,88.79l.07.23-.19-.14h.23l-.19.14.07-.23Z" fill="#fff" stroke-width="0"/><path id="s-34" d="m7.95,89.24l.07.23-.19-.14h.23l-.19.14.07-.23Z" fill="#fff" stroke-width="0"/><path id="s-35" d="m7.95,89.69l.07.23-.19-.14h.23l-.19.14.07-.23Z" fill="#fff" stroke-width="0"/></g></g></g><g id="a-4"><g id="c-4"><g id="d-8"><path id="s-36" d="m8.2,88.11l.07.23-.19-.14h.23l-.19.14.07-.23Z" fill="#fff" stroke-width="0"/><path id="s-37" d="m8.2,88.56l.07.23-.19-.14h.23l-.19.14.07-.23Z" fill="#fff" stroke-width="0"/><path id="s-38" d="m8.2,89.01l.07.23-.19-.14h.23l-.19.14.07-.23Z" fill="#fff" stroke-width="0"/><path id="s-39" d="m8.2,89.47l.07.23-.19-.14h.23l-.19.14.07-.23Z" fill="#fff" stroke-width="0"/></g><path id="s-40" d="m8.2,89.92l.07.23-.19-.14h.23l-.19.14.07-.23Z" fill="#fff" stroke-width="0"/></g><g id="d-9"><path id="s-41" d="m8.45,88.34l.07.23-.19-.14h.23l-.19.14.07-.23Z" fill="#fff" stroke-width="0"/><path id="s-42" d="m8.45,88.79l.07.23-.19-.14h.23l-.19.14.07-.23Z" fill="#fff" stroke-width="0"/><path id="s-43" d="m8.45,89.24l.07.23-.19-.14h.23l-.19.14.07-.23Z" fill="#fff" stroke-width="0"/><path id="s-44" d="m8.45,89.69l.07.23-.19-.14h.23l-.19.14.07-.23Z" fill="#fff" stroke-width="0"/></g></g><g id="c-5"><g id="d-10"><path id="s-45" d="m8.7,88.11l.07.23-.19-.14h.23l-.19.14.07-.23Z" fill="#fff" stroke-width="0"/><path id="s-46" d="m8.7,88.56l.07.23-.19-.14h.23l-.19.14.07-.23Z" fill="#fff" stroke-width="0"/><path id="s-47" d="m8.7,89.01l.07.23-.19-.14h.23l-.19.14.07-.23Z" fill="#fff" stroke-width="0"/><path id="s-48" d="m8.7,89.47l.07.23-.19-.14h.23l-.19.14.07-.23Z" fill="#fff" stroke-width="0"/></g><path id="s-49" d="m8.7,89.92l.07.23-.19-.14h.23l-.19.14.07-.23Z" fill="#fff" stroke-width="0"/></g><path d="m7.53,81.72c.25-.13.5-.26.76-.37-2.98-1.57-3.15-2.75-3.76-3.99.47,1.44.87,2.87,3,4.36h0Z" fill="#a80126" fill-rule="evenodd" stroke-width="0"/><path d="m5.98,79.37c1.14.95,2.12,1.63,2.85,1.83.72-.38,3.1-.59,3.05-.05-.52-.26-.83-.13-1.12-.04.15,0,.54-.05.66,0-.05.06-.1.08-.15.12.19.04.37.1.53.19.1,0,.16,0,.19.02-.1.03-.22.15-.28.24.66.02,1.36.01,1.44.71.21-.62-.16-.94-.89-1.08-.1-.21-.25-.39-.4-.6-1.99-.11-3.97-.25-5.86-1.34h0Z" fill="#a80126" fill-rule="evenodd" stroke-width="0"/><path d="m4.42,84.17v-1.2h.8s-.06.08-.13.11h-.5v.32h.45s-.05.07-.1.09h-.35v.43c-.04.1-.09.19-.17.26h0Z" fill-rule="evenodd" stroke-width="0"/><path d="m6.59,83.1v.88h.23v-.83c-.31-.28-.62-.28-.93,0v.83h.21v-.49h.16s.06-.04.08-.07h-.24v-.32c.18-.13.33-.13.49,0h0Z" fill-rule="evenodd" stroke-width="0"/><path d="m8.98,84h-.93v-1.01h.23v.93h.82s-.05.07-.12.08h0Z" fill-rule="evenodd" stroke-width="0"/><path d="m10.37,82.97v.2c-.37.51.26,1.11.98.67h.05c-.44.49-2.07.08-1.03-.87h0Z" fill-rule="evenodd" stroke-width="0"/><path d="m9.88,83v.37c.36-.64.85-.96,2.36-.54-1.45-.57-1.99-.27-2.36.17Z" fill-rule="evenodd" stroke-width="0"/><path d="m12.7,82.89c-.3,0-.61.21-.61.59,0,.77,1.21.81,1.21,0,0-.4-.3-.6-.61-.59h0Zm0,.08c.18,0,.36.17.36.51,0,.69-.71.67-.72,0,0-.34.18-.51.36-.51h0Z" fill-rule="evenodd" stroke-width="0"/><path d="m14.43,83.1v.91h-.18v-.96l.18-.09v.04c.28,0,.47.12.52.19v.82h-.18v-.81c-.06-.11-.14-.13-.35-.14v.02Z" fill-rule="evenodd" stroke-width="0"/><path d="m9.7,84.72c-1.87,0-1.38,1.5-.35,1.47.48-.01.57-.06.89-.41-.2,1.01-.89,1.01-1.71,1.09-.1.07-.12.08-.2.19,1.4-.03,2.57-.28,2.54-1.36-.02-.76-.53-.99-1.18-.98h0Zm-.03.18c.34,0,.62.22.62.48h0c0,.27-.28.48-.62.48-.34,0-.61-.22-.61-.48,0-.27.27-.48.61-.48Z" fill-rule="evenodd" stroke-width="0"/><path d="m17.51,101.75l.03-5.2-.86-1.27.03-1.37-.69-1.29-.23-.74-.56-.2-.56.05-.33.1-.3.81-.18.89-.03.76v.81l.08.58-.66.74v5.25l.51.1,3.76-.03Z" fill="#fff" fill-rule="evenodd" stroke="#040404" stroke-linecap="round" stroke-linejoin="round" stroke-width=".16"/><path d="m13.75,96.54v5.22h3.75v-5.2l-.76-1.31h-1.79l-1.2,1.29Z" fill="none" stroke="#040404" stroke-linecap="square" stroke-linejoin="round" stroke-width=".16"/><path d="m16.7,101.66v-7.7l-.63-1.26c-.73-.34-1.36-.22-1.9.25l.09,2.35" fill="none" stroke="#040404" stroke-linecap="square" stroke-linejoin="round" stroke-width=".16"/><path d="m15.04,95.29v6.45" fill="none" stroke="#040404" stroke-linecap="square" stroke-linejoin="round" stroke-width=".16"/><path d="m14.98,95.27l-.61-.02-1.11,1.2v5.25l.51.05" fill="none" stroke="#040404" stroke-linecap="square" stroke-linejoin="round" stroke-width=".16"/><path d="m14.92,95.23l-.02-1.29-.7-.9" fill="none" stroke="#040404" stroke-linecap="square" stroke-linejoin="round" stroke-width=".16"/><path d="m16.09,92.7l-.32-.79c-.4-.24-.89-.23-1.44-.09-.54,1.23-.59,2.52-.41,3.84" fill="none" stroke="#040404" stroke-linecap="square" stroke-linejoin="round" stroke-width=".16"/><path d="m16.66,93.85c-.66-.27-1.22-.23-1.74-.02" fill="none" stroke="#040404" stroke-linecap="round" stroke-linejoin="round" stroke-width=".16"/><path d="m15.05,101.75l-1.28-1.4" fill="#fff" fill-rule="evenodd" stroke="#040404" stroke-linecap="round" stroke-linejoin="round" stroke-width=".16"/><path d="m16.19,101.75l-2.42-3.06" fill="#fff" fill-rule="evenodd" stroke="#040404" stroke-linecap="round" stroke-linejoin="round" stroke-width=".16"/><path d="m13.76,97.19l3.57,4.53" fill="#fff" fill-rule="evenodd" stroke="#040404" stroke-linecap="round" stroke-linejoin="round" stroke-width=".16"/><path d="m14.12,96.18l3.36,4.3" fill="#fff" fill-rule="evenodd" stroke="#040404" stroke-linecap="round" stroke-linejoin="round" stroke-width=".16"/><path d="m14.79,95.45l2.72,3.55" fill="#fff" fill-rule="evenodd" stroke="#040404" stroke-linecap="round" stroke-linejoin="round" stroke-width=".16"/><path d="m15.84,95.27l1.66,2.13" fill="#fff" fill-rule="evenodd" stroke="#040404" stroke-linecap="round" stroke-linejoin="round" stroke-width=".16"/><path d="m15.6,101.74l1.91-2.71" fill="#fff" fill-rule="evenodd" stroke="#040404" stroke-linecap="round" stroke-linejoin="round" stroke-width=".16"/><path d="m17.46,100.5l-.79,1.24" fill="#fff" fill-rule="evenodd" stroke="#040404" stroke-linecap="round" stroke-linejoin="round" stroke-width=".16"/><path d="m14.34,101.74l3.14-4.1" fill="#fff" fill-rule="evenodd" stroke="#040404" stroke-linecap="round" stroke-linejoin="round" stroke-width=".16"/><path d="m13.78,100.96l3.6-4.57" fill="#fff" fill-rule="evenodd" stroke="#040404" stroke-linecap="round" stroke-linejoin="round" stroke-width=".16"/><path d="m13.78,99.36l3.15-3.7" fill="#fff" fill-rule="evenodd" stroke="#040404" stroke-linecap="round" stroke-linejoin="round" stroke-width=".16"/><path d="m13.75,97.89l2.28-2.59" fill="#fff" fill-rule="evenodd" stroke="#040404" stroke-linecap="round" stroke-linejoin="round" stroke-width=".16"/><path d="m13.25,96.44l.5.1" fill="#ccc" fill-rule="evenodd" stroke="#040404" stroke-linecap="round" stroke-linejoin="round" stroke-width=".16"/><path d="m1.9,101.75l-.03-5.2.86-1.27-.03-1.37.69-1.29.23-.74.56-.2.56.05.33.1.3.81.18.89.03.76v.81l-.08.58.66.74v5.25l-.51.1-3.76-.03Z" fill="#fff" fill-rule="evenodd" stroke="#040404" stroke-linecap="round" stroke-linejoin="round" stroke-width=".16"/><path d="m5.65,96.54v5.22H1.9v-5.2l.76-1.31h1.79l1.2,1.29Z" fill="none" stroke="#040404" stroke-linecap="square" stroke-linejoin="round" stroke-width=".16"/><path d="m2.7,101.66v-7.7l.63-1.26c.73-.34,1.36-.22,1.9.25l-.09,2.35" fill="none" stroke="#040404" stroke-linecap="square" stroke-linejoin="round" stroke-width=".16"/><path d="m4.37,95.29v6.45" fill="none" stroke="#040404" stroke-linecap="square" stroke-linejoin="round" stroke-width=".16"/><path d="m4.42,95.27l.61-.02,1.11,1.2v5.25l-.51.05" fill="none" stroke="#040404" stroke-linecap="square" stroke-linejoin="round" stroke-width=".16"/><path d="m4.48,95.23l.02-1.29.7-.9" fill="none" stroke="#040404" stroke-linecap="square" stroke-linejoin="round" stroke-width=".16"/><path d="m3.31,92.7l.32-.79c.4-.24.89-.23,1.44-.09.54,1.23.59,2.52.41,3.84" fill="none" stroke="#040404" stroke-linecap="square" stroke-linejoin="round" stroke-width=".16"/><path d="m2.74,93.85c.66-.27,1.22-.23,1.74-.02" fill="none" stroke="#040404" stroke-linecap="round" stroke-linejoin="round" stroke-width=".16"/><path d="m4.36,101.75l1.28-1.4" fill="#fff" fill-rule="evenodd" stroke="#040404" stroke-linecap="round" stroke-linejoin="round" stroke-width=".16"/><path d="m3.21,101.75l2.42-3.06" fill="#fff" fill-rule="evenodd" stroke="#040404" stroke-linecap="round" stroke-linejoin="round" stroke-width=".16"/><path d="m5.64,97.19l-3.57,4.53" fill="#fff" fill-rule="evenodd" stroke="#040404" stroke-linecap="round" stroke-linejoin="round" stroke-width=".16"/><path d="m5.29,96.18l-3.36,4.3" fill="#fff" fill-rule="evenodd" stroke="#040404" stroke-linecap="round" stroke-linejoin="round" stroke-width=".16"/><path d="m4.61,95.45l-2.72,3.55" fill="#fff" fill-rule="evenodd" stroke="#040404" stroke-linecap="round" stroke-linejoin="round" stroke-width=".16"/><path d="m3.56,95.27l-1.66,2.13" fill="#fff" fill-rule="evenodd" stroke="#040404" stroke-linecap="round" stroke-linejoin="round" stroke-width=".16"/><path d="m3.81,101.74l-1.91-2.71" fill="#fff" fill-rule="evenodd" stroke="#040404" stroke-linecap="round" stroke-linejoin="round" stroke-width=".16"/><path d="m1.95,100.5l.79,1.24" fill="#fff" fill-rule="evenodd" stroke="#040404" stroke-linecap="round" stroke-linejoin="round" stroke-width=".16"/><path d="m5.07,101.74l-3.14-4.1" fill="#fff" fill-rule="evenodd" stroke="#040404" stroke-linecap="round" stroke-linejoin="round" stroke-width=".16"/><path d="m5.63,100.96l-3.6-4.57" fill="#fff" fill-rule="evenodd" stroke="#040404" stroke-linecap="round" stroke-linejoin="round" stroke-width=".16"/><path d="m5.63,99.36l-3.15-3.7" fill="#fff" fill-rule="evenodd" stroke="#040404" stroke-linecap="round" stroke-linejoin="round" stroke-width=".16"/><path d="m5.65,97.89l-2.28-2.59" fill="#fff" fill-rule="evenodd" stroke="#040404" stroke-linecap="round" stroke-linejoin="round" stroke-width=".16"/><path d="m6.15,96.44l-.5.1" fill="#ccc" fill-rule="evenodd" stroke="#040404" stroke-linecap="round" stroke-linejoin="round" stroke-width=".16"/><rect x="2.13" y="29.86" width="15.16" height="236.95" fill="#fff" stroke-width="0"/><rect x="2.28" y="30.02" width="7.52" height="236.68" fill="url(#linear-gradient-3)" isolation="isolate" opacity=".03" stroke-width="0"/><rect x="9.69" y="29.98" width="7.41" height="236.6" fill="url(#linear-gradient-4)" isolation="isolate" opacity=".03" stroke-width="0"/><rect x="1.66" y="267.13" width=".36" height=".39" fill="#f7f7f7" stroke-width="0"/><rect x="17.26" y="267.13" width=".48" height=".48" fill="#f7f7f7" stroke-width="0"/><path d="m2.79,270.71s-.04-.1-.04-.12v-.04s2.75,0,2.75,0v.07c.03.06.03.08,0,.11l-.02.04h-2.67l-.03-.08h0Z" fill="#f7f7f7" stroke-width="0"/><path d="m5.88,270.71s-.04-.1-.04-.12v-.04s1.41,0,1.41,0c1.18,0,1.42,0,1.42.02,0,.03-.05.16-.07.19l-.02.03h-2.66l-.03-.08h0Z" fill="#f7f7f7" stroke-width="0"/><path d="m8.91,270.87c.03-.08.06-.17.06-.22v-.06h.72c.78,0,.73,0,.73.07,0,.02.02.07.04.13l.04.1h-.8c-.76,0-.8,0-.79-.02h0Z" fill="#f7f7f7" stroke-width="0"/><path d="m10.79,270.71s-.03-.09-.04-.12l-.02-.06h1.42c.97,0,1.42,0,1.42.01,0,.02-.05.17-.07.2l-.02.03h-2.67l-.03-.06h0Z" fill="#f7f7f7" stroke-width="0"/><path d="m13.88,270.79s-.02-.06,0-.12v-.08h1.4c.94,0,1.38,0,1.38.01,0,.02-.05.17-.07.2l-.02.03h-2.66l-.02-.04h0Z" fill="#f7f7f7" stroke-width="0"/><path d="m2.14,266.81l15.08.03v2.66s-.56,1.42-.56,1.42l-13.94-.04-.57-1.42v-2.64Z" fill="#101010" stroke-width="0"/><path d="m5.55,273.06c-.16-.39-.37-.84-.57-1.24l-.08-.16.03-.06c.06-.11.19-.34.27-.47l.03-.05h.16c.09,0,.27,0,.4,0h.24l.03.05c.07.11.25.42.29.5v.03s-.03.08-.03.08c-.23.43-.45.92-.63,1.37l-.03.08h-.05l-.05-.13h0Z" fill="#333" stroke-width="0"/><path d="m13.59,272.9c-.16-.39-.37-.84-.57-1.24l-.08-.16.03-.06c.06-.11.19-.34.27-.47l.03-.05h.16c.09,0,.27,0,.4,0h.24l.03.05c.07.11.25.42.29.5v.03s-.03.08-.03.08c-.23.43-.45.92-.63,1.37l-.03.08h-.05l-.05-.13h0Z" fill="#333" stroke-width="0"/><path d="m8.77,272.49c.07-.13.19-.35.27-.5l.15-.27-.18-.31-.18-.31h-.31c-.26,0-.31,0-.31-.03,0-.03-.03-.03-.13-.03-.13,0-.14.01-.18.08l-.04.08.23.44c.13.24.3.59.38.77.08.18.16.33.16.33,0,0,.07-.1.13-.23h0Z" fill="#333" stroke-width="0"/><path d="m10.63,272.49c-.07-.13-.19-.35-.27-.5l-.15-.27.18-.31.18-.31h.31c.26,0,.31,0,.31-.03,0-.03.03-.03.13-.03.13,0,.14.01.18.08l.04.08-.23.44c-.13.24-.3.59-.38.77-.08.18-.16.33-.16.33,0,0-.07-.1-.13-.23h0Z" fill="#333" stroke-width="0"/><path d="m7.76,275.9s.07-.31.08-.34c.14-1.83.29-1.45.87-2.56,0-.06.4-.85.62-1.24l.11-.2v-.51h.55v.52l.12.21c.12.22.46.88.54,1.06l.05.1c.72,1.95.18.24.92,2.76.02.08.03.17.03.18,0,.03,0,.03-1.95.03-1.07,0-1.95,0-1.95,0h0Z" fill="#333" stroke-width="0"/><path d="m2.13,97.44h15.14" fill="none" stroke="#000" stroke-width=".32"/><path d="m12.57,270.95h-.83" fill="none" stroke="#000" stroke-width=".32"/><path d="m3.71,275.25h3.99" fill="none" stroke="#000" stroke-width=".32"/><path d="m5.29,270.95h.83" fill="none" stroke="#000" stroke-width=".32"/><path d="m6.48,271.6c-.11-.23-.23-.45-.36-.67" fill="none" stroke="#000" stroke-width=".32"/><path d="m5.29,270.95c-.13.22-.24.44-.36.67" fill="none" stroke="#000" stroke-width=".32"/><path d="m8.04,270.95h.62" fill="none" stroke="#000" stroke-width=".32"/><path d="m9.26,271.68c-.11-.23-.24-.46-.36-.69" fill="none" stroke="#000" stroke-width=".32"/><path d="m8.04,270.95c-.06.11-.13.23-.19.34" fill="none" stroke="#000" stroke-width=".32"/><path d="m15.69,275.25h-3.99" fill="none" stroke="#000" stroke-width=".32"/><path d="m14.11,270.95h-.83" fill="none" stroke="#000" stroke-width=".32"/><path d="m13.28,270.95c-.13.22-.24.44-.36.67" fill="none" stroke="#000" stroke-width=".32"/><path d="m14.47,271.6c-.11-.23-.23-.45-.36-.67" fill="none" stroke="#000" stroke-width=".32"/><path d="m11.36,270.95h-.62" fill="none" stroke="#000" stroke-width=".32"/><path d="m5.66,270.38c0,.2.05.4.18.56" fill="none" stroke="#000" stroke-width=".32"/><path d="m8.65,270.95c.12-.16.18-.36.18-.56" fill="none" stroke="#000" stroke-width=".32"/><path d="m5.84,270.95h2.82" fill="none" stroke="#000" stroke-width=".32"/><path d="m10.56,270.38c0,.2.05.4.18.56" fill="none" stroke="#000" stroke-width=".32"/><path d="m13.57,270.95c.12-.16.18-.36.18-.56" fill="none" stroke="#000" stroke-width=".32"/><path d="m10.74,270.95h2.82" fill="none" stroke="#000" stroke-width=".32"/><path d="m8.9,271.03h1.6" fill="none" stroke="#000" stroke-width=".32"/><path d="m8.24,270.95s.03.04.04.06" fill="none" stroke="#000" stroke-width=".32"/><path d="m11.12,271.03s.03-.04.04-.06" fill="none" stroke="#000" stroke-width=".32"/><path d="m8.29,271.03h2.82" fill="none" stroke="#000" stroke-width=".32"/><path d="m10.54,271.03c-.13.23-.25.46-.36.69" fill="none" stroke="#000" stroke-width=".32"/><path d="m10.54,271.03c-.13.23-.25.46-.36.69" fill="none" stroke="#000" stroke-width=".32"/><path d="m11.57,271.28c-.05-.1-.11-.2-.17-.31" fill="none" stroke="#000" stroke-width=".32"/><path d="m2.13,68.45h15.14" fill="none" stroke="#000" stroke-width=".32"/><path d="m17.27,30.42v238.76c-.02.44-.16.86-.4,1.23H2.53c-.24-.37-.38-.79-.4-1.23V30.42" fill="none" stroke="#000" stroke-width=".32"/><path d="m7.87,275.25c-.05.22-.1.45-.14.67h3.99c-.04-.23-.09-.45-.14-.67" fill="none" stroke="#000" stroke-width=".32"/><path d="m8.61,273.06c.2-.47.43-.94.69-1.39v-.61" fill="none" stroke="#000" stroke-width=".32"/><path d="m10.13,271.03v.61c.25.43.47.88.67,1.34" fill="none" stroke="#000" stroke-width=".32"/><path d="m5.71,273.55c-.29-.89-.67-1.74-1.13-2.55h-.83c-.76,1.34-1.3,2.8-1.58,4.32h3.99" fill="#333" stroke="#000" stroke-width=".32"/><path d="m2.57,270.38c0,.2.05.4.18.56h2.82c.06-.07.1-.15.13-.24" fill="none" stroke="#000" stroke-width=".32"/><path d="m13.7,270.71c.03.09.07.17.13.24h2.82c.12-.16.18-.36.18-.56" fill="none" stroke="#000" stroke-width=".32"/><path d="m13.24,275.25h3.99c-.28-1.52-.82-2.98-1.58-4.32h-.83c-.46.81-.84,1.67-1.13,2.55" fill="#333" stroke="#000" stroke-width=".32"/><path d="m12.57,270.95c.76,1.34,1.3,2.8,1.58,4.32h-3.99c.28-1.52.82-2.98,1.58-4.32" fill="#333" stroke="#000" stroke-width=".32"/><path d="m6.84,270.95c-.76,1.34-1.3,2.8-1.58,4.32h3.99c-.28-1.52-.82-2.98-1.58-4.32h-.83Z" fill="#333" stroke="#000" stroke-width=".32"/><path d="m2.13,266.81h15.14" fill="none" stroke="#000" stroke-width=".32"/><path d="m2.87,256.9l.04-.11.06-.13.09-.13.11-.13.13-.12.15-.11.16-.09.17-.07.18-.04h.19s.19.04.19.04l.2.09.33.86,1.03,2.84.34.95.34.95,1.03,2.84.34.95.69,1.89.09.23.02.03.02.03.02.02.02.02.02.02.02.02.02.02.02.02h.02s.03.03.03.03h.03s.03.02.03.02l.05.02h.1s.14,0,.14,0l.04-.02.04-.04.04-.06.04-.08.04-.09.04-.1.03-.11.03-.12.03-.13.02-.13.02-.13-.16-1.48-.36-3.1-.36-3.1-.73-6.2-2.19-18.59-.36-3.1-.24-2.1v-.41s0-.2,0-.2v-1.63s-.02-.25-.02-.25l-.03-.4-.03-.36-.03-.32-.03-.29-.03-.26-.03-.24-.03-.21-.03-.19-.03-.17-.04-.15-.04-.14-.04-.13-.04-.12-.04-.11-.04-.1-.04-.09-.04-.08-.04-.07-.04-.07-.04-.06-.04-.05-.04-.05-.04-.04-.04-.04-.04-.03-.04-.03-.04-.02-.05-.02h-.05s-.05-.02-.05-.02h-.05s-.05,0-.05,0h-.05s-.05.02-.05.02l-.05.02-.05.02-.05.03-.05.03-.05.04-.05.04-.05.05-.05.06-.05.06-.06.07-.06.07-.06.08-.06.09-.06.1-.06.1-.06.11-.06.12-.06.12-.06.13-.06.13-.06.14-.06.14-.06.14-.06.14-.06.14-.05.14-.05.14-.05.14-.05.14-.04.13-.04.13-.04.13-.03.14-.03.14-.03.14-.02.14" fill="#f2f2f2" stroke="#000" stroke-width=".32"/><path d="m2.87,256.9l-.03.17-.03.18-.03.18-.03.18-.03.19-.03.19-.03.19-.03.2-.03.2-.03.2-.03.2-.03.21-.03.21-.03.21-.03.21-.03.21-.03.22-.03.22-.03.22-.03.22-.03.22-.03.22-.05.45-.05.45-.05.46-.1.91-.05.46-.05.46-.05.45-.05.45-.02.22-.02.22-.02.22-.02.22-.02.22-.02.22-.02.21-.02.21-.02.21-.02.21v.1s-.02.04-.02.04h0s0,0,0,0h0s0,.03,0,.03h0s-.02.03-.02.03h-.08s-.05-.04-.05-.04l-.05-.03-.05-.03-.05-.03-.05-.03-.04-.03-.04-.03-.04-.03-.04-.03-.04-.03-.04-.03-.04-.03-.04-.03-.03-.03-.03-.03-.03-.03-.03-.03-.06-.07-.05-.07-.05-.07-.04-.07-.04-.07-.04-.07-.03-.07-.03-.07-.03-.08-.03-.08-.02-.08-.02-.08-.02-.08-.02-.08-.02-.08-.02-.08v-.04s-.01-.02-.01-.02h0s0,0,0,0h0s0,0,0,0h0s0-.05,0-.05v-.09s.2-5.86.2-5.86l.39-11.71.59-17.57.05-1.46v-.37s.01-.02.01-.02h0s0,0,0,0h0s0,0,0,0h0s0,0,0,0h0s0-.01,0-.01v-.04s.02-.08.02-.08v-.07s.02-.07.02-.07v-.07s.02-.07.02-.07v-.07s.02-.07.02-.07v-.06s.02-.06.02-.06v-.06s.04-.12.04-.12l.03-.12.03-.11.03-.11.03-.11.03-.11.03-.11.03-.11.03-.11.03-.11.04-.12.04-.12.04-.12.02-.06.02-.06.02-.06.03-.06.03-.06.03-.07.03-.07.03-.07.03-.07.03-.07.03-.07.04-.07.04-.07.04-.07" fill="#f2f2f2" stroke="#000" stroke-linecap="round" stroke-width=".32"/><path d="m16.56,256.9l-.04-.11-.06-.13-.09-.13-.11-.13-.13-.12-.15-.11-.16-.09-.17-.07-.18-.04h-.19s-.19.04-.19.04l-.2.09-.33.86-1.03,2.84-.34.95-1.37,3.79-.34.95-.69,1.89-.09.23-.02.03-.02.03-.02.02-.02.02-.02.02-.02.02-.02.02-.02.02h-.02s-.03.03-.03.03h-.03s-.03.02-.03.02l-.05.02h-.1s-.14,0-.14,0l-.04-.02-.04-.04-.04-.06-.04-.08-.04-.09-.04-.1-.03-.11-.03-.12-.03-.13-.02-.13-.02-.13.16-1.48.36-3.1.36-3.1.36-3.1.73-6.2.73-6.2.36-3.1.73-6.2.36-3.1.24-2.1v-.41s0-.2,0-.2v-1.63s.02-.25.02-.25l.03-.4.03-.36.03-.32.03-.29.03-.26.03-.24.03-.21.03-.19.03-.17.04-.15.04-.14.04-.13.04-.12.04-.11.04-.1.04-.09.04-.08.04-.07.04-.07.04-.06.04-.05.04-.05.04-.04.04-.04.04-.03.04-.03.04-.02.05-.02h.05s.05-.02.05-.02h.05s.05,0,.05,0h.05s.05.02.05.02l.05.02.05.02.05.03.05.03.05.04.05.04.05.05.05.06.05.06.06.07.06.07.06.08.06.09.06.1.06.1.06.11.06.12.06.12.06.13.06.13.06.14.06.14.06.14.06.14.06.14.05.14.05.14.05.14.05.14.04.13.04.13.04.13.03.14.03.14.03.14.02.14" fill="#f2f2f2" stroke="#000" stroke-width=".32"/><path d="m16.56,256.9l.03.17.03.18.03.18.03.18.03.19.03.19.03.19.03.2.03.2.03.2.03.2.03.21.03.21.03.21.03.21.03.21.03.22.03.22.03.22.03.22.03.22.03.22.05.45.05.45.05.46.1.91.05.46.05.46.05.45.05.45.02.22.02.22.02.22.02.22.02.22.02.22.02.21.02.21.02.21.02.21v.1s.02.04.02.04h0s0,0,0,0h0s0,.03,0,.03h0s.02.03.02.03h.08s.05-.04.05-.04l.05-.03.05-.03.05-.03.05-.03.04-.03.04-.03.04-.03.04-.03.04-.03.04-.03.04-.03.04-.03.03-.03.03-.03.03-.03.03-.03.06-.07.05-.07.05-.07.04-.07.04-.07.04-.07.03-.07.03-.07.03-.08.03-.08.02-.08.02-.08.02-.08.02-.08.02-.08.02-.08v-.04s.01-.02.01-.02h0s0,0,0,0h0s0,0,0,0h0s0-.05,0-.05v-.09s-.2-5.86-.2-5.86l-.39-11.71-.39-11.71-.2-5.86-.05-1.46v-.37s-.01-.02-.01-.02h0s0,0,0,0h0s0,0,0,0h0s0-.01,0-.01v-.04s-.02-.08-.02-.08v-.07s-.02-.07-.02-.07v-.07s-.02-.07-.02-.07v-.07s-.02-.07-.02-.07v-.06s-.02-.06-.02-.06v-.06s-.04-.12-.04-.12l-.03-.12-.03-.11-.03-.11-.03-.11-.03-.11-.03-.11-.03-.11-.03-.11-.03-.11-.04-.12-.04-.12-.04-.12-.02-.06-.02-.06-.02-.06-.03-.06-.03-.06-.03-.07-.03-.07-.03-.07-.03-.07-.03-.07-.03-.07-.04-.07-.04-.07-.04-.07" fill="#f2f2f2" stroke="#000" stroke-linecap="round" stroke-width=".32"/><path d="m5.25,226.75l-1-1.06" fill="none" stroke="#000" stroke-width=".32"/><path d="m4.25,225.69h-1.83" fill="none" stroke="#000" stroke-width=".32"/><path d="m2.21,250.33l.14-19.58" fill="none" stroke="#000" stroke-width=".32"/><path d="m2.35,230.76l1.75-2.38" fill="none" stroke="#000" stroke-width=".32"/><path d="m2.35,230.76l-.84-2.17" fill="none" stroke="#000" stroke-width=".32"/><path d="m4.1,228.39l.15-2.7" fill="none" stroke="#000" stroke-linecap="round" stroke-width=".32"/><path d="m1.65,267.13h.5" fill="none" stroke="#000" stroke-width=".32"/><path d="m1.58,267.62h.56" fill="none" stroke="#000" stroke-width=".32"/><path d="m9.47,267.62h.5" fill="none" stroke="#000" stroke-width=".32"/><path d="m9.63,267.13h.18" fill="none" stroke="#000" stroke-width=".32"/><path d="m.58,267.05l.29-3.66.1-1.22.48-6.1.1-1.22.29-3.66.04-.39.03-.1.03-.08.04-.07.04-.06.04-.05.05-.03.05-.03.05-.02h.05s.05,0,.05,0h.05s.05.02.05.02l.05.02.05.03.05.03.05.03.05.04.05.04.04.04.04.05.04.05.04.05.04.05.04.05.04.05.14.36,1.42,3.82.47,1.27,1.42,3.82.95,2.55.47,1.27.95,2.55.47,1.27" fill="none" stroke="#000" stroke-width=".32"/><path d="m14.18,226.75l1-1.06" fill="none" stroke="#000" stroke-width=".32"/><path d="m15.17,225.69h1.83" fill="none" stroke="#000" stroke-width=".32"/><path d="m17.22,250.33l-.14-19.58" fill="none" stroke="#000" stroke-width=".32"/><path d="m17.08,230.76l-1.75-2.38" fill="none" stroke="#000" stroke-width=".32"/><path d="m17.08,230.76l.84-2.17" fill="none" stroke="#000" stroke-width=".32"/><path d="m15.33,228.39l-.15-2.7" fill="none" stroke="#000" stroke-linecap="round" stroke-width=".32"/><path d="m17.78,267.13h-.5" fill="none" stroke="#000" stroke-width=".32"/><path d="m17.85,267.62h-.56" fill="none" stroke="#000" stroke-width=".32"/><path d="m18.85,267.05l-.1-1.22-.1-1.22-.48-6.1-.1-1.22-.38-4.88-.1-1.22-.04-.39-.03-.1-.03-.08-.04-.07-.04-.06-.04-.05-.05-.03-.05-.03-.05-.02h-.05s-.05,0-.05,0h-.05s-.05.02-.05.02l-.05.02-.05.03-.05.03-.05.03-.05.04-.05.04-.04.04-.04.05-.04.05-.04.05-.04.05-.04.05-.04.05-.14.36-.47,1.27-.95,2.55-.47,1.27-1.42,3.82-.95,2.55-.47,1.27-1.42,3.82" fill="none" stroke="#000" stroke-width=".32"/><path d="m10.83,216.47h-3.14l-.12.09v2.79h.87v-1.05l.08-.07h2.3c.58,0,.85-.16.85-.56v-.64c0-.4-.27-.56-.85-.56m0,1.03c0,.19-.13.23-.4.23h-1.9l-.09-.09v-.6l.08-.08h1.91c.27,0,.4.04.4.23v.31h0Z" fill="#005288" stroke-width="0"/><polyline points="9.01 222.82 9.76 223.92 9.72 224.02 8.06 224.02 7.64 224.54 10.1 224.54 10.27 224.64 10.66 225.17 11.65 225.17 9.47 222.25" fill="#005288" stroke-width="0"/><polyline points="8.55 237.38 8.55 236.6 8.64 236.52 10.31 236.52 10.31 236.03 7.67 236.03 7.67 237.94 11.56 237.94 11.56 237.45 8.64 237.45" fill="#005288" stroke-width="0"/><rect x="7.67" y="235.06" width="3.93" height=".54" fill="#005288" stroke-width="0"/><path d="m8.53,229.05h3.17c-.05-.4-.3-.51-.93-.51h-2.27c-.72,0-.94.14-.94.68v1.52c0,.54.23.68.94.68h2.27c.64,0,.89-.12.91-.54h-3.14l-.09-.09v-1.68" fill="#005288" stroke-width="0"/><path d="m10.8,210.95h-2.31l-.07-.07v-.49l.07-.05h3.11l.04-.1c-.11-.27-.38-.4-.89-.4h-2.16c-.72,0-.94.14-.94.68v.32c0,.54.23.68.94.68h2.3l.07.06v.52l-.06.08h-2.63s-.69,0-.69,0c0,0-.08.04-.08.06.06.38.32.49.93.49h2.35c.72,0,.95-.14.95-.68v-.4c0-.54-.24-.68-.95-.68" fill="#005288" stroke-width="0"/><path d="m8.58,241.74h-1.29l-.07.13,1.44,1.05c.27-.16.57-.32.89-.47" fill="#005288" stroke-width="0"/><path d="m9.73,243.72l1.26.92h1.31l.05-.12-1.89-1.38c-.25.18-.5.38-.74.58" fill="#005288" stroke-width="0"/><path d="m8.39,244.63h-1.17l-.1-.15c.8-.77,4.43-3.66,9.16-4.02,0,0-4.14.46-7.89,4.18" fill="#a7a9ac" stroke-width="0"/><rect x="5.96" y="88.01" width="7.47" height="4.2" fill="#b22234" stroke-width="0"/><path d="m5.96,88.5h7.47m0,.65h-7.47m0,.65h7.47m0,.65h-7.47m0,.65h7.47m0,.65h-7.47" stroke="#fff" stroke-miterlimit="10" stroke-width=".3"/><rect x="5.96" y="88.01" width="2.99" height="2.26" fill="#3c3b6e" stroke-width="0"/><path d="m6.21,88.11l.07.23-.19-.14h.23l-.19.14.07-.23Z" fill="#fff" stroke-width="0"/><path id="s-50" d="m6.21,88.56l.07.23-.19-.14h.23l-.19.14.07-.23Z" fill="#fff" stroke-width="0"/><path id="s-51" d="m6.21,89.01l.07.23-.19-.14h.23l-.19.14.07-.23Z" fill="#fff" stroke-width="0"/><path id="s-52" d="m6.21,89.47l.07.23-.19-.14h.23l-.19.14.07-.23Z" fill="#fff" stroke-width="0"/><path id="s-53" d="m6.21,89.92l.07.23-.19-.14h.23l-.19.14.07-.23Z" fill="#fff" stroke-width="0"/><g id="d-11"><path id="s-54" d="m6.46,88.34l.07.23-.19-.14h.23l-.19.14.07-.23Z" fill="#fff" stroke-width="0"/><path id="s-55" d="m6.46,88.79l.07.23-.19-.14h.23l-.19.14.07-.23Z" fill="#fff" stroke-width="0"/><path id="s-56" d="m6.46,89.24l.07.23-.19-.14h.23l-.19.14.07-.23Z" fill="#fff" stroke-width="0"/><path id="s-57" d="m6.46,89.69l.07.23-.19-.14h.23l-.19.14.07-.23Z" fill="#fff" stroke-width="0"/></g><g id="a-5"><g id="c-6"><g id="d-12"><path id="s-58" d="m6.71,88.11l.07.23-.19-.14h.23l-.19.14.07-.23Z" fill="#fff" stroke-width="0"/><path id="s-59" d="m6.71,88.56l.07.23-.19-.14h.23l-.19.14.07-.23Z" fill="#fff" stroke-width="0"/><path id="s-60" d="m6.71,89.01l.07.23-.19-.14h.23l-.19.14.07-.23Z" fill="#fff" stroke-width="0"/><path id="s-61" d="m6.71,89.47l.07.23-.19-.14h.23l-.19.14.07-.23Z" fill="#fff" stroke-width="0"/></g><path id="s-62" d="m6.71,89.92l.07.23-.19-.14h.23l-.19.14.07-.23Z" fill="#fff" stroke-width="0"/></g><g id="d-13"><path id="s-63" d="m6.95,88.34l.07.23-.19-.14h.23l-.19.14.07-.23Z" fill="#fff" stroke-width="0"/><path id="s-64" d="m6.95,88.79l.07.23-.19-.14h.23l-.19.14.07-.23Z" fill="#fff" stroke-width="0"/><path id="s-65" d="m6.95,89.24l.07.23-.19-.14h.23l-.19.14.07-.23Z" fill="#fff" stroke-width="0"/><path id="s-66" d="m6.95,89.69l.07.23-.19-.14h.23l-.19.14.07-.23Z" fill="#fff" stroke-width="0"/></g></g><g id="e-2"><g id="a-6"><g id="c-7"><g id="d-14"><path id="s-67" d="m7.2,88.11l.07.23-.19-.14h.23l-.19.14.07-.23Z" fill="#fff" stroke-width="0"/><path id="s-68" d="m7.2,88.56l.07.23-.19-.14h.23l-.19.14.07-.23Z" fill="#fff" stroke-width="0"/><path id="s-69" d="m7.2,89.01l.07.23-.19-.14h.23l-.19.14.07-.23Z" fill="#fff" stroke-width="0"/><path id="s-70" d="m7.2,89.47l.07.23-.19-.14h.23l-.19.14.07-.23Z" fill="#fff" stroke-width="0"/></g><path id="s-71" d="m7.2,89.92l.07.23-.19-.14h.23l-.19.14.07-.23Z" fill="#fff" stroke-width="0"/></g><g id="d-15"><path id="s-72" d="m7.45,88.34l.07.23-.19-.14h.23l-.19.14.07-.23Z" fill="#fff" stroke-width="0"/><path id="s-73" d="m7.45,88.79l.07.23-.19-.14h.23l-.19.14.07-.23Z" fill="#fff" stroke-width="0"/><path id="s-74" d="m7.45,89.24l.07.23-.19-.14h.23l-.19.14.07-.23Z" fill="#fff" stroke-width="0"/><path id="s-75" d="m7.45,89.69l.07.23-.19-.14h.23l-.19.14.07-.23Z" fill="#fff" stroke-width="0"/></g></g><g id="a-7"><g id="c-8"><g id="d-16"><path id="s-76" d="m7.7,88.11l.07.23-.19-.14h.23l-.19.14.07-.23Z" fill="#fff" stroke-width="0"/><path id="s-77" d="m7.7,88.56l.07.23-.19-.14h.23l-.19.14.07-.23Z" fill="#fff" stroke-width="0"/><path id="s-78" d="m7.7,89.01l.07.23-.19-.14h.23l-.19.14.07-.23Z" fill="#fff" stroke-width="0"/><path id="s-79" d="m7.7,89.47l.07.23-.19-.14h.23l-.19.14.07-.23Z" fill="#fff" stroke-width="0"/></g><path id="s-80" d="m7.7,89.92l.07.23-.19-.14h.23l-.19.14.07-.23Z" fill="#fff" stroke-width="0"/></g><g id="d-17"><path id="s-81" d="m7.95,88.34l.07.23-.19-.14h.23l-.19.14.07-.23Z" fill="#fff" stroke-width="0"/><path id="s-82" d="m7.95,88.79l.07.23-.19-.14h.23l-.19.14.07-.23Z" fill="#fff" stroke-width="0"/><path id="s-83" d="m7.95,89.24l.07.23-.19-.14h.23l-.19.14.07-.23Z" fill="#fff" stroke-width="0"/><path id="s-84" d="m7.95,89.69l.07.23-.19-.14h.23l-.19.14.07-.23Z" fill="#fff" stroke-width="0"/></g></g></g><g id="a-8"><g id="c-9"><g id="d-18"><path id="s-85" d="m8.2,88.11l.07.23-.19-.14h.23l-.19.14.07-.23Z" fill="#fff" stroke-width="0"/><path id="s-86" d="m8.2,88.56l.07.23-.19-.14h.23l-.19.14.07-.23Z" fill="#fff" stroke-width="0"/><path id="s-87" d="m8.2,89.01l.07.23-.19-.14h.23l-.19.14.07-.23Z" fill="#fff" stroke-width="0"/><path id="s-88" d="m8.2,89.47l.07.23-.19-.14h.23l-.19.14.07-.23Z" fill="#fff" stroke-width="0"/></g><path id="s-89" d="m8.2,89.92l.07.23-.19-.14h.23l-.19.14.07-.23Z" fill="#fff" stroke-width="0"/></g><g id="d-19"><path id="s-90" d="m8.45,88.34l.07.23-.19-.14h.23l-.19.14.07-.23Z" fill="#fff" stroke-width="0"/><path id="s-91" d="m8.45,88.79l.07.23-.19-.14h.23l-.19.14.07-.23Z" fill="#fff" stroke-width="0"/><path id="s-92" d="m8.45,89.24l.07.23-.19-.14h.23l-.19.14.07-.23Z" fill="#fff" stroke-width="0"/><path id="s-93" d="m8.45,89.69l.07.23-.19-.14h.23l-.19.14.07-.23Z" fill="#fff" stroke-width="0"/></g></g><g id="c-10"><g id="d-20"><path id="s-94" d="m8.7,88.11l.07.23-.19-.14h.23l-.19.14.07-.23Z" fill="#fff" stroke-width="0"/><path id="s-95" d="m8.7,88.56l.07.23-.19-.14h.23l-.19.14.07-.23Z" fill="#fff" stroke-width="0"/><path id="s-96" d="m8.7,89.01l.07.23-.19-.14h.23l-.19.14.07-.23Z" fill="#fff" stroke-width="0"/><path id="s-97" d="m8.7,89.47l.07.23-.19-.14h.23l-.19.14.07-.23Z" fill="#fff" stroke-width="0"/></g><path id="s-98" d="m8.7,89.92l.07.23-.19-.14h.23l-.19.14.07-.23Z" fill="#fff" stroke-width="0"/></g><path d="m7.53,81.72c.25-.13.5-.26.76-.37-2.98-1.57-3.15-2.75-3.76-3.99.47,1.44.87,2.87,3,4.36h0Z" fill="#a80126" fill-rule="evenodd" stroke-width="0"/><path d="m5.98,79.37c1.14.95,2.12,1.63,2.85,1.83.72-.38,3.1-.59,3.05-.05-.52-.26-.83-.13-1.12-.04.15,0,.54-.05.66,0-.05.06-.1.08-.15.12.19.04.37.1.53.19.1,0,.16,0,.19.02-.1.03-.22.15-.28.24.66.02,1.36.01,1.44.71.21-.62-.16-.94-.89-1.08-.1-.21-.25-.39-.4-.6-1.99-.11-3.97-.25-5.86-1.34h0Z" fill="#a80126" fill-rule="evenodd" stroke-width="0"/><path d="m4.42,84.17v-1.2h.8s-.06.08-.13.11h-.5v.32h.45s-.05.07-.1.09h-.35v.43c-.04.1-.09.19-.17.26h0Z" fill-rule="evenodd" stroke-width="0"/><path d="m6.59,83.1v.88h.23v-.83c-.31-.28-.62-.28-.93,0v.83h.21v-.49h.16s.06-.04.08-.07h-.24v-.32c.18-.13.33-.13.49,0h0Z" fill-rule="evenodd" stroke-width="0"/><path d="m8.98,84h-.93v-1.01h.23v.93h.82s-.05.07-.12.08h0Z" fill-rule="evenodd" stroke-width="0"/><path d="m10.37,82.97v.2c-.37.51.26,1.11.98.67h.05c-.44.49-2.07.08-1.03-.87h0Z" fill-rule="evenodd" stroke-width="0"/><path d="m9.88,83v.37c.36-.64.85-.96,2.36-.54-1.45-.57-1.99-.27-2.36.17Z" fill-rule="evenodd" stroke-width="0"/><path d="m12.7,82.89c-.3,0-.61.21-.61.59,0,.77,1.21.81,1.21,0,0-.4-.3-.6-.61-.59h0Zm0,.08c.18,0,.36.17.36.51,0,.69-.71.67-.72,0,0-.34.18-.51.36-.51h0Z" fill-rule="evenodd" stroke-width="0"/><path d="m14.43,83.1v.91h-.18v-.96l.18-.09v.04c.28,0,.47.12.52.19v.82h-.18v-.81c-.06-.11-.14-.13-.35-.14v.02Z" fill-rule="evenodd" stroke-width="0"/><path d="m9.7,84.72c-1.87,0-1.38,1.5-.35,1.47.48-.01.57-.06.89-.41-.2,1.01-.89,1.01-1.71,1.09-.1.07-.12.08-.2.19,1.4-.03,2.57-.28,2.54-1.36-.02-.76-.53-.99-1.18-.98h0Zm-.03.18c.34,0,.62.22.62.48h0c0,.27-.28.48-.62.48-.34,0-.61-.22-.61-.48,0-.27.27-.48.61-.48Z" fill-rule="evenodd" stroke-width="0"/><rect x="2.1" y="17.47" width="15.18" height="12.36" fill="#fff" stroke-width="0"/><rect x="2.26" y="17.48" width="7.53" height="12.34" fill="url(#linear-gradient-5)" isolation="isolate" opacity=".03" stroke-width="0"/><rect x="9.68" y="17.48" width="7.42" height="12.34" fill="url(#linear-gradient-6)" isolation="isolate" opacity=".03" stroke-width="0"/><path d="m17.92,16.63v-.11s.01-.11.01-.11v-.11s-.02-.11-.02-.11l-.09-.36-1.3-4.71-.65-2.36-.22-.79-.65-2.36-.22-.79-.06-.2-.05-.15-.06-.15-.06-.16-.07-.17-.07-.17-.08-.17-.08-.18-.09-.18-.09-.18-.1-.18-.1-.17-.11-.17-.11-.17-.11-.16-.12-.16-.12-.15-.12-.14-.13-.14-.13-.13-.13-.13-.13-.12-.13-.11-.14-.11-.14-.1-.14-.1-.14-.09-.14-.09-.14-.08-.14-.08-.14-.07-.14-.06-.14-.06-.14-.05-.14-.05-.14-.04-.14-.04-.14-.03-.14-.03-.14-.02-.13-.02-.13-.02h-.13s-.13-.01-.13-.01h-.13s-.13.03-.13.03l-.13.02-.14.02-.14.03-.14.03-.14.04-.14.04-.14.05-.14.05-.14.06-.14.06-.14.07-.14.08-.14.08-.14.09-.14.09-.14.1-.14.1-.14.11-.13.11-.13.12-.13.13-.13.13-.13.14-.12.14-.12.15-.12.16-.11.16-.11.17-.11.17-.1.17-.1.18-.09.18-.09.18-.08.18-.08.17-.07.17-.07.17-.06.16-.06.15-.05.15-.06.2-.65,2.36-.22.79-.65,2.36-.22.79-.65,2.36-.22.79-.43,1.57-.09.36v.11s-.02.11-.02.11v.11s.01.11.01.11" fill="url(#radial-gradient)" stroke-width="0"/><path d="m2.87,17.67s-.04-.06-.12-.11c-.06-.04-.15-.11-.19-.15-.08-.09-.17-.31-.2-.46-.03-.18-.05-.23-.14-.27-.16-.09-.32-.12-.55-.11h-.21s0-.07,0-.07v-.08h16.37v.08s.01.08.01.08h-.21c-.23-.02-.39,0-.55.1-.08.05-.11.09-.14.27-.02.15-.12.37-.2.46-.04.05-.13.11-.19.15-.08.05-.12.09-.12.11,0,.04-.28.04-6.79.04s-6.79,0-6.79-.04h0Z" fill="#ececec" stroke-width="0"/><path d="m17.92,16.79v-.11s.01-.11.01-.11v-.11s-.02-.11-.02-.11l-.09-.36-1.3-4.71-.65-2.36-.22-.79-.65-2.36-.22-.79-.06-.2-.05-.15-.06-.15-.06-.16-.07-.17-.07-.17-.08-.17-.08-.18-.09-.18-.09-.18-.1-.18-.1-.17-.11-.17-.11-.17-.11-.16-.12-.16-.12-.15-.12-.14-.13-.14-.13-.13-.13-.13-.13-.12-.13-.11-.14-.11-.14-.1-.14-.1-.14-.09-.14-.09-.14-.08-.14-.08-.14-.07-.14-.06-.14-.06-.14-.05-.14-.05-.14-.04-.14-.04-.14-.03-.14-.03-.14-.02-.13-.02-.13-.02h-.13s-.13-.01-.13-.01h-.13s-.13.03-.13.03l-.13.02-.14.02-.14.03-.14.03-.14.04-.14.04-.14.05-.14.05-.14.06-.14.06-.14.07-.14.08-.14.08-.14.09-.14.09-.14.1-.14.1-.14.11-.13.11-.13.12-.13.13-.13.13-.13.14-.12.14-.12.15-.12.16-.11.16-.11.17-.11.17-.1.17-.1.18-.09.18-.09.18-.08.18-.08.17-.07.17-.07.17-.06.16-.06.15-.05.15-.06.2-.65,2.36-.22.79-.65,2.36-.22.79-.65,2.36-.22.79-.43,1.57-.09.36v.11s-.02.11-.02.11v.11s.01.11.01.11" fill="none" stroke="#000" stroke-width=".32"/><path d="m2.84,29.79h13.71" fill="none" stroke="#000" stroke-width=".32"/><path d="m2.84,17.62h13.71" fill="none" stroke="#000" stroke-width=".32"/><path d="m1.5,16.27h16.4" fill="#f2f2f2" stroke="#000" stroke-width=".32"/><path d="m4.63,4.9h10.14" fill="none" stroke="#000" stroke-width=".32"/><path d="m2.84,29.79h13.71" fill="none" stroke="#000" stroke-width=".32"/><path d="m16.56,17.5v12.72l.04.74.21-.14.2-.15.19-.15.18-.15.16-.15.15-.15.14-.14.12-.14.11-.13.09-.12.08-.11.06-.1.05-.09.03-.08v-.31s.01-11.24.01-11.24l-.02-.43-.04-.05-.04-.05-.05-.05-.05-.05-.05-.05-.06-.04-.06-.04-.06-.03-.07-.03-.07-.03-.07-.02-.07-.02h-.07s-.07-.02-.07-.02h-.07s-.07,0-.07,0h-.07s-.07.02-.07.02l-.07.02-.06.02-.06.02-.02.05v.05s-.02.05-.02.05v.05s-.03.05-.03.05l-.02.05-.03.05-.03.05-.03.05-.04.04-.04.04-.04.04-.04.03-.04.03-.05.03-.05.02-.05.02h0Z" fill="url(#linear-gradient-7)" stroke="#000" stroke-width=".32"/><path d="m2.84,17.5v12.72l-.04.74-.21-.14-.2-.15-.19-.15-.18-.15-.16-.15-.15-.15-.14-.14-.12-.14-.11-.13-.09-.12-.08-.11-.06-.1-.05-.09-.03-.08v-.31s-.01-11.24-.01-11.24l.02-.43.04-.05.04-.05.05-.05.05-.05.05-.05.06-.04.06-.04.06-.03.07-.03.07-.03.07-.02.07-.02h.07s.07-.02.07-.02h.07s.07,0,.07,0h.07s.07.02.07.02l.07.02.06.02.06.02.02.05v.05s.02.05.02.05v.05s.03.05.03.05l.02.05.03.05.03.05.03.05.04.04.04.04.04.04.04.03.04.03.05.03.05.02.05.02h0Z" fill="url(#linear-gradient-8)" stroke="#000" stroke-width=".32"/><path d="m7.13,12.63h-1.02l-.04.03v.91h.28v-.34l.03-.02h.75c.19,0,.28-.05.28-.18v-.21c0-.13-.09-.18-.28-.18m0,.34c0,.06-.04.07-.13.07h-.62l-.03-.03v-.19l.03-.02h.62c.09,0,.13.01.13.07v.1Z" fill="#005288" stroke-width="0"/><polyline points="7.93 12.8 8.17 13.16 8.16 13.19 7.62 13.19 7.48 13.36 8.28 13.36 8.34 13.39 8.46 13.57 8.79 13.57 8.08 12.62" fill="#005288" stroke-width="0"/><polyline points="11.15 13.38 11.15 13.13 11.18 13.1 11.72 13.1 11.72 12.94 10.86 12.94 10.86 13.57 12.13 13.57 12.13 13.41 11.18 13.41" fill="#005288" stroke-width="0"/><rect x="10.86" y="12.63" width="1.28" height=".18" fill="#005288" stroke-width="0"/><path d="m9.43,12.79h1.03c-.02-.13-.1-.17-.3-.17h-.74c-.23,0-.31.05-.31.22v.49c0,.18.07.22.31.22h.74c.21,0,.29-.04.3-.18h-1.02l-.03-.03v-.55" fill="#005288" stroke-width="0"/><path d="m5.38,12.99h-.75l-.02-.02v-.16l.02-.02h1.01v-.03c-.02-.09-.11-.13-.28-.13h-.7c-.23,0-.31.05-.31.22v.1c0,.18.07.22.31.22h.75l.02.02v.17l-.02.03h-.86s-.22,0-.22,0c0,0-.03.01-.02.02.02.12.1.16.3.16h.77c.23,0,.31-.05.31-.22v-.13c0-.18-.08-.22-.31-.22" fill="#005288" stroke-width="0"/><path d="m12.95,12.62h-.42l-.02.04.47.34c.09-.05.19-.1.29-.15" fill="#005288" stroke-width="0"/><path d="m13.33,13.27l.41.3h.43l.02-.04-.61-.45c-.08.06-.16.12-.24.19" fill="#005288" stroke-width="0"/><path d="m12.88,13.57h-.38l-.03-.05c.26-.25,1.42-1.32,3.94-1.44,0,0-2.12.07-3.53,1.49" fill="#005288" stroke-width="0"/><path d="m6.02,24.32c1.3-.15,2.92-.21,2.98.96.86-.42,2.13-1.19,3.54-.04.22-.01.45-.06.64.02-.17-.18-.27-.46-.35-.77-.76-.1-1.42-.31-2.13-.47-.72-.05-1.43-.14-2.15-.3-.81-.5-1.36-1.22-2.15-1.76-.65-.24-1.21-.68-1.81-1.04,1.1.98,3.38,2.61,1.42,3.38h0Z" fill="#00006d" fill-rule="evenodd" stroke-width="0"/><path d="m5.15,20.75c1.43.68,2.85,1.33,4.28,1.81.23.2.49.38.98.42.65.73,1.73,1.12,2.17,1.03.29.12.38.07.49.21.16.22.26.72.3,1-.13-.11-.29-.27-.31-.45-.07-.62-.22-.56-.35-.58-.2-.02-.39,0,.15.19l-1.71-.35-1.79-.63-.28.2.63.2-.88-.12c-.8-.38-1.31-1.07-2.13-1.6.59.21,1.18.44,1.77.49l-3.31-1.82Z" fill="#00006d" fill-rule="evenodd" stroke-width="0"/><path d="m8.97,26.76h.3s-.02-.79-.02-.79c-.38-.25-.67-.25-1.01,0v.78s.3,0,.3,0l-.02-.47h.17s.07-.1.09-.12h-.26s0-.21,0-.21c.2-.13.44,0,.44,0,0,0,0,.6.01.82h0Z" fill-rule="evenodd" stroke-width="0"/><path d="m12.64,25.76c-.29,0-.63.18-.63.52,0,.67,1.25.71,1.25,0,0-.35-.33-.52-.62-.52h0Zm0,.09c.17,0,.34.13.34.43,0,.58-.69.59-.69,0,0-.3.18-.43.35-.43Z" fill-rule="evenodd" stroke-width="0"/><path d="m14.52,26.79h-.29v-.9c.08-.03.26-.1.29-.1v.03c.4-.02.62.04.73.14v.82s-.29,0-.29,0v-.79c-.1-.09-.14-.1-.45-.08,0,0,0,.6,0,.88h0Z" fill-rule="evenodd" stroke-width="0"/><path d="m4.13,25.75v1.03h.43c.95,0,.91-1.02,0-1.03h-.42Zm.28.09h.21c.48.03.39.84,0,.85h-.21v-.85Z" fill-rule="evenodd" stroke-width="0"/><path d="m6.53,26.81h-.29s0-1.03,0-1.03c0,0,.38-.02.68,0,0,0,.16,0,.27.06,0,.17,0,.36,0,.36-.01.07-.24.04-.25.07.01.04.26,0,.26.08v.46s-.22,0-.29-.05c0-.13,0-.43,0-.43h-.15s-.1-.09-.11-.12h.26s0-.34,0-.34c-.18-.03-.23-.03-.41,0v.94Z" fill-rule="evenodd" stroke-width="0"/><path d="m10.62,26.21h.51s0,.51,0,.51c-.39.05-.59.07-.96,0v-.93c.33-.08.61-.04.97,0v.2h-.27v-.14c-.16-.06-.25-.05-.42-.01v.83c.17.04.26.04.43,0v-.4h-.21s-.04-.02-.05-.06h0Z" fill-rule="evenodd" stroke-width="0"/><path d="m17.51,101.75l.03-5.2-.86-1.27.03-1.37-.69-1.29-.23-.74-.56-.2-.56.05-.33.1-.3.81-.18.89-.03.76v.81l.08.58-.66.74v5.25l.51.1,3.76-.03Z" fill="#fff" fill-rule="evenodd" stroke="#040404" stroke-linecap="round" stroke-linejoin="round" stroke-width=".16"/><path d="m13.75,96.54v5.22h3.75v-5.2l-.76-1.31h-1.79l-1.2,1.29Z" fill="none" stroke="#040404" stroke-linecap="square" stroke-linejoin="round" stroke-width=".16"/><path d="m16.7,101.66v-7.7l-.63-1.26c-.73-.34-1.36-.22-1.9.25l.09,2.35" fill="none" stroke="#040404" stroke-linecap="square" stroke-linejoin="round" stroke-width=".16"/><path d="m15.04,95.29v6.45" fill="none" stroke="#040404" stroke-linecap="square" stroke-linejoin="round" stroke-width=".16"/><path d="m14.98,95.27l-.61-.02-1.11,1.2v5.25l.51.05" fill="none" stroke="#040404" stroke-linecap="square" stroke-linejoin="round" stroke-width=".16"/><path d="m14.92,95.23l-.02-1.29-.7-.9" fill="none" stroke="#040404" stroke-linecap="square" stroke-linejoin="round" stroke-width=".16"/><path d="m16.09,92.7l-.32-.79c-.4-.24-.89-.23-1.44-.09-.54,1.23-.59,2.52-.41,3.84" fill="none" stroke="#040404" stroke-linecap="square" stroke-linejoin="round" stroke-width=".16"/><path d="m16.66,93.85c-.66-.27-1.22-.23-1.74-.02" fill="none" stroke="#040404" stroke-linecap="round" stroke-linejoin="round" stroke-width=".16"/><path d="m15.05,101.75l-1.28-1.4" fill="#fff" fill-rule="evenodd" stroke="#040404" stroke-linecap="round" stroke-linejoin="round" stroke-width=".16"/><path d="m16.19,101.75l-2.42-3.06" fill="#fff" fill-rule="evenodd" stroke="#040404" stroke-linecap="round" stroke-linejoin="round" stroke-width=".16"/><path d="m13.76,97.19l3.57,4.53" fill="#fff" fill-rule="evenodd" stroke="#040404" stroke-linecap="round" stroke-linejoin="round" stroke-width=".16"/><path d="m14.12,96.18l3.36,4.3" fill="#fff" fill-rule="evenodd" stroke="#040404" stroke-linecap="round" stroke-linejoin="round" stroke-width=".16"/><path d="m14.79,95.45l2.72,3.55" fill="#fff" fill-rule="evenodd" stroke="#040404" stroke-linecap="round" stroke-linejoin="round" stroke-width=".16"/><path d="m15.84,95.27l1.66,2.13" fill="#fff" fill-rule="evenodd" stroke="#040404" stroke-linecap="round" stroke-linejoin="round" stroke-width=".16"/><path d="m15.6,101.74l1.91-2.71" fill="#fff" fill-rule="evenodd" stroke="#040404" stroke-linecap="round" stroke-linejoin="round" stroke-width=".16"/><path d="m17.46,100.5l-.79,1.24" fill="#fff" fill-rule="evenodd" stroke="#040404" stroke-linecap="round" stroke-linejoin="round" stroke-width=".16"/><path d="m14.34,101.74l3.14-4.1" fill="#fff" fill-rule="evenodd" stroke="#040404" stroke-linecap="round" stroke-linejoin="round" stroke-width=".16"/><path d="m13.78,100.96l3.6-4.57" fill="#fff" fill-rule="evenodd" stroke="#040404" stroke-linecap="round" stroke-linejoin="round" stroke-width=".16"/><path d="m13.78,99.36l3.15-3.7" fill="#fff" fill-rule="evenodd" stroke="#040404" stroke-linecap="round" stroke-linejoin="round" stroke-width=".16"/><path d="m13.75,97.89l2.28-2.59" fill="#fff" fill-rule="evenodd" stroke="#040404" stroke-linecap="round" stroke-linejoin="round" stroke-width=".16"/><path d="m13.25,96.44l.5.1" fill="#ccc" fill-rule="evenodd" stroke="#040404" stroke-linecap="round" stroke-linejoin="round" stroke-width=".16"/><path d="m1.9,101.75l-.03-5.2.86-1.27-.03-1.37.69-1.29.23-.74.56-.2.56.05.33.1.3.81.18.89.03.76v.81l-.08.58.66.74v5.25l-.51.1-3.76-.03Z" fill="#fff" fill-rule="evenodd" stroke="#040404" stroke-linecap="round" stroke-linejoin="round" stroke-width=".16"/><path d="m5.65,96.54v5.22H1.9v-5.2l.76-1.31h1.79l1.2,1.29Z" fill="none" stroke="#040404" stroke-linecap="square" stroke-linejoin="round" stroke-width=".16"/><path d="m2.7,101.66v-7.7l.63-1.26c.73-.34,1.36-.22,1.9.25l-.09,2.35" fill="none" stroke="#040404" stroke-linecap="square" stroke-linejoin="round" stroke-width=".16"/><path d="m4.37,95.29v6.45" fill="none" stroke="#040404" stroke-linecap="square" stroke-linejoin="round" stroke-width=".16"/><path d="m4.42,95.27l.61-.02,1.11,1.2v5.25l-.51.05" fill="none" stroke="#040404" stroke-linecap="square" stroke-linejoin="round" stroke-width=".16"/><path d="m4.48,95.23l.02-1.29.7-.9" fill="none" stroke="#040404" stroke-linecap="square" stroke-linejoin="round" stroke-width=".16"/><path d="m3.31,92.7l.32-.79c.4-.24.89-.23,1.44-.09.54,1.23.59,2.52.41,3.84" fill="none" stroke="#040404" stroke-linecap="square" stroke-linejoin="round" stroke-width=".16"/><path d="m2.74,93.85c.66-.27,1.22-.23,1.74-.02" fill="none" stroke="#040404" stroke-linecap="round" stroke-linejoin="round" stroke-width=".16"/><path d="m4.36,101.75l1.28-1.4" fill="#fff" fill-rule="evenodd" stroke="#040404" stroke-linecap="round" stroke-linejoin="round" stroke-width=".16"/><path d="m3.21,101.75l2.42-3.06" fill="#fff" fill-rule="evenodd" stroke="#040404" stroke-linecap="round" stroke-linejoin="round" stroke-width=".16"/><path d="m5.64,97.19l-3.57,4.53" fill="#fff" fill-rule="evenodd" stroke="#040404" stroke-linecap="round" stroke-linejoin="round" stroke-width=".16"/><path d="m5.29,96.18l-3.36,4.3" fill="#fff" fill-rule="evenodd" stroke="#040404" stroke-linecap="round" stroke-linejoin="round" stroke-width=".16"/><path d="m4.61,95.45l-2.72,3.55" fill="#fff" fill-rule="evenodd" stroke="#040404" stroke-linecap="round" stroke-linejoin="round" stroke-width=".16"/><path d="m3.56,95.27l-1.66,2.13" fill="#fff" fill-rule="evenodd" stroke="#040404" stroke-linecap="round" stroke-linejoin="round" stroke-width=".16"/><path d="m3.81,101.74l-1.91-2.71" fill="#fff" fill-rule="evenodd" stroke="#040404" stroke-linecap="round" stroke-linejoin="round" stroke-width=".16"/><path d="m1.95,100.5l.79,1.24" fill="#fff" fill-rule="evenodd" stroke="#040404" stroke-linecap="round" stroke-linejoin="round" stroke-width=".16"/><path d="m5.07,101.74l-3.14-4.1" fill="#fff" fill-rule="evenodd" stroke="#040404" stroke-linecap="round" stroke-linejoin="round" stroke-width=".16"/><path d="m5.63,100.96l-3.6-4.57" fill="#fff" fill-rule="evenodd" stroke="#040404" stroke-linecap="round" stroke-linejoin="round" stroke-width=".16"/><path d="m5.63,99.36l-3.15-3.7" fill="#fff" fill-rule="evenodd" stroke="#040404" stroke-linecap="round" stroke-linejoin="round" stroke-width=".16"/><path d="m5.65,97.89l-2.28-2.59" fill="#fff" fill-rule="evenodd" stroke="#040404" stroke-linecap="round" stroke-linejoin="round" stroke-width=".16"/><path d="m6.15,96.44l-.5.1" fill="#ccc" fill-rule="evenodd" stroke="#040404" stroke-linecap="round" stroke-linejoin="round" stroke-width=".16"/></svg>