<?xml version="1.0" encoding="UTF-8"?><svg id="Layer_1" xmlns="http://www.w3.org/2000/svg" xmlns:xlink="http://www.w3.org/1999/xlink" viewBox="0 0 17.83 207.26"><defs><linearGradient id="linear-gradient" x1="793.06" y1="-699.75" x2="800.16" y2="-699.75" gradientTransform="translate(-402.97 -449.3) scale(.51 -.81)" gradientUnits="userSpaceOnUse"><stop offset="0" stop-color="#000"/><stop offset="1" stop-color="#000" stop-opacity="0"/></linearGradient><linearGradient id="linear-gradient-2" x1="-1277.89" y1="-700.14" x2="-1270.8" y2="-700.14" gradientTransform="translate(-632.46 -449.51) rotate(-180) scale(.51 .81)" gradientUnits="userSpaceOnUse"><stop offset="0" stop-color="#000"/><stop offset="1" stop-color="#000" stop-opacity="0"/></linearGradient><linearGradient id="linear-gradient-3" x1="777.17" y1="-17288.34" x2="784.27" y2="-17288.34" gradientTransform="translate(-401.16 -1011.6) scale(.52 -.06)" gradientUnits="userSpaceOnUse"><stop offset="0" stop-color="#000"/><stop offset="1" stop-color="#000" stop-opacity="0"/></linearGradient><linearGradient id="linear-gradient-4" x1="-1261.77" y1="-17293.7" x2="-1254.67" y2="-17293.7" gradientTransform="translate(-634.26 -1011.61) rotate(-180) scale(.51 .06)" gradientUnits="userSpaceOnUse"><stop offset="0" stop-color="#000"/><stop offset="1" stop-color="#000" stop-opacity="0"/></linearGradient><radialGradient id="radial-gradient" cx="517.89" cy="-1016.11" fx="517.89" fy="-1016.11" r="8.4" gradientTransform="translate(-368.23 -978.18) rotate(-7) scale(.49 -1.01)" gradientUnits="userSpaceOnUse"><stop offset="0" stop-color="#f9f9f9"/><stop offset="1" stop-color="#f9f9f9"/></radialGradient><linearGradient id="linear-gradient-5" x1="251.64" y1="-985.23" x2="253.79" y2="-985.23" gradientTransform="translate(-236.05 -961.34) scale(1 -1)" gradientUnits="userSpaceOnUse"><stop offset="0" stop-color="#fff"/><stop offset="1" stop-color="#f2f2f2"/></linearGradient><linearGradient id="linear-gradient-6" x1="236.1" y1="-985.23" x2="238.25" y2="-985.23" gradientTransform="translate(-236.05 -961.34) scale(1 -1)" gradientUnits="userSpaceOnUse"><stop offset="0" stop-color="#ececec"/><stop offset="1" stop-color="#fff"/></linearGradient></defs><rect x="1.27" y="29.78" width="15.16" height="172.67" fill="#fff" stroke-width="0"/><rect x="1.54" y="29.95" width="7.52" height="172.34" fill="url(#linear-gradient)" isolation="isolate" opacity=".03" stroke-width="0"/><rect x="8.96" y="29.92" width="7.41" height="172.28" fill="url(#linear-gradient-2)" isolation="isolate" opacity=".03" stroke-width="0"/><path d="m1.36,77.08h15.14" fill="none" stroke="#000" stroke-width=".32"/><path d="m16.49,27.88v164.35" fill="none" stroke="#000" stroke-width=".32"/><path d="m1.36,202.44h15.14" fill="none" stroke="#000" stroke-width=".32"/><path d="m1.36,27.88v164.35" fill="none" stroke="#000" stroke-width=".32"/><path d="m1.36,51.31h15.14" fill="none" stroke="#000" stroke-width=".32"/><path d="m14.38,202.44v.23c-.76,1.34-1.3,2.8-1.58,4.32h3.99c-.28-1.52-.82-2.98-1.58-4.32v-.23h-.83Z" fill="#333" stroke="#000" stroke-width=".32"/><path d="m8.51,202.44v.23c-.76,1.34-1.3,2.8-1.58,4.32h3.99c-.28-1.52-.82-2.98-1.58-4.32v-.23h-.83Z" fill="#333" stroke="#000" stroke-width=".32"/><path d="m2.64,202.44v.23c-.76,1.34-1.3,2.8-1.58,4.32h3.99c-.28-1.52-.82-2.98-1.58-4.32v-.23h-.83Z" fill="#333" stroke="#000" stroke-width=".32"/><path d="m4.45,198.13h8.95" fill="none" stroke="#000" stroke-width=".32"/><path d="m17.4,196.1l-.03-.26-.03-.26-.03-.27-.04-.27-.04-.27-.04-.27-.05-.27-.05-.27-.06-.26-.07-.26-.07-.25-.08-.25-.09-.24-.1-.23-.1-.22-.11-.21-.11-.2-.12-.19-.12-.18-.12-.17-.13-.16-.13-.14-.12-.13-.12-.12-.12-.11-.11-.09-.11-.08-.08.05-.08.08-.08.09-.08.1-.08.11-.08.11-.08.12-.08.13-.08.14-.08.15-.08.16-.08.17-.07.18-.07.19-.07.2-.06.21-.06.22-.06.24-.05.25-.05.27-.04.29-.04.31-.04.33-.03.35-.03.38-.02.41-.02.43v.45s0,5.4,0,5.4l.04.39h3.82l.13-.26v-6.02h0Z" fill="#f2f2f2" stroke="#000" stroke-width=".32"/><path d="m.46,196.1l.03-.26.03-.26.03-.27.04-.27.04-.27.04-.27.05-.27.05-.27.06-.26.07-.26.07-.25.08-.25.09-.24.1-.23.1-.22.11-.21.11-.2.12-.19.12-.18.12-.17.13-.16.13-.14.12-.13.12-.12.12-.11.11-.09.11-.08.08.05.08.08.08.09.08.1.08.11.08.11.08.12.08.13.08.14.08.15.08.16.08.17.07.18.07.19.07.2.06.21.06.22.06.24.05.25.05.27.04.29.04.31.04.33.03.35.03.38.02.41.02.43v.45s0,5.4,0,5.4l-.04.39H.58l-.13-.26v-6.02h0Z" fill="#f2f2f2" stroke="#000" stroke-width=".32"/><path d="m10.09,153.96h-3.14l-.12.09v2.79h.87v-1.05l.08-.07h2.3c.58,0,.85-.16.85-.56v-.64c0-.4-.27-.56-.85-.56m0,1.03c0,.19-.13.23-.4.23h-1.9l-.09-.09v-.6l.08-.08h1.91c.27,0,.4.04.4.23v.31h0Z" fill="#005288" stroke-width="0"/><polyline points="8.27 160.31 9.01 161.41 8.97 161.52 7.32 161.52 6.9 162.04 9.36 162.04 9.53 162.14 9.91 162.67 10.91 162.67 8.73 159.75" fill="#005288" stroke-width="0"/><polyline points="7.81 174.87 7.81 174.1 7.9 174.02 9.56 174.02 9.56 173.53 6.92 173.53 6.92 175.44 10.82 175.44 10.82 174.95 7.9 174.95" fill="#005288" stroke-width="0"/><rect x="6.92" y="172.56" width="3.93" height=".54" fill="#005288" stroke-width="0"/><path d="m7.79,166.55h3.17c-.05-.4-.3-.51-.93-.51h-2.27c-.72,0-.94.14-.94.68v1.52c0,.54.23.68.94.68h2.27c.64,0,.89-.12.91-.54h-3.14l-.09-.09v-1.68" fill="#005288" stroke-width="0"/><path d="m10.06,148.44h-2.31l-.07-.07v-.49l.07-.05h3.11l.04-.1c-.11-.27-.38-.4-.89-.4h-2.16c-.72,0-.94.14-.94.68v.32c0,.54.23.68.94.68h2.3l.07.06v.52l-.06.08h-2.63s-.69,0-.69,0c0,0-.08.04-.08.06.06.38.32.49.93.49h2.35c.72,0,.95-.14.95-.68v-.4c0-.54-.24-.68-.95-.68" fill="#005288" stroke-width="0"/><path d="m7.84,179.24h-1.29l-.07.13,1.44,1.05c.27-.16.57-.32.89-.47" fill="#005288" stroke-width="0"/><path d="m8.99,181.21l1.26.92h1.31l.05-.12-1.89-1.38c-.25.18-.5.38-.74.58" fill="#005288" stroke-width="0"/><path d="m7.64,182.13h-1.17l-.1-.15c.8-.77,4.43-3.66,9.16-4.02,0,0-4.14.46-7.89,4.18" fill="#005288" stroke-width="0"/><rect x="5.21" y="67.41" width="7.47" height="4.2" fill="#b22234" stroke-width="0"/><path d="m5.21,67.9h7.47m0,.65h-7.47m0,.65h7.47m0,.65h-7.47m0,.65h7.47m0,.65h-7.47" stroke="#fff" stroke-miterlimit="10" stroke-width=".3"/><rect x="5.21" y="67.41" width="2.99" height="2.26" fill="#3c3b6e" stroke-width="0"/><path d="m5.46,67.51l.07.23-.19-.14h.23l-.19.14.07-.23Z" fill="#fff" stroke-width="0"/><path id="s" d="m5.46,67.96l.07.23-.19-.14h.23l-.19.14.07-.23Z" fill="#fff" stroke-width="0"/><path id="s-2" d="m5.46,68.41l.07.23-.19-.14h.23l-.19.14.07-.23Z" fill="#fff" stroke-width="0"/><path id="s-3" d="m5.46,68.87l.07.23-.19-.14h.23l-.19.14.07-.23Z" fill="#fff" stroke-width="0"/><path id="s-4" d="m5.46,69.32l.07.23-.19-.14h.23l-.19.14.07-.23Z" fill="#fff" stroke-width="0"/><g id="d"><path id="s-5" d="m5.71,67.74l.07.23-.19-.14h.23l-.19.14.07-.23Z" fill="#fff" stroke-width="0"/><path id="s-6" d="m5.71,68.19l.07.23-.19-.14h.23l-.19.14.07-.23Z" fill="#fff" stroke-width="0"/><path id="s-7" d="m5.71,68.64l.07.23-.19-.14h.23l-.19.14.07-.23Z" fill="#fff" stroke-width="0"/><path id="s-8" d="m5.71,69.09l.07.23-.19-.14h.23l-.19.14.07-.23Z" fill="#fff" stroke-width="0"/></g><g id="a"><g id="c"><g id="d-2"><path id="s-9" d="m5.96,67.51l.07.23-.19-.14h.23l-.19.14.07-.23Z" fill="#fff" stroke-width="0"/><path id="s-10" d="m5.96,67.96l.07.23-.19-.14h.23l-.19.14.07-.23Z" fill="#fff" stroke-width="0"/><path id="s-11" d="m5.96,68.41l.07.23-.19-.14h.23l-.19.14.07-.23Z" fill="#fff" stroke-width="0"/><path id="s-12" d="m5.96,68.87l.07.23-.19-.14h.23l-.19.14.07-.23Z" fill="#fff" stroke-width="0"/></g><path id="s-13" d="m5.96,69.32l.07.23-.19-.14h.23l-.19.14.07-.23Z" fill="#fff" stroke-width="0"/></g><g id="d-3"><path id="s-14" d="m6.21,67.74l.07.23-.19-.14h.23l-.19.14.07-.23Z" fill="#fff" stroke-width="0"/><path id="s-15" d="m6.21,68.19l.07.23-.19-.14h.23l-.19.14.07-.23Z" fill="#fff" stroke-width="0"/><path id="s-16" d="m6.21,68.64l.07.23-.19-.14h.23l-.19.14.07-.23Z" fill="#fff" stroke-width="0"/><path id="s-17" d="m6.21,69.09l.07.23-.19-.14h.23l-.19.14.07-.23Z" fill="#fff" stroke-width="0"/></g></g><g id="e"><g id="a-2"><g id="c-2"><g id="d-4"><path id="s-18" d="m6.46,67.51l.07.23-.19-.14h.23l-.19.14.07-.23Z" fill="#fff" stroke-width="0"/><path id="s-19" d="m6.46,67.96l.07.23-.19-.14h.23l-.19.14.07-.23Z" fill="#fff" stroke-width="0"/><path id="s-20" d="m6.46,68.41l.07.23-.19-.14h.23l-.19.14.07-.23Z" fill="#fff" stroke-width="0"/><path id="s-21" d="m6.46,68.87l.07.23-.19-.14h.23l-.19.14.07-.23Z" fill="#fff" stroke-width="0"/></g><path id="s-22" d="m6.46,69.32l.07.23-.19-.14h.23l-.19.14.07-.23Z" fill="#fff" stroke-width="0"/></g><g id="d-5"><path id="s-23" d="m6.71,67.74l.07.23-.19-.14h.23l-.19.14.07-.23Z" fill="#fff" stroke-width="0"/><path id="s-24" d="m6.71,68.19l.07.23-.19-.14h.23l-.19.14.07-.23Z" fill="#fff" stroke-width="0"/><path id="s-25" d="m6.71,68.64l.07.23-.19-.14h.23l-.19.14.07-.23Z" fill="#fff" stroke-width="0"/><path id="s-26" d="m6.71,69.09l.07.23-.19-.14h.23l-.19.14.07-.23Z" fill="#fff" stroke-width="0"/></g></g><g id="a-3"><g id="c-3"><g id="d-6"><path id="s-27" d="m6.96,67.51l.07.23-.19-.14h.23l-.19.14.07-.23Z" fill="#fff" stroke-width="0"/><path id="s-28" d="m6.96,67.96l.07.23-.19-.14h.23l-.19.14.07-.23Z" fill="#fff" stroke-width="0"/><path id="s-29" d="m6.96,68.41l.07.23-.19-.14h.23l-.19.14.07-.23Z" fill="#fff" stroke-width="0"/><path id="s-30" d="m6.96,68.87l.07.23-.19-.14h.23l-.19.14.07-.23Z" fill="#fff" stroke-width="0"/></g><path id="s-31" d="m6.96,69.32l.07.23-.19-.14h.23l-.19.14.07-.23Z" fill="#fff" stroke-width="0"/></g><g id="d-7"><path id="s-32" d="m7.21,67.74l.07.23-.19-.14h.23l-.19.14.07-.23Z" fill="#fff" stroke-width="0"/><path id="s-33" d="m7.21,68.19l.07.23-.19-.14h.23l-.19.14.07-.23Z" fill="#fff" stroke-width="0"/><path id="s-34" d="m7.21,68.64l.07.23-.19-.14h.23l-.19.14.07-.23Z" fill="#fff" stroke-width="0"/><path id="s-35" d="m7.21,69.09l.07.23-.19-.14h.23l-.19.14.07-.23Z" fill="#fff" stroke-width="0"/></g></g></g><g id="a-4"><g id="c-4"><g id="d-8"><path id="s-36" d="m7.45,67.51l.07.23-.19-.14h.23l-.19.14.07-.23Z" fill="#fff" stroke-width="0"/><path id="s-37" d="m7.45,67.96l.07.23-.19-.14h.23l-.19.14.07-.23Z" fill="#fff" stroke-width="0"/><path id="s-38" d="m7.45,68.41l.07.23-.19-.14h.23l-.19.14.07-.23Z" fill="#fff" stroke-width="0"/><path id="s-39" d="m7.45,68.87l.07.23-.19-.14h.23l-.19.14.07-.23Z" fill="#fff" stroke-width="0"/></g><path id="s-40" d="m7.45,69.32l.07.23-.19-.14h.23l-.19.14.07-.23Z" fill="#fff" stroke-width="0"/></g><g id="d-9"><path id="s-41" d="m7.7,67.74l.07.23-.19-.14h.23l-.19.14.07-.23Z" fill="#fff" stroke-width="0"/><path id="s-42" d="m7.7,68.19l.07.23-.19-.14h.23l-.19.14.07-.23Z" fill="#fff" stroke-width="0"/><path id="s-43" d="m7.7,68.64l.07.23-.19-.14h.23l-.19.14.07-.23Z" fill="#fff" stroke-width="0"/><path id="s-44" d="m7.7,69.09l.07.23-.19-.14h.23l-.19.14.07-.23Z" fill="#fff" stroke-width="0"/></g></g><g id="c-5"><g id="d-10"><path id="s-45" d="m7.95,67.51l.07.23-.19-.14h.23l-.19.14.07-.23Z" fill="#fff" stroke-width="0"/><path id="s-46" d="m7.95,67.96l.07.23-.19-.14h.23l-.19.14.07-.23Z" fill="#fff" stroke-width="0"/><path id="s-47" d="m7.95,68.41l.07.23-.19-.14h.23l-.19.14.07-.23Z" fill="#fff" stroke-width="0"/><path id="s-48" d="m7.95,68.87l.07.23-.19-.14h.23l-.19.14.07-.23Z" fill="#fff" stroke-width="0"/></g><path id="s-49" d="m7.95,69.32l.07.23-.19-.14h.23l-.19.14.07-.23Z" fill="#fff" stroke-width="0"/></g><path d="m6.79,61.12c.25-.13.5-.26.76-.37-2.98-1.57-3.15-2.75-3.76-3.99.47,1.44.87,2.87,3,4.36h0Z" fill="#a80126" fill-rule="evenodd" stroke-width="0"/><path d="m5.23,58.77c1.14.95,2.12,1.63,2.85,1.83.72-.38,3.1-.59,3.05-.05-.52-.26-.83-.13-1.12-.04.15,0,.54-.05.66,0-.05.06-.1.08-.15.12.19.04.37.1.53.19.1,0,.16,0,.19.02-.1.03-.22.15-.28.24.66.02,1.36.01,1.44.71.21-.62-.16-.94-.89-1.08-.1-.21-.25-.39-.4-.6-1.99-.11-3.97-.25-5.86-1.34h0Z" fill="#a80126" fill-rule="evenodd" stroke-width="0"/><path d="m3.68,63.57v-1.2h.8s-.06.08-.13.11h-.5v.32h.45s-.05.07-.1.09h-.35v.43c-.04.1-.09.19-.17.26h0Z" fill-rule="evenodd" stroke-width="0"/><path d="m5.85,62.5v.88h.23v-.83c-.31-.28-.62-.28-.93,0v.83h.21v-.49h.16s.06-.04.08-.07h-.24v-.32c.18-.13.33-.13.49,0h0Z" fill-rule="evenodd" stroke-width="0"/><path d="m8.24,63.4h-.93v-1.01h.23v.93h.82s-.05.07-.12.08h0Z" fill-rule="evenodd" stroke-width="0"/><path d="m9.62,62.38v.2c-.37.51.26,1.11.98.67h.05c-.44.49-2.07.08-1.03-.87h0Z" fill-rule="evenodd" stroke-width="0"/><path d="m9.13,62.4v.37c.36-.64.85-.96,2.36-.54-1.45-.57-1.99-.27-2.36.17Z" fill-rule="evenodd" stroke-width="0"/><path d="m11.95,62.29c-.3,0-.61.21-.61.59,0,.77,1.21.81,1.21,0,0-.4-.3-.6-.61-.59h0Zm0,.08c.18,0,.36.17.36.51,0,.69-.71.67-.72,0,0-.34.18-.51.36-.51h0Z" fill-rule="evenodd" stroke-width="0"/><path d="m13.69,62.5v.91h-.18v-.96l.18-.09v.04c.28,0,.47.12.52.19v.82h-.18v-.81c-.06-.11-.14-.13-.35-.14v.02Z" fill-rule="evenodd" stroke-width="0"/><path d="m8.95,64.12c-1.87,0-1.38,1.5-.35,1.47.48-.01.57-.06.89-.41-.2,1.01-.89,1.01-1.71,1.09-.1.07-.12.08-.2.19,1.4-.03,2.57-.28,2.54-1.36-.02-.76-.53-.99-1.18-.98h0Zm-.03.18c.34,0,.62.22.62.48h0c0,.27-.28.48-.62.48-.34,0-.61-.22-.61-.48,0-.27.27-.48.61-.48Z" fill-rule="evenodd" stroke-width="0"/><rect x="1.27" y="16.95" width="15.16" height="12.82" fill="#fff" stroke-width="0"/><rect x="1.42" y="16.98" width="7.64" height="12.77" fill="url(#linear-gradient-3)" isolation="isolate" opacity=".03" stroke-width="0"/><rect x="8.95" y="16.98" width="7.53" height="12.76" fill="url(#linear-gradient-4)" isolation="isolate" opacity=".03" stroke-width="0"/><path d="m17.12,16.85v-.11s.01-.11.01-.11v-.11s-.02-.11-.02-.11l-.09-.36-1.3-4.71-.65-2.36-.22-.79-.65-2.36-.22-.79-.06-.2-.05-.15-.06-.15-.06-.16-.07-.17-.07-.17-.08-.17-.08-.18-.09-.18-.09-.18-.1-.18-.1-.17-.11-.17-.11-.17-.11-.16-.12-.16-.12-.15-.12-.14-.13-.14-.13-.13-.13-.13-.13-.12-.13-.11-.14-.11-.14-.1-.14-.1-.14-.09-.14-.09-.14-.08-.14-.08-.14-.07-.14-.06-.14-.06-.14-.05-.14-.05-.14-.04-.14-.04-.14-.03-.14-.03-.14-.02-.13-.02-.13-.02h-.13s-.13-.01-.13-.01h-.13s-.13.03-.13.03l-.13.02-.14.02-.14.03-.14.03-.14.04-.14.04-.14.05-.14.05-.14.06-.14.06-.14.07-.14.08-.14.08-.14.09-.14.09-.14.1-.14.1-.14.11-.13.11-.13.12-.13.13-.13.13-.13.14-.12.14-.12.15-.12.16-.11.16-.11.17-.11.17-.1.17-.1.18-.09.18-.09.18-.08.18-.08.17-.07.17-.07.17-.06.16-.06.15-.05.15-.06.2-.65,2.36-.22.79-.65,2.36-.22.79-.65,2.36-.22.79-.43,1.57-.09.36v.11s-.02.11-.02.11v.11s.01.11.01.11" fill="url(#radial-gradient)" stroke-width="0"/><path d="m2.06,17.73s-.04-.06-.12-.11c-.06-.04-.15-.11-.19-.15-.08-.09-.17-.31-.2-.46-.03-.18-.05-.23-.14-.27-.16-.09-.32-.12-.55-.11h-.21s0-.07,0-.07v-.08h16.37v.08s.01.08.01.08h-.21c-.23-.02-.39,0-.55.1-.08.05-.11.09-.14.27-.02.15-.12.37-.2.46-.04.05-.13.11-.19.15-.08.05-.12.09-.12.11,0,.04-.28.04-6.79.04s-6.79,0-6.79-.04h0Z" fill="#ececec" stroke-width="0"/><path d="m15.75,17.56v12.72l.04.74.21-.14.2-.15.19-.15.18-.15.16-.15.15-.15.14-.14.12-.14.11-.13.09-.12.08-.11.06-.1.05-.09.03-.08v-.31s.01-11.24.01-11.24l-.02-.43-.04-.05-.04-.05-.05-.05-.05-.05-.05-.05-.06-.04-.06-.04-.06-.03-.07-.03-.07-.03-.07-.02-.07-.02h-.07s-.07-.02-.07-.02h-.07s-.07,0-.07,0h-.07s-.07.02-.07.02l-.07.02-.06.02-.06.02-.02.05v.05s-.02.05-.02.05v.05s-.03.05-.03.05l-.02.05-.03.05-.03.05-.03.05-.04.04-.04.04-.04.04-.04.03-.04.03-.05.03-.05.02-.05.02h0Z" fill="url(#linear-gradient-5)" stroke-width="0"/><path d="m2.04,17.56v12.72l-.04.74-.21-.14-.2-.15-.19-.15-.18-.15-.16-.15-.15-.15-.14-.14-.12-.14-.11-.13-.09-.12-.08-.11-.06-.1-.05-.09-.03-.08v-.31s-.01-11.24-.01-11.24l.02-.43.04-.05.04-.05.05-.05.05-.05.05-.05.06-.04.06-.04.06-.03.07-.03.07-.03.07-.02.07-.02h.07s.07-.02.07-.02h.07s.07,0,.07,0h.07s.07.02.07.02l.07.02.06.02.06.02.02.05v.05s.02.05.02.05v.05s.03.05.03.05l.02.05.03.05.03.05.03.05.04.04.04.04.04.04.04.03.04.03.05.03.05.02.05.02h0Z" fill="url(#linear-gradient-6)" stroke-width="0"/><path d="m2.07,29.84h13.71" fill="none" stroke="#000" stroke-width=".32"/><path d="m2.07,17.68h13.71" fill="none" stroke="#000" stroke-width=".32"/><path d="m.73,16.33h16.4" fill="none" stroke="#000" stroke-width=".32"/><path d="m3.85,4.97h10.14" fill="none" stroke="#000" stroke-width=".32"/><path d="m15.78,17.56v12.72l.04.74.21-.14.2-.15.19-.15.18-.15.16-.15.15-.15.14-.14.12-.14.11-.13.09-.12.08-.11.06-.1.05-.09.03-.08v-.31s.01-11.24.01-11.24l-.02-.43-.04-.05-.04-.05-.05-.05-.05-.05-.05-.05-.06-.04-.06-.04-.06-.03-.07-.03-.07-.03-.07-.02-.07-.02h-.07s-.07-.02-.07-.02h-.07s-.07,0-.07,0h-.07s-.07.02-.07.02l-.07.02-.06.02-.06.02-.02.05v.05s-.02.05-.02.05v.05s-.03.05-.03.05l-.02.05-.03.05-.03.05-.03.05-.04.04-.04.04-.04.04-.04.03-.04.03-.05.03-.05.02-.05.02h0Z" fill="none" stroke="#000" stroke-width=".32"/><path d="m2.07,17.56v12.72l-.04.74-.21-.14-.2-.15-.19-.15-.18-.15-.16-.15-.15-.15-.14-.14-.12-.14-.11-.13-.09-.12-.08-.11-.06-.1-.05-.09-.03-.08v-.31s-.01-11.24-.01-11.24l.02-.43.04-.05.04-.05.05-.05.05-.05.05-.05.06-.04.06-.04.06-.03.07-.03.07-.03.07-.02.07-.02h.07s.07-.02.07-.02h.07s.07,0,.07,0h.07s.07.02.07.02l.07.02.06.02.06.02.02.05v.05s.02.05.02.05v.05s.03.05.03.05l.02.05.03.05.03.05.03.05.04.04.04.04.04.04.04.03.04.03.05.03.05.02.05.02h0Z" fill="none" stroke="#000" stroke-width=".32"/><path d="m17.15,16.85v-.11s.01-.11.01-.11v-.11s-.02-.11-.02-.11l-.09-.36-.65-2.36-.22-.79-.65-2.36-.22-.79-.65-2.36-.22-.79-.43-1.57-.06-.2-.05-.15-.06-.15-.06-.16-.07-.17-.07-.17-.08-.17-.08-.18-.09-.18-.09-.18-.1-.18-.1-.17-.11-.17-.11-.17-.11-.16-.12-.16-.12-.15-.12-.14-.13-.14-.13-.13-.13-.13-.13-.12-.13-.11-.14-.11-.14-.1-.14-.1-.14-.09-.14-.09-.14-.08-.14-.08-.14-.07-.14-.06-.14-.06-.14-.05-.14-.05-.14-.04-.14-.04-.14-.03-.14-.03-.14-.02-.13-.02-.13-.02h-.13s-.13-.01-.13-.01h-.13s-.13.03-.13.03l-.13.02-.14.02-.14.03-.14.03-.14.04-.14.04-.14.05-.14.05-.14.06-.14.06-.14.07-.14.08-.14.08-.14.09-.14.09-.14.1-.14.1-.14.11-.13.11-.13.12-.13.13-.13.13-.13.14-.12.14-.12.15-.12.16-.11.16-.11.17-.11.17-.1.17-.1.18-.09.18-.09.18-.08.18-.08.17-.07.17-.07.17-.06.16-.06.15-.05.15-.06.2-.22.79-.22.79-.65,2.36-1.08,3.93-.22.79-.65,2.36-.09.36v.11s-.02.11-.02.11v.11s.01.11.01.11" fill="none" stroke="#000" stroke-width=".32"/><path d="m8.4,24.34h.24s-.01-.64-.01-.64c-.3-.2-.55-.2-.82,0v.63s.24,0,.24,0v-.38s.12,0,.12,0c.03-.02.06-.07.07-.09h-.21s0-.17,0-.17c.16-.1.35,0,.35,0,0,0,0,.49,0,.66h0Z" fill-rule="evenodd" stroke-width="0"/><path d="m11.36,23.54c-.23,0-.51.15-.51.42,0,.55,1.01.57,1.01,0,0-.29-.27-.42-.5-.42Zm0,.07c.14,0,.27.11.27.35,0,.47-.56.48-.56,0,0-.24.15-.35.29-.35Z" fill-rule="evenodd" stroke-width="0"/><path d="m12.88,24.36h-.24v-.73c.06-.03.21-.08.24-.08v.02c.32-.02.5.03.59.11v.67s-.23,0-.23,0v-.64c-.08-.07-.12-.08-.36-.06,0,0,0,.49,0,.71Z" fill-rule="evenodd" stroke-width="0"/><path d="m4.49,23.53v.83h.35c.77,0,.73-.82,0-.83h-.34Zm.22.07h.17c.39.03.31.68,0,.69h-.17v-.69Z" fill-rule="evenodd" stroke-width="0"/><path d="m6.43,24.38h-.24s0-.83,0-.83c0,0,.31-.02.55,0,0,0,.13,0,.22.05,0,.14,0,.29,0,.29,0,.06-.19.04-.2.06,0,.03.21,0,.21.07v.37s-.18,0-.23-.04c0-.11,0-.35,0-.35h-.12s-.08-.07-.09-.1h.21s0-.28,0-.28c-.15-.02-.19-.02-.33,0v.76Z" fill-rule="evenodd" stroke-width="0"/><path d="m9.73,23.91h.41s0,.41,0,.41c-.32.04-.48.05-.78,0v-.75c.27-.06.49-.03.78,0v.16h-.22v-.12c-.13-.04-.21-.04-.34,0v.67c.14.03.21.04.35,0v-.32h-.17s-.03-.02-.04-.05Z" fill-rule="evenodd" stroke-width="0"/><path d="m9.45,19.64s-.02,0-.01.02c.16.29.21.46.15.51-.11.08-.14-.25-.28-.27-.05,0-.07.06-.1.05-.04-.01-.03-.13-.09-.13-.12,0-.1.1-.27.15-.18.06-.54,0-.93-.14,0,.03.12.08.33.19.21.11.56.31.71.28,0,.02,0,.03-.01.04-.15.02-.3.07-.4.15-.29.21-.52.14-.91.08.19.1.5.23.81.17.15-.03.27-.18.37-.14-1.56.91-.52,2.14.35,1.98-.61-.3-.83-1.05-.31-1.65.02.02.07.02.1.03-.03.04-.06.05-.04.09.01.04.05.08.11.08.03,0,.04-.19.09-.23-.03.36.29.48.65.59.14.04.12.12.14.13.01,0,.03.01.05,0,.03,0-.09-.15-.15-.19-.15-.1-.29-.11-.31-.18-.02-.05.15-.04.22.02.24.2.25.36.43.36.12,0,.11-.21.09-.38-.1-.08-.14-.2-.05-.2-.06-.14-.15-.27-.22-.37-.02-.03.03-.08.02-.11-.02-.06-.05-.06-.06-.16-.04-.23-.05-.42-.47-.77,0,0,0,0,0,0h0Zm-.08,1.14s.03,0,.05,0c.06.02.11.07.14.1.04.05-.07-.06-.15-.07-.02,0-.03,0-.04-.01,0,0-.02-.01-.02-.02,0,0,0,0,.02,0Zm-.11.03c.05.08.13.13.15.14,0,0-.1-.03-.12-.06,0-.01-.04-.04-.03-.08Zm.16.04s.03.01.03.01c.03,0,.08.06.03.1-.01,0-.04,0-.06-.02-.02-.02-.03-.06-.03-.09,0,0,.01,0,.02,0Z" fill="#00006d" fill-rule="evenodd" stroke-width="0"/><path d="m5.26,25.17l.84-.07c.4.62,1.1.97,1.84.96.79,0,1.06-.1,2.06-.57.68-.31,1.47-.57,2.02-.56.79,0,.97.5.96.81-.01.9-.8,1.37-1.69,1.35-.67-.01-1.02-.18-1.21-.35-.02-.02,0-.04.03-.02.16.11.66.29.86.04.92.14,1.85-.12,1.82-.99-.02-.43-.24-.64-.71-.62-.71.02-1.59.42-1.9.55-.44.2-1.34.73-2.25.76-1.07.03-1.9-.5-2.67-1.27h0Z" fill="#00006d" fill-rule="evenodd" stroke-width="0"/><path d="m3.72,24.51c-.3-.31-.79-1.08-.78-1.82,0-.91.69-1.46,1.83-1.82.18-.06.4-.11.59-.14-.04.04-.04.05-.04.07-.25.05-.43.1-.51.13-1.06.33-1.69.88-1.69,1.78,0,.39.21.99.46,1.38.03.14.05.21.14.41h0Z" fill="#00006d" fill-rule="evenodd" stroke-width="0"/><path d="m14.16,24.4c.07-.16.09-.2.15-.44.3-.55.45-.93.46-1.34.01-1.25-1.14-1.71-2.2-1.93-.02-.03-.03-.05-.04-.09,1.18.25,2.42.75,2.43,1.95,0,.81-.46,1.44-.79,1.85h0Z" fill="#00006d" fill-rule="evenodd" stroke-width="0"/><path d="m14.28,23.45c.8-1.73-1.1-2.68-2.11-2.66v.04c.26.04.59.25.6.33-.26-.2-.64-.35-.94-.27-.26.07-.26.15-.57.29.02.13,0,.23-.04.29-.27.41-.81.62-1.24.6.31.13.79.34.83.7.05-.06.1-.11.19-.18.36-.28.63,0,.88.19-.27-.4-.12-.62.43-.31.2.11.22.16.46.29-.61-.88-.25-.94.27-.93,1.04.02,1.32.78,1.25,1.63h0Z" fill="#00006d" fill-rule="evenodd" stroke-width="0"/><path d="m8.56,22.6c-.33-.15-.46-.34-.57-.57-1.5.04-1.28-.41-1.2-.56-.28-.07-.61-.24-.8-.3-.19-.07-.32-.08-.84-.05.35-.06.75-.17,1.32.13.17.09.22.07.39.17-.06.54.58.53,1.1.54l-.03-.14c-.69.07-1.16-.05-.93-.45-.02-.01-.17,0-.1-.04.02,0,.02,0,.03-.04-.32-.07-.5-.38-1.23-.39-.55,0-1.17.27-1.47.45-.51.32-1.07.99-.57,2.11-.18-.71.46-1.47,1.82-1.6.36-.03.43.07.27.28-.12.16-.3.38-.39.62.51-.32,1.2-.75,1.42.02.17-.32.52-.14,1.03-.09.21.02.49,0,.76-.12h0Z" fill="#00006d" fill-rule="evenodd" stroke-width="0"/><path d="m9.86,21.94l-.17-.09c.66.08,1.3-.15,1.34-.69.03,0,.03,0,.05,0,.02,0,0-.03-.02-.04s-.07-.04-.04-.04c.36-.09.55-.23.84-.28-.22.11-.5.34-.7.32-.03,0-.04,0-.02.02s.06.02.06.04c0,.03-.03.02-.06.04.02.22-.2.46-.49.6-.26.13-.49.16-.8.13h0Z" fill="#00006d" fill-rule="evenodd" stroke-width="0"/><path d="m10.11,23.24c.23-.07.53-.2.53-.43,0-.46-.73-.59-1.27-.79-.23-.09-.38-.13-.59-.34.09.22.19.42.59.59.49.21,1.28.43.74.97h0Z" fill="#00006d" fill-rule="evenodd" stroke-width="0"/><path d="m8.77,21.39c.08.03.14.13.24.15.04.19.08.24.07.29-.14-.05-.32-.18-.31-.44Z" fill="#00006d" fill-rule="evenodd" stroke-width="0"/><path d="m9.01,21.47c.03-.07-.02-.18.02-.22.02-.02.15.04.13,0-.18-.05-.23-.12-.27-.2-.04.07-.12.22-.1.29s.13.11.22.14h0Z" fill="#00006d" fill-rule="evenodd" stroke-width="0"/><path d="m6.63,13.58h-1.02l-.04.03v.91h.28v-.34l.03-.02h.75c.19,0,.28-.05.28-.18v-.21c0-.13-.09-.18-.28-.18m0,.34c0,.06-.04.07-.13.07h-.62l-.03-.03v-.19l.03-.02h.62c.09,0,.13.01.13.07v.1Z" fill="#005288" stroke-width="0"/><polyline points="7.43 13.75 7.67 14.11 7.66 14.14 7.12 14.14 6.98 14.31 7.78 14.31 7.84 14.35 7.96 14.52 8.29 14.52 7.58 13.57" fill="#005288" stroke-width="0"/><polyline points="10.65 14.33 10.65 14.08 10.68 14.05 11.22 14.05 11.22 13.89 10.36 13.89 10.36 14.52 11.63 14.52 11.63 14.36 10.68 14.36" fill="#005288" stroke-width="0"/><rect x="10.36" y="13.58" width="1.28" height=".18" fill="#005288" stroke-width="0"/><path d="m8.93,13.75h1.03c-.02-.13-.1-.17-.3-.17h-.74c-.23,0-.31.05-.31.22v.49c0,.18.07.22.31.22h.74c.21,0,.29-.04.3-.18h-1.02l-.03-.03v-.55" fill="#005288" stroke-width="0"/><path d="m4.88,13.94h-.75l-.02-.02v-.16l.02-.02h1.01v-.03c-.02-.09-.11-.13-.28-.13h-.7c-.23,0-.31.05-.31.22v.1c0,.18.07.22.31.22h.75l.02.02v.17l-.02.03h-.86s-.22,0-.22,0c0,0-.03.01-.02.02.02.12.1.16.3.16h.77c.23,0,.31-.05.31-.22v-.13c0-.18-.08-.22-.31-.22" fill="#005288" stroke-width="0"/><path d="m12.45,13.58h-.42l-.02.04.47.34c.09-.05.19-.1.29-.15" fill="#005288" stroke-width="0"/><path d="m12.83,14.22l.41.3h.43l.02-.04-.61-.45c-.08.06-.16.12-.24.19" fill="#005288" stroke-width="0"/><path d="m12.39,14.52h-.38l-.03-.05c.26-.25,1.42-1.32,3.94-1.44,0,0-2.12.07-3.53,1.49" fill="#005288" stroke-width="0"/></svg>