<?xml version="1.0" encoding="UTF-8"?><svg id="Layer_1" xmlns="http://www.w3.org/2000/svg" xmlns:xlink="http://www.w3.org/1999/xlink" viewBox="0 0 21.43 305.29"><defs><linearGradient id="linear-gradient" x1="-23.47" y1="-1169.3" x2="-8.32" y2="-1169.3" gradientTransform="translate(26.71 -997.57) scale(1 -1)" gradientUnits="userSpaceOnUse"><stop offset="0" stop-color="#f6f6f6"/><stop offset=".5" stop-color="#fff"/><stop offset="1" stop-color="#f6f6f6"/></linearGradient><linearGradient id="linear-gradient-2" x1="-23.47" y1="-620.04" x2="-8.31" y2="-620.04" gradientTransform="translate(26.7 -1456.92) scale(1 -2.53)" gradientUnits="userSpaceOnUse"><stop offset="0" stop-color="#101010"/><stop offset=".5" stop-color="#282828"/><stop offset="1" stop-color="#101010"/></linearGradient><linearGradient id="linear-gradient-3" x1="-23.47" y1="-1287.12" x2="-8.32" y2="-1287.12" gradientTransform="translate(26.71 -996.8) scale(1 -1)" gradientUnits="userSpaceOnUse"><stop offset="0" stop-color="#101010"/><stop offset=".5" stop-color="#282828"/><stop offset="1" stop-color="#101010"/></linearGradient><linearGradient id="linear-gradient-4" x1="-23.44" y1="-1294.84" x2="-8.36" y2="-1294.84" gradientTransform="translate(26.71 -996.8) scale(1 -1)" gradientUnits="userSpaceOnUse"><stop offset="0" stop-color="#101010"/><stop offset=".5" stop-color="#282828"/><stop offset="1" stop-color="#101010"/></linearGradient><linearGradient id="linear-gradient-5" x1="-25.53" y1="-1271.3" x2="-15.76" y2="-1271.3" gradientTransform="translate(26.71 -996.8) scale(1 -1)" gradientUnits="userSpaceOnUse"><stop offset="0" stop-color="#181818"/><stop offset="1" stop-color="#3c3c3c"/></linearGradient><linearGradient id="linear-gradient-6" x1="-23.81" y1="-1276.79" x2="-20.86" y2="-1292.5" gradientTransform="translate(26.71 -996.8) scale(1 -1)" gradientUnits="userSpaceOnUse"><stop offset="0" stop-color="#080808"/><stop offset="1" stop-color="#141414"/></linearGradient><linearGradient id="linear-gradient-7" x1="-476.68" y1="-1271.3" x2="-466.9" y2="-1271.3" gradientTransform="translate(-456.18 -996.8) rotate(-180)" gradientUnits="userSpaceOnUse"><stop offset="0" stop-color="#181818"/><stop offset="1" stop-color="#3c3c3c"/></linearGradient><linearGradient id="linear-gradient-8" x1="-474.95" y1="-1276.79" x2="-472" y2="-1292.5" gradientTransform="translate(-456.18 -996.8) rotate(-180)" gradientUnits="userSpaceOnUse"><stop offset="0" stop-color="#080808"/><stop offset="1" stop-color="#141414"/></linearGradient><linearGradient id="linear-gradient-9" x1="-393.05" y1="-486.7" x2="-381.58" y2="-486.7" gradientTransform="translate(390.53 -461.03) scale(1 -1)" gradientUnits="userSpaceOnUse"><stop offset="0" stop-color="#e6e6e6"/><stop offset="1" stop-color="#f9f9f9"/></linearGradient><linearGradient id="linear-gradient-10" x1="-393.05" y1="-514.9" x2="-381.58" y2="-514.9" gradientTransform="translate(390.53 -461.03) scale(1 -1)" gradientUnits="userSpaceOnUse"><stop offset="0" stop-color="#e6e6e6"/><stop offset="1" stop-color="#f9f9f9"/></linearGradient><linearGradient id="linear-gradient-11" x1="-844.68" y1="-486.7" x2="-830.48" y2="-486.7" gradientTransform="translate(-819.97 -461.03) rotate(-180)" gradientUnits="userSpaceOnUse"><stop offset="0" stop-color="#e6e6e6"/><stop offset="1" stop-color="#f9f9f9"/></linearGradient><linearGradient id="linear-gradient-12" x1="-844.68" y1="-514.9" x2="-830.48" y2="-514.9" gradientTransform="translate(-819.97 -461.03) rotate(-180)" gradientUnits="userSpaceOnUse"><stop offset="0" stop-color="#e6e6e6"/><stop offset="1" stop-color="#f9f9f9"/></linearGradient></defs><rect x="3.23" y="58.91" width="15.16" height="237.1" fill="url(#linear-gradient)" stroke-width="0"/><rect x="3.23" y="97.59" width="15.16" height="28.99" fill="url(#linear-gradient-2)" stroke-width="0"/><rect x="3.23" y="284.6" width="15.16" height="11.46" fill="url(#linear-gradient-3)" stroke-width="0"/><path d="m3.94,299.97s-.06-.16-.06-.19v-.02h2.75v.05c.03.1.03.12,0,.15l-.02.04h-2.66l-.02-.04h0Z" fill="#f7f7f7" stroke-width="0"/><path d="m7.02,299.97s-.06-.16-.06-.18c0,0,.59,0,1.42,0h1.42v.02c-.02.06-.04.12-.06.16l-.02.05h-2.66l-.03-.05h0Z" fill="#f7f7f7" stroke-width="0"/><path d="m10.03,300.05s0-.03.02-.06c.02-.05.04-.13.06-.21v-.03h.72c.67,0,.71,0,.72.02,0,0,0,.03.01.06,0,.02.02.08.04.13.02.05.03.09.03.1h-.79c-.44,0-.79,0-.79,0h0Z" fill="#f7f7f7" stroke-width="0"/><path d="m11.92,299.97s-.06-.16-.06-.18c0,0,.59,0,1.42,0,1.06,0,1.42,0,1.42.01,0,.02-.04.13-.06.18l-.03.05h-2.66l-.03-.05h0Z" fill="#f7f7f7" stroke-width="0"/><path d="m15.02,299.97s-.03-.06-.01-.14c0-.04.01-.07.01-.07,0,0,.62,0,1.38,0h1.38v.02s-.05.13-.07.17l-.02.04h-2.66l-.02-.03h0Z" fill="#f7f7f7" stroke-width="0"/><path d="m3.27,295.99l15.08.03v2.66s-.56,1.42-.56,1.42l-13.94-.04-.57-1.42v-2.64Z" fill="url(#linear-gradient-4)" stroke-width="0"/><path d="m6.73,302.24c-.16-.39-.36-.84-.57-1.24l-.08-.16.03-.06c.06-.11.19-.34.27-.47l.03-.05h.16c.09,0,.27,0,.39,0h.23l.03.05c.07.11.25.42.29.5v.03s-.03.08-.03.08c-.22.43-.45.92-.63,1.37l-.03.08h-.05l-.05-.13h0Z" fill="#333" stroke-width="0"/><path d="m14.7,302.07c-.16-.39-.36-.84-.57-1.24l-.08-.16.03-.06c.06-.11.19-.34.27-.47l.03-.05h.16c.09,0,.27,0,.39,0h.23l.03.05c.07.11.25.42.29.5v.03s-.03.08-.03.08c-.22.43-.45.92-.63,1.37l-.03.08h-.05l-.05-.13h0Z" fill="#333" stroke-width="0"/><path d="m9.93,301.67c.06-.13.19-.35.27-.5l.15-.27-.18-.31-.18-.31h-.31c-.26,0-.31,0-.31-.03,0-.03-.03-.03-.13-.03-.12,0-.13.01-.18.08l-.04.08.23.44c.13.24.3.59.38.77.08.18.15.33.16.33,0,0,.07-.1.13-.23h0Z" fill="#333" stroke-width="0"/><path d="m11.77,301.67c-.06-.13-.19-.35-.27-.5l-.15-.27.18-.31.18-.31h.31c.26,0,.31,0,.31-.03,0-.03.03-.03.13-.03.12,0,.13.01.18.08l.04.08-.23.44c-.13.24-.3.59-.38.77-.08.18-.15.33-.16.33,0,0-.07-.1-.13-.23h0Z" fill="#333" stroke-width="0"/><path d="m8.92,305.08s.07-.31.08-.34c.14-1.83.29-1.45.86-2.56,0-.06.39-.85.61-1.24l.11-.2v-.51h.55v.52l.12.21c.12.22.46.88.54,1.06l.05.1c.72,1.95.18.24.91,2.76.02.08.03.17.03.18,0,.03,0,.03-1.93.03-1.06,0-1.93,0-1.93,0h0Z" fill="#333" stroke-width="0"/><path d="m3.25,97.63h15.14" fill="none" stroke="#000" stroke-width=".32"/><path d="m13.69,300.13h-.83" fill="none" stroke="#000" stroke-width=".32"/><path d="m4.83,304.43h3.99" fill="none" stroke="#000" stroke-width=".32"/><path d="m6.42,300.13h.83" fill="none" stroke="#000" stroke-width=".32"/><path d="m7.6,300.78c-.11-.23-.23-.45-.36-.67" fill="none" stroke="#000" stroke-width=".32"/><path d="m6.42,300.13c-.13.22-.24.44-.36.67" fill="none" stroke="#000" stroke-width=".32"/><path d="m9.16,300.13h.62" fill="none" stroke="#000" stroke-width=".32"/><path d="m10.39,300.86c-.11-.23-.24-.46-.36-.69" fill="none" stroke="#000" stroke-width=".32"/><path d="m9.16,300.13c-.06.11-.13.23-.19.34" fill="none" stroke="#000" stroke-width=".32"/><path d="m16.81,304.43h-3.99" fill="none" stroke="#000" stroke-width=".32"/><path d="m15.24,300.13h-.83" fill="none" stroke="#000" stroke-width=".32"/><path d="m14.41,300.13c-.13.22-.24.44-.36.67" fill="none" stroke="#000" stroke-width=".32"/><path d="m15.59,300.78c-.11-.23-.23-.45-.36-.67" fill="none" stroke="#000" stroke-width=".32"/><path d="m12.48,300.13h-.62" fill="none" stroke="#000" stroke-width=".32"/><path d="m9.78,300.13c.12-.16.18-.36.18-.56" fill="none" stroke="#000" stroke-width=".32"/><path d="m6.96,300.13h2.82" fill="none" stroke="#000" stroke-width=".32"/><path d="m11.69,299.56c0,.2.05.4.18.56" fill="none" stroke="#000" stroke-width=".32"/><path d="m14.69,300.13c.12-.16.18-.36.18-.56" fill="none" stroke="#000" stroke-width=".32"/><path d="m10.02,300.21h1.6" fill="none" stroke="#000" stroke-width=".32"/><path d="m9.37,300.13s.03.04.04.06" fill="none" stroke="#000" stroke-width=".32"/><path d="m12.24,300.21s.03-.04.04-.06" fill="none" stroke="#000" stroke-width=".32"/><path d="m9.41,300.21h2.82" fill="none" stroke="#000" stroke-width=".32"/><path d="m11.66,300.21c-.13.23-.25.46-.36.69" fill="none" stroke="#000" stroke-width=".32"/><path d="m11.66,300.21c-.13.23-.25.46-.36.69" fill="none" stroke="#000" stroke-width=".32"/><path d="m12.69,300.45c-.05-.1-.11-.2-.17-.31" fill="none" stroke="#000" stroke-width=".32"/><path d="m18.39,58.96v196.5" fill="none" stroke="#000" stroke-width=".33"/><path d="m8.99,304.43c-.05.22-.1.45-.14.67h3.99c-.04-.23-.09-.45-.14-.67" fill="none" stroke="#000" stroke-width=".32"/><path d="m9.74,302.16c.2-.47.43-.94.69-1.39v-.61" fill="none" stroke="#000" stroke-width=".32"/><path d="m11.26,300.21v.61c.25.43.47.88.67,1.34" fill="none" stroke="#000" stroke-width=".32"/><path d="m6.83,302.73c-.29-.89-.67-1.74-1.13-2.55h-.83c-.76,1.34-1.3,2.8-1.58,4.32h3.99" fill="#333" stroke="#000" stroke-width=".32"/><path d="m14.82,299.89c.03.09.07.17.13.24h2.82c.12-.16.18-.36.18-.56" fill="none" stroke="#000" stroke-width=".32"/><path d="m14.37,304.43h3.99c-.28-1.52-.82-2.98-1.58-4.32h-.83c-.46.81-.84,1.67-1.13,2.55" fill="#333" stroke="#000" stroke-width=".32"/><path d="m7.96,300.13c-.76,1.34-1.3,2.8-1.58,4.32h3.99c-.28-1.52-.82-2.98-1.58-4.32h-.83Z" fill="#333" stroke="#000" stroke-width=".32"/><path d="m3.25,255.46V58.96" fill="none" stroke="#000" stroke-width=".33"/><path d="m18.39,291.61v6.75c-.02.44-.16.86-.4,1.23H3.65c-.24-.37-.38-.79-.4-1.23v-6.75" fill="none" stroke="#000" stroke-width=".32"/><path d="m13.69,300.13c.76,1.34,1.3,2.8,1.58,4.32h-3.99c.28-1.52.82-2.98,1.58-4.32" fill="#333" stroke="#000" stroke-width=".32"/><path d="m11.87,300.13h2.82" fill="none" stroke="#000" stroke-width=".32"/><path d="m3.7,299.56c0,.2.05.4.18.56h2.82c.06-.07.1-.15.13-.24" fill="none" stroke="#000" stroke-width=".32"/><path d="m6.78,299.56c0,.2.05.4.18.56" fill="none" stroke="#000" stroke-width=".32"/><path d="m3.25,126.61h15.14" fill="none" stroke="#000" stroke-width=".32"/><path d="m11.96,196.93h-3.14l-.12.09v2.79h.87v-1.05l.08-.07h2.3c.58,0,.85-.16.85-.56v-.64c0-.4-.27-.56-.85-.56m0,1.03c0,.19-.13.23-.4.23h-1.9l-.09-.09v-.6l.08-.08h1.91c.27,0,.4.04.4.23v.31h0Z" fill="#005288" stroke-width="0"/><polyline points="10.14 203.28 10.89 204.37 10.85 204.48 9.19 204.48 8.77 205 11.24 205 11.41 205.1 11.79 205.63 12.78 205.63 10.6 202.71" fill="#005288" stroke-width="0"/><polyline points="9.68 217.84 9.68 217.06 9.77 216.98 11.44 216.98 11.44 216.49 8.8 216.49 8.8 218.4 12.69 218.4 12.69 217.91 9.78 217.91" fill="#005288" stroke-width="0"/><rect x="8.8" y="215.52" width="3.93" height=".54" fill="#005288" stroke-width="0"/><path d="m9.67,209.51h3.17c-.05-.4-.3-.51-.93-.51h-2.27c-.72,0-.94.14-.94.68v1.52c0,.54.23.68.94.68h2.27c.64,0,.89-.12.91-.54h-3.14l-.09-.09v-1.68" fill="#005288" stroke-width="0"/><path d="m11.93,191.41h-2.31l-.07-.07v-.49l.07-.05h3.11l.04-.1c-.11-.27-.38-.4-.89-.4h-2.16c-.72,0-.94.14-.94.68v.32c0,.54.23.68.94.68h2.3l.07.06v.52l-.06.08h-2.63s-.69,0-.69,0c0,0-.08.04-.08.06.06.38.32.49.93.49h2.35c.72,0,.95-.14.95-.68v-.4c0-.54-.24-.68-.95-.68" fill="#005288" stroke-width="0"/><path d="m9.71,222.2h-1.29l-.07.13,1.44,1.05c.27-.16.57-.32.89-.47" fill="#005288" stroke-width="0"/><path d="m10.87,224.18l1.26.92h1.31l.05-.12-1.89-1.38c-.25.18-.5.38-.74.58" fill="#005288" stroke-width="0"/><path d="m9.52,225.09h-1.17l-.1-.15c.8-.77,4.43-3.66,9.16-4.02,0,0-4.14.46-7.89,4.18" fill="#a7a9ac" stroke-width="0"/><rect x="7.08" y="144.8" width="7.47" height="4.2" fill="#b22234" stroke-width="0"/><path d="m7.08,145.28h7.47m0,.65h-7.47m0,.65h7.47m0,.65h-7.47m0,.65h7.47m0,.65h-7.47" stroke="#fff" stroke-miterlimit="10" stroke-width=".3"/><rect x="7.08" y="144.8" width="2.99" height="2.26" fill="#3c3b6e" stroke-width="0"/><path d="m7.32,144.89l.07.23-.19-.14h.23l-.19.14.07-.23Z" fill="#fff" stroke-width="0"/><path id="s" d="m7.32,145.35l.07.23-.19-.14h.23l-.19.14.07-.23Z" fill="#fff" stroke-width="0"/><path id="s-2" d="m7.32,145.8l.07.23-.19-.14h.23l-.19.14.07-.23Z" fill="#fff" stroke-width="0"/><path id="s-3" d="m7.32,146.25l.07.23-.19-.14h.23l-.19.14.07-.23Z" fill="#fff" stroke-width="0"/><path id="s-4" d="m7.32,146.7l.07.23-.19-.14h.23l-.19.14.07-.23Z" fill="#fff" stroke-width="0"/><g id="d"><path id="s-5" d="m7.57,145.12l.07.23-.19-.14h.23l-.19.14.07-.23Z" fill="#fff" stroke-width="0"/><path id="s-6" d="m7.57,145.57l.07.23-.19-.14h.23l-.19.14.07-.23Z" fill="#fff" stroke-width="0"/><path id="s-7" d="m7.57,146.03l.07.23-.19-.14h.23l-.19.14.07-.23Z" fill="#fff" stroke-width="0"/><path id="s-8" d="m7.57,146.48l.07.23-.19-.14h.23l-.19.14.07-.23Z" fill="#fff" stroke-width="0"/></g><g id="a"><g id="c"><g id="d-2"><path id="s-9" d="m7.82,144.89l.07.23-.19-.14h.23l-.19.14.07-.23Z" fill="#fff" stroke-width="0"/><path id="s-10" d="m7.82,145.35l.07.23-.19-.14h.23l-.19.14.07-.23Z" fill="#fff" stroke-width="0"/><path id="s-11" d="m7.82,145.8l.07.23-.19-.14h.23l-.19.14.07-.23Z" fill="#fff" stroke-width="0"/><path id="s-12" d="m7.82,146.25l.07.23-.19-.14h.23l-.19.14.07-.23Z" fill="#fff" stroke-width="0"/></g><path id="s-13" d="m7.82,146.7l.07.23-.19-.14h.23l-.19.14.07-.23Z" fill="#fff" stroke-width="0"/></g><g id="d-3"><path id="s-14" d="m8.07,145.12l.07.23-.19-.14h.23l-.19.14.07-.23Z" fill="#fff" stroke-width="0"/><path id="s-15" d="m8.07,145.57l.07.23-.19-.14h.23l-.19.14.07-.23Z" fill="#fff" stroke-width="0"/><path id="s-16" d="m8.07,146.03l.07.23-.19-.14h.23l-.19.14.07-.23Z" fill="#fff" stroke-width="0"/><path id="s-17" d="m8.07,146.48l.07.23-.19-.14h.23l-.19.14.07-.23Z" fill="#fff" stroke-width="0"/></g></g><g id="e"><g id="a-2"><g id="c-2"><g id="d-4"><path id="s-18" d="m8.32,144.89l.07.23-.19-.14h.23l-.19.14.07-.23Z" fill="#fff" stroke-width="0"/><path id="s-19" d="m8.32,145.35l.07.23-.19-.14h.23l-.19.14.07-.23Z" fill="#fff" stroke-width="0"/><path id="s-20" d="m8.32,145.8l.07.23-.19-.14h.23l-.19.14.07-.23Z" fill="#fff" stroke-width="0"/><path id="s-21" d="m8.32,146.25l.07.23-.19-.14h.23l-.19.14.07-.23Z" fill="#fff" stroke-width="0"/></g><path id="s-22" d="m8.32,146.7l.07.23-.19-.14h.23l-.19.14.07-.23Z" fill="#fff" stroke-width="0"/></g><g id="d-5"><path id="s-23" d="m8.57,145.12l.07.23-.19-.14h.23l-.19.14.07-.23Z" fill="#fff" stroke-width="0"/><path id="s-24" d="m8.57,145.57l.07.23-.19-.14h.23l-.19.14.07-.23Z" fill="#fff" stroke-width="0"/><path id="s-25" d="m8.57,146.03l.07.23-.19-.14h.23l-.19.14.07-.23Z" fill="#fff" stroke-width="0"/><path id="s-26" d="m8.57,146.48l.07.23-.19-.14h.23l-.19.14.07-.23Z" fill="#fff" stroke-width="0"/></g></g><g id="a-3"><g id="c-3"><g id="d-6"><path id="s-27" d="m8.82,144.89l.07.23-.19-.14h.23l-.19.14.07-.23Z" fill="#fff" stroke-width="0"/><path id="s-28" d="m8.82,145.35l.07.23-.19-.14h.23l-.19.14.07-.23Z" fill="#fff" stroke-width="0"/><path id="s-29" d="m8.82,145.8l.07.23-.19-.14h.23l-.19.14.07-.23Z" fill="#fff" stroke-width="0"/><path id="s-30" d="m8.82,146.25l.07.23-.19-.14h.23l-.19.14.07-.23Z" fill="#fff" stroke-width="0"/></g><path id="s-31" d="m8.82,146.7l.07.23-.19-.14h.23l-.19.14.07-.23Z" fill="#fff" stroke-width="0"/></g><g id="d-7"><path id="s-32" d="m9.07,145.12l.07.23-.19-.14h.23l-.19.14.07-.23Z" fill="#fff" stroke-width="0"/><path id="s-33" d="m9.07,145.57l.07.23-.19-.14h.23l-.19.14.07-.23Z" fill="#fff" stroke-width="0"/><path id="s-34" d="m9.07,146.03l.07.23-.19-.14h.23l-.19.14.07-.23Z" fill="#fff" stroke-width="0"/><path id="s-35" d="m9.07,146.48l.07.23-.19-.14h.23l-.19.14.07-.23Z" fill="#fff" stroke-width="0"/></g></g></g><g id="a-4"><g id="c-4"><g id="d-8"><path id="s-36" d="m9.32,144.89l.07.23-.19-.14h.23l-.19.14.07-.23Z" fill="#fff" stroke-width="0"/><path id="s-37" d="m9.32,145.35l.07.23-.19-.14h.23l-.19.14.07-.23Z" fill="#fff" stroke-width="0"/><path id="s-38" d="m9.32,145.8l.07.23-.19-.14h.23l-.19.14.07-.23Z" fill="#fff" stroke-width="0"/><path id="s-39" d="m9.32,146.25l.07.23-.19-.14h.23l-.19.14.07-.23Z" fill="#fff" stroke-width="0"/></g><path id="s-40" d="m9.32,146.7l.07.23-.19-.14h.23l-.19.14.07-.23Z" fill="#fff" stroke-width="0"/></g><g id="d-9"><path id="s-41" d="m9.57,145.12l.07.23-.19-.14h.23l-.19.14.07-.23Z" fill="#fff" stroke-width="0"/><path id="s-42" d="m9.57,145.57l.07.23-.19-.14h.23l-.19.14.07-.23Z" fill="#fff" stroke-width="0"/><path id="s-43" d="m9.57,146.03l.07.23-.19-.14h.23l-.19.14.07-.23Z" fill="#fff" stroke-width="0"/><path id="s-44" d="m9.57,146.48l.07.23-.19-.14h.23l-.19.14.07-.23Z" fill="#fff" stroke-width="0"/></g></g><g id="c-5"><g id="d-10"><path id="s-45" d="m9.81,144.89l.07.23-.19-.14h.23l-.19.14.07-.23Z" fill="#fff" stroke-width="0"/><path id="s-46" d="m9.81,145.35l.07.23-.19-.14h.23l-.19.14.07-.23Z" fill="#fff" stroke-width="0"/><path id="s-47" d="m9.81,145.8l.07.23-.19-.14h.23l-.19.14.07-.23Z" fill="#fff" stroke-width="0"/><path id="s-48" d="m9.81,146.25l.07.23-.19-.14h.23l-.19.14.07-.23Z" fill="#fff" stroke-width="0"/></g><path id="s-49" d="m9.81,146.7l.07.23-.19-.14h.23l-.19.14.07-.23Z" fill="#fff" stroke-width="0"/></g><path d="m8.65,138.51c.25-.13.5-.26.76-.37-2.98-1.57-3.15-2.75-3.76-3.99.47,1.44.87,2.87,3,4.36h0Z" fill="#a80126" fill-rule="evenodd" stroke-width="0"/><path d="m7.1,136.16c1.14.95,2.12,1.63,2.85,1.83.72-.38,3.1-.59,3.05-.05-.52-.26-.83-.13-1.12-.04.15,0,.54-.05.66,0-.05.06-.1.08-.15.12.19.04.37.1.53.19.1,0,.16,0,.19.02-.1.03-.22.15-.28.24.66.02,1.36.01,1.44.71.21-.62-.16-.94-.89-1.08-.1-.21-.25-.39-.4-.6-1.99-.11-3.97-.25-5.86-1.34h0Z" fill="#a80126" fill-rule="evenodd" stroke-width="0"/><path d="m5.54,140.96v-1.2h.8s-.06.08-.13.11h-.5v.32h.45s-.05.07-.1.09h-.35v.43c-.04.1-.09.19-.17.26h0Z" fill-rule="evenodd" stroke-width="0"/><path d="m7.71,139.88v.88h.23v-.83c-.31-.28-.62-.28-.93,0v.83h.21v-.49h.16s.06-.04.08-.07h-.24v-.32c.18-.13.33-.13.49,0h0Z" fill-rule="evenodd" stroke-width="0"/><path d="m10.1,140.79h-.93v-1.01h.23v.93h.82s-.05.07-.12.08h0Z" fill-rule="evenodd" stroke-width="0"/><path d="m11.48,139.76v.2c-.37.51.26,1.11.98.67h.05c-.44.49-2.07.08-1.03-.87h0Z" fill-rule="evenodd" stroke-width="0"/><path d="m10.99,139.79v.37c.36-.64.85-.96,2.36-.54-1.45-.57-1.99-.27-2.36.17Z" fill-rule="evenodd" stroke-width="0"/><path d="m13.81,139.68c-.3,0-.61.21-.61.59,0,.77,1.21.81,1.21,0,0-.4-.3-.6-.61-.59h0Zm0,.08c.18,0,.36.17.36.51,0,.69-.71.67-.72,0,0-.34.18-.51.36-.51h0Z" fill-rule="evenodd" stroke-width="0"/><path d="m15.55,139.88v.91h-.18v-.96l.18-.09v.04c.28,0,.47.12.52.19v.82h-.18v-.81c-.06-.11-.14-.13-.35-.14v.02Z" fill-rule="evenodd" stroke-width="0"/><path d="m10.82,141.5c-1.87,0-1.38,1.5-.35,1.47.48-.01.57-.06.89-.41-.2,1.01-.89,1.01-1.71,1.09-.1.07-.12.08-.2.19,1.4-.03,2.57-.28,2.54-1.36-.02-.76-.53-.99-1.18-.98h0Zm-.03.18c.34,0,.62.22.62.48h0c0,.27-.28.48-.62.48-.34,0-.61-.22-.61-.48,0-.27.27-.48.61-.48Z" fill-rule="evenodd" stroke-width="0"/><path d="m18.39,126.89l1.04,1.79v17.3l-.43,2.8v143.23l-.79,2.99v-27.2l-.41-1.32v-2.33l.38-1.43v-12.93l-.45-1.67v-3.35l.37-1.73v-89.37l-.36-1.98v-24.77l.63-.04Z" fill="#101010" fill-rule="evenodd" stroke="#000" stroke-linecap="round" stroke-linejoin="round" stroke-width=".32"/><path d="m3.25,295.99h15.14" fill="none" stroke="#000" stroke-width=".32"/><path d="m3.25,284.65h15.14" fill="none" stroke="#000" stroke-width=".32"/><rect x="2.79" y="296.31" width=".39" height=".37" fill="#101010" stroke-width="0"/><path d="m5.16,251.99h-.05s-.05.01-.05.01h-.05s-.05.03-.05.03l-.05.02-.05.03-.05.03-.05.04-.05.04-.05.05-.05.05-.05.06-.06.07-.06.07-.06.08-.06.09-.06.1-.06.1-.06.11-.06.12-.06.12-.06.13-.06.13-.06.13-.06.14-.06.14-.06.14-.06.14-.05.14-.05.14-.05.14-.05.14-.04.13-.04.13-.04.13-.03.13-.03.14-.03.14-.02.12v.03s-.03.06-.03.06l-.02.06-.04.12-.04.12-.04.12-.03.11-.03.11-.03.11-.03.11-.03.11-.03.11-.03.11-.03.11-.03.12-.03.12v.06s-.02.06-.02.06v.07s-.02.07-.02.07v.07s-.02.07-.02.07v.07s-.02.07-.02.07v.07s-.02.07-.02.07v.04s0,0,0,0h0s0,.04,0,.04v.36s-.06,1.47-.06,1.47l-.2,5.86-.39,11.71-.39,11.71-.2,5.86v.09s0,.05,0,.05h0s0,.02,0,.02v.02s.01.04.01.04v.07s.05.15.05.15l.02.08.04.15.03.08.03.07.03.07.03.07.04.07.04.07.04.07.05.07.05.07.06.07.03.03.03.03.03.03.03.03.03.03.04.03.04.03.04.03.04.03.04.03.04.03.09.06.05.03.05.03.05.03.05.03h.03s.05.01.05.01h0s0-.02,0-.02v-.02s.02-.01.02-.01h0s0-.01,0-.01h0s0-.02,0-.02v-.03s.01-.1.01-.1l.03-.21.02-.21.02-.21.02-.21.05-.43.02-.22.05-.44.02-.22.05-.45.05-.45.05-.46.05-.46.1-.92.05-.46.05-.45.05-.45.05-.45.03-.22.03-.22.03-.22.03-.22.03-.21.03-.21.03-.21.03-.21.03-.21.03-.2.03-.2.03-.2.03-.2.03-.2.03-.19.03-.19.03-.18.03-.18.03-.18.03-.17.04-.12.06-.13.09-.13.11-.13.13-.12.15-.11.16-.09.17-.07.18-.04h.19l.2.04.2.09.33.86.34.95.34.95.34.95.34.95.34.95.34.95.34.95.34.95.34.95.34.95.34.95.09.23.02.03.02.03.02.02.02.02.02.02.02.02.02.02.03.02h.02s.03.03.03.03h.03s.05.03.05.03h.03s.25,0,.25,0l.04-.02.04-.04.04-.06.04-.08.04-.09.03-.1.03-.11.03-.12.03-.13.02-.13.02-.13-.16-1.48-.36-3.1-.36-3.1-.36-3.1-.36-3.1-.36-3.1-.36-3.1-.36-3.1-.36-3.1-.36-3.1-.36-3.1-.36-3.1-.24-2.1v-.2s0-.2,0-.2v-.41s0-.2,0-.2v-.2s0-.2,0-.2v-.41s0-.2,0-.2v-.2s0-.26,0-.26l-.03-.4-.03-.36-.03-.33-.03-.29-.03-.26-.03-.23-.03-.21-.03-.19-.03-.17-.03-.15-.04-.14-.04-.13-.04-.12-.04-.11-.04-.1-.04-.09-.04-.08-.04-.07-.04-.07-.04-.06-.04-.05-.04-.05-.04-.04-.04-.04-.04-.03-.04-.03-.04-.02-.05-.02h-.05s-.05-.02-.05-.02h-.05Z" fill="url(#linear-gradient-5)" stroke-width="0"/><path d="m2.67,297.04l.56-5.1.14-1.6.49-3.76.08-.52.27-.43.34-.3.34-.15.36-.04.24.04.22.16,4.14,11.47.24.22.28.05v-.19s-6.25-16.79-6.25-16.79l-.3-.34-.33-.22-.34.09-.14.42-1.31,16.16.32.41.32.29.36.13Z" fill="url(#linear-gradient-6)" fill-rule="evenodd" stroke-width="0"/><path d="m6.36,255.93l-1-1.06" fill="none" stroke="#000" stroke-width=".32"/><path d="m5.36,254.87h-1.97" fill="none" stroke="#000" stroke-width=".32"/><path d="m3.32,279.52l.14-19.58" fill="none" stroke="#000" stroke-width=".32"/><path d="m3.46,259.94l1.75-2.38" fill="none" stroke="#000" stroke-width=".32"/><path d="m3.46,259.94l-.84-2.17" fill="none" stroke="#000" stroke-width=".32"/><path d="m5.22,257.57l.15-2.7" fill="none" stroke="#000" stroke-linecap="round" stroke-width=".32"/><path d="m2.76,296.31h.5" fill="none" stroke="#000" stroke-width=".32"/><path d="m2.69,296.8h.56" fill="none" stroke="#000" stroke-width=".32"/><path d="m1.68,296.23l.29-3.66.1-1.22.48-6.1.1-1.22.29-3.66.04-.39.03-.1.03-.08.04-.07.04-.06.04-.05.05-.03.05-.03.05-.02h.05s.05,0,.05,0h.05s.05.02.05.02l.05.02.05.03.05.03.05.03.05.04.05.04.04.04.04.05.04.05.04.05.04.05.04.05.04.05.14.36,1.42,3.82.47,1.27,1.42,3.82.95,2.55.47,1.27.95,2.55.47,1.27" fill="none" stroke="#000" stroke-width=".32"/><path d="m5.16,251.99h-.05s-.05.01-.05.01h-.05s-.05.03-.05.03l-.05.02-.05.03-.05.03-.05.04-.05.04-.05.05-.05.05-.05.06-.06.07-.06.07-.06.08-.06.09-.06.1-.06.1-.06.11-.06.12-.06.12-.06.13-.06.13-.06.13-.06.14-.06.14-.06.14-.06.14-.05.14-.05.14-.05.14-.05.14-.04.13-.04.13-.04.13-.03.13-.03.14-.03.14-.02.12v.03s-.03.06-.03.06l-.02.06-.04.12-.04.12-.04.12-.03.11-.03.11-.03.11-.03.11-.03.11-.03.11-.03.11-.03.11-.03.12-.03.12v.06s-.02.06-.02.06v.07s-.02.07-.02.07v.07s-.02.07-.02.07v.07s-.02.07-.02.07v.07s-.02.07-.02.07v.04s0,0,0,0h0s0,.04,0,.04v.36s-.06,1.47-.06,1.47l-.2,5.86-.39,11.71-.39,11.71-.2,5.86v.09s0,.05,0,.05h0s0,.02,0,.02v.02s.01.04.01.04v.07s.05.15.05.15l.02.08.04.15.03.08.03.07.03.07.03.07.04.07.04.07.04.07.05.07.05.07.06.07.03.03.03.03.03.03.03.03.03.03.04.03.04.03.04.03.04.03.04.03.04.03.09.06.05.03.05.03.05.03.05.03h.03s.05.01.05.01h0s0-.02,0-.02v-.02s.02-.01.02-.01h0s0-.01,0-.01h0s0-.02,0-.02v-.03s.01-.1.01-.1l.03-.21.02-.21.02-.21.02-.21.05-.43.02-.22.05-.44.02-.22.05-.45.05-.45.05-.46.05-.46.1-.92.05-.46.05-.45.05-.45.05-.45.03-.22.03-.22.03-.22.03-.22.03-.21.03-.21.03-.21.03-.21.03-.21.03-.2.03-.2.03-.2.03-.2.03-.2.03-.19.03-.19.03-.18.03-.18.03-.18.03-.17.04-.12.06-.13.09-.13.11-.13.13-.12.15-.11.16-.09.17-.07.18-.04h.19l.2.04.2.09.33.86.34.95.34.95.34.95.34.95.34.95.34.95.34.95.34.95.34.95.34.95.34.95.09.23.02.03.02.03.02.02.02.02.02.02.02.02.02.02.03.02h.02s.03.03.03.03h.03s.05.03.05.03h.03s.25,0,.25,0l.04-.02.04-.04.04-.06.04-.08.04-.09.03-.1.03-.11.03-.12.03-.13.02-.13.02-.13-.16-1.48-.36-3.1-.36-3.1-.36-3.1-.36-3.1-.36-3.1-.36-3.1-.36-3.1-.36-3.1-.36-3.1-.36-3.1-.36-3.1-.24-2.1v-.2s0-.2,0-.2v-.41s0-.2,0-.2v-.2s0-.2,0-.2v-.41s0-.2,0-.2v-.2s0-.26,0-.26l-.03-.4-.03-.36-.03-.33-.03-.29-.03-.26-.03-.23-.03-.21-.03-.19-.03-.17-.03-.15-.04-.14-.04-.13-.04-.12-.04-.11-.04-.1-.04-.09-.04-.08-.04-.07-.04-.07-.04-.06-.04-.05-.04-.05-.04-.04-.04-.04-.04-.03-.04-.03-.04-.02-.05-.02h-.05s-.05-.02-.05-.02h-.05Z" fill="none" stroke="#000" stroke-width=".32"/><rect x="18.49" y="296.31" width=".39" height=".37" fill="#101010" stroke-width="0"/><path d="m16.51,251.99h.05s.05.01.05.01h.05s.05.03.05.03l.05.02.05.03.05.03.05.04.05.04.05.05.05.05.05.06.06.07.06.07.06.08.06.09.06.1.06.1.06.11.06.12.06.12.06.13.06.13.06.13.06.14.06.14.06.14.06.14.05.14.05.14.05.14.05.14.04.13.04.13.04.13.03.13.03.14.03.14.02.12v.03s.03.06.03.06l.02.06.04.12.04.12.04.12.03.11.03.11.03.11.03.11.03.11.03.11.03.11.03.11.03.12.03.12v.06s.02.06.02.06v.07s.02.07.02.07v.07s.02.07.02.07v.07s.02.07.02.07v.07s.02.07.02.07v.04s0,0,0,0h0s0,.04,0,.04v.36s.06,1.47.06,1.47l.2,5.86.39,11.71.39,11.71.2,5.86v.09s0,.05,0,.05h0s0,.02,0,.02v.02s-.01.04-.01.04v.07s-.05.15-.05.15l-.02.08-.04.15-.03.08-.03.07-.03.07-.03.07-.04.07-.04.07-.04.07-.05.07-.05.07-.06.07-.03.03-.03.03-.03.03-.03.03-.03.03-.04.03-.04.03-.04.03-.04.03-.04.03-.04.03-.09.06-.05.03-.05.03-.05.03-.05.03h-.03s-.05.01-.05.01h0s0-.02,0-.02v-.02s-.02-.01-.02-.01h0s0-.01,0-.01h0s0-.02,0-.02v-.03s-.01-.1-.01-.1l-.03-.21-.02-.21-.02-.21-.02-.21-.05-.43-.02-.22-.05-.44-.02-.22-.05-.45-.05-.45-.05-.46-.05-.46-.1-.92-.05-.46-.05-.45-.05-.45-.05-.45-.03-.22-.03-.22-.03-.22-.03-.22-.03-.21-.03-.21-.03-.21-.03-.21-.03-.21-.03-.2-.03-.2-.03-.2-.03-.2-.03-.2-.03-.19-.03-.19-.03-.18-.03-.18-.03-.18-.03-.17-.04-.12-.06-.13-.09-.13-.11-.13-.13-.12-.15-.11-.16-.09-.17-.07-.18-.04h-.19l-.2.04-.2.09-.33.86-.34.95-.34.95-.34.95-.34.95-.34.95-.34.95-.34.95-.34.95-.34.95-.34.95-.34.95-.09.23-.02.03-.02.03-.02.02-.02.02-.02.02-.02.02-.02.02-.03.02h-.02s-.03.03-.03.03h-.03s-.05.03-.05.03h-.03s-.25,0-.25,0l-.04-.02-.04-.04-.04-.06-.04-.08-.04-.09-.03-.1-.03-.11-.03-.12-.03-.13-.02-.13-.02-.13.16-1.48.36-3.1.36-3.1.36-3.1.36-3.1.36-3.1.36-3.1.36-3.1.36-3.1.36-3.1.36-3.1.36-3.1.24-2.1v-.2s0-.2,0-.2v-.41s0-.2,0-.2v-.2s0-.2,0-.2v-.41s0-.2,0-.2v-.2s0-.26,0-.26l.03-.4.03-.36.03-.33.03-.29.03-.26.03-.23.03-.21.03-.19.03-.17.03-.15.04-.14.04-.13.04-.12.04-.11.04-.1.04-.09.04-.08.04-.07.04-.07.04-.06.04-.05.04-.05.04-.04.04-.04.04-.03.04-.03.04-.02.05-.02h.05s.05-.02.05-.02h.05Z" fill="url(#linear-gradient-7)" stroke-width="0"/><path d="m19,297.04l-.56-5.1-.14-1.6-.49-3.76-.08-.52-.27-.43-.34-.3-.34-.15-.36-.04-.24.04-.22.16-4.14,11.47-.24.22-.28.05v-.19s6.25-16.79,6.25-16.79l.3-.34.33-.22.34.09.14.42,1.31,16.16-.32.41-.32.29-.36.13Z" fill="url(#linear-gradient-8)" fill-rule="evenodd" stroke-width="0"/><path d="m15.31,255.93l1-1.06" fill="none" stroke="#000" stroke-width=".32"/><path d="m16.31,254.87h1.97" fill="none" stroke="#000" stroke-width=".32"/><path d="m18.35,279.52l-.14-19.58" fill="none" stroke="#000" stroke-width=".32"/><path d="m18.21,259.94l-1.75-2.38" fill="none" stroke="#000" stroke-width=".32"/><path d="m18.21,259.94l.84-2.17" fill="none" stroke="#000" stroke-width=".32"/><path d="m16.45,257.57l-.15-2.7" fill="none" stroke="#000" stroke-linecap="round" stroke-width=".32"/><path d="m18.91,296.31h-.5" fill="none" stroke="#000" stroke-width=".32"/><path d="m18.98,296.8h-.56" fill="none" stroke="#000" stroke-width=".32"/><path d="m19.99,296.23l-.29-3.66-.1-1.22-.48-6.1-.1-1.22-.29-3.66-.04-.39-.03-.1-.03-.08-.04-.07-.04-.06-.04-.05-.05-.03-.05-.03-.05-.02h-.05s-.05,0-.05,0h-.05s-.05.02-.05.02l-.05.02-.05.03-.05.03-.05.03-.05.04-.05.04-.04.04-.04.05-.04.05-.04.05-.04.05-.04.05-.04.05-.14.36-1.42,3.82-.47,1.27-1.42,3.82-.95,2.55-.47,1.27-.95,2.55-.47,1.27" fill="none" stroke="#000" stroke-width=".32"/><path d="m16.51,251.99h.05s.05.01.05.01h.05s.05.03.05.03l.05.02.05.03.05.03.05.04.05.04.05.05.05.05.05.06.06.07.06.07.06.08.06.09.06.1.06.1.06.11.06.12.06.12.06.13.06.13.06.13.06.14.06.14.06.14.06.14.05.14.05.14.05.14.05.14.04.13.04.13.04.13.03.13.03.14.03.14.02.12v.03s.03.06.03.06l.02.06.04.12.04.12.04.12.03.11.03.11.03.11.03.11.03.11.03.11.03.11.03.11.03.12.03.12v.06s.02.06.02.06v.07s.02.07.02.07v.07s.02.07.02.07v.07s.02.07.02.07v.07s.02.07.02.07v.04s0,0,0,0h0s0,.04,0,.04v.36s.06,1.47.06,1.47l.2,5.86.39,11.71.39,11.71.2,5.86v.09s0,.05,0,.05h0s0,.02,0,.02v.02s-.01.04-.01.04v.07s-.05.15-.05.15l-.02.08-.04.15-.03.08-.03.07-.03.07-.03.07-.04.07-.04.07-.04.07-.05.07-.05.07-.06.07-.03.03-.03.03-.03.03-.03.03-.03.03-.04.03-.04.03-.04.03-.04.03-.04.03-.04.03-.09.06-.05.03-.05.03-.05.03-.05.03h-.03s-.05.01-.05.01h0s0-.02,0-.02v-.02s-.02-.01-.02-.01h0s0-.01,0-.01h0s0-.02,0-.02v-.03s-.01-.1-.01-.1l-.03-.21-.02-.21-.02-.21-.02-.21-.05-.43-.02-.22-.05-.44-.02-.22-.05-.45-.05-.45-.05-.46-.05-.46-.1-.92-.05-.46-.05-.45-.05-.45-.05-.45-.03-.22-.03-.22-.03-.22-.03-.22-.03-.21-.03-.21-.03-.21-.03-.21-.03-.21-.03-.2-.03-.2-.03-.2-.03-.2-.03-.2-.03-.19-.03-.19-.03-.18-.03-.18-.03-.18-.03-.17-.04-.12-.06-.13-.09-.13-.11-.13-.13-.12-.15-.11-.16-.09-.17-.07-.18-.04h-.19l-.2.04-.2.09-.33.86-.34.95-.34.95-.34.95-.34.95-.34.95-.34.95-.34.95-.34.95-.34.95-.34.95-.34.95-.09.23-.02.03-.02.03-.02.02-.02.02-.02.02-.02.02-.02.02-.03.02h-.02s-.03.03-.03.03h-.03s-.05.03-.05.03h-.03s-.25,0-.25,0l-.04-.02-.04-.04-.04-.06-.04-.08-.04-.09-.03-.1-.03-.11-.03-.12-.03-.13-.02-.13-.02-.13.16-1.48.36-3.1.36-3.1.36-3.1.36-3.1.36-3.1.36-3.1.36-3.1.36-3.1.36-3.1.36-3.1.36-3.1.24-2.1v-.2s0-.2,0-.2v-.41s0-.2,0-.2v-.2s0-.2,0-.2v-.41s0-.2,0-.2v-.2s0-.26,0-.26l.03-.4.03-.36.03-.33.03-.29.03-.26.03-.23.03-.21.03-.19.03-.17.03-.15.04-.14.04-.13.04-.12.04-.11.04-.1.04-.09.04-.08.04-.07.04-.07.04-.06.04-.05.04-.05.04-.04.04-.04.04-.03.04-.03.04-.02.05-.02h.05s.05-.02.05-.02h.05Z" fill="none" stroke="#000" stroke-width=".32"/><path d="m.35,49.53c-.05-.81-.07-8-.04-15.97.06-15.76.05-15.56.91-19.59.98-4.6,2.86-8.21,6.04-11.62,1.26-1.35,2.26-2.02,3.03-2.02h.32s0,50.67,0,50.67H.45l-.1-1.47h0Z" fill="url(#linear-gradient-9)" stroke-width="0"/><path d="m3.19,56.28c-.08-.1-.61-1.05-1.19-2.12-.58-1.07-1.17-2.15-1.33-2.4l-.28-.47h10.21v5.17h-3.64c-2.74,0-3.68-.04-3.78-.18h0Z" fill="url(#linear-gradient-10)" stroke-width="0"/><path d="m21.13,49.53c.05-.81.07-8,.04-15.97-.06-15.76-.05-15.56-.91-19.59-.98-4.6-2.86-8.21-6.04-11.62-1.26-1.35-2.26-2.02-3.03-2.02h-.32s0,50.67,0,50.67h10.16l.1-1.47h0Z" fill="url(#linear-gradient-11)" stroke-width="0"/><path d="m18.3,56.28c.08-.1.61-1.05,1.19-2.12.58-1.07,1.17-2.15,1.33-2.4l.28-.47h-10.21v5.17h3.64c2.74,0,3.68-.04,3.78-.18h0Z" fill="url(#linear-gradient-12)" stroke-width="0"/><path d="m3.15,56.56h15.14" fill="none" stroke="#000" stroke-width=".32"/><path d="m.19,51.13h21.05" fill="none" stroke="#000" stroke-width=".32"/><path d="m3.15,56.56l-.32-.58-1.26-2.32-.32-.58-.32-.58-.63-1.16-.11-2.33v-28.61s.05-.43.05-.43l.04-.43.04-.43.04-.43.05-.43.05-.43.05-.43.05-.43.06-.43.06-.43.07-.43.07-.43.08-.43.08-.43.09-.43.09-.43.1-.42.11-.42.11-.42.12-.42.12-.42.13-.41.14-.41.15-.41.15-.4.16-.4.17-.39.18-.39.18-.39.19-.38.2-.38.21-.37.21-.37.22-.37.23-.36.23-.36.24-.36.25-.35.26-.35.26-.35.27-.35.28-.35.28-.34.29-.34.3-.34.3-.34.31-.33.32-.32.33-.3.35-.27.36-.24.38-.2.4-.15.42-.1.44-.05h.46s.44.05.44.05l.42.1.4.15.38.2.36.24.35.27.33.3.32.32.31.33.3.34.3.34.29.34.28.34.28.35.27.35.26.35.26.35.25.35.24.36.23.36.23.36.22.37.21.37.21.37.2.38.19.38.18.39.18.39.17.39.16.4.15.4.15.41.14.41.13.41.13.42.12.42.11.42.11.42.1.42.09.43.09.43.08.43.08.43.07.43.07.43.06.43.06.43.05.43.05.43.04.43.04.43.04.43.04.43.04.43.04.43v2.43s.01,26.18.01,26.18l-.11,2.33-.63,1.16-1.26,2.32-.32.58-.63,1.16" fill="none" stroke="#000" stroke-width=".32"/><path d="m10.71,56.56V.2" fill="none" stroke="#000" stroke-width=".32"/><path d="m16.79,122.3l.66.31.18.73-.47.6-.87.04-.49-.55.12-.68.35-.41.51-.04Z" fill="#1a1a1a" fill-rule="evenodd" stroke-width="0"/><path d="m15.37,124.06l-.43-.05-1.05,1.29-.02.75-.13.63.16.68-.15.75.1.63-.12.56.16.56-.15.66.07.45-.05.66.53.16-.02-6.43,1.08-1.31Z" fill="#474747" fill-rule="evenodd" stroke-width="0"/><path d="m14.29,131.84l4.77-.03v-6.45l-1.39-2.11-.56.79-.74.05-.3-.29-.45-.22-.23.53-1.09,1.24v6.48Z" fill="#999" fill-rule="evenodd" stroke-width="0"/><path d="m14.32,125.38v6.39h4.7l-4.7-6.39,1.06-1.32.31-.81" fill="none" stroke="#000" stroke-linecap="round" stroke-linejoin="round" stroke-width=".31"/><path d="m14.32,126.85l3.68,4.89" fill="none" stroke="#000" stroke-linecap="round" stroke-linejoin="round" stroke-width=".31"/><path d="m17.03,131.74l-2.71-3.57" fill="none" stroke="#000" stroke-linecap="round" stroke-linejoin="round" stroke-width=".31"/><path d="m16.14,131.73l-1.82-2.23" fill="none" stroke="#000" stroke-linecap="round" stroke-linejoin="round" stroke-width=".31"/><path d="m15.17,131.77l-.85-1.08" fill="none" stroke="#000" stroke-linecap="round" stroke-linejoin="round" stroke-width=".31"/><path d="m19.01,131.75v-6.41l-.93-1.4" fill="none" stroke="#000" stroke-linecap="round" stroke-linejoin="round" stroke-width=".31"/><path d="m14.33,131.77l4.67-6.4" fill="none" stroke="#000" stroke-linecap="round" stroke-linejoin="round" stroke-width=".31"/><path d="m19.02,126.85l-3.68,4.89" fill="none" stroke="#000" stroke-linecap="round" stroke-linejoin="round" stroke-width=".31"/><path d="m16.28,131.74l2.71-3.57" fill="none" stroke="#000" stroke-linecap="round" stroke-linejoin="round" stroke-width=".31"/><path d="m17.19,131.73l1.81-2.21" fill="none" stroke="#000" stroke-linecap="round" stroke-linejoin="round" stroke-width=".31"/><path d="m16.14,131.73l-1.82-2.23" fill="none" stroke="#000" stroke-linecap="round" stroke-linejoin="round" stroke-width=".31"/><path d="m18.15,131.77l.85-1.08" fill="none" stroke="#000" stroke-linecap="round" stroke-linejoin="round" stroke-width=".31"/><path d="m14.33,130.54l4.23-5.89" fill="none" stroke="#000" stroke-linecap="round" stroke-linejoin="round" stroke-width=".31"/><path d="m14.3,129.32l3.34-4.76" fill="none" stroke="#000" stroke-linecap="round" stroke-linejoin="round" stroke-width=".31"/><path d="m19.01,130.52l-4.17-5.79" fill="none" stroke="#000" stroke-linecap="round" stroke-linejoin="round" stroke-width=".31"/><path d="m19.01,129.25l-3.23-4.61" fill="none" stroke="#000" stroke-linecap="round" stroke-linejoin="round" stroke-width=".31"/><path d="m14.29,127.97l2.39-3.4,1.01-1.23" fill="none" stroke="#000" stroke-linecap="round" stroke-linejoin="round" stroke-width=".31"/><path d="m19.04,127.97l-2.34-3.43-1.02-1.31" fill="none" stroke="#000" stroke-linecap="round" stroke-linejoin="round" stroke-width=".31"/><path d="m14.32,126.68l1.46-2.03" fill="none" stroke="#000" stroke-linecap="round" stroke-linejoin="round" stroke-width=".31"/><path d="m19,126.66l-1.35-2.1" fill="none" stroke="#000" stroke-linecap="round" stroke-linejoin="round" stroke-width=".31"/><path d="m18.12,123.98h-.19s-.27.58-.27.58l.07-.63-.02-.61.41.65Z" fill="#474747" fill-rule="evenodd" stroke="#000" stroke-linecap="round" stroke-linejoin="round" stroke-width=".31"/><path d="m15.37,124.05l.16.02.25.58-.09-.71v-.68s-.32.8-.32.8Z" fill="#474747" fill-rule="evenodd" stroke="#000" stroke-linecap="round" stroke-linejoin="round" stroke-width=".31"/><path d="m16.66,123.3v.58h-.1s-.2.2-.2.2l.34.46.42-.41-.18-.22-.1-.02v-.59s-.18,0-.18,0Z" fill="#474747" fill-rule="evenodd" stroke="#000" stroke-linecap="round" stroke-linejoin="round" stroke-width=".31"/><path d="m16.34,124.12l-.6.06" fill="none" stroke="#000" stroke-linecap="round" stroke-linejoin="round" stroke-width=".31"/><path d="m17.14,124.12l.57.06" fill="none" stroke="#000" stroke-linecap="round" stroke-linejoin="round" stroke-width=".31"/><path d="m15.4,124.03l-.46-.04s-.09.25-.19.36-.42.22-.42.22c0,0,0,.22-.07.35-.08.13-.43.33-.43.33,0,0,.11.44.09.66-.02.23-.21.66-.21.66,0,0,.2.46.2.69s-.19.65-.19.65c0,0,.16.5.16.74s-.13.64-.13.64c0,0,.17.44.16.66s-.2.58-.2.58c0,0,.16.39.16.57,0,.19-.16.49-.16.49l.58.17" fill="none" stroke="#000" stroke-linecap="round" stroke-linejoin="round" stroke-width=".31"/><path d="m13.84,125.26l.44.1" fill="none" stroke="#000" stroke-linecap="round" stroke-linejoin="round" stroke-width=".31"/><path d="m14.84,124.75l-.06,1.26" fill="none" stroke="#000" stroke-linecap="round" stroke-linejoin="round" stroke-width=".31"/><path d="m15.77,124.7l-.06,1.18" fill="none" stroke="#000" stroke-linecap="round" stroke-linejoin="round" stroke-width=".31"/><path d="m17.64,124.62v1.26" fill="none" stroke="#000" stroke-linecap="round" stroke-linejoin="round" stroke-width=".31"/><path d="m18.56,124.69v1.27" fill="none" stroke="#000" stroke-linecap="round" stroke-linejoin="round" stroke-width=".31"/><path d="m15.46,123.3h.39s.06-.47.06-.47l.27-.38.48-.14.34-.05-.39-.29h-.6l-.41.33-.15.55v.46Z" fill="#4d4d4d" fill-rule="evenodd" stroke-width="0"/><path d="m17.18,122.35s-.4-.3-.53-.34c-.16-.05-.33-.08-.49-.05-.15.02-.3.07-.41.16-.11.09-.17.23-.21.36-.05.15-.07.31-.08.47-.02.15-.02.45-.02.45l.38.34" fill="none" stroke="#000" stroke-linecap="round" stroke-linejoin="round" stroke-width=".31"/><path d="m15.84,123.23s0-.29.07-.41c.07-.17.19-.34.35-.43.13-.08.29-.07.44-.07.15,0,.3-.02.44.04.13.05.26.14.35.25.06.08.07.19.1.29.04.15.07.45.07.45" fill="none" stroke="#000" stroke-linecap="round" stroke-linejoin="round" stroke-width=".31"/><path d="m4.88,122.3l-.66.31-.18.73.47.6.87.04.49-.55-.12-.68-.35-.41-.51-.04Z" fill="#1a1a1a" fill-rule="evenodd" stroke-width="0"/><path d="m6.3,124.06l.43-.05,1.05,1.29.02.75.13.63-.16.68.15.75-.1.63.12.56-.16.56.15.66-.07.45.05.66-.53.16.02-6.43-1.08-1.31Z" fill="#474747" fill-rule="evenodd" stroke-width="0"/><path d="m7.38,131.84l-4.77-.03v-6.45l1.39-2.11.56.79.74.05.3-.29.45-.22.23.53,1.09,1.24v6.48Z" fill="#999" fill-rule="evenodd" stroke-width="0"/><path d="m7.35,125.38v6.39H2.65l4.7-6.39-1.06-1.32-.31-.81" fill="none" stroke="#000" stroke-linecap="round" stroke-linejoin="round" stroke-width=".31"/><path d="m7.35,126.85l-3.68,4.89" fill="none" stroke="#000" stroke-linecap="round" stroke-linejoin="round" stroke-width=".31"/><path d="m4.64,131.74l2.71-3.57" fill="none" stroke="#000" stroke-linecap="round" stroke-linejoin="round" stroke-width=".31"/><path d="m5.53,131.73l1.82-2.23" fill="none" stroke="#000" stroke-linecap="round" stroke-linejoin="round" stroke-width=".31"/><path d="m6.5,131.77l.85-1.08" fill="none" stroke="#000" stroke-linecap="round" stroke-linejoin="round" stroke-width=".31"/><path d="m2.66,131.75v-6.41l.93-1.4" fill="none" stroke="#000" stroke-linecap="round" stroke-linejoin="round" stroke-width=".31"/><path d="m7.34,131.77l-4.67-6.4" fill="none" stroke="#000" stroke-linecap="round" stroke-linejoin="round" stroke-width=".31"/><path d="m2.65,126.85l3.68,4.89" fill="none" stroke="#000" stroke-linecap="round" stroke-linejoin="round" stroke-width=".31"/><path d="m5.39,131.74l-2.71-3.57" fill="none" stroke="#000" stroke-linecap="round" stroke-linejoin="round" stroke-width=".31"/><path d="m4.48,131.73l-1.81-2.21" fill="none" stroke="#000" stroke-linecap="round" stroke-linejoin="round" stroke-width=".31"/><path d="m5.53,131.73l1.82-2.23" fill="none" stroke="#000" stroke-linecap="round" stroke-linejoin="round" stroke-width=".31"/><path d="m3.52,131.77l-.85-1.08" fill="none" stroke="#000" stroke-linecap="round" stroke-linejoin="round" stroke-width=".31"/><path d="m7.34,130.54l-4.23-5.89" fill="none" stroke="#000" stroke-linecap="round" stroke-linejoin="round" stroke-width=".31"/><path d="m7.37,129.32l-3.34-4.76" fill="none" stroke="#000" stroke-linecap="round" stroke-linejoin="round" stroke-width=".31"/><path d="m2.66,130.52l4.17-5.79" fill="none" stroke="#000" stroke-linecap="round" stroke-linejoin="round" stroke-width=".31"/><path d="m2.66,129.25l3.23-4.61" fill="none" stroke="#000" stroke-linecap="round" stroke-linejoin="round" stroke-width=".31"/><path d="m7.38,127.97l-2.39-3.4-1.01-1.23" fill="none" stroke="#000" stroke-linecap="round" stroke-linejoin="round" stroke-width=".31"/><path d="m2.63,127.97l2.34-3.43,1.02-1.31" fill="none" stroke="#000" stroke-linecap="round" stroke-linejoin="round" stroke-width=".31"/><path d="m7.35,126.68l-1.46-2.03" fill="none" stroke="#000" stroke-linecap="round" stroke-linejoin="round" stroke-width=".31"/><path d="m2.67,126.66l1.35-2.1" fill="none" stroke="#000" stroke-linecap="round" stroke-linejoin="round" stroke-width=".31"/><path d="m3.55,123.98h.19s.27.58.27.58l-.07-.63.02-.61-.41.65Z" fill="#474747" fill-rule="evenodd" stroke="#000" stroke-linecap="round" stroke-linejoin="round" stroke-width=".31"/><path d="m6.3,124.05l-.16.02-.25.58.09-.71v-.68s.32.8.32.8Z" fill="#474747" fill-rule="evenodd" stroke="#000" stroke-linecap="round" stroke-linejoin="round" stroke-width=".31"/><path d="m5.01,123.3v.58h.1s.2.2.2.2l-.34.46-.42-.41.18-.22.1-.02v-.59s.18,0,.18,0Z" fill="#474747" fill-rule="evenodd" stroke="#000" stroke-linecap="round" stroke-linejoin="round" stroke-width=".31"/><path d="m5.33,124.12l.6.06" fill="none" stroke="#000" stroke-linecap="round" stroke-linejoin="round" stroke-width=".31"/><path d="m4.53,124.12l-.57.06" fill="none" stroke="#000" stroke-linecap="round" stroke-linejoin="round" stroke-width=".31"/><path d="m6.27,124.03l.46-.04s.09.25.19.36.42.22.42.22c0,0,0,.22.07.35.08.13.43.33.43.33,0,0-.11.44-.09.66.02.23.21.66.21.66,0,0-.2.46-.2.69s.19.65.19.65c0,0-.16.5-.16.74s.13.64.13.64c0,0-.17.44-.16.66s.2.58.2.58c0,0-.16.39-.16.57,0,.19.16.49.16.49l-.58.17" fill="none" stroke="#000" stroke-linecap="round" stroke-linejoin="round" stroke-width=".31"/><path d="m7.83,125.26l-.44.1" fill="none" stroke="#000" stroke-linecap="round" stroke-linejoin="round" stroke-width=".31"/><path d="m6.83,124.75l.06,1.26" fill="none" stroke="#000" stroke-linecap="round" stroke-linejoin="round" stroke-width=".31"/><path d="m5.9,124.7l.06,1.18" fill="none" stroke="#000" stroke-linecap="round" stroke-linejoin="round" stroke-width=".31"/><path d="m4.03,124.62v1.26" fill="none" stroke="#000" stroke-linecap="round" stroke-linejoin="round" stroke-width=".31"/><path d="m3.11,124.69v1.27" fill="none" stroke="#000" stroke-linecap="round" stroke-linejoin="round" stroke-width=".31"/><path d="m6.21,123.3h-.39s-.06-.47-.06-.47l-.27-.38-.48-.14-.34-.05.39-.29h.6l.41.33.15.55v.46Z" fill="#4d4d4d" fill-rule="evenodd" stroke-width="0"/><path d="m4.49,122.35s.4-.3.53-.34c.16-.05.33-.08.49-.05.15.02.3.07.41.16.11.09.17.23.21.36.05.15.07.31.08.47.02.15.02.45.02.45l-.38.34" fill="none" stroke="#000" stroke-linecap="round" stroke-linejoin="round" stroke-width=".31"/><path d="m5.83,123.23s0-.29-.07-.41c-.07-.17-.19-.34-.35-.43-.13-.08-.29-.07-.44-.07-.15,0-.3-.02-.44.04-.13.05-.26.14-.35.25-.06.08-.07.19-.1.29-.04.15-.07.45-.07.45" fill="none" stroke="#000" stroke-linecap="round" stroke-linejoin="round" stroke-width=".31"/></svg>