<?xml version="1.0" encoding="UTF-8"?><svg id="Layer_1" xmlns="http://www.w3.org/2000/svg" xmlns:xlink="http://www.w3.org/1999/xlink" viewBox="0 0 8.93 371.75"><defs><linearGradient id="linear-gradient" x1="2799.9" y1="-1925.57" x2="2808.63" y2="-1925.57" gradientTransform="translate(-635.12 -213.15) scale(.23 -.28)" gradientUnits="userSpaceOnUse"><stop offset="0" stop-color="#000"/><stop offset="1" stop-color="#000" stop-opacity="0"/></linearGradient><linearGradient id="linear-gradient-2" x1="-3540.17" y1="-1926.43" x2="-3531.43" y2="-1926.43" gradientTransform="translate(-786.41 -213.25) rotate(-180) scale(.22 .28)" gradientUnits="userSpaceOnUse"><stop offset="0" stop-color="#000"/><stop offset="1" stop-color="#000" stop-opacity="0"/></linearGradient></defs><rect x=".2" y="284.51" width="8.47" height="73.34" fill="#f7f7f7" stroke-width="0"/><rect x=".47" y="284.73" width="4.07" height="72.9" fill="#fff" isolation="isolate" opacity=".03" stroke-width="0"/><rect x="4.48" y="284.72" width="4.01" height="72.87" fill="#fff" isolation="isolate" opacity=".03" stroke-width="0"/><rect x=".23" y="292.92" width="8.49" height="16.13" fill="#4d4d4d" stroke-width="0"/><path d="m.22,284.55h8.48" fill="none" stroke="#000" stroke-width=".4"/><path d="m.22,309.04h8.48" fill="none" stroke="#000" stroke-width=".4"/><path d="m.22,292.89h8.48" fill="none" stroke="#000" stroke-width=".4"/><path d="m4.46,265.37v16.94" fill="none" stroke="#000" stroke-width=".4"/><path d="m6.92,371.6H2.03l.13-.69.19-.75.23-.74.26-.73.29-.72.32-.71.1-.34-.07-.1-.07-.1-.06-.1-.06-.11-.06-.11-.05-.12-.05-.12-.05-.12-.05-.13-.04-.13-.04-.13-.04-.14-.03-.14-.03-.15-.03-.15-.03-.15-.02-.16-.02-.16-.02-.16v-.17s-.03-.17-.03-.17l.08-.09h3.35l.09.07v.17s-.02.17-.02.17l-.02.17-.02.16-.02.16-.02.15-.03.15-.03.15-.03.14-.04.14-.04.13-.04.13-.05.13-.05.12-.05.12-.05.12-.06.11-.06.11-.06.11-.07.1-.07.1.06.29.33.7.3.72.26.73.23.74.19.75.16.76h0Z" fill="#333" stroke="#000" stroke-width=".4"/><path d="m.72,282.31h7.48v-7.68l-.75-3.68-2.23-5.06c-.17-.42-.65-.63-1.07-.46-.21.08-.38.25-.46.46l-2.23,5.06-.75,3.68v7.68Z" fill="none" stroke="#000" stroke-width=".4"/><path d="m8.2,282.31l.5,2.25v73.23l-3.38,2.98c-.51.36-1.19.36-1.71,0l-3.38-2.98v-73.23l.5-2.25" fill="none" stroke="#000" stroke-width=".4"/><path d="m8.7,357.8H.23" fill="none" stroke="#000" stroke-width=".4"/><path d="m4.46,361v2.93" fill="none" stroke="#000" stroke-width=".4"/><path d="m.22,357.8l2.55,6.17" fill="none" stroke="#000" stroke-width=".4"/><path d="m8.7,357.8l-2.55,6.17" fill="none" stroke="#000" stroke-width=".4"/><path d="m4.68,273.88c0-4.52.02-8.22.05-8.22.17,0,.4.45,1.41,2.73l1.13,2.55.36,1.75.36,1.75v7.66s-3.31,0-3.31,0v-8.22h0Z" fill="#f2f2f2" stroke-width="0"/><path d="m.93,278.35v-3.78l.72-3.56,1.13-2.56c.62-1.41,1.16-2.6,1.19-2.64.07-.08.21-.16.27-.16.02,0,.03,2.51.03,8.23v8.23H.93v-3.78h0Z" fill="#f2f2f2" stroke-width="0"/><path d="m.48,284.31s.09-.45.2-.93l.19-.88,7.17-.02.02.07c.06.26.39,1.76.39,1.78,0,.01-1.79.03-3.98.03-3.77,0-3.98,0-3.98-.05h0Z" fill="#f2f2f2" stroke-width="0"/><path d="m3.98,360.9c-.27-.1-.25-.08-1.9-1.59l-1.56-1.42h1.96c1.08-.02,2.84-.02,3.91-.01h1.95s-1.59,1.46-1.59,1.46c-1.09.99-1.66,1.48-1.81,1.54-.26.1-.7.11-.94.02h0Z" fill="#efefef" stroke-width="0"/><rect x=".4" y="284.73" width="4.1" height="72.89" fill="url(#linear-gradient)" isolation="isolate" opacity=".03" stroke-width="0"/><rect x="4.44" y="284.72" width="4.04" height="72.86" fill="url(#linear-gradient-2)" isolation="isolate" opacity=".03" stroke-width="0"/><path d="m4.95,324.35h-2l-.07.06v1.78h.55v-.67l.05-.05h1.47c.37,0,.54-.1.54-.36v-.41c0-.26-.17-.36-.54-.36m0,.66c0,.12-.08.15-.25.15h-1.21l-.06-.06v-.38l.05-.05h1.21c.17,0,.25.02.25.15v.2h0Z" fill="#005288" stroke-width="0"/><polyline points="3.8 328.39 4.27 329.09 4.25 329.15 3.19 329.15 2.92 329.49 4.49 329.49 4.6 329.55 4.84 329.89 5.48 329.89 4.09 328.03" fill="#005288" stroke-width="0"/><polyline points="3.5 337.65 3.5 337.16 3.56 337.11 4.62 337.11 4.62 336.79 2.94 336.79 2.94 338.01 5.42 338.01 5.42 337.7 3.56 337.7" fill="#005288" stroke-width="0"/><rect x="2.94" y="336.18" width="2.5" height=".35" fill="#005288" stroke-width="0"/><path d="m3.49,332.35h2.02c-.03-.26-.19-.33-.59-.33h-1.44c-.46,0-.6.09-.6.43v.97c0,.34.15.43.6.43h1.44c.41,0,.57-.08.58-.34h-2l-.06-.06v-1.07" fill="#005288" stroke-width="0"/><path d="m4.93,320.84h-1.47l-.04-.05v-.31l.04-.03h1.98l.03-.07c-.07-.17-.24-.25-.57-.25h-1.37c-.45,0-.6.09-.6.43v.2c0,.34.15.43.6.43h1.46l.05.04v.33l-.04.05h-1.67s-.44,0-.44,0c0,0-.05.03-.05.04.04.24.2.31.59.31h1.5c.45,0,.6-.09.6-.43v-.25c0-.34-.15-.43-.6-.43" fill="#005288" stroke-width="0"/><path d="m3.52,340.43h-.82l-.04.08.91.67c.17-.1.36-.2.57-.3" fill="#005288" stroke-width="0"/><path d="m4.26,341.68l.8.59h.83l.03-.08-1.2-.88c-.16.12-.32.24-.47.37" fill="#005288" stroke-width="0"/><path d="m3.4,342.27h-.74l-.06-.1c.51-.49,2.82-2.33,5.83-2.56,0,0-2.63.29-5.02,2.66" fill="#005288" stroke-width="0"/></svg>