<?xml version="1.0" encoding="UTF-8"?><svg id="Layer_1" xmlns="http://www.w3.org/2000/svg" xmlns:xlink="http://www.w3.org/1999/xlink" viewBox="0 0 26.37 371.75"><defs><linearGradient id="linear-gradient" x1="655.84" y1="253.68" x2="664.58" y2="253.68" gradientTransform="translate(-328.58 495.39) scale(.51 -1.11)" gradientUnits="userSpaceOnUse"><stop offset="0" stop-color="#000"/><stop offset="1" stop-color="#000" stop-opacity="0"/></linearGradient><linearGradient id="linear-gradient-2" x1="-2161.21" y1="253.68" x2="-2152.47" y2="253.68" gradientTransform="translate(-1071.05 495.25) rotate(-180) scale(.5 1.11)" gradientUnits="userSpaceOnUse"><stop offset="0" stop-color="#000"/><stop offset="1" stop-color="#000" stop-opacity="0"/></linearGradient><linearGradient id="linear-gradient-3" x1="-208.97" y1="278.29" x2="-194.85" y2="278.29" gradientTransform="translate(205.86 309.88) scale(1 -1)" gradientUnits="userSpaceOnUse"><stop offset="0" stop-color="#e6e6e6"/><stop offset="1" stop-color="#f9f9f9"/></linearGradient><linearGradient id="linear-gradient-4" x1="-208.97" y1="243.55" x2="-194.85" y2="243.55" gradientTransform="translate(205.86 309.88) scale(1 -1)" gradientUnits="userSpaceOnUse"><stop offset="0" stop-color="#e6e6e6"/><stop offset="1" stop-color="#f9f9f9"/></linearGradient><linearGradient id="linear-gradient-5" x1="-1641.42" y1="278.29" x2="-1623.94" y2="278.29" gradientTransform="translate(-1611.01 309.88) rotate(-180)" gradientUnits="userSpaceOnUse"><stop offset="0" stop-color="#e6e6e6"/><stop offset="1" stop-color="#f9f9f9"/></linearGradient><linearGradient id="linear-gradient-6" x1="-1641.42" y1="243.55" x2="-1623.94" y2="243.55" gradientTransform="translate(-1611.01 309.88) rotate(-180)" gradientUnits="userSpaceOnUse"><stop offset="0" stop-color="#e6e6e6"/><stop offset="1" stop-color="#f9f9f9"/></linearGradient><linearGradient id="linear-gradient-7" x1="655.84" y1="253.68" x2="664.58" y2="253.68" gradientTransform="translate(-328.58 495.39) scale(.51 -1.11)" gradientUnits="userSpaceOnUse"><stop offset="0" stop-color="#000"/><stop offset="1" stop-color="#000" stop-opacity="0"/></linearGradient><linearGradient id="linear-gradient-8" x1="-2161.21" y1="253.68" x2="-2152.47" y2="253.68" gradientTransform="translate(-1071.05 495.25) rotate(-180) scale(.5 1.11)" gradientUnits="userSpaceOnUse"><stop offset="0" stop-color="#000"/><stop offset="1" stop-color="#000" stop-opacity="0"/></linearGradient><linearGradient id="linear-gradient-9" x1="-208.97" y1="278.29" x2="-194.85" y2="278.29" gradientTransform="translate(205.86 309.88) scale(1 -1)" gradientUnits="userSpaceOnUse"><stop offset="0" stop-color="#e6e6e6"/><stop offset="1" stop-color="#f9f9f9"/></linearGradient><linearGradient id="linear-gradient-10" x1="-208.97" y1="243.55" x2="-194.85" y2="243.55" gradientTransform="translate(205.86 309.88) scale(1 -1)" gradientUnits="userSpaceOnUse"><stop offset="0" stop-color="#e6e6e6"/><stop offset="1" stop-color="#f9f9f9"/></linearGradient><linearGradient id="linear-gradient-11" x1="-1641.42" y1="278.29" x2="-1623.94" y2="278.29" gradientTransform="translate(-1611.01 309.88) rotate(-180)" gradientUnits="userSpaceOnUse"><stop offset="0" stop-color="#e6e6e6"/><stop offset="1" stop-color="#f9f9f9"/></linearGradient><linearGradient id="linear-gradient-12" x1="-1641.42" y1="243.55" x2="-1623.94" y2="243.55" gradientTransform="translate(-1611.01 309.88) rotate(-180)" gradientUnits="userSpaceOnUse"><stop offset="0" stop-color="#e6e6e6"/><stop offset="1" stop-color="#f9f9f9"/></linearGradient></defs><rect x="3.84" y="69.73" width="18.67" height="290.59" fill="#fff" stroke-width="0"/><rect x="4.06" y="69.91" width="9.24" height="290.27" fill="url(#linear-gradient)" isolation="isolate" opacity=".03" stroke-width="0"/><rect x="13.18" y="69.77" width="9.1" height="290.27" fill="url(#linear-gradient-2)" isolation="isolate" opacity=".03" stroke-width="0"/><rect x="22.54" y="360.7" width=".48" height=".48" fill="#f7f7f7" stroke-width="0"/><rect x="3.29" y="360.7" width=".48" height=".45" fill="#f7f7f7" stroke-width="0"/><path d="m4.71,365.2c-.03-.05-.08-.19-.08-.23v-.03h3.39v.06c.04.12.04.14.01.19l-.03.04h-3.27l-.02-.04h0Z" fill="#f7f7f7" stroke-width="0"/><path d="m8.5,365.2c-.03-.06-.08-.2-.08-.22,0-.01.73-.01,1.75-.01h1.75v.03c-.02.07-.05.15-.08.2l-.03.06h-3.27l-.03-.06h0Z" fill="#f7f7f7" stroke-width="0"/><path d="m12.21,365.3s.01-.04.03-.08c.02-.06.05-.16.07-.26v-.04h.88c.83,0,.88,0,.88.02,0,.01,0,.04.01.07,0,.03.02.1.05.16.02.06.04.12.04.12h-.98c-.54,0-.98,0-.98-.01h0Z" fill="#f7f7f7" stroke-width="0"/><path d="m14.54,365.2c-.03-.06-.08-.2-.08-.22,0-.01.73-.01,1.75-.01,1.3,0,1.75,0,1.75.01,0,.03-.05.16-.08.22l-.03.06h-3.27l-.03-.06h0Z" fill="#f7f7f7" stroke-width="0"/><path d="m18.35,365.2c-.03-.05-.04-.08-.02-.17.01-.05.02-.09.02-.09,0,0,.77-.01,1.7-.01h1.7v.03c-.02.06-.06.16-.08.21l-.03.05h-3.27l-.02-.04h0Z" fill="#f7f7f7" stroke-width="0"/><path d="m3.87,360.3l18.57.03v3.27s-.69,1.75-.69,1.75l-17.17-.05-.7-1.75-.02-3.25Z" fill="#101010" stroke-width="0"/><path d="m3.86,360.3h18.65" fill="none" stroke="#000" stroke-width=".4"/><path d="m4.75,348.09l.05-.14.08-.16.11-.16.14-.16.16-.15.18-.14.2-.11.21-.08.23-.04h.23s.24.05.24.05l.24.11.4,1.06,1.27,3.5.42,1.17.42,1.17,1.27,3.5.42,1.17.85,2.33.11.28.02.03.02.03.02.03.02.03.03.03.03.02.03.02.03.02.03.02.03.02h.03s.03.02.03.02l.07.02h.13s.18,0,.18,0l.05-.02.05-.05.05-.07.05-.09.05-.11.04-.13.04-.14.04-.15.03-.16.03-.16.02-.16-.19-1.82-.45-3.82-.45-3.82-.9-7.63-2.69-22.89-.45-3.82-.29-2.58v-.5s0-.25,0-.25l-.02-2.01v-.31s-.05-.49-.05-.49l-.04-.44-.04-.4-.04-.36-.04-.32-.04-.29-.04-.26-.04-.23-.04-.21-.04-.19-.04-.17-.04-.16-.05-.14-.05-.13-.05-.12-.05-.11-.05-.1-.05-.09-.05-.08-.05-.07-.05-.07-.05-.06-.05-.05-.05-.04-.05-.04-.05-.03-.06-.03-.06-.02h-.06s-.06-.02-.06-.02h-.06s-.06,0-.06,0h-.06s-.06.03-.06.03l-.06.02-.06.03-.06.03-.06.04-.06.05-.06.05-.07.06-.07.07-.07.08-.07.08-.07.09-.07.1-.07.11-.07.12-.07.13-.08.14-.08.14-.08.15-.08.16-.08.16-.08.17-.07.17-.07.17-.07.17-.07.17-.07.17-.06.17-.06.17-.06.17-.05.17-.05.17-.05.17-.04.17-.04.17-.03.17-.03.17" fill="#f2f2f2" stroke="#000" stroke-width=".4"/><path d="m4.75,348.09l-.04.22-.04.22-.04.22-.04.23-.04.23-.04.24-.04.24-.03.24-.03.25-.03.25-.03.25-.03.25-.03.26-.03.26-.03.26-.03.26-.03.27-.03.27-.03.27-.03.27-.03.27-.03.28-.06.55-.06.56-.06.56-.12,1.13-.06.56-.06.56-.06.56-.06.55-.03.28-.03.27-.03.27-.03.27-.03.27-.03.27-.03.26-.03.26-.03.26-.03.26v.13s-.02.05-.02.05h0s0,.01,0,.01v.02s-.01.01-.01.01h0s-.02.04-.02.04h-.07l-.03-.02-.07-.04-.06-.04-.06-.04-.06-.04-.06-.04-.06-.04-.05-.04-.05-.04-.05-.04-.05-.04-.05-.04-.05-.04-.04-.04-.04-.04-.04-.04-.04-.04-.04-.04-.07-.09-.06-.09-.06-.09-.05-.09-.05-.09-.05-.09-.04-.09-.04-.09-.03-.09-.03-.09-.03-.09-.03-.09-.02-.09-.02-.09-.02-.09-.02-.09v-.05s-.01-.02-.01-.02h0s0-.01,0-.01h0s0,0,0,0h0s0-.07,0-.07v-.11s.24-7.21.24-7.21l.48-14.43.72-21.64.06-1.8.02-.45v-.03s0,0,0,0h0s0,0,0,0h0s0,0,0,0h0s0-.02,0-.02v-.05s.02-.09.02-.09v-.09s.03-.09.03-.09v-.09s.03-.08.03-.08v-.08s.03-.08.03-.08v-.08s.03-.08.03-.08l.02-.08.03-.15.03-.14.03-.14.03-.14.03-.14.04-.14.04-.14.04-.14.04-.14.04-.14.05-.14.05-.15.05-.15.03-.08.03-.08.03-.08.03-.08.03-.08.03-.08.04-.08.04-.08.04-.08.04-.09.04-.09.04-.09.05-.09.05-.09" fill="#f2f2f2" stroke="#000" stroke-linecap="round" stroke-width=".4"/><path d="m21.62,348.09l-.05-.14-.08-.16-.11-.16-.14-.16-.16-.15-.18-.14-.2-.11-.21-.08-.23-.04h-.23s-.24.05-.24.05l-.24.11-.4,1.06-1.27,3.5-.42,1.17-1.69,4.66-.42,1.17-.85,2.33-.11.28-.02.03-.02.03-.02.03-.02.03-.03.03-.03.02-.03.02-.03.02-.03.02-.03.02h-.03s-.03.02-.03.02l-.07.02h-.13s-.18,0-.18,0l-.05-.02-.05-.05-.05-.07-.05-.09-.05-.11-.04-.13-.04-.14-.04-.15-.03-.16-.03-.16-.02-.16.19-1.82.45-3.82.45-3.82.45-3.82.9-7.63.9-7.63.45-3.82.9-7.63.45-3.82.29-2.58v-.5s0-.25,0-.25l.02-2.01v-.31s.05-.49.05-.49l.04-.44.04-.4.04-.36.04-.32.04-.29.04-.26.04-.23.04-.21.04-.19.04-.17.04-.16.05-.14.05-.13.05-.12.05-.11.05-.1.05-.09.05-.08.05-.07.05-.07.05-.06.05-.05.05-.04.05-.04.05-.03.06-.03.06-.02h.06s.06-.02.06-.02h.06s.06,0,.06,0h.06s.06.03.06.03l.06.02.06.03.06.03.06.04.06.05.06.05.07.06.07.07.07.08.07.08.07.09.07.1.07.11.07.12.07.13.08.14.08.14.08.15.08.16.08.16.08.17.07.17.07.17.07.17.07.17.07.17.06.17.06.17.06.17.05.17.05.17.05.17.04.17.04.17.03.17.03.17" fill="#f2f2f2" stroke="#000" stroke-width=".4"/><path d="m21.62,348.09l.04.22.04.22.04.22.04.23.04.23.04.24.04.24.03.24.03.25.03.25.03.25.03.25.03.26.03.26.03.26.03.26.03.27.03.27.03.27.03.27.03.27.03.28.06.55.06.56.06.56.12,1.13.06.56.06.56.06.56.06.55.03.28.03.27.03.27.03.27.03.27.03.27.03.26.03.26.03.26.03.26v.13s.02.05.02.05h0s0,.01,0,.01v.02s.02.01.02.01h0s.02.04.02.04h.07l.03-.02.07-.04.06-.04.06-.04.06-.04.06-.04.06-.04.05-.04.05-.04.05-.04.05-.04.05-.04.04-.04.04-.04.04-.04.04-.04.04-.04.04-.04.07-.09.06-.09.06-.09.05-.09.05-.09.05-.09.04-.09.04-.09.03-.09.03-.09.03-.09.03-.09.02-.09.02-.09.02-.09.02-.09v-.05s.01-.02.01-.02h0s0-.01,0-.01h0s0,0,0,0h0s0-.07,0-.07v-.11s-.24-7.21-.24-7.21l-.48-14.43-.48-14.43-.24-7.21-.06-1.8-.02-.45v-.03s0,0,0,0h0s0,0,0,0h0s0,0,0,0h0s0-.02,0-.02v-.05s-.02-.09-.02-.09v-.09s-.03-.09-.03-.09v-.09s-.03-.08-.03-.08v-.08s-.03-.08-.03-.08v-.08s-.03-.08-.03-.08l-.02-.08-.03-.15-.03-.14-.03-.14-.03-.14-.03-.14-.04-.14-.04-.14-.04-.14-.04-.14-.04-.14-.05-.14-.05-.15-.05-.15-.03-.08-.03-.08-.03-.08-.03-.08-.03-.08-.03-.08-.04-.08-.04-.08-.04-.08-.04-.09-.04-.09-.04-.09-.05-.09-.05-.09" fill="#f2f2f2" stroke="#000" stroke-linecap="round" stroke-width=".4"/><path d="m8.15,368c-.19-.48-.45-1.03-.7-1.53l-.1-.19.04-.08c.07-.13.23-.42.33-.58l.04-.06h.2c.11,0,.33,0,.49,0h.29l.04.06c.08.14.3.52.35.62l.02.03-.05.1c-.28.53-.55,1.13-.77,1.69l-.04.09h-.06l-.06-.16h0Z" fill="#333" stroke-width="0"/><path d="m17.96,367.8c-.19-.48-.45-1.03-.7-1.53l-.1-.19.04-.08c.07-.13.23-.42.33-.58l.04-.06h.2c.11,0,.33,0,.49,0h.29l.04.06c.08.14.3.52.35.62l.02.03-.05.1c-.28.53-.55,1.13-.77,1.69l-.04.09h-.06l-.06-.16h0Z" fill="#333" stroke-width="0"/><path d="m12.08,367.3c.08-.16.23-.43.33-.62l.19-.33-.22-.39-.22-.39h-.38c-.32,0-.38-.01-.38-.04,0-.03-.03-.04-.16-.03-.15.01-.17.01-.22.1l-.05.09.28.54c.15.3.36.72.46.94.1.22.19.4.2.4,0,0,.08-.13.16-.28h0Z" fill="#333" stroke-width="0"/><path d="m14.35,367.3c-.08-.16-.23-.43-.33-.62l-.19-.33.22-.39.22-.39h.38c.32,0,.38-.01.38-.04,0-.03.03-.04.16-.03.15.01.17.01.22.1l.05.09-.28.54c-.15.3-.36.72-.46.94-.1.22-.19.4-.2.4,0,0-.08-.13-.16-.28h0Z" fill="#333" stroke-width="0"/><path d="m10.84,371.5s.08-.38.09-.42c.17-2.25.35-1.78,1.06-3.15,0-.07.48-1.05.75-1.52l.14-.24v-.63h.67v.64l.14.25c.15.27.57,1.08.66,1.3l.06.13c.88,2.4.22.29,1.13,3.39.02.1.04.2.04.22,0,.03,0,.03-2.38.03-1.31,0-2.38,0-2.38-.01h0Z" fill="#333" stroke-width="0"/><path d="m3.86,116.01h18.65" fill="none" stroke="#000" stroke-width=".4"/><path d="m16.72,365.4h-1.02" fill="none" stroke="#000" stroke-width=".4"/><path d="m5.81,370.7h4.91" fill="none" stroke="#000" stroke-width=".4"/><path d="m7.76,365.4h1.02" fill="none" stroke="#000" stroke-width=".4"/><path d="m9.21,366.2c-.14-.28-.29-.56-.44-.83" fill="none" stroke="#000" stroke-width=".4"/><path d="m7.76,365.4c-.15.27-.3.55-.44.83" fill="none" stroke="#000" stroke-width=".4"/><path d="m11.14,365.4h.76" fill="none" stroke="#000" stroke-width=".4"/><path d="m12.65,366.3c-.14-.29-.29-.57-.45-.85" fill="none" stroke="#000" stroke-width=".4"/><path d="m11.14,365.4c-.08.14-.16.28-.23.42" fill="none" stroke="#000" stroke-width=".4"/><path d="m20.56,370.7h-4.91" fill="none" stroke="#000" stroke-width=".4"/><path d="m18.61,365.4h-1.02" fill="none" stroke="#000" stroke-width=".4"/><path d="m17.6,365.4c-.15.27-.3.55-.44.83" fill="none" stroke="#000" stroke-width=".4"/><path d="m19.05,366.2c-.14-.28-.29-.56-.44-.83" fill="none" stroke="#000" stroke-width=".4"/><path d="m15.23,365.4h-.76" fill="none" stroke="#000" stroke-width=".4"/><path d="m11.9,365.4c.15-.2.23-.44.22-.68" fill="none" stroke="#000" stroke-width=".4"/><path d="m8.42,365.4h3.48" fill="none" stroke="#000" stroke-width=".4"/><path d="m14.25,364.7c-.01.25.07.49.22.68" fill="none" stroke="#000" stroke-width=".4"/><path d="m17.95,365.4c.15-.2.23-.44.22-.68" fill="none" stroke="#000" stroke-width=".4"/><path d="m12.2,365.5h1.97" fill="none" stroke="#000" stroke-width=".4"/><path d="m11.39,365.4s.04.05.05.08" fill="none" stroke="#000" stroke-width=".4"/><path d="m14.92,365.5s.04-.05.05-.08" fill="none" stroke="#000" stroke-width=".4"/><path d="m11.45,365.5h3.48" fill="none" stroke="#000" stroke-width=".4"/><path d="m14.22,365.5c-.16.28-.31.56-.45.85" fill="none" stroke="#000" stroke-width=".4"/><path d="m14.22,365.5c-.16.28-.31.56-.45.85" fill="none" stroke="#000" stroke-width=".4"/><path d="m15.49,365.8c-.07-.13-.14-.25-.21-.38" fill="none" stroke="#000" stroke-width=".4"/><path d="m22.51,69.52v240.87" fill="none" stroke="#000" stroke-width=".4"/><path d="m10.93,370.7c-.07.28-.12.55-.18.83h4.91c-.05-.28-.11-.56-.18-.83" fill="none" stroke="#000" stroke-width=".4"/><path d="m11.85,367.9c.25-.58.53-1.16.85-1.71v-.75" fill="none" stroke="#000" stroke-width=".4"/><path d="m13.72,365.5v.75c.3.53.58,1.08.82,1.65" fill="none" stroke="#000" stroke-width=".4"/><path d="m8.26,368.6c-.36-1.09-.82-2.14-1.39-3.14h-1.02c-.94,1.65-1.6,3.45-1.95,5.32h4.91" fill="#333" stroke="#000" stroke-width=".4"/><path d="m18.11,365.1c.04.11.09.21.16.3h3.48c.15-.2.23-.44.22-.68" fill="none" stroke="#000" stroke-width=".4"/><path d="m17.55,370.7h4.91c-.35-1.87-1.01-3.66-1.95-5.32h-1.02c-.57,1-1.03,2.05-1.39,3.14" fill="#333" stroke="#000" stroke-width=".4"/><path d="m9.65,365.4c-.94,1.65-1.6,3.45-1.95,5.32h4.91c-.35-1.87-1.01-3.66-1.95-5.32h-1.02Z" fill="#333" stroke="#000" stroke-width=".4"/><path d="m.42,60.98c-.06-1-.09-9.85-.05-19.67.07-19.4.06-19.16,1.12-24.12,1.21-5.66,3.52-10.11,7.44-14.31,1.55-1.66,2.79-2.49,3.73-2.49h.4s0,62.4,0,62.4H.54l-.12-1.81h0Z" fill="url(#linear-gradient-3)" stroke-width="0"/><path d="m3.91,69.29c-.09-.12-.75-1.29-1.46-2.61-.71-1.31-1.44-2.65-1.63-2.96l-.34-.57h12.58v6.36h-4.49c-3.38,0-4.53-.05-4.66-.22h0Z" fill="url(#linear-gradient-4)" stroke-width="0"/><path d="m26.01,60.98c.06-1,.09-9.85.05-19.67-.07-19.4-.06-19.16-1.12-24.12-1.21-5.66-3.52-10.11-7.44-14.31-1.55-1.66-2.79-2.49-3.73-2.49h-.4s0,62.4,0,62.4h12.52l.12-1.81h0Z" fill="url(#linear-gradient-5)" stroke-width="0"/><path d="m22.52,69.29c.09-.12.75-1.29,1.46-2.61.71-1.31,1.44-2.65,1.63-2.96l.34-.57h-12.58v6.36h4.49c3.38,0,4.53-.05,4.66-.22h0Z" fill="url(#linear-gradient-6)" stroke-width="0"/><path d="m3.86,69.62h18.65" fill="none" stroke="#000" stroke-width=".4"/><path d="m.22,62.94h25.92" fill="none" stroke="#000" stroke-width=".4"/><path d="m3.86,69.62l-.39-.71-1.56-2.86-.39-.71-.39-.71-.78-1.43-.14-2.86V25.1s.06-.53.06-.53l.05-.53.05-.53.05-.53.06-.53.06-.53.06-.53.07-.53.07-.53.08-.53.08-.53.09-.53.1-.53.1-.53.11-.53.12-.53.12-.52.13-.52.14-.52.15-.52.15-.51.16-.51.17-.5.18-.5.19-.5.2-.49.21-.49.22-.48.23-.48.23-.47.24-.47.25-.46.26-.46.27-.45.28-.45.29-.44.3-.44.31-.44.32-.43.32-.43.33-.43.34-.43.35-.42.36-.42.37-.42.37-.42.38-.41.4-.39.41-.37.42-.34.44-.29.46-.24.49-.18.51-.12.54-.07h.57s.54.06.54.06l.51.12.49.18.46.24.44.29.43.34.41.37.4.39.38.41.37.42.37.42.36.42.35.42.34.43.33.43.32.43.32.43.31.44.3.44.29.44.28.45.27.45.26.46.25.46.24.47.24.47.23.48.22.48.21.49.2.49.19.5.18.5.17.5.16.51.15.51.15.52.14.52.13.52.12.52.12.53.11.53.1.53.09.53.09.53.08.53.07.53.07.53.06.53.06.53.05.53.05.53.05.53.05.53.04.53.04.53v2.99s.01,32.24.01,32.24l-.14,2.86-.78,1.43-1.56,2.86-.39.71-.78,1.43" fill="none" stroke="#000" stroke-width=".4"/><path d="m13.18,69.62V.22" fill="none" stroke="#000" stroke-width=".4"/><path d="m7.69,310.97l-1.23-1.31" fill="none" stroke="#000" stroke-width=".4"/><path d="m6.46,309.66h-2.25" fill="none" stroke="#000" stroke-width=".4"/><path d="m3.94,340.02l.17-24.12" fill="none" stroke="#000" stroke-width=".4"/><path d="m4.11,315.9l2.16-2.93" fill="none" stroke="#000" stroke-width=".4"/><path d="m4.11,315.9l-1.03-2.67" fill="none" stroke="#000" stroke-width=".4"/><path d="m6.27,312.98l.18-3.32" fill="none" stroke="#000" stroke-linecap="round" stroke-width=".4"/><path d="m3.86,310.39V69.52" fill="none" stroke="#000" stroke-width=".4"/><path d="m3.25,360.7h.61" fill="none" stroke="#000" stroke-width=".4"/><path d="m3.17,361.3h.69" fill="none" stroke="#000" stroke-width=".4"/><path d="m22.51,354.91v8.31c-.02.54-.19,1.06-.49,1.51H4.36c-.3-.45-.46-.97-.49-1.51v-8.31" fill="none" stroke="#000" stroke-width=".4"/><path d="m12.88,361.3h.61" fill="none" stroke="#000" stroke-width=".4"/><path d="m13.08,360.7h.22" fill="none" stroke="#000" stroke-width=".4"/><path d="m1.93,360.6l.36-4.51.12-1.5.59-7.51.12-1.5.36-4.51.05-.48.03-.12.04-.1.04-.09.05-.07.05-.06.06-.04.06-.03.06-.02h.06s.07-.01.07-.01h.07s.07.03.07.03l.06.03.06.03.06.04.06.04.06.05.06.05.06.05.05.06.05.06.05.06.05.06.05.06.04.06.18.44,1.75,4.71.58,1.57,1.75,4.71,1.17,3.14.58,1.57,1.17,3.14.58,1.57" fill="none" stroke="#000" stroke-width=".4"/><path d="m18.68,310.97l1.23-1.31" fill="none" stroke="#000" stroke-width=".4"/><path d="m19.91,309.66h2.25" fill="none" stroke="#000" stroke-width=".4"/><path d="m22.43,340.02l-.17-24.12" fill="none" stroke="#000" stroke-width=".4"/><path d="m22.26,315.9l-2.16-2.93" fill="none" stroke="#000" stroke-width=".4"/><path d="m22.26,315.9l1.03-2.67" fill="none" stroke="#000" stroke-width=".4"/><path d="m20.1,312.98l-.18-3.32" fill="none" stroke="#000" stroke-linecap="round" stroke-width=".4"/><path d="m23.12,360.7h-.61" fill="none" stroke="#000" stroke-width=".4"/><path d="m23.2,361.3h-.69" fill="none" stroke="#000" stroke-width=".4"/><path d="m24.44,360.6l-.12-1.5-.12-1.5-.59-7.51-.12-1.5-.47-6.01-.12-1.5-.05-.48-.03-.12-.04-.1-.04-.09-.05-.07-.05-.06-.06-.04-.06-.03-.06-.02h-.06s-.07-.01-.07-.01h-.07s-.07.03-.07.03l-.06.03-.06.03-.06.04-.06.04-.06.05-.06.05-.06.05-.05.06-.05.06-.05.06-.05.06-.05.06-.04.06-.18.44-.58,1.57-1.17,3.14-.58,1.57-1.75,4.71-1.17,3.14-.58,1.57-1.75,4.71" fill="none" stroke="#000" stroke-width=".4"/><path d="m16.72,365.4c.94,1.65,1.6,3.45,1.95,5.32h-4.91c.35-1.87,1.01-3.66,1.95-5.32" fill="#333" stroke="#000" stroke-width=".4"/><path d="m14.47,365.4h3.48" fill="none" stroke="#000" stroke-width=".4"/><path d="m4.41,364.7c-.01.25.07.49.22.68h3.48c.07-.09.12-.19.16-.3" fill="none" stroke="#000" stroke-width=".4"/><path d="m8.21,364.7c-.01.25.07.49.22.68" fill="none" stroke="#000" stroke-width=".4"/><path d="m3.86,151.7h18.65" fill="none" stroke="#000" stroke-width=".4"/><path d="m14.59,298.3h-3.87l-.14.11v3.44h1.07v-1.29l.1-.09h2.84c.72,0,1.05-.19,1.05-.69v-.79c0-.5-.34-.69-1.05-.69m0,1.27c0,.23-.15.28-.49.28h-2.34l-.11-.11v-.74l.1-.09h2.35c.34,0,.49.05.49.28v.38h0Z" fill="#005288" stroke-width="0"/><polyline points="12.35 306.13 13.27 307.48 13.22 307.61 11.18 307.61 10.66 308.25 13.7 308.25 13.91 308.38 14.38 309.03 15.6 309.03 12.92 305.43" fill="#005288" stroke-width="0"/><polyline points="11.79 324.06 11.79 323.1 11.9 323.01 13.95 323.01 13.95 322.4 10.7 322.4 10.7 324.76 15.49 324.76 15.49 324.15 11.9 324.15" fill="#005288" stroke-width="0"/><rect x="10.7" y="321.21" width="4.84" height=".67" fill="#005288" stroke-width="0"/><path d="m11.76,313.8h3.9c-.06-.5-.37-.63-1.15-.63h-2.79c-.88,0-1.16.17-1.16.84v1.87c0,.67.28.84,1.16.84h2.79c.79,0,1.1-.15,1.12-.66h-3.87l-.11-.11v-2.07" fill="#005288" stroke-width="0"/><path d="m14.55,291.5h-2.84l-.08-.09v-.61l.08-.06h3.83l.05-.13c-.13-.34-.47-.49-1.09-.49h-2.66c-.88,0-1.16.17-1.16.84v.39c0,.67.28.84,1.16.84h2.83l.09.08v.63l-.07.1h-3.24s-.85,0-.85,0c0,0-.1.05-.09.07.07.47.39.6,1.15.6h2.9c.88,0,1.17-.17,1.17-.84v-.49c0-.67-.29-.84-1.17-.84" fill="#005288" stroke-width="0"/><path d="m11.82,329.43h-1.59l-.09.16,1.77,1.29c.34-.19.7-.39,1.1-.58" fill="#005288" stroke-width="0"/><path d="m13.24,331.86l1.56,1.13h1.61l.07-.15-2.32-1.7c-.31.23-.61.47-.91.72" fill="#005288" stroke-width="0"/><path d="m11.58,332.99h-1.44l-.12-.19c.98-.95,5.46-4.5,11.28-4.96,0,0-5.1.57-9.72,5.15" fill="#a7a9ac" stroke-width="0"/><rect x="8.57" y="140.1" width="9.2" height="5.17" fill="#b22234" stroke-width="0"/><path d="m8.57,140.7h9.2m0,.8h-9.2m0,.8h9.2m0,.8h-9.2m0,.8h9.2m0,.8h-9.2" stroke="#fff" stroke-miterlimit="10" stroke-width=".37"/><rect x="8.57" y="140.1" width="3.68" height="2.78" fill="#3c3b6e" stroke-width="0"/><path d="m8.88,140.22l.09.29-.23-.18h.28l-.23.18.09-.29Z" fill="#fff" stroke-width="0"/><path id="s" d="m8.88,140.78l.09.29-.23-.18h.28l-.23.18.09-.29Z" fill="#fff" stroke-width="0"/><path id="s-2" d="m8.88,141.34l.09.29-.23-.18h.28l-.23.18.09-.29Z" fill="#fff" stroke-width="0"/><path id="s-3" d="m8.88,141.89l.09.29-.23-.18h.28l-.23.18.09-.29Z" fill="#fff" stroke-width="0"/><path id="s-4" d="m8.88,142.45l.09.29-.23-.18h.28l-.23.18.09-.29Z" fill="#fff" stroke-width="0"/><g id="d"><path id="s-5" d="m9.19,140.5l.09.29-.23-.18h.28l-.23.18.09-.29Z" fill="#fff" stroke-width="0"/><path id="s-6" d="m9.19,141.06l.09.29-.23-.18h.28l-.23.18.09-.29Z" fill="#fff" stroke-width="0"/><path id="s-7" d="m9.19,141.62l.09.29-.23-.18h.28l-.23.18.09-.29Z" fill="#fff" stroke-width="0"/><path id="s-8" d="m9.19,142.17l.09.29-.23-.18h.28l-.23.18.09-.29Z" fill="#fff" stroke-width="0"/></g><g id="a"><g id="c"><g id="d-2"><path id="s-9" d="m9.49,140.22l.09.29-.23-.18h.28l-.23.18.09-.29Z" fill="#fff" stroke-width="0"/><path id="s-10" d="m9.49,140.78l.09.29-.23-.18h.28l-.23.18.09-.29Z" fill="#fff" stroke-width="0"/><path id="s-11" d="m9.49,141.34l.09.29-.23-.18h.28l-.23.18.09-.29Z" fill="#fff" stroke-width="0"/><path id="s-12" d="m9.49,141.89l.09.29-.23-.18h.28l-.23.18.09-.29Z" fill="#fff" stroke-width="0"/></g><path id="s-13" d="m9.49,142.45l.09.29-.23-.18h.28l-.23.18.09-.29Z" fill="#fff" stroke-width="0"/></g><g id="d-3"><path id="s-14" d="m9.8,140.5l.09.29-.23-.18h.28l-.23.18.09-.29Z" fill="#fff" stroke-width="0"/><path id="s-15" d="m9.8,141.06l.09.29-.23-.18h.28l-.23.18.09-.29Z" fill="#fff" stroke-width="0"/><path id="s-16" d="m9.8,141.62l.09.29-.23-.18h.28l-.23.18.09-.29Z" fill="#fff" stroke-width="0"/><path id="s-17" d="m9.8,142.17l.09.29-.23-.18h.28l-.23.18.09-.29Z" fill="#fff" stroke-width="0"/></g></g><g id="e"><g id="a-2"><g id="c-2"><g id="d-4"><path id="s-18" d="m10.11,140.22l.09.29-.23-.18h.28l-.23.18.09-.29Z" fill="#fff" stroke-width="0"/><path id="s-19" d="m10.11,140.78l.09.29-.23-.18h.28l-.23.18.09-.29Z" fill="#fff" stroke-width="0"/><path id="s-20" d="m10.11,141.34l.09.29-.23-.18h.28l-.23.18.09-.29Z" fill="#fff" stroke-width="0"/><path id="s-21" d="m10.11,141.89l.09.29-.23-.18h.28l-.23.18.09-.29Z" fill="#fff" stroke-width="0"/></g><path id="s-22" d="m10.11,142.45l.09.29-.23-.18h.28l-.23.18.09-.29Z" fill="#fff" stroke-width="0"/></g><g id="d-5"><path id="s-23" d="m10.41,140.5l.09.29-.23-.18h.28l-.23.18.09-.29Z" fill="#fff" stroke-width="0"/><path id="s-24" d="m10.41,141.06l.09.29-.23-.18h.28l-.23.18.09-.29Z" fill="#fff" stroke-width="0"/><path id="s-25" d="m10.41,141.62l.09.29-.23-.18h.28l-.23.18.09-.29Z" fill="#fff" stroke-width="0"/><path id="s-26" d="m10.41,142.17l.09.29-.23-.18h.28l-.23.18.09-.29Z" fill="#fff" stroke-width="0"/></g></g><g id="a-3"><g id="c-3"><g id="d-6"><path id="s-27" d="m10.72,140.22l.09.29-.23-.18h.28l-.23.18.09-.29Z" fill="#fff" stroke-width="0"/><path id="s-28" d="m10.72,140.78l.09.29-.23-.18h.28l-.23.18.09-.29Z" fill="#fff" stroke-width="0"/><path id="s-29" d="m10.72,141.34l.09.29-.23-.18h.28l-.23.18.09-.29Z" fill="#fff" stroke-width="0"/><path id="s-30" d="m10.72,141.89l.09.29-.23-.18h.28l-.23.18.09-.29Z" fill="#fff" stroke-width="0"/></g><path id="s-31" d="m10.72,142.45l.09.29-.23-.18h.28l-.23.18.09-.29Z" fill="#fff" stroke-width="0"/></g><g id="d-7"><path id="s-32" d="m11.03,140.5l.09.29-.23-.18h.28l-.23.18.09-.29Z" fill="#fff" stroke-width="0"/><path id="s-33" d="m11.03,141.06l.09.29-.23-.18h.28l-.23.18.09-.29Z" fill="#fff" stroke-width="0"/><path id="s-34" d="m11.03,141.62l.09.29-.23-.18h.28l-.23.18.09-.29Z" fill="#fff" stroke-width="0"/><path id="s-35" d="m11.03,142.17l.09.29-.23-.18h.28l-.23.18.09-.29Z" fill="#fff" stroke-width="0"/></g></g></g><g id="a-4"><g id="c-4"><g id="d-8"><path id="s-36" d="m11.33,140.22l.09.29-.23-.18h.28l-.23.18.09-.29Z" fill="#fff" stroke-width="0"/><path id="s-37" d="m11.33,140.78l.09.29-.23-.18h.28l-.23.18.09-.29Z" fill="#fff" stroke-width="0"/><path id="s-38" d="m11.33,141.34l.09.29-.23-.18h.28l-.23.18.09-.29Z" fill="#fff" stroke-width="0"/><path id="s-39" d="m11.33,141.89l.09.29-.23-.18h.28l-.23.18.09-.29Z" fill="#fff" stroke-width="0"/></g><path id="s-40" d="m11.33,142.45l.09.29-.23-.18h.28l-.23.18.09-.29Z" fill="#fff" stroke-width="0"/></g><g id="d-9"><path id="s-41" d="m11.64,140.5l.09.29-.23-.18h.28l-.23.18.09-.29Z" fill="#fff" stroke-width="0"/><path id="s-42" d="m11.64,141.06l.09.29-.23-.18h.28l-.23.18.09-.29Z" fill="#fff" stroke-width="0"/><path id="s-43" d="m11.64,141.62l.09.29-.23-.18h.28l-.23.18.09-.29Z" fill="#fff" stroke-width="0"/><path id="s-44" d="m11.64,142.17l.09.29-.23-.18h.28l-.23.18.09-.29Z" fill="#fff" stroke-width="0"/></g></g><g id="c-5"><g id="d-10"><path id="s-45" d="m11.95,140.22l.09.29-.23-.18h.28l-.23.18.09-.29Z" fill="#fff" stroke-width="0"/><path id="s-46" d="m11.95,140.78l.09.29-.23-.18h.28l-.23.18.09-.29Z" fill="#fff" stroke-width="0"/><path id="s-47" d="m11.95,141.34l.09.29-.23-.18h.28l-.23.18.09-.29Z" fill="#fff" stroke-width="0"/><path id="s-48" d="m11.95,141.89l.09.29-.23-.18h.28l-.23.18.09-.29Z" fill="#fff" stroke-width="0"/></g><path id="s-49" d="m11.95,142.45l.09.29-.23-.18h.28l-.23.18.09-.29Z" fill="#fff" stroke-width="0"/></g><path d="m10.51,132.36c.31-.16.62-.33.94-.45-3.67-1.93-3.88-3.38-4.63-4.91.58,1.77,1.07,3.54,3.69,5.36h0Z" fill="#a80126" fill-rule="evenodd" stroke-width="0"/><path d="m8.6,129.46c1.4,1.17,2.61,2,3.51,2.26.89-.47,3.81-.73,3.75-.06-.64-.32-1.02-.17-1.39-.05.18,0,.67-.06.81,0-.06.07-.12.1-.19.14.24.05.46.12.65.23.12-.01.2,0,.24.03-.12.03-.27.19-.34.3.81.02,1.68.02,1.77.87.26-.76-.2-1.16-1.1-1.33-.12-.26-.31-.48-.49-.73-2.45-.14-4.89-.3-7.22-1.65h0Z" fill="#a80126" fill-rule="evenodd" stroke-width="0"/><path d="m6.68,135.38v-1.48h.99c-.04.05-.07.1-.16.14h-.62v.39h.55s-.07.09-.13.11h-.43v.53c-.05.12-.1.23-.21.32h0Z" fill-rule="evenodd" stroke-width="0"/><path d="m9.36,134.05v1.08h.28v-1.02c-.38-.35-.76-.35-1.14,0v1.02h.25v-.6h.2s.08-.05.1-.09h-.29v-.39c.23-.16.41-.16.6,0h0Z" fill-rule="evenodd" stroke-width="0"/><path d="m12.3,135.17h-1.14v-1.25h.29v1.15h1s-.06.09-.15.1h0Z" fill-rule="evenodd" stroke-width="0"/><path d="m14,133.9v.25c-.46.62.32,1.37,1.2.82h.07c-.55.6-2.54.1-1.27-1.07h0Z" fill-rule="evenodd" stroke-width="0"/><path d="m13.4,133.93v.45c.44-.79,1.05-1.18,2.91-.66-1.79-.7-2.45-.33-2.91.21Z" fill-rule="evenodd" stroke-width="0"/><path d="m16.87,133.8c-.37,0-.75.26-.75.73,0,.94,1.49.99,1.49,0,0-.5-.37-.73-.75-.73h0Zm0,.1c.22,0,.44.21.45.63,0,.85-.88.83-.88,0,0-.41.22-.63.44-.63h0Z" fill-rule="evenodd" stroke-width="0"/><path d="m19.01,134.05v1.13h-.22v-1.18l.22-.11v.05c.34,0,.58.15.64.24v1.01h-.22v-.99c-.08-.13-.17-.17-.43-.17v.03Z" fill-rule="evenodd" stroke-width="0"/><path d="m13.18,136.05c-2.3.01-1.7,1.85-.43,1.82.59-.02.7-.08,1.1-.5-.25,1.24-1.09,1.24-2.11,1.34-.13.08-.15.1-.24.24,1.72-.03,3.17-.34,3.13-1.68-.03-.94-.66-1.22-1.45-1.21h0Zm-.03.22c.42,0,.76.27.76.6h0c0,.33-.34.6-.76.6-.42,0-.76-.27-.76-.59,0-.33.34-.6.76-.6Z" fill-rule="evenodd" stroke-width="0"/><path d="m22.78,157.02l.03-6.41-1.06-1.56.03-1.69-.84-1.59-.28-.91-.69-.25-.69.06-.41.12-.38,1-.22,1.09-.03.94v1l.09.72-.81.91v6.47l.62.12,4.63-.03Z" fill="#fff" fill-rule="evenodd" stroke="#040404" stroke-linecap="round" stroke-linejoin="round" stroke-width=".2"/><path d="m18.16,150.61v6.43h4.62v-6.4l-.93-1.62h-2.21l-1.48,1.59Z" fill="none" stroke="#040404" stroke-linecap="square" stroke-linejoin="round" stroke-width=".2"/><path d="m21.79,156.91v-9.48l-.77-1.55c-.9-.42-1.67-.27-2.34.31l.11,2.89" fill="none" stroke="#040404" stroke-linecap="square" stroke-linejoin="round" stroke-width=".2"/><path d="m19.74,149.07v7.95" fill="none" stroke="#040404" stroke-linecap="square" stroke-linejoin="round" stroke-width=".2"/><path d="m19.67,149.04l-.75-.02-1.37,1.48v6.47l.63.06" fill="none" stroke="#040404" stroke-linecap="square" stroke-linejoin="round" stroke-width=".2"/><path d="m19.6,149l-.02-1.59-.86-1.1" fill="none" stroke="#040404" stroke-linecap="square" stroke-linejoin="round" stroke-width=".2"/><path d="m21.04,145.88l-.4-.97c-.49-.29-1.1-.29-1.77-.11-.66,1.51-.73,3.1-.51,4.73" fill="none" stroke="#040404" stroke-linecap="square" stroke-linejoin="round" stroke-width=".2"/><path d="m21.74,147.3c-.81-.33-1.51-.28-2.14-.02" fill="none" stroke="#040404" stroke-linecap="round" stroke-linejoin="round" stroke-width=".2"/><path d="m19.75,157.02l-1.57-1.73" fill="#fff" fill-rule="evenodd" stroke="#040404" stroke-linecap="round" stroke-linejoin="round" stroke-width=".2"/><path d="m21.16,157.02l-2.98-3.77" fill="#fff" fill-rule="evenodd" stroke="#040404" stroke-linecap="round" stroke-linejoin="round" stroke-width=".2"/><path d="m18.17,151.41l4.39,5.58" fill="#fff" fill-rule="evenodd" stroke="#040404" stroke-linecap="round" stroke-linejoin="round" stroke-width=".2"/><path d="m18.61,150.16l4.14,5.3" fill="#fff" fill-rule="evenodd" stroke="#040404" stroke-linecap="round" stroke-linejoin="round" stroke-width=".2"/><path d="m19.44,149.27l3.34,4.38" fill="#fff" fill-rule="evenodd" stroke="#040404" stroke-linecap="round" stroke-linejoin="round" stroke-width=".2"/><path d="m20.73,149.05l2.04,2.62" fill="#fff" fill-rule="evenodd" stroke="#040404" stroke-linecap="round" stroke-linejoin="round" stroke-width=".2"/><path d="m20.43,157.01l2.35-3.34" fill="#fff" fill-rule="evenodd" stroke="#040404" stroke-linecap="round" stroke-linejoin="round" stroke-width=".2"/><path d="m22.72,155.49l-.97,1.53" fill="#fff" fill-rule="evenodd" stroke="#040404" stroke-linecap="round" stroke-linejoin="round" stroke-width=".2"/><path d="m18.88,157.01l3.87-5.05" fill="#fff" fill-rule="evenodd" stroke="#040404" stroke-linecap="round" stroke-linejoin="round" stroke-width=".2"/><path d="m18.19,156.05l4.44-5.62" fill="#fff" fill-rule="evenodd" stroke="#040404" stroke-linecap="round" stroke-linejoin="round" stroke-width=".2"/><path d="m18.19,154.08l3.88-4.56" fill="#fff" fill-rule="evenodd" stroke="#040404" stroke-linecap="round" stroke-linejoin="round" stroke-width=".2"/><path d="m18.16,152.27l2.81-3.19" fill="#fff" fill-rule="evenodd" stroke="#040404" stroke-linecap="round" stroke-linejoin="round" stroke-width=".2"/><path d="m17.54,150.48l.61.13" fill="#ccc" fill-rule="evenodd" stroke="#040404" stroke-linecap="round" stroke-linejoin="round" stroke-width=".2"/><path d="m3.56,157.02l-.03-6.41,1.06-1.56-.03-1.69.84-1.59.28-.91.69-.25.69.06.41.12.38,1,.22,1.09.03.94v1l-.09.72.81.91v6.47l-.62.12-4.63-.03Z" fill="#fff" fill-rule="evenodd" stroke="#040404" stroke-linecap="round" stroke-linejoin="round" stroke-width=".2"/><path d="m8.18,150.61v6.43H3.56v-6.4l.93-1.62h2.21l1.48,1.59Z" fill="none" stroke="#040404" stroke-linecap="square" stroke-linejoin="round" stroke-width=".2"/><path d="m4.55,156.91v-9.48l.77-1.55c.9-.42,1.67-.27,2.34.31l-.11,2.89" fill="none" stroke="#040404" stroke-linecap="square" stroke-linejoin="round" stroke-width=".2"/><path d="m6.6,149.07v7.95" fill="none" stroke="#040404" stroke-linecap="square" stroke-linejoin="round" stroke-width=".2"/><path d="m6.67,149.04l.75-.02,1.37,1.48v6.47l-.63.06" fill="none" stroke="#040404" stroke-linecap="square" stroke-linejoin="round" stroke-width=".2"/><path d="m6.74,149l.02-1.59.86-1.1" fill="none" stroke="#040404" stroke-linecap="square" stroke-linejoin="round" stroke-width=".2"/><path d="m5.3,145.88l.4-.97c.49-.29,1.1-.29,1.77-.11.66,1.51.73,3.1.51,4.73" fill="none" stroke="#040404" stroke-linecap="square" stroke-linejoin="round" stroke-width=".2"/><path d="m4.6,147.3c.81-.33,1.51-.28,2.14-.02" fill="none" stroke="#040404" stroke-linecap="round" stroke-linejoin="round" stroke-width=".2"/><path d="m6.59,157.02l1.57-1.73" fill="#fff" fill-rule="evenodd" stroke="#040404" stroke-linecap="round" stroke-linejoin="round" stroke-width=".2"/><path d="m5.18,157.02l2.98-3.77" fill="#fff" fill-rule="evenodd" stroke="#040404" stroke-linecap="round" stroke-linejoin="round" stroke-width=".2"/><path d="m8.17,151.41l-4.39,5.58" fill="#fff" fill-rule="evenodd" stroke="#040404" stroke-linecap="round" stroke-linejoin="round" stroke-width=".2"/><path d="m7.73,150.16l-4.14,5.3" fill="#fff" fill-rule="evenodd" stroke="#040404" stroke-linecap="round" stroke-linejoin="round" stroke-width=".2"/><path d="m6.9,149.27l-3.34,4.38" fill="#fff" fill-rule="evenodd" stroke="#040404" stroke-linecap="round" stroke-linejoin="round" stroke-width=".2"/><path d="m5.61,149.05l-2.04,2.62" fill="#fff" fill-rule="evenodd" stroke="#040404" stroke-linecap="round" stroke-linejoin="round" stroke-width=".2"/><path d="m5.91,157.01l-2.35-3.34" fill="#fff" fill-rule="evenodd" stroke="#040404" stroke-linecap="round" stroke-linejoin="round" stroke-width=".2"/><path d="m3.62,155.49l.97,1.53" fill="#fff" fill-rule="evenodd" stroke="#040404" stroke-linecap="round" stroke-linejoin="round" stroke-width=".2"/><path d="m7.46,157.01l-3.87-5.05" fill="#fff" fill-rule="evenodd" stroke="#040404" stroke-linecap="round" stroke-linejoin="round" stroke-width=".2"/><path d="m8.15,156.05l-4.44-5.62" fill="#fff" fill-rule="evenodd" stroke="#040404" stroke-linecap="round" stroke-linejoin="round" stroke-width=".2"/><path d="m8.15,154.08l-3.88-4.56" fill="#fff" fill-rule="evenodd" stroke="#040404" stroke-linecap="round" stroke-linejoin="round" stroke-width=".2"/><path d="m8.18,152.27l-2.81-3.19" fill="#fff" fill-rule="evenodd" stroke="#040404" stroke-linecap="round" stroke-linejoin="round" stroke-width=".2"/><path d="m8.8,150.48l-.61.13" fill="#ccc" fill-rule="evenodd" stroke="#040404" stroke-linecap="round" stroke-linejoin="round" stroke-width=".2"/><rect x="3.84" y="69.73" width="18.67" height="290.59" fill="#fff" stroke-width="0"/><rect x="4.06" y="69.91" width="9.24" height="290.27" fill="url(#linear-gradient-7)" isolation="isolate" opacity=".03" stroke-width="0"/><rect x="13.18" y="69.77" width="9.1" height="290.27" fill="url(#linear-gradient-8)" isolation="isolate" opacity=".03" stroke-width="0"/><rect x="22.54" y="360.7" width=".48" height=".48" fill="#f7f7f7" stroke-width="0"/><rect x="3.29" y="360.7" width=".48" height=".45" fill="#f7f7f7" stroke-width="0"/><path d="m4.71,365.2c-.03-.05-.08-.19-.08-.23v-.03h3.39v.06c.04.12.04.14.01.19l-.03.04h-3.27l-.02-.04h0Z" fill="#f7f7f7" stroke-width="0"/><path d="m8.5,365.2c-.03-.06-.08-.2-.08-.22,0-.01.73-.01,1.75-.01h1.75v.03c-.02.07-.05.15-.08.2l-.03.06h-3.27l-.03-.06h0Z" fill="#f7f7f7" stroke-width="0"/><path d="m12.21,365.3s.01-.04.03-.08c.02-.06.05-.16.07-.26v-.04h.88c.83,0,.88,0,.88.02,0,.01,0,.04.01.07,0,.03.02.1.05.16.02.06.04.12.04.12h-.98c-.54,0-.98,0-.98-.01h0Z" fill="#f7f7f7" stroke-width="0"/><path d="m14.54,365.2c-.03-.06-.08-.2-.08-.22,0-.01.73-.01,1.75-.01,1.3,0,1.75,0,1.75.01,0,.03-.05.16-.08.22l-.03.06h-3.27l-.03-.06h0Z" fill="#f7f7f7" stroke-width="0"/><path d="m18.35,365.2c-.03-.05-.04-.08-.02-.17.01-.05.02-.09.02-.09,0,0,.77-.01,1.7-.01h1.7v.03c-.02.06-.06.16-.08.21l-.03.05h-3.27l-.02-.04h0Z" fill="#f7f7f7" stroke-width="0"/><path d="m3.87,360.3l18.57.03v3.27s-.69,1.75-.69,1.75l-17.17-.05-.7-1.75-.02-3.25Z" fill="#101010" stroke-width="0"/><path d="m3.86,360.3h18.65" fill="none" stroke="#000" stroke-width=".4"/><path d="m4.75,348.09l.05-.14.08-.16.11-.16.14-.16.16-.15.18-.14.2-.11.21-.08.23-.04h.23s.24.05.24.05l.24.11.4,1.06,1.27,3.5.42,1.17.42,1.17,1.27,3.5.42,1.17.85,2.33.11.28.02.03.02.03.02.03.02.03.03.03.03.02.03.02.03.02.03.02.03.02h.03s.03.02.03.02l.07.02h.13s.18,0,.18,0l.05-.02.05-.05.05-.07.05-.09.05-.11.04-.13.04-.14.04-.15.03-.16.03-.16.02-.16-.19-1.82-.45-3.82-.45-3.82-.9-7.63-2.69-22.89-.45-3.82-.29-2.58v-.5s0-.25,0-.25l-.02-2.01v-.31s-.05-.49-.05-.49l-.04-.44-.04-.4-.04-.36-.04-.32-.04-.29-.04-.26-.04-.23-.04-.21-.04-.19-.04-.17-.04-.16-.05-.14-.05-.13-.05-.12-.05-.11-.05-.1-.05-.09-.05-.08-.05-.07-.05-.07-.05-.06-.05-.05-.05-.04-.05-.04-.05-.03-.06-.03-.06-.02h-.06s-.06-.02-.06-.02h-.06s-.06,0-.06,0h-.06s-.06.03-.06.03l-.06.02-.06.03-.06.03-.06.04-.06.05-.06.05-.07.06-.07.07-.07.08-.07.08-.07.09-.07.1-.07.11-.07.12-.07.13-.08.14-.08.14-.08.15-.08.16-.08.16-.08.17-.07.17-.07.17-.07.17-.07.17-.07.17-.06.17-.06.17-.06.17-.05.17-.05.17-.05.17-.04.17-.04.17-.03.17-.03.17" fill="#f2f2f2" stroke="#000" stroke-width=".4"/><path d="m4.75,348.09l-.04.22-.04.22-.04.22-.04.23-.04.23-.04.24-.04.24-.03.24-.03.25-.03.25-.03.25-.03.25-.03.26-.03.26-.03.26-.03.26-.03.27-.03.27-.03.27-.03.27-.03.27-.03.28-.06.55-.06.56-.06.56-.12,1.13-.06.56-.06.56-.06.56-.06.55-.03.28-.03.27-.03.27-.03.27-.03.27-.03.27-.03.26-.03.26-.03.26-.03.26v.13s-.02.05-.02.05h0s0,.01,0,.01v.02s-.01.01-.01.01h0s-.02.04-.02.04h-.07l-.03-.02-.07-.04-.06-.04-.06-.04-.06-.04-.06-.04-.06-.04-.05-.04-.05-.04-.05-.04-.05-.04-.05-.04-.05-.04-.04-.04-.04-.04-.04-.04-.04-.04-.04-.04-.07-.09-.06-.09-.06-.09-.05-.09-.05-.09-.05-.09-.04-.09-.04-.09-.03-.09-.03-.09-.03-.09-.03-.09-.02-.09-.02-.09-.02-.09-.02-.09v-.05s-.01-.02-.01-.02h0s0-.01,0-.01h0s0,0,0,0h0s0-.07,0-.07v-.11s.24-7.21.24-7.21l.48-14.43.72-21.64.06-1.8.02-.45v-.03s0,0,0,0h0s0,0,0,0h0s0,0,0,0h0s0-.02,0-.02v-.05s.02-.09.02-.09v-.09s.03-.09.03-.09v-.09s.03-.08.03-.08v-.08s.03-.08.03-.08v-.08s.03-.08.03-.08l.02-.08.03-.15.03-.14.03-.14.03-.14.03-.14.04-.14.04-.14.04-.14.04-.14.04-.14.05-.14.05-.15.05-.15.03-.08.03-.08.03-.08.03-.08.03-.08.03-.08.04-.08.04-.08.04-.08.04-.09.04-.09.04-.09.05-.09.05-.09" fill="#f2f2f2" stroke="#000" stroke-linecap="round" stroke-width=".4"/><path d="m21.62,348.09l-.05-.14-.08-.16-.11-.16-.14-.16-.16-.15-.18-.14-.2-.11-.21-.08-.23-.04h-.23s-.24.05-.24.05l-.24.11-.4,1.06-1.27,3.5-.42,1.17-1.69,4.66-.42,1.17-.85,2.33-.11.28-.02.03-.02.03-.02.03-.02.03-.03.03-.03.02-.03.02-.03.02-.03.02-.03.02h-.03s-.03.02-.03.02l-.07.02h-.13s-.18,0-.18,0l-.05-.02-.05-.05-.05-.07-.05-.09-.05-.11-.04-.13-.04-.14-.04-.15-.03-.16-.03-.16-.02-.16.19-1.82.45-3.82.45-3.82.45-3.82.9-7.63.9-7.63.45-3.82.9-7.63.45-3.82.29-2.58v-.5s0-.25,0-.25l.02-2.01v-.31s.05-.49.05-.49l.04-.44.04-.4.04-.36.04-.32.04-.29.04-.26.04-.23.04-.21.04-.19.04-.17.04-.16.05-.14.05-.13.05-.12.05-.11.05-.1.05-.09.05-.08.05-.07.05-.07.05-.06.05-.05.05-.04.05-.04.05-.03.06-.03.06-.02h.06s.06-.02.06-.02h.06s.06,0,.06,0h.06s.06.03.06.03l.06.02.06.03.06.03.06.04.06.05.06.05.07.06.07.07.07.08.07.08.07.09.07.1.07.11.07.12.07.13.08.14.08.14.08.15.08.16.08.16.08.17.07.17.07.17.07.17.07.17.07.17.06.17.06.17.06.17.05.17.05.17.05.17.04.17.04.17.03.17.03.17" fill="#f2f2f2" stroke="#000" stroke-width=".4"/><path d="m21.62,348.09l.04.22.04.22.04.22.04.23.04.23.04.24.04.24.03.24.03.25.03.25.03.25.03.25.03.26.03.26.03.26.03.26.03.27.03.27.03.27.03.27.03.27.03.28.06.55.06.56.06.56.12,1.13.06.56.06.56.06.56.06.55.03.28.03.27.03.27.03.27.03.27.03.27.03.26.03.26.03.26.03.26v.13s.02.05.02.05h0s0,.01,0,.01v.02s.02.01.02.01h0s.02.04.02.04h.07l.03-.02.07-.04.06-.04.06-.04.06-.04.06-.04.06-.04.05-.04.05-.04.05-.04.05-.04.05-.04.04-.04.04-.04.04-.04.04-.04.04-.04.04-.04.07-.09.06-.09.06-.09.05-.09.05-.09.05-.09.04-.09.04-.09.03-.09.03-.09.03-.09.03-.09.02-.09.02-.09.02-.09.02-.09v-.05s.01-.02.01-.02h0s0-.01,0-.01h0s0,0,0,0h0s0-.07,0-.07v-.11s-.24-7.21-.24-7.21l-.48-14.43-.48-14.43-.24-7.21-.06-1.8-.02-.45v-.03s0,0,0,0h0s0,0,0,0h0s0,0,0,0h0s0-.02,0-.02v-.05s-.02-.09-.02-.09v-.09s-.03-.09-.03-.09v-.09s-.03-.08-.03-.08v-.08s-.03-.08-.03-.08v-.08s-.03-.08-.03-.08l-.02-.08-.03-.15-.03-.14-.03-.14-.03-.14-.03-.14-.04-.14-.04-.14-.04-.14-.04-.14-.04-.14-.05-.14-.05-.15-.05-.15-.03-.08-.03-.08-.03-.08-.03-.08-.03-.08-.03-.08-.04-.08-.04-.08-.04-.08-.04-.09-.04-.09-.04-.09-.05-.09-.05-.09" fill="#f2f2f2" stroke="#000" stroke-linecap="round" stroke-width=".4"/><path d="m8.15,368c-.19-.48-.45-1.03-.7-1.53l-.1-.19.04-.08c.07-.13.23-.42.33-.58l.04-.06h.2c.11,0,.33,0,.49,0h.29l.04.06c.08.14.3.52.35.62l.02.03-.05.1c-.28.53-.55,1.13-.77,1.69l-.04.09h-.06l-.06-.16h0Z" fill="#333" stroke-width="0"/><path d="m17.96,367.8c-.19-.48-.45-1.03-.7-1.53l-.1-.19.04-.08c.07-.13.23-.42.33-.58l.04-.06h.2c.11,0,.33,0,.49,0h.29l.04.06c.08.14.3.52.35.62l.02.03-.05.1c-.28.53-.55,1.13-.77,1.69l-.04.09h-.06l-.06-.16h0Z" fill="#333" stroke-width="0"/><path d="m12.08,367.3c.08-.16.23-.43.33-.62l.19-.33-.22-.39-.22-.39h-.38c-.32,0-.38-.01-.38-.04,0-.03-.03-.04-.16-.03-.15.01-.17.01-.22.1l-.05.09.28.54c.15.3.36.72.46.94.1.22.19.4.2.4,0,0,.08-.13.16-.28h0Z" fill="#333" stroke-width="0"/><path d="m14.35,367.3c-.08-.16-.23-.43-.33-.62l-.19-.33.22-.39.22-.39h.38c.32,0,.38-.01.38-.04,0-.03.03-.04.16-.03.15.01.17.01.22.1l.05.09-.28.54c-.15.3-.36.72-.46.94-.1.22-.19.4-.2.4,0,0-.08-.13-.16-.28h0Z" fill="#333" stroke-width="0"/><path d="m10.84,371.5s.08-.38.09-.42c.17-2.25.35-1.78,1.06-3.15,0-.07.48-1.05.75-1.52l.14-.24v-.63h.67v.64l.14.25c.15.27.57,1.08.66,1.3l.06.13c.88,2.4.22.29,1.13,3.39.02.1.04.2.04.22,0,.03,0,.03-2.38.03-1.31,0-2.38,0-2.38-.01h0Z" fill="#333" stroke-width="0"/><path d="m3.86,116.01h18.65" fill="none" stroke="#000" stroke-width=".4"/><path d="m16.72,365.4h-1.02" fill="none" stroke="#000" stroke-width=".4"/><path d="m5.81,370.7h4.91" fill="none" stroke="#000" stroke-width=".4"/><path d="m7.76,365.4h1.02" fill="none" stroke="#000" stroke-width=".4"/><path d="m9.21,366.2c-.14-.28-.29-.56-.44-.83" fill="none" stroke="#000" stroke-width=".4"/><path d="m7.76,365.4c-.15.27-.3.55-.44.83" fill="none" stroke="#000" stroke-width=".4"/><path d="m11.14,365.4h.76" fill="none" stroke="#000" stroke-width=".4"/><path d="m12.65,366.3c-.14-.29-.29-.57-.45-.85" fill="none" stroke="#000" stroke-width=".4"/><path d="m11.14,365.4c-.08.14-.16.28-.23.42" fill="none" stroke="#000" stroke-width=".4"/><path d="m20.56,370.7h-4.91" fill="none" stroke="#000" stroke-width=".4"/><path d="m18.61,365.4h-1.02" fill="none" stroke="#000" stroke-width=".4"/><path d="m17.6,365.4c-.15.27-.3.55-.44.83" fill="none" stroke="#000" stroke-width=".4"/><path d="m19.05,366.2c-.14-.28-.29-.56-.44-.83" fill="none" stroke="#000" stroke-width=".4"/><path d="m15.23,365.4h-.76" fill="none" stroke="#000" stroke-width=".4"/><path d="m11.9,365.4c.15-.2.23-.44.22-.68" fill="none" stroke="#000" stroke-width=".4"/><path d="m8.42,365.4h3.48" fill="none" stroke="#000" stroke-width=".4"/><path d="m14.25,364.7c-.01.25.07.49.22.68" fill="none" stroke="#000" stroke-width=".4"/><path d="m17.95,365.4c.15-.2.23-.44.22-.68" fill="none" stroke="#000" stroke-width=".4"/><path d="m12.2,365.5h1.97" fill="none" stroke="#000" stroke-width=".4"/><path d="m11.39,365.4s.04.05.05.08" fill="none" stroke="#000" stroke-width=".4"/><path d="m14.92,365.5s.04-.05.05-.08" fill="none" stroke="#000" stroke-width=".4"/><path d="m11.45,365.5h3.48" fill="none" stroke="#000" stroke-width=".4"/><path d="m14.22,365.5c-.16.28-.31.56-.45.85" fill="none" stroke="#000" stroke-width=".4"/><path d="m14.22,365.5c-.16.28-.31.56-.45.85" fill="none" stroke="#000" stroke-width=".4"/><path d="m15.49,365.8c-.07-.13-.14-.25-.21-.38" fill="none" stroke="#000" stroke-width=".4"/><path d="m22.51,69.52v240.87" fill="none" stroke="#000" stroke-width=".4"/><path d="m10.93,370.7c-.07.28-.12.55-.18.83h4.91c-.05-.28-.11-.56-.18-.83" fill="none" stroke="#000" stroke-width=".4"/><path d="m11.85,367.9c.25-.58.53-1.16.85-1.71v-.75" fill="none" stroke="#000" stroke-width=".4"/><path d="m13.72,365.5v.75c.3.53.58,1.08.82,1.65" fill="none" stroke="#000" stroke-width=".4"/><path d="m8.26,368.6c-.36-1.09-.82-2.14-1.39-3.14h-1.02c-.94,1.65-1.6,3.45-1.95,5.32h4.91" fill="#333" stroke="#000" stroke-width=".4"/><path d="m18.11,365.1c.04.11.09.21.16.3h3.48c.15-.2.23-.44.22-.68" fill="none" stroke="#000" stroke-width=".4"/><path d="m17.55,370.7h4.91c-.35-1.87-1.01-3.66-1.95-5.32h-1.02c-.57,1-1.03,2.05-1.39,3.14" fill="#333" stroke="#000" stroke-width=".4"/><path d="m9.65,365.4c-.94,1.65-1.6,3.45-1.95,5.32h4.91c-.35-1.87-1.01-3.66-1.95-5.32h-1.02Z" fill="#333" stroke="#000" stroke-width=".4"/><path d="m.42,60.98c-.06-1-.09-9.85-.05-19.67.07-19.4.06-19.16,1.12-24.12,1.21-5.66,3.52-10.11,7.44-14.31,1.55-1.66,2.79-2.49,3.73-2.49h.4s0,62.4,0,62.4H.54l-.12-1.81h0Z" fill="url(#linear-gradient-9)" stroke-width="0"/><path d="m3.91,69.29c-.09-.12-.75-1.29-1.46-2.61-.71-1.31-1.44-2.65-1.63-2.96l-.34-.57h12.58v6.36h-4.49c-3.38,0-4.53-.05-4.66-.22h0Z" fill="url(#linear-gradient-10)" stroke-width="0"/><path d="m26.01,60.98c.06-1,.09-9.85.05-19.67-.07-19.4-.06-19.16-1.12-24.12-1.21-5.66-3.52-10.11-7.44-14.31-1.55-1.66-2.79-2.49-3.73-2.49h-.4s0,62.4,0,62.4h12.52l.12-1.81h0Z" fill="url(#linear-gradient-11)" stroke-width="0"/><path d="m22.52,69.29c.09-.12.75-1.29,1.46-2.61.71-1.31,1.44-2.65,1.63-2.96l.34-.57h-12.58v6.36h4.49c3.38,0,4.53-.05,4.66-.22h0Z" fill="url(#linear-gradient-12)" stroke-width="0"/><path d="m3.86,69.62h18.65" fill="none" stroke="#000" stroke-width=".4"/><path d="m.22,62.94h25.92" fill="none" stroke="#000" stroke-width=".4"/><path d="m3.86,69.62l-.39-.71-1.56-2.86-.39-.71-.39-.71-.78-1.43-.14-2.86V25.1s.06-.53.06-.53l.05-.53.05-.53.05-.53.06-.53.06-.53.06-.53.07-.53.07-.53.08-.53.08-.53.09-.53.1-.53.1-.53.11-.53.12-.53.12-.52.13-.52.14-.52.15-.52.15-.51.16-.51.17-.5.18-.5.19-.5.2-.49.21-.49.22-.48.23-.48.23-.47.24-.47.25-.46.26-.46.27-.45.28-.45.29-.44.3-.44.31-.44.32-.43.32-.43.33-.43.34-.43.35-.42.36-.42.37-.42.37-.42.38-.41.4-.39.41-.37.42-.34.44-.29.46-.24.49-.18.51-.12.54-.07h.57s.54.06.54.06l.51.12.49.18.46.24.44.29.43.34.41.37.4.39.38.41.37.42.37.42.36.42.35.42.34.43.33.43.32.43.32.43.31.44.3.44.29.44.28.45.27.45.26.46.25.46.24.47.24.47.23.48.22.48.21.49.2.49.19.5.18.5.17.5.16.51.15.51.15.52.14.52.13.52.12.52.12.53.11.53.1.53.09.53.09.53.08.53.07.53.07.53.06.53.06.53.05.53.05.53.05.53.05.53.04.53.04.53v2.99s.01,32.24.01,32.24l-.14,2.86-.78,1.43-1.56,2.86-.39.71-.78,1.43" fill="none" stroke="#000" stroke-width=".4"/><path d="m13.18,69.62V.22" fill="none" stroke="#000" stroke-width=".4"/><path d="m7.69,310.97l-1.23-1.31" fill="none" stroke="#000" stroke-width=".4"/><path d="m6.46,309.66h-2.25" fill="none" stroke="#000" stroke-width=".4"/><path d="m3.94,340.02l.17-24.12" fill="none" stroke="#000" stroke-width=".4"/><path d="m4.11,315.9l2.16-2.93" fill="none" stroke="#000" stroke-width=".4"/><path d="m4.11,315.9l-1.03-2.67" fill="none" stroke="#000" stroke-width=".4"/><path d="m6.27,312.98l.18-3.32" fill="none" stroke="#000" stroke-linecap="round" stroke-width=".4"/><path d="m3.86,310.39V69.52" fill="none" stroke="#000" stroke-width=".4"/><path d="m3.25,360.7h.61" fill="none" stroke="#000" stroke-width=".4"/><path d="m3.17,361.3h.69" fill="none" stroke="#000" stroke-width=".4"/><path d="m22.51,354.91v8.31c-.02.54-.19,1.06-.49,1.51H4.36c-.3-.45-.46-.97-.49-1.51v-8.31" fill="none" stroke="#000" stroke-width=".4"/><path d="m12.88,361.3h.61" fill="none" stroke="#000" stroke-width=".4"/><path d="m13.08,360.7h.22" fill="none" stroke="#000" stroke-width=".4"/><path d="m1.93,360.6l.36-4.51.12-1.5.59-7.51.12-1.5.36-4.51.05-.48.03-.12.04-.1.04-.09.05-.07.05-.06.06-.04.06-.03.06-.02h.06s.07-.01.07-.01h.07s.07.03.07.03l.06.03.06.03.06.04.06.04.06.05.06.05.06.05.05.06.05.06.05.06.05.06.05.06.04.06.18.44,1.75,4.71.58,1.57,1.75,4.71,1.17,3.14.58,1.57,1.17,3.14.58,1.57" fill="none" stroke="#000" stroke-width=".4"/><path d="m18.68,310.97l1.23-1.31" fill="none" stroke="#000" stroke-width=".4"/><path d="m19.91,309.66h2.25" fill="none" stroke="#000" stroke-width=".4"/><path d="m22.43,340.02l-.17-24.12" fill="none" stroke="#000" stroke-width=".4"/><path d="m22.26,315.9l-2.16-2.93" fill="none" stroke="#000" stroke-width=".4"/><path d="m22.26,315.9l1.03-2.67" fill="none" stroke="#000" stroke-width=".4"/><path d="m20.1,312.98l-.18-3.32" fill="none" stroke="#000" stroke-linecap="round" stroke-width=".4"/><path d="m23.12,360.7h-.61" fill="none" stroke="#000" stroke-width=".4"/><path d="m23.2,361.3h-.69" fill="none" stroke="#000" stroke-width=".4"/><path d="m24.44,360.6l-.12-1.5-.12-1.5-.59-7.51-.12-1.5-.47-6.01-.12-1.5-.05-.48-.03-.12-.04-.1-.04-.09-.05-.07-.05-.06-.06-.04-.06-.03-.06-.02h-.06s-.07-.01-.07-.01h-.07s-.07.03-.07.03l-.06.03-.06.03-.06.04-.06.04-.06.05-.06.05-.06.05-.05.06-.05.06-.05.06-.05.06-.05.06-.04.06-.18.44-.58,1.57-1.17,3.14-.58,1.57-1.75,4.71-1.17,3.14-.58,1.57-1.75,4.71" fill="none" stroke="#000" stroke-width=".4"/><path d="m16.72,365.4c.94,1.65,1.6,3.45,1.95,5.32h-4.91c.35-1.87,1.01-3.66,1.95-5.32" fill="#333" stroke="#000" stroke-width=".4"/><path d="m14.47,365.4h3.48" fill="none" stroke="#000" stroke-width=".4"/><path d="m4.41,364.7c-.01.25.07.49.22.68h3.48c.07-.09.12-.19.16-.3" fill="none" stroke="#000" stroke-width=".4"/><path d="m8.21,364.7c-.01.25.07.49.22.68" fill="none" stroke="#000" stroke-width=".4"/><path d="m3.86,151.7h18.65" fill="none" stroke="#000" stroke-width=".4"/><path d="m14.59,298.3h-3.87l-.14.11v3.44h1.07v-1.29l.1-.09h2.84c.72,0,1.05-.19,1.05-.69v-.79c0-.5-.34-.69-1.05-.69m0,1.27c0,.23-.15.28-.49.28h-2.34l-.11-.11v-.74l.1-.09h2.35c.34,0,.49.05.49.28v.38h0Z" fill="#005288" stroke-width="0"/><polyline points="12.35 306.13 13.27 307.48 13.22 307.61 11.18 307.61 10.66 308.25 13.7 308.25 13.91 308.38 14.38 309.03 15.6 309.03 12.92 305.43" fill="#005288" stroke-width="0"/><polyline points="11.79 324.06 11.79 323.1 11.9 323.01 13.95 323.01 13.95 322.4 10.7 322.4 10.7 324.76 15.49 324.76 15.49 324.15 11.9 324.15" fill="#005288" stroke-width="0"/><rect x="10.7" y="321.21" width="4.84" height=".67" fill="#005288" stroke-width="0"/><path d="m11.76,313.8h3.9c-.06-.5-.37-.63-1.15-.63h-2.79c-.88,0-1.16.17-1.16.84v1.87c0,.67.28.84,1.16.84h2.79c.79,0,1.1-.15,1.12-.66h-3.87l-.11-.11v-2.07" fill="#005288" stroke-width="0"/><path d="m14.55,291.5h-2.84l-.08-.09v-.61l.08-.06h3.83l.05-.13c-.13-.34-.47-.49-1.09-.49h-2.66c-.88,0-1.16.17-1.16.84v.39c0,.67.28.84,1.16.84h2.83l.09.08v.63l-.07.1h-3.24s-.85,0-.85,0c0,0-.1.05-.09.07.07.47.39.6,1.15.6h2.9c.88,0,1.17-.17,1.17-.84v-.49c0-.67-.29-.84-1.17-.84" fill="#005288" stroke-width="0"/><path d="m11.82,329.43h-1.59l-.09.16,1.77,1.29c.34-.19.7-.39,1.1-.58" fill="#005288" stroke-width="0"/><path d="m13.24,331.86l1.56,1.13h1.61l.07-.15-2.32-1.7c-.31.23-.61.47-.91.72" fill="#005288" stroke-width="0"/><path d="m11.58,332.99h-1.44l-.12-.19c.98-.95,5.46-4.5,11.28-4.96,0,0-5.1.57-9.72,5.15" fill="#a7a9ac" stroke-width="0"/><rect x="8.57" y="140.1" width="9.2" height="5.17" fill="#b22234" stroke-width="0"/><path d="m8.57,140.7h9.2m0,.8h-9.2m0,.8h9.2m0,.8h-9.2m0,.8h9.2m0,.8h-9.2" stroke="#fff" stroke-miterlimit="10" stroke-width=".37"/><rect x="8.57" y="140.1" width="3.68" height="2.78" fill="#3c3b6e" stroke-width="0"/><path d="m8.88,140.22l.09.29-.23-.18h.28l-.23.18.09-.29Z" fill="#fff" stroke-width="0"/><path id="s-50" d="m8.88,140.78l.09.29-.23-.18h.28l-.23.18.09-.29Z" fill="#fff" stroke-width="0"/><path id="s-51" d="m8.88,141.34l.09.29-.23-.18h.28l-.23.18.09-.29Z" fill="#fff" stroke-width="0"/><path id="s-52" d="m8.88,141.89l.09.29-.23-.18h.28l-.23.18.09-.29Z" fill="#fff" stroke-width="0"/><path id="s-53" d="m8.88,142.45l.09.29-.23-.18h.28l-.23.18.09-.29Z" fill="#fff" stroke-width="0"/><g id="d-11"><path id="s-54" d="m9.19,140.5l.09.29-.23-.18h.28l-.23.18.09-.29Z" fill="#fff" stroke-width="0"/><path id="s-55" d="m9.19,141.06l.09.29-.23-.18h.28l-.23.18.09-.29Z" fill="#fff" stroke-width="0"/><path id="s-56" d="m9.19,141.62l.09.29-.23-.18h.28l-.23.18.09-.29Z" fill="#fff" stroke-width="0"/><path id="s-57" d="m9.19,142.17l.09.29-.23-.18h.28l-.23.18.09-.29Z" fill="#fff" stroke-width="0"/></g><g id="a-5"><g id="c-6"><g id="d-12"><path id="s-58" d="m9.49,140.22l.09.29-.23-.18h.28l-.23.18.09-.29Z" fill="#fff" stroke-width="0"/><path id="s-59" d="m9.49,140.78l.09.29-.23-.18h.28l-.23.18.09-.29Z" fill="#fff" stroke-width="0"/><path id="s-60" d="m9.49,141.34l.09.29-.23-.18h.28l-.23.18.09-.29Z" fill="#fff" stroke-width="0"/><path id="s-61" d="m9.49,141.89l.09.29-.23-.18h.28l-.23.18.09-.29Z" fill="#fff" stroke-width="0"/></g><path id="s-62" d="m9.49,142.45l.09.29-.23-.18h.28l-.23.18.09-.29Z" fill="#fff" stroke-width="0"/></g><g id="d-13"><path id="s-63" d="m9.8,140.5l.09.29-.23-.18h.28l-.23.18.09-.29Z" fill="#fff" stroke-width="0"/><path id="s-64" d="m9.8,141.06l.09.29-.23-.18h.28l-.23.18.09-.29Z" fill="#fff" stroke-width="0"/><path id="s-65" d="m9.8,141.62l.09.29-.23-.18h.28l-.23.18.09-.29Z" fill="#fff" stroke-width="0"/><path id="s-66" d="m9.8,142.17l.09.29-.23-.18h.28l-.23.18.09-.29Z" fill="#fff" stroke-width="0"/></g></g><g id="e-2"><g id="a-6"><g id="c-7"><g id="d-14"><path id="s-67" d="m10.11,140.22l.09.29-.23-.18h.28l-.23.18.09-.29Z" fill="#fff" stroke-width="0"/><path id="s-68" d="m10.11,140.78l.09.29-.23-.18h.28l-.23.18.09-.29Z" fill="#fff" stroke-width="0"/><path id="s-69" d="m10.11,141.34l.09.29-.23-.18h.28l-.23.18.09-.29Z" fill="#fff" stroke-width="0"/><path id="s-70" d="m10.11,141.89l.09.29-.23-.18h.28l-.23.18.09-.29Z" fill="#fff" stroke-width="0"/></g><path id="s-71" d="m10.11,142.45l.09.29-.23-.18h.28l-.23.18.09-.29Z" fill="#fff" stroke-width="0"/></g><g id="d-15"><path id="s-72" d="m10.41,140.5l.09.29-.23-.18h.28l-.23.18.09-.29Z" fill="#fff" stroke-width="0"/><path id="s-73" d="m10.41,141.06l.09.29-.23-.18h.28l-.23.18.09-.29Z" fill="#fff" stroke-width="0"/><path id="s-74" d="m10.41,141.62l.09.29-.23-.18h.28l-.23.18.09-.29Z" fill="#fff" stroke-width="0"/><path id="s-75" d="m10.41,142.17l.09.29-.23-.18h.28l-.23.18.09-.29Z" fill="#fff" stroke-width="0"/></g></g><g id="a-7"><g id="c-8"><g id="d-16"><path id="s-76" d="m10.72,140.22l.09.29-.23-.18h.28l-.23.18.09-.29Z" fill="#fff" stroke-width="0"/><path id="s-77" d="m10.72,140.78l.09.29-.23-.18h.28l-.23.18.09-.29Z" fill="#fff" stroke-width="0"/><path id="s-78" d="m10.72,141.34l.09.29-.23-.18h.28l-.23.18.09-.29Z" fill="#fff" stroke-width="0"/><path id="s-79" d="m10.72,141.89l.09.29-.23-.18h.28l-.23.18.09-.29Z" fill="#fff" stroke-width="0"/></g><path id="s-80" d="m10.72,142.45l.09.29-.23-.18h.28l-.23.18.09-.29Z" fill="#fff" stroke-width="0"/></g><g id="d-17"><path id="s-81" d="m11.03,140.5l.09.29-.23-.18h.28l-.23.18.09-.29Z" fill="#fff" stroke-width="0"/><path id="s-82" d="m11.03,141.06l.09.29-.23-.18h.28l-.23.18.09-.29Z" fill="#fff" stroke-width="0"/><path id="s-83" d="m11.03,141.62l.09.29-.23-.18h.28l-.23.18.09-.29Z" fill="#fff" stroke-width="0"/><path id="s-84" d="m11.03,142.17l.09.29-.23-.18h.28l-.23.18.09-.29Z" fill="#fff" stroke-width="0"/></g></g></g><g id="a-8"><g id="c-9"><g id="d-18"><path id="s-85" d="m11.33,140.22l.09.29-.23-.18h.28l-.23.18.09-.29Z" fill="#fff" stroke-width="0"/><path id="s-86" d="m11.33,140.78l.09.29-.23-.18h.28l-.23.18.09-.29Z" fill="#fff" stroke-width="0"/><path id="s-87" d="m11.33,141.34l.09.29-.23-.18h.28l-.23.18.09-.29Z" fill="#fff" stroke-width="0"/><path id="s-88" d="m11.33,141.89l.09.29-.23-.18h.28l-.23.18.09-.29Z" fill="#fff" stroke-width="0"/></g><path id="s-89" d="m11.33,142.45l.09.29-.23-.18h.28l-.23.18.09-.29Z" fill="#fff" stroke-width="0"/></g><g id="d-19"><path id="s-90" d="m11.64,140.5l.09.29-.23-.18h.28l-.23.18.09-.29Z" fill="#fff" stroke-width="0"/><path id="s-91" d="m11.64,141.06l.09.29-.23-.18h.28l-.23.18.09-.29Z" fill="#fff" stroke-width="0"/><path id="s-92" d="m11.64,141.62l.09.29-.23-.18h.28l-.23.18.09-.29Z" fill="#fff" stroke-width="0"/><path id="s-93" d="m11.64,142.17l.09.29-.23-.18h.28l-.23.18.09-.29Z" fill="#fff" stroke-width="0"/></g></g><g id="c-10"><g id="d-20"><path id="s-94" d="m11.95,140.22l.09.29-.23-.18h.28l-.23.18.09-.29Z" fill="#fff" stroke-width="0"/><path id="s-95" d="m11.95,140.78l.09.29-.23-.18h.28l-.23.18.09-.29Z" fill="#fff" stroke-width="0"/><path id="s-96" d="m11.95,141.34l.09.29-.23-.18h.28l-.23.18.09-.29Z" fill="#fff" stroke-width="0"/><path id="s-97" d="m11.95,141.89l.09.29-.23-.18h.28l-.23.18.09-.29Z" fill="#fff" stroke-width="0"/></g><path id="s-98" d="m11.95,142.45l.09.29-.23-.18h.28l-.23.18.09-.29Z" fill="#fff" stroke-width="0"/></g><path d="m10.51,132.36c.31-.16.62-.33.94-.45-3.67-1.93-3.88-3.38-4.63-4.91.58,1.77,1.07,3.54,3.69,5.36h0Z" fill="#a80126" fill-rule="evenodd" stroke-width="0"/><path d="m8.6,129.46c1.4,1.17,2.61,2,3.51,2.26.89-.47,3.81-.73,3.75-.06-.64-.32-1.02-.17-1.39-.05.18,0,.67-.06.81,0-.06.07-.12.1-.19.14.24.05.46.12.65.23.12-.01.2,0,.24.03-.12.03-.27.19-.34.3.81.02,1.68.02,1.77.87.26-.76-.2-1.16-1.1-1.33-.12-.26-.31-.48-.49-.73-2.45-.14-4.89-.3-7.22-1.65h0Z" fill="#a80126" fill-rule="evenodd" stroke-width="0"/><path d="m6.68,135.38v-1.48h.99c-.04.05-.07.1-.16.14h-.62v.39h.55s-.07.09-.13.11h-.43v.53c-.05.12-.1.23-.21.32h0Z" fill-rule="evenodd" stroke-width="0"/><path d="m9.36,134.05v1.08h.28v-1.02c-.38-.35-.76-.35-1.14,0v1.02h.25v-.6h.2s.08-.05.1-.09h-.29v-.39c.23-.16.41-.16.6,0h0Z" fill-rule="evenodd" stroke-width="0"/><path d="m12.3,135.17h-1.14v-1.25h.29v1.15h1s-.06.09-.15.1h0Z" fill-rule="evenodd" stroke-width="0"/><path d="m14,133.9v.25c-.46.62.32,1.37,1.2.82h.07c-.55.6-2.54.1-1.27-1.07h0Z" fill-rule="evenodd" stroke-width="0"/><path d="m13.4,133.93v.45c.44-.79,1.05-1.18,2.91-.66-1.79-.7-2.45-.33-2.91.21Z" fill-rule="evenodd" stroke-width="0"/><path d="m16.87,133.8c-.37,0-.75.26-.75.73,0,.94,1.49.99,1.49,0,0-.5-.37-.73-.75-.73h0Zm0,.1c.22,0,.44.21.45.63,0,.85-.88.83-.88,0,0-.41.22-.63.44-.63h0Z" fill-rule="evenodd" stroke-width="0"/><path d="m19.01,134.05v1.13h-.22v-1.18l.22-.11v.05c.34,0,.58.15.64.24v1.01h-.22v-.99c-.08-.13-.17-.17-.43-.17v.03Z" fill-rule="evenodd" stroke-width="0"/><path d="m13.18,136.05c-2.3.01-1.7,1.85-.43,1.82.59-.02.7-.08,1.1-.5-.25,1.24-1.09,1.24-2.11,1.34-.13.08-.15.1-.24.24,1.72-.03,3.17-.34,3.13-1.68-.03-.94-.66-1.22-1.45-1.21h0Zm-.03.22c.42,0,.76.27.76.6h0c0,.33-.34.6-.76.6-.42,0-.76-.27-.76-.59,0-.33.34-.6.76-.6Z" fill-rule="evenodd" stroke-width="0"/><path d="m22.78,157.02l.03-6.41-1.06-1.56.03-1.69-.84-1.59-.28-.91-.69-.25-.69.06-.41.12-.38,1-.22,1.09-.03.94v1l.09.72-.81.91v6.47l.62.12,4.63-.03Z" fill="#fff" fill-rule="evenodd" stroke="#040404" stroke-linecap="round" stroke-linejoin="round" stroke-width=".2"/><path d="m18.16,150.61v6.43h4.62v-6.4l-.93-1.62h-2.21l-1.48,1.59Z" fill="none" stroke="#040404" stroke-linecap="square" stroke-linejoin="round" stroke-width=".2"/><path d="m21.79,156.91v-9.48l-.77-1.55c-.9-.42-1.67-.27-2.34.31l.11,2.89" fill="none" stroke="#040404" stroke-linecap="square" stroke-linejoin="round" stroke-width=".2"/><path d="m19.74,149.07v7.95" fill="none" stroke="#040404" stroke-linecap="square" stroke-linejoin="round" stroke-width=".2"/><path d="m19.67,149.04l-.75-.02-1.37,1.48v6.47l.63.06" fill="none" stroke="#040404" stroke-linecap="square" stroke-linejoin="round" stroke-width=".2"/><path d="m19.6,149l-.02-1.59-.86-1.1" fill="none" stroke="#040404" stroke-linecap="square" stroke-linejoin="round" stroke-width=".2"/><path d="m21.04,145.88l-.4-.97c-.49-.29-1.1-.29-1.77-.11-.66,1.51-.73,3.1-.51,4.73" fill="none" stroke="#040404" stroke-linecap="square" stroke-linejoin="round" stroke-width=".2"/><path d="m21.74,147.3c-.81-.33-1.51-.28-2.14-.02" fill="none" stroke="#040404" stroke-linecap="round" stroke-linejoin="round" stroke-width=".2"/><path d="m19.75,157.02l-1.57-1.73" fill="#fff" fill-rule="evenodd" stroke="#040404" stroke-linecap="round" stroke-linejoin="round" stroke-width=".2"/><path d="m21.16,157.02l-2.98-3.77" fill="#fff" fill-rule="evenodd" stroke="#040404" stroke-linecap="round" stroke-linejoin="round" stroke-width=".2"/><path d="m18.17,151.41l4.39,5.58" fill="#fff" fill-rule="evenodd" stroke="#040404" stroke-linecap="round" stroke-linejoin="round" stroke-width=".2"/><path d="m18.61,150.16l4.14,5.3" fill="#fff" fill-rule="evenodd" stroke="#040404" stroke-linecap="round" stroke-linejoin="round" stroke-width=".2"/><path d="m19.44,149.27l3.34,4.38" fill="#fff" fill-rule="evenodd" stroke="#040404" stroke-linecap="round" stroke-linejoin="round" stroke-width=".2"/><path d="m20.73,149.05l2.04,2.62" fill="#fff" fill-rule="evenodd" stroke="#040404" stroke-linecap="round" stroke-linejoin="round" stroke-width=".2"/><path d="m20.43,157.01l2.35-3.34" fill="#fff" fill-rule="evenodd" stroke="#040404" stroke-linecap="round" stroke-linejoin="round" stroke-width=".2"/><path d="m22.72,155.49l-.97,1.53" fill="#fff" fill-rule="evenodd" stroke="#040404" stroke-linecap="round" stroke-linejoin="round" stroke-width=".2"/><path d="m18.88,157.01l3.87-5.05" fill="#fff" fill-rule="evenodd" stroke="#040404" stroke-linecap="round" stroke-linejoin="round" stroke-width=".2"/><path d="m18.19,156.05l4.44-5.62" fill="#fff" fill-rule="evenodd" stroke="#040404" stroke-linecap="round" stroke-linejoin="round" stroke-width=".2"/><path d="m18.19,154.08l3.88-4.56" fill="#fff" fill-rule="evenodd" stroke="#040404" stroke-linecap="round" stroke-linejoin="round" stroke-width=".2"/><path d="m18.16,152.27l2.81-3.19" fill="#fff" fill-rule="evenodd" stroke="#040404" stroke-linecap="round" stroke-linejoin="round" stroke-width=".2"/><path d="m17.54,150.48l.61.13" fill="#ccc" fill-rule="evenodd" stroke="#040404" stroke-linecap="round" stroke-linejoin="round" stroke-width=".2"/><path d="m3.56,157.02l-.03-6.41,1.06-1.56-.03-1.69.84-1.59.28-.91.69-.25.69.06.41.12.38,1,.22,1.09.03.94v1l-.09.72.81.91v6.47l-.62.12-4.63-.03Z" fill="#fff" fill-rule="evenodd" stroke="#040404" stroke-linecap="round" stroke-linejoin="round" stroke-width=".2"/><path d="m8.18,150.61v6.43H3.56v-6.4l.93-1.62h2.21l1.48,1.59Z" fill="none" stroke="#040404" stroke-linecap="square" stroke-linejoin="round" stroke-width=".2"/><path d="m4.55,156.91v-9.48l.77-1.55c.9-.42,1.67-.27,2.34.31l-.11,2.89" fill="none" stroke="#040404" stroke-linecap="square" stroke-linejoin="round" stroke-width=".2"/><path d="m6.6,149.07v7.95" fill="none" stroke="#040404" stroke-linecap="square" stroke-linejoin="round" stroke-width=".2"/><path d="m6.67,149.04l.75-.02,1.37,1.48v6.47l-.63.06" fill="none" stroke="#040404" stroke-linecap="square" stroke-linejoin="round" stroke-width=".2"/><path d="m6.74,149l.02-1.59.86-1.1" fill="none" stroke="#040404" stroke-linecap="square" stroke-linejoin="round" stroke-width=".2"/><path d="m5.3,145.88l.4-.97c.49-.29,1.1-.29,1.77-.11.66,1.51.73,3.1.51,4.73" fill="none" stroke="#040404" stroke-linecap="square" stroke-linejoin="round" stroke-width=".2"/><path d="m4.6,147.3c.81-.33,1.51-.28,2.14-.02" fill="none" stroke="#040404" stroke-linecap="round" stroke-linejoin="round" stroke-width=".2"/><path d="m6.59,157.02l1.57-1.73" fill="#fff" fill-rule="evenodd" stroke="#040404" stroke-linecap="round" stroke-linejoin="round" stroke-width=".2"/><path d="m5.18,157.02l2.98-3.77" fill="#fff" fill-rule="evenodd" stroke="#040404" stroke-linecap="round" stroke-linejoin="round" stroke-width=".2"/><path d="m8.17,151.41l-4.39,5.58" fill="#fff" fill-rule="evenodd" stroke="#040404" stroke-linecap="round" stroke-linejoin="round" stroke-width=".2"/><path d="m7.73,150.16l-4.14,5.3" fill="#fff" fill-rule="evenodd" stroke="#040404" stroke-linecap="round" stroke-linejoin="round" stroke-width=".2"/><path d="m6.9,149.27l-3.34,4.38" fill="#fff" fill-rule="evenodd" stroke="#040404" stroke-linecap="round" stroke-linejoin="round" stroke-width=".2"/><path d="m5.61,149.05l-2.04,2.62" fill="#fff" fill-rule="evenodd" stroke="#040404" stroke-linecap="round" stroke-linejoin="round" stroke-width=".2"/><path d="m5.91,157.01l-2.35-3.34" fill="#fff" fill-rule="evenodd" stroke="#040404" stroke-linecap="round" stroke-linejoin="round" stroke-width=".2"/><path d="m3.62,155.49l.97,1.53" fill="#fff" fill-rule="evenodd" stroke="#040404" stroke-linecap="round" stroke-linejoin="round" stroke-width=".2"/><path d="m7.46,157.01l-3.87-5.05" fill="#fff" fill-rule="evenodd" stroke="#040404" stroke-linecap="round" stroke-linejoin="round" stroke-width=".2"/><path d="m8.15,156.05l-4.44-5.62" fill="#fff" fill-rule="evenodd" stroke="#040404" stroke-linecap="round" stroke-linejoin="round" stroke-width=".2"/><path d="m8.15,154.08l-3.88-4.56" fill="#fff" fill-rule="evenodd" stroke="#040404" stroke-linecap="round" stroke-linejoin="round" stroke-width=".2"/><path d="m8.18,152.27l-2.81-3.19" fill="#fff" fill-rule="evenodd" stroke="#040404" stroke-linecap="round" stroke-linejoin="round" stroke-width=".2"/><path d="m8.8,150.48l-.61.13" fill="#ccc" fill-rule="evenodd" stroke="#040404" stroke-linecap="round" stroke-linejoin="round" stroke-width=".2"/></svg>