<?xml version="1.0" encoding="UTF-8"?><svg id="Layer_1" xmlns="http://www.w3.org/2000/svg" xmlns:xlink="http://www.w3.org/1999/xlink" viewBox="0 0 23.8 371.75"><defs><linearGradient id="linear-gradient" x1="699.96" y1="256.71" x2="708.7" y2="256.71" gradientTransform="translate(-353.29 499.31) scale(.51 -1.11)" gradientUnits="userSpaceOnUse"><stop offset="0" stop-color="#000"/><stop offset="1" stop-color="#000" stop-opacity="0"/></linearGradient><linearGradient id="linear-gradient-2" x1="-2110.59" y1="256.5" x2="-2101.85" y2="256.5" gradientTransform="translate(-1049.28 498.89) rotate(-180) scale(.51 1.11)" gradientUnits="userSpaceOnUse"><stop offset="0" stop-color="#000"/><stop offset="1" stop-color="#000" stop-opacity="0"/></linearGradient><linearGradient id="linear-gradient-3" x1="699.96" y1="256.71" x2="708.7" y2="256.71" gradientTransform="translate(-353.29 499.31) scale(.51 -1.11)" gradientUnits="userSpaceOnUse"><stop offset="0" stop-color="#000"/><stop offset="1" stop-color="#000" stop-opacity="0"/></linearGradient><linearGradient id="linear-gradient-4" x1="-2110.59" y1="256.5" x2="-2101.85" y2="256.5" gradientTransform="translate(-1049.28 498.89) rotate(-180) scale(.51 1.11)" gradientUnits="userSpaceOnUse"><stop offset="0" stop-color="#000"/><stop offset="1" stop-color="#000" stop-opacity="0"/></linearGradient><linearGradient id="linear-gradient-5" x1="698.26" y1="-12969.94" x2="707" y2="-12969.94" gradientTransform="translate(-352.88 -689.67) scale(.51 -.06)" gradientUnits="userSpaceOnUse"><stop offset="0" stop-color="#000"/><stop offset="1" stop-color="#000" stop-opacity="0"/></linearGradient><linearGradient id="linear-gradient-6" x1="-2108.87" y1="-12974.12" x2="-2100.13" y2="-12974.12" gradientTransform="translate(-1049.72 -689.69) rotate(-180) scale(.51 .06)" gradientUnits="userSpaceOnUse"><stop offset="0" stop-color="#000"/><stop offset="1" stop-color="#000" stop-opacity="0"/></linearGradient><radialGradient id="radial-gradient" cx="506.93" cy="-390.49" fx="506.93" fy="-390.49" r="10.34" gradientTransform="translate(-282.99 -319.73) rotate(-7) scale(.49 -1.01)" gradientUnits="userSpaceOnUse"><stop offset="0" stop-color="#f9f9f9"/><stop offset="1" stop-color="#f9f9f9"/></radialGradient><linearGradient id="linear-gradient-7" x1="-16.57" y1="-336.54" x2="-13.92" y2="-336.54" gradientTransform="translate(36.71 -275.48) scale(1 -1)" gradientUnits="userSpaceOnUse"><stop offset="0" stop-color="#fff"/><stop offset="1" stop-color="#f2f2f2"/></linearGradient><linearGradient id="linear-gradient-8" x1="-35.71" y1="-336.54" x2="-33.06" y2="-336.54" gradientTransform="translate(36.71 -275.48) scale(1 -1)" gradientUnits="userSpaceOnUse"><stop offset="0" stop-color="#ececec"/><stop offset="1" stop-color="#fff"/></linearGradient></defs><rect x="2.57" y="68.49" width="18.67" height="291.82" fill="#fff" stroke-width="0"/><rect x="2.75" y="68.69" width="9.26" height="291.49" fill="url(#linear-gradient)" isolation="isolate" opacity=".03" stroke-width="0"/><rect x="11.88" y="68.63" width="9.12" height="291.39" fill="url(#linear-gradient-2)" isolation="isolate" opacity=".03" stroke-width="0"/><rect x="2" y="360.7" width=".45" height=".48" fill="#f7f7f7" stroke-width="0"/><rect x="21.21" y="360.7" width=".59" height=".6" fill="#f7f7f7" stroke-width="0"/><path d="m3.39,365.1c-.02-.05-.05-.12-.05-.15v-.05s3.39,0,3.39,0l.02.09c.02.08.01.1,0,.14l-.02.05h-3.28l-.04-.09v.02Z" fill="#f7f7f7" stroke-width="0"/><path d="m7.19,365.1c-.02-.05-.05-.12-.05-.15v-.05s1.74,0,1.74,0c1.45,0,1.74,0,1.74.02,0,.03-.06.2-.09.24l-.02.04h-3.28l-.04-.09h0Z" fill="#f7f7f7" stroke-width="0"/><path d="m10.92,365.3c.04-.09.07-.21.08-.27v-.07h.89c.96,0,.9-.01.9.08,0,.02.02.09.04.16l.04.13h-.98c-.93,0-.98,0-.97-.03h0Z" fill="#f7f7f7" stroke-width="0"/><path d="m13.24,365.1s-.04-.11-.05-.15l-.02-.07h1.75c1.19,0,1.75,0,1.75.02,0,.03-.06.21-.09.25l-.02.03h-3.28l-.03-.07h0Z" fill="#f7f7f7" stroke-width="0"/><path d="m17.05,365.2s-.02-.07,0-.15l.02-.09h1.7c1.16,0,1.7,0,1.7.02,0,.03-.06.21-.09.25l-.02.03h-3.28l-.03-.05h0Z" fill="#f7f7f7" stroke-width="0"/><path d="m2.59,360.3l18.57.03v3.27s-.69,1.75-.69,1.75l-17.17-.05-.7-1.75-.02-3.25Z" fill="#101010" stroke-width="0"/><path d="m6.79,368c-.19-.48-.45-1.03-.71-1.53l-.1-.19.04-.08c.07-.13.24-.42.34-.58l.04-.06h.2c.11,0,.33,0,.49,0h.29l.04.06c.09.14.3.52.36.62l.02.03-.05.1c-.28.53-.56,1.13-.78,1.69l-.04.09h-.07l-.06-.16h0Z" fill="#333" stroke-width="0"/><path d="m16.69,367.8c-.19-.48-.45-1.03-.71-1.53l-.1-.19.04-.08c.07-.13.24-.42.34-.58l.04-.06h.2c.11,0,.33,0,.49,0h.29l.04.06c.09.14.3.52.36.62l.02.03-.05.1c-.28.53-.56,1.13-.78,1.69l-.04.09h-.07l-.06-.16h0Z" fill="#333" stroke-width="0"/><path d="m10.75,367.3c.08-.16.23-.43.33-.62l.19-.33-.22-.39-.22-.39h-.38c-.32,0-.38-.01-.38-.04,0-.03-.03-.04-.16-.03-.16.01-.17.01-.22.1l-.05.09.28.54c.16.3.37.72.47.94.1.22.19.4.2.4,0,0,.08-.13.16-.28h0Z" fill="#333" stroke-width="0"/><path d="m13.04,367.3c-.08-.16-.23-.43-.33-.62l-.19-.33.22-.39.22-.39h.38c.32,0,.38-.01.38-.04,0-.03.03-.04.16-.03.16.01.17.01.22.1l.05.09-.28.54c-.16.3-.37.72-.47.94-.1.22-.19.4-.2.4,0,0-.08-.13-.16-.28h0Z" fill="#333" stroke-width="0"/><path d="m9.5,371.5s.08-.38.1-.42c.17-2.25.36-1.78,1.07-3.15,0-.07.49-1.05.76-1.52l.14-.24v-.63h.68v.64l.15.25c.15.27.57,1.08.67,1.3l.06.13c.89,2.4.22.29,1.14,3.39.02.1.04.2.04.22,0,.03,0,.03-2.4.03-1.32,0-2.4,0-2.4-.01h0Z" fill="#333" stroke-width="0"/><path d="m2.57,151.71h18.65" fill="none" stroke="#000" stroke-width=".4"/><path d="m15.43,365.4h-1.02" fill="none" stroke="#000" stroke-width=".4"/><path d="m4.52,370.7h4.91" fill="none" stroke="#000" stroke-width=".4"/><path d="m6.47,365.4h1.02" fill="none" stroke="#000" stroke-width=".4"/><path d="m7.93,366.2c-.14-.28-.29-.56-.44-.83" fill="none" stroke="#000" stroke-width=".4"/><path d="m6.47,365.4c-.15.27-.3.55-.44.83" fill="none" stroke="#000" stroke-width=".4"/><path d="m9.85,365.4h.76" fill="none" stroke="#000" stroke-width=".4"/><path d="m11.36,366.3c-.14-.29-.29-.57-.45-.85" fill="none" stroke="#000" stroke-width=".4"/><path d="m9.85,365.4c-.08.14-.16.28-.23.42" fill="none" stroke="#000" stroke-width=".4"/><path d="m19.27,370.7h-4.91" fill="none" stroke="#000" stroke-width=".4"/><path d="m17.33,365.4h-1.02" fill="none" stroke="#000" stroke-width=".4"/><path d="m16.31,365.4c-.15.27-.3.55-.44.83" fill="none" stroke="#000" stroke-width=".4"/><path d="m17.77,366.2c-.14-.28-.29-.56-.44-.83" fill="none" stroke="#000" stroke-width=".4"/><path d="m13.94,365.4h-.76" fill="none" stroke="#000" stroke-width=".4"/><path d="m6.92,364.7c-.01.25.07.49.22.68" fill="none" stroke="#000" stroke-width=".4"/><path d="m10.61,365.4c.15-.2.23-.44.22-.68" fill="none" stroke="#000" stroke-width=".4"/><path d="m7.14,365.4h3.48" fill="none" stroke="#000" stroke-width=".4"/><path d="m12.96,364.7c-.01.25.07.49.22.68" fill="none" stroke="#000" stroke-width=".4"/><path d="m16.66,365.4c.15-.2.23-.44.22-.68" fill="none" stroke="#000" stroke-width=".4"/><path d="m13.18,365.4h3.48" fill="none" stroke="#000" stroke-width=".4"/><path d="m10.91,365.5h1.97" fill="none" stroke="#000" stroke-width=".4"/><path d="m10.1,365.4s.04.05.05.08" fill="none" stroke="#000" stroke-width=".4"/><path d="m13.64,365.5s.04-.05.05-.08" fill="none" stroke="#000" stroke-width=".4"/><path d="m10.16,365.5h3.48" fill="none" stroke="#000" stroke-width=".4"/><path d="m12.93,365.5c-.16.28-.31.56-.45.85" fill="none" stroke="#000" stroke-width=".4"/><path d="m12.93,365.5c-.16.28-.31.56-.45.85" fill="none" stroke="#000" stroke-width=".4"/><path d="m14.2,365.8c-.07-.13-.14-.25-.21-.38" fill="none" stroke="#000" stroke-width=".4"/><path d="m2.57,116.01h18.65" fill="none" stroke="#000" stroke-width=".4"/><path d="m21.22,69.17v294.05c-.02.54-.19,1.06-.49,1.51H3.06c-.3-.45-.46-.97-.49-1.51V69.17" fill="none" stroke="#000" stroke-width=".4"/><path d="m9.64,370.7c-.07.28-.12.55-.18.83h4.91c-.05-.28-.11-.56-.18-.83" fill="none" stroke="#000" stroke-width=".4"/><path d="m10.56,368c.25-.58.53-1.16.85-1.71v-.75" fill="none" stroke="#000" stroke-width=".4"/><path d="m12.43,365.5v.75c.3.53.58,1.08.82,1.65" fill="none" stroke="#000" stroke-width=".4"/><path d="m6.98,368.6c-.36-1.09-.82-2.14-1.39-3.14h-1.02c-.94,1.65-1.6,3.45-1.95,5.32h4.91" fill="#333" stroke="#000" stroke-width=".4"/><path d="m3.12,364.7c-.01.25.07.49.22.68h3.48c.07-.09.12-.19.16-.3" fill="none" stroke="#000" stroke-width=".4"/><path d="m16.82,365.1c.04.11.09.21.16.3h3.48c.15-.2.23-.44.22-.68" fill="none" stroke="#000" stroke-width=".4"/><path d="m16.26,370.7h4.91c-.35-1.87-1.01-3.66-1.95-5.32h-1.02c-.57,1-1.03,2.05-1.39,3.14" fill="#333" stroke="#000" stroke-width=".4"/><path d="m15.43,365.4c.94,1.65,1.6,3.45,1.95,5.32h-4.91c.35-1.87,1.01-3.66,1.95-5.32" fill="#333" stroke="#000" stroke-width=".4"/><path d="m8.37,365.4c-.94,1.65-1.6,3.45-1.95,5.32h4.91c-.35-1.87-1.01-3.66-1.95-5.32h-1.02Z" fill="#333" stroke="#000" stroke-width=".4"/><path d="m2.57,360.3h18.65" fill="none" stroke="#000" stroke-width=".4"/><path d="m3.48,348.1l.05-.14.08-.16.11-.16.14-.16.16-.15.18-.14.2-.11.21-.08.23-.04h.23s.24.05.24.05l.24.11.4,1.06,1.27,3.5.42,1.17.42,1.17,1.27,3.5.42,1.17.85,2.33.11.28.02.03.02.03.02.03.02.03.03.03.03.02.03.02.03.02.03.02.03.02h.03s.03.02.03.02l.07.02h.13s.18,0,.18,0l.05-.02.05-.05.05-.07.05-.09.05-.11.04-.13.04-.14.04-.15.03-.16.03-.16.02-.16-.19-1.82-.45-3.82-.45-3.82-.9-7.63-2.69-22.89-.45-3.82-.29-2.58v-.5s0-.25,0-.25l-.02-2.01v-.31s-.05-.49-.05-.49l-.04-.44-.04-.4-.04-.36-.04-.32-.04-.29-.04-.26-.04-.23-.04-.21-.04-.19-.04-.17-.04-.16-.05-.14-.05-.13-.05-.12-.05-.11-.05-.1-.05-.09-.05-.08-.05-.07-.05-.07-.05-.06-.05-.05-.05-.04-.05-.04-.05-.03-.06-.03-.06-.02h-.06s-.06-.02-.06-.02h-.06s-.06,0-.06,0h-.06s-.06.03-.06.03l-.06.02-.06.03-.06.03-.06.04-.06.05-.06.05-.07.06-.07.07-.07.08-.07.08-.07.09-.07.1-.07.11-.07.12-.07.13-.08.14-.08.14-.08.15-.08.16-.08.16-.08.17-.07.17-.07.17-.07.17-.07.17-.07.17-.06.17-.06.17-.06.17-.05.17-.05.17-.05.17-.04.17-.04.17-.03.17-.03.17" fill="#f2f2f2" stroke="#000" stroke-width=".4"/><path d="m3.48,348.1l-.04.22-.04.22-.04.22-.04.23-.04.23-.04.24-.04.24-.03.24-.03.25-.03.25-.03.25-.03.25-.03.26-.03.26-.03.26-.03.26-.03.27-.03.27-.03.27-.03.27-.03.27-.03.28-.06.55-.06.56-.06.56-.12,1.13-.06.56-.06.56-.06.56-.06.55-.03.28-.03.27-.03.27-.03.27-.03.27-.03.27-.03.26-.03.26-.03.26-.03.26v.13s-.02.05-.02.05h0s0,.01,0,.01v.02s-.01.01-.01.01h0s-.02.04-.02.04h-.07l-.03-.02-.07-.04-.06-.04-.06-.04-.06-.04-.06-.04-.06-.04-.05-.04-.05-.04-.05-.04-.05-.04-.05-.04-.05-.04-.04-.04-.04-.04-.04-.04-.04-.04-.04-.04-.07-.09-.06-.09-.06-.09-.05-.09-.05-.09-.05-.09-.04-.09-.04-.09-.03-.09-.03-.09-.03-.09-.03-.09-.02-.09-.02-.09-.02-.09-.02-.09v-.05s-.01-.02-.01-.02h0s0-.01,0-.01h0s0,0,0,0h0s0-.07,0-.07v-.11s.24-7.21.24-7.21l.48-14.43.72-21.64.06-1.8.02-.45v-.03s0,0,0,0h0s0,0,0,0h0s0,0,0,0h0s0-.02,0-.02v-.05s.02-.09.02-.09v-.09s.03-.09.03-.09v-.09s.03-.08.03-.08v-.08s.03-.08.03-.08v-.08s.03-.08.03-.08l.02-.08.03-.15.03-.14.03-.14.03-.14.03-.14.04-.14.04-.14.04-.14.04-.14.04-.14.05-.14.05-.15.05-.15.03-.08.03-.08.03-.08.03-.08.03-.08.03-.08.04-.08.04-.08.04-.08.04-.09.04-.09.04-.09.05-.09.05-.09" fill="#f2f2f2" stroke="#000" stroke-linecap="round" stroke-width=".4"/><path d="m20.35,348.1l-.05-.14-.08-.16-.11-.16-.14-.16-.16-.15-.18-.14-.2-.11-.21-.08-.23-.04h-.23s-.24.05-.24.05l-.24.11-.4,1.06-1.27,3.5-.42,1.17-1.69,4.66-.42,1.17-.85,2.33-.11.28-.02.03-.02.03-.02.03-.02.03-.03.03-.03.02-.03.02-.03.02-.03.02-.03.02h-.03s-.03.02-.03.02l-.07.02h-.13s-.18,0-.18,0l-.05-.02-.05-.05-.05-.07-.05-.09-.05-.11-.04-.13-.04-.14-.04-.15-.03-.16-.03-.16-.02-.16.19-1.82.45-3.82.45-3.82.45-3.82.9-7.63.9-7.63.45-3.82.9-7.63.45-3.82.29-2.58v-.5s0-.25,0-.25l.02-2.01v-.31s.05-.49.05-.49l.04-.44.04-.4.04-.36.04-.32.04-.29.04-.26.04-.23.04-.21.04-.19.04-.17.04-.16.05-.14.05-.13.05-.12.05-.11.05-.1.05-.09.05-.08.05-.07.05-.07.05-.06.05-.05.05-.04.05-.04.05-.03.06-.03.06-.02h.06s.06-.02.06-.02h.06s.06,0,.06,0h.06s.06.03.06.03l.06.02.06.03.06.03.06.04.06.05.06.05.07.06.07.07.07.08.07.08.07.09.07.1.07.11.07.12.07.13.08.14.08.14.08.15.08.16.08.16.08.17.07.17.07.17.07.17.07.17.07.17.06.17.06.17.06.17.05.17.05.17.05.17.04.17.04.17.03.17.03.17" fill="#f2f2f2" stroke="#000" stroke-width=".4"/><path d="m20.35,348.1l.04.22.04.22.04.22.04.23.04.23.04.24.04.24.03.24.03.25.03.25.03.25.03.25.03.26.03.26.03.26.03.26.03.27.03.27.03.27.03.27.03.27.03.28.06.55.06.56.06.56.12,1.13.06.56.06.56.06.56.06.55.03.28.03.27.03.27.03.27.03.27.03.27.03.26.03.26.03.26.03.26v.13s.02.05.02.05h0s0,.01,0,.01v.02s.01.01.01.01h0s.02.04.02.04h.07l.03-.02.07-.04.06-.04.06-.04.06-.04.06-.04.06-.04.05-.04.05-.04.05-.04.05-.04.05-.04.05-.04.04-.04.04-.04.04-.04.04-.04.04-.04.07-.09.06-.09.06-.09.05-.09.05-.09.05-.09.04-.09.04-.09.03-.09.03-.09.03-.09.03-.09.02-.09.02-.09.02-.09.02-.09v-.05s.01-.02.01-.02h0s0-.01,0-.01h0s0,0,0,0h0s0-.07,0-.07v-.11s-.24-7.21-.24-7.21l-.48-14.43-.48-14.43-.24-7.21-.06-1.8-.02-.45v-.03s0,0,0,0h0s0,0,0,0h0s0,0,0,0h0s0-.02,0-.02v-.05s-.02-.09-.02-.09v-.09s-.03-.09-.03-.09v-.09s-.03-.08-.03-.08v-.08s-.03-.08-.03-.08v-.08s-.03-.08-.03-.08l-.02-.08-.03-.15-.03-.14-.03-.14-.03-.14-.03-.14-.04-.14-.04-.14-.04-.14-.04-.14-.04-.14-.05-.14-.05-.15-.05-.15-.03-.08-.03-.08-.03-.08-.03-.08-.03-.08-.03-.08-.04-.08-.04-.08-.04-.08-.04-.09-.04-.09-.04-.09-.05-.09-.05-.09" fill="#f2f2f2" stroke="#000" stroke-linecap="round" stroke-width=".4"/><path d="m6.42,310.97l-1.23-1.31" fill="none" stroke="#000" stroke-width=".4"/><path d="m5.19,309.66h-2.25" fill="none" stroke="#000" stroke-width=".4"/><path d="m2.67,340l.17-24.12" fill="none" stroke="#000" stroke-width=".4"/><path d="m2.84,315.9l2.16-2.93" fill="none" stroke="#000" stroke-width=".4"/><path d="m2.84,315.9l-1.03-2.67" fill="none" stroke="#000" stroke-width=".4"/><path d="m5,312.98l.18-3.32" fill="none" stroke="#000" stroke-linecap="round" stroke-width=".4"/><path d="m1.98,360.7h.61" fill="none" stroke="#000" stroke-width=".4"/><path d="m1.9,361.3h.69" fill="none" stroke="#000" stroke-width=".4"/><path d="m11.61,361.3h.61" fill="none" stroke="#000" stroke-width=".4"/><path d="m11.81,360.7h.22" fill="none" stroke="#000" stroke-width=".4"/><path d="m.66,360.6l.36-4.51.12-1.5.59-7.51.12-1.5.36-4.51.05-.48.03-.12.04-.1.04-.09.05-.07.05-.06.06-.04.06-.03.06-.02h.06s.07-.01.07-.01h.07s.07.03.07.03l.06.03.06.03.06.04.06.04.06.05.06.05.06.05.05.06.05.06.05.06.05.06.05.06.04.06.18.44,1.75,4.71.58,1.57,1.75,4.71,1.17,3.14.58,1.57,1.17,3.14.58,1.57" fill="none" stroke="#000" stroke-width=".4"/><path d="m17.41,310.97l1.23-1.31" fill="none" stroke="#000" stroke-width=".4"/><path d="m18.64,309.66h2.25" fill="none" stroke="#000" stroke-width=".4"/><path d="m21.16,340l-.17-24.12" fill="none" stroke="#000" stroke-width=".4"/><path d="m20.99,315.9l-2.16-2.93" fill="none" stroke="#000" stroke-width=".4"/><path d="m20.99,315.9l1.03-2.67" fill="none" stroke="#000" stroke-width=".4"/><path d="m18.83,312.98l-.18-3.32" fill="none" stroke="#000" stroke-linecap="round" stroke-width=".4"/><path d="m21.85,360.7h-.61" fill="none" stroke="#000" stroke-width=".4"/><path d="m21.93,361.3h-.69" fill="none" stroke="#000" stroke-width=".4"/><path d="m23.17,360.6l-.12-1.5-.12-1.5-.59-7.51-.12-1.5-.47-6.01-.12-1.5-.05-.48-.03-.12-.04-.1-.04-.09-.05-.07-.05-.06-.06-.04-.06-.03-.06-.02h-.06s-.07-.01-.07-.01h-.07s-.07.03-.07.03l-.06.03-.06.03-.06.04-.06.04-.06.05-.06.05-.06.05-.05.06-.05.06-.05.06-.05.06-.05.06-.04.06-.18.44-.58,1.57-1.17,3.14-.58,1.57-1.75,4.71-1.17,3.14-.58,1.57-1.75,4.71" fill="none" stroke="#000" stroke-width=".4"/><path d="m13.29,298.3h-3.87l-.14.11v3.44h1.07v-1.29l.1-.09h2.84c.72,0,1.05-.19,1.05-.69v-.79c0-.5-.34-.69-1.05-.69m0,1.27c0,.23-.15.28-.49.28h-2.34l-.11-.11v-.74l.1-.09h2.35c.34,0,.49.05.49.28v.38h0Z" fill="#005288" stroke-width="0"/><polyline points="11.04 306.13 11.96 307.48 11.91 307.61 9.87 307.61 9.35 308.25 12.39 308.25 12.6 308.38 13.07 309.03 14.29 309.03 11.61 305.43" fill="#005288" stroke-width="0"/><polyline points="10.48 324.06 10.48 323.1 10.59 323.01 12.64 323.01 12.64 322.4 9.39 322.4 9.39 324.76 14.18 324.76 14.18 324.15 10.59 324.15" fill="#005288" stroke-width="0"/><rect x="9.39" y="321.21" width="4.84" height=".67" fill="#005288" stroke-width="0"/><path d="m10.46,313.8h3.9c-.06-.5-.37-.63-1.15-.63h-2.79c-.88,0-1.16.17-1.16.84v1.87c0,.67.28.84,1.16.84h2.79c.79,0,1.1-.15,1.12-.66h-3.87l-.11-.11v-2.07" fill="#005288" stroke-width="0"/><path d="m13.25,291.5h-2.84l-.08-.09v-.61l.08-.06h3.83l.05-.13c-.13-.34-.47-.49-1.09-.49h-2.66c-.88,0-1.16.17-1.16.84v.39c0,.67.28.84,1.16.84h2.83l.09.08v.63l-.07.1h-3.24s-.85,0-.85,0c0,0-.1.05-.09.07.07.47.39.6,1.15.6h2.9c.88,0,1.17-.17,1.17-.84v-.49c0-.67-.29-.84-1.17-.84" fill="#005288" stroke-width="0"/><path d="m10.52,329.43h-1.59l-.09.16,1.77,1.29c.34-.19.7-.39,1.1-.58" fill="#005288" stroke-width="0"/><path d="m11.94,331.86l1.56,1.13h1.61l.07-.15-2.32-1.7c-.31.23-.61.47-.91.72" fill="#005288" stroke-width="0"/><path d="m10.28,332.99h-1.44l-.12-.19c.98-.95,5.46-4.5,11.28-4.96,0,0-5.1.57-9.72,5.15" fill="#a7a9ac" stroke-width="0"/><rect x="7.29" y="140.1" width="9.2" height="5.17" fill="#b22234" stroke-width="0"/><path d="m7.29,140.7h9.2m0,.8H7.29m0,.8h9.2m0,.8H7.29m0,.8h9.2m0,.8H7.29" stroke="#fff" stroke-miterlimit="10" stroke-width=".37"/><rect x="7.29" y="140.1" width="3.68" height="2.78" fill="#3c3b6e" stroke-width="0"/><path d="m7.59,140.22l.09.29-.23-.18h.28l-.23.18.09-.29Z" fill="#fff" stroke-width="0"/><path id="s" d="m7.59,140.78l.09.29-.23-.18h.28l-.23.18.09-.29Z" fill="#fff" stroke-width="0"/><path id="s-2" d="m7.59,141.34l.09.29-.23-.18h.28l-.23.18.09-.29Z" fill="#fff" stroke-width="0"/><path id="s-3" d="m7.59,141.89l.09.29-.23-.18h.28l-.23.18.09-.29Z" fill="#fff" stroke-width="0"/><path id="s-4" d="m7.59,142.45l.09.29-.23-.18h.28l-.23.18.09-.29Z" fill="#fff" stroke-width="0"/><g id="d"><path id="s-5" d="m7.9,140.5l.09.29-.23-.18h.28l-.23.18.09-.29Z" fill="#fff" stroke-width="0"/><path id="s-6" d="m7.9,141.06l.09.29-.23-.18h.28l-.23.18.09-.29Z" fill="#fff" stroke-width="0"/><path id="s-7" d="m7.9,141.62l.09.29-.23-.18h.28l-.23.18.09-.29Z" fill="#fff" stroke-width="0"/><path id="s-8" d="m7.9,142.17l.09.29-.23-.18h.28l-.23.18.09-.29Z" fill="#fff" stroke-width="0"/></g><g id="a"><g id="c"><g id="d-2"><path id="s-9" d="m8.21,140.22l.09.29-.23-.18h.28l-.23.18.09-.29Z" fill="#fff" stroke-width="0"/><path id="s-10" d="m8.21,140.78l.09.29-.23-.18h.28l-.23.18.09-.29Z" fill="#fff" stroke-width="0"/><path id="s-11" d="m8.21,141.34l.09.29-.23-.18h.28l-.23.18.09-.29Z" fill="#fff" stroke-width="0"/><path id="s-12" d="m8.21,141.89l.09.29-.23-.18h.28l-.23.18.09-.29Z" fill="#fff" stroke-width="0"/></g><path id="s-13" d="m8.21,142.45l.09.29-.23-.18h.28l-.23.18.09-.29Z" fill="#fff" stroke-width="0"/></g><g id="d-3"><path id="s-14" d="m8.51,140.5l.09.29-.23-.18h.28l-.23.18.09-.29Z" fill="#fff" stroke-width="0"/><path id="s-15" d="m8.51,141.06l.09.29-.23-.18h.28l-.23.18.09-.29Z" fill="#fff" stroke-width="0"/><path id="s-16" d="m8.51,141.62l.09.29-.23-.18h.28l-.23.18.09-.29Z" fill="#fff" stroke-width="0"/><path id="s-17" d="m8.51,142.17l.09.29-.23-.18h.28l-.23.18.09-.29Z" fill="#fff" stroke-width="0"/></g></g><g id="e"><g id="a-2"><g id="c-2"><g id="d-4"><path id="s-18" d="m8.82,140.22l.09.29-.23-.18h.28l-.23.18.09-.29Z" fill="#fff" stroke-width="0"/><path id="s-19" d="m8.82,140.78l.09.29-.23-.18h.28l-.23.18.09-.29Z" fill="#fff" stroke-width="0"/><path id="s-20" d="m8.82,141.34l.09.29-.23-.18h.28l-.23.18.09-.29Z" fill="#fff" stroke-width="0"/><path id="s-21" d="m8.82,141.89l.09.29-.23-.18h.28l-.23.18.09-.29Z" fill="#fff" stroke-width="0"/></g><path id="s-22" d="m8.82,142.45l.09.29-.23-.18h.28l-.23.18.09-.29Z" fill="#fff" stroke-width="0"/></g><g id="d-5"><path id="s-23" d="m9.12,140.5l.09.29-.23-.18h.28l-.23.18.09-.29Z" fill="#fff" stroke-width="0"/><path id="s-24" d="m9.12,141.06l.09.29-.23-.18h.28l-.23.18.09-.29Z" fill="#fff" stroke-width="0"/><path id="s-25" d="m9.12,141.62l.09.29-.23-.18h.28l-.23.18.09-.29Z" fill="#fff" stroke-width="0"/><path id="s-26" d="m9.12,142.17l.09.29-.23-.18h.28l-.23.18.09-.29Z" fill="#fff" stroke-width="0"/></g></g><g id="a-3"><g id="c-3"><g id="d-6"><path id="s-27" d="m9.43,140.22l.09.29-.23-.18h.28l-.23.18.09-.29Z" fill="#fff" stroke-width="0"/><path id="s-28" d="m9.43,140.78l.09.29-.23-.18h.28l-.23.18.09-.29Z" fill="#fff" stroke-width="0"/><path id="s-29" d="m9.43,141.34l.09.29-.23-.18h.28l-.23.18.09-.29Z" fill="#fff" stroke-width="0"/><path id="s-30" d="m9.43,141.89l.09.29-.23-.18h.28l-.23.18.09-.29Z" fill="#fff" stroke-width="0"/></g><path id="s-31" d="m9.43,142.45l.09.29-.23-.18h.28l-.23.18.09-.29Z" fill="#fff" stroke-width="0"/></g><g id="d-7"><path id="s-32" d="m9.74,140.5l.09.29-.23-.18h.28l-.23.18.09-.29Z" fill="#fff" stroke-width="0"/><path id="s-33" d="m9.74,141.06l.09.29-.23-.18h.28l-.23.18.09-.29Z" fill="#fff" stroke-width="0"/><path id="s-34" d="m9.74,141.62l.09.29-.23-.18h.28l-.23.18.09-.29Z" fill="#fff" stroke-width="0"/><path id="s-35" d="m9.74,142.17l.09.29-.23-.18h.28l-.23.18.09-.29Z" fill="#fff" stroke-width="0"/></g></g></g><g id="a-4"><g id="c-4"><g id="d-8"><path id="s-36" d="m10.04,140.22l.09.29-.23-.18h.28l-.23.18.09-.29Z" fill="#fff" stroke-width="0"/><path id="s-37" d="m10.04,140.78l.09.29-.23-.18h.28l-.23.18.09-.29Z" fill="#fff" stroke-width="0"/><path id="s-38" d="m10.04,141.34l.09.29-.23-.18h.28l-.23.18.09-.29Z" fill="#fff" stroke-width="0"/><path id="s-39" d="m10.04,141.89l.09.29-.23-.18h.28l-.23.18.09-.29Z" fill="#fff" stroke-width="0"/></g><path id="s-40" d="m10.04,142.45l.09.29-.23-.18h.28l-.23.18.09-.29Z" fill="#fff" stroke-width="0"/></g><g id="d-9"><path id="s-41" d="m10.35,140.5l.09.29-.23-.18h.28l-.23.18.09-.29Z" fill="#fff" stroke-width="0"/><path id="s-42" d="m10.35,141.06l.09.29-.23-.18h.28l-.23.18.09-.29Z" fill="#fff" stroke-width="0"/><path id="s-43" d="m10.35,141.62l.09.29-.23-.18h.28l-.23.18.09-.29Z" fill="#fff" stroke-width="0"/><path id="s-44" d="m10.35,142.17l.09.29-.23-.18h.28l-.23.18.09-.29Z" fill="#fff" stroke-width="0"/></g></g><g id="c-5"><g id="d-10"><path id="s-45" d="m10.66,140.22l.09.29-.23-.18h.28l-.23.18.09-.29Z" fill="#fff" stroke-width="0"/><path id="s-46" d="m10.66,140.78l.09.29-.23-.18h.28l-.23.18.09-.29Z" fill="#fff" stroke-width="0"/><path id="s-47" d="m10.66,141.34l.09.29-.23-.18h.28l-.23.18.09-.29Z" fill="#fff" stroke-width="0"/><path id="s-48" d="m10.66,141.89l.09.29-.23-.18h.28l-.23.18.09-.29Z" fill="#fff" stroke-width="0"/></g><path id="s-49" d="m10.66,142.45l.09.29-.23-.18h.28l-.23.18.09-.29Z" fill="#fff" stroke-width="0"/></g><path d="m9.22,132.36c.31-.16.62-.33.94-.45-3.67-1.93-3.88-3.38-4.63-4.91.58,1.77,1.07,3.54,3.69,5.36h0Z" fill="#a80126" fill-rule="evenodd" stroke-width="0"/><path d="m7.31,129.46c1.4,1.17,2.61,2,3.51,2.26.89-.47,3.81-.73,3.75-.06-.64-.32-1.02-.17-1.39-.05.18,0,.67-.06.81,0-.06.07-.12.1-.19.14.24.05.46.12.65.23.12-.01.2,0,.24.03-.12.03-.27.19-.34.3.81.02,1.68.02,1.77.87.26-.76-.2-1.16-1.1-1.33-.12-.26-.31-.48-.49-.73-2.45-.14-4.89-.3-7.22-1.65h0Z" fill="#a80126" fill-rule="evenodd" stroke-width="0"/><path d="m5.39,135.38v-1.48h.99c-.04.05-.07.1-.16.14h-.62v.39h.55s-.07.09-.13.11h-.43v.53c-.05.12-.1.23-.21.32h0Z" fill-rule="evenodd" stroke-width="0"/><path d="m8.07,134.05v1.08h.28v-1.02c-.38-.35-.76-.35-1.14,0v1.02h.25v-.6h.2s.08-.05.1-.09h-.29v-.39c.23-.16.41-.16.6,0h0Z" fill-rule="evenodd" stroke-width="0"/><path d="m11.01,135.17h-1.14v-1.25h.29v1.15h1s-.06.09-.15.1h0Z" fill-rule="evenodd" stroke-width="0"/><path d="m12.71,133.9v.25c-.46.62.32,1.37,1.2.82h.07c-.55.6-2.54.1-1.27-1.07h0Z" fill-rule="evenodd" stroke-width="0"/><path d="m12.11,133.93v.45c.44-.79,1.05-1.18,2.91-.66-1.79-.7-2.45-.33-2.91.21Z" fill-rule="evenodd" stroke-width="0"/><path d="m15.58,133.8c-.37,0-.75.26-.75.73,0,.94,1.49.99,1.49,0,0-.5-.37-.73-.75-.73h0Zm0,.1c.22,0,.44.21.45.63,0,.85-.88.83-.88,0,0-.41.22-.63.44-.63h0Z" fill-rule="evenodd" stroke-width="0"/><path d="m17.72,134.05v1.13h-.22v-1.18l.22-.11v.05c.34,0,.58.15.64.24v1.01h-.22v-.99c-.08-.13-.17-.17-.43-.17v.03Z" fill-rule="evenodd" stroke-width="0"/><path d="m11.89,136.05c-2.3.01-1.7,1.85-.43,1.82.59-.02.7-.08,1.1-.5-.25,1.24-1.09,1.24-2.11,1.34-.13.08-.15.1-.24.24,1.72-.03,3.17-.34,3.13-1.68-.03-.94-.66-1.22-1.45-1.21h0Zm-.03.22c.42,0,.76.27.76.6h0c0,.33-.34.6-.76.6-.42,0-.76-.27-.76-.59,0-.33.34-.6.76-.6Z" fill-rule="evenodd" stroke-width="0"/><path d="m21.51,157.02l.03-6.41-1.06-1.56.03-1.69-.84-1.59-.28-.91-.69-.25-.69.06-.41.12-.38,1-.22,1.09-.03.94v1l.09.72-.81.91v6.47l.62.12,4.63-.03Z" fill="#fff" fill-rule="evenodd" stroke="#040404" stroke-linecap="round" stroke-linejoin="round" stroke-width=".2"/><path d="m16.89,150.61v6.43h4.62v-6.4l-.93-1.62h-2.21l-1.48,1.59Z" fill="none" stroke="#040404" stroke-linecap="square" stroke-linejoin="round" stroke-width=".2"/><path d="m20.52,156.91v-9.48l-.77-1.55c-.9-.42-1.67-.27-2.34.31l.11,2.89" fill="none" stroke="#040404" stroke-linecap="square" stroke-linejoin="round" stroke-width=".2"/><path d="m18.47,149.07v7.95" fill="none" stroke="#040404" stroke-linecap="square" stroke-linejoin="round" stroke-width=".2"/><path d="m18.4,149.04l-.75-.02-1.37,1.48v6.47l.63.06" fill="none" stroke="#040404" stroke-linecap="square" stroke-linejoin="round" stroke-width=".2"/><path d="m18.33,149l-.02-1.59-.86-1.1" fill="none" stroke="#040404" stroke-linecap="square" stroke-linejoin="round" stroke-width=".2"/><path d="m19.77,145.88l-.4-.97c-.49-.29-1.1-.29-1.77-.11-.66,1.51-.73,3.1-.51,4.73" fill="none" stroke="#040404" stroke-linecap="square" stroke-linejoin="round" stroke-width=".2"/><path d="m20.47,147.3c-.81-.33-1.51-.28-2.14-.02" fill="none" stroke="#040404" stroke-linecap="round" stroke-linejoin="round" stroke-width=".2"/><path d="m18.48,157.02l-1.57-1.73" fill="#fff" fill-rule="evenodd" stroke="#040404" stroke-linecap="round" stroke-linejoin="round" stroke-width=".2"/><path d="m19.89,157.02l-2.98-3.77" fill="#fff" fill-rule="evenodd" stroke="#040404" stroke-linecap="round" stroke-linejoin="round" stroke-width=".2"/><path d="m16.9,151.41l4.39,5.58" fill="#fff" fill-rule="evenodd" stroke="#040404" stroke-linecap="round" stroke-linejoin="round" stroke-width=".2"/><path d="m17.34,150.16l4.14,5.3" fill="#fff" fill-rule="evenodd" stroke="#040404" stroke-linecap="round" stroke-linejoin="round" stroke-width=".2"/><path d="m18.17,149.27l3.34,4.38" fill="#fff" fill-rule="evenodd" stroke="#040404" stroke-linecap="round" stroke-linejoin="round" stroke-width=".2"/><path d="m19.46,149.05l2.04,2.62" fill="#fff" fill-rule="evenodd" stroke="#040404" stroke-linecap="round" stroke-linejoin="round" stroke-width=".2"/><path d="m19.16,157.01l2.35-3.34" fill="#fff" fill-rule="evenodd" stroke="#040404" stroke-linecap="round" stroke-linejoin="round" stroke-width=".2"/><path d="m21.45,155.49l-.97,1.53" fill="#fff" fill-rule="evenodd" stroke="#040404" stroke-linecap="round" stroke-linejoin="round" stroke-width=".2"/><path d="m17.61,157.01l3.87-5.05" fill="#fff" fill-rule="evenodd" stroke="#040404" stroke-linecap="round" stroke-linejoin="round" stroke-width=".2"/><path d="m16.92,156.05l4.44-5.62" fill="#fff" fill-rule="evenodd" stroke="#040404" stroke-linecap="round" stroke-linejoin="round" stroke-width=".2"/><path d="m16.92,154.08l3.88-4.56" fill="#fff" fill-rule="evenodd" stroke="#040404" stroke-linecap="round" stroke-linejoin="round" stroke-width=".2"/><path d="m16.89,152.27l2.81-3.19" fill="#fff" fill-rule="evenodd" stroke="#040404" stroke-linecap="round" stroke-linejoin="round" stroke-width=".2"/><path d="m16.27,150.48l.61.13" fill="#ccc" fill-rule="evenodd" stroke="#040404" stroke-linecap="round" stroke-linejoin="round" stroke-width=".2"/><path d="m2.29,157.02l-.03-6.41,1.06-1.56-.03-1.69.84-1.59.28-.91.69-.25.69.06.41.12.38,1,.22,1.09.03.94v1l-.09.72.81.91v6.47l-.62.12-4.63-.03Z" fill="#fff" fill-rule="evenodd" stroke="#040404" stroke-linecap="round" stroke-linejoin="round" stroke-width=".2"/><path d="m6.91,150.61v6.43H2.28v-6.4l.93-1.62h2.21l1.48,1.59Z" fill="none" stroke="#040404" stroke-linecap="square" stroke-linejoin="round" stroke-width=".2"/><path d="m3.28,156.91v-9.48l.77-1.55c.9-.42,1.67-.27,2.34.31l-.11,2.89" fill="none" stroke="#040404" stroke-linecap="square" stroke-linejoin="round" stroke-width=".2"/><path d="m5.33,149.07v7.95" fill="none" stroke="#040404" stroke-linecap="square" stroke-linejoin="round" stroke-width=".2"/><path d="m5.4,149.04l.75-.02,1.37,1.48v6.47l-.63.06" fill="none" stroke="#040404" stroke-linecap="square" stroke-linejoin="round" stroke-width=".2"/><path d="m5.47,149l.02-1.59.86-1.1" fill="none" stroke="#040404" stroke-linecap="square" stroke-linejoin="round" stroke-width=".2"/><path d="m4.03,145.88l.4-.97c.49-.29,1.1-.29,1.77-.11.66,1.51.73,3.1.51,4.73" fill="none" stroke="#040404" stroke-linecap="square" stroke-linejoin="round" stroke-width=".2"/><path d="m3.33,147.3c.81-.33,1.51-.28,2.14-.02" fill="none" stroke="#040404" stroke-linecap="round" stroke-linejoin="round" stroke-width=".2"/><path d="m5.32,157.02l1.57-1.73" fill="#fff" fill-rule="evenodd" stroke="#040404" stroke-linecap="round" stroke-linejoin="round" stroke-width=".2"/><path d="m3.91,157.02l2.98-3.77" fill="#fff" fill-rule="evenodd" stroke="#040404" stroke-linecap="round" stroke-linejoin="round" stroke-width=".2"/><path d="m6.9,151.41l-4.39,5.58" fill="#fff" fill-rule="evenodd" stroke="#040404" stroke-linecap="round" stroke-linejoin="round" stroke-width=".2"/><path d="m6.46,150.16l-4.14,5.3" fill="#fff" fill-rule="evenodd" stroke="#040404" stroke-linecap="round" stroke-linejoin="round" stroke-width=".2"/><path d="m5.63,149.27l-3.34,4.38" fill="#fff" fill-rule="evenodd" stroke="#040404" stroke-linecap="round" stroke-linejoin="round" stroke-width=".2"/><path d="m4.34,149.05l-2.04,2.62" fill="#fff" fill-rule="evenodd" stroke="#040404" stroke-linecap="round" stroke-linejoin="round" stroke-width=".2"/><path d="m4.64,157.01l-2.35-3.34" fill="#fff" fill-rule="evenodd" stroke="#040404" stroke-linecap="round" stroke-linejoin="round" stroke-width=".2"/><path d="m2.35,155.49l.97,1.53" fill="#fff" fill-rule="evenodd" stroke="#040404" stroke-linecap="round" stroke-linejoin="round" stroke-width=".2"/><path d="m6.19,157.01l-3.87-5.05" fill="#fff" fill-rule="evenodd" stroke="#040404" stroke-linecap="round" stroke-linejoin="round" stroke-width=".2"/><path d="m6.88,156.05l-4.44-5.62" fill="#fff" fill-rule="evenodd" stroke="#040404" stroke-linecap="round" stroke-linejoin="round" stroke-width=".2"/><path d="m6.88,154.08l-3.88-4.56" fill="#fff" fill-rule="evenodd" stroke="#040404" stroke-linecap="round" stroke-linejoin="round" stroke-width=".2"/><path d="m6.91,152.27l-2.81-3.19" fill="#fff" fill-rule="evenodd" stroke="#040404" stroke-linecap="round" stroke-linejoin="round" stroke-width=".2"/><path d="m7.53,150.48l-.61.13" fill="#ccc" fill-rule="evenodd" stroke="#040404" stroke-linecap="round" stroke-linejoin="round" stroke-width=".2"/><rect x="2.57" y="68.49" width="18.67" height="291.82" fill="#fff" stroke-width="0"/><rect x="2.75" y="68.69" width="9.26" height="291.49" fill="url(#linear-gradient-3)" isolation="isolate" opacity=".03" stroke-width="0"/><rect x="11.88" y="68.63" width="9.12" height="291.39" fill="url(#linear-gradient-4)" isolation="isolate" opacity=".03" stroke-width="0"/><rect x="2" y="360.7" width=".45" height=".48" fill="#f7f7f7" stroke-width="0"/><rect x="21.21" y="360.7" width=".59" height=".6" fill="#f7f7f7" stroke-width="0"/><path d="m3.39,365.1c-.02-.05-.05-.12-.05-.15v-.05s3.39,0,3.39,0l.02.09c.02.08.01.1,0,.14l-.02.05h-3.28l-.04-.09v.02Z" fill="#f7f7f7" stroke-width="0"/><path d="m7.19,365.1c-.02-.05-.05-.12-.05-.15v-.05s1.74,0,1.74,0c1.45,0,1.74,0,1.74.02,0,.03-.06.2-.09.24l-.02.04h-3.28l-.04-.09h0Z" fill="#f7f7f7" stroke-width="0"/><path d="m10.92,365.3c.04-.09.07-.21.08-.27v-.07h.89c.96,0,.9-.01.9.08,0,.02.02.09.04.16l.04.13h-.98c-.93,0-.98,0-.97-.03h0Z" fill="#f7f7f7" stroke-width="0"/><path d="m13.24,365.1s-.04-.11-.05-.15l-.02-.07h1.75c1.19,0,1.75,0,1.75.02,0,.03-.06.21-.09.25l-.02.03h-3.28l-.03-.07h0Z" fill="#f7f7f7" stroke-width="0"/><path d="m17.05,365.2s-.02-.07,0-.15l.02-.09h1.7c1.16,0,1.7,0,1.7.02,0,.03-.06.21-.09.25l-.02.03h-3.28l-.03-.05h0Z" fill="#f7f7f7" stroke-width="0"/><path d="m2.59,360.3l18.57.03v3.27s-.69,1.75-.69,1.75l-17.17-.05-.7-1.75-.02-3.25Z" fill="#101010" stroke-width="0"/><path d="m6.79,368c-.19-.48-.45-1.03-.71-1.53l-.1-.19.04-.08c.07-.13.24-.42.34-.58l.04-.06h.2c.11,0,.33,0,.49,0h.29l.04.06c.09.14.3.52.36.62l.02.03-.05.1c-.28.53-.56,1.13-.78,1.69l-.04.09h-.07l-.06-.16h0Z" fill="#333" stroke-width="0"/><path d="m16.69,367.8c-.19-.48-.45-1.03-.71-1.53l-.1-.19.04-.08c.07-.13.24-.42.34-.58l.04-.06h.2c.11,0,.33,0,.49,0h.29l.04.06c.09.14.3.52.36.62l.02.03-.05.1c-.28.53-.56,1.13-.78,1.69l-.04.09h-.07l-.06-.16h0Z" fill="#333" stroke-width="0"/><path d="m10.75,367.3c.08-.16.23-.43.33-.62l.19-.33-.22-.39-.22-.39h-.38c-.32,0-.38-.01-.38-.04,0-.03-.03-.04-.16-.03-.16.01-.17.01-.22.1l-.05.09.28.54c.16.3.37.72.47.94.1.22.19.4.2.4,0,0,.08-.13.16-.28h0Z" fill="#333" stroke-width="0"/><path d="m13.04,367.3c-.08-.16-.23-.43-.33-.62l-.19-.33.22-.39.22-.39h.38c.32,0,.38-.01.38-.04,0-.03.03-.04.16-.03.16.01.17.01.22.1l.05.09-.28.54c-.16.3-.37.72-.47.94-.1.22-.19.4-.2.4,0,0-.08-.13-.16-.28h0Z" fill="#333" stroke-width="0"/><path d="m9.5,371.5s.08-.38.1-.42c.17-2.25.36-1.78,1.07-3.15,0-.07.49-1.05.76-1.52l.14-.24v-.63h.68v.64l.15.25c.15.27.57,1.08.67,1.3l.06.13c.89,2.4.22.29,1.14,3.39.02.1.04.2.04.22,0,.03,0,.03-2.4.03-1.32,0-2.4,0-2.4-.01h0Z" fill="#333" stroke-width="0"/><path d="m2.57,151.71h18.65" fill="none" stroke="#000" stroke-width=".4"/><path d="m15.43,365.4h-1.02" fill="none" stroke="#000" stroke-width=".4"/><path d="m4.52,370.7h4.91" fill="none" stroke="#000" stroke-width=".4"/><path d="m6.47,365.4h1.02" fill="none" stroke="#000" stroke-width=".4"/><path d="m7.93,366.2c-.14-.28-.29-.56-.44-.83" fill="none" stroke="#000" stroke-width=".4"/><path d="m6.47,365.4c-.15.27-.3.55-.44.83" fill="none" stroke="#000" stroke-width=".4"/><path d="m9.85,365.4h.76" fill="none" stroke="#000" stroke-width=".4"/><path d="m11.36,366.3c-.14-.29-.29-.57-.45-.85" fill="none" stroke="#000" stroke-width=".4"/><path d="m9.85,365.4c-.08.14-.16.28-.23.42" fill="none" stroke="#000" stroke-width=".4"/><path d="m19.27,370.7h-4.91" fill="none" stroke="#000" stroke-width=".4"/><path d="m17.33,365.4h-1.02" fill="none" stroke="#000" stroke-width=".4"/><path d="m16.31,365.4c-.15.27-.3.55-.44.83" fill="none" stroke="#000" stroke-width=".4"/><path d="m17.77,366.2c-.14-.28-.29-.56-.44-.83" fill="none" stroke="#000" stroke-width=".4"/><path d="m13.94,365.4h-.76" fill="none" stroke="#000" stroke-width=".4"/><path d="m6.92,364.7c-.01.25.07.49.22.68" fill="none" stroke="#000" stroke-width=".4"/><path d="m10.61,365.4c.15-.2.23-.44.22-.68" fill="none" stroke="#000" stroke-width=".4"/><path d="m7.14,365.4h3.48" fill="none" stroke="#000" stroke-width=".4"/><path d="m12.96,364.7c-.01.25.07.49.22.68" fill="none" stroke="#000" stroke-width=".4"/><path d="m16.66,365.4c.15-.2.23-.44.22-.68" fill="none" stroke="#000" stroke-width=".4"/><path d="m13.18,365.4h3.48" fill="none" stroke="#000" stroke-width=".4"/><path d="m10.91,365.5h1.97" fill="none" stroke="#000" stroke-width=".4"/><path d="m10.1,365.4s.04.05.05.08" fill="none" stroke="#000" stroke-width=".4"/><path d="m13.64,365.5s.04-.05.05-.08" fill="none" stroke="#000" stroke-width=".4"/><path d="m10.16,365.5h3.48" fill="none" stroke="#000" stroke-width=".4"/><path d="m12.93,365.5c-.16.28-.31.56-.45.85" fill="none" stroke="#000" stroke-width=".4"/><path d="m12.93,365.5c-.16.28-.31.56-.45.85" fill="none" stroke="#000" stroke-width=".4"/><path d="m14.2,365.8c-.07-.13-.14-.25-.21-.38" fill="none" stroke="#000" stroke-width=".4"/><path d="m2.57,116.01h18.65" fill="none" stroke="#000" stroke-width=".4"/><path d="m21.22,69.17v294.05c-.02.54-.19,1.06-.49,1.51H3.06c-.3-.45-.46-.97-.49-1.51V69.17" fill="none" stroke="#000" stroke-width=".4"/><path d="m9.64,370.7c-.07.28-.12.55-.18.83h4.91c-.05-.28-.11-.56-.18-.83" fill="none" stroke="#000" stroke-width=".4"/><path d="m10.56,368c.25-.58.53-1.16.85-1.71v-.75" fill="none" stroke="#000" stroke-width=".4"/><path d="m12.43,365.5v.75c.3.53.58,1.08.82,1.65" fill="none" stroke="#000" stroke-width=".4"/><path d="m6.98,368.6c-.36-1.09-.82-2.14-1.39-3.14h-1.02c-.94,1.65-1.6,3.45-1.95,5.32h4.91" fill="#333" stroke="#000" stroke-width=".4"/><path d="m3.12,364.7c-.01.25.07.49.22.68h3.48c.07-.09.12-.19.16-.3" fill="none" stroke="#000" stroke-width=".4"/><path d="m16.82,365.1c.04.11.09.21.16.3h3.48c.15-.2.23-.44.22-.68" fill="none" stroke="#000" stroke-width=".4"/><path d="m16.26,370.7h4.91c-.35-1.87-1.01-3.66-1.95-5.32h-1.02c-.57,1-1.03,2.05-1.39,3.14" fill="#333" stroke="#000" stroke-width=".4"/><path d="m15.43,365.4c.94,1.65,1.6,3.45,1.95,5.32h-4.91c.35-1.87,1.01-3.66,1.95-5.32" fill="#333" stroke="#000" stroke-width=".4"/><path d="m8.37,365.4c-.94,1.65-1.6,3.45-1.95,5.32h4.91c-.35-1.87-1.01-3.66-1.95-5.32h-1.02Z" fill="#333" stroke="#000" stroke-width=".4"/><path d="m2.57,360.3h18.65" fill="none" stroke="#000" stroke-width=".4"/><path d="m3.48,348.1l.05-.14.08-.16.11-.16.14-.16.16-.15.18-.14.2-.11.21-.08.23-.04h.23s.24.05.24.05l.24.11.4,1.06,1.27,3.5.42,1.17.42,1.17,1.27,3.5.42,1.17.85,2.33.11.28.02.03.02.03.02.03.02.03.03.03.03.02.03.02.03.02.03.02.03.02h.03s.03.02.03.02l.07.02h.13s.18,0,.18,0l.05-.02.05-.05.05-.07.05-.09.05-.11.04-.13.04-.14.04-.15.03-.16.03-.16.02-.16-.19-1.82-.45-3.82-.45-3.82-.9-7.63-2.69-22.89-.45-3.82-.29-2.58v-.5s0-.25,0-.25l-.02-2.01v-.31s-.05-.49-.05-.49l-.04-.44-.04-.4-.04-.36-.04-.32-.04-.29-.04-.26-.04-.23-.04-.21-.04-.19-.04-.17-.04-.16-.05-.14-.05-.13-.05-.12-.05-.11-.05-.1-.05-.09-.05-.08-.05-.07-.05-.07-.05-.06-.05-.05-.05-.04-.05-.04-.05-.03-.06-.03-.06-.02h-.06s-.06-.02-.06-.02h-.06s-.06,0-.06,0h-.06s-.06.03-.06.03l-.06.02-.06.03-.06.03-.06.04-.06.05-.06.05-.07.06-.07.07-.07.08-.07.08-.07.09-.07.1-.07.11-.07.12-.07.13-.08.14-.08.14-.08.15-.08.16-.08.16-.08.17-.07.17-.07.17-.07.17-.07.17-.07.17-.06.17-.06.17-.06.17-.05.17-.05.17-.05.17-.04.17-.04.17-.03.17-.03.17" fill="#f2f2f2" stroke="#000" stroke-width=".4"/><path d="m3.48,348.1l-.04.22-.04.22-.04.22-.04.23-.04.23-.04.24-.04.24-.03.24-.03.25-.03.25-.03.25-.03.25-.03.26-.03.26-.03.26-.03.26-.03.27-.03.27-.03.27-.03.27-.03.27-.03.28-.06.55-.06.56-.06.56-.12,1.13-.06.56-.06.56-.06.56-.06.55-.03.28-.03.27-.03.27-.03.27-.03.27-.03.27-.03.26-.03.26-.03.26-.03.26v.13s-.02.05-.02.05h0s0,.01,0,.01v.02s-.01.01-.01.01h0s-.02.04-.02.04h-.07l-.03-.02-.07-.04-.06-.04-.06-.04-.06-.04-.06-.04-.06-.04-.05-.04-.05-.04-.05-.04-.05-.04-.05-.04-.05-.04-.04-.04-.04-.04-.04-.04-.04-.04-.04-.04-.07-.09-.06-.09-.06-.09-.05-.09-.05-.09-.05-.09-.04-.09-.04-.09-.03-.09-.03-.09-.03-.09-.03-.09-.02-.09-.02-.09-.02-.09-.02-.09v-.05s-.01-.02-.01-.02h0s0-.01,0-.01h0s0,0,0,0h0s0-.07,0-.07v-.11s.24-7.21.24-7.21l.48-14.43.72-21.64.06-1.8.02-.45v-.03s0,0,0,0h0s0,0,0,0h0s0,0,0,0h0s0-.02,0-.02v-.05s.02-.09.02-.09v-.09s.03-.09.03-.09v-.09s.03-.08.03-.08v-.08s.03-.08.03-.08v-.08s.03-.08.03-.08l.02-.08.03-.15.03-.14.03-.14.03-.14.03-.14.04-.14.04-.14.04-.14.04-.14.04-.14.05-.14.05-.15.05-.15.03-.08.03-.08.03-.08.03-.08.03-.08.03-.08.04-.08.04-.08.04-.08.04-.09.04-.09.04-.09.05-.09.05-.09" fill="#f2f2f2" stroke="#000" stroke-linecap="round" stroke-width=".4"/><path d="m20.35,348.1l-.05-.14-.08-.16-.11-.16-.14-.16-.16-.15-.18-.14-.2-.11-.21-.08-.23-.04h-.23s-.24.05-.24.05l-.24.11-.4,1.06-1.27,3.5-.42,1.17-1.69,4.66-.42,1.17-.85,2.33-.11.28-.02.03-.02.03-.02.03-.02.03-.03.03-.03.02-.03.02-.03.02-.03.02-.03.02h-.03s-.03.02-.03.02l-.07.02h-.13s-.18,0-.18,0l-.05-.02-.05-.05-.05-.07-.05-.09-.05-.11-.04-.13-.04-.14-.04-.15-.03-.16-.03-.16-.02-.16.19-1.82.45-3.82.45-3.82.45-3.82.9-7.63.9-7.63.45-3.82.9-7.63.45-3.82.29-2.58v-.5s0-.25,0-.25l.02-2.01v-.31s.05-.49.05-.49l.04-.44.04-.4.04-.36.04-.32.04-.29.04-.26.04-.23.04-.21.04-.19.04-.17.04-.16.05-.14.05-.13.05-.12.05-.11.05-.1.05-.09.05-.08.05-.07.05-.07.05-.06.05-.05.05-.04.05-.04.05-.03.06-.03.06-.02h.06s.06-.02.06-.02h.06s.06,0,.06,0h.06s.06.03.06.03l.06.02.06.03.06.03.06.04.06.05.06.05.07.06.07.07.07.08.07.08.07.09.07.1.07.11.07.12.07.13.08.14.08.14.08.15.08.16.08.16.08.17.07.17.07.17.07.17.07.17.07.17.06.17.06.17.06.17.05.17.05.17.05.17.04.17.04.17.03.17.03.17" fill="#f2f2f2" stroke="#000" stroke-width=".4"/><path d="m20.35,348.1l.04.22.04.22.04.22.04.23.04.23.04.24.04.24.03.24.03.25.03.25.03.25.03.25.03.26.03.26.03.26.03.26.03.27.03.27.03.27.03.27.03.27.03.28.06.55.06.56.06.56.12,1.13.06.56.06.56.06.56.06.55.03.28.03.27.03.27.03.27.03.27.03.27.03.26.03.26.03.26.03.26v.13s.02.05.02.05h0s0,.01,0,.01v.02s.01.01.01.01h0s.02.04.02.04h.07l.03-.02.07-.04.06-.04.06-.04.06-.04.06-.04.06-.04.05-.04.05-.04.05-.04.05-.04.05-.04.05-.04.04-.04.04-.04.04-.04.04-.04.04-.04.07-.09.06-.09.06-.09.05-.09.05-.09.05-.09.04-.09.04-.09.03-.09.03-.09.03-.09.03-.09.02-.09.02-.09.02-.09.02-.09v-.05s.01-.02.01-.02h0s0-.01,0-.01h0s0,0,0,0h0s0-.07,0-.07v-.11s-.24-7.21-.24-7.21l-.48-14.43-.48-14.43-.24-7.21-.06-1.8-.02-.45v-.03s0,0,0,0h0s0,0,0,0h0s0,0,0,0h0s0-.02,0-.02v-.05s-.02-.09-.02-.09v-.09s-.03-.09-.03-.09v-.09s-.03-.08-.03-.08v-.08s-.03-.08-.03-.08v-.08s-.03-.08-.03-.08l-.02-.08-.03-.15-.03-.14-.03-.14-.03-.14-.03-.14-.04-.14-.04-.14-.04-.14-.04-.14-.04-.14-.05-.14-.05-.15-.05-.15-.03-.08-.03-.08-.03-.08-.03-.08-.03-.08-.03-.08-.04-.08-.04-.08-.04-.08-.04-.09-.04-.09-.04-.09-.05-.09-.05-.09" fill="#f2f2f2" stroke="#000" stroke-linecap="round" stroke-width=".4"/><path d="m6.42,310.97l-1.23-1.31" fill="none" stroke="#000" stroke-width=".4"/><path d="m5.19,309.66h-2.25" fill="none" stroke="#000" stroke-width=".4"/><path d="m2.67,340l.17-24.12" fill="none" stroke="#000" stroke-width=".4"/><path d="m2.84,315.9l2.16-2.93" fill="none" stroke="#000" stroke-width=".4"/><path d="m2.84,315.9l-1.03-2.67" fill="none" stroke="#000" stroke-width=".4"/><path d="m5,312.98l.18-3.32" fill="none" stroke="#000" stroke-linecap="round" stroke-width=".4"/><path d="m1.98,360.7h.61" fill="none" stroke="#000" stroke-width=".4"/><path d="m1.9,361.3h.69" fill="none" stroke="#000" stroke-width=".4"/><path d="m11.61,361.3h.61" fill="none" stroke="#000" stroke-width=".4"/><path d="m11.81,360.7h.22" fill="none" stroke="#000" stroke-width=".4"/><path d="m.66,360.6l.36-4.51.12-1.5.59-7.51.12-1.5.36-4.51.05-.48.03-.12.04-.1.04-.09.05-.07.05-.06.06-.04.06-.03.06-.02h.06s.07-.01.07-.01h.07s.07.03.07.03l.06.03.06.03.06.04.06.04.06.05.06.05.06.05.05.06.05.06.05.06.05.06.05.06.04.06.18.44,1.75,4.71.58,1.57,1.75,4.71,1.17,3.14.58,1.57,1.17,3.14.58,1.57" fill="none" stroke="#000" stroke-width=".4"/><path d="m17.41,310.97l1.23-1.31" fill="none" stroke="#000" stroke-width=".4"/><path d="m18.64,309.66h2.25" fill="none" stroke="#000" stroke-width=".4"/><path d="m21.16,340l-.17-24.12" fill="none" stroke="#000" stroke-width=".4"/><path d="m20.99,315.9l-2.16-2.93" fill="none" stroke="#000" stroke-width=".4"/><path d="m20.99,315.9l1.03-2.67" fill="none" stroke="#000" stroke-width=".4"/><path d="m18.83,312.98l-.18-3.32" fill="none" stroke="#000" stroke-linecap="round" stroke-width=".4"/><path d="m21.85,360.7h-.61" fill="none" stroke="#000" stroke-width=".4"/><path d="m21.93,361.3h-.69" fill="none" stroke="#000" stroke-width=".4"/><path d="m23.17,360.6l-.12-1.5-.12-1.5-.59-7.51-.12-1.5-.47-6.01-.12-1.5-.05-.48-.03-.12-.04-.1-.04-.09-.05-.07-.05-.06-.06-.04-.06-.03-.06-.02h-.06s-.07-.01-.07-.01h-.07s-.07.03-.07.03l-.06.03-.06.03-.06.04-.06.04-.06.05-.06.05-.06.05-.05.06-.05.06-.05.06-.05.06-.05.06-.04.06-.18.44-.58,1.57-1.17,3.14-.58,1.57-1.75,4.71-1.17,3.14-.58,1.57-1.75,4.71" fill="none" stroke="#000" stroke-width=".4"/><path d="m13.29,298.3h-3.87l-.14.11v3.44h1.07v-1.29l.1-.09h2.84c.72,0,1.05-.19,1.05-.69v-.79c0-.5-.34-.69-1.05-.69m0,1.27c0,.23-.15.28-.49.28h-2.34l-.11-.11v-.74l.1-.09h2.35c.34,0,.49.05.49.28v.38h0Z" fill="#005288" stroke-width="0"/><polyline points="11.04 306.13 11.96 307.48 11.91 307.61 9.87 307.61 9.35 308.25 12.39 308.25 12.6 308.38 13.07 309.03 14.29 309.03 11.61 305.43" fill="#005288" stroke-width="0"/><polyline points="10.48 324.06 10.48 323.1 10.59 323.01 12.64 323.01 12.64 322.4 9.39 322.4 9.39 324.76 14.18 324.76 14.18 324.15 10.59 324.15" fill="#005288" stroke-width="0"/><rect x="9.39" y="321.21" width="4.84" height=".67" fill="#005288" stroke-width="0"/><path d="m10.46,313.8h3.9c-.06-.5-.37-.63-1.15-.63h-2.79c-.88,0-1.16.17-1.16.84v1.87c0,.67.28.84,1.16.84h2.79c.79,0,1.1-.15,1.12-.66h-3.87l-.11-.11v-2.07" fill="#005288" stroke-width="0"/><path d="m13.25,291.5h-2.84l-.08-.09v-.61l.08-.06h3.83l.05-.13c-.13-.34-.47-.49-1.09-.49h-2.66c-.88,0-1.16.17-1.16.84v.39c0,.67.28.84,1.16.84h2.83l.09.08v.63l-.07.1h-3.24s-.85,0-.85,0c0,0-.1.05-.09.07.07.47.39.6,1.15.6h2.9c.88,0,1.17-.17,1.17-.84v-.49c0-.67-.29-.84-1.17-.84" fill="#005288" stroke-width="0"/><path d="m10.52,329.43h-1.59l-.09.16,1.77,1.29c.34-.19.7-.39,1.1-.58" fill="#005288" stroke-width="0"/><path d="m11.94,331.86l1.56,1.13h1.61l.07-.15-2.32-1.7c-.31.23-.61.47-.91.72" fill="#005288" stroke-width="0"/><path d="m10.28,332.99h-1.44l-.12-.19c.98-.95,5.46-4.5,11.28-4.96,0,0-5.1.57-9.72,5.15" fill="#a7a9ac" stroke-width="0"/><rect x="7.29" y="140.1" width="9.2" height="5.17" fill="#b22234" stroke-width="0"/><path d="m7.29,140.7h9.2m0,.8H7.29m0,.8h9.2m0,.8H7.29m0,.8h9.2m0,.8H7.29" stroke="#fff" stroke-miterlimit="10" stroke-width=".37"/><rect x="7.29" y="140.1" width="3.68" height="2.78" fill="#3c3b6e" stroke-width="0"/><path d="m7.59,140.22l.09.29-.23-.18h.28l-.23.18.09-.29Z" fill="#fff" stroke-width="0"/><path id="s-50" d="m7.59,140.78l.09.29-.23-.18h.28l-.23.18.09-.29Z" fill="#fff" stroke-width="0"/><path id="s-51" d="m7.59,141.34l.09.29-.23-.18h.28l-.23.18.09-.29Z" fill="#fff" stroke-width="0"/><path id="s-52" d="m7.59,141.89l.09.29-.23-.18h.28l-.23.18.09-.29Z" fill="#fff" stroke-width="0"/><path id="s-53" d="m7.59,142.45l.09.29-.23-.18h.28l-.23.18.09-.29Z" fill="#fff" stroke-width="0"/><g id="d-11"><path id="s-54" d="m7.9,140.5l.09.29-.23-.18h.28l-.23.18.09-.29Z" fill="#fff" stroke-width="0"/><path id="s-55" d="m7.9,141.06l.09.29-.23-.18h.28l-.23.18.09-.29Z" fill="#fff" stroke-width="0"/><path id="s-56" d="m7.9,141.62l.09.29-.23-.18h.28l-.23.18.09-.29Z" fill="#fff" stroke-width="0"/><path id="s-57" d="m7.9,142.17l.09.29-.23-.18h.28l-.23.18.09-.29Z" fill="#fff" stroke-width="0"/></g><g id="a-5"><g id="c-6"><g id="d-12"><path id="s-58" d="m8.21,140.22l.09.29-.23-.18h.28l-.23.18.09-.29Z" fill="#fff" stroke-width="0"/><path id="s-59" d="m8.21,140.78l.09.29-.23-.18h.28l-.23.18.09-.29Z" fill="#fff" stroke-width="0"/><path id="s-60" d="m8.21,141.34l.09.29-.23-.18h.28l-.23.18.09-.29Z" fill="#fff" stroke-width="0"/><path id="s-61" d="m8.21,141.89l.09.29-.23-.18h.28l-.23.18.09-.29Z" fill="#fff" stroke-width="0"/></g><path id="s-62" d="m8.21,142.45l.09.29-.23-.18h.28l-.23.18.09-.29Z" fill="#fff" stroke-width="0"/></g><g id="d-13"><path id="s-63" d="m8.51,140.5l.09.29-.23-.18h.28l-.23.18.09-.29Z" fill="#fff" stroke-width="0"/><path id="s-64" d="m8.51,141.06l.09.29-.23-.18h.28l-.23.18.09-.29Z" fill="#fff" stroke-width="0"/><path id="s-65" d="m8.51,141.62l.09.29-.23-.18h.28l-.23.18.09-.29Z" fill="#fff" stroke-width="0"/><path id="s-66" d="m8.51,142.17l.09.29-.23-.18h.28l-.23.18.09-.29Z" fill="#fff" stroke-width="0"/></g></g><g id="e-2"><g id="a-6"><g id="c-7"><g id="d-14"><path id="s-67" d="m8.82,140.22l.09.29-.23-.18h.28l-.23.18.09-.29Z" fill="#fff" stroke-width="0"/><path id="s-68" d="m8.82,140.78l.09.29-.23-.18h.28l-.23.18.09-.29Z" fill="#fff" stroke-width="0"/><path id="s-69" d="m8.82,141.34l.09.29-.23-.18h.28l-.23.18.09-.29Z" fill="#fff" stroke-width="0"/><path id="s-70" d="m8.82,141.89l.09.29-.23-.18h.28l-.23.18.09-.29Z" fill="#fff" stroke-width="0"/></g><path id="s-71" d="m8.82,142.45l.09.29-.23-.18h.28l-.23.18.09-.29Z" fill="#fff" stroke-width="0"/></g><g id="d-15"><path id="s-72" d="m9.12,140.5l.09.29-.23-.18h.28l-.23.18.09-.29Z" fill="#fff" stroke-width="0"/><path id="s-73" d="m9.12,141.06l.09.29-.23-.18h.28l-.23.18.09-.29Z" fill="#fff" stroke-width="0"/><path id="s-74" d="m9.12,141.62l.09.29-.23-.18h.28l-.23.18.09-.29Z" fill="#fff" stroke-width="0"/><path id="s-75" d="m9.12,142.17l.09.29-.23-.18h.28l-.23.18.09-.29Z" fill="#fff" stroke-width="0"/></g></g><g id="a-7"><g id="c-8"><g id="d-16"><path id="s-76" d="m9.43,140.22l.09.29-.23-.18h.28l-.23.18.09-.29Z" fill="#fff" stroke-width="0"/><path id="s-77" d="m9.43,140.78l.09.29-.23-.18h.28l-.23.18.09-.29Z" fill="#fff" stroke-width="0"/><path id="s-78" d="m9.43,141.34l.09.29-.23-.18h.28l-.23.18.09-.29Z" fill="#fff" stroke-width="0"/><path id="s-79" d="m9.43,141.89l.09.29-.23-.18h.28l-.23.18.09-.29Z" fill="#fff" stroke-width="0"/></g><path id="s-80" d="m9.43,142.45l.09.29-.23-.18h.28l-.23.18.09-.29Z" fill="#fff" stroke-width="0"/></g><g id="d-17"><path id="s-81" d="m9.74,140.5l.09.29-.23-.18h.28l-.23.18.09-.29Z" fill="#fff" stroke-width="0"/><path id="s-82" d="m9.74,141.06l.09.29-.23-.18h.28l-.23.18.09-.29Z" fill="#fff" stroke-width="0"/><path id="s-83" d="m9.74,141.62l.09.29-.23-.18h.28l-.23.18.09-.29Z" fill="#fff" stroke-width="0"/><path id="s-84" d="m9.74,142.17l.09.29-.23-.18h.28l-.23.18.09-.29Z" fill="#fff" stroke-width="0"/></g></g></g><g id="a-8"><g id="c-9"><g id="d-18"><path id="s-85" d="m10.04,140.22l.09.29-.23-.18h.28l-.23.18.09-.29Z" fill="#fff" stroke-width="0"/><path id="s-86" d="m10.04,140.78l.09.29-.23-.18h.28l-.23.18.09-.29Z" fill="#fff" stroke-width="0"/><path id="s-87" d="m10.04,141.34l.09.29-.23-.18h.28l-.23.18.09-.29Z" fill="#fff" stroke-width="0"/><path id="s-88" d="m10.04,141.89l.09.29-.23-.18h.28l-.23.18.09-.29Z" fill="#fff" stroke-width="0"/></g><path id="s-89" d="m10.04,142.45l.09.29-.23-.18h.28l-.23.18.09-.29Z" fill="#fff" stroke-width="0"/></g><g id="d-19"><path id="s-90" d="m10.35,140.5l.09.29-.23-.18h.28l-.23.18.09-.29Z" fill="#fff" stroke-width="0"/><path id="s-91" d="m10.35,141.06l.09.29-.23-.18h.28l-.23.18.09-.29Z" fill="#fff" stroke-width="0"/><path id="s-92" d="m10.35,141.62l.09.29-.23-.18h.28l-.23.18.09-.29Z" fill="#fff" stroke-width="0"/><path id="s-93" d="m10.35,142.17l.09.29-.23-.18h.28l-.23.18.09-.29Z" fill="#fff" stroke-width="0"/></g></g><g id="c-10"><g id="d-20"><path id="s-94" d="m10.66,140.22l.09.29-.23-.18h.28l-.23.18.09-.29Z" fill="#fff" stroke-width="0"/><path id="s-95" d="m10.66,140.78l.09.29-.23-.18h.28l-.23.18.09-.29Z" fill="#fff" stroke-width="0"/><path id="s-96" d="m10.66,141.34l.09.29-.23-.18h.28l-.23.18.09-.29Z" fill="#fff" stroke-width="0"/><path id="s-97" d="m10.66,141.89l.09.29-.23-.18h.28l-.23.18.09-.29Z" fill="#fff" stroke-width="0"/></g><path id="s-98" d="m10.66,142.45l.09.29-.23-.18h.28l-.23.18.09-.29Z" fill="#fff" stroke-width="0"/></g><path d="m9.22,132.36c.31-.16.62-.33.94-.45-3.67-1.93-3.88-3.38-4.63-4.91.58,1.77,1.07,3.54,3.69,5.36h0Z" fill="#a80126" fill-rule="evenodd" stroke-width="0"/><path d="m7.31,129.46c1.4,1.17,2.61,2,3.51,2.26.89-.47,3.81-.73,3.75-.06-.64-.32-1.02-.17-1.39-.05.18,0,.67-.06.81,0-.06.07-.12.1-.19.14.24.05.46.12.65.23.12-.01.2,0,.24.03-.12.03-.27.19-.34.3.81.02,1.68.02,1.77.87.26-.76-.2-1.16-1.1-1.33-.12-.26-.31-.48-.49-.73-2.45-.14-4.89-.3-7.22-1.65h0Z" fill="#a80126" fill-rule="evenodd" stroke-width="0"/><path d="m5.39,135.38v-1.48h.99c-.04.05-.07.1-.16.14h-.62v.39h.55s-.07.09-.13.11h-.43v.53c-.05.12-.1.23-.21.32h0Z" fill-rule="evenodd" stroke-width="0"/><path d="m8.07,134.05v1.08h.28v-1.02c-.38-.35-.76-.35-1.14,0v1.02h.25v-.6h.2s.08-.05.1-.09h-.29v-.39c.23-.16.41-.16.6,0h0Z" fill-rule="evenodd" stroke-width="0"/><path d="m11.01,135.17h-1.14v-1.25h.29v1.15h1s-.06.09-.15.1h0Z" fill-rule="evenodd" stroke-width="0"/><path d="m12.71,133.9v.25c-.46.62.32,1.37,1.2.82h.07c-.55.6-2.54.1-1.27-1.07h0Z" fill-rule="evenodd" stroke-width="0"/><path d="m12.11,133.93v.45c.44-.79,1.05-1.18,2.91-.66-1.79-.7-2.45-.33-2.91.21Z" fill-rule="evenodd" stroke-width="0"/><path d="m15.58,133.8c-.37,0-.75.26-.75.73,0,.94,1.49.99,1.49,0,0-.5-.37-.73-.75-.73h0Zm0,.1c.22,0,.44.21.45.63,0,.85-.88.83-.88,0,0-.41.22-.63.44-.63h0Z" fill-rule="evenodd" stroke-width="0"/><path d="m17.72,134.05v1.13h-.22v-1.18l.22-.11v.05c.34,0,.58.15.64.24v1.01h-.22v-.99c-.08-.13-.17-.17-.43-.17v.03Z" fill-rule="evenodd" stroke-width="0"/><path d="m11.89,136.05c-2.3.01-1.7,1.85-.43,1.82.59-.02.7-.08,1.1-.5-.25,1.24-1.09,1.24-2.11,1.34-.13.08-.15.1-.24.24,1.72-.03,3.17-.34,3.13-1.68-.03-.94-.66-1.22-1.45-1.21h0Zm-.03.22c.42,0,.76.27.76.6h0c0,.33-.34.6-.76.6-.42,0-.76-.27-.76-.59,0-.33.34-.6.76-.6Z" fill-rule="evenodd" stroke-width="0"/><rect x="2.54" y="53.23" width="18.69" height="15.22" fill="#fff" stroke-width="0"/><rect x="2.73" y="53.24" width="9.27" height="15.2" fill="url(#linear-gradient-5)" isolation="isolate" opacity=".03" stroke-width="0"/><rect x="11.86" y="53.23" width="9.13" height="15.19" fill="url(#linear-gradient-6)" isolation="isolate" opacity=".03" stroke-width="0"/><path d="m22.02,52.19v-.14s.02-.14.02-.14v-.14s-.02-.14-.02-.14l-.12-.45-1.6-5.81-.8-2.9-.27-.97-.8-2.9-.27-.97-.08-.24-.07-.18-.07-.19-.08-.2-.09-.2-.09-.21-.1-.21-.1-.22-.11-.22-.12-.22-.12-.22-.13-.22-.13-.21-.14-.21-.14-.2-.14-.19-.15-.18-.15-.18-.16-.17-.16-.16-.16-.15-.16-.15-.17-.14-.17-.13-.17-.13-.17-.12-.17-.11-.17-.11-.17-.1-.17-.09-.17-.09-.17-.08-.17-.07-.17-.07-.17-.06-.17-.05-.17-.05-.17-.04-.17-.04-.17-.03-.17-.02-.17-.02h-.16s-.16-.01-.16-.01h-.16s-.17.03-.17.03l-.17.02-.17.03-.17.04-.17.04-.17.05-.17.05-.17.06-.17.07-.17.07-.17.08-.17.09-.17.09-.17.1-.17.11-.17.11-.17.12-.17.13-.17.13-.17.14-.16.15-.16.15-.16.16-.16.17-.15.18-.15.18-.14.19-.14.2-.14.21-.13.21-.13.22-.12.22-.12.22-.11.22-.1.22-.1.21-.09.21-.09.2-.08.2-.07.19-.07.18-.08.24-.8,2.9-.27.97-.8,2.9-.27.97-.8,2.9-.27.97-.53,1.94-.12.45-.02.14v.14s0,.14,0,.14v.14" fill="url(#radial-gradient)" stroke-width="0"/><path d="m3.48,53.47s-.05-.08-.15-.14c-.08-.05-.19-.13-.24-.19-.1-.11-.21-.38-.24-.57-.03-.22-.06-.28-.17-.34-.19-.11-.39-.15-.67-.13h-.26s0-.09,0-.09v-.1h20.16v.1s.01.1.01.1h-.26c-.28-.03-.48.01-.67.12-.1.06-.13.11-.17.34-.03.19-.14.46-.24.57-.05.06-.16.14-.24.19-.1.06-.15.11-.15.14,0,.05-.35.05-8.36.05s-8.36,0-8.36-.05h0Z" fill="#ececec" stroke-width="0"/><path d="m22.02,52.39v-.14s.02-.14.02-.14v-.14s-.02-.14-.02-.14l-.12-.45-1.6-5.81-.8-2.9-.27-.97-.8-2.9-.27-.97-.08-.24-.07-.18-.07-.19-.08-.2-.09-.2-.09-.21-.1-.21-.1-.22-.11-.22-.12-.22-.12-.22-.13-.22-.13-.21-.14-.21-.14-.2-.14-.19-.15-.18-.15-.18-.16-.17-.16-.16-.16-.15-.16-.15-.17-.14-.17-.13-.17-.13-.17-.12-.17-.11-.17-.11-.17-.1-.17-.09-.17-.09-.17-.08-.17-.07-.17-.07-.17-.06-.17-.05-.17-.05-.17-.04-.17-.04-.17-.03-.17-.02-.17-.02h-.16s-.16-.01-.16-.01h-.16s-.17.03-.17.03l-.17.02-.17.03-.17.04-.17.04-.17.05-.17.05-.17.06-.17.07-.17.07-.17.08-.17.09-.17.09-.17.1-.17.11-.17.11-.17.12-.17.13-.17.13-.17.14-.16.15-.16.15-.16.16-.16.17-.15.18-.15.18-.14.19-.14.2-.14.21-.13.21-.13.22-.12.22-.12.22-.11.22-.1.22-.1.21-.09.21-.09.2-.08.2-.07.19-.07.18-.08.24-.8,2.9-.27.97-.8,2.9-.27.97-.8,2.9-.27.97-.53,1.94-.12.45-.02.14v.14s0,.14,0,.14v.14" fill="none" stroke="#000" stroke-width=".4"/><path d="m3.45,68.39h16.88" fill="none" stroke="#000" stroke-width=".4"/><path d="m3.45,53.41h16.88" fill="none" stroke="#000" stroke-width=".4"/><path d="m1.8,51.74h20.2" fill="#f2f2f2" stroke="#000" stroke-width=".4"/><path d="m5.65,37.74h12.49" fill="none" stroke="#000" stroke-width=".4"/><path d="m3.45,68.39h16.88" fill="none" stroke="#000" stroke-width=".4"/><path d="m20.34,53.26v15.67l.04.91.26-.18.25-.18.23-.18.22-.18.2-.18.19-.18.17-.18.15-.17.13-.16.12-.15.1-.14.08-.13.06-.11.04-.09.02-.38v-13.84l-.02-.53-.05-.07-.05-.06-.06-.06-.06-.06-.07-.06-.07-.05-.07-.05-.08-.04-.08-.04-.08-.03-.09-.03-.09-.02h-.09s-.09-.02-.09-.02h-.09s-.09,0-.09,0h-.09s-.08.03-.08.03l-.08.02-.08.03-.07.03-.02.06v.06s-.02.06-.02.06l-.02.06-.02.06-.03.06-.03.06-.04.06-.04.06-.04.05-.05.05-.05.05-.05.04-.05.04-.06.03-.06.03-.06.03h0Z" fill="url(#linear-gradient-7)" stroke="#000" stroke-width=".4"/><path d="m3.45,53.26v15.67l-.04.91-.26-.18-.25-.18-.23-.18-.22-.18-.2-.18-.19-.18-.17-.18-.15-.17-.13-.16-.12-.15-.1-.14-.08-.13-.06-.11-.04-.09-.02-.38v-13.84l.02-.53.05-.07.05-.06.06-.06.06-.06.07-.06.07-.05.07-.05.08-.04.08-.04.08-.03.09-.03.09-.02h.09s.09-.02.09-.02h.09s.09,0,.09,0h.09s.08.03.08.03l.08.02.08.03.07.03.02.06v.06s.02.06.02.06l.02.06.02.06.03.06.03.06.04.06.04.06.04.05.05.05.05.05.05.04.05.04.06.03.06.03.06.03h0Z" fill="url(#linear-gradient-8)" stroke="#000" stroke-width=".4"/><path d="m8.73,47.26h-1.26l-.05.03v1.12h.35v-.42l.03-.03h.92c.23,0,.34-.06.34-.22v-.26c0-.16-.11-.22-.34-.22m0,.41c0,.08-.05.09-.16.09h-.76l-.04-.04v-.24l.03-.03h.76c.11,0,.16.02.16.09v.12Z" fill="#005288" stroke-width="0"/><polyline points="9.71 47.47 10.01 47.91 9.99 47.96 9.33 47.96 9.16 48.17 10.15 48.17 10.21 48.21 10.37 48.42 10.77 48.42 9.89 47.25" fill="#005288" stroke-width="0"/><polyline points="13.68 48.19 13.68 47.88 13.71 47.85 14.38 47.85 14.38 47.65 13.32 47.65 13.32 48.42 14.88 48.42 14.88 48.22 13.71 48.22" fill="#005288" stroke-width="0"/><rect x="13.32" y="47.26" width="1.58" height=".22" fill="#005288" stroke-width="0"/><path d="m11.56,47.47h1.27c-.02-.16-.12-.21-.37-.21h-.91c-.29,0-.38.06-.38.27v.61c0,.22.09.27.38.27h.91c.26,0,.36-.05.36-.22h-1.26l-.04-.04v-.67" fill="#005288" stroke-width="0"/><path d="m6.57,47.71h-.92l-.03-.03v-.2l.03-.02h1.25l.02-.04c-.04-.11-.15-.16-.36-.16h-.87c-.29,0-.38.06-.38.27v.13c0,.22.09.27.38.27h.92l.03.03v.21l-.02.03h-1.06s-.28,0-.28,0c0,0-.03.02-.03.02.02.15.13.2.37.2h.94c.29,0,.38-.06.38-.27v-.16c0-.22-.09-.27-.38-.27" fill="#005288" stroke-width="0"/><path d="m15.89,47.26h-.52l-.03.05.58.42c.11-.06.23-.13.36-.19" fill="#005288" stroke-width="0"/><path d="m16.36,48.05l.51.37h.53l.02-.05-.76-.55c-.1.07-.2.15-.3.23" fill="#005288" stroke-width="0"/><path d="m15.81,48.42h-.47l-.04-.06c.32-.31,1.75-1.63,4.85-1.77,0,0-2.61.09-4.34,1.83" fill="#005288" stroke-width="0"/><path d="m7.36,61.66c1.6-.19,3.6-.26,3.67,1.19,1.05-.52,2.62-1.46,4.36-.05.27-.01.56-.07.79.03-.21-.22-.33-.57-.43-.94-.94-.13-1.75-.38-2.62-.58-.88-.07-1.76-.18-2.65-.37-.99-.61-1.68-1.5-2.65-2.16-.81-.3-1.49-.84-2.22-1.28,1.36,1.2,4.16,3.22,1.75,4.16h0Z" fill="#00006d" fill-rule="evenodd" stroke-width="0"/><path d="m6.29,57.26c1.76.84,3.51,1.64,5.27,2.23.29.24.6.47,1.21.52.8.9,2.13,1.38,2.67,1.26.36.15.47.08.6.26.19.27.32.89.36,1.23-.17-.13-.36-.33-.38-.55-.09-.76-.27-.69-.43-.71-.25-.03-.48,0,.18.23l-2.1-.43-2.21-.78-.35.24.78.24-1.08-.15c-.99-.47-1.61-1.32-2.62-1.97.73.26,1.45.54,2.18.61l-4.08-2.25Z" fill="#00006d" fill-rule="evenodd" stroke-width="0"/><path d="m11,64.66h.37s-.02-.98-.02-.98c-.46-.31-.83-.31-1.25,0v.97s.37,0,.37,0l-.02-.58h.2c.05-.03.09-.12.11-.15h-.33s0-.26,0-.26c.24-.16.54,0,.54,0,0,0,.01.74.01,1h0Z" fill-rule="evenodd" stroke-width="0"/><path d="m15.52,63.44c-.35,0-.78.22-.78.64,0,.83,1.54.87,1.54,0,0-.44-.41-.65-.77-.64h0Zm0,.11c.21,0,.42.16.42.53,0,.71-.85.73-.85,0,0-.36.22-.53.44-.53Z" fill-rule="evenodd" stroke-width="0"/><path d="m17.83,64.7h-.36v-1.11c.09-.04.32-.12.36-.13v.03c.49-.02.76.05.9.18v1.02s-.35,0-.35,0v-.97c-.12-.11-.18-.12-.55-.1,0,0,0,.74,0,1.08h0Z" fill-rule="evenodd" stroke-width="0"/><path d="m5.03,63.43v1.27h.53c1.17,0,1.12-1.25,0-1.27h-.52Zm.34.11h.25c.59.04.48,1.04,0,1.05h-.25v-1.05Z" fill-rule="evenodd" stroke-width="0"/><path d="m7.99,64.72h-.36s0-1.27,0-1.27c0,0,.47-.03.84,0,0,0,.19,0,.34.08,0,.21,0,.44,0,.44-.01.08-.29.05-.31.09.01.05.32,0,.32.1v.56s-.28,0-.35-.06c0-.16,0-.53,0-.53h-.19s-.12-.11-.14-.15h.32s0-.42,0-.42c-.23-.03-.28-.04-.5,0v1.16Z" fill-rule="evenodd" stroke-width="0"/><path d="m13.03,63.99h.63s0,.63,0,.63c-.48.06-.73.08-1.18,0v-1.14c.41-.1.75-.05,1.19,0v.25h-.33v-.18c-.2-.07-.31-.06-.52-.01v1.02c.21.04.32.06.53,0v-.49h-.26s-.04-.03-.06-.07h0Z" fill-rule="evenodd" stroke-width="0"/><path d="m21.51,157.02l.03-6.41-1.06-1.56.03-1.69-.84-1.59-.28-.91-.69-.25-.69.06-.41.12-.38,1-.22,1.09-.03.94v1l.09.72-.81.91v6.47l.62.12,4.63-.03Z" fill="#fff" fill-rule="evenodd" stroke="#040404" stroke-linecap="round" stroke-linejoin="round" stroke-width=".2"/><path d="m16.89,150.61v6.43h4.62v-6.4l-.93-1.62h-2.21l-1.48,1.59Z" fill="none" stroke="#040404" stroke-linecap="square" stroke-linejoin="round" stroke-width=".2"/><path d="m20.52,156.91v-9.48l-.77-1.55c-.9-.42-1.67-.27-2.34.31l.11,2.89" fill="none" stroke="#040404" stroke-linecap="square" stroke-linejoin="round" stroke-width=".2"/><path d="m18.47,149.07v7.95" fill="none" stroke="#040404" stroke-linecap="square" stroke-linejoin="round" stroke-width=".2"/><path d="m18.4,149.04l-.75-.02-1.37,1.48v6.47l.63.06" fill="none" stroke="#040404" stroke-linecap="square" stroke-linejoin="round" stroke-width=".2"/><path d="m18.33,149l-.02-1.59-.86-1.1" fill="none" stroke="#040404" stroke-linecap="square" stroke-linejoin="round" stroke-width=".2"/><path d="m19.77,145.88l-.4-.97c-.49-.29-1.1-.29-1.77-.11-.66,1.51-.73,3.1-.51,4.73" fill="none" stroke="#040404" stroke-linecap="square" stroke-linejoin="round" stroke-width=".2"/><path d="m20.47,147.3c-.81-.33-1.51-.28-2.14-.02" fill="none" stroke="#040404" stroke-linecap="round" stroke-linejoin="round" stroke-width=".2"/><path d="m18.48,157.02l-1.57-1.73" fill="#fff" fill-rule="evenodd" stroke="#040404" stroke-linecap="round" stroke-linejoin="round" stroke-width=".2"/><path d="m19.89,157.02l-2.98-3.77" fill="#fff" fill-rule="evenodd" stroke="#040404" stroke-linecap="round" stroke-linejoin="round" stroke-width=".2"/><path d="m16.9,151.41l4.39,5.58" fill="#fff" fill-rule="evenodd" stroke="#040404" stroke-linecap="round" stroke-linejoin="round" stroke-width=".2"/><path d="m17.34,150.16l4.14,5.3" fill="#fff" fill-rule="evenodd" stroke="#040404" stroke-linecap="round" stroke-linejoin="round" stroke-width=".2"/><path d="m18.17,149.27l3.34,4.38" fill="#fff" fill-rule="evenodd" stroke="#040404" stroke-linecap="round" stroke-linejoin="round" stroke-width=".2"/><path d="m19.46,149.05l2.04,2.62" fill="#fff" fill-rule="evenodd" stroke="#040404" stroke-linecap="round" stroke-linejoin="round" stroke-width=".2"/><path d="m19.16,157.01l2.35-3.34" fill="#fff" fill-rule="evenodd" stroke="#040404" stroke-linecap="round" stroke-linejoin="round" stroke-width=".2"/><path d="m21.45,155.49l-.97,1.53" fill="#fff" fill-rule="evenodd" stroke="#040404" stroke-linecap="round" stroke-linejoin="round" stroke-width=".2"/><path d="m17.61,157.01l3.87-5.05" fill="#fff" fill-rule="evenodd" stroke="#040404" stroke-linecap="round" stroke-linejoin="round" stroke-width=".2"/><path d="m16.92,156.05l4.44-5.62" fill="#fff" fill-rule="evenodd" stroke="#040404" stroke-linecap="round" stroke-linejoin="round" stroke-width=".2"/><path d="m16.92,154.08l3.88-4.56" fill="#fff" fill-rule="evenodd" stroke="#040404" stroke-linecap="round" stroke-linejoin="round" stroke-width=".2"/><path d="m16.89,152.27l2.81-3.19" fill="#fff" fill-rule="evenodd" stroke="#040404" stroke-linecap="round" stroke-linejoin="round" stroke-width=".2"/><path d="m16.27,150.48l.61.13" fill="#ccc" fill-rule="evenodd" stroke="#040404" stroke-linecap="round" stroke-linejoin="round" stroke-width=".2"/><path d="m2.29,157.02l-.03-6.41,1.06-1.56-.03-1.69.84-1.59.28-.91.69-.25.69.06.41.12.38,1,.22,1.09.03.94v1l-.09.72.81.91v6.47l-.62.12-4.63-.03Z" fill="#fff" fill-rule="evenodd" stroke="#040404" stroke-linecap="round" stroke-linejoin="round" stroke-width=".2"/><path d="m6.91,150.61v6.43H2.28v-6.4l.93-1.62h2.21l1.48,1.59Z" fill="none" stroke="#040404" stroke-linecap="square" stroke-linejoin="round" stroke-width=".2"/><path d="m3.28,156.91v-9.48l.77-1.55c.9-.42,1.67-.27,2.34.31l-.11,2.89" fill="none" stroke="#040404" stroke-linecap="square" stroke-linejoin="round" stroke-width=".2"/><path d="m5.33,149.07v7.95" fill="none" stroke="#040404" stroke-linecap="square" stroke-linejoin="round" stroke-width=".2"/><path d="m5.4,149.04l.75-.02,1.37,1.48v6.47l-.63.06" fill="none" stroke="#040404" stroke-linecap="square" stroke-linejoin="round" stroke-width=".2"/><path d="m5.47,149l.02-1.59.86-1.1" fill="none" stroke="#040404" stroke-linecap="square" stroke-linejoin="round" stroke-width=".2"/><path d="m4.03,145.88l.4-.97c.49-.29,1.1-.29,1.77-.11.66,1.51.73,3.1.51,4.73" fill="none" stroke="#040404" stroke-linecap="square" stroke-linejoin="round" stroke-width=".2"/><path d="m3.33,147.3c.81-.33,1.51-.28,2.14-.02" fill="none" stroke="#040404" stroke-linecap="round" stroke-linejoin="round" stroke-width=".2"/><path d="m5.32,157.02l1.57-1.73" fill="#fff" fill-rule="evenodd" stroke="#040404" stroke-linecap="round" stroke-linejoin="round" stroke-width=".2"/><path d="m3.91,157.02l2.98-3.77" fill="#fff" fill-rule="evenodd" stroke="#040404" stroke-linecap="round" stroke-linejoin="round" stroke-width=".2"/><path d="m6.9,151.41l-4.39,5.58" fill="#fff" fill-rule="evenodd" stroke="#040404" stroke-linecap="round" stroke-linejoin="round" stroke-width=".2"/><path d="m6.46,150.16l-4.14,5.3" fill="#fff" fill-rule="evenodd" stroke="#040404" stroke-linecap="round" stroke-linejoin="round" stroke-width=".2"/><path d="m5.63,149.27l-3.34,4.38" fill="#fff" fill-rule="evenodd" stroke="#040404" stroke-linecap="round" stroke-linejoin="round" stroke-width=".2"/><path d="m4.34,149.05l-2.04,2.62" fill="#fff" fill-rule="evenodd" stroke="#040404" stroke-linecap="round" stroke-linejoin="round" stroke-width=".2"/><path d="m4.64,157.01l-2.35-3.34" fill="#fff" fill-rule="evenodd" stroke="#040404" stroke-linecap="round" stroke-linejoin="round" stroke-width=".2"/><path d="m2.35,155.49l.97,1.53" fill="#fff" fill-rule="evenodd" stroke="#040404" stroke-linecap="round" stroke-linejoin="round" stroke-width=".2"/><path d="m6.19,157.01l-3.87-5.05" fill="#fff" fill-rule="evenodd" stroke="#040404" stroke-linecap="round" stroke-linejoin="round" stroke-width=".2"/><path d="m6.88,156.05l-4.44-5.62" fill="#fff" fill-rule="evenodd" stroke="#040404" stroke-linecap="round" stroke-linejoin="round" stroke-width=".2"/><path d="m6.88,154.08l-3.88-4.56" fill="#fff" fill-rule="evenodd" stroke="#040404" stroke-linecap="round" stroke-linejoin="round" stroke-width=".2"/><path d="m6.91,152.27l-2.81-3.19" fill="#fff" fill-rule="evenodd" stroke="#040404" stroke-linecap="round" stroke-linejoin="round" stroke-width=".2"/><path d="m7.53,150.48l-.61.13" fill="#ccc" fill-rule="evenodd" stroke="#040404" stroke-linecap="round" stroke-linejoin="round" stroke-width=".2"/></svg>