<?xml version="1.0" encoding="UTF-8"?><svg id="Layer_1" xmlns="http://www.w3.org/2000/svg" xmlns:xlink="http://www.w3.org/1999/xlink" viewBox="0 0 66.33 371.75"><defs><linearGradient id="linear-gradient" x1="323.11" y1="-32.55" x2="331.85" y2="-32.55" gradientTransform="translate(-160.76 229.98) scale(.52 -.79)" gradientUnits="userSpaceOnUse"><stop offset="0" stop-color="#000"/><stop offset="1" stop-color="#000" stop-opacity="0"/></linearGradient><linearGradient id="linear-gradient-2" x1="-2472.99" y1="-32.84" x2="-2464.25" y2="-32.84" gradientTransform="translate(-1238.92 229.68) rotate(-180) scale(.51 .79)" gradientUnits="userSpaceOnUse"><stop offset="0" stop-color="#000"/><stop offset="1" stop-color="#000" stop-opacity="0"/></linearGradient><linearGradient id="linear-gradient-3" x1="330.19" y1="-34" x2="338.93" y2="-34" gradientTransform="translate(-121.08 229.12) scale(.51 -.79)" gradientUnits="userSpaceOnUse"><stop offset="0" stop-color="#000"/><stop offset="1" stop-color="#000" stop-opacity="0"/></linearGradient><linearGradient id="linear-gradient-4" x1="-2480.17" y1="-34.29" x2="-2471.43" y2="-34.29" gradientTransform="translate(-1193.76 228.82) rotate(-180) scale(.51 .79)" gradientUnits="userSpaceOnUse"><stop offset="0" stop-color="#000"/><stop offset="1" stop-color="#000" stop-opacity="0"/></linearGradient><linearGradient id="linear-gradient-5" x1="331.88" y1="253.43" x2="340.62" y2="253.43" gradientTransform="translate(-142.92 495.01) scale(.51 -1.1)" gradientUnits="userSpaceOnUse"><stop offset="0" stop-color="#000"/><stop offset="1" stop-color="#000" stop-opacity="0"/></linearGradient><linearGradient id="linear-gradient-6" x1="-2481.89" y1="253.23" x2="-2473.15" y2="253.23" gradientTransform="translate(-1214.31 494.59) rotate(-180) scale(.51 1.1)" gradientUnits="userSpaceOnUse"><stop offset="0" stop-color="#000"/><stop offset="1" stop-color="#000" stop-opacity="0"/></linearGradient><radialGradient id="radial-gradient" cx="-1229.15" cy="-258.52" fx="-1229.15" fy="-258.52" r="9.28" gradientTransform="translate(-217.48 -2769.36) rotate(-90) scale(2.38 -1.05)" gradientUnits="userSpaceOnUse"><stop offset="0" stop-color="#fff"/><stop offset="1" stop-color="#f9f9f9"/></radialGradient><radialGradient id="radial-gradient-2" cx="-1227.81" cy="-258.52" fx="-1227.81" fy="-258.52" r="9.28" gradientTransform="translate(-259.98 -2777.75) rotate(-90) scale(2.39 -1.05)" gradientUnits="userSpaceOnUse"><stop offset="0" stop-color="#fff"/><stop offset="1" stop-color="#f9f9f9"/></radialGradient><linearGradient id="linear-gradient-7" x1="-531.33" y1="278.29" x2="-517.21" y2="278.29" gradientTransform="translate(548.15 309.85) scale(1 -1)" gradientUnits="userSpaceOnUse"><stop offset="0" stop-color="#e6e6e6"/><stop offset="1" stop-color="#f9f9f9"/></linearGradient><linearGradient id="linear-gradient-8" x1="-531.33" y1="243.55" x2="-517.21" y2="243.55" gradientTransform="translate(548.15 309.85) scale(1 -1)" gradientUnits="userSpaceOnUse"><stop offset="0" stop-color="#e6e6e6"/><stop offset="1" stop-color="#f9f9f9"/></linearGradient><linearGradient id="linear-gradient-9" x1="-1963.78" y1="278.29" x2="-1946.3" y2="278.29" gradientTransform="translate(-1913.43 309.85) rotate(-180)" gradientUnits="userSpaceOnUse"><stop offset="0" stop-color="#e6e6e6"/><stop offset="1" stop-color="#f9f9f9"/></linearGradient><linearGradient id="linear-gradient-10" x1="-1963.78" y1="243.55" x2="-1946.3" y2="243.55" gradientTransform="translate(-1913.43 309.85) rotate(-180)" gradientUnits="userSpaceOnUse"><stop offset="0" stop-color="#e6e6e6"/><stop offset="1" stop-color="#f9f9f9"/></linearGradient></defs><rect x="2.62" y="151.26" width="18.67" height="208.96" fill="#fff" stroke-width="0"/><rect x="2.74" y="151.53" width="9.31" height="208.57" fill="url(#linear-gradient)" isolation="isolate" opacity=".03" stroke-width="0"/><rect x="11.92" y="151.49" width="9.17" height="208.5" fill="url(#linear-gradient-2)" isolation="isolate" opacity=".03" stroke-width="0"/><rect x="45.03" y="151.67" width="18.67" height="208.67" fill="#fff" stroke-width="0"/><rect x="45.23" y="151.94" width="9.26" height="208.28" fill="url(#linear-gradient-3)" isolation="isolate" opacity=".03" stroke-width="0"/><rect x="54.36" y="151.9" width="9.12" height="208.2" fill="url(#linear-gradient-4)" isolation="isolate" opacity=".03" stroke-width="0"/><rect x="23.83" y="69.74" width="18.67" height="290.57" fill="#fff" stroke-width="0"/><rect x="24.05" y="69.93" width="9.25" height="290.18" fill="url(#linear-gradient-5)" isolation="isolate" opacity=".03" stroke-width="0"/><rect x="33.17" y="69.88" width="9.11" height="290.08" fill="url(#linear-gradient-6)" isolation="isolate" opacity=".03" stroke-width="0"/><path d="m42.58,361.3v-.5h.18c.13,0,.21.02.27.06.11.07.2.07.36,0,.18-.08.56-.08.74,0,.07.03.17.06.2.06s.11-.03.16-.06c.06-.04.14-.06.27-.06h.18v.99h-2.37v-.5Z" fill="#101010" stroke-width="0"/><path d="m3.42,365.1c-.02-.05-.04-.12-.05-.15v-.05s3.39,0,3.39,0l.02.09c.01.05,0,.11,0,.15l-.02.06h-3.3l-.04-.09h0Z" fill="#f7f7f7" stroke-width="0"/><path d="m7.22,365.1c-.02-.05-.05-.12-.05-.15v-.05s1.73-.01,1.73-.01c1.52,0,1.74,0,1.74.03,0,.02-.02.09-.05.15l-.05.12h-3.29l-.04-.1h0Z" fill="#f7f7f7" stroke-width="0"/><path d="m10.94,365.3s.03-.08.05-.15c.02-.07.05-.14.06-.17l.02-.05,1.73.02.02.05c.03.12.08.26.09.29.02.04-.04.04-.98.04-.79,0-1-.01-.99-.03h0Z" fill="#f7f7f7" stroke-width="0"/><path d="m13.26,365.1c-.03-.06-.05-.13-.05-.15v-.05l3.48.02v.05s-.03.1-.06.15l-.04.09h-3.29l-.05-.11h0Z" fill="#f7f7f7" stroke-width="0"/><path d="m17.07,365.2s-.02-.09,0-.15l.02-.09h3.4v.05s-.03.1-.06.15l-.04.1h-3.29l-.02-.05h0Z" fill="#f7f7f7" stroke-width="0"/><path d="m24.65,365.1c-.1-.25-.19-.24,1.65-.24h1.7l.03.11c.06.24.06.24-1.71.24h-1.63l-.04-.11h0Z" fill="#f7f7f7" stroke-width="0"/><path d="m28.62,365.2c-.14-.01-.23-.13-.23-.28,0-.03.69-.04,1.75-.04,1.65,0,1.75,0,1.75.08,0,.04-.02.11-.06.15-.05.07-.21.08-1.56.09-.83.01-1.57,0-1.65,0h0Z" fill="#f7f7f7" stroke-width="0"/><path d="m32.19,365.3s.02-.11.05-.2l.05-.17h1.75l.13.4h-.99c-.54,0-.99-.02-.99-.03h0Z" fill="#f7f7f7" stroke-width="0"/><path d="m34.88,365.2c-.35-.01-.44-.07-.44-.24,0-.08.09-.08,1.75-.08s1.75,0,1.75.08c0,.04-.03.12-.06.17-.06.08-.13.09-1.36.09-.71,0-1.45-.01-1.63-.01h0Z" fill="#f7f7f7" stroke-width="0"/><path d="m38.46,365.2c-.14-.02-.15-.04-.15-.15v-.13h1.71c1.84-.02,1.77-.03,1.66.2l-.06.11h-1.5c-.83,0-1.57-.01-1.66-.02h0Z" fill="#f7f7f7" stroke-width="0"/><path d="m23.84,360.3l18.57.03v3.27s-.69,1.75-.69,1.75l-17.17-.05-.7-1.75-.02-3.25Z" fill="#101010" stroke-width="0"/><path d="m45.88,365.1c-.09-.25-.18-.23,1.66-.23,1.69,0,1.7,0,1.72.09.04.14-.01.22-.14.22-.06,0-.81.01-1.66.02h-1.54s-.04-.1-.04-.1h0Z" fill="#f7f7f7" stroke-width="0"/><path d="m49.86,365.2c-.16-.01-.21-.08-.21-.26,0-.04.38-.05,1.75-.05,1.08,0,1.75.02,1.75.04,0,.02-.02.09-.05.15-.05.11-.07.11-.39.11-.18,0-.86.01-1.51.01-.64.01-1.24,0-1.33,0h0Z" fill="#f7f7f7" stroke-width="0"/><path d="m53.42,365.2s.04-.13.05-.2l.02-.12h1.79l.02.12c.01.07.04.16.05.2.03.07-.04.08-.97.08s-1-.01-.97-.08h0Z" fill="#f7f7f7" stroke-width="0"/><path d="m56.11,365.2c-.36-.01-.36-.01-.41-.15-.03-.08-.05-.14-.05-.15,0-.01.8-.02,1.77-.02s1.77.01,1.77.02c0,.01-.02.08-.05.15-.04.12-.07.14-.21.15-.27.01-2.44.02-2.82,0h0Z" fill="#f7f7f7" stroke-width="0"/><path d="m59.7,365.2c-.16-.02-.19-.06-.17-.21l.02-.11h3.43l-.04.14c-.02.08-.05.15-.07.17-.03.03-2.94.04-3.18.01h0Z" fill="#f7f7f7" stroke-width="0"/><path d="m45.12,360.3l18.57.03v3.27s-.69,1.75-.69,1.75l-17.17-.05-.7-1.75-.02-3.25Z" fill="#101010" stroke-width="0"/><path d="m21.24,361.2v-.46h.22c.12,0,.27.02.32.04.07.03.14.03.29,0,.19-.05.55-.04.97.02.12.02.19.01.19-.02,0-.02.1-.04.25-.04h.25v.93h-2.49v-.46h0Z" fill="#101010" stroke-width="0"/><path d="m2.61,360.4l18.57.03v3.27s-.69,1.75-.69,1.75l-17.17-.05-.7-1.75-.02-3.25Z" fill="#101010" stroke-width="0"/><path d="m45.12,151.36c0-.16.07-1.15.16-2.2.6-7.06.75-9.58,2.61-13.39,1.84-3.78,4.06-5.88,5.71-6.45,1.79-.62,4.02.72,6.18,4.46,1.06,1.84,2.2,4.2,2.71,5.82.47,1.49.7,3.91.99,6.67.13,1.22.2,4.89.2,5.21v.17h-18.55v-.29Z" fill="url(#radial-gradient)" stroke-width="0"/><path d="m2.62,151.36c0-.16-.1-1.2-.02-2.25.6-7.08.95-9.52,2.8-13.35,1.84-3.79,4.03-5.96,5.69-6.53,1.79-.62,4.11.82,6.26,4.58,1.06,1.84,2.07,4.18,2.58,5.81.47,1.5.75,3.8,1.05,6.57.13,1.23.18,4.97.18,5.29v.17H2.62v-.29Z" fill="url(#radial-gradient-2)" stroke-width="0"/><path d="m20.36,60.94c-.06-1-.09-9.85-.05-19.67.07-19.4.06-19.16,1.12-24.12,1.21-5.66,3.52-10.11,7.44-14.31,1.55-1.66,2.79-2.49,3.73-2.49h.4s0,62.4,0,62.4h-12.52l-.12-1.81h0Z" fill="url(#linear-gradient-7)" stroke-width="0"/><path d="m23.85,69.25c-.09-.12-.75-1.29-1.46-2.61-.71-1.31-1.44-2.65-1.63-2.96l-.34-.57h12.58v6.36h-4.49c-3.38,0-4.53-.05-4.66-.22h0Z" fill="url(#linear-gradient-8)" stroke-width="0"/><path d="m45.95,60.94c.06-1,.09-9.85.05-19.67-.07-19.4-.06-19.16-1.12-24.12-1.21-5.66-3.52-10.11-7.44-14.31-1.55-1.66-2.79-2.49-3.73-2.49h-.4s0,62.4,0,62.4h12.52l.12-1.81h0Z" fill="url(#linear-gradient-9)" stroke-width="0"/><path d="m42.46,69.25c.09-.12.75-1.29,1.46-2.61.71-1.31,1.44-2.65,1.63-2.96l.34-.57h-12.58v6.36h4.49c3.38,0,4.53-.05,4.66-.22h0Z" fill="url(#linear-gradient-10)" stroke-width="0"/><path d="m49.26,368.08c-.2-.48-.45-1.04-.71-1.54l-.1-.19.04-.08c.07-.13.24-.42.34-.59l.04-.06h.2c.11,0,.33,0,.49,0h.29l.04.06c.09.14.31.53.36.63l.02.03-.05.1c-.28.54-.56,1.14-.79,1.7l-.04.09h-.07l-.06-.16h0Z" fill="#333" stroke-width="0"/><path d="m59.25,367.88c-.2-.48-.45-1.04-.71-1.54l-.1-.19.04-.08c.07-.13.24-.42.34-.59l.04-.06h.2c.11,0,.33,0,.49,0h.29l.04.06c.09.14.31.53.36.63l.02.03-.05.1c-.28.54-.56,1.14-.79,1.7l-.04.09h-.07l-.06-.16h0Z" fill="#333" stroke-width="0"/><path d="m53.26,367.37c.08-.16.23-.44.34-.62l.19-.34-.22-.39-.22-.39h-.38c-.33,0-.38-.01-.38-.04,0-.03-.03-.04-.17-.03-.16.01-.17.01-.22.1l-.05.09.29.55c.16.3.37.73.47.95.1.22.19.41.2.41,0,0,.08-.13.16-.29h0Z" fill="#333" stroke-width="0"/><path d="m55.57,367.37c-.08-.16-.23-.44-.34-.62l-.19-.34.22-.39.22-.39h.38c.33,0,.38-.01.38-.04,0-.03.03-.04.17-.03.16.01.17.01.22.1l.05.09-.29.55c-.16.3-.37.73-.47.95-.1.22-.19.41-.2.41,0,0-.08-.13-.16-.29h0Z" fill="#333" stroke-width="0"/><path d="m52,371.61s.08-.39.1-.43c.18-2.27.36-1.8,1.08-3.18,0-.07.49-1.06.77-1.54l.14-.24v-.63h.68v.64l.15.26c.15.27.58,1.09.67,1.32l.06.13c.9,2.43.22.3,1.15,3.43.02.11.04.21.04.23,0,.03,0,.03-2.42.03-1.33,0-2.42,0-2.42-.01h0Z" fill="#333" stroke-width="0"/><path d="m28.04,368c-.2-.48-.45-1.03-.71-1.53l-.1-.19.04-.08c.07-.13.24-.42.34-.58l.04-.06h.2c.11,0,.33,0,.49,0h.29l.04.06c.09.14.31.52.36.62l.02.03-.05.1c-.28.53-.56,1.13-.79,1.69l-.04.09h-.07l-.06-.16h0Z" fill="#333" stroke-width="0"/><path d="m37.99,367.8c-.2-.48-.45-1.03-.71-1.53l-.1-.19.04-.08c.07-.13.24-.42.34-.58l.04-.06h.2c.11,0,.33,0,.49,0h.29l.04.06c.09.14.31.52.36.62l.02.03-.05.1c-.28.53-.56,1.13-.79,1.69l-.04.09h-.07l-.06-.16h0Z" fill="#333" stroke-width="0"/><path d="m32.02,367.3c.08-.16.23-.43.34-.62l.19-.33-.22-.39-.22-.39h-.38c-.33,0-.38-.01-.38-.04,0-.03-.03-.04-.16-.03-.16.01-.17.01-.22.1l-.05.09.29.54c.16.3.37.72.47.94.1.22.19.4.2.4,0,0,.08-.13.16-.28h0Z" fill="#333" stroke-width="0"/><path d="m34.33,367.3c-.08-.16-.23-.43-.34-.62l-.19-.33.22-.39.22-.39h.38c.33,0,.38-.01.38-.04,0-.03.03-.04.16-.03.16.01.17.01.22.1l.05.09-.29.54c-.16.3-.37.72-.47.94-.1.22-.19.4-.2.4,0,0-.08-.13-.16-.28h0Z" fill="#333" stroke-width="0"/><path d="m30.77,371.5s.08-.38.1-.42c.18-2.25.36-1.78,1.08-3.15,0-.07.49-1.05.76-1.52l.14-.24v-.63h.68v.64l.15.25c.15.27.57,1.08.67,1.3l.06.13c.9,2.4.22.29,1.14,3.39.02.1.04.2.04.22,0,.03,0,.03-2.41.03-1.33,0-2.41,0-2.41-.01h0Z" fill="#333" stroke-width="0"/><path d="m6.78,368c-.2-.48-.46-1.03-.71-1.53l-.1-.19.04-.08c.07-.13.24-.42.34-.58l.04-.06h.2c.11,0,.33,0,.5,0h.29l.04.06c.09.14.31.52.36.62l.02.03-.05.1c-.28.53-.56,1.13-.79,1.69l-.04.09h-.07l-.07-.16h0Z" fill="#333" stroke-width="0"/><path d="m16.79,367.8c-.2-.48-.46-1.03-.71-1.53l-.1-.19.04-.08c.07-.13.24-.42.34-.58l.04-.06h.2c.11,0,.33,0,.5,0h.29l.04.06c.09.14.31.52.36.62l.02.03-.05.1c-.28.53-.56,1.13-.79,1.69l-.04.09h-.07l-.07-.16h0Z" fill="#333" stroke-width="0"/><path d="m10.79,367.3c.08-.16.23-.43.34-.62l.19-.33-.22-.39-.22-.39h-.38c-.33,0-.38-.01-.38-.04,0-.03-.03-.04-.17-.03-.16.01-.17.01-.22.1l-.05.09.29.54c.16.3.37.72.47.94.1.22.19.4.2.4,0,0,.08-.13.17-.28h0Z" fill="#333" stroke-width="0"/><path d="m13.11,367.3c-.08-.16-.23-.43-.34-.62l-.19-.33.22-.39.22-.39h.38c.33,0,.38-.01.38-.04,0-.03.03-.04.17-.03.16.01.17.01.22.1l.05.09-.29.54c-.16.3-.37.72-.47.94-.1.22-.19.4-.2.4,0,0-.08-.13-.17-.28h0Z" fill="#333" stroke-width="0"/><path d="m9.53,371.5s.08-.38.1-.42c.18-2.25.36-1.78,1.09-3.15,0-.07.49-1.05.77-1.52l.14-.24v-.63h.69v.64l.15.25c.15.27.58,1.08.68,1.3l.06.13c.9,2.4.22.29,1.15,3.39.02.1.04.2.04.22,0,.03,0,.03-2.42.03-1.33,0-2.42,0-2.42-.01h0Z" fill="#333" stroke-width="0"/><path d="m23.84,69.62h18.65" fill="none" stroke="#000" stroke-width=".4"/><path d="m2.6,151.7h18.65" fill="none" stroke="#000" stroke-width=".4"/><path d="m23.84,360.3h18.65" fill="none" stroke="#000" stroke-width=".4"/><path d="m23.84,116.01h18.65" fill="none" stroke="#000" stroke-width=".4"/><path d="m2.6,360.3h18.65" fill="none" stroke="#000" stroke-width=".4"/><path d="m63.72,151.7h-18.65" fill="none" stroke="#000" stroke-width=".4"/><path d="m45.08,151.7h18.65" fill="none" stroke="#000" stroke-width=".4"/><path d="m45.08,360.3h18.65" fill="none" stroke="#000" stroke-width=".4"/><path d="m20.2,62.95h25.92" fill="none" stroke="#000" stroke-width=".4"/><path d="m23.84,69.62l-.78-1.43-.78-1.43-1.56-2.86-.39-.71-.14-2.86V25.1s.06-.53.06-.53l.05-.53.05-.53.05-.53.06-.53.06-.53.06-.53.07-.53.07-.53.08-.53.08-.53.09-.53.1-.53.1-.53.11-.53.12-.53.12-.52.13-.52.14-.52.15-.52.15-.51.16-.51.17-.5.18-.5.19-.5.2-.49.21-.49.22-.48.23-.48.23-.47.24-.47.25-.46.26-.46.27-.45.28-.45.29-.44.3-.44.31-.44.32-.43.32-.43.33-.43.34-.43.35-.42.36-.42.37-.42.37-.42.38-.41.4-.39.41-.37.42-.34.44-.29.46-.24.49-.18.51-.12.54-.07h.57s.54.06.54.06l.51.12.49.18.46.24.44.29.43.34.41.37.4.39.38.41.37.42.37.42.36.42.35.42.34.43.33.43.32.43.32.43.31.44.3.44.29.44.28.45.27.45.26.46.25.46.24.47.24.47.23.48.22.48.21.49.2.49.19.5.18.5.17.5.16.51.15.51.15.52.14.52.13.52.12.52.12.53.11.53.1.53.09.53.09.53.08.53.07.53.07.53.06.53.06.53.05.53.05.53.05.53.05.53.04.53.04.53v2.99s.01,32.24.01,32.24l-.14,2.86-.78,1.43-1.95,3.57-.78,1.43" fill="none" stroke="#000" stroke-width=".4"/><path d="m36.69,365.4h-1.02" fill="none" stroke="#000" stroke-width=".4"/><path d="m25.79,370.7h4.91" fill="none" stroke="#000" stroke-width=".4"/><path d="m27.73,365.4h1.02" fill="none" stroke="#000" stroke-width=".4"/><path d="m29.19,366.2c-.14-.28-.29-.56-.44-.83" fill="none" stroke="#000" stroke-width=".4"/><path d="m27.73,365.4c-.15.27-.3.55-.44.83" fill="none" stroke="#000" stroke-width=".4"/><path d="m31.12,365.4h.76" fill="none" stroke="#000" stroke-width=".4"/><path d="m32.62,366.3c-.14-.29-.29-.57-.45-.85" fill="none" stroke="#000" stroke-width=".4"/><path d="m31.12,365.4c-.08.14-.16.28-.23.42" fill="none" stroke="#000" stroke-width=".4"/><path d="m40.54,370.7h-4.91" fill="none" stroke="#000" stroke-width=".4"/><path d="m38.59,365.4h-1.02" fill="none" stroke="#000" stroke-width=".4"/><path d="m37.57,365.4c-.15.27-.3.55-.44.83" fill="none" stroke="#000" stroke-width=".4"/><path d="m39.03,366.2c-.14-.28-.29-.56-.44-.83" fill="none" stroke="#000" stroke-width=".4"/><path d="m35.21,365.4h-.76" fill="none" stroke="#000" stroke-width=".4"/><path d="m28.19,364.7c-.01.25.07.49.22.68" fill="none" stroke="#000" stroke-width=".4"/><path d="m31.88,365.4c.15-.2.23-.44.22-.68" fill="none" stroke="#000" stroke-width=".4"/><path d="m28.4,365.4h3.48" fill="none" stroke="#000" stroke-width=".4"/><path d="m34.23,364.7c-.01.25.07.49.22.68" fill="none" stroke="#000" stroke-width=".4"/><path d="m37.92,365.4c.15-.2.23-.44.22-.68" fill="none" stroke="#000" stroke-width=".4"/><path d="m34.45,365.4h3.48" fill="none" stroke="#000" stroke-width=".4"/><path d="m32.18,365.5h1.97" fill="none" stroke="#000" stroke-width=".4"/><path d="m31.37,365.4s.04.05.05.08" fill="none" stroke="#000" stroke-width=".4"/><path d="m34.9,365.5s.04-.05.05-.08" fill="none" stroke="#000" stroke-width=".4"/><path d="m31.42,365.5h3.48" fill="none" stroke="#000" stroke-width=".4"/><path d="m34.2,365.5c-.16.28-.31.56-.45.85" fill="none" stroke="#000" stroke-width=".4"/><path d="m34.2,365.5c-.16.28-.31.56-.45.85" fill="none" stroke="#000" stroke-width=".4"/><path d="m35.47,365.8c-.07-.13-.14-.25-.21-.38" fill="none" stroke="#000" stroke-width=".4"/><path d="m42.49,69.52v240.87" fill="none" stroke="#000" stroke-width=".4"/><path d="m30.91,370.7c-.07.28-.12.55-.18.83h4.91c-.05-.28-.11-.56-.18-.83" fill="none" stroke="#000" stroke-width=".4"/><path d="m31.83,368c.25-.58.53-1.16.85-1.71v-.75" fill="none" stroke="#000" stroke-width=".4"/><path d="m33.7,365.5v.75c.3.53.58,1.08.82,1.65" fill="none" stroke="#000" stroke-width=".4"/><path d="m28.24,368.6c-.36-1.09-.82-2.14-1.39-3.14h-1.02c-.94,1.65-1.6,3.45-1.95,5.32h4.91" fill="#333" stroke="#000" stroke-width=".4"/><path d="m24.39,364.7c-.01.25.07.49.22.68h3.48c.07-.09.12-.19.16-.3" fill="none" stroke="#000" stroke-width=".4"/><path d="m38.08,365.1c.04.11.09.21.16.3h3.48c.15-.2.23-.44.22-.68" fill="none" stroke="#000" stroke-width=".4"/><path d="m37.53,370.7h4.91c-.35-1.87-1.01-3.66-1.95-5.32h-1.02c-.57,1-1.03,2.05-1.39,3.14" fill="#333" stroke="#000" stroke-width=".4"/><path d="m36.69,365.4c.94,1.65,1.6,3.45,1.95,5.32h-4.91c.35-1.87,1.01-3.66,1.95-5.32" fill="#333" stroke="#000" stroke-width=".4"/><path d="m29.63,365.4c-.94,1.65-1.6,3.45-1.95,5.32h4.91c-.35-1.87-1.01-3.66-1.95-5.32h-1.02Z" fill="#333" stroke="#000" stroke-width=".4"/><path d="m15.46,365.4h-1.02" fill="none" stroke="#000" stroke-width=".4"/><path d="m4.55,370.7h4.91" fill="none" stroke="#000" stroke-width=".4"/><path d="m6.5,365.4h1.02" fill="none" stroke="#000" stroke-width=".4"/><path d="m7.96,366.2c-.14-.28-.29-.56-.44-.83" fill="none" stroke="#000" stroke-width=".4"/><path d="m6.5,365.4c-.15.27-.3.55-.44.83" fill="none" stroke="#000" stroke-width=".4"/><path d="m9.88,365.4h.76" fill="none" stroke="#000" stroke-width=".4"/><path d="m11.39,366.3c-.14-.29-.29-.57-.45-.85" fill="none" stroke="#000" stroke-width=".4"/><path d="m9.88,365.4c-.08.14-.16.28-.23.42" fill="none" stroke="#000" stroke-width=".4"/><path d="m19.3,370.7h-4.91" fill="none" stroke="#000" stroke-width=".4"/><path d="m17.36,365.4h-1.02" fill="none" stroke="#000" stroke-width=".4"/><path d="m16.34,365.4c-.15.27-.3.55-.44.83" fill="none" stroke="#000" stroke-width=".4"/><path d="m17.8,366.2c-.14-.28-.29-.56-.44-.83" fill="none" stroke="#000" stroke-width=".4"/><path d="m13.98,365.4h-.76" fill="none" stroke="#000" stroke-width=".4"/><path d="m6.95,364.7c-.01.25.07.49.22.68" fill="none" stroke="#000" stroke-width=".4"/><path d="m10.64,365.4c.15-.2.23-.44.22-.68" fill="none" stroke="#000" stroke-width=".4"/><path d="m7.17,365.4h3.48" fill="none" stroke="#000" stroke-width=".4"/><path d="m13,364.7c-.01.25.07.49.22.68" fill="none" stroke="#000" stroke-width=".4"/><path d="m16.69,365.4c.15-.2.23-.44.22-.68" fill="none" stroke="#000" stroke-width=".4"/><path d="m13.21,365.4h3.48" fill="none" stroke="#000" stroke-width=".4"/><path d="m10.94,365.5h1.97" fill="none" stroke="#000" stroke-width=".4"/><path d="m10.13,365.4s.04.05.05.08" fill="none" stroke="#000" stroke-width=".4"/><path d="m13.67,365.5s.04-.05.05-.08" fill="none" stroke="#000" stroke-width=".4"/><path d="m10.19,365.5h3.48" fill="none" stroke="#000" stroke-width=".4"/><path d="m12.96,365.5c-.16.28-.31.56-.45.85" fill="none" stroke="#000" stroke-width=".4"/><path d="m12.96,365.5c-.16.28-.31.56-.45.85" fill="none" stroke="#000" stroke-width=".4"/><path d="m14.23,365.8c-.07-.13-.14-.25-.21-.38" fill="none" stroke="#000" stroke-width=".4"/><path d="m9.67,370.7c-.07.28-.12.55-.18.83h4.91c-.05-.28-.11-.56-.18-.83" fill="none" stroke="#000" stroke-width=".4"/><path d="m10.59,368c.25-.58.53-1.16.85-1.71v-.75" fill="none" stroke="#000" stroke-width=".4"/><path d="m12.46,365.5v.75c.3.53.58,1.08.82,1.65" fill="none" stroke="#000" stroke-width=".4"/><path d="m7.01,368.6c-.36-1.09-.82-2.14-1.39-3.14h-1.02c-.94,1.65-1.6,3.45-1.95,5.32h4.91" fill="#333" stroke="#000" stroke-width=".4"/><path d="m3.15,364.7c-.01.25.07.49.22.68h3.48c.07-.09.12-.19.16-.3" fill="none" stroke="#000" stroke-width=".4"/><path d="m16.85,365.1c.04.11.09.21.16.3h3.48c.15-.2.23-.44.22-.68" fill="none" stroke="#000" stroke-width=".4"/><path d="m16.29,370.7h4.91c-.35-1.87-1.01-3.66-1.95-5.32h-1.02c-.57,1-1.03,2.05-1.39,3.14" fill="#333" stroke="#000" stroke-width=".4"/><path d="m15.46,365.4c.94,1.65,1.6,3.45,1.95,5.32h-4.91c.35-1.87,1.01-3.66,1.95-5.32" fill="#333" stroke="#000" stroke-width=".4"/><path d="m8.4,365.4c-.94,1.65-1.6,3.45-1.95,5.32h4.91c-.35-1.87-1.01-3.66-1.95-5.32h-1.02Z" fill="#333" stroke="#000" stroke-width=".4"/><path d="m57.93,365.4h-1.02" fill="none" stroke="#000" stroke-width=".4"/><path d="m47.02,370.7h4.91" fill="none" stroke="#000" stroke-width=".4"/><path d="m48.97,365.4h1.02" fill="none" stroke="#000" stroke-width=".4"/><path d="m50.43,366.2c-.14-.28-.29-.56-.44-.83" fill="none" stroke="#000" stroke-width=".4"/><path d="m48.97,365.4c-.15.27-.3.55-.44.83" fill="none" stroke="#000" stroke-width=".4"/><path d="m52.35,365.4h.76" fill="none" stroke="#000" stroke-width=".4"/><path d="m53.86,366.3c-.14-.29-.29-.57-.45-.85" fill="none" stroke="#000" stroke-width=".4"/><path d="m52.35,365.4c-.08.14-.16.28-.23.42" fill="none" stroke="#000" stroke-width=".4"/><path d="m61.77,370.7h-4.91" fill="none" stroke="#000" stroke-width=".4"/><path d="m59.83,365.4h-1.02" fill="none" stroke="#000" stroke-width=".4"/><path d="m58.81,365.4c-.15.27-.3.55-.44.83" fill="none" stroke="#000" stroke-width=".4"/><path d="m60.27,366.2c-.14-.28-.29-.56-.44-.83" fill="none" stroke="#000" stroke-width=".4"/><path d="m56.45,365.4h-.76" fill="none" stroke="#000" stroke-width=".4"/><path d="m49.42,364.7c-.01.25.07.49.22.68" fill="none" stroke="#000" stroke-width=".4"/><path d="m53.11,365.4c.15-.2.23-.44.22-.68" fill="none" stroke="#000" stroke-width=".4"/><path d="m49.64,365.4h3.48" fill="none" stroke="#000" stroke-width=".4"/><path d="m55.47,364.7c-.01.25.07.49.22.68" fill="none" stroke="#000" stroke-width=".4"/><path d="m59.16,365.4c.15-.2.23-.44.22-.68" fill="none" stroke="#000" stroke-width=".4"/><path d="m55.68,365.4h3.48" fill="none" stroke="#000" stroke-width=".4"/><path d="m53.41,365.5h1.97" fill="none" stroke="#000" stroke-width=".4"/><path d="m52.61,365.4s.04.05.05.08" fill="none" stroke="#000" stroke-width=".4"/><path d="m56.14,365.5s.04-.05.05-.08" fill="none" stroke="#000" stroke-width=".4"/><path d="m52.66,365.5h3.48" fill="none" stroke="#000" stroke-width=".4"/><path d="m55.43,365.5c-.16.28-.31.56-.45.85" fill="none" stroke="#000" stroke-width=".4"/><path d="m55.43,365.5c-.16.28-.31.56-.45.85" fill="none" stroke="#000" stroke-width=".4"/><path d="m56.7,365.8c-.07-.13-.14-.25-.21-.38" fill="none" stroke="#000" stroke-width=".4"/><path d="m52.14,370.7c-.07.28-.12.55-.18.83h4.91c-.05-.28-.11-.56-.18-.83" fill="none" stroke="#000" stroke-width=".4"/><path d="m53.07,368c.25-.58.53-1.16.85-1.71v-.75" fill="none" stroke="#000" stroke-width=".4"/><path d="m54.93,365.5v.75c.3.53.58,1.08.82,1.65" fill="none" stroke="#000" stroke-width=".4"/><path d="m49.48,368.6c-.36-1.09-.82-2.14-1.39-3.14h-1.02c-.94,1.65-1.6,3.45-1.95,5.32h4.91" fill="#333" stroke="#000" stroke-width=".4"/><path d="m45.62,364.7c-.01.25.07.49.22.68h3.48c.07-.09.12-.19.16-.3" fill="none" stroke="#000" stroke-width=".4"/><path d="m59.32,365.1c.04.11.09.21.16.3h3.48c.15-.2.23-.44.22-.68" fill="none" stroke="#000" stroke-width=".4"/><path d="m58.76,370.7h4.91c-.35-1.87-1.01-3.66-1.95-5.32h-1.02c-.57,1-1.03,2.05-1.39,3.14" fill="#333" stroke="#000" stroke-width=".4"/><path d="m57.93,365.4c.94,1.65,1.6,3.45,1.95,5.32h-4.91c.35-1.87,1.01-3.66,1.95-5.32" fill="#333" stroke="#000" stroke-width=".4"/><path d="m50.87,365.4c-.94,1.65-1.6,3.45-1.95,5.32h4.91c-.35-1.87-1.01-3.66-1.95-5.32h-1.02Z" fill="#333" stroke="#000" stroke-width=".4"/><path d="m33.16,69.62V.22" fill="none" stroke="#000" stroke-width=".4"/><path d="m42.49,361.8h2.59" fill="none" stroke="#000" stroke-width=".4"/><path d="m2.6,354.91v8.31h0s0,.07,0,.07l.02.21.04.21.05.21.07.2.08.2.09.19.11.18v.02s.02.01.02.01h0s.02.01.02.01h17.66s.06-.1.06-.1l.1-.19.09-.19.08-.2.06-.2.05-.21.03-.21.02-.21v-8.31" fill="none" stroke="#000" stroke-width=".4"/><path d="m3.49,348.1l.05-.14.08-.16.11-.16.14-.16.16-.15.18-.14.2-.11.21-.08.23-.04h.23s.24.05.24.05l.24.11.4,1.06.42,1.17.42,1.17.42,1.17.42,1.17,1.69,4.66.42,1.17.85,2.33.11.28.02.03.02.03.02.03.03.03.03.03.03.02.03.02.03.02.03.02.03.02h.03s.03.02.03.02l.07.02h.13s.03,0,.03,0h.15l.05-.02.05-.05.05-.07.05-.09.05-.11.04-.13.04-.14.04-.15.03-.16.03-.16.02-.16-.19-1.82-.45-3.82-.45-3.82-.9-7.63-.45-3.82-.45-3.82-.9-7.63-.45-3.82-.9-7.63-.29-2.58v-.5s0-.25,0-.25l-.02-2.01v-.31s-.05-.49-.05-.49l-.04-.44-.04-.4-.04-.36-.04-.32-.04-.29-.04-.26-.04-.23-.04-.21-.04-.19-.04-.17-.04-.16-.05-.14-.05-.13-.05-.12-.05-.11-.05-.1-.05-.09-.05-.08-.05-.07-.05-.07-.05-.06-.05-.05-.05-.04-.05-.04-.05-.03-.06-.03-.06-.02h-.06s-.06-.02-.06-.02h-.06s-.06,0-.06,0h-.06s-.06.03-.06.03l-.06.02-.06.03-.06.03-.06.04-.06.05-.06.05-.07.06-.07.07-.07.08-.07.08-.07.09-.07.1-.07.11-.07.12-.07.13-.08.14-.08.14-.08.15-.08.16-.08.16-.08.17-.07.17-.07.17-.07.17-.07.17-.07.17-.06.17-.06.17-.06.17-.05.17-.05.17-.05.17-.04.17-.04.17-.03.17-.03.17" fill="#f2f2f2" stroke="#000" stroke-width=".4"/><path d="m21.25,361.8h2.59" fill="none" stroke="#000" stroke-width=".4"/><path d="m24.73,348.1l.05-.14.08-.16.11-.16.14-.16.16-.15.18-.14.2-.11.21-.08.23-.04h.23s.24.05.24.05l.24.11.4,1.06,1.27,3.5.42,1.17,1.69,4.66.42,1.17.85,2.33.11.28.02.03.02.03.02.03.03.03.03.03.03.02.03.02.03.02.03.02.03.02h.03s.03.02.03.02l.07.02h.13s.03,0,.03,0h.15l.05-.02.05-.05.05-.07.05-.09.05-.11.04-.13.04-.14.04-.15.03-.16.03-.16.02-.16-.19-1.82-.45-3.82-.45-3.82-.9-7.63-.45-3.82-.45-3.82-.9-7.63-.45-3.82-.9-7.63-.29-2.58v-.5s0-.25,0-.25l-.02-2.01v-.31s-.05-.49-.05-.49l-.04-.44-.04-.4-.04-.36-.04-.32-.04-.29-.04-.26-.04-.23-.04-.21-.04-.19-.04-.17-.04-.16-.05-.14-.05-.13-.05-.12-.05-.11-.05-.1-.05-.09-.05-.08-.05-.07-.05-.07-.05-.06-.05-.05-.05-.04-.05-.04-.05-.03-.06-.03-.06-.02h-.06s-.06-.02-.06-.02h-.06s-.06,0-.06,0h-.06s-.06.03-.06.03l-.06.02-.06.03-.06.03-.06.04-.06.05-.06.05-.07.06-.07.07-.07.08-.07.08-.07.09-.07.1-.07.11-.07.12-.07.13-.08.14-.08.14-.08.15-.08.16-.08.16-.08.17-.07.17-.07.17-.07.17-.07.17-.07.17-.06.17-.06.17-.06.17-.05.17-.05.17-.05.17-.04.17-.04.17-.03.17-.03.17" fill="#f2f2f2" stroke="#000" stroke-width=".4"/><path d="m42.49,354.91v8.31c-.02.54-.19,1.06-.49,1.51h-17.67c-.3-.45-.46-.97-.49-1.51v-8.31" fill="none" stroke="#000" stroke-width=".4"/><path d="m45.08,354.91v8.31h0s0,.07,0,.07l.02.21.04.21.05.21.07.2.08.2.09.19.11.18v.02s.02.01.02.01h0s.02.01.02.01h17.66s.06-.1.06-.1l.1-.19.09-.19.08-.2.06-.2.05-.21.03-.21.02-.21v-8.31" fill="none" stroke="#000" stroke-width=".4"/><path d="m6.43,310.97l-1.23-1.31" fill="none" stroke="#000" stroke-width=".4"/><path d="m5.2,309.66h-2.25" fill="none" stroke="#000" stroke-width=".4"/><path d="m3.49,348.1l-.04.22-.04.22-.04.22-.04.23-.04.23-.04.24-.04.24-.03.24-.03.25-.03.25-.03.25-.03.25-.03.26-.03.26-.03.26-.03.26-.03.27-.03.27-.03.27-.03.27-.03.27-.03.28-.06.55-.06.56-.06.56-.12,1.13-.06.56-.06.56-.06.56-.06.55-.03.28-.03.27-.03.27-.03.27-.03.27-.03.27-.03.26-.03.26-.03.26-.03.26v.13s-.02.05-.02.05h0s0,.01,0,.01v.02s-.02.01-.02.01h0s-.02.04-.02.04h-.07l-.03-.02-.07-.04-.06-.04-.06-.04-.06-.04-.06-.04-.06-.04-.05-.04-.05-.04-.05-.04-.05-.04-.05-.04-.04-.04-.04-.04-.04-.04-.04-.04-.04-.04-.04-.04-.07-.09-.06-.09-.06-.09-.05-.09-.05-.09-.05-.09-.04-.09-.04-.09-.03-.09-.03-.09-.03-.09-.03-.09-.02-.09-.02-.09-.02-.09-.02-.09v-.05s-.01-.02-.01-.02h0s0-.01,0-.01h0s0,0,0,0h0s0-.07,0-.07v-.11s.73-21.64.73-21.64l.48-14.43.24-7.21.06-1.8.02-.45v-.03s0,0,0,0h0s0,0,0,0h0s0,0,0,0h0s0-.06,0-.06v-.09s.03-.09.03-.09v-.09s.03-.09.03-.09v-.08s.03-.08.03-.08v-.08s.03-.08.03-.08v-.08s.03-.08.03-.08l.03-.15.03-.14.03-.14.03-.14.03-.14.04-.14.04-.14.04-.14.04-.14.04-.14.05-.14.05-.15.05-.15.03-.08.03-.08.03-.08.03-.08.03-.08.03-.08.04-.08.04-.08.04-.08.04-.09.04-.09.04-.09.05-.09.05-.09" fill="#f2f2f2" stroke="#000" stroke-linecap="round" stroke-width=".4"/><path d="m2.68,340.03l.17-24.12" fill="none" stroke="#000" stroke-width=".4"/><path d="m2.86,315.91l2.16-2.93" fill="none" stroke="#000" stroke-width=".4"/><path d="m2.86,315.91l-1.03-2.67" fill="none" stroke="#000" stroke-width=".4"/><path d="m5.02,312.98l.18-3.32" fill="none" stroke="#000" stroke-linecap="round" stroke-width=".4"/><path d="m1.99,360.7h.61" fill="none" stroke="#000" stroke-width=".4"/><path d="m1.92,361.3h.69" fill="none" stroke="#000" stroke-width=".4"/><path d="m20.36,348.1l-.05-.14-.08-.16-.11-.16-.14-.16-.16-.15-.18-.14-.2-.11-.21-.08-.23-.04h-.23s-.24.05-.24.05l-.24.11-.4,1.06-.42,1.17-.85,2.33-.42,1.17-1.69,4.66-.42,1.17-.85,2.33-.11.28-.02.03-.02.03-.02.03-.03.03-.03.03-.03.02-.03.02-.03.02-.03.02-.03.02h-.03s-.03.02-.03.02l-.07.02h-.13s-.03,0-.03,0h-.15l-.05-.02-.05-.05-.05-.07-.05-.09-.05-.11-.04-.13-.04-.14-.04-.15-.03-.16-.03-.16-.02-.16.19-1.82.45-3.82.45-3.82.9-7.63.45-3.82.45-3.82.9-7.63.45-3.82.9-7.63.29-2.58v-.5s0-.25,0-.25l.02-2.01v-.31s.05-.49.05-.49l.04-.44.04-.4.04-.36.04-.32.04-.29.04-.26.04-.23.04-.21.04-.19.04-.17.04-.16.05-.14.05-.13.05-.12.05-.11.05-.1.05-.09.05-.08.05-.07.05-.07.05-.06.05-.05.05-.04.05-.04.05-.03.06-.03.06-.02h.06s.06-.02.06-.02h.06s.06,0,.06,0h.06s.06.03.06.03l.06.02.06.03.06.03.06.04.06.05.06.05.07.06.07.07.07.08.07.08.07.09.07.1.07.11.07.12.07.13.08.14.08.14.08.15.08.16.08.16.08.17.07.17.07.17.07.17.07.17.07.17.06.17.06.17.06.17.05.17.05.17.05.17.04.17.04.17.03.17.03.17" fill="#f2f2f2" stroke="#000" stroke-width=".4"/><path d="m11.62,361.3h.61" fill="none" stroke="#000" stroke-width=".4"/><path d="m.67,360.6l.59-7.51.12-1.5.47-6.01.12-1.5.24-3,.05-.48.03-.12.04-.1.04-.09.05-.07.05-.06.06-.04.06-.03.06-.02h.06s.07-.01.07-.01h.07s.07.03.07.03l.06.03.06.03.06.04.06.04.06.05.06.05.06.05.05.06.05.06.05.06.05.06.05.06.04.06.18.44,1.17,3.14.58,1.57.58,1.57,2.91,7.85.58,1.57,1.75,4.71" fill="none" stroke="#000" stroke-width=".4"/><path d="m17.42,310.97l1.23-1.31" fill="none" stroke="#000" stroke-width=".4"/><path d="m18.65,309.66h2.25" fill="none" stroke="#000" stroke-width=".4"/><path d="m21.17,340.03l-.17-24.12" fill="none" stroke="#000" stroke-width=".4"/><path d="m22.55,327.35l-.14-4.28-.24-7.21-.06-1.8-.02-.45v-.03s0,0,0,0h0s0,0,0,0h0s0,0,0,0h0s0-.02,0-.02v-.05s-.02-.09-.02-.09v-.09s-.03-.09-.03-.09v-.09s-.03-.08-.03-.08v-.08s-.03-.08-.03-.08v-.08s-.03-.08-.03-.08l-.02-.08-.03-.15-.03-.14-.03-.14-.03-.14-.03-.14-.04-.14-.04-.14-.04-.14-.04-.14-.04-.14-.05-.14-.05-.15-.05-.15-.03-.08-.03-.08-.03-.08-.03-.08-.03-.08-.03-.08-.04-.08-.04-.08-.04-.08-.04-.09-.04-.09-.04-.09-.05-.09-.05-.09" fill="#f2f2f2" stroke="#000" stroke-width=".4"/><path d="m21,315.91l-2.16-2.93" fill="none" stroke="#000" stroke-width=".4"/><path d="m21,315.91l1.03-2.67" fill="none" stroke="#000" stroke-width=".4"/><path d="m18.84,312.98l-.18-3.32" fill="none" stroke="#000" stroke-linecap="round" stroke-width=".4"/><path d="m21.86,360.7h-.61" fill="none" stroke="#000" stroke-width=".4"/><path d="m21.94,361.3h-.69" fill="none" stroke="#000" stroke-width=".4"/><path d="m20.36,348.1l.04.22.04.22.04.22.04.23.04.23.04.24.04.24.03.24.03.25.03.25.03.25.03.25.03.26.03.26.03.26.03.26.03.27.03.27.03.27.03.27.03.27.03.28.06.55.06.56.06.56.12,1.13.06.56.06.56v.08" fill="none" stroke="#000" stroke-linecap="round" stroke-width=".4"/><path d="m27.67,310.97l-1.23-1.31" fill="none" stroke="#000" stroke-width=".4"/><path d="m26.44,309.66h-2.25" fill="none" stroke="#000" stroke-width=".4"/><path d="m24.73,348.1l-.04.22-.04.22-.04.22-.04.23-.04.23-.04.24-.04.24-.03.24-.03.25-.03.25-.03.25-.03.25-.03.26-.03.26-.03.26-.03.26-.03.27-.03.27-.03.27-.03.27-.03.27-.03.28-.06.55-.06.56-.06.56-.12,1.13-.06.56-.06.56-.06.56-.06.55-.03.28-.03.27-.03.27-.03.27-.03.27-.03.27-.03.26-.03.26-.03.26-.03.26v.13s-.02.05-.02.05h0s0,.01,0,.01v.02s-.02.01-.02.01h0s-.02.04-.02.04h-.07l-.03-.02-.07-.04-.06-.04-.06-.04-.06-.04-.06-.04-.06-.04-.05-.04-.05-.04-.05-.04-.05-.04-.05-.04-.04-.04-.04-.04-.04-.04-.04-.04-.04-.04-.04-.04-.07-.09-.06-.09-.06-.09-.05-.09-.05-.09-.05-.09-.04-.09-.04-.09-.03-.09-.03-.09-.03-.09-.03-.09-.02-.09-.02-.09-.02-.09-.02-.09v-.05s-.01-.02-.01-.02h0s0-.01,0-.01h0s0,0,0,0h0s0-.07,0-.07v-.11s.73-21.64.73-21.64l.48-14.43.24-7.21.06-1.8.02-.45v-.03s0,0,0,0h0s0,0,0,0h0s0,0,0,0h0s0-.02,0-.02v-.05s.02-.09.02-.09v-.09s.03-.09.03-.09v-.09s.03-.08.03-.08v-.08s.03-.08.03-.08v-.08s.03-.08.03-.08l.02-.08.03-.15.03-.14.03-.14.03-.14.03-.14.04-.14.04-.14.04-.14.04-.14.04-.14.05-.14.05-.15.05-.15.03-.08.03-.08.03-.08.03-.08.03-.08.03-.08.04-.08.04-.08.04-.08.04-.09.04-.09.04-.09.05-.09.05-.09" fill="#f2f2f2" stroke="#000" stroke-linecap="round" stroke-width=".4"/><path d="m23.92,340.03l.17-24.12" fill="none" stroke="#000" stroke-width=".4"/><path d="m24.09,315.91l2.16-2.93" fill="none" stroke="#000" stroke-width=".4"/><path d="m24.09,315.91l-1.03-2.67" fill="none" stroke="#000" stroke-width=".4"/><path d="m26.25,312.98l.18-3.32" fill="none" stroke="#000" stroke-linecap="round" stroke-width=".4"/><path d="m23.23,360.7h.61" fill="none" stroke="#000" stroke-width=".4"/><path d="m23.15,361.3h.69" fill="none" stroke="#000" stroke-width=".4"/><path d="m41.6,348.1l-.05-.14-.08-.16-.11-.16-.14-.16-.16-.15-.18-.14-.2-.11-.21-.08-.23-.04h-.23s-.24.05-.24.05l-.24.11-.4,1.06-.42,1.17-.85,2.33-.42,1.17-1.69,4.66-.42,1.17-.85,2.33-.11.28-.02.03-.02.03-.02.03-.03.03-.03.03-.03.02-.03.02-.03.02-.03.02-.03.02h-.03s-.03.02-.03.02l-.07.02h-.13s-.03,0-.03,0h-.15l-.05-.02-.05-.05-.05-.07-.05-.09-.05-.11-.04-.13-.04-.14-.04-.15-.03-.16-.03-.16-.02-.16.19-1.82.9-7.63.9-7.63.45-3.82.45-3.82.9-7.63.45-3.82.9-7.63.29-2.58v-.5s0-.25,0-.25l.02-2.01v-.31s.05-.49.05-.49l.04-.44.04-.4.04-.36.04-.32.04-.29.04-.26.04-.23.04-.21.04-.19.04-.17.04-.16.05-.14.05-.13.05-.12.05-.11.05-.1.05-.09.05-.08.05-.07.05-.07.05-.06.05-.05.05-.04.05-.04.05-.03.06-.03.06-.02h.06s.06-.02.06-.02h.06s.06,0,.06,0h.06s.06.03.06.03l.06.02.06.03.06.03.06.04.06.05.06.05.07.06.07.07.07.08.07.08.07.09.07.1.07.11.07.12.07.13.08.14.08.14.08.15.08.16.08.16.08.17.07.17.07.17.07.17.07.17.07.17.06.17.06.17.06.17.05.17.05.17.05.17.04.17.04.17.03.17.03.17" fill="#f2f2f2" stroke="#000" stroke-width=".4"/><path d="m32.86,361.3h.61" fill="none" stroke="#000" stroke-width=".4"/><path d="m21.91,360.6l.12-1.5.47-6.01.12-1.5.47-6.01.12-1.5.24-3,.05-.48.03-.12.04-.1.04-.09.05-.07.05-.06.06-.04.06-.03.06-.02h.06s.07-.01.07-.01h.07s.07.03.07.03l.06.03.06.03.06.04.06.04.06.05.06.05.06.05.05.06.05.06.05.06.05.06.05.06.04.06.18.44,1.17,3.14.58,1.57.58,1.57.58,1.57,2.33,6.28.58,1.57,1.75,4.71" fill="none" stroke="#000" stroke-width=".4"/><path d="m38.66,310.97l1.23-1.31" fill="none" stroke="#000" stroke-width=".4"/><path d="m39.89,309.66h2.25" fill="none" stroke="#000" stroke-width=".4"/><path d="m41.6,348.1l.04.22.04.22.04.22.04.23.04.23.04.24.04.24.03.24.03.25.03.25.03.25.03.25.03.26.03.26.03.26.03.26.03.27.03.27.03.27.03.27.03.27.03.28.06.55.06.56.06.56.12,1.13.06.56.06.56.06.56.06.55.03.28.03.27.03.27.03.27.03.27.03.27.03.26.03.26.03.26.03.26v.13s.02.05.02.05h0s0,.01,0,.01v.02s.02.01.02.01h0s.02.04.02.04h.07l.03-.02.07-.04.06-.04.06-.04.06-.04.06-.04.06-.04.05-.04.05-.04.05-.04.05-.04.05-.04.04-.04.04-.04.04-.04.04-.04.04-.04.04-.04.07-.09.06-.09.06-.09.05-.09.05-.09.05-.09.04-.09.04-.09.03-.09.03-.09.03-.09.03-.09.02-.09.02-.09.02-.09.02-.09v-.05s.01-.02.01-.02h0s0-.01,0-.01h0s0,0,0,0h0s0-.07,0-.07v-.11s-.73-21.64-.73-21.64l-.48-14.43-.24-7.21-.06-1.8-.02-.45v-.03s0,0,0,0h0s0,0,0,0h0s0,0,0,0h0s0-.02,0-.02v-.05s-.02-.09-.02-.09v-.09s-.03-.09-.03-.09v-.09s-.03-.08-.03-.08v-.08s-.03-.08-.03-.08v-.08s-.03-.08-.03-.08l-.02-.08-.03-.15-.03-.14-.03-.14-.03-.14-.03-.14-.04-.14-.04-.14-.04-.14-.04-.14-.04-.14-.05-.14-.05-.15-.05-.15-.03-.08-.03-.08-.03-.08-.03-.08-.03-.08-.03-.08-.04-.08-.04-.08-.04-.08-.04-.09-.04-.09-.04-.09-.05-.09-.05-.09" fill="#f2f2f2" stroke="#000" stroke-linecap="round" stroke-width=".4"/><path d="m42.41,340.03l-.17-24.12" fill="none" stroke="#000" stroke-width=".4"/><path d="m42.23,315.91l-2.16-2.93" fill="none" stroke="#000" stroke-width=".4"/><path d="m42.23,315.91l1.03-2.67" fill="none" stroke="#000" stroke-width=".4"/><path d="m40.07,312.98l-.18-3.32" fill="none" stroke="#000" stroke-linecap="round" stroke-width=".4"/><path d="m43.1,360.7h-.61" fill="none" stroke="#000" stroke-width=".4"/><path d="m43.17,361.3h-.69" fill="none" stroke="#000" stroke-width=".4"/><path d="m44.42,360.6l-.12-1.5-.47-6.01-.12-1.5-.59-7.51-.12-1.5-.12-1.5-.05-.48-.03-.12-.04-.1-.04-.09-.05-.07-.05-.06-.06-.04-.06-.03-.06-.02h-.06s-.07-.01-.07-.01h-.07s-.07.03-.07.03l-.06.03-.06.03-.06.04-.06.04-.06.05-.06.05-.06.05-.05.06-.05.06-.05.06-.05.06-.05.06-.04.06-.18.44-1.75,4.71-.58,1.57-1.17,3.14-1.75,4.71-.58,1.57-.58,1.57-1.17,3.14" fill="none" stroke="#000" stroke-width=".4"/><path d="m45.97,348.1l.05-.14.08-.16.11-.16.14-.16.16-.15.18-.14.2-.11.21-.08.23-.04h.23s.24.05.24.05l.24.11.4,1.06,1.27,3.5.42,1.17,1.69,4.66.42,1.17.85,2.33.11.28.02.03.02.03.02.03.03.03.03.03.03.02.03.02.03.02.03.02.03.02h.03s.03.02.03.02l.07.02h.13s.03,0,.03,0h.15l.05-.02.05-.05.05-.07.05-.09.05-.11.04-.13.04-.14.04-.15.03-.16.03-.16.02-.16-.19-1.82-.45-3.82-.45-3.82-.9-7.63-.45-3.82-.45-3.82-.9-7.63-.45-3.82-.9-7.63-.29-2.58v-.5s0-.25,0-.25l-.02-2.01v-.31s-.05-.49-.05-.49l-.04-.44-.04-.4-.04-.36-.04-.32-.04-.29-.04-.26-.04-.23-.04-.21-.04-.19-.04-.17-.04-.16-.05-.14-.05-.13-.05-.12-.05-.11-.05-.1-.05-.09-.05-.08-.05-.07-.05-.07-.05-.06-.05-.05-.05-.04-.05-.04-.05-.03-.06-.03-.06-.02h-.06s-.06-.02-.06-.02h-.06s-.06,0-.06,0h-.06s-.06.03-.06.03l-.06.02-.06.03-.06.03-.06.04-.06.05-.06.05-.07.06-.07.07-.07.08-.07.08-.07.09-.07.1-.07.11-.07.12-.07.13-.08.14-.08.14-.08.15-.08.16-.08.16-.08.17-.07.17-.07.17-.07.17-.07.17-.07.17-.06.17-.06.17-.06.17-.05.17-.05.17-.05.17-.04.17-.04.17-.03.17-.03.17" fill="#f2f2f2" stroke="#000" stroke-width=".4"/><path d="m48.91,310.97l-1.23-1.31" fill="none" stroke="#000" stroke-width=".4"/><path d="m47.67,309.66h-2.25" fill="none" stroke="#000" stroke-width=".4"/><path d="m45.15,340.03l.17-24.12" fill="none" stroke="#000" stroke-width=".4"/><path d="m45.33,315.91l2.16-2.93" fill="none" stroke="#000" stroke-width=".4"/><path d="m45.33,315.91l-1.03-2.67" fill="none" stroke="#000" stroke-width=".4"/><path d="m47.49,312.98l.18-3.32" fill="none" stroke="#000" stroke-linecap="round" stroke-width=".4"/><path d="m44.46,360.7h.61" fill="none" stroke="#000" stroke-width=".4"/><path d="m44.39,361.3h.69" fill="none" stroke="#000" stroke-width=".4"/><path d="m54.09,361.3h.61" fill="none" stroke="#000" stroke-width=".4"/><path d="m45.97,348.1l-.04.22-.04.22-.04.22-.04.23-.04.23-.04.24-.04.24-.03.24-.03.25-.03.25-.03.25-.03.25-.03.26-.03.26-.03.26-.03.26-.03.27-.03.27-.03.27-.03.27-.03.27-.03.28-.06.55-.06.56-.06.56-.12,1.13-.06.56-.06.56v.08" fill="none" stroke="#000" stroke-linecap="round" stroke-width=".4"/><path d="m44.36,344.73l.08-.68.12-1.5.12-1.5.05-.48.03-.12.04-.1.04-.09.05-.07.05-.06.06-.04.06-.03.06-.02h.06s.07-.01.07-.01h.07s.07.03.07.03l.06.03.06.03.06.04.06.04.06.05.06.05.06.05.05.06.05.06.05.06.05.06.05.06.04.06.18.44,1.75,4.71.58,1.57.58,1.57,2.33,6.28.58,1.57,1.75,4.71" fill="none" stroke="#000" stroke-width=".4"/><path d="m62.83,348.1l-.05-.14-.08-.16-.11-.16-.14-.16-.16-.15-.18-.14-.2-.11-.21-.08-.23-.04h-.23s-.24.05-.24.05l-.24.11-.4,1.06-.42,1.17-.42,1.17-.42,1.17-.42,1.17-1.69,4.66-.42,1.17-.85,2.33-.11.28-.02.03-.02.03-.02.03-.03.03-.03.03-.03.02-.03.02-.03.02-.03.02-.03.02h-.03s-.03.02-.03.02l-.07.02h-.13s-.03,0-.03,0h-.15l-.05-.02-.05-.05-.05-.07-.05-.09-.05-.11-.04-.13-.04-.14-.04-.15-.03-.16-.03-.16-.02-.16.19-1.82.9-7.63.9-7.63.45-3.82.45-3.82.9-7.63.45-3.82.9-7.63.29-2.58v-.5s0-.25,0-.25l.02-2.01v-.31s.05-.49.05-.49l.04-.44.04-.4.04-.36.04-.32.04-.29.04-.26.04-.23.04-.21.04-.19.04-.17.04-.16.05-.14.05-.13.05-.12.05-.11.05-.1.05-.09.05-.08.05-.07.05-.07.05-.06.05-.05.05-.04.05-.04.05-.03.06-.03.06-.02h.06s.06-.02.06-.02h.06s.06,0,.06,0h.06s.06.03.06.03l.06.02.06.03.06.03.06.04.06.05.06.05.07.06.07.07.07.08.07.08.07.09.07.1.07.11.07.12.07.13.08.14.08.14.08.15.08.16.08.16.08.17.07.17.07.17.07.17.07.17.07.17.06.17.06.17.06.17.05.17.05.17.05.17.04.17.04.17.03.17.03.17" fill="#f2f2f2" stroke="#000" stroke-width=".4"/><path d="m59.89,310.97l1.23-1.31" fill="none" stroke="#000" stroke-width=".4"/><path d="m61.13,309.66h2.25" fill="none" stroke="#000" stroke-width=".4"/><path d="m62.83,348.1l.04.22.04.22.04.22.04.23.04.23.04.24.04.24.03.24.03.25.03.25.03.25.03.25.03.26.03.26.03.26.03.26.03.27.03.27.03.27.03.27.03.27.03.28.06.55.06.56.06.56.12,1.13.06.56.06.56.06.56.06.55.03.28.03.27.03.27.03.27.03.27.03.27.03.26.03.26.03.26.03.26v.13s.02.05.02.05h0s0,.01,0,.01v.02s.02.01.02.01h0s.02.04.02.04h.07l.03-.02.07-.04.06-.04.06-.04.06-.04.06-.04.06-.04.05-.04.05-.04.05-.04.05-.04.05-.04.04-.04.04-.04.04-.04.04-.04.04-.04.04-.04.07-.09.06-.09.06-.09.05-.09.05-.09.05-.09.04-.09.04-.09.03-.09.03-.09.03-.09.03-.09.02-.09.02-.09.02-.09.02-.09v-.05s.01-.02.01-.02h0s0-.01,0-.01h0s0,0,0,0h0s0-.07,0-.07v-.11s-.24-7.21-.24-7.21l-.48-14.43-.48-14.43-.24-7.21-.06-1.8-.02-.45v-.03s0,0,0,0h0s0,0,0,0h0s0,0,0,0h0s0-.06,0-.06v-.09s-.03-.09-.03-.09v-.09s-.03-.09-.03-.09v-.08s-.03-.08-.03-.08v-.08s-.03-.08-.03-.08v-.08s-.03-.08-.03-.08l-.03-.15-.03-.14-.03-.14-.03-.14-.03-.14-.04-.14-.04-.14-.04-.14-.04-.14-.04-.14-.05-.14-.05-.15-.05-.15-.03-.08-.03-.08-.03-.08-.03-.08-.03-.08-.03-.08-.04-.08-.04-.08-.04-.08-.04-.09-.04-.09-.04-.09-.05-.09-.05-.09" fill="#f2f2f2" stroke="#000" stroke-linecap="round" stroke-width=".4"/><path d="m63.64,340.03l-.17-24.12" fill="none" stroke="#000" stroke-width=".4"/><path d="m63.47,315.91l-2.16-2.93" fill="none" stroke="#000" stroke-width=".4"/><path d="m63.47,315.91l1.03-2.67" fill="none" stroke="#000" stroke-width=".4"/><path d="m61.31,312.98l-.18-3.32" fill="none" stroke="#000" stroke-linecap="round" stroke-width=".4"/><path d="m64.34,360.7h-.61" fill="none" stroke="#000" stroke-width=".4"/><path d="m64.41,361.3h-.69" fill="none" stroke="#000" stroke-width=".4"/><path d="m65.65,360.6l-.47-6.01-.12-1.5-.59-7.51-.12-1.5-.24-3-.05-.48-.03-.12-.04-.1-.04-.09-.05-.07-.05-.06-.06-.04-.06-.03-.06-.02h-.06s-.07-.01-.07-.01h-.07s-.07.03-.07.03l-.06.03-.06.03-.06.04-.06.04-.06.05-.06.05-.06.05-.05.06-.05.06-.05.06-.05.06-.05.06-.04.06-.18.44-1.75,4.71-.58,1.57-2.91,7.85-.58,1.57-.58,1.57-1.17,3.14" fill="none" stroke="#000" stroke-width=".4"/><path d="m21.25,310.39v-161.7h0s0-.01,0-.01h0s-.02-.23-.02-.23l-.03-.42-.07-.81-.07-.77-.07-.73-.07-.69-.07-.65-.07-.61-.07-.58-.08-.55-.08-.52-.08-.49-.08-.46-.09-.44-.09-.42-.09-.4-.09-.38-.1-.36-.1-.35-.11-.33-.11-.32-.24-.61-.26-.59-.28-.58-.3-.59-.33-.61-.36-.62-.38-.63-.4-.63-.42-.62-.44-.6-.46-.57-.24-.27-.24-.26-.24-.25-.25-.23-.25-.22-.25-.2-.26-.18-.26-.17-.26-.15-.27-.13-.27-.1-.27-.08-.27-.06-.27-.03h-.27s-.27.02-.27.02l-.27.05-.27.07-.27.1-.27.12-.26.14-.26.16-.26.18-.26.2-.25.21-.25.23-.25.24-.24.25-.47.54-.46.58-.44.61-.42.62-.4.63-.37.63-.35.62-.32.6-.3.58-.27.58-.25.6-.23.62-.11.33-.1.34-.1.35-.1.37-.09.39-.09.41-.09.43-.08.46-.08.48-.08.51-.08.54-.08.57-.07.6-.07.64-.07.67-.07.71-.07.75-.07.8-.07.84v.08s0,.01,0,.01h0v161.7" fill="none" stroke="#000" stroke-width=".4"/><path d="m23.84,310.39V69.52" fill="none" stroke="#000" stroke-width=".4"/><path d="m63.72,310.39v-161.7h0s0-.01,0-.01h0s-.02-.23-.02-.23l-.03-.42-.07-.81-.07-.77-.07-.73-.07-.69-.07-.65-.07-.61-.07-.58-.08-.55-.08-.52-.08-.49-.08-.46-.09-.44-.09-.42-.09-.4-.09-.38-.1-.36-.1-.35-.11-.33-.11-.32-.24-.61-.26-.59-.28-.58-.3-.59-.33-.61-.36-.62-.38-.63-.4-.63-.42-.62-.44-.6-.46-.57-.24-.27-.24-.26-.24-.25-.25-.23-.25-.22-.25-.2-.26-.18-.26-.17-.26-.15-.27-.13-.27-.1-.27-.08-.27-.06-.27-.03h-.27s-.27.02-.27.02l-.27.05-.27.07-.27.1-.27.12-.26.14-.26.16-.26.18-.26.2-.25.21-.25.23-.25.24-.24.25-.47.54-.46.58-.44.61-.42.62-.4.63-.37.63-.35.62-.32.6-.3.58-.27.58-.25.6-.23.62-.11.33-.1.34-.1.35-.1.37-.09.39-.09.41-.09.43-.08.46-.08.48-.08.51-.08.54-.08.57-.07.6-.07.64-.07.67-.07.71-.07.75-.07.8-.07.84v.09s0,0,0,0v161.7" fill="none" stroke="#000" stroke-width=".4"/><path d="m21.96,345l-.08-.96-.12-1.5-.12-1.5-.05-.48-.03-.12-.04-.1-.04-.09-.05-.07-.05-.06-.06-.04-.06-.03-.06-.02h-.06s-.07-.01-.07-.01h-.07s-.07.03-.07.03l-.06.03-.06.03-.06.04-.06.04-.06.05-.06.05-.06.05-.05.06-.05.06-.05.06-.05.06-.05.06-.04.06-.18.44-1.75,4.71-.58,1.57-1.17,3.14-1.75,4.71-.58,1.57-.58,1.57-1.17,3.14" fill="none" stroke="#000" stroke-width=".4"/><path d="m23.25,360.4v-.02s.06-.09.06-.09l.04-.09.04-.09.03-.09.03-.09.03-.09.03-.09.02-.09.02-.09.02-.09.02-.09v-.05s.01-.02.01-.02h0s0-.01,0-.01h0s0,0,0,0h0s0-.07,0-.07v-.11s-.06-1.54-.06-1.54" fill="none" stroke="#000" stroke-width=".4"/><path d="m21.84,360.4v.08s.04.26.04.26l.03.26.03.26v.13s.02.05.02.05h0s0,.01,0,.01v.02s.02.01.02.01h0s.02.04.02.04h.07l.03-.02.07-.04.06-.04.06-.04.06-.04.06-.04.06-.04.05-.04.03-.02" fill="none" stroke="#000" stroke-width=".4"/><path d="m43.78,327.35l.14-4.28.24-7.21.06-1.8.02-.45v-.03s0,0,0,0h0s0,0,0,0h0s0,0,0,0h0s0-.02,0-.02v-.05s.02-.09.02-.09v-.09s.03-.09.03-.09v-.09s.03-.08.03-.08v-.08s.03-.08.03-.08v-.08s.03-.08.03-.08l.02-.08.03-.15.03-.14.03-.14.03-.14.03-.14.04-.14.04-.14.04-.14.04-.14.04-.14.05-.14.05-.15.05-.15.03-.08.03-.08.03-.08.03-.08.03-.08.03-.08.04-.08.04-.08.04-.08.04-.09.04-.09.04-.09.05-.09.05-.09" fill="none" stroke="#000" stroke-width=".4"/><path d="m44.49,360.4v.08s-.04.26-.04.26l-.03.26-.03.26v.13s-.02.05-.02.05h0s0,.01,0,.01v.02s-.02.01-.02.01h0s-.02.04-.02.04h-.07l-.03-.02-.07-.04-.06-.04-.06-.04-.06-.04-.06-.04-.06-.04-.05-.04-.03-.02" fill="none" stroke="#000" stroke-width=".4"/><path d="m43.08,360.4v-.02s-.06-.09-.06-.09l-.04-.09-.04-.09-.03-.09-.03-.09-.03-.09-.03-.09-.02-.09-.02-.09-.02-.09-.02-.09v-.05s-.01-.02-.01-.02h0s0-.01,0-.01h0s0,0,0,0h0s0-.07,0-.07v-.11s.06-1.54.06-1.54" fill="none" stroke="#000" stroke-width=".4"/><path d="m21.28,328.16c0-.62-.03-3.62-.05-6.68l-.04-5.56.35-.9c.19-.5.35-.89.36-.88,0,.01.11,3,.23,6.64l.22,6.62-.03.86c-.02.47-.03.9-.03.94v.08h-.99v-1.12s-.01,0-.01,0Z" fill="#f2f2f2" stroke-width="0"/><path d="m20.23,314.54l-.71-.96v-.33h1.14c.76,0,1.14,0,1.14,0-.01.04-.87,2.24-.87,2.24,0,0-.32-.43-.71-.96h0Z" fill="#f2f2f2" stroke-width="0"/><path d="m21.87,341.33c-.09-.91-.14-1.1-.37-1.33l-.13-.14-.04-4.68c-.02-2.57-.06-7.96-.09-11.97l-.05-7.29.29-.73c.24-.6.3-.73.38-.74.09-.01.09,0,.09.24,0,.14.09,2.93.2,6.2.15,4.44.2,6.22.18,7.05-.02,1-.4,12.51-.44,13.19,0,.16-.02.25-.02.2h0Z" fill="#f2f2f2" stroke-width="0"/><path d="m19.18,344.04s.25-.66.54-1.44c.59-1.58.66-1.76.72-1.85.06-.09.19-.25.26-.31.17-.17.35-.24.47-.2.05.02.12.09.16.16.08.15.09.21.24,2.19.06.77.11,1.42.11,1.44v.04s-2.51,0-2.51,0v-.03s.01,0,.01,0Z" fill="#f2f2f2" stroke-width="0"/><path d="m14.67,341.48v-2.59l.27-2.25c.15-1.24.27-2.26.27-2.26,0,0,1.29,0,2.87,0h2.87v.08s0,1.27.02,2.73c.02,2.23.02,2.65,0,2.66,0,0-.03.01-.05.02-.06.01-.25.11-.34.17-.15.11-.32.3-.46.5-.09.13-.14.26-.8,2.03l-.56,1.51h-4.08v-2.59h0Z" fill="#f2f2f2" stroke-width="0"/><path d="m21.41,354.52c-.02-.09-.1-.78-.19-1.55-.18-1.62-.36-2.96-.55-4.15-.11-.68-.16-.89-.26-1.07-.17-.32-.54-.67-.89-.84-.25-.12-.34-.14-.62-.14-.43,0-.72.12-.81.33-.03.08-.07.12-.07.1,0-.04.58-1.65,1.79-4.89.4-1.06.6-1.55.7-1.69.3-.39.61-.51.78-.29.12.16.16.49.43,4.11.03.44-.06,3.78-.27,9.88-.01.28-.02.32-.04.2h0Z" fill="#f2f2f2" stroke-width="0"/><path d="m44.93,314.35l-.43-1.13.04-.25c.14-.87.49-2.04.85-2.79l.15-.32h1.94l-.02.24c0,.13-.05.82-.09,1.53l-.07,1.28-.94,1.28c-.52.7-.95,1.28-.97,1.28-.01,0-.22-.5-.46-1.12h0Z" fill="#f2f2f2" stroke-width="0"/><path d="m44.15,332.51c0-.09-.05-1.3-.1-2.68l-.08-2.52.22-6.58c.12-3.62.22-6.59.23-6.6s.17.39.36.9l.35.92-.05,7.17c-.03,3.94-.06,7.7-.07,8.36l-.02,1.2h-.83l-.02-.16h0Z" fill="#f2f2f2" stroke-width="0"/><path d="m44.43,340.96c-.01-.25-.08-2.15-.15-4.22-.07-2.07-.15-4.5-.18-5.39-.14-3.81-.14-3.9-.05-6.61.05-1.35.09-2.65.1-2.9l.02-.45h.93v.71c0,.39-.03,3.97-.06,7.95s-.06,7.81-.06,8.52v1.28s-.15.15-.15.15c-.2.2-.27.4-.32.89-.02.21-.04.42-.04.45,0,.03-.02-.14-.03-.39h0Z" fill="#f2f2f2" stroke-width="0"/><path d="m44.67,348.02s-.03-.81-.06-1.69l-.05-1.6.04-.33c.03-.23.08-.83.16-1.86.14-1.73.15-1.9.19-2.03.04-.12.11-.22.17-.25.18-.09.47.09.74.47.04.06.08.14.14.29.16.4,2.64,7.09,2.63,7.09,0,0-.01,0-.02,0,0,0-.1-.26-.22-.57-.12-.31-.22-.56-.22-.56,0,0-.08-.04-.17-.08-.22-.1-.36-.13-.59-.13-.4,0-.76.15-1.13.48-.24.21-.45.53-.52.78l-.03.09h-1.09s0-.09,0-.09h0Z" fill="#f2f2f2" stroke-width="0"/><path d="m47.66,344.3s-.27-.73-.6-1.6c-.64-1.71-.76-2.04-.82-2.12-.27-.4-.56-.65-.86-.73h-.05s0-.46,0-.46c0-.24.01-1.33.02-2.42,0-1.09.01-2.06.02-2.17v-.19h5.76v.05c.02.06,1.14,9.63,1.14,9.64s-4.61.01-4.62,0h0Z" fill="#f2f2f2" stroke-width="0"/><path d="m51.58,356.27s-.34-.94-1.87-5.16c-.87-2.41-1.33-3.64-1.52-4.12,0-.02-.12-.07-.25-.13-.19-.08-.3-.1-.51-.1-.19,0-.35.03-.51.09-.49.18-.97.67-1.12,1.14-.06.18-.24,1.33-.41,2.62-.13.96-.32,2.53-.45,3.77-.02.18-.04.33-.04.33,0,0-.05-1.49-.11-3.31-.14-4.07-.15-4.52-.16-4.68v-.13s3.47,0,3.47,0l.09.25c.05.14.86,2.32,1.8,4.84.94,2.53,1.71,4.6,1.71,4.6,0,0-.02.01-.05.01-.04,0-.05,0-.06-.02h0Z" fill="#f2f2f2" stroke-width="0"/><path d="m63.92,361v-.13h.25v.1c.03.18.04.17-.11.17h-.13v-.13h0Z" fill="#f7f7f7" stroke-width="0"/><path d="m44.12,361.3h-.01s.1-.1.1-.1v.04c-.01.07,0,.07-.05.07-.02,0-.04,0-.04-.01h0Z" fill="#f7f7f7" stroke-width="0"/><path d="m22.13,361.3s-.01-.11-.01-.11c0,0,.09.09.09.09,0,0,0,.01-.01.01-.01.01-.02.01-.04.01h-.03Z" fill="#f7f7f7" stroke-width="0"/><path d="m2.14,361.1s0-.08.01-.13v-.1h.26v.27h-.13c-.13,0-.13,0-.13-.04h0Z" fill="#f7f7f7" stroke-width="0"/><path d="m32.42,143.36c-.57.92-.75,2.69-.75,2.69,0,0-.01,3.98,0,4.95,0,.4.53.75.53.75.51,0,1.36,0,1.97,0,0,0,.5-.38.5-.75-.01-1.06,0-4.95,0-4.95,0,0-.17-1.77-.75-2.69h-1.51Z" fill="#f7f7f7" fill-rule="evenodd" stroke="#000" stroke-linecap="round" stroke-linejoin="round" stroke-width=".3"/><path d="m21.25,147.27c.92.2,1.89-.05,2.59-.68" fill="none" stroke="#000" stroke-width=".4"/><path d="m23.84,149.02c-.83-.29-1.71-.4-2.59-.34" fill="none" stroke="#000" stroke-width=".4"/><path d="m42.49,146.59c.7.63,1.67.89,2.59.68" fill="none" stroke="#000" stroke-width=".4"/><path d="m45.08,148.68c-.88-.06-1.76.05-2.59.34" fill="none" stroke="#000" stroke-width=".4"/><path d="m23.08,148.66c-.24-.06-.71-.12-1.04-.12h-.6v-1.05l.64-.04c.46-.03.78-.11,1.1-.27l.46-.23v.92c0,.51-.03.92-.07.91-.04,0-.27-.06-.51-.12h0Z" fill="#f7f7f7" stroke-width="0"/><path d="m42.66,147.86v-.94l.2.13c.37.24,1.07.42,1.59.42h.52l-.05,1.02-.75.05c-.41.03-.85.08-.97.12-.58.17-.53.24-.53-.79h0Z" fill="#f7f7f7" stroke-width="0"/><path d="m34.57,298.3h-3.87l-.14.11v3.44h1.07v-1.29l.1-.09h2.84c.72,0,1.05-.19,1.05-.69v-.79c0-.5-.34-.69-1.05-.69m0,1.27c0,.23-.15.28-.49.28h-2.34l-.11-.11v-.74l.1-.09h2.35c.34,0,.49.05.49.28v.38h0Z" fill="#005288" stroke-width="0"/><polyline points="32.33 306.13 33.25 307.48 33.2 307.61 31.16 307.61 30.64 308.25 33.67 308.25 33.88 308.38 34.35 309.03 35.58 309.03 32.89 305.43" fill="#005288" stroke-width="0"/><polyline points="31.76 324.06 31.76 323.1 31.87 323.01 33.92 323.01 33.92 322.4 30.67 322.4 30.67 324.76 35.47 324.76 35.47 324.15 31.88 324.15" fill="#005288" stroke-width="0"/><rect x="30.67" y="321.21" width="4.84" height=".67" fill="#005288" stroke-width="0"/><path d="m31.74,313.8h3.9c-.06-.5-.37-.63-1.15-.63h-2.79c-.88,0-1.16.17-1.16.84v1.87c0,.67.28.84,1.16.84h2.79c.79,0,1.1-.15,1.12-.66h-3.87l-.11-.11v-2.07" fill="#005288" stroke-width="0"/><path d="m34.53,291.5h-2.84l-.08-.09v-.61l.08-.06h3.83l.05-.13c-.13-.34-.47-.49-1.09-.49h-2.66c-.88,0-1.16.17-1.16.84v.39c0,.67.28.84,1.16.84h2.83l.09.08v.63l-.07.1h-3.24s-.85,0-.85,0c0,0-.1.05-.09.07.07.47.39.6,1.15.6h2.9c.88,0,1.17-.17,1.17-.84v-.49c0-.67-.29-.84-1.17-.84" fill="#005288" stroke-width="0"/><path d="m31.8,329.43h-1.59l-.09.16,1.77,1.29c.34-.19.7-.39,1.1-.58" fill="#005288" stroke-width="0"/><path d="m33.22,331.86l1.56,1.13h1.61l.07-.15-2.32-1.7c-.31.23-.61.47-.91.72" fill="#005288" stroke-width="0"/><path d="m31.56,332.99h-1.44l-.12-.19c.98-.95,5.46-4.5,11.28-4.96,0,0-5.1.57-9.72,5.15" fill="#a7a9ac" stroke-width="0"/><rect x="28.57" y="134.1" width="9.2" height="5.17" fill="#b22234" stroke-width="0"/><path d="m28.57,134.7h9.2m0,.8h-9.2m0,.8h9.2m0,.8h-9.2m0,.8h9.2m0,.8h-9.2" stroke="#fff" stroke-miterlimit="10" stroke-width=".37"/><rect x="28.57" y="134.1" width="3.68" height="2.78" fill="#3c3b6e" stroke-width="0"/><path d="m28.88,134.22l.09.29-.23-.18h.28l-.23.18.09-.29Z" fill="#fff" stroke-width="0"/><path id="s" d="m28.88,134.78l.09.29-.23-.18h.28l-.23.18.09-.29Z" fill="#fff" stroke-width="0"/><path id="s-2" d="m28.88,135.34l.09.29-.23-.18h.28l-.23.18.09-.29Z" fill="#fff" stroke-width="0"/><path id="s-3" d="m28.88,135.89l.09.29-.23-.18h.28l-.23.18.09-.29Z" fill="#fff" stroke-width="0"/><path id="s-4" d="m28.88,136.45l.09.29-.23-.18h.28l-.23.18.09-.29Z" fill="#fff" stroke-width="0"/><g id="d"><path id="s-5" d="m29.18,134.5l.09.29-.23-.18h.28l-.23.18.09-.29Z" fill="#fff" stroke-width="0"/><path id="s-6" d="m29.18,135.06l.09.29-.23-.18h.28l-.23.18.09-.29Z" fill="#fff" stroke-width="0"/><path id="s-7" d="m29.18,135.62l.09.29-.23-.18h.28l-.23.18.09-.29Z" fill="#fff" stroke-width="0"/><path id="s-8" d="m29.18,136.17l.09.29-.23-.18h.28l-.23.18.09-.29Z" fill="#fff" stroke-width="0"/></g><g id="a"><g id="c"><g id="d-2"><path id="s-9" d="m29.49,134.22l.09.29-.23-.18h.28l-.23.18.09-.29Z" fill="#fff" stroke-width="0"/><path id="s-10" d="m29.49,134.78l.09.29-.23-.18h.28l-.23.18.09-.29Z" fill="#fff" stroke-width="0"/><path id="s-11" d="m29.49,135.34l.09.29-.23-.18h.28l-.23.18.09-.29Z" fill="#fff" stroke-width="0"/><path id="s-12" d="m29.49,135.89l.09.29-.23-.18h.28l-.23.18.09-.29Z" fill="#fff" stroke-width="0"/></g><path id="s-13" d="m29.49,136.45l.09.29-.23-.18h.28l-.23.18.09-.29Z" fill="#fff" stroke-width="0"/></g><g id="d-3"><path id="s-14" d="m29.8,134.5l.09.29-.23-.18h.28l-.23.18.09-.29Z" fill="#fff" stroke-width="0"/><path id="s-15" d="m29.8,135.06l.09.29-.23-.18h.28l-.23.18.09-.29Z" fill="#fff" stroke-width="0"/><path id="s-16" d="m29.8,135.62l.09.29-.23-.18h.28l-.23.18.09-.29Z" fill="#fff" stroke-width="0"/><path id="s-17" d="m29.8,136.17l.09.29-.23-.18h.28l-.23.18.09-.29Z" fill="#fff" stroke-width="0"/></g></g><g id="e"><g id="a-2"><g id="c-2"><g id="d-4"><path id="s-18" d="m30.1,134.22l.09.29-.23-.18h.28l-.23.18.09-.29Z" fill="#fff" stroke-width="0"/><path id="s-19" d="m30.1,134.78l.09.29-.23-.18h.28l-.23.18.09-.29Z" fill="#fff" stroke-width="0"/><path id="s-20" d="m30.1,135.34l.09.29-.23-.18h.28l-.23.18.09-.29Z" fill="#fff" stroke-width="0"/><path id="s-21" d="m30.1,135.89l.09.29-.23-.18h.28l-.23.18.09-.29Z" fill="#fff" stroke-width="0"/></g><path id="s-22" d="m30.1,136.45l.09.29-.23-.18h.28l-.23.18.09-.29Z" fill="#fff" stroke-width="0"/></g><g id="d-5"><path id="s-23" d="m30.41,134.5l.09.29-.23-.18h.28l-.23.18.09-.29Z" fill="#fff" stroke-width="0"/><path id="s-24" d="m30.41,135.06l.09.29-.23-.18h.28l-.23.18.09-.29Z" fill="#fff" stroke-width="0"/><path id="s-25" d="m30.41,135.62l.09.29-.23-.18h.28l-.23.18.09-.29Z" fill="#fff" stroke-width="0"/><path id="s-26" d="m30.41,136.17l.09.29-.23-.18h.28l-.23.18.09-.29Z" fill="#fff" stroke-width="0"/></g></g><g id="a-3"><g id="c-3"><g id="d-6"><path id="s-27" d="m30.72,134.22l.09.29-.23-.18h.28l-.23.18.09-.29Z" fill="#fff" stroke-width="0"/><path id="s-28" d="m30.72,134.78l.09.29-.23-.18h.28l-.23.18.09-.29Z" fill="#fff" stroke-width="0"/><path id="s-29" d="m30.72,135.34l.09.29-.23-.18h.28l-.23.18.09-.29Z" fill="#fff" stroke-width="0"/><path id="s-30" d="m30.72,135.89l.09.29-.23-.18h.28l-.23.18.09-.29Z" fill="#fff" stroke-width="0"/></g><path id="s-31" d="m30.72,136.45l.09.29-.23-.18h.28l-.23.18.09-.29Z" fill="#fff" stroke-width="0"/></g><g id="d-7"><path id="s-32" d="m31.02,134.5l.09.29-.23-.18h.28l-.23.18.09-.29Z" fill="#fff" stroke-width="0"/><path id="s-33" d="m31.02,135.06l.09.29-.23-.18h.28l-.23.18.09-.29Z" fill="#fff" stroke-width="0"/><path id="s-34" d="m31.02,135.62l.09.29-.23-.18h.28l-.23.18.09-.29Z" fill="#fff" stroke-width="0"/><path id="s-35" d="m31.02,136.17l.09.29-.23-.18h.28l-.23.18.09-.29Z" fill="#fff" stroke-width="0"/></g></g></g><g id="a-4"><g id="c-4"><g id="d-8"><path id="s-36" d="m31.33,134.22l.09.29-.23-.18h.28l-.23.18.09-.29Z" fill="#fff" stroke-width="0"/><path id="s-37" d="m31.33,134.78l.09.29-.23-.18h.28l-.23.18.09-.29Z" fill="#fff" stroke-width="0"/><path id="s-38" d="m31.33,135.34l.09.29-.23-.18h.28l-.23.18.09-.29Z" fill="#fff" stroke-width="0"/><path id="s-39" d="m31.33,135.89l.09.29-.23-.18h.28l-.23.18.09-.29Z" fill="#fff" stroke-width="0"/></g><path id="s-40" d="m31.33,136.45l.09.29-.23-.18h.28l-.23.18.09-.29Z" fill="#fff" stroke-width="0"/></g><g id="d-9"><path id="s-41" d="m31.64,134.5l.09.29-.23-.18h.28l-.23.18.09-.29Z" fill="#fff" stroke-width="0"/><path id="s-42" d="m31.64,135.06l.09.29-.23-.18h.28l-.23.18.09-.29Z" fill="#fff" stroke-width="0"/><path id="s-43" d="m31.64,135.62l.09.29-.23-.18h.28l-.23.18.09-.29Z" fill="#fff" stroke-width="0"/><path id="s-44" d="m31.64,136.17l.09.29-.23-.18h.28l-.23.18.09-.29Z" fill="#fff" stroke-width="0"/></g></g><g id="c-5"><g id="d-10"><path id="s-45" d="m31.94,134.22l.09.29-.23-.18h.28l-.23.18.09-.29Z" fill="#fff" stroke-width="0"/><path id="s-46" d="m31.94,134.78l.09.29-.23-.18h.28l-.23.18.09-.29Z" fill="#fff" stroke-width="0"/><path id="s-47" d="m31.94,135.34l.09.29-.23-.18h.28l-.23.18.09-.29Z" fill="#fff" stroke-width="0"/><path id="s-48" d="m31.94,135.89l.09.29-.23-.18h.28l-.23.18.09-.29Z" fill="#fff" stroke-width="0"/></g><path id="s-49" d="m31.94,136.45l.09.29-.23-.18h.28l-.23.18.09-.29Z" fill="#fff" stroke-width="0"/></g><path d="m29.81,126.36c.38-.16.77-.33,1.17-.45-4.58-1.93-4.83-3.38-5.77-4.91.72,1.77,1.33,3.54,4.6,5.36h0Z" fill="#a80126" fill-rule="evenodd" stroke-width="0"/><path d="m27.42,123.46c1.74,1.17,3.26,2,4.37,2.26,1.1-.47,4.75-.73,4.68-.06-.8-.32-1.27-.17-1.73-.05.23,0,.83-.06,1.01,0-.07.07-.15.1-.24.14.3.05.57.12.81.23.15-.01.25,0,.29.03-.15.03-.34.19-.43.3,1.01.02,2.1.02,2.21.87.32-.76-.25-1.16-1.37-1.33-.15-.26-.38-.48-.61-.73-3.05-.14-6.09-.3-9-1.65h0Z" fill="#a80126" fill-rule="evenodd" stroke-width="0"/><path d="m28.95,131.3v-3.75h4.09c-.12.15-.25.28-.41.34h-2.66v.97h2.25c-.08.1-.11.19-.41.34h-1.84v1.25c-.22.29-.35.58-1.03.84h0Z" fill-rule="evenodd" stroke-width="0"/><path d="m35.64,129.19h-1.12v1.62h-1.08v-3.23h1.08v1.27h1.48c-.05.09-.13.19-.36.34Z" fill-rule="evenodd" stroke-width="0"/><path d="m37.38,131.29v-3.69h-.94v2.83c.23.38.5.72.94.86h0Z" fill-rule="evenodd" stroke-width="0"/><g isolation="isolate"><text transform="translate(28.87 132.58)" font-family="ArialMT, Arial" font-size=".91" isolation="isolate"><tspan x="0" y="0" letter-spacing=".11em">F</tspan><tspan x=".65" y="0" letter-spacing=".16em">ALCON HE</tspan><tspan x="6.48" y="0" letter-spacing=".09em">A</tspan><tspan x="7.17" y="0" letter-spacing=".16em">V</tspan><tspan x="7.92" y="0" letter-spacing=".15em">Y</tspan></text></g><path color-rendering="auto" d="m34.69,142.07c-.17,0-.29.15-.29.31s.15.29.31.29h8.42c.17,0,.3-.12.31-.29,0-.17-.12-.3-.29-.31,0,0-.02,0-.02,0h-8.42s-.02,0-.03,0Z" image-rendering="auto" shape-rendering="auto" fill="#fff" fill-rule="evenodd" stroke="#000" stroke-linecap="round" stroke-linejoin="round" stroke-width=".2"/><path d="m44.87,143.22l-1.75-1.13v1.13h1.75Z" fill="#f0f0f0" fill-rule="evenodd" stroke="#000" stroke-linecap="round" stroke-linejoin="round" stroke-width=".3"/><path color-rendering="auto" d="m23.11,142.07c-.17,0-.29.15-.28.32,0,.17.15.29.32.28h8.42c.17,0,.3-.12.31-.29,0-.17-.12-.3-.29-.31,0,0-.02,0-.02,0h-8.42s-.02,0-.03,0Z" image-rendering="auto" shape-rendering="auto" fill="#fff" fill-rule="evenodd" stroke="#000" stroke-linecap="round" stroke-linejoin="round" stroke-width=".2"/><path d="m21.41,143.22l1.75-1.13v1.13h-1.75Z" fill="#f0f0f0" fill-rule="evenodd" stroke="#000" stroke-linecap="round" stroke-linejoin="round" stroke-width=".3"/><rect x="11.87" y="143.23" width="42.62" height=".94" fill="#f7f7f7" stroke="#000" stroke-linecap="round" stroke-linejoin="round" stroke-width=".3"/><path d="m53.43,151.74s-.52-.35-.53-.75c-.01-.97,0-4.95,0-4.95,0,0,.31-3.23,1.5-3.23s1.5,3.23,1.5,3.23c0,0-.01,3.89,0,4.95,0,.38-.5.75-.5.75-.62,0-1.46,0-1.97,0h0Z" fill="#f7f7f7" fill-rule="evenodd" stroke="#000" stroke-linecap="round" stroke-linejoin="round" stroke-width=".3"/><path d="m10.96,151.74s-.52-.35-.53-.75c-.01-.97,0-4.95,0-4.95,0,0,.31-3.23,1.5-3.23s1.5,3.23,1.5,3.23c0,0-.01,3.89,0,4.95,0,.38-.5.75-.5.75-.62,0-1.46,0-1.97,0h0Z" fill="#f7f7f7" fill-rule="evenodd" stroke="#000" stroke-linecap="round" stroke-linejoin="round" stroke-width=".3"/><path d="m21.25,151.7H2.6" fill="none" stroke="#000" stroke-width=".4"/><path d="m23.84,151.71h18.65" fill="none" stroke="#000" stroke-width=".4"/><path d="m63.72,151.7h-18.65" fill="none" stroke="#000" stroke-width=".4"/><path d="m35.75,144.15l-1.11-2.02h-3l-1.11,2.02" fill="none" stroke="#000" stroke-linecap="round" stroke-linejoin="round" stroke-width=".3"/><path d="m31.06,143.21l.58-1.08h3l.58,1.06-4.16.02Z" fill="#f0f0f0" fill-rule="evenodd" stroke="#000" stroke-linecap="round" stroke-linejoin="round" stroke-width=".3"/><path d="m19.02,362.3h3.24l.56.25h1.78l.48-.53h.82c.24,0,.44.48.44.72v.62c0,.24-.21.86-.44.77h-.79l-.52-.66h-1.8l-.56.33h-3.23c-.24,0-.44-.2-.44-.44v-.62c0-.24.2-.44.44-.44h0Z" fill="#101010" fill-rule="evenodd" stroke="#000" stroke-linecap="round" stroke-linejoin="round" stroke-width=".4"/><path d="m47.3,362.3h-3.24l-.56.25h-1.78l-.48-.53h-.82c-.24,0-.44.48-.44.72v.62c0,.24.21.86.44.77h.79l.52-.66h1.8l.56.33h3.23c.24,0,.44-.2.44-.44v-.62c0-.24-.2-.44-.44-.44h0Z" fill="#101010" fill-rule="evenodd" stroke="#000" stroke-linecap="round" stroke-linejoin="round" stroke-width=".4"/><path d="m42.78,157.02l.03-6.41-1.06-1.56.03-1.69-.84-1.59-.28-.91-.69-.25-.69.06-.41.12-.38,1-.22,1.09-.03.94v1l.09.72-.81.91v6.47l.62.12,4.63-.03Z" fill="#fff" fill-rule="evenodd" stroke="#040404" stroke-linecap="round" stroke-linejoin="round" stroke-width=".2"/><path d="m38.16,150.61v6.43h4.62v-6.4l-.93-1.62h-2.21l-1.48,1.59Z" fill="none" stroke="#040404" stroke-linecap="square" stroke-linejoin="round" stroke-width=".2"/><path d="m41.79,156.91v-9.48l-.77-1.55c-.9-.42-1.67-.27-2.34.31l.11,2.89" fill="none" stroke="#040404" stroke-linecap="square" stroke-linejoin="round" stroke-width=".2"/><path d="m39.74,149.07v7.95" fill="none" stroke="#040404" stroke-linecap="square" stroke-linejoin="round" stroke-width=".2"/><path d="m39.67,149.04l-.75-.02-1.37,1.48v6.47l.63.06" fill="none" stroke="#040404" stroke-linecap="square" stroke-linejoin="round" stroke-width=".2"/><path d="m39.6,149l-.02-1.59-.86-1.1" fill="none" stroke="#040404" stroke-linecap="square" stroke-linejoin="round" stroke-width=".2"/><path d="m41.04,145.88l-.4-.97c-.49-.29-1.1-.29-1.77-.11-.66,1.51-.73,3.1-.51,4.73" fill="none" stroke="#040404" stroke-linecap="square" stroke-linejoin="round" stroke-width=".2"/><path d="m41.74,147.3c-.81-.33-1.51-.28-2.14-.02" fill="none" stroke="#040404" stroke-linecap="round" stroke-linejoin="round" stroke-width=".2"/><path d="m39.75,157.02l-1.57-1.73" fill="#fff" fill-rule="evenodd" stroke="#040404" stroke-linecap="round" stroke-linejoin="round" stroke-width=".2"/><path d="m41.16,157.02l-2.98-3.77" fill="#fff" fill-rule="evenodd" stroke="#040404" stroke-linecap="round" stroke-linejoin="round" stroke-width=".2"/><path d="m38.17,151.41l4.39,5.58" fill="#fff" fill-rule="evenodd" stroke="#040404" stroke-linecap="round" stroke-linejoin="round" stroke-width=".2"/><path d="m38.61,150.16l4.14,5.3" fill="#fff" fill-rule="evenodd" stroke="#040404" stroke-linecap="round" stroke-linejoin="round" stroke-width=".2"/><path d="m39.44,149.27l3.34,4.38" fill="#fff" fill-rule="evenodd" stroke="#040404" stroke-linecap="round" stroke-linejoin="round" stroke-width=".2"/><path d="m40.73,149.05l2.04,2.62" fill="#fff" fill-rule="evenodd" stroke="#040404" stroke-linecap="round" stroke-linejoin="round" stroke-width=".2"/><path d="m40.43,157.01l2.35-3.34" fill="#fff" fill-rule="evenodd" stroke="#040404" stroke-linecap="round" stroke-linejoin="round" stroke-width=".2"/><path d="m42.72,155.49l-.97,1.53" fill="#fff" fill-rule="evenodd" stroke="#040404" stroke-linecap="round" stroke-linejoin="round" stroke-width=".2"/><path d="m38.88,157.01l3.87-5.05" fill="#fff" fill-rule="evenodd" stroke="#040404" stroke-linecap="round" stroke-linejoin="round" stroke-width=".2"/><path d="m38.19,156.05l4.44-5.62" fill="#fff" fill-rule="evenodd" stroke="#040404" stroke-linecap="round" stroke-linejoin="round" stroke-width=".2"/><path d="m38.19,154.08l3.88-4.56" fill="#fff" fill-rule="evenodd" stroke="#040404" stroke-linecap="round" stroke-linejoin="round" stroke-width=".2"/><path d="m38.16,152.27l2.81-3.19" fill="#fff" fill-rule="evenodd" stroke="#040404" stroke-linecap="round" stroke-linejoin="round" stroke-width=".2"/><path d="m37.54,150.48l.61.13" fill="#ccc" fill-rule="evenodd" stroke="#040404" stroke-linecap="round" stroke-linejoin="round" stroke-width=".2"/><path d="m23.56,157.02l-.03-6.41,1.06-1.56-.03-1.69.84-1.59.28-.91.69-.25.69.06.41.12.38,1,.22,1.09.03.94v1l-.09.72.81.91v6.47l-.62.12-4.63-.03Z" fill="#fff" fill-rule="evenodd" stroke="#040404" stroke-linecap="round" stroke-linejoin="round" stroke-width=".2"/><path d="m28.18,150.61v6.43h-4.62v-6.4l.93-1.62h2.21l1.48,1.59Z" fill="none" stroke="#040404" stroke-linecap="square" stroke-linejoin="round" stroke-width=".2"/><path d="m24.55,156.91v-9.48l.77-1.55c.9-.42,1.67-.27,2.34.31l-.11,2.89" fill="none" stroke="#040404" stroke-linecap="square" stroke-linejoin="round" stroke-width=".2"/><path d="m26.6,149.07v7.95" fill="none" stroke="#040404" stroke-linecap="square" stroke-linejoin="round" stroke-width=".2"/><path d="m26.67,149.04l.75-.02,1.37,1.48v6.47l-.63.06" fill="none" stroke="#040404" stroke-linecap="square" stroke-linejoin="round" stroke-width=".2"/><path d="m26.74,149l.02-1.59.86-1.1" fill="none" stroke="#040404" stroke-linecap="square" stroke-linejoin="round" stroke-width=".2"/><path d="m25.3,145.88l.4-.97c.49-.29,1.1-.29,1.77-.11.66,1.51.73,3.1.51,4.73" fill="none" stroke="#040404" stroke-linecap="square" stroke-linejoin="round" stroke-width=".2"/><path d="m24.6,147.3c.81-.33,1.51-.28,2.14-.02" fill="none" stroke="#040404" stroke-linecap="round" stroke-linejoin="round" stroke-width=".2"/><path d="m26.59,157.02l1.57-1.73" fill="#fff" fill-rule="evenodd" stroke="#040404" stroke-linecap="round" stroke-linejoin="round" stroke-width=".2"/><path d="m25.18,157.02l2.98-3.77" fill="#fff" fill-rule="evenodd" stroke="#040404" stroke-linecap="round" stroke-linejoin="round" stroke-width=".2"/><path d="m28.17,151.41l-4.39,5.58" fill="#fff" fill-rule="evenodd" stroke="#040404" stroke-linecap="round" stroke-linejoin="round" stroke-width=".2"/><path d="m27.73,150.16l-4.14,5.3" fill="#fff" fill-rule="evenodd" stroke="#040404" stroke-linecap="round" stroke-linejoin="round" stroke-width=".2"/><path d="m26.9,149.27l-3.34,4.38" fill="#fff" fill-rule="evenodd" stroke="#040404" stroke-linecap="round" stroke-linejoin="round" stroke-width=".2"/><path d="m25.61,149.05l-2.04,2.62" fill="#fff" fill-rule="evenodd" stroke="#040404" stroke-linecap="round" stroke-linejoin="round" stroke-width=".2"/><path d="m25.91,157.01l-2.35-3.34" fill="#fff" fill-rule="evenodd" stroke="#040404" stroke-linecap="round" stroke-linejoin="round" stroke-width=".2"/><path d="m23.62,155.49l.97,1.53" fill="#fff" fill-rule="evenodd" stroke="#040404" stroke-linecap="round" stroke-linejoin="round" stroke-width=".2"/><path d="m27.46,157.01l-3.87-5.05" fill="#fff" fill-rule="evenodd" stroke="#040404" stroke-linecap="round" stroke-linejoin="round" stroke-width=".2"/><path d="m28.15,156.05l-4.44-5.62" fill="#fff" fill-rule="evenodd" stroke="#040404" stroke-linecap="round" stroke-linejoin="round" stroke-width=".2"/><path d="m28.15,154.08l-3.88-4.56" fill="#fff" fill-rule="evenodd" stroke="#040404" stroke-linecap="round" stroke-linejoin="round" stroke-width=".2"/><path d="m28.18,152.27l-2.81-3.19" fill="#fff" fill-rule="evenodd" stroke="#040404" stroke-linecap="round" stroke-linejoin="round" stroke-width=".2"/><path d="m28.8,150.48l-.61.13" fill="#ccc" fill-rule="evenodd" stroke="#040404" stroke-linecap="round" stroke-linejoin="round" stroke-width=".2"/><path d="m19.22,146.11l.88.66.22.9-.58.74-1.07.06-1.06-.97.09-.96.61-.55.91.13Z" fill="#f9f9f9" fill-rule="evenodd" stroke-width="0"/><path d="m17.52,148.56l-.53-.07-1.3,1.59-.02.93-.16.77.2.84-.18.93.12.77-.14.69.2.69-.18.82.08.55-.06.82.65.2-.02-7.92,1.34-1.62Z" fill="#474747" fill-rule="evenodd" stroke-width="0"/><path d="m16.19,158.14l5.87-.03v-7.95l-1.72-2.6-.69.97-.91.06-.37-.35-.55-.27-.29.66-1.35,1.53v7.98Z" fill="#ececec" fill-rule="evenodd" stroke-width="0"/><path d="m16.23,150.18v7.87h5.79l-5.79-7.87,1.3-1.63.38-1" fill="none" stroke="#000" stroke-linecap="round" stroke-linejoin="round" stroke-width=".38"/><path d="m16.23,152l4.53,6.02" fill="none" stroke="#000" stroke-linecap="round" stroke-linejoin="round" stroke-width=".38"/><path d="m19.57,158.02l-3.34-4.4" fill="none" stroke="#000" stroke-linecap="round" stroke-linejoin="round" stroke-width=".38"/><path d="m18.47,158l-2.25-2.74" fill="none" stroke="#000" stroke-linecap="round" stroke-linejoin="round" stroke-width=".38"/><path d="m17.28,158.05l-1.05-1.33" fill="none" stroke="#000" stroke-linecap="round" stroke-linejoin="round" stroke-width=".38"/><path d="m22.01,158.03v-7.9l-1.14-1.73" fill="none" stroke="#000" stroke-linecap="round" stroke-linejoin="round" stroke-width=".38"/><path d="m16.24,158.05l5.75-7.88" fill="none" stroke="#000" stroke-linecap="round" stroke-linejoin="round" stroke-width=".38"/><path d="m22.02,152l-4.53,6.02" fill="none" stroke="#000" stroke-linecap="round" stroke-linejoin="round" stroke-width=".38"/><path d="m18.64,158.02l3.34-4.4" fill="none" stroke="#000" stroke-linecap="round" stroke-linejoin="round" stroke-width=".38"/><path d="m19.77,158l2.23-2.73" fill="none" stroke="#000" stroke-linecap="round" stroke-linejoin="round" stroke-width=".38"/><path d="m18.47,158l-2.25-2.74" fill="none" stroke="#000" stroke-linecap="round" stroke-linejoin="round" stroke-width=".38"/><path d="m20.95,158.05l1.05-1.33" fill="none" stroke="#000" stroke-linecap="round" stroke-linejoin="round" stroke-width=".38"/><path d="m16.24,156.54l5.21-7.26" fill="none" stroke="#000" stroke-linecap="round" stroke-linejoin="round" stroke-width=".38"/><path d="m16.21,155.04l4.12-5.87" fill="none" stroke="#000" stroke-linecap="round" stroke-linejoin="round" stroke-width=".38"/><path d="m22.01,156.51l-5.13-7.13" fill="none" stroke="#000" stroke-linecap="round" stroke-linejoin="round" stroke-width=".38"/><path d="m22.01,154.95l-3.98-5.67" fill="none" stroke="#000" stroke-linecap="round" stroke-linejoin="round" stroke-width=".38"/><path d="m16.2,153.38l2.94-4.19,1.24-1.52" fill="none" stroke="#000" stroke-linecap="round" stroke-linejoin="round" stroke-width=".38"/><path d="m22.04,153.38l-2.89-4.22-1.25-1.62" fill="none" stroke="#000" stroke-linecap="round" stroke-linejoin="round" stroke-width=".38"/><path d="m16.23,151.79l1.8-2.5" fill="none" stroke="#000" stroke-linecap="round" stroke-linejoin="round" stroke-width=".38"/><path d="m21.99,151.76l-1.66-2.58" fill="none" stroke="#000" stroke-linecap="round" stroke-linejoin="round" stroke-width=".38"/><path d="m20.91,148.46l-.24-.02-.33.74.09-.78-.03-.75.5.8Z" fill="#474747" fill-rule="evenodd" stroke="#000" stroke-linecap="round" stroke-linejoin="round" stroke-width=".38"/><path d="m17.52,148.55l.19.02.31.71-.11-.88v-.84s-.4.98-.4.98Z" fill="#474747" fill-rule="evenodd" stroke="#000" stroke-linecap="round" stroke-linejoin="round" stroke-width=".38"/><path d="m19.11,147.63v.71h-.13s-.24.25-.24.25l.42.56.52-.51-.23-.27-.13-.02v-.73s-.23,0-.23,0Z" fill="#474747" fill-rule="evenodd" stroke="#000" stroke-linecap="round" stroke-linejoin="round" stroke-width=".38"/><path d="m18.72,148.63l-.74.08" fill="none" stroke="#000" stroke-linecap="round" stroke-linejoin="round" stroke-width=".38"/><path d="m19.7,148.63l.7.07" fill="none" stroke="#000" stroke-linecap="round" stroke-linejoin="round" stroke-width=".38"/><path d="m17.56,148.52l-.57-.04s-.11.31-.23.44-.52.28-.52.28c0,0,0,.27-.09.43-.1.16-.53.41-.53.41,0,0,.13.54.11.82-.02.28-.25.82-.25.82,0,0,.24.56.24.85s-.23.8-.23.8c0,0,.19.62.19.91s-.16.79-.16.79c0,0,.21.54.2.81s-.24.72-.24.72c0,0,.2.48.19.71,0,.23-.19.61-.19.61l.72.21" fill="none" stroke="#000" stroke-linecap="round" stroke-linejoin="round" stroke-width=".38"/><path d="m15.64,150.04l.54.12" fill="none" stroke="#000" stroke-linecap="round" stroke-linejoin="round" stroke-width=".38"/><path d="m16.87,149.41l-.07,1.55" fill="none" stroke="#000" stroke-linecap="round" stroke-linejoin="round" stroke-width=".38"/><path d="m18.02,149.35l-.07,1.45" fill="none" stroke="#000" stroke-linecap="round" stroke-linejoin="round" stroke-width=".38"/><path d="m20.32,149.25v1.55" fill="none" stroke="#000" stroke-linecap="round" stroke-linejoin="round" stroke-width=".38"/><path d="m21.45,149.33v1.56" fill="none" stroke="#000" stroke-linecap="round" stroke-linejoin="round" stroke-width=".38"/><path d="m19.75,146.45s-.49-.37-.65-.42c-.2-.06-.41-.09-.61-.07-.18.02-.37.08-.51.2-.13.11-.2.28-.26.44-.07.18-.08.38-.1.58-.02.18-.02.55-.02.55l.47.42" fill="none" stroke="#000" stroke-linecap="round" stroke-linejoin="round" stroke-width=".38"/><path d="m18.11,147.54s.01-.35.08-.51c.09-.21.23-.42.43-.53.16-.09.36-.08.55-.09.18,0,.38-.02.55.04.16.06.32.17.43.31.07.1.09.23.12.35.04.18.08.55.08.55" fill="none" stroke="#000" stroke-linecap="round" stroke-linejoin="round" stroke-width=".38"/><path d="m4.66,146.11l-.88.66-.22.9.58.74,1.07.06,1.06-.97-.09-.96-.61-.55-.91.13Z" fill="#f9f9f9" fill-rule="evenodd" stroke-width="0"/><path d="m6.36,148.56l.53-.07,1.3,1.59.02.93.16.77-.2.84.18.93-.12.77.14.69-.2.69.18.82-.08.55.06.82-.65.2.02-7.92-1.34-1.62Z" fill="#474747" fill-rule="evenodd" stroke-width="0"/><path d="m7.69,158.14l-5.87-.03v-7.95l1.72-2.6.69.97.91.06.37-.35.55-.27.29.66,1.35,1.53v7.98Z" fill="#ececec" fill-rule="evenodd" stroke-width="0"/><path d="m7.65,150.18v7.87H1.86l5.79-7.87-1.3-1.63-.38-1" fill="none" stroke="#000" stroke-linecap="round" stroke-linejoin="round" stroke-width=".38"/><path d="m7.65,152l-4.53,6.02" fill="none" stroke="#000" stroke-linecap="round" stroke-linejoin="round" stroke-width=".38"/><path d="m4.31,158.02l3.34-4.4" fill="none" stroke="#000" stroke-linecap="round" stroke-linejoin="round" stroke-width=".38"/><path d="m5.41,158l2.25-2.74" fill="none" stroke="#000" stroke-linecap="round" stroke-linejoin="round" stroke-width=".38"/><path d="m6.6,158.05l1.05-1.33" fill="none" stroke="#000" stroke-linecap="round" stroke-linejoin="round" stroke-width=".38"/><path d="m1.87,158.03v-7.9l1.14-1.73" fill="none" stroke="#000" stroke-linecap="round" stroke-linejoin="round" stroke-width=".38"/><path d="m7.64,158.05l-5.75-7.88" fill="none" stroke="#000" stroke-linecap="round" stroke-linejoin="round" stroke-width=".38"/><path d="m1.86,152l4.53,6.02" fill="none" stroke="#000" stroke-linecap="round" stroke-linejoin="round" stroke-width=".38"/><path d="m5.24,158.02l-3.34-4.4" fill="none" stroke="#000" stroke-linecap="round" stroke-linejoin="round" stroke-width=".38"/><path d="m4.11,158l-2.23-2.73" fill="none" stroke="#000" stroke-linecap="round" stroke-linejoin="round" stroke-width=".38"/><path d="m5.41,158l2.25-2.74" fill="none" stroke="#000" stroke-linecap="round" stroke-linejoin="round" stroke-width=".38"/><path d="m2.93,158.05l-1.05-1.33" fill="none" stroke="#000" stroke-linecap="round" stroke-linejoin="round" stroke-width=".38"/><path d="m7.64,156.54l-5.21-7.26" fill="none" stroke="#000" stroke-linecap="round" stroke-linejoin="round" stroke-width=".38"/><path d="m7.67,155.04l-4.12-5.87" fill="none" stroke="#000" stroke-linecap="round" stroke-linejoin="round" stroke-width=".38"/><path d="m1.87,156.51l5.13-7.13" fill="none" stroke="#000" stroke-linecap="round" stroke-linejoin="round" stroke-width=".38"/><path d="m1.87,154.95l3.98-5.67" fill="none" stroke="#000" stroke-linecap="round" stroke-linejoin="round" stroke-width=".38"/><path d="m7.68,153.38l-2.94-4.19-1.24-1.52" fill="none" stroke="#000" stroke-linecap="round" stroke-linejoin="round" stroke-width=".38"/><path d="m1.84,153.38l2.89-4.22,1.25-1.62" fill="none" stroke="#000" stroke-linecap="round" stroke-linejoin="round" stroke-width=".38"/><path d="m7.65,151.79l-1.8-2.5" fill="none" stroke="#000" stroke-linecap="round" stroke-linejoin="round" stroke-width=".38"/><path d="m1.89,151.76l1.66-2.58" fill="none" stroke="#000" stroke-linecap="round" stroke-linejoin="round" stroke-width=".38"/><path d="m2.97,148.46l.24-.02.33.74-.09-.78.03-.75-.5.8Z" fill="#474747" fill-rule="evenodd" stroke="#000" stroke-linecap="round" stroke-linejoin="round" stroke-width=".38"/><path d="m6.36,148.55l-.19.02-.31.71.11-.88v-.84s.4.98.4.98Z" fill="#474747" fill-rule="evenodd" stroke="#000" stroke-linecap="round" stroke-linejoin="round" stroke-width=".38"/><path d="m4.77,147.63v.71h.13s.24.25.24.25l-.42.56-.52-.51.23-.27.13-.02v-.73s.23,0,.23,0Z" fill="#474747" fill-rule="evenodd" stroke="#000" stroke-linecap="round" stroke-linejoin="round" stroke-width=".38"/><path d="m5.16,148.63l.74.08" fill="none" stroke="#000" stroke-linecap="round" stroke-linejoin="round" stroke-width=".38"/><path d="m4.18,148.63l-.7.07" fill="none" stroke="#000" stroke-linecap="round" stroke-linejoin="round" stroke-width=".38"/><path d="m6.32,148.52l.57-.04s.11.31.23.44.52.28.52.28c0,0,0,.27.09.43.1.16.53.41.53.41,0,0-.13.54-.11.82.02.28.25.82.25.82,0,0-.24.56-.24.85s.23.8.23.8c0,0-.19.62-.19.91s.16.79.16.79c0,0-.21.54-.2.81s.24.72.24.72c0,0-.2.48-.19.71,0,.23.19.61.19.61l-.72.21" fill="none" stroke="#000" stroke-linecap="round" stroke-linejoin="round" stroke-width=".38"/><path d="m8.24,150.04l-.54.12" fill="none" stroke="#000" stroke-linecap="round" stroke-linejoin="round" stroke-width=".38"/><path d="m7.01,149.41l.07,1.55" fill="none" stroke="#000" stroke-linecap="round" stroke-linejoin="round" stroke-width=".38"/><path d="m5.86,149.35l.07,1.45" fill="none" stroke="#000" stroke-linecap="round" stroke-linejoin="round" stroke-width=".38"/><path d="m3.56,149.25v1.55" fill="none" stroke="#000" stroke-linecap="round" stroke-linejoin="round" stroke-width=".38"/><path d="m2.43,149.33v1.56" fill="none" stroke="#000" stroke-linecap="round" stroke-linejoin="round" stroke-width=".38"/><path d="m4.13,146.45s.49-.37.65-.42c.2-.06.41-.09.61-.07.18.02.37.08.51.2.13.11.2.28.26.44.07.18.08.38.1.58.02.18.02.55.02.55l-.47.42" fill="none" stroke="#000" stroke-linecap="round" stroke-linejoin="round" stroke-width=".38"/><path d="m5.77,147.54s-.01-.35-.08-.51c-.09-.21-.23-.42-.43-.53-.16-.09-.36-.08-.55-.09-.18,0-.38-.02-.55.04-.16.06-.32.17-.43.31-.07.1-.09.23-.12.35-.04.18-.08.55-.08.55" fill="none" stroke="#000" stroke-linecap="round" stroke-linejoin="round" stroke-width=".38"/><path d="m61.66,146.11l.88.66.22.9-.58.74-1.07.06-1.06-.97.09-.96.61-.55.91.13Z" fill="#f9f9f9" fill-rule="evenodd" stroke-width="0"/><path d="m59.96,148.56l-.53-.07-1.3,1.59-.02.93-.16.77.2.84-.18.93.12.77-.14.69.2.69-.18.82.08.55-.06.82.65.2-.02-7.92,1.34-1.62Z" fill="#474747" fill-rule="evenodd" stroke-width="0"/><path d="m58.63,158.14l5.87-.03v-7.95l-1.72-2.6-.69.97-.91.06-.37-.35-.55-.27-.29.66-1.35,1.53v7.98Z" fill="#ececec" fill-rule="evenodd" stroke-width="0"/><path d="m58.67,150.18v7.87h5.79l-5.79-7.87,1.3-1.63.38-1" fill="none" stroke="#000" stroke-linecap="round" stroke-linejoin="round" stroke-width=".38"/><path d="m58.67,152l4.53,6.02" fill="none" stroke="#000" stroke-linecap="round" stroke-linejoin="round" stroke-width=".38"/><path d="m62.01,158.02l-3.34-4.4" fill="none" stroke="#000" stroke-linecap="round" stroke-linejoin="round" stroke-width=".38"/><path d="m60.91,158l-2.25-2.74" fill="none" stroke="#000" stroke-linecap="round" stroke-linejoin="round" stroke-width=".38"/><path d="m59.72,158.05l-1.05-1.33" fill="none" stroke="#000" stroke-linecap="round" stroke-linejoin="round" stroke-width=".38"/><path d="m64.45,158.03v-7.9l-1.14-1.73" fill="none" stroke="#000" stroke-linecap="round" stroke-linejoin="round" stroke-width=".38"/><path d="m58.68,158.05l5.75-7.88" fill="none" stroke="#000" stroke-linecap="round" stroke-linejoin="round" stroke-width=".38"/><path d="m64.46,152l-4.53,6.02" fill="none" stroke="#000" stroke-linecap="round" stroke-linejoin="round" stroke-width=".38"/><path d="m61.08,158.02l3.34-4.4" fill="none" stroke="#000" stroke-linecap="round" stroke-linejoin="round" stroke-width=".38"/><path d="m62.21,158l2.23-2.73" fill="none" stroke="#000" stroke-linecap="round" stroke-linejoin="round" stroke-width=".38"/><path d="m60.91,158l-2.25-2.74" fill="none" stroke="#000" stroke-linecap="round" stroke-linejoin="round" stroke-width=".38"/><path d="m63.39,158.05l1.05-1.33" fill="none" stroke="#000" stroke-linecap="round" stroke-linejoin="round" stroke-width=".38"/><path d="m58.68,156.54l5.21-7.26" fill="none" stroke="#000" stroke-linecap="round" stroke-linejoin="round" stroke-width=".38"/><path d="m58.65,155.04l4.12-5.87" fill="none" stroke="#000" stroke-linecap="round" stroke-linejoin="round" stroke-width=".38"/><path d="m64.45,156.51l-5.13-7.13" fill="none" stroke="#000" stroke-linecap="round" stroke-linejoin="round" stroke-width=".38"/><path d="m64.45,154.95l-3.98-5.67" fill="none" stroke="#000" stroke-linecap="round" stroke-linejoin="round" stroke-width=".38"/><path d="m58.64,153.38l2.94-4.19,1.24-1.52" fill="none" stroke="#000" stroke-linecap="round" stroke-linejoin="round" stroke-width=".38"/><path d="m64.48,153.38l-2.89-4.22-1.25-1.62" fill="none" stroke="#000" stroke-linecap="round" stroke-linejoin="round" stroke-width=".38"/><path d="m58.67,151.79l1.8-2.5" fill="none" stroke="#000" stroke-linecap="round" stroke-linejoin="round" stroke-width=".38"/><path d="m64.43,151.76l-1.66-2.58" fill="none" stroke="#000" stroke-linecap="round" stroke-linejoin="round" stroke-width=".38"/><path d="m63.35,148.46l-.24-.02-.33.74.09-.78-.03-.75.5.8Z" fill="#474747" fill-rule="evenodd" stroke="#000" stroke-linecap="round" stroke-linejoin="round" stroke-width=".38"/><path d="m59.96,148.55l.19.02.31.71-.11-.88v-.84s-.4.98-.4.98Z" fill="#474747" fill-rule="evenodd" stroke="#000" stroke-linecap="round" stroke-linejoin="round" stroke-width=".38"/><path d="m61.55,147.63v.71h-.13s-.24.25-.24.25l.42.56.52-.51-.23-.27-.13-.02v-.73s-.23,0-.23,0Z" fill="#474747" fill-rule="evenodd" stroke="#000" stroke-linecap="round" stroke-linejoin="round" stroke-width=".38"/><path d="m61.16,148.63l-.74.08" fill="none" stroke="#000" stroke-linecap="round" stroke-linejoin="round" stroke-width=".38"/><path d="m62.14,148.63l.7.07" fill="none" stroke="#000" stroke-linecap="round" stroke-linejoin="round" stroke-width=".38"/><path d="m60,148.52l-.57-.04s-.11.31-.23.44-.52.28-.52.28c0,0,0,.27-.09.43-.1.16-.53.41-.53.41,0,0,.13.54.11.82-.02.28-.25.82-.25.82,0,0,.24.56.24.85s-.23.8-.23.8c0,0,.19.62.19.91s-.16.79-.16.79c0,0,.21.54.2.81s-.24.72-.24.72c0,0,.2.48.19.71,0,.23-.19.61-.19.61l.72.21" fill="none" stroke="#000" stroke-linecap="round" stroke-linejoin="round" stroke-width=".38"/><path d="m58.08,150.04l.54.12" fill="none" stroke="#000" stroke-linecap="round" stroke-linejoin="round" stroke-width=".38"/><path d="m59.31,149.41l-.07,1.55" fill="none" stroke="#000" stroke-linecap="round" stroke-linejoin="round" stroke-width=".38"/><path d="m60.46,149.35l-.07,1.45" fill="none" stroke="#000" stroke-linecap="round" stroke-linejoin="round" stroke-width=".38"/><path d="m62.76,149.25v1.55" fill="none" stroke="#000" stroke-linecap="round" stroke-linejoin="round" stroke-width=".38"/><path d="m63.89,149.33v1.56" fill="none" stroke="#000" stroke-linecap="round" stroke-linejoin="round" stroke-width=".38"/><path d="m62.19,146.45s-.49-.37-.65-.42c-.2-.06-.41-.09-.61-.07-.18.02-.37.08-.51.2-.13.11-.2.28-.26.44-.07.18-.08.38-.1.58-.02.18-.02.55-.02.55l.47.42" fill="none" stroke="#000" stroke-linecap="round" stroke-linejoin="round" stroke-width=".38"/><path d="m60.55,147.54s.01-.35.08-.51c.09-.21.23-.42.43-.53.16-.09.36-.08.55-.09.18,0,.38-.02.55.04.16.06.32.17.43.31.07.1.09.23.12.35.04.18.08.55.08.55" fill="none" stroke="#000" stroke-linecap="round" stroke-linejoin="round" stroke-width=".38"/><path d="m47.1,146.11l-.88.66-.22.9.58.74,1.07.06,1.06-.97-.09-.96-.61-.55-.91.13Z" fill="#f9f9f9" fill-rule="evenodd" stroke-width="0"/><path d="m48.8,148.56l.53-.07,1.3,1.59.02.93.16.77-.2.84.18.93-.12.77.14.69-.2.69.18.82-.08.55.06.82-.65.2.02-7.92-1.34-1.62Z" fill="#474747" fill-rule="evenodd" stroke-width="0"/><path d="m50.13,158.14l-5.87-.03v-7.95l1.72-2.6.69.97.91.06.37-.35.55-.27.29.66,1.35,1.53v7.98Z" fill="#ececec" fill-rule="evenodd" stroke-width="0"/><path d="m50.09,150.18v7.87h-5.79l5.79-7.87-1.3-1.63-.38-1" fill="none" stroke="#000" stroke-linecap="round" stroke-linejoin="round" stroke-width=".38"/><path d="m50.09,152l-4.53,6.02" fill="none" stroke="#000" stroke-linecap="round" stroke-linejoin="round" stroke-width=".38"/><path d="m46.75,158.02l3.34-4.4" fill="none" stroke="#000" stroke-linecap="round" stroke-linejoin="round" stroke-width=".38"/><path d="m47.85,158l2.25-2.74" fill="none" stroke="#000" stroke-linecap="round" stroke-linejoin="round" stroke-width=".38"/><path d="m49.04,158.05l1.05-1.33" fill="none" stroke="#000" stroke-linecap="round" stroke-linejoin="round" stroke-width=".38"/><path d="m44.31,158.03v-7.9l1.14-1.73" fill="none" stroke="#000" stroke-linecap="round" stroke-linejoin="round" stroke-width=".38"/><path d="m50.08,158.05l-5.75-7.88" fill="none" stroke="#000" stroke-linecap="round" stroke-linejoin="round" stroke-width=".38"/><path d="m44.3,152l4.53,6.02" fill="none" stroke="#000" stroke-linecap="round" stroke-linejoin="round" stroke-width=".38"/><path d="m47.68,158.02l-3.34-4.4" fill="none" stroke="#000" stroke-linecap="round" stroke-linejoin="round" stroke-width=".38"/><path d="m46.55,158l-2.23-2.73" fill="none" stroke="#000" stroke-linecap="round" stroke-linejoin="round" stroke-width=".38"/><path d="m47.85,158l2.25-2.74" fill="none" stroke="#000" stroke-linecap="round" stroke-linejoin="round" stroke-width=".38"/><path d="m45.37,158.05l-1.05-1.33" fill="none" stroke="#000" stroke-linecap="round" stroke-linejoin="round" stroke-width=".38"/><path d="m50.08,156.54l-5.21-7.26" fill="none" stroke="#000" stroke-linecap="round" stroke-linejoin="round" stroke-width=".38"/><path d="m50.11,155.04l-4.12-5.87" fill="none" stroke="#000" stroke-linecap="round" stroke-linejoin="round" stroke-width=".38"/><path d="m44.31,156.51l5.13-7.13" fill="none" stroke="#000" stroke-linecap="round" stroke-linejoin="round" stroke-width=".38"/><path d="m44.31,154.95l3.98-5.67" fill="none" stroke="#000" stroke-linecap="round" stroke-linejoin="round" stroke-width=".38"/><path d="m50.12,153.38l-2.94-4.19-1.24-1.52" fill="none" stroke="#000" stroke-linecap="round" stroke-linejoin="round" stroke-width=".38"/><path d="m44.28,153.38l2.89-4.22,1.25-1.62" fill="none" stroke="#000" stroke-linecap="round" stroke-linejoin="round" stroke-width=".38"/><path d="m50.09,151.79l-1.8-2.5" fill="none" stroke="#000" stroke-linecap="round" stroke-linejoin="round" stroke-width=".38"/><path d="m44.33,151.76l1.66-2.58" fill="none" stroke="#000" stroke-linecap="round" stroke-linejoin="round" stroke-width=".38"/><path d="m45.41,148.46l.24-.02.33.74-.09-.78.03-.75-.5.8Z" fill="#474747" fill-rule="evenodd" stroke="#000" stroke-linecap="round" stroke-linejoin="round" stroke-width=".38"/><path d="m48.8,148.55l-.19.02-.31.71.11-.88v-.84s.4.98.4.98Z" fill="#474747" fill-rule="evenodd" stroke="#000" stroke-linecap="round" stroke-linejoin="round" stroke-width=".38"/><path d="m47.21,147.63v.71h.13s.24.25.24.25l-.42.56-.52-.51.23-.27.13-.02v-.73s.23,0,.23,0Z" fill="#474747" fill-rule="evenodd" stroke="#000" stroke-linecap="round" stroke-linejoin="round" stroke-width=".38"/><path d="m47.6,148.63l.74.08" fill="none" stroke="#000" stroke-linecap="round" stroke-linejoin="round" stroke-width=".38"/><path d="m46.62,148.63l-.7.07" fill="none" stroke="#000" stroke-linecap="round" stroke-linejoin="round" stroke-width=".38"/><path d="m48.76,148.52l.57-.04s.11.31.23.44.52.28.52.28c0,0,0,.27.09.43.1.16.53.41.53.41,0,0-.13.54-.11.82.02.28.25.82.25.82,0,0-.24.56-.24.85s.23.8.23.8c0,0-.19.62-.19.91s.16.79.16.79c0,0-.21.54-.2.81s.24.72.24.72c0,0-.2.48-.19.71,0,.23.19.61.19.61l-.72.21" fill="none" stroke="#000" stroke-linecap="round" stroke-linejoin="round" stroke-width=".38"/><path d="m50.68,150.04l-.54.12" fill="none" stroke="#000" stroke-linecap="round" stroke-linejoin="round" stroke-width=".38"/><path d="m49.45,149.41l.07,1.55" fill="none" stroke="#000" stroke-linecap="round" stroke-linejoin="round" stroke-width=".38"/><path d="m48.3,149.35l.07,1.45" fill="none" stroke="#000" stroke-linecap="round" stroke-linejoin="round" stroke-width=".38"/><path d="m46,149.25v1.55" fill="none" stroke="#000" stroke-linecap="round" stroke-linejoin="round" stroke-width=".38"/><path d="m44.87,149.33v1.56" fill="none" stroke="#000" stroke-linecap="round" stroke-linejoin="round" stroke-width=".38"/><path d="m46.57,146.45s.49-.37.65-.42c.2-.06.41-.09.61-.07.18.02.37.08.51.2.13.11.2.28.26.44.07.18.08.38.1.58.02.18.02.55.02.55l-.47.42" fill="none" stroke="#000" stroke-linecap="round" stroke-linejoin="round" stroke-width=".38"/><path d="m48.21,147.54s-.01-.35-.08-.51c-.09-.21-.23-.42-.43-.53-.16-.09-.36-.08-.55-.09-.18,0-.38-.02-.55.04-.16.06-.32.17-.43.31-.07.1-.09.23-.12.35-.04.18-.08.55-.08.55" fill="none" stroke="#000" stroke-linecap="round" stroke-linejoin="round" stroke-width=".38"/></svg>