<?xml version="1.0" encoding="UTF-8"?><svg id="Layer_1" xmlns="http://www.w3.org/2000/svg" xmlns:xlink="http://www.w3.org/1999/xlink" viewBox="0 0 26.61 371.75"><defs><linearGradient id="linear-gradient" x1="25.27" y1="-436.96" x2="43.93" y2="-436.96" gradientTransform="translate(-21.29 -224.78) scale(1 -1)" gradientUnits="userSpaceOnUse"><stop offset="0" stop-color="#f6f6f6"/><stop offset=".5" stop-color="#fff"/><stop offset="1" stop-color="#f6f6f6"/></linearGradient><linearGradient id="linear-gradient-2" x1="25.28" y1="-90.85" x2="43.94" y2="-90.85" gradientTransform="translate(-21.3 -96.08) scale(1 -2.53)" gradientUnits="userSpaceOnUse"><stop offset="0" stop-color="#101010"/><stop offset=".5" stop-color="#282828"/><stop offset="1" stop-color="#101010"/></linearGradient><linearGradient id="linear-gradient-3" x1="25.27" y1="-579.22" x2="43.93" y2="-579.22" gradientTransform="translate(-21.29 -225.89) scale(1 -1)" gradientUnits="userSpaceOnUse"><stop offset="0" stop-color="#101010"/><stop offset=".5" stop-color="#282828"/><stop offset="1" stop-color="#101010"/></linearGradient><linearGradient id="linear-gradient-4" x1="25.31" y1="-588.72" x2="43.88" y2="-588.72" gradientTransform="translate(-21.29 -225.89) scale(1 -1)" gradientUnits="userSpaceOnUse"><stop offset="0" stop-color="#101010"/><stop offset=".5" stop-color="#282828"/><stop offset="1" stop-color="#101010"/></linearGradient><linearGradient id="linear-gradient-5" x1="22.73" y1="-559.73" x2="34.77" y2="-559.73" gradientTransform="translate(-21.29 -225.89) scale(1 -1)" gradientUnits="userSpaceOnUse"><stop offset="0" stop-color="#181818"/><stop offset="1" stop-color="#3c3c3c"/></linearGradient><linearGradient id="linear-gradient-6" x1="24.86" y1="-566.49" x2="28.49" y2="-585.84" gradientTransform="translate(-21.29 -225.89) scale(1 -1)" gradientUnits="userSpaceOnUse"><stop offset="0" stop-color="#080808"/><stop offset="1" stop-color="#141414"/></linearGradient><linearGradient id="linear-gradient-7" x1="-1408.86" y1="-559.73" x2="-1396.82" y2="-559.73" gradientTransform="translate(-1383.63 -225.89) rotate(-180)" gradientUnits="userSpaceOnUse"><stop offset="0" stop-color="#181818"/><stop offset="1" stop-color="#3c3c3c"/></linearGradient><linearGradient id="linear-gradient-8" x1="-1406.73" y1="-566.49" x2="-1403.1" y2="-585.84" gradientTransform="translate(-1383.63 -225.89) rotate(-180)" gradientUnits="userSpaceOnUse"><stop offset="0" stop-color="#080808"/><stop offset="1" stop-color="#141414"/></linearGradient><linearGradient id="linear-gradient-9" x1="30.61" y1="-266.89" x2="50.98" y2="-266.89" gradientTransform="translate(-27.48 -225.89) scale(1 -1)" gradientUnits="userSpaceOnUse"><stop offset="0" stop-color="#d2d2d2"/><stop offset=".5" stop-color="#fff"/><stop offset="1" stop-color="#d2d2d2"/></linearGradient><linearGradient id="linear-gradient-10" x1="-1385.81" y1="-267.26" x2="-1383.83" y2="-265.75" gradientTransform="translate(-1377.52 -225.89) rotate(-180)" gradientUnits="userSpaceOnUse"><stop offset="0" stop-color="#d2d2d2"/><stop offset="1" stop-color="#e6e6e6"/></linearGradient><linearGradient id="linear-gradient-11" x1="-1386.13" y1="-263.72" x2="-1381.76" y2="-263.72" gradientTransform="translate(-1377.52 -225.89) rotate(-180)" gradientUnits="userSpaceOnUse"><stop offset="0" stop-color="#e6e6e6"/><stop offset="1" stop-color="#fafafa"/></linearGradient><linearGradient id="linear-gradient-12" x1="45.78" y1="-267.26" x2="47.76" y2="-265.75" gradientTransform="translate(-27.48 -225.89) scale(1 -1)" gradientUnits="userSpaceOnUse"><stop offset="0" stop-color="#d2d2d2"/><stop offset="1" stop-color="#e6e6e6"/></linearGradient><linearGradient id="linear-gradient-13" x1="45.46" y1="-263.72" x2="49.83" y2="-263.72" gradientTransform="translate(-27.48 -225.89) scale(1 -1)" gradientUnits="userSpaceOnUse"><stop offset="0" stop-color="#e6e6e6"/><stop offset="1" stop-color="#fafafa"/></linearGradient><linearGradient id="linear-gradient-14" x1="30.73" y1="-275.71" x2="50.86" y2="-275.71" gradientTransform="translate(-27.48 -225.89) scale(1 -1)" gradientUnits="userSpaceOnUse"><stop offset="0" stop-color="#505050"/><stop offset=".51" stop-color="#606060"/><stop offset="1" stop-color="#505050"/></linearGradient><linearGradient id="linear-gradient-15" x1="-1381.87" y1="-286.49" x2="-1377.66" y2="-285.88" gradientTransform="translate(-1377.43 -225.89) rotate(-180)" gradientUnits="userSpaceOnUse"><stop offset="0" stop-color="#e6e6e6"/><stop offset="1" stop-color="#fff"/></linearGradient><linearGradient id="linear-gradient-16" x1="49.72" y1="-286.49" x2="53.93" y2="-285.88" gradientTransform="translate(-27.49 -225.89) scale(1 -1)" gradientUnits="userSpaceOnUse"><stop offset="0" stop-color="#e6e6e6"/><stop offset="1" stop-color="#fff"/></linearGradient><linearGradient id="linear-gradient-17" x1="25.27" y1="-12384.48" x2="43.93" y2="-12384.48" gradientTransform="translate(-21.29 -724.72) scale(1 -.06)" gradientUnits="userSpaceOnUse"><stop offset="0" stop-color="#f6f6f6"/><stop offset=".5" stop-color="#fff"/><stop offset="1" stop-color="#f6f6f6"/></linearGradient><linearGradient id="linear-gradient-18" x1="35.22" y1="-256.73" x2="46.35" y2="-256.73" gradientTransform="translate(-27.48 -225.89) scale(1 -1)" gradientUnits="userSpaceOnUse"><stop offset="0" stop-color="#f0f0f0"/><stop offset=".5" stop-color="#fff"/><stop offset="1" stop-color="#f0f0f0"/></linearGradient><radialGradient id="radial-gradient" cx="197.72" cy="189.64" fx="197.72" fy="189.64" r=".92" gradientTransform="translate(-312.43 -158.69) rotate(90) scale(1 -1.7)" gradientUnits="userSpaceOnUse"><stop offset="0" stop-color="#423138"/><stop offset="1" stop-color="#251c1f"/></radialGradient><radialGradient id="radial-gradient-2" cx="-1224.6" cy="93.83" fx="-1224.6" fy="93.83" r=".92" gradientTransform="translate(-1207.4 198.24) rotate(-180) scale(1 1.7)" gradientUnits="userSpaceOnUse"><stop offset="0" stop-color="#423138"/><stop offset="1" stop-color="#251c1f"/></radialGradient><linearGradient id="linear-gradient-19" x1="33.89" y1="-269.26" x2="32.5" y2="-273.5" gradientTransform="translate(-27.51 -225.89) scale(1 -1)" gradientUnits="userSpaceOnUse"><stop offset="0" stop-color="#505050"/><stop offset="1" stop-color="#787878"/></linearGradient><linearGradient id="linear-gradient-20" x1="31.59" y1="-270.92" x2="33.39" y2="-274.95" gradientTransform="translate(-27.51 -225.89) scale(1 -1)" gradientUnits="userSpaceOnUse"><stop offset="0" stop-color="#828282"/><stop offset="1" stop-color="#646464"/></linearGradient><linearGradient id="linear-gradient-21" x1="-1397.7" y1="-269.26" x2="-1399.09" y2="-273.5" gradientTransform="translate(-1377.45 -225.89) rotate(-180)" gradientUnits="userSpaceOnUse"><stop offset="0" stop-color="#505050"/><stop offset="1" stop-color="#787878"/></linearGradient><linearGradient id="linear-gradient-22" x1="-1400" y1="-270.92" x2="-1398.2" y2="-274.95" gradientTransform="translate(-1377.45 -225.89) rotate(-180)" gradientUnits="userSpaceOnUse"><stop offset="0" stop-color="#828282"/><stop offset="1" stop-color="#646464"/></linearGradient><linearGradient id="linear-gradient-23" x1="37.38" y1="-287.94" x2="40.83" y2="-287.32" gradientTransform="translate(-27.48 -225.89) scale(1 -1)" gradientUnits="userSpaceOnUse"><stop offset="0" stop-color="#f0f0f0" stop-opacity="0"/><stop offset="1" stop-color="#e6e6e6"/></linearGradient><linearGradient id="linear-gradient-24" x1="44.39" y1="-271.75" x2="44.69" y2="-277.12" gradientTransform="translate(-27.48 -225.89) scale(1 -1)" gradientUnits="userSpaceOnUse"><stop offset="0" stop-color="#fafafa"/><stop offset="1" stop-color="#e6e6e6"/></linearGradient><linearGradient id="linear-gradient-25" x1="77.85" y1="-276.93" x2="77.98" y2="-275.27" gradientTransform="translate(-60.79 -225.89) scale(1 -1)" gradientUnits="userSpaceOnUse"><stop offset="0" stop-color="#787878"/><stop offset="1" stop-color="#000" stop-opacity="0"/></linearGradient></defs><rect x="3.97" y="68.32" width="18.67" height="292" fill="url(#linear-gradient)" stroke-width="0"/><rect x="3.97" y="115.96" width="18.67" height="35.7" fill="url(#linear-gradient-2)" stroke-width="0"/><rect x="3.97" y="346.27" width="18.67" height="14.11" fill="url(#linear-gradient-3)" stroke-width="0"/><path d="m4.84,365.2c-.03-.05-.08-.19-.08-.23v-.03h3.39v.06c.04.12.04.14.01.19l-.03.04h-3.27l-.02-.04h0Z" fill="#f7f7f7" stroke-width="0"/><path d="m8.63,365.2c-.03-.06-.08-.2-.08-.22,0-.01.73-.01,1.75-.01h1.75v.03c-.02.07-.05.15-.08.2l-.03.06h-3.27l-.03-.06h0Z" fill="#f7f7f7" stroke-width="0"/><path d="m12.34,365.3s.01-.04.03-.08c.02-.06.05-.16.07-.26v-.04h.88c.83,0,.88,0,.88.02,0,.01,0,.04.01.07,0,.03.02.1.04.16.02.06.04.12.04.12h-.98c-.54,0-.98,0-.98-.01h0Z" fill="#f7f7f7" stroke-width="0"/><path d="m14.67,365.2c-.03-.06-.08-.2-.08-.22,0-.01.73-.01,1.75-.01,1.3,0,1.75,0,1.75.01,0,.03-.05.16-.08.22l-.03.06h-3.27l-.03-.06h0Z" fill="#f7f7f7" stroke-width="0"/><path d="m18.48,365.2c-.03-.05-.04-.08-.02-.17.01-.05.02-.09.02-.09,0,0,.77-.01,1.7-.01h1.7v.03c-.02.06-.06.16-.08.21l-.03.05h-3.27l-.02-.04h0Z" fill="#f7f7f7" stroke-width="0"/><path d="m4.01,360.3l18.57.03v3.27s-.69,1.75-.69,1.75l-17.17-.05-.7-1.75-.02-3.25Z" fill="url(#linear-gradient-4)" stroke-width="0"/><path d="m8.28,368c-.19-.48-.45-1.03-.7-1.53l-.1-.19.04-.08c.07-.13.23-.42.33-.58l.04-.06h.2c.11,0,.33,0,.49,0h.29l.04.06c.08.14.3.52.35.62l.02.03-.05.1c-.28.53-.55,1.13-.77,1.69l-.04.09h-.06l-.06-.16h0Z" fill="#333" stroke-width="0"/><path d="m18.09,367.8c-.19-.48-.45-1.03-.7-1.53l-.1-.19.04-.08c.07-.13.23-.42.33-.58l.04-.06h.2c.11,0,.33,0,.49,0h.29l.04.06c.08.14.3.52.35.62l.02.03-.05.1c-.28.53-.55,1.13-.77,1.69l-.04.09h-.06l-.06-.16h0Z" fill="#333" stroke-width="0"/><path d="m12.21,367.3c.08-.16.23-.43.33-.62l.19-.33-.22-.39-.22-.39h-.38c-.32,0-.38-.01-.38-.04,0-.03-.03-.04-.16-.03-.15.01-.17.01-.22.1l-.05.09.28.54c.15.3.36.72.46.94.1.22.19.4.2.4,0,0,.08-.13.16-.28h0Z" fill="#333" stroke-width="0"/><path d="m14.48,367.3c-.08-.16-.23-.43-.33-.62l-.19-.33.22-.39.22-.39h.38c.32,0,.38-.01.38-.04,0-.03.03-.04.16-.03.15.01.17.01.22.1l.05.09-.28.54c-.15.3-.36.72-.46.94-.1.22-.19.4-.2.4,0,0-.08-.13-.16-.28h0Z" fill="#333" stroke-width="0"/><path d="m10.97,371.5s.08-.38.09-.42c.17-2.25.35-1.78,1.06-3.15,0-.07.48-1.05.75-1.52l.14-.24v-.63h.67v.64l.14.25c.15.27.57,1.08.66,1.3l.06.13c.88,2.4.22.29,1.13,3.39.02.1.04.2.04.22,0,.03,0,.03-2.38.03-1.31,0-2.38,0-2.38-.01h0Z" fill="#333" stroke-width="0"/><path d="m3.99,116.01h18.65" fill="none" stroke="#000" stroke-width=".4"/><path d="m16.85,365.4h-1.02" fill="none" stroke="#000" stroke-width=".4"/><path d="m5.94,370.7h4.91" fill="none" stroke="#000" stroke-width=".4"/><path d="m7.89,365.4h1.02" fill="none" stroke="#000" stroke-width=".4"/><path d="m9.35,366.2c-.14-.28-.29-.56-.44-.83" fill="none" stroke="#000" stroke-width=".4"/><path d="m7.89,365.4c-.15.27-.3.55-.44.83" fill="none" stroke="#000" stroke-width=".4"/><path d="m11.27,365.4h.76" fill="none" stroke="#000" stroke-width=".4"/><path d="m12.78,366.3c-.14-.29-.29-.57-.45-.85" fill="none" stroke="#000" stroke-width=".4"/><path d="m11.27,365.4c-.08.14-.16.28-.23.42" fill="none" stroke="#000" stroke-width=".4"/><path d="m20.69,370.7h-4.91" fill="none" stroke="#000" stroke-width=".4"/><path d="m18.75,365.4h-1.02" fill="none" stroke="#000" stroke-width=".4"/><path d="m17.73,365.4c-.15.27-.3.55-.44.83" fill="none" stroke="#000" stroke-width=".4"/><path d="m19.19,366.2c-.14-.28-.29-.56-.44-.83" fill="none" stroke="#000" stroke-width=".4"/><path d="m15.36,365.4h-.76" fill="none" stroke="#000" stroke-width=".4"/><path d="m12.03,365.4c.15-.2.23-.44.22-.68" fill="none" stroke="#000" stroke-width=".4"/><path d="m8.56,365.4h3.48" fill="none" stroke="#000" stroke-width=".4"/><path d="m14.38,364.7c-.01.25.07.49.22.68" fill="none" stroke="#000" stroke-width=".4"/><path d="m18.08,365.4c.15-.2.23-.44.22-.68" fill="none" stroke="#000" stroke-width=".4"/><path d="m12.33,365.5h1.97" fill="none" stroke="#000" stroke-width=".4"/><path d="m11.52,365.4s.04.05.05.08" fill="none" stroke="#000" stroke-width=".4"/><path d="m15.06,365.5s.04-.05.05-.08" fill="none" stroke="#000" stroke-width=".4"/><path d="m11.58,365.5h3.48" fill="none" stroke="#000" stroke-width=".4"/><path d="m14.35,365.5c-.16.28-.31.56-.45.85" fill="none" stroke="#000" stroke-width=".4"/><path d="m14.35,365.5c-.16.28-.31.56-.45.85" fill="none" stroke="#000" stroke-width=".4"/><path d="m15.62,365.8c-.07-.13-.14-.25-.21-.38" fill="none" stroke="#000" stroke-width=".4"/><path d="m22.64,68.39v242" fill="none" stroke="#000" stroke-width=".4"/><path d="m11.06,370.7c-.07.28-.12.55-.18.83h4.91c-.05-.28-.11-.56-.18-.83" fill="none" stroke="#000" stroke-width=".4"/><path d="m11.98,367.9c.25-.58.53-1.16.85-1.71v-.75" fill="none" stroke="#000" stroke-width=".4"/><path d="m13.85,365.5v.75c.3.53.58,1.08.82,1.65" fill="none" stroke="#000" stroke-width=".4"/><path d="m8.4,368.6c-.36-1.09-.82-2.14-1.39-3.14h-1.02c-.94,1.65-1.6,3.45-1.95,5.32h4.91" fill="#333" stroke="#000" stroke-width=".4"/><path d="m18.24,365.1c.04.11.09.21.16.3h3.48c.15-.2.23-.44.22-.68" fill="none" stroke="#000" stroke-width=".4"/><path d="m17.68,370.7h4.91c-.35-1.87-1.01-3.66-1.95-5.32h-1.02c-.57,1-1.03,2.05-1.39,3.14" fill="#333" stroke="#000" stroke-width=".4"/><path d="m9.79,365.4c-.94,1.65-1.6,3.45-1.95,5.32h4.91c-.35-1.87-1.01-3.66-1.95-5.32h-1.02Z" fill="#333" stroke="#000" stroke-width=".4"/><path d="m3.99,310.39V68.39" fill="none" stroke="#000" stroke-width=".4"/><path d="m22.64,354.91v8.31c-.02.54-.19,1.06-.49,1.51H4.49c-.3-.45-.46-.97-.49-1.51v-8.31" fill="none" stroke="#000" stroke-width=".4"/><path d="m16.85,365.4c.94,1.65,1.6,3.45,1.95,5.32h-4.91c.35-1.87,1.01-3.66,1.95-5.32" fill="#333" stroke="#000" stroke-width=".4"/><path d="m14.6,365.4h3.48" fill="none" stroke="#000" stroke-width=".4"/><path d="m4.54,364.7c-.01.25.07.49.22.68h3.48c.07-.09.12-.19.16-.3" fill="none" stroke="#000" stroke-width=".4"/><path d="m8.34,364.7c-.01.25.07.49.22.68" fill="none" stroke="#000" stroke-width=".4"/><path d="m3.99,151.7h18.65" fill="none" stroke="#000" stroke-width=".4"/><path d="m14.72,238.3h-3.87l-.14.11v3.44h1.07v-1.29l.1-.09h2.84c.72,0,1.05-.19,1.05-.69v-.79c0-.5-.34-.69-1.05-.69m0,1.27c0,.23-.15.28-.49.28h-2.34l-.11-.11v-.74l.1-.09h2.35c.34,0,.49.05.49.28v.38h0Z" fill="#005288" stroke-width="0"/><polyline points="12.48 246.13 13.4 247.48 13.35 247.61 11.31 247.61 10.79 248.25 13.83 248.25 14.04 248.38 14.51 249.03 15.73 249.03 13.05 245.43" fill="#005288" stroke-width="0"/><polyline points="11.92 264.06 11.92 263.1 12.03 263.01 14.08 263.01 14.08 262.4 10.83 262.4 10.83 264.76 15.62 264.76 15.62 264.15 12.03 264.15" fill="#005288" stroke-width="0"/><rect x="10.83" y="261.21" width="4.84" height=".67" fill="#005288" stroke-width="0"/><path d="m11.89,253.8h3.9c-.06-.5-.37-.63-1.15-.63h-2.79c-.88,0-1.16.17-1.16.84v1.87c0,.67.28.84,1.16.84h2.79c.79,0,1.1-.15,1.12-.66h-3.87l-.11-.11v-2.07" fill="#005288" stroke-width="0"/><path d="m14.68,231.5h-2.84l-.08-.09v-.61l.08-.06h3.83l.05-.13c-.13-.34-.47-.49-1.09-.49h-2.66c-.88,0-1.16.17-1.16.84v.39c0,.67.28.84,1.16.84h2.83l.09.08v.63l-.07.1h-3.24s-.85,0-.85,0c0,0-.1.05-.09.07.07.47.39.6,1.15.6h2.9c.88,0,1.17-.17,1.17-.84v-.49c0-.67-.29-.84-1.17-.84" fill="#005288" stroke-width="0"/><path d="m11.95,269.43h-1.59l-.09.16,1.77,1.29c.34-.19.7-.39,1.1-.58" fill="#005288" stroke-width="0"/><path d="m13.37,271.86l1.56,1.13h1.61l.07-.15-2.32-1.7c-.31.23-.61.47-.91.72" fill="#005288" stroke-width="0"/><path d="m11.71,272.99h-1.44l-.12-.19c.98-.95,5.46-4.5,11.28-4.96,0,0-5.1.57-9.72,5.15" fill="#a7a9ac" stroke-width="0"/><rect x="8.7" y="174.1" width="9.2" height="5.17" fill="#b22234" stroke-width="0"/><path d="m8.7,174.7h9.2m0,.8h-9.2m0,.8h9.2m0,.8h-9.2m0,.8h9.2m0,.8h-9.2" stroke="#fff" stroke-miterlimit="10" stroke-width=".37"/><rect x="8.7" y="174.1" width="3.68" height="2.78" fill="#3c3b6e" stroke-width="0"/><path d="m9.01,174.22l.09.29-.23-.18h.28l-.23.18.09-.29Z" fill="#fff" stroke-width="0"/><path id="s" d="m9.01,174.78l.09.29-.23-.18h.28l-.23.18.09-.29Z" fill="#fff" stroke-width="0"/><path id="s-2" d="m9.01,175.34l.09.29-.23-.18h.28l-.23.18.09-.29Z" fill="#fff" stroke-width="0"/><path id="s-3" d="m9.01,175.89l.09.29-.23-.18h.28l-.23.18.09-.29Z" fill="#fff" stroke-width="0"/><path id="s-4" d="m9.01,176.45l.09.29-.23-.18h.28l-.23.18.09-.29Z" fill="#fff" stroke-width="0"/><g id="d"><path id="s-5" d="m9.32,174.5l.09.29-.23-.18h.28l-.23.18.09-.29Z" fill="#fff" stroke-width="0"/><path id="s-6" d="m9.32,175.06l.09.29-.23-.18h.28l-.23.18.09-.29Z" fill="#fff" stroke-width="0"/><path id="s-7" d="m9.32,175.62l.09.29-.23-.18h.28l-.23.18.09-.29Z" fill="#fff" stroke-width="0"/><path id="s-8" d="m9.32,176.17l.09.29-.23-.18h.28l-.23.18.09-.29Z" fill="#fff" stroke-width="0"/></g><g id="a"><g id="c"><g id="d-2"><path id="s-9" d="m9.62,174.22l.09.29-.23-.18h.28l-.23.18.09-.29Z" fill="#fff" stroke-width="0"/><path id="s-10" d="m9.62,174.78l.09.29-.23-.18h.28l-.23.18.09-.29Z" fill="#fff" stroke-width="0"/><path id="s-11" d="m9.62,175.34l.09.29-.23-.18h.28l-.23.18.09-.29Z" fill="#fff" stroke-width="0"/><path id="s-12" d="m9.62,175.89l.09.29-.23-.18h.28l-.23.18.09-.29Z" fill="#fff" stroke-width="0"/></g><path id="s-13" d="m9.62,176.45l.09.29-.23-.18h.28l-.23.18.09-.29Z" fill="#fff" stroke-width="0"/></g><g id="d-3"><path id="s-14" d="m9.93,174.5l.09.29-.23-.18h.28l-.23.18.09-.29Z" fill="#fff" stroke-width="0"/><path id="s-15" d="m9.93,175.06l.09.29-.23-.18h.28l-.23.18.09-.29Z" fill="#fff" stroke-width="0"/><path id="s-16" d="m9.93,175.62l.09.29-.23-.18h.28l-.23.18.09-.29Z" fill="#fff" stroke-width="0"/><path id="s-17" d="m9.93,176.17l.09.29-.23-.18h.28l-.23.18.09-.29Z" fill="#fff" stroke-width="0"/></g></g><g id="e"><g id="a-2"><g id="c-2"><g id="d-4"><path id="s-18" d="m10.24,174.22l.09.29-.23-.18h.28l-.23.18.09-.29Z" fill="#fff" stroke-width="0"/><path id="s-19" d="m10.24,174.78l.09.29-.23-.18h.28l-.23.18.09-.29Z" fill="#fff" stroke-width="0"/><path id="s-20" d="m10.24,175.34l.09.29-.23-.18h.28l-.23.18.09-.29Z" fill="#fff" stroke-width="0"/><path id="s-21" d="m10.24,175.89l.09.29-.23-.18h.28l-.23.18.09-.29Z" fill="#fff" stroke-width="0"/></g><path id="s-22" d="m10.24,176.45l.09.29-.23-.18h.28l-.23.18.09-.29Z" fill="#fff" stroke-width="0"/></g><g id="d-5"><path id="s-23" d="m10.54,174.5l.09.29-.23-.18h.28l-.23.18.09-.29Z" fill="#fff" stroke-width="0"/><path id="s-24" d="m10.54,175.06l.09.29-.23-.18h.28l-.23.18.09-.29Z" fill="#fff" stroke-width="0"/><path id="s-25" d="m10.54,175.62l.09.29-.23-.18h.28l-.23.18.09-.29Z" fill="#fff" stroke-width="0"/><path id="s-26" d="m10.54,176.17l.09.29-.23-.18h.28l-.23.18.09-.29Z" fill="#fff" stroke-width="0"/></g></g><g id="a-3"><g id="c-3"><g id="d-6"><path id="s-27" d="m10.85,174.22l.09.29-.23-.18h.28l-.23.18.09-.29Z" fill="#fff" stroke-width="0"/><path id="s-28" d="m10.85,174.78l.09.29-.23-.18h.28l-.23.18.09-.29Z" fill="#fff" stroke-width="0"/><path id="s-29" d="m10.85,175.34l.09.29-.23-.18h.28l-.23.18.09-.29Z" fill="#fff" stroke-width="0"/><path id="s-30" d="m10.85,175.89l.09.29-.23-.18h.28l-.23.18.09-.29Z" fill="#fff" stroke-width="0"/></g><path id="s-31" d="m10.85,176.45l.09.29-.23-.18h.28l-.23.18.09-.29Z" fill="#fff" stroke-width="0"/></g><g id="d-7"><path id="s-32" d="m11.16,174.5l.09.29-.23-.18h.28l-.23.18.09-.29Z" fill="#fff" stroke-width="0"/><path id="s-33" d="m11.16,175.06l.09.29-.23-.18h.28l-.23.18.09-.29Z" fill="#fff" stroke-width="0"/><path id="s-34" d="m11.16,175.62l.09.29-.23-.18h.28l-.23.18.09-.29Z" fill="#fff" stroke-width="0"/><path id="s-35" d="m11.16,176.17l.09.29-.23-.18h.28l-.23.18.09-.29Z" fill="#fff" stroke-width="0"/></g></g></g><g id="a-4"><g id="c-4"><g id="d-8"><path id="s-36" d="m11.46,174.22l.09.29-.23-.18h.28l-.23.18.09-.29Z" fill="#fff" stroke-width="0"/><path id="s-37" d="m11.46,174.78l.09.29-.23-.18h.28l-.23.18.09-.29Z" fill="#fff" stroke-width="0"/><path id="s-38" d="m11.46,175.34l.09.29-.23-.18h.28l-.23.18.09-.29Z" fill="#fff" stroke-width="0"/><path id="s-39" d="m11.46,175.89l.09.29-.23-.18h.28l-.23.18.09-.29Z" fill="#fff" stroke-width="0"/></g><path id="s-40" d="m11.46,176.45l.09.29-.23-.18h.28l-.23.18.09-.29Z" fill="#fff" stroke-width="0"/></g><g id="d-9"><path id="s-41" d="m11.77,174.5l.09.29-.23-.18h.28l-.23.18.09-.29Z" fill="#fff" stroke-width="0"/><path id="s-42" d="m11.77,175.06l.09.29-.23-.18h.28l-.23.18.09-.29Z" fill="#fff" stroke-width="0"/><path id="s-43" d="m11.77,175.62l.09.29-.23-.18h.28l-.23.18.09-.29Z" fill="#fff" stroke-width="0"/><path id="s-44" d="m11.77,176.17l.09.29-.23-.18h.28l-.23.18.09-.29Z" fill="#fff" stroke-width="0"/></g></g><g id="c-5"><g id="d-10"><path id="s-45" d="m12.08,174.22l.09.29-.23-.18h.28l-.23.18.09-.29Z" fill="#fff" stroke-width="0"/><path id="s-46" d="m12.08,174.78l.09.29-.23-.18h.28l-.23.18.09-.29Z" fill="#fff" stroke-width="0"/><path id="s-47" d="m12.08,175.34l.09.29-.23-.18h.28l-.23.18.09-.29Z" fill="#fff" stroke-width="0"/><path id="s-48" d="m12.08,175.89l.09.29-.23-.18h.28l-.23.18.09-.29Z" fill="#fff" stroke-width="0"/></g><path id="s-49" d="m12.08,176.45l.09.29-.23-.18h.28l-.23.18.09-.29Z" fill="#fff" stroke-width="0"/></g><path d="m10.65,166.36c.31-.16.62-.33.94-.45-3.67-1.93-3.88-3.38-4.63-4.91.58,1.77,1.07,3.54,3.69,5.36h0Z" fill="#a80126" fill-rule="evenodd" stroke-width="0"/><path d="m8.74,163.46c1.4,1.17,2.61,2,3.51,2.26.89-.47,3.81-.73,3.75-.06-.64-.32-1.02-.17-1.39-.05.18,0,.67-.06.81,0-.06.07-.12.1-.19.14.24.05.46.12.65.23.12-.01.2,0,.24.03-.12.03-.27.19-.34.3.81.02,1.68.02,1.77.87.26-.76-.2-1.16-1.1-1.33-.12-.26-.31-.48-.49-.73-2.45-.14-4.89-.3-7.22-1.65h0Z" fill="#a80126" fill-rule="evenodd" stroke-width="0"/><path d="m6.82,169.38v-1.48h.99c-.04.05-.07.1-.16.14h-.62v.39h.55s-.07.09-.13.11h-.43v.53c-.05.12-.1.23-.21.32h0Z" fill-rule="evenodd" stroke-width="0"/><path d="m9.49,168.05v1.08h.28v-1.02c-.38-.35-.76-.35-1.14,0v1.02h.25v-.6h.2s.08-.05.1-.09h-.29v-.39c.23-.16.41-.16.6,0h0Z" fill-rule="evenodd" stroke-width="0"/><path d="m12.43,169.17h-1.14v-1.25h.29v1.15h1s-.06.09-.15.1h0Z" fill-rule="evenodd" stroke-width="0"/><path d="m14.14,167.9v.25c-.46.62.32,1.37,1.2.82h.07c-.55.6-2.54.1-1.27-1.07h0Z" fill-rule="evenodd" stroke-width="0"/><path d="m13.53,167.93v.45c.44-.79,1.05-1.18,2.91-.66-1.79-.7-2.45-.33-2.91.21Z" fill-rule="evenodd" stroke-width="0"/><path d="m17.01,167.8c-.37,0-.75.26-.75.73,0,.94,1.49.99,1.49,0,0-.5-.37-.73-.75-.73h0Zm0,.1c.22,0,.44.21.45.63,0,.85-.88.83-.88,0,0-.41.22-.63.44-.63h0Z" fill-rule="evenodd" stroke-width="0"/><path d="m19.14,168.05v1.13h-.22v-1.18l.22-.11v.05c.34,0,.58.15.64.24v1.01h-.22v-.99c-.08-.13-.17-.17-.43-.17v.03Z" fill-rule="evenodd" stroke-width="0"/><path d="m13.32,170.05c-2.3.01-1.7,1.85-.43,1.82.59-.02.7-.08,1.1-.5-.25,1.24-1.09,1.24-2.11,1.34-.13.08-.15.1-.24.24,1.72-.03,3.17-.34,3.13-1.68-.03-.94-.66-1.22-1.45-1.21h0Zm-.03.22c.42,0,.76.27.76.6h0c0,.33-.34.6-.76.6-.42,0-.76-.27-.76-.59,0-.33.34-.6.76-.6Z" fill-rule="evenodd" stroke-width="0"/><path d="m22.63,152.05l1.28,2.21v21.3l-.53,3.45v176.4l-.97,3.69v-33.5l-.5-1.62v-2.88l.47-1.76v-15.93l-.55-2.06v-4.13l.46-2.12v-110.06l-.44-2.44v-30.5l.78-.05Z" fill="#101010" fill-rule="evenodd" stroke="#000" stroke-linecap="round" stroke-linejoin="round" stroke-width=".4"/><path d="m3.99,360.3h18.65" fill="none" stroke="#000" stroke-width=".4"/><path d="m3.99,346.34h18.65" fill="none" stroke="#000" stroke-width=".4"/><rect x="3.42" y="360.7" width=".48" height=".45" fill="#101010" stroke-width="0"/><path d="m6.34,306.11h-.06s-.06.01-.06.01l-.06.02-.06.02-.06.03-.06.03-.06.04-.06.05-.06.05-.06.06-.07.07-.07.08-.07.08-.07.09-.07.1-.07.11-.07.12-.07.13-.07.14-.08.14-.08.15-.08.16-.08.16-.07.17-.07.17-.07.17-.07.17-.07.17-.07.17-.06.17-.06.17-.06.17-.05.17-.05.17-.04.17-.04.17-.04.17-.04.17-.03.15v.04s-.04.08-.04.08l-.03.08-.05.15-.05.14-.05.14-.04.14-.04.14-.04.14-.04.14-.04.13-.04.14-.03.14-.03.14-.03.14-.03.15v.08s-.03.08-.03.08l-.02.08v.08s-.03.08-.03.08v.08s-.03.09-.03.09v.09s-.03.09-.03.09l-.02.09v.05s0,.01,0,.01h0v.05s-.02.45-.02.45l-.06,1.8-.24,7.21-.48,14.43-.48,14.43-.24,7.21v.11s0,.06,0,.06h0s0,.02,0,.02v.02s.01.05.01.05l.02.09.04.19.02.09.05.19.03.09.03.09.04.09.04.09.04.09.05.09.05.09.06.09.06.09.07.09.04.04.04.04.04.04.04.04.04.04.04.04.05.04.05.04.05.04.05.04.05.04.11.08.06.04.06.04.06.04.06.04.03.02h.07s.01-.02.01-.02l.02-.02h0s0-.03,0-.03h0s0-.03,0-.03v-.03s.02-.13.02-.13l.03-.26.03-.26.03-.26.03-.26.06-.54.03-.27.06-.55.03-.28.06-.55.06-.56.06-.56.06-.56.12-1.13.06-.56.06-.56.06-.55.06-.55.03-.27.03-.27.03-.27.03-.27.03-.26.03-.26.03-.26.03-.26.03-.26.03-.25.04-.25.03-.24.04-.24.04-.24.04-.23.04-.23.04-.23.04-.22.04-.22.04-.21.05-.14.08-.15.11-.16.13-.16.16-.15.18-.14.2-.11.21-.08.22-.04h.23l.24.05.24.11.4,1.06.42,1.17.42,1.17.42,1.17.42,1.17.42,1.17.42,1.17.42,1.17.42,1.17.42,1.17.42,1.17.42,1.17.11.28.02.03.02.03.02.03.03.03.03.03.03.02.03.02.03.02.03.02.03.02h.03s.07.03.07.03h.03s.3.01.3.01l.05-.03.05-.05.05-.07.05-.09.05-.11.04-.13.04-.14.04-.15.03-.16.03-.16.02-.16-.19-1.82-.45-3.82-.45-3.81-.45-3.82-.45-3.81-.45-3.82-.45-3.81-.45-3.82-.45-3.81-.45-3.82-.45-3.81-.45-3.82-.29-2.58v-.25s0-.25,0-.25v-.5s0-.25,0-.25v-.25s0-.25,0-.25v-.5s0-.25,0-.25v-.25s-.01-.31-.01-.31l-.04-.49-.04-.44-.04-.4-.04-.36-.04-.32-.04-.29-.04-.26-.04-.23-.04-.21-.04-.19-.04-.17-.04-.16-.04-.14-.05-.13-.04-.12-.05-.11-.05-.1-.05-.09-.05-.08-.05-.07-.05-.07-.05-.06-.05-.05-.05-.04-.05-.04-.05-.03-.05-.03-.06-.02h-.06s-.06-.02-.06-.02h-.06Z" fill="url(#linear-gradient-5)" stroke-width="0"/><path d="m3.27,361.6l.69-6.28.17-1.97.61-4.62.09-.64.33-.53.42-.38.42-.19.44-.05.3.05.27.2,5.09,14.12.3.27.34.06-.02-.23-7.69-20.67-.38-.42-.41-.27-.42.11-.17.52-1.61,19.91.39.5.39.36.44.16Z" fill="url(#linear-gradient-6)" fill-rule="evenodd" stroke-width="0"/><path d="m7.82,310.97l-1.23-1.31" fill="none" stroke="#000" stroke-width=".4"/><path d="m6.59,309.66h-2.43" fill="none" stroke="#000" stroke-width=".4"/><path d="m4.07,340.02l.17-24.12" fill="none" stroke="#000" stroke-width=".4"/><path d="m4.25,315.9l2.16-2.93" fill="none" stroke="#000" stroke-width=".4"/><path d="m4.25,315.9l-1.03-2.67" fill="none" stroke="#000" stroke-width=".4"/><path d="m6.41,312.98l.18-3.32" fill="none" stroke="#000" stroke-linecap="round" stroke-width=".4"/><path d="m3.38,360.7h.61" fill="none" stroke="#000" stroke-width=".4"/><path d="m3.3,361.3h.69" fill="none" stroke="#000" stroke-width=".4"/><path d="m2.06,360.6l.36-4.51.12-1.5.59-7.51.12-1.5.36-4.51.05-.48.03-.12.04-.1.04-.09.05-.07.05-.06.06-.04.06-.03.06-.02h.06s.07-.01.07-.01h.07s.07.03.07.03l.06.03.06.03.06.04.06.04.06.05.06.05.06.05.05.06.05.06.05.06.05.06.05.06.04.06.18.44,1.75,4.71.58,1.57,1.75,4.71,1.17,3.14.58,1.57,1.17,3.14.58,1.57" fill="none" stroke="#000" stroke-width=".4"/><path d="m6.34,306.11h-.06s-.06.01-.06.01l-.06.02-.06.02-.06.03-.06.03-.06.04-.06.05-.06.05-.06.06-.07.07-.07.08-.07.08-.07.09-.07.1-.07.11-.07.12-.07.13-.07.14-.08.14-.08.15-.08.16-.08.16-.07.17-.07.17-.07.17-.07.17-.07.17-.07.17-.06.17-.06.17-.06.17-.05.17-.05.17-.04.17-.04.17-.04.17-.04.17-.03.15v.04s-.04.08-.04.08l-.03.08-.05.15-.05.14-.05.14-.04.14-.04.14-.04.14-.04.14-.04.13-.04.14-.03.14-.03.14-.03.14-.03.15v.08s-.03.08-.03.08l-.02.08v.08s-.03.08-.03.08v.08s-.03.09-.03.09v.09s-.03.09-.03.09l-.02.09v.05s0,.01,0,.01h0v.05s-.02.45-.02.45l-.06,1.8-.24,7.21-.48,14.43-.48,14.43-.24,7.21v.11s0,.06,0,.06h0s0,.02,0,.02v.02s.01.05.01.05l.02.09.04.19.02.09.05.19.03.09.03.09.04.09.04.09.04.09.05.09.05.09.06.09.06.09.07.09.04.04.04.04.04.04.04.04.04.04.04.04.05.04.05.04.05.04.05.04.05.04.11.08.06.04.06.04.06.04.06.04.03.02h.07s.01-.02.01-.02l.02-.02h0s0-.03,0-.03h0s0-.03,0-.03v-.03s.02-.13.02-.13l.03-.26.03-.26.03-.26.03-.26.06-.54.03-.27.06-.55.03-.28.06-.55.06-.56.06-.56.06-.56.12-1.13.06-.56.06-.56.06-.55.06-.55.03-.27.03-.27.03-.27.03-.27.03-.26.03-.26.03-.26.03-.26.03-.26.03-.25.04-.25.03-.24.04-.24.04-.24.04-.23.04-.23.04-.23.04-.22.04-.22.04-.21.05-.14.08-.15.11-.16.13-.16.16-.15.18-.14.2-.11.21-.08.22-.04h.23l.24.05.24.11.4,1.06.42,1.17.42,1.17.42,1.17.42,1.17.42,1.17.42,1.17.42,1.17.42,1.17.42,1.17.42,1.17.42,1.17.11.28.02.03.02.03.02.03.03.03.03.03.03.02.03.02.03.02.03.02.03.02h.03s.07.03.07.03h.03s.3.01.3.01l.05-.03.05-.05.05-.07.05-.09.05-.11.04-.13.04-.14.04-.15.03-.16.03-.16.02-.16-.19-1.82-.45-3.82-.45-3.81-.45-3.82-.45-3.81-.45-3.82-.45-3.81-.45-3.82-.45-3.81-.45-3.82-.45-3.81-.45-3.82-.29-2.58v-.25s0-.25,0-.25v-.5s0-.25,0-.25v-.25s0-.25,0-.25v-.5s0-.25,0-.25v-.25s-.01-.31-.01-.31l-.04-.49-.04-.44-.04-.4-.04-.36-.04-.32-.04-.29-.04-.26-.04-.23-.04-.21-.04-.19-.04-.17-.04-.16-.04-.14-.05-.13-.04-.12-.05-.11-.05-.1-.05-.09-.05-.08-.05-.07-.05-.07-.05-.06-.05-.05-.05-.04-.05-.04-.05-.03-.05-.03-.06-.02h-.06s-.06-.02-.06-.02h-.06Z" fill="none" stroke="#000" stroke-width=".4"/><rect x="22.77" y="360.7" width=".48" height=".45" fill="#101010" stroke-width="0"/><path d="m20.32,306.11h.06s.06.01.06.01l.06.02.06.02.06.03.06.03.06.04.06.05.06.05.06.06.07.07.07.08.07.08.07.09.07.1.07.11.07.12.07.13.07.14.08.14.08.15.08.16.08.16.07.17.07.17.07.17.07.17.07.17.07.17.06.17.06.17.06.17.05.17.05.17.04.17.04.17.04.17.04.17.03.15v.04s.04.08.04.08l.03.08.05.15.05.14.05.14.04.14.04.14.04.14.04.14.04.13.04.14.03.14.03.14.03.14.03.15v.08s.03.08.03.08l.02.08v.08s.03.08.03.08v.08s.03.09.03.09v.09s.03.09.03.09l.02.09v.05s0,.01,0,.01h0v.05s.02.45.02.45l.06,1.8.24,7.21.48,14.43.48,14.43.24,7.21v.11s0,.06,0,.06h0s0,.02,0,.02v.02s-.01.05-.01.05l-.02.09-.04.19-.02.09-.05.19-.03.09-.03.09-.04.09-.04.09-.04.09-.05.09-.05.09-.06.09-.06.09-.07.09-.04.04-.04.04-.04.04-.04.04-.04.04-.04.04-.05.04-.05.04-.05.04-.05.04-.05.04-.11.08-.06.04-.06.04-.06.04-.06.04-.03.02h-.07s-.01-.02-.01-.02l-.02-.02h0s0-.03,0-.03h0s0-.03,0-.03v-.03s-.02-.13-.02-.13l-.03-.26-.03-.26-.03-.26-.03-.26-.06-.54-.03-.27-.06-.55-.03-.28-.06-.55-.06-.56-.06-.56-.06-.56-.12-1.13-.06-.56-.06-.56-.06-.55-.06-.55-.03-.27-.03-.27-.03-.27-.03-.27-.03-.26-.03-.26-.03-.26-.03-.26-.03-.26-.03-.25-.04-.25-.03-.24-.04-.24-.04-.24-.04-.23-.04-.23-.04-.23-.04-.22-.04-.22-.04-.21-.05-.14-.08-.15-.11-.16-.13-.16-.16-.15-.18-.14-.2-.11-.21-.08-.22-.04h-.23l-.24.05-.24.11-.4,1.06-.42,1.17-.42,1.17-.42,1.17-.42,1.17-.42,1.17-.42,1.17-.42,1.17-.42,1.17-.42,1.17-.42,1.17-.42,1.17-.11.28-.02.03-.02.03-.02.03-.03.03-.03.03-.03.02-.03.02-.03.02-.03.02-.03.02h-.03s-.07.03-.07.03h-.03s-.3.01-.3.01l-.05-.03-.05-.05-.05-.07-.05-.09-.05-.11-.04-.13-.04-.14-.04-.15-.03-.16-.03-.16-.02-.16.19-1.82.45-3.82.45-3.81.45-3.82.45-3.81.45-3.82.45-3.81.45-3.82.45-3.81.45-3.82.45-3.81.45-3.82.29-2.58v-.25s0-.25,0-.25v-.5s0-.25,0-.25v-.25s0-.25,0-.25v-.5s0-.25,0-.25v-.25s.01-.31.01-.31l.04-.49.04-.44.04-.4.04-.36.04-.32.04-.29.04-.26.04-.23.04-.21.04-.19.04-.17.04-.16.04-.14.05-.13.04-.12.05-.11.05-.1.05-.09.05-.08.05-.07.05-.07.05-.06.05-.05.05-.04.05-.04.05-.03.05-.03.06-.02h.06s.06-.02.06-.02h.06Z" fill="url(#linear-gradient-7)" stroke-width="0"/><path d="m23.39,361.6l-.69-6.28-.17-1.97-.61-4.62-.09-.64-.33-.53-.42-.38-.42-.19-.44-.05-.3.05-.27.2-5.09,14.12-.3.27-.34.06.02-.23,7.69-20.67.38-.42.41-.27.42.11.17.52,1.61,19.91-.39.5-.39.36-.44.16Z" fill="url(#linear-gradient-8)" fill-rule="evenodd" stroke-width="0"/><path d="m18.84,310.97l1.23-1.31" fill="none" stroke="#000" stroke-width=".4"/><path d="m20.07,309.66h2.43" fill="none" stroke="#000" stroke-width=".4"/><path d="m22.59,340.02l-.17-24.12" fill="none" stroke="#000" stroke-width=".4"/><path d="m22.41,315.9l-2.16-2.93" fill="none" stroke="#000" stroke-width=".4"/><path d="m22.41,315.9l1.03-2.67" fill="none" stroke="#000" stroke-width=".4"/><path d="m20.25,312.98l-.18-3.32" fill="none" stroke="#000" stroke-linecap="round" stroke-width=".4"/><path d="m23.28,360.7h-.61" fill="none" stroke="#000" stroke-width=".4"/><path d="m23.36,361.3h-.69" fill="none" stroke="#000" stroke-width=".4"/><path d="m24.6,360.6l-.36-4.51-.12-1.5-.59-7.51-.12-1.5-.36-4.51-.05-.48-.03-.12-.04-.1-.04-.09-.05-.07-.05-.06-.06-.04-.06-.03-.06-.02h-.06s-.07-.01-.07-.01h-.07s-.07.03-.07.03l-.06.03-.06.03-.06.04-.06.04-.06.05-.06.05-.06.05-.05.06-.05.06-.05.06-.05.06-.05.06-.04.06-.18.44-1.75,4.71-.58,1.57-1.75,4.71-1.17,3.14-.58,1.57-1.17,3.14-.58,1.57" fill="none" stroke="#000" stroke-width=".4"/><path d="m20.32,306.11h.06s.06.01.06.01l.06.02.06.02.06.03.06.03.06.04.06.05.06.05.06.06.07.07.07.08.07.08.07.09.07.1.07.11.07.12.07.13.07.14.08.14.08.15.08.16.08.16.07.17.07.17.07.17.07.17.07.17.07.17.06.17.06.17.06.17.05.17.05.17.04.17.04.17.04.17.04.17.03.15v.04s.04.08.04.08l.03.08.05.15.05.14.05.14.04.14.04.14.04.14.04.14.04.13.04.14.03.14.03.14.03.14.03.15v.08s.03.08.03.08l.02.08v.08s.03.08.03.08v.08s.03.09.03.09v.09s.03.09.03.09l.02.09v.05s0,.01,0,.01h0v.05s.02.45.02.45l.06,1.8.24,7.21.48,14.43.48,14.43.24,7.21v.11s0,.06,0,.06h0s0,.02,0,.02v.02s-.01.05-.01.05l-.02.09-.04.19-.02.09-.05.19-.03.09-.03.09-.04.09-.04.09-.04.09-.05.09-.05.09-.06.09-.06.09-.07.09-.04.04-.04.04-.04.04-.04.04-.04.04-.04.04-.05.04-.05.04-.05.04-.05.04-.05.04-.11.08-.06.04-.06.04-.06.04-.06.04-.03.02h-.07s-.01-.02-.01-.02l-.02-.02h0s0-.03,0-.03h0s0-.03,0-.03v-.03s-.02-.13-.02-.13l-.03-.26-.03-.26-.03-.26-.03-.26-.06-.54-.03-.27-.06-.55-.03-.28-.06-.55-.06-.56-.06-.56-.06-.56-.12-1.13-.06-.56-.06-.56-.06-.55-.06-.55-.03-.27-.03-.27-.03-.27-.03-.27-.03-.26-.03-.26-.03-.26-.03-.26-.03-.26-.03-.25-.04-.25-.03-.24-.04-.24-.04-.24-.04-.23-.04-.23-.04-.23-.04-.22-.04-.22-.04-.21-.05-.14-.08-.15-.11-.16-.13-.16-.16-.15-.18-.14-.2-.11-.21-.08-.22-.04h-.23l-.24.05-.24.11-.4,1.06-.42,1.17-.42,1.17-.42,1.17-.42,1.17-.42,1.17-.42,1.17-.42,1.17-.42,1.17-.42,1.17-.42,1.17-.42,1.17-.11.28-.02.03-.02.03-.02.03-.03.03-.03.03-.03.02-.03.02-.03.02-.03.02-.03.02h-.03s-.07.03-.07.03h-.03s-.3.01-.3.01l-.05-.03-.05-.05-.05-.07-.05-.09-.05-.11-.04-.13-.04-.14-.04-.15-.03-.16-.03-.16-.02-.16.19-1.82.45-3.82.45-3.81.45-3.82.45-3.81.45-3.82.45-3.81.45-3.82.45-3.81.45-3.82.45-3.81.45-3.82.29-2.58v-.25s0-.25,0-.25v-.5s0-.25,0-.25v-.25s0-.25,0-.25v-.5s0-.25,0-.25v-.25s.01-.31.01-.31l.04-.49.04-.44.04-.4.04-.36.04-.32.04-.29.04-.26.04-.23.04-.21.04-.19.04-.17.04-.16.04-.14.05-.13.04-.12.05-.11.05-.1.05-.09.05-.08.05-.07.05-.07.05-.06.05-.05.05-.04.05-.04.05-.03.05-.03.06-.02h.06s.06-.02.06-.02h.06Z" fill="none" stroke="#000" stroke-width=".4"/><path d="m20.67,146.39l.82.38.22.9-.58.74-1.07.06-.61-.68.15-.84.44-.51.63-.05Z" fill="#1a1a1a" fill-rule="evenodd" stroke-width="0"/><path d="m18.91,148.56l-.53-.07-1.3,1.59-.02.93-.16.77.2.84-.18.93.12.77-.14.69.2.69-.18.82.08.55-.06.82.65.2-.02-7.92,1.34-1.62Z" fill="#474747" fill-rule="evenodd" stroke-width="0"/><path d="m17.58,158.14l5.87-.03v-7.95l-1.72-2.6-.69.97-.91.06-.37-.35-.55-.27-.29.66-1.35,1.53v7.98Z" fill="#999" fill-rule="evenodd" stroke-width="0"/><path d="m17.62,150.18v7.87h5.79l-5.79-7.87,1.3-1.63.38-1" fill="none" stroke="#000" stroke-linecap="round" stroke-linejoin="round" stroke-width=".38"/><path d="m17.62,152l4.53,6.02" fill="none" stroke="#000" stroke-linecap="round" stroke-linejoin="round" stroke-width=".38"/><path d="m20.96,158.02l-3.34-4.4" fill="none" stroke="#000" stroke-linecap="round" stroke-linejoin="round" stroke-width=".38"/><path d="m19.86,158l-2.25-2.74" fill="none" stroke="#000" stroke-linecap="round" stroke-linejoin="round" stroke-width=".38"/><path d="m18.67,158.05l-1.05-1.33" fill="none" stroke="#000" stroke-linecap="round" stroke-linejoin="round" stroke-width=".38"/><path d="m23.4,158.03v-7.9l-1.14-1.73" fill="none" stroke="#000" stroke-linecap="round" stroke-linejoin="round" stroke-width=".38"/><path d="m17.63,158.05l5.75-7.88" fill="none" stroke="#000" stroke-linecap="round" stroke-linejoin="round" stroke-width=".38"/><path d="m23.41,152l-4.53,6.02" fill="none" stroke="#000" stroke-linecap="round" stroke-linejoin="round" stroke-width=".38"/><path d="m20.03,158.02l3.34-4.4" fill="none" stroke="#000" stroke-linecap="round" stroke-linejoin="round" stroke-width=".38"/><path d="m21.16,158l2.23-2.73" fill="none" stroke="#000" stroke-linecap="round" stroke-linejoin="round" stroke-width=".38"/><path d="m19.86,158l-2.25-2.74" fill="none" stroke="#000" stroke-linecap="round" stroke-linejoin="round" stroke-width=".38"/><path d="m22.34,158.05l1.05-1.33" fill="none" stroke="#000" stroke-linecap="round" stroke-linejoin="round" stroke-width=".38"/><path d="m17.63,156.54l5.21-7.26" fill="none" stroke="#000" stroke-linecap="round" stroke-linejoin="round" stroke-width=".38"/><path d="m17.6,155.04l4.12-5.87" fill="none" stroke="#000" stroke-linecap="round" stroke-linejoin="round" stroke-width=".38"/><path d="m23.4,156.51l-5.13-7.13" fill="none" stroke="#000" stroke-linecap="round" stroke-linejoin="round" stroke-width=".38"/><path d="m23.4,154.95l-3.98-5.67" fill="none" stroke="#000" stroke-linecap="round" stroke-linejoin="round" stroke-width=".38"/><path d="m17.59,153.38l2.94-4.19,1.24-1.52" fill="none" stroke="#000" stroke-linecap="round" stroke-linejoin="round" stroke-width=".38"/><path d="m23.43,153.38l-2.89-4.22-1.25-1.62" fill="none" stroke="#000" stroke-linecap="round" stroke-linejoin="round" stroke-width=".38"/><path d="m17.62,151.79l1.8-2.5" fill="none" stroke="#000" stroke-linecap="round" stroke-linejoin="round" stroke-width=".38"/><path d="m23.38,151.76l-1.66-2.58" fill="none" stroke="#000" stroke-linecap="round" stroke-linejoin="round" stroke-width=".38"/><path d="m22.3,148.46l-.24-.02-.33.74.09-.78-.03-.75.5.8Z" fill="#474747" fill-rule="evenodd" stroke="#000" stroke-linecap="round" stroke-linejoin="round" stroke-width=".38"/><path d="m18.91,148.55l.19.02.31.71-.11-.88v-.84s-.4.98-.4.98Z" fill="#474747" fill-rule="evenodd" stroke="#000" stroke-linecap="round" stroke-linejoin="round" stroke-width=".38"/><path d="m20.5,147.63v.71h-.13s-.24.25-.24.25l.42.56.52-.51-.23-.27-.13-.02v-.73s-.23,0-.23,0Z" fill="#474747" fill-rule="evenodd" stroke="#000" stroke-linecap="round" stroke-linejoin="round" stroke-width=".38"/><path d="m20.11,148.63l-.74.08" fill="none" stroke="#000" stroke-linecap="round" stroke-linejoin="round" stroke-width=".38"/><path d="m21.09,148.63l.7.07" fill="none" stroke="#000" stroke-linecap="round" stroke-linejoin="round" stroke-width=".38"/><path d="m18.95,148.52l-.57-.04s-.11.31-.23.44-.52.28-.52.28c0,0,0,.27-.09.43-.1.16-.53.41-.53.41,0,0,.13.54.11.82-.02.28-.25.82-.25.82,0,0,.24.56.24.85s-.23.8-.23.8c0,0,.19.62.19.91s-.16.79-.16.79c0,0,.21.54.2.81s-.24.72-.24.72c0,0,.2.48.19.71,0,.23-.19.61-.19.61l.72.21" fill="none" stroke="#000" stroke-linecap="round" stroke-linejoin="round" stroke-width=".38"/><path d="m17.03,150.04l.54.12" fill="none" stroke="#000" stroke-linecap="round" stroke-linejoin="round" stroke-width=".38"/><path d="m18.26,149.41l-.07,1.55" fill="none" stroke="#000" stroke-linecap="round" stroke-linejoin="round" stroke-width=".38"/><path d="m19.41,149.35l-.07,1.45" fill="none" stroke="#000" stroke-linecap="round" stroke-linejoin="round" stroke-width=".38"/><path d="m21.71,149.25v1.55" fill="none" stroke="#000" stroke-linecap="round" stroke-linejoin="round" stroke-width=".38"/><path d="m22.84,149.33v1.56" fill="none" stroke="#000" stroke-linecap="round" stroke-linejoin="round" stroke-width=".38"/><path d="m19.02,147.62l.48-.02.08-.56.33-.47.59-.17.42-.06-.48-.36h-.73l-.5.41-.19.67v.56Z" fill="#4d4d4d" fill-rule="evenodd" stroke-width="0"/><path d="m21.14,146.45s-.49-.37-.65-.42c-.2-.06-.41-.09-.61-.07-.18.02-.37.08-.51.2-.13.11-.2.28-.26.44-.07.18-.08.38-.1.58-.02.18-.02.55-.02.55l.47.42" fill="none" stroke="#000" stroke-linecap="round" stroke-linejoin="round" stroke-width=".38"/><path d="m19.5,147.54s.01-.35.08-.51c.09-.21.23-.42.43-.53.16-.09.36-.08.55-.09.18,0,.38-.02.55.04.16.06.32.17.43.31.07.1.09.23.12.35.04.18.08.55.08.55" fill="none" stroke="#000" stroke-linecap="round" stroke-linejoin="round" stroke-width=".38"/><path d="m5.99,146.39l-.82.38-.22.9.58.74,1.07.06.61-.68-.15-.84-.44-.51-.63-.05Z" fill="#1a1a1a" fill-rule="evenodd" stroke-width="0"/><path d="m7.75,148.56l.53-.07,1.3,1.59.02.93.16.77-.2.84.18.93-.12.77.14.69-.2.69.18.82-.08.55.06.82-.65.2.02-7.92-1.34-1.62Z" fill="#474747" fill-rule="evenodd" stroke-width="0"/><path d="m9.08,158.14l-5.87-.03v-7.95l1.72-2.6.69.97.91.06.37-.35.55-.27.29.66,1.35,1.53v7.98Z" fill="#999" fill-rule="evenodd" stroke-width="0"/><path d="m9.04,150.18v7.87H3.25l5.79-7.87-1.3-1.63-.38-1" fill="none" stroke="#000" stroke-linecap="round" stroke-linejoin="round" stroke-width=".38"/><path d="m9.04,152l-4.53,6.02" fill="none" stroke="#000" stroke-linecap="round" stroke-linejoin="round" stroke-width=".38"/><path d="m5.7,158.02l3.34-4.4" fill="none" stroke="#000" stroke-linecap="round" stroke-linejoin="round" stroke-width=".38"/><path d="m6.8,158l2.25-2.74" fill="none" stroke="#000" stroke-linecap="round" stroke-linejoin="round" stroke-width=".38"/><path d="m7.99,158.05l1.05-1.33" fill="none" stroke="#000" stroke-linecap="round" stroke-linejoin="round" stroke-width=".38"/><path d="m3.26,158.03v-7.9l1.14-1.73" fill="none" stroke="#000" stroke-linecap="round" stroke-linejoin="round" stroke-width=".38"/><path d="m9.03,158.05l-5.75-7.88" fill="none" stroke="#000" stroke-linecap="round" stroke-linejoin="round" stroke-width=".38"/><path d="m3.25,152l4.53,6.02" fill="none" stroke="#000" stroke-linecap="round" stroke-linejoin="round" stroke-width=".38"/><path d="m6.63,158.02l-3.34-4.4" fill="none" stroke="#000" stroke-linecap="round" stroke-linejoin="round" stroke-width=".38"/><path d="m5.5,158l-2.23-2.73" fill="none" stroke="#000" stroke-linecap="round" stroke-linejoin="round" stroke-width=".38"/><path d="m6.8,158l2.25-2.74" fill="none" stroke="#000" stroke-linecap="round" stroke-linejoin="round" stroke-width=".38"/><path d="m4.32,158.05l-1.05-1.33" fill="none" stroke="#000" stroke-linecap="round" stroke-linejoin="round" stroke-width=".38"/><path d="m9.03,156.54l-5.21-7.26" fill="none" stroke="#000" stroke-linecap="round" stroke-linejoin="round" stroke-width=".38"/><path d="m9.06,155.04l-4.12-5.87" fill="none" stroke="#000" stroke-linecap="round" stroke-linejoin="round" stroke-width=".38"/><path d="m3.26,156.51l5.13-7.13" fill="none" stroke="#000" stroke-linecap="round" stroke-linejoin="round" stroke-width=".38"/><path d="m3.26,154.95l3.98-5.67" fill="none" stroke="#000" stroke-linecap="round" stroke-linejoin="round" stroke-width=".38"/><path d="m9.07,153.38l-2.94-4.19-1.24-1.52" fill="none" stroke="#000" stroke-linecap="round" stroke-linejoin="round" stroke-width=".38"/><path d="m3.23,153.38l2.89-4.22,1.25-1.62" fill="none" stroke="#000" stroke-linecap="round" stroke-linejoin="round" stroke-width=".38"/><path d="m9.04,151.79l-1.8-2.5" fill="none" stroke="#000" stroke-linecap="round" stroke-linejoin="round" stroke-width=".38"/><path d="m3.28,151.76l1.66-2.58" fill="none" stroke="#000" stroke-linecap="round" stroke-linejoin="round" stroke-width=".38"/><path d="m4.36,148.46l.24-.02.33.74-.09-.78.03-.75-.5.8Z" fill="#474747" fill-rule="evenodd" stroke="#000" stroke-linecap="round" stroke-linejoin="round" stroke-width=".38"/><path d="m7.75,148.55l-.19.02-.31.71.11-.88v-.84s.4.98.4.98Z" fill="#474747" fill-rule="evenodd" stroke="#000" stroke-linecap="round" stroke-linejoin="round" stroke-width=".38"/><path d="m6.16,147.63v.71h.13s.24.25.24.25l-.42.56-.52-.51.23-.27.13-.02v-.73s.23,0,.23,0Z" fill="#474747" fill-rule="evenodd" stroke="#000" stroke-linecap="round" stroke-linejoin="round" stroke-width=".38"/><path d="m6.55,148.63l.74.08" fill="none" stroke="#000" stroke-linecap="round" stroke-linejoin="round" stroke-width=".38"/><path d="m5.57,148.63l-.7.07" fill="none" stroke="#000" stroke-linecap="round" stroke-linejoin="round" stroke-width=".38"/><path d="m7.71,148.52l.57-.04s.11.31.23.44.52.28.52.28c0,0,0,.27.09.43.1.16.53.41.53.41,0,0-.13.54-.11.82.02.28.25.82.25.82,0,0-.24.56-.24.85s.23.8.23.8c0,0-.19.62-.19.91s.16.79.16.79c0,0-.21.54-.2.81s.24.72.24.72c0,0-.2.48-.19.71,0,.23.19.61.19.61l-.72.21" fill="none" stroke="#000" stroke-linecap="round" stroke-linejoin="round" stroke-width=".38"/><path d="m9.63,150.04l-.54.12" fill="none" stroke="#000" stroke-linecap="round" stroke-linejoin="round" stroke-width=".38"/><path d="m8.4,149.41l.07,1.55" fill="none" stroke="#000" stroke-linecap="round" stroke-linejoin="round" stroke-width=".38"/><path d="m7.25,149.35l.07,1.45" fill="none" stroke="#000" stroke-linecap="round" stroke-linejoin="round" stroke-width=".38"/><path d="m4.95,149.25v1.55" fill="none" stroke="#000" stroke-linecap="round" stroke-linejoin="round" stroke-width=".38"/><path d="m3.82,149.33v1.56" fill="none" stroke="#000" stroke-linecap="round" stroke-linejoin="round" stroke-width=".38"/><path d="m7.64,147.62l-.48-.02-.08-.56-.33-.47-.59-.17-.42-.06.48-.36h.73l.5.41.19.67v.56Z" fill="#4d4d4d" fill-rule="evenodd" stroke-width="0"/><path d="m5.52,146.45s.49-.37.65-.42c.2-.06.41-.09.61-.07.18.02.37.08.51.2.13.11.2.28.26.44.07.18.08.38.1.58.02.18.02.55.02.55l-.47.42" fill="none" stroke="#000" stroke-linecap="round" stroke-linejoin="round" stroke-width=".38"/><path d="m7.16,147.54s-.01-.35-.08-.51c-.09-.21-.23-.42-.43-.53-.16-.09-.36-.08-.55-.09-.18,0-.38-.02-.55.04-.16.06-.32.17-.43.31-.07.1-.09.23-.12.35-.04.18-.08.55-.08.55" fill="none" stroke="#000" stroke-linecap="round" stroke-linejoin="round" stroke-width=".38"/><path d="m18.87,33.61c.49,1.02.36.99.91,2.33s1.97,4.33,2.44,5.68,1.25,3.93,1.04,7.7H3.36c-.2-3.77.57-6.35,1.04-7.7s1.89-4.34,2.44-5.68.42-1.31.91-2.33l.11.02s3.61-.97,5.45-.97,5.45.97,5.45.97l.11-.02Z" fill="url(#linear-gradient-9)" fill-rule="evenodd" stroke="#000" stroke-linecap="round" stroke-linejoin="round" stroke-width=".4"/><path d="m9.12,33.31c-.91,5.27-1.52,10.61-1.81,16.01l-.88-6.72-.43-.53-1.78.13s0-.18.14-.58c.47-1.34,1.89-4.34,2.44-5.68s.42-1.31.91-2.33l.11.02,1.3-.32Z" fill="url(#linear-gradient-10)" fill-rule="evenodd" stroke-width="0"/><path d="m6.01,42.07l-1.78.13s0-.18.14-.58c.47-1.34,1.89-4.34,2.44-5.68s.42-1.31.91-2.33l.11.02.79-.2c-.92,2.86-1.88,5.7-2.6,8.63h0Z" fill="url(#linear-gradient-11)" fill-rule="evenodd" stroke-width="0"/><path d="m17.46,33.31c.91,5.27,1.52,10.61,1.81,16.01l.88-6.72.43-.53,1.78.13s0-.18-.14-.58c-.47-1.34-1.89-4.34-2.44-5.68s-.42-1.31-.91-2.33l-.11.02-1.3-.32Z" fill="url(#linear-gradient-12)" fill-rule="evenodd" stroke-width="0"/><path d="m20.57,42.07l1.78.13s0-.18-.14-.58c-.47-1.34-1.89-4.34-2.44-5.68s-.42-1.31-.91-2.33l-.11.02-.79-.2c.92,2.86,1.88,5.7,2.6,8.63h0Z" fill="url(#linear-gradient-13)" fill-rule="evenodd" stroke-width="0"/><path d="m3.87,50.43s-.26-.22-.33-.38c-.12-.26-.09-.86-.09-.86h19.72s.03.6-.09.86c-.07.15-.33.38-.33.38H3.87Z" fill="url(#linear-gradient-14)" fill-rule="evenodd" stroke="#000" stroke-linecap="round" stroke-linejoin="round" stroke-width=".4"/><path d="m3.83,68.7s-2.84-.55-3.11-.6c-.27-.04-.4-.16-.44-.41,0-1.03-.06-6.16-.06-6.16l3.88-9.19.12,16.32-.38.03Z" fill="url(#linear-gradient-15)" fill-rule="evenodd" stroke="#000" stroke-linecap="round" stroke-linejoin="round" stroke-width=".4"/><path d="m22.79,68.7s2.84-.55,3.11-.6c.27-.04.4-.16.44-.41,0-1.03.06-6.16.06-6.16l-3.88-9.19-.12,16.32.38.03Z" fill="url(#linear-gradient-16)" fill-rule="evenodd" stroke="#000" stroke-linecap="round" stroke-linejoin="round" stroke-width=".4"/><rect x="3.97" y="50.32" width="18.67" height="18.4" fill="url(#linear-gradient-17)" stroke="#000" stroke-width=".4"/><path d="m7.74,33.61c.49-1.02,1.37-2.86,2.12-3.73s1.48-1.34,2.05-1.6,1.15-.24,1.39-.24.81-.02,1.39.24c.57.27,1.3.73,2.05,1.6s1.64,2.7,2.12,3.73l-.11.02s-3.61-.97-5.45-.97-5.45.97-5.45.97l-.11-.02Z" fill="url(#linear-gradient-18)" fill-rule="evenodd" stroke-width="0"/><ellipse cx="9.38" cy="39.03" rx="1.36" ry=".72" transform="translate(-30.46 43.91) rotate(-83.48)" fill="url(#radial-gradient)" stroke="#000" stroke-linecap="round" stroke-linejoin="round" stroke-width=".4"/><ellipse cx="17.24" cy="39.03" rx=".72" ry="1.36" transform="translate(-4.32 2.21) rotate(-6.52)" fill="url(#radial-gradient-2)" stroke="#000" stroke-linecap="round" stroke-linejoin="round" stroke-width=".4"/><path d="m7.3,49.15s-.69-6.38-.81-6.61c-.1-.19-.24-.4-.44-.48-.19-.08-1.72.09-1.72.09-.71,2.21-.95,4.55-.88,7.05l3.84-.05Z" fill="#787878" fill-rule="evenodd" stroke-width="0"/><path d="m6.83,49.1s-.31-3.08-.59-4.59c-.08-.43-.31-1.27-.31-1.27-.04-.1-.08-.21-.28-.31l-1.22.05c-.21.06-.25.17-.34.27-.55,1.97-.66,3.95-.59,5.92l3.34-.06Z" fill="url(#linear-gradient-19)" fill-rule="evenodd" stroke-width="0"/><path d="m6.19,44.38s-.15-.22-.27-.28c-.08-.04-.28-.07-.36-.02-1.07.66-1.49,2.37-2.08,3.61l.03,1.44,3.33-.03-.66-4.72Z" fill="url(#linear-gradient-20)" fill-rule="evenodd" stroke-width="0"/><path d="m6.19,44.38s-.15-.22-.27-.28c-.08-.04-.28-.07-.36-.02-1.07.66-1.53,2.51-2.12,3.75" stroke="#000" stroke-linecap="round" stroke-linejoin="round" stroke-width=".4"/><path d="m7.3,49.15s-.69-6.38-.81-6.61c-.1-.19-.24-.4-.44-.48-.19-.08-1.72.09-1.72.09-.71,2.21-.95,4.55-.88,7.05l3.84-.05Z" stroke="#000" stroke-linecap="round" stroke-linejoin="round" stroke-width=".4"/><path d="m6.83,49.1s-.31-3.08-.59-4.59c-.08-.43-.31-1.27-.31-1.27-.04-.1-.08-.21-.28-.31l-1.22.05c-.21.06-.32.22-.41.32" stroke="#000" stroke-linecap="round" stroke-linejoin="round" stroke-width=".4"/><path d="m19.32,49.15s.69-6.38.81-6.61c.1-.19.24-.4.44-.48.19-.08,1.72.09,1.72.09.71,2.21.95,4.55.88,7.05l-3.84-.05Z" fill="#787878" fill-rule="evenodd" stroke-width="0"/><path d="m19.79,49.1s.31-3.08.59-4.59c.08-.43.31-1.27.31-1.27.04-.1.08-.21.28-.31l1.22.05c.21.06.25.17.34.27.55,1.97.66,3.95.59,5.92l-3.34-.06Z" fill="url(#linear-gradient-21)" fill-rule="evenodd" stroke-width="0"/><path d="m20.43,44.38s.15-.22.27-.28c.08-.04.28-.07.36-.02,1.07.66,1.49,2.37,2.08,3.61l-.03,1.44-3.33-.03.66-4.72Z" fill="url(#linear-gradient-22)" fill-rule="evenodd" stroke-width="0"/><path d="m20.43,44.38s.15-.22.27-.28c.08-.04.28-.07.36-.02,1.07.66,1.53,2.51,2.12,3.75" stroke="#000" stroke-linecap="round" stroke-linejoin="round" stroke-width=".4"/><path d="m19.32,49.15s.69-6.38.81-6.61c.1-.19.24-.4.44-.48.19-.08,1.72.09,1.72.09.71,2.21.95,4.55.88,7.05l-3.84-.05Z" stroke="#000" stroke-linecap="round" stroke-linejoin="round" stroke-width=".4"/><path d="m19.79,49.1s.31-3.08.59-4.59c.08-.43.31-1.27.31-1.27.04-.1.08-.21.28-.31l1.22.05c.21.06.32.22.41.32" stroke="#000" stroke-linecap="round" stroke-linejoin="round" stroke-width=".4"/><path d="m7.85,33.63s3.61-.97,5.45-.97,5.45.97,5.45.97" fill="none" stroke="#000" stroke-linecap="round" stroke-linejoin="round" stroke-width=".4"/><path d="m11.46,34.62h-.87l-.03.02v.77h.24v-.29l.02-.02h.64c.16,0,.24-.04.24-.15v-.18c0-.11-.08-.15-.24-.15m0,.28c0,.05-.03.06-.11.06h-.52l-.03-.02v-.16l.02-.02h.53c.08,0,.11.01.11.06v.08Z" fill="#005288" stroke-width="0"/><polyline points="12.13 34.76 12.34 35.07 12.33 35.1 11.87 35.1 11.75 35.24 12.43 35.24 12.48 35.27 12.58 35.41 12.86 35.41 12.26 34.61" fill="#005288" stroke-width="0"/><polyline points="14.86 35.26 14.86 35.04 14.88 35.02 15.34 35.02 15.34 34.88 14.61 34.88 14.61 35.41 15.69 35.41 15.69 35.28 14.88 35.28" fill="#005288" stroke-width="0"/><rect x="14.62" y="34.62" width="1.08" height=".15" fill="#005288" stroke-width="0"/><path d="m13.41,34.76h.87c-.01-.11-.08-.14-.26-.14h-.63c-.2,0-.26.04-.26.19v.42c0,.15.06.19.26.19h.63c.18,0,.25-.03.25-.15h-.87l-.03-.02v-.46" fill="#005288" stroke-width="0"/><path d="m9.98,34.93h-.64l-.02-.02v-.14h.02s.86-.01.86-.01v-.03c-.02-.08-.09-.11-.23-.11h-.59c-.2,0-.26.04-.26.19v.09c0,.15.06.19.26.19h.63l.02.02v.14l-.02.02h-.72s-.19,0-.19,0c0,0-.02.01-.02.02.02.1.09.13.26.13h.65c.2,0,.26-.04.26-.19v-.11c0-.15-.06-.19-.26-.19" fill="#005288" stroke-width="0"/><path d="m16.38,34.61h-.36l-.02.04.4.29c.07-.04.16-.09.25-.13" fill="#005288" stroke-width="0"/><path d="m16.7,35.16l.35.25h.36v-.03s-.5-.38-.5-.38c-.07.05-.14.1-.2.16" fill="#005288" stroke-width="0"/><path d="m16.33,35.41h-.32l-.03-.04c.22-.21,1.2-1.12,3.33-1.22,0,0-1.79.06-2.98,1.26" fill="#a7a9ac" stroke-width="0"/><path d="m15.25,41.59c.2-.08.37-.21.41-.45l-.31-4.31c-.07-.33-.27-.43-.5-.47h-3.07c-.23.04-.43.14-.5.47l-.31,4.31c.04.25.2.37.41.45h3.88Z" fill="none" stroke="#000" stroke-linecap="round" stroke-linejoin="round" stroke-width=".4"/><path color-rendering="auto" d="m14.13,38.52l-.09.08v.73l.09.09h.93l.09-.09v-.73l-.09-.08h-.93Zm.09.17h.76v.56h-.76v-.56Z" image-rendering="auto" shape-rendering="auto" fill-rule="evenodd" stroke-width="0"/><path d="m11.28,47.22c.66-.08,1.49-.11,1.52.49.44-.22,1.08-.6,1.8-.02.11,0,.23-.03.33.01-.09-.09-.14-.23-.18-.39-.39-.05-.72-.16-1.08-.24-.36-.03-.73-.07-1.09-.15-.41-.25-.69-.62-1.09-.89-.33-.12-.62-.34-.92-.53.56.5,1.72,1.33.72,1.72h0Z" fill="#00006d" fill-rule="evenodd" stroke-width="0"/><path d="m10.84,45.4c.73.35,1.45.68,2.18.92.12.1.25.2.5.21.33.37.88.57,1.1.52.15.06.2.03.25.11.08.11.13.37.15.51-.07-.05-.15-.14-.16-.23-.04-.31-.11-.29-.18-.29-.1-.01-.2,0,.08.09l-.87-.18-.91-.32-.14.1.32.1-.45-.06c-.41-.19-.66-.55-1.08-.81.3.11.6.22.9.25l-1.68-.93Z" fill="#00006d" fill-rule="evenodd" stroke-width="0"/><path d="m12.78,48.46h.15s0-.4,0-.4c-.19-.13-.34-.13-.52,0v.4s.15,0,.15,0v-.24s.08,0,.08,0c.02-.01.04-.05.05-.06h-.13s0-.11,0-.11c.1-.06.22,0,.22,0,0,0,0,.31,0,.41h0Z" fill-rule="evenodd" stroke-width="0"/><path d="m14.65,47.95c-.15,0-.32.09-.32.26,0,.34.64.36.64,0,0-.18-.17-.27-.32-.26h0Zm0,.04c.09,0,.17.07.17.22,0,.29-.35.3-.35,0,0-.15.09-.22.18-.22Z" fill-rule="evenodd" stroke-width="0"/><path d="m15.6,48.47h-.15v-.46s.13-.05.15-.05h0c.2,0,.31.03.37.09v.42s-.15,0-.15,0v-.4s-.07-.05-.23-.04c0,0,0,.31,0,.45h0Z" fill-rule="evenodd" stroke-width="0"/><path d="m10.32,47.94v.52h.22c.48,0,.46-.52,0-.52h-.22Zm.14.05h.1c.25.02.2.43,0,.43h-.1v-.43Z" fill-rule="evenodd" stroke-width="0"/><path d="m11.54,48.48h-.15s0-.52,0-.52c0,0,.19-.01.35,0,0,0,.08,0,.14.03,0,.09,0,.18,0,.18,0,.03-.12.02-.13.04,0,.02.13,0,.13.04v.23s-.11,0-.15-.02c0-.07,0-.22,0-.22h-.08s-.05-.04-.06-.06h.13s0-.18,0-.18c-.09-.01-.12-.02-.21,0v.48Z" fill-rule="evenodd" stroke-width="0"/><path d="m13.62,48.18h.26s0,.26,0,.26c-.2.02-.3.03-.49,0v-.47c.17-.04.31-.02.49,0v.1h-.14v-.07c-.08-.03-.13-.02-.22,0v.42c.09.02.13.02.22,0v-.2h-.11s-.02-.01-.03-.03h0Z" fill-rule="evenodd" stroke-width="0"/><polygon points="5.31 40.02 6.55 39.92 6.21 41.19 4.97 41.3 5.31 40.02" fill="#b22234" stroke-width="0"/><path d="m5.27,40.17l1.24-.11m-.05.2l-1.24.11m-.05.2l1.24-.11m-.05.2l-1.24.11m-.05.2l1.24-.11m-.05.2l-1.24.11" stroke="#fff" stroke-miterlimit="10" stroke-width=".05"/><polygon points="5.31 40.02 5.81 39.98 5.62 40.67 5.13 40.71 5.31 40.02" fill="#3c3b6e" stroke-width="0"/><path d="m5.35,40.05v.07s-.03-.04-.03-.04h.04s-.04.04-.04.04l.03-.07Z" fill="#fff" stroke-width="0"/><path id="s-50" d="m5.31,40.19v.07s-.03-.04-.03-.04h.04s-.04.04-.04.04l.03-.07Z" fill="#fff" stroke-width="0"/><path id="s-51" d="m5.27,40.32v.07s-.03-.04-.03-.04h.04s-.04.04-.04.04l.03-.07Z" fill="#fff" stroke-width="0"/><path id="s-52" d="m5.24,40.46v.07s-.03-.04-.03-.04h.04s-.04.04-.04.04l.03-.07Z" fill="#fff" stroke-width="0"/><path id="s-53" d="m5.2,40.6v.07s-.03-.04-.03-.04h.04s-.04.04-.04.04l.03-.07Z" fill="#fff" stroke-width="0"/><g id="d-11"><path id="s-54" d="m5.37,40.11v.07s-.03-.04-.03-.04h.04s-.04.04-.04.04l.03-.07Z" fill="#fff" stroke-width="0"/><path id="s-55" d="m5.33,40.25v.07s-.03-.04-.03-.04h.04s-.04.04-.04.04l.03-.07Z" fill="#fff" stroke-width="0"/><path id="s-56" d="m5.29,40.39v.07s-.03-.04-.03-.04h.04s-.04.04-.04.04l.03-.07Z" fill="#fff" stroke-width="0"/><path id="s-57" d="m5.26,40.53v.07s-.03-.04-.03-.04h.04s-.04.04-.04.04l.03-.07Z" fill="#fff" stroke-width="0"/></g><g id="a-5"><g id="c-6"><g id="d-12"><path id="s-58" d="m5.43,40.04v.07s-.03-.04-.03-.04h.04s-.04.04-.04.04l.03-.07Z" fill="#fff" stroke-width="0"/><path id="s-59" d="m5.39,40.18v.07s-.03-.04-.03-.04h.04s-.04.04-.04.04l.03-.07Z" fill="#fff" stroke-width="0"/><path id="s-60" d="m5.35,40.32v.07s-.03-.04-.03-.04h.04s-.04.04-.04.04l.03-.07Z" fill="#fff" stroke-width="0"/><path id="s-61" d="m5.32,40.45v.07s-.03-.04-.03-.04h.04s-.04.04-.04.04l.03-.07Z" fill="#fff" stroke-width="0"/></g><path id="s-62" d="m5.28,40.59v.07s-.03-.04-.03-.04h.04s-.04.04-.04.04l.03-.07Z" fill="#fff" stroke-width="0"/></g><g id="d-13"><path id="s-63" d="m5.45,40.11v.07s-.03-.04-.03-.04h.04s-.04.04-.04.04l.03-.07Z" fill="#fff" stroke-width="0"/><path id="s-64" d="m5.41,40.25v.07s-.03-.04-.03-.04h.04s-.04.04-.04.04l.03-.07Z" fill="#fff" stroke-width="0"/><path id="s-65" d="m5.38,40.38v.07s-.03-.04-.03-.04h.04s-.04.04-.04.04l.03-.07Z" fill="#fff" stroke-width="0"/><path id="s-66" d="m5.34,40.52v.07s-.03-.04-.03-.04h.04s-.04.04-.04.04l.03-.07Z" fill="#fff" stroke-width="0"/></g></g><g id="e-2"><g id="a-6"><g id="c-7"><g id="d-14"><path id="s-67" d="m5.51,40.04v.07s-.03-.04-.03-.04h.04s-.04.04-.04.04l.03-.07Z" fill="#fff" stroke-width="0"/><path id="s-68" d="m5.47,40.17v.07s-.03-.04-.03-.04h.04s-.04.04-.04.04l.03-.07Z" fill="#fff" stroke-width="0"/><path id="s-69" d="m5.44,40.31v.07s-.03-.04-.03-.04h.04s-.04.04-.04.04l.03-.07Z" fill="#fff" stroke-width="0"/><path id="s-70" d="m5.4,40.45v.07s-.03-.04-.03-.04h.04s-.04.04-.04.04l.03-.07Z" fill="#fff" stroke-width="0"/></g><path id="s-71" d="m5.36,40.58v.07s-.03-.04-.03-.04h.04s-.04.04-.04.04l.03-.07Z" fill="#fff" stroke-width="0"/></g><g id="d-15"><path id="s-72" d="m5.53,40.1v.07s-.03-.04-.03-.04h.04s-.04.04-.04.04l.03-.07Z" fill="#fff" stroke-width="0"/><path id="s-73" d="m5.5,40.24v.07s-.03-.04-.03-.04h.04s-.04.04-.04.04l.03-.07Z" fill="#fff" stroke-width="0"/><path id="s-74" d="m5.46,40.38v.07s-.03-.04-.03-.04h.04s-.04.04-.04.04l.03-.07Z" fill="#fff" stroke-width="0"/><path id="s-75" d="m5.42,40.51v.07s-.03-.04-.03-.04h.04s-.04.04-.04.04l.03-.07Z" fill="#fff" stroke-width="0"/></g></g><g id="a-7"><g id="c-8"><g id="d-16"><path id="s-76" d="m5.59,40.03v.07s-.03-.04-.03-.04h.04s-.04.04-.04.04l.03-.07Z" fill="#fff" stroke-width="0"/><path id="s-77" d="m5.56,40.17v.07s-.03-.04-.03-.04h.04s-.04.04-.04.04l.03-.07Z" fill="#fff" stroke-width="0"/><path id="s-78" d="m5.52,40.3v.07s-.03-.04-.03-.04h.04s-.04.04-.04.04l.03-.07Z" fill="#fff" stroke-width="0"/><path id="s-79" d="m5.48,40.44v.07s-.03-.04-.03-.04h.04s-.04.04-.04.04l.03-.07Z" fill="#fff" stroke-width="0"/></g><path id="s-80" d="m5.45,40.58v.07s-.03-.04-.03-.04h.04s-.04.04-.04.04l.03-.07Z" fill="#fff" stroke-width="0"/></g><g id="d-17"><path id="s-81" d="m5.62,40.09v.07s-.03-.04-.03-.04h.04s-.04.04-.04.04l.03-.07Z" fill="#fff" stroke-width="0"/><path id="s-82" d="m5.58,40.23v.07s-.03-.04-.03-.04h.04s-.04.04-.04.04l.03-.07Z" fill="#fff" stroke-width="0"/><path id="s-83" d="m5.54,40.37v.07s-.03-.04-.03-.04h.04s-.04.04-.04.04l.03-.07Z" fill="#fff" stroke-width="0"/><path id="s-84" d="m5.51,40.51v.07s-.03-.04-.03-.04h.04s-.04.04-.04.04l.03-.07Z" fill="#fff" stroke-width="0"/></g></g></g><g id="a-8"><g id="c-9"><g id="d-18"><path id="s-85" d="m5.68,40.02v.07s-.03-.04-.03-.04h.04s-.04.04-.04.04l.03-.07Z" fill="#fff" stroke-width="0"/><path id="s-86" d="m5.64,40.16v.07s-.03-.04-.03-.04h.04s-.04.04-.04.04l.03-.07Z" fill="#fff" stroke-width="0"/><path id="s-87" d="m5.6,40.3v.07s-.03-.04-.03-.04h.04s-.04.04-.04.04l.03-.07Z" fill="#fff" stroke-width="0"/><path id="s-88" d="m5.56,40.43v.07s-.03-.04-.03-.04h.04s-.04.04-.04.04l.03-.07Z" fill="#fff" stroke-width="0"/></g><path id="s-89" d="m5.53,40.57v.07s-.03-.04-.03-.04h.04s-.04.04-.04.04l.03-.07Z" fill="#fff" stroke-width="0"/></g><g id="d-19"><path id="s-90" d="m5.7,40.09v.07s-.03-.04-.03-.04h.04s-.04.04-.04.04l.03-.07Z" fill="#fff" stroke-width="0"/><path id="s-91" d="m5.66,40.22v.07s-.03-.04-.03-.04h.04s-.04.04-.04.04l.03-.07Z" fill="#fff" stroke-width="0"/><path id="s-92" d="m5.62,40.36v.07s-.03-.04-.03-.04h.04s-.04.04-.04.04l.03-.07Z" fill="#fff" stroke-width="0"/><path id="s-93" d="m5.59,40.5v.07s-.03-.04-.03-.04h.04s-.04.04-.04.04l.03-.07Z" fill="#fff" stroke-width="0"/></g></g><g id="c-10"><g id="d-20"><path id="s-94" d="m5.76,40.01v.07s-.03-.04-.03-.04h.04s-.04.04-.04.04l.03-.07Z" fill="#fff" stroke-width="0"/><path id="s-95" d="m5.72,40.15v.07s-.03-.04-.03-.04h.04s-.04.04-.04.04l.03-.07Z" fill="#fff" stroke-width="0"/><path id="s-96" d="m5.68,40.29v.07s-.03-.04-.03-.04h.04s-.04.04-.04.04l.03-.07Z" fill="#fff" stroke-width="0"/><path id="s-97" d="m5.65,40.43v.07s-.03-.04-.03-.04h.04s-.04.04-.04.04l.03-.07Z" fill="#fff" stroke-width="0"/></g><path id="s-98" d="m5.61,40.56v.07s-.03-.04-.03-.04h.04s-.04.04-.04.04l.03-.07Z" fill="#fff" stroke-width="0"/></g><ellipse cx="20.81" cy="40.43" rx=".59" ry=".91" transform="translate(-19.16 18.73) rotate(-34.27)" fill="#0b3d91" stroke-width="0"/><path d="m20.91,40.25c-.07.03-.14.06-.19.08-.12.04-.44.14-.61.29h.02c.11-.07.19-.09.26-.11.08-.03.35-.08.47-.12.04-.01.09-.03.13-.05-.02-.02-.04-.05-.06-.07,0,0-.01-.02-.02-.02Zm.14.17s-.03.02-.04.03c-.05.04-.3.27-.35.33s-.19.26-.23.32v.03c.14-.19.18-.23.24-.3.07-.08.22-.22.27-.26.05-.04.09-.08.13-.12,0,0,0,0,0,0,0,0-.01-.02-.02-.02Zm.19-.35c-.07.06-.2.12-.32.18,0,0,0,.01.01.02.02.03.04.05.06.08.1-.04.2-.1.27-.17-.03.05-.15.17-.22.24,0,0,.01.02.02.03.11-.1.18-.18.22-.23.05-.07.18-.23.18-.45-.07.17-.18.26-.24.31Z" fill="#fc3d21" stroke-width="0"/><path d="m20.77,40.63s-.05-.06-.07-.08c-.03-.03-.06-.07-.08-.1,0,0-.01,0-.02,0,.03.04.07.08.1.12.03.03.05.05.06.07,0,0,0,0,.01.02,0,0,0,0,.01-.01,0,0-.01-.02-.02-.02Zm.14.13s-.05-.04-.09-.08c0,0-.01.01-.02.02.03.04.07.08.09.09.04.02.04-.01.02-.03Zm.02-.49c-.25-.28-.5-.45-.57-.37-.05.06.03.27.19.49,0,0,0,0,.01,0-.16-.22-.23-.41-.18-.47.06-.07.31.09.55.37.05.06.1.11.14.17.15.21.23.4.19.47-.02.02-.08.02-.18-.03,0,0,0,0,0,0,.08.04.16.06.18.03.06-.08-.08-.37-.33-.66Z" fill="#fff" stroke-width="0"/><path d="m20.19,40.23h.11s.15.21.15.21l-.04-.15s-.03-.04-.04-.04h.08s-.01.03,0,.05l.06.22s.03.03.03.04h-.11s-.15-.21-.15-.21l.04.15s.02.03.04.04h-.08s.02-.03.01-.05-.06-.21-.06-.22c0-.02-.02-.04-.04-.05Z" fill="#fff" stroke-width="0"/><path d="m21.3,40.62h.15s-.02,0-.03-.02-.16-.28-.16-.28h-.06s-.03.02-.04.04c0,0,0,0,0,0,0,.02.01.21.01.22,0,.01-.02.03-.02.03h.08s-.02-.02-.02-.03,0-.04,0-.04h.08s.01.03.02.04c0,.01,0,.03,0,.03Zm-.09-.11v-.11s.07.11.07.11h-.07Zm-.06-.19s0,0,0-.01h-.02s0,0,.01.01Z" fill="#fff" stroke-width="0"/><path d="m20.64,40.53s0-.04,0-.04h.08s.01.03.02.04c0,.01,0,.03,0,.03h.13s0,0,0,0c0,0-.01-.01-.02-.02,0-.02-.16-.28-.16-.28h-.13s.03.02.03.04c0,.02.01.21.01.22,0,.01-.02.03-.02.03h.08s-.02-.02-.02-.03Zm0-.18l.07.11h-.07s0-.11,0-.11Z" fill="#fff" stroke-width="0"/><path d="m21.07,40.45s-.04.04-.06.06c.01,0,.03.02.03.03,0,.02-.03.03-.06.02,0,0-.01,0-.02,0,0,0-.01,0-.02.01,0,0-.01.01-.02.02v.03s.02-.03.03-.03c0,0,.03.02.09.02.03,0,.09-.04.07-.09,0-.03-.03-.05-.05-.07Zm-.17.06v.03s.02,0,.02-.01c-.01,0-.02-.02-.02-.02Zm.14-.08s-.02,0-.02-.01c-.04-.02-.07-.03-.09-.05,0-.02,0-.03.03-.03s.07.03.08.04l-.02-.08s0,.02-.02.01c-.02,0-.06-.02-.09-.02-.04,0-.07.03-.06.09.02.07.07.1.1.11,0,0,0,0,.01,0,.02-.02.04-.03.05-.04,0,0,.01-.01.02-.02Z" fill="#fff" stroke-width="0"/><path d="m3.35,49.32c-.2-3.77.57-6.35,1.04-7.7s1.89-4.34,2.44-5.68.42-1.31.91-2.33,1.37-2.86,2.12-3.73,1.48-1.34,2.05-1.6,1.15-.24,1.39-.24.81-.02,1.39.24c.57.27,1.3.73,2.05,1.6s1.64,2.7,2.12,3.73.36.99.91,2.33,1.97,4.33,2.44,5.68,1.25,3.93,1.04,7.7H3.35Z" fill="none" stroke="#000" stroke-linecap="round" stroke-linejoin="round" stroke-width=".4"/><path d="m13.39,52.88l-2.96,11.89.04,5.48.29.18,2.56-1.92.07-15.62Z" fill="url(#linear-gradient-23)" fill-rule="evenodd" stroke-width="0"/><rect x="3.97" y="50.32" width="18.67" height="18.4" fill="none" stroke="#000" stroke-width=".4"/><path d="m13.44,52.75l.09,15.92" stroke="#000" stroke-linecap="round" stroke-linejoin="round" stroke-width=".4"/><path d="m15.96,51c0,.3,0,.61.07.91.03.13.02.31.13.38.53.1,1.01.1,1.48.04.13-.01.23-.14.31-.24.09-.11.14-.24.18-.38.04-.14.06-.29.07-.44.02-.26-.01-.53,0-.8.02-.45.13-.9.13-1.35,0-.32-.03-.63-.07-.95-.06-.54-.04-1.11-.24-1.61-.12-.31-.3-.63-.57-.82-.14-.1-.33-.14-.51-.13-.18,0-.37.04-.51.15-.11.08-.16.22-.2.35-.06.21-.05.44-.04.66,0,.52.11,1.04.13,1.57.01.24.01.47,0,.71-.01.19-.02.39-.07.57-.04.19-.23.55-.23.55,0,0-.06.55-.06.82h0Z" fill="url(#linear-gradient-24)" fill-rule="evenodd" stroke="#000" stroke-linecap="round" stroke-linejoin="round" stroke-width=".4"/><path d="m15.91,50.6l.64.58.95.06.73-.22.11-1.5-2.02-.11-.42,1.19Z" fill="url(#linear-gradient-25)" fill-rule="evenodd" stroke-width="0"/><path d="m16.04,50.74s.29.34.49.48c.31.05.84.04,1.22.03.25-.01.41-.22.41-.21" fill="none" stroke="#000" stroke-linecap="round" stroke-linejoin="round" stroke-width=".4"/><path d="m15.96,51c0,.3,0,.61.07.91.03.13.02.31.13.38.53.1,1.01.1,1.48.04.13-.01.23-.14.31-.24.09-.11.14-.24.18-.38.04-.14.06-.29.07-.44.02-.26-.01-.53,0-.8.02-.45.13-.9.13-1.35,0-.32-.03-.63-.07-.95-.06-.54-.04-1.11-.24-1.61-.12-.31-.3-.63-.57-.82-.14-.1-.33-.14-.51-.13-.18,0-.37.04-.51.15-.11.08-.16.22-.2.35-.06.21-.05.44-.04.66,0,.52.11,1.04.13,1.57.01.24.01.47,0,.71-.01.19-.02.39-.07.57-.04.19-.23.55-.23.55,0,0-.06.55-.06.82h0Z" fill="none" stroke="#000" stroke-linecap="round" stroke-linejoin="round" stroke-width=".4"/></svg>