<?xml version="1.0" encoding="UTF-8"?><svg id="Layer_1" xmlns="http://www.w3.org/2000/svg" xmlns:xlink="http://www.w3.org/1999/xlink" viewBox="0 0 26.37 371.75"><defs><linearGradient id="linear-gradient" x1="837.3" y1="238.65" x2="846.04" y2="238.65" gradientTransform="translate(-422.5 479.3) scale(.51 -1.08)" gradientUnits="userSpaceOnUse"><stop offset="0" stop-color="#000"/><stop offset="1" stop-color="#000" stop-opacity="0"/></linearGradient><linearGradient id="linear-gradient-2" x1="-1973.06" y1="238.44" x2="-1964.32" y2="238.44" gradientTransform="translate(-978.52 478.89) rotate(-180) scale(.51 1.08)" gradientUnits="userSpaceOnUse"><stop offset="0" stop-color="#000"/><stop offset="1" stop-color="#000" stop-opacity="0"/></linearGradient><linearGradient id="linear-gradient-3" x1="-24.22" y1="278.29" x2="-10.1" y2="278.29" gradientTransform="translate(21.1 318.74) scale(1 -1)" gradientUnits="userSpaceOnUse"><stop offset="0" stop-color="#e6e6e6"/><stop offset="1" stop-color="#f9f9f9"/></linearGradient><linearGradient id="linear-gradient-4" x1="-24.22" y1="243.55" x2="-10.1" y2="243.55" gradientTransform="translate(21.1 318.74) scale(1 -1)" gradientUnits="userSpaceOnUse"><stop offset="0" stop-color="#e6e6e6"/><stop offset="1" stop-color="#f9f9f9"/></linearGradient><linearGradient id="linear-gradient-5" x1="-1456.67" y1="278.29" x2="-1439.19" y2="278.29" gradientTransform="translate(-1426.26 318.74) rotate(-180)" gradientUnits="userSpaceOnUse"><stop offset="0" stop-color="#e6e6e6"/><stop offset="1" stop-color="#f9f9f9"/></linearGradient><linearGradient id="linear-gradient-6" x1="-1456.67" y1="243.55" x2="-1439.19" y2="243.55" gradientTransform="translate(-1426.26 318.74) rotate(-180)" gradientUnits="userSpaceOnUse"><stop offset="0" stop-color="#e6e6e6"/><stop offset="1" stop-color="#f9f9f9"/></linearGradient></defs><rect x="3.85" y="78.38" width="18.67" height="284.86" fill="#fff" stroke-width="0"/><rect x="4.05" y="78.66" width="9.26" height="284.43" fill="url(#linear-gradient)" isolation="isolate" opacity=".03" stroke-width="0"/><rect x="13.17" y="78.6" width="9.12" height="284.33" fill="url(#linear-gradient-2)" isolation="isolate" opacity=".03" stroke-width="0"/><path d="m3.87,360.3h18.65" fill="none" stroke="#000" stroke-width=".4"/><rect x="22.55" y="360.7" width=".48" height=".48" fill="#f7f7f7" stroke-width="0"/><rect x="3.3" y="360.7" width=".48" height=".45" fill="#f7f7f7" stroke-width="0"/><path d="m4.72,365.2c-.03-.05-.08-.19-.08-.23v-.03h3.39v.06c.04.12.04.14.01.19l-.03.04h-3.27l-.02-.04h0Z" fill="#f7f7f7" stroke-width="0"/><path d="m8.51,365.2c-.03-.06-.08-.2-.08-.22,0-.01.73-.01,1.75-.01h1.75v.03c-.02.07-.05.15-.08.2l-.03.06h-3.27l-.03-.06h0Z" fill="#f7f7f7" stroke-width="0"/><path d="m12.22,365.3s.01-.04.03-.08c.02-.06.05-.16.07-.26v-.04h.88c.83,0,.88,0,.88.02,0,.01,0,.04.01.07,0,.03.02.1.05.16.02.06.04.12.04.12h-.98c-.54,0-.98,0-.98-.01h0Z" fill="#f7f7f7" stroke-width="0"/><path d="m14.55,365.2c-.03-.06-.08-.2-.08-.22,0-.01.73-.01,1.75-.01,1.3,0,1.75,0,1.75.01,0,.03-.05.16-.08.22l-.03.06h-3.27l-.03-.06h0Z" fill="#f7f7f7" stroke-width="0"/><path d="m18.36,365.2c-.03-.05-.04-.08-.02-.17.01-.05.02-.09.02-.09,0,0,.77-.01,1.7-.01h1.7v.03c-.02.06-.06.16-.08.21l-.03.05h-3.27l-.02-.04h0Z" fill="#f7f7f7" stroke-width="0"/><path d="m4.45,364.5c-.12-.14-.26-.48-.36-.95l-.03-.12h9.13c7.27,0,9.13.01,9.13.05,0,.13-.13.54-.26.81l-.13.29h-8.7c-8.23,0-8.71,0-8.77-.08h0Z" fill="#f7f7f7" stroke-width="0"/><path d="m4.76,348.09l.05-.14.08-.16.11-.16.14-.16.16-.15.18-.14.2-.11.21-.08.23-.04h.23s.24.05.24.05l.24.11.4,1.06,1.27,3.5.42,1.17.42,1.17,1.27,3.5.42,1.17.85,2.33.11.28.02.03.02.03.02.03.02.03.03.03.03.02.03.02.03.02.03.02.03.02h.03s.03.02.03.02l.07.02h.13s.18,0,.18,0l.05-.02.05-.05.05-.07.05-.09.05-.11.04-.13.04-.14.04-.15.03-.16.03-.16.02-.16-.19-1.82-.45-3.82-.45-3.82-.9-7.63-2.69-22.89-.45-3.82-.29-2.58v-.5s0-.25,0-.25l-.02-2.01v-.31s-.05-.49-.05-.49l-.04-.44-.04-.4-.04-.36-.04-.32-.04-.29-.04-.26-.04-.23-.04-.21-.04-.19-.04-.17-.04-.16-.05-.14-.05-.13-.05-.12-.05-.11-.05-.1-.05-.09-.05-.08-.05-.07-.05-.07-.05-.06-.05-.05-.05-.04-.05-.04-.05-.03-.06-.03-.06-.02h-.06s-.06-.02-.06-.02h-.06s-.06,0-.06,0h-.06s-.06.03-.06.03l-.06.02-.06.03-.06.03-.06.04-.06.05-.06.05-.07.06-.07.07-.07.08-.07.08-.07.09-.07.1-.07.11-.07.12-.07.13-.08.14-.08.14-.08.15-.08.16-.08.16-.08.17-.07.17-.07.17-.07.17-.07.17-.07.17-.06.17-.06.17-.06.17-.05.17-.05.17-.05.17-.04.17-.04.17-.03.17-.03.17" fill="#f2f2f2" stroke="#000" stroke-width=".4"/><path d="m4.76,348.09l-.04.22-.04.22-.04.22-.04.23-.04.23-.04.24-.04.24-.03.24-.03.25-.03.25-.03.25-.03.25-.03.26-.03.26-.03.26-.03.26-.03.27-.03.27-.03.27-.03.27-.03.27-.03.28-.06.55-.06.56-.06.56-.12,1.13-.06.56-.06.56-.06.56-.06.55-.03.28-.03.27-.03.27-.03.27-.03.27-.03.27-.03.26-.03.26-.03.26-.03.26v.13s-.02.05-.02.05h0s0,.01,0,.01v.02s-.01.01-.01.01h0s-.02.04-.02.04h-.07l-.03-.02-.07-.04-.06-.04-.06-.04-.06-.04-.06-.04-.06-.04-.05-.04-.05-.04-.05-.04-.05-.04-.05-.04-.05-.04-.04-.04-.04-.04-.04-.04-.04-.04-.04-.04-.07-.09-.06-.09-.06-.09-.05-.09-.05-.09-.05-.09-.04-.09-.04-.09-.03-.09-.03-.09-.03-.09-.03-.09-.02-.09-.02-.09-.02-.09-.02-.09v-.05s-.01-.02-.01-.02h0s0-.01,0-.01h0s0,0,0,0h0s0-.07,0-.07v-.11s.24-7.21.24-7.21l.48-14.43.72-21.64.06-1.8.02-.45v-.03s0,0,0,0h0s0,0,0,0h0s0,0,0,0h0s0-.02,0-.02v-.05s.02-.09.02-.09v-.09s.03-.09.03-.09v-.09s.03-.08.03-.08v-.08s.03-.08.03-.08v-.08s.03-.08.03-.08l.02-.08.03-.15.03-.14.03-.14.03-.14.03-.14.04-.14.04-.14.04-.14.04-.14.04-.14.05-.14.05-.15.05-.15.03-.08.03-.08.03-.08.03-.08.03-.08.03-.08.04-.08.04-.08.04-.08.04-.09.04-.09.04-.09.05-.09.05-.09" fill="#f2f2f2" stroke="#000" stroke-linecap="round" stroke-width=".4"/><path d="m21.63,348.09l-.05-.14-.08-.16-.11-.16-.14-.16-.16-.15-.18-.14-.2-.11-.21-.08-.23-.04h-.23s-.24.05-.24.05l-.24.11-.4,1.06-1.27,3.5-.42,1.17-1.69,4.66-.42,1.17-.85,2.33-.11.28-.02.03-.02.03-.02.03-.02.03-.03.03-.03.02-.03.02-.03.02-.03.02-.03.02h-.03s-.03.02-.03.02l-.07.02h-.13s-.18,0-.18,0l-.05-.02-.05-.05-.05-.07-.05-.09-.05-.11-.04-.13-.04-.14-.04-.15-.03-.16-.03-.16-.02-.16.19-1.82.45-3.82.45-3.82.45-3.82.9-7.63.9-7.63.45-3.82.9-7.63.45-3.82.29-2.58v-.5s0-.25,0-.25l.02-2.01v-.31s.05-.49.05-.49l.04-.44.04-.4.04-.36.04-.32.04-.29.04-.26.04-.23.04-.21.04-.19.04-.17.04-.16.05-.14.05-.13.05-.12.05-.11.05-.1.05-.09.05-.08.05-.07.05-.07.05-.06.05-.05.05-.04.05-.04.05-.03.06-.03.06-.02h.06s.06-.02.06-.02h.06s.06,0,.06,0h.06s.06.03.06.03l.06.02.06.03.06.03.06.04.06.05.06.05.07.06.07.07.07.08.07.08.07.09.07.1.07.11.07.12.07.13.08.14.08.14.08.15.08.16.08.16.08.17.07.17.07.17.07.17.07.17.07.17.06.17.06.17.06.17.05.17.05.17.05.17.04.17.04.17.03.17.03.17" fill="#f2f2f2" stroke="#000" stroke-width=".4"/><path d="m21.63,348.09l.04.22.04.22.04.22.04.23.04.23.04.24.04.24.03.24.03.25.03.25.03.25.03.25.03.26.03.26.03.26.03.26.03.27.03.27.03.27.03.27.03.27.03.28.06.55.06.56.06.56.12,1.13.06.56.06.56.06.56.06.55.03.28.03.27.03.27.03.27.03.27.03.27.03.26.03.26.03.26.03.26v.13s.02.05.02.05h0s0,.01,0,.01v.02s.01.01.01.01h0s.02.04.02.04h.07l.03-.02.07-.04.06-.04.06-.04.06-.04.06-.04.06-.04.05-.04.05-.04.05-.04.05-.04.05-.04.05-.04.04-.04.04-.04.04-.04.04-.04.04-.04.07-.09.06-.09.06-.09.05-.09.05-.09.05-.09.04-.09.04-.09.03-.09.03-.09.03-.09.03-.09.02-.09.02-.09.02-.09.02-.09v-.05s.01-.02.01-.02h0s0-.01,0-.01h0s0,0,0,0h0s0-.07,0-.07v-.11s-.24-7.21-.24-7.21l-.48-14.43-.48-14.43-.24-7.21-.06-1.8-.02-.45v-.03s0,0,0,0h0s0,0,0,0h0s0,0,0,0h0s0-.02,0-.02v-.05s-.02-.09-.02-.09v-.09s-.03-.09-.03-.09v-.09s-.03-.08-.03-.08v-.08s-.03-.08-.03-.08v-.08s-.03-.08-.03-.08l-.02-.08-.03-.15-.03-.14-.03-.14-.03-.14-.03-.14-.04-.14-.04-.14-.04-.14-.04-.14-.04-.14-.05-.14-.05-.15-.05-.15-.03-.08-.03-.08-.03-.08-.03-.08-.03-.08-.03-.08-.04-.08-.04-.08-.04-.08-.04-.09-.04-.09-.04-.09-.05-.09-.05-.09" fill="#f2f2f2" stroke="#000" stroke-linecap="round" stroke-width=".4"/><path d="m8.16,368c-.19-.48-.45-1.03-.7-1.53l-.1-.19.04-.08c.07-.13.23-.42.33-.58l.04-.06h.2c.11,0,.33,0,.49,0h.29l.04.06c.08.14.3.52.35.62l.02.03-.05.1c-.28.53-.55,1.13-.77,1.69l-.04.09h-.06l-.06-.16h0Z" fill="#333" stroke-width="0"/><path d="m17.97,367.8c-.19-.48-.45-1.03-.7-1.53l-.1-.19.04-.08c.07-.13.23-.42.33-.58l.04-.06h.2c.11,0,.33,0,.49,0h.29l.04.06c.08.14.3.52.35.62l.02.03-.05.1c-.28.53-.55,1.13-.77,1.69l-.04.09h-.06l-.06-.16h0Z" fill="#333" stroke-width="0"/><path d="m12.09,367.3c.08-.16.23-.43.33-.62l.19-.33-.22-.39-.22-.39h-.38c-.32,0-.38-.01-.38-.04,0-.03-.03-.04-.16-.03-.15.01-.17.01-.22.1l-.05.09.28.54c.15.3.36.72.46.94.1.22.19.4.2.4,0,0,.08-.13.16-.28h0Z" fill="#333" stroke-width="0"/><path d="m14.36,367.3c-.08-.16-.23-.43-.33-.62l-.19-.33.22-.39.22-.39h.38c.32,0,.38-.01.38-.04,0-.03.03-.04.16-.03.15.01.17.01.22.1l.05.09-.28.54c-.15.3-.36.72-.46.94-.1.22-.19.4-.2.4,0,0-.08-.13-.16-.28h0Z" fill="#333" stroke-width="0"/><path d="m10.85,371.5s.08-.38.09-.42c.17-2.25.35-1.78,1.06-3.15,0-.07.48-1.05.75-1.52l.14-.24v-.63h.67v.64l.14.25c.15.27.57,1.08.66,1.3l.06.13c.88,2.4.22.29,1.13,3.39.02.1.04.2.04.22,0,.03,0,.03-2.38.03-1.31,0-2.38,0-2.38-.01h0Z" fill="#333" stroke-width="0"/><path d="m3.87,151.6h18.65" fill="none" stroke="#000" stroke-width=".4"/><path d="m3.87,119.89h18.65" fill="none" stroke="#000" stroke-width=".4"/><path d="m16.73,365.4h-1.02" fill="none" stroke="#000" stroke-width=".4"/><path d="m5.82,370.7h4.91" fill="none" stroke="#000" stroke-width=".4"/><path d="m7.77,365.4h1.02" fill="none" stroke="#000" stroke-width=".4"/><path d="m9.22,366.2c-.14-.28-.29-.56-.44-.83" fill="none" stroke="#000" stroke-width=".4"/><path d="m7.77,365.4c-.15.27-.3.55-.44.83" fill="none" stroke="#000" stroke-width=".4"/><path d="m11.15,365.4h.76" fill="none" stroke="#000" stroke-width=".4"/><path d="m12.66,366.3c-.14-.29-.29-.57-.45-.85" fill="none" stroke="#000" stroke-width=".4"/><path d="m11.15,365.4c-.08.14-.16.28-.23.42" fill="none" stroke="#000" stroke-width=".4"/><path d="m20.57,370.7h-4.91" fill="none" stroke="#000" stroke-width=".4"/><path d="m18.62,365.4h-1.02" fill="none" stroke="#000" stroke-width=".4"/><path d="m17.61,365.4c-.15.27-.3.55-.44.83" fill="none" stroke="#000" stroke-width=".4"/><path d="m19.06,366.2c-.14-.28-.29-.56-.44-.83" fill="none" stroke="#000" stroke-width=".4"/><path d="m15.24,365.4h-.76" fill="none" stroke="#000" stroke-width=".4"/><path d="m11.91,365.4c.15-.2.23-.44.22-.68" fill="none" stroke="#000" stroke-width=".4"/><path d="m8.43,365.4h3.48" fill="none" stroke="#000" stroke-width=".4"/><path d="m14.26,364.7c-.01.25.07.49.22.68" fill="none" stroke="#000" stroke-width=".4"/><path d="m17.96,365.4c.15-.2.23-.44.22-.68" fill="none" stroke="#000" stroke-width=".4"/><path d="m12.21,365.5h1.97" fill="none" stroke="#000" stroke-width=".4"/><path d="m11.4,365.4s.04.05.05.08" fill="none" stroke="#000" stroke-width=".4"/><path d="m14.93,365.5s.04-.05.05-.08" fill="none" stroke="#000" stroke-width=".4"/><path d="m11.46,365.5h3.48" fill="none" stroke="#000" stroke-width=".4"/><path d="m14.23,365.5c-.16.28-.31.56-.45.85" fill="none" stroke="#000" stroke-width=".4"/><path d="m14.23,365.5c-.16.28-.31.56-.45.85" fill="none" stroke="#000" stroke-width=".4"/><path d="m15.5,365.8c-.07-.13-.14-.25-.21-.38" fill="none" stroke="#000" stroke-width=".4"/><path d="m22.52,78.47v231.91" fill="none" stroke="#000" stroke-width=".4"/><path d="m10.94,370.7c-.07.28-.12.55-.18.83h4.91c-.05-.28-.11-.56-.18-.83" fill="none" stroke="#000" stroke-width=".4"/><path d="m11.86,367.9c.25-.58.53-1.16.85-1.71v-.75" fill="none" stroke="#000" stroke-width=".4"/><path d="m13.73,365.5v.75c.3.53.58,1.08.82,1.65" fill="none" stroke="#000" stroke-width=".4"/><path d="m8.27,368.6c-.36-1.09-.82-2.14-1.39-3.14h-1.02c-.94,1.65-1.6,3.45-1.95,5.32h4.91" fill="#333" stroke="#000" stroke-width=".4"/><path d="m18.12,365.1c.04.11.09.21.16.3h3.48c.15-.2.23-.44.22-.68" fill="none" stroke="#000" stroke-width=".4"/><path d="m17.56,370.7h4.91c-.35-1.87-1.01-3.66-1.95-5.32h-1.02c-.57,1-1.03,2.05-1.39,3.14" fill="#333" stroke="#000" stroke-width=".4"/><path d="m9.66,365.4c-.94,1.65-1.6,3.45-1.95,5.32h4.91c-.35-1.87-1.01-3.66-1.95-5.32h-1.02Z" fill="#333" stroke="#000" stroke-width=".4"/><path d="m.42,69.83c-.06-1-.09-9.85-.05-19.67.07-19.4.06-19.16,1.12-24.12,1.21-5.66,3.52-10.11,7.44-14.31,1.55-1.66,2.79-2.49,3.73-2.49h.4s0,62.4,0,62.4H.54l-.12-1.81h0Z" fill="url(#linear-gradient-3)" stroke-width="0"/><path d="m3.91,78.14c-.09-.12-.75-1.29-1.46-2.61-.71-1.31-1.44-2.65-1.63-2.96l-.34-.57h12.58v6.36h-4.49c-3.38,0-4.53-.05-4.66-.22h0Z" fill="url(#linear-gradient-4)" stroke-width="0"/><path d="m26.01,69.83c.06-1,.09-9.85.05-19.67-.07-19.4-.06-19.16-1.12-24.12-1.21-5.66-3.52-10.11-7.44-14.31-1.55-1.66-2.79-2.49-3.73-2.49h-.4s0,62.4,0,62.4h12.52l.12-1.81h0Z" fill="url(#linear-gradient-5)" stroke-width="0"/><path d="m22.52,78.14c.09-.12.75-1.29,1.46-2.61.71-1.31,1.44-2.65,1.63-2.96l.34-.57h-12.58v6.36h4.49c3.38,0,4.53-.05,4.66-.22h0Z" fill="url(#linear-gradient-6)" stroke-width="0"/><path d="m3.87,78.48h18.65" fill="none" stroke="#000" stroke-width=".4"/><path d="m.23,71.81h25.92" fill="none" stroke="#000" stroke-width=".4"/><path d="m3.87,78.48l-.39-.71-1.56-2.86-.39-.71-.39-.71-.78-1.43-.14-2.86v-35.23s.06-.53.06-.53l.05-.53.05-.53.05-.53.06-.53.06-.53.06-.53.07-.53.07-.53.08-.53.08-.53.09-.53.1-.53.1-.53.11-.53.12-.53.12-.52.13-.52.14-.52.15-.52.15-.51.16-.51.17-.5.18-.5.19-.5.2-.49.21-.49.22-.48.23-.48.23-.47.24-.47.25-.46.26-.46.27-.45.28-.45.29-.44.3-.44.31-.44.32-.43.32-.43.33-.43.34-.43.35-.42.36-.42.37-.42.37-.42.38-.41.4-.39.41-.37.42-.34.44-.29.46-.24.49-.18.51-.12.54-.07h.57s.54.06.54.06l.51.12.49.18.46.24.44.29.43.34.41.37.4.39.38.41.37.42.37.42.36.42.35.42.34.43.33.43.32.43.32.43.31.44.3.44.29.44.28.45.27.45.26.46.25.46.24.47.24.47.23.48.22.48.21.49.2.49.19.5.18.5.17.5.16.51.15.51.15.52.14.52.13.52.12.52.12.53.11.53.1.53.09.53.09.53.08.53.07.53.07.53.06.53.06.53.05.53.05.53.05.53.05.53.04.53.04.53v2.99s.01,32.24.01,32.24l-.14,2.86-.78,1.43-1.56,2.86-.39.71-.78,1.43" fill="none" stroke="#000" stroke-width=".4"/><path d="m13.19,78.48V9.07" fill="none" stroke="#000" stroke-width=".4"/><path d="m7.7,310.97l-1.23-1.31" fill="none" stroke="#000" stroke-width=".4"/><path d="m6.47,309.66h-2.25" fill="none" stroke="#000" stroke-width=".4"/><path d="m3.95,340.02l.17-24.12" fill="none" stroke="#000" stroke-width=".4"/><path d="m4.12,315.9l2.16-2.93" fill="none" stroke="#000" stroke-width=".4"/><path d="m4.12,315.9l-1.03-2.67" fill="none" stroke="#000" stroke-width=".4"/><path d="m6.28,312.98l.18-3.32" fill="none" stroke="#000" stroke-linecap="round" stroke-width=".4"/><path d="m3.87,310.39V78.48" fill="none" stroke="#000" stroke-width=".4"/><path d="m3.26,360.7h.61" fill="none" stroke="#000" stroke-width=".4"/><path d="m3.18,361.3h.69" fill="none" stroke="#000" stroke-width=".4"/><path d="m22.52,354.91v8.31c-.02.54-.19,1.06-.49,1.51H4.36c-.3-.45-.46-.97-.49-1.51v-8.31" fill="none" stroke="#000" stroke-width=".4"/><path d="m12.89,361.3h.61" fill="none" stroke="#000" stroke-width=".4"/><path d="m13.09,360.7h.22" fill="none" stroke="#000" stroke-width=".4"/><path d="m1.94,360.6l.36-4.51.12-1.5.59-7.51.12-1.5.36-4.51.05-.48.03-.12.04-.1.04-.09.05-.07.05-.06.06-.04.06-.03.06-.02h.06s.07-.01.07-.01h.07s.07.03.07.03l.06.03.06.03.06.04.06.04.06.05.06.05.06.05.05.06.05.06.05.06.05.06.05.06.04.06.18.44,1.75,4.71.58,1.57,1.75,4.71,1.17,3.14.58,1.57,1.17,3.14.58,1.57" fill="none" stroke="#000" stroke-width=".4"/><path d="m18.69,310.97l1.23-1.31" fill="none" stroke="#000" stroke-width=".4"/><path d="m19.92,309.66h2.25" fill="none" stroke="#000" stroke-width=".4"/><path d="m22.44,340.02l-.17-24.12" fill="none" stroke="#000" stroke-width=".4"/><path d="m22.27,315.9l-2.16-2.93" fill="none" stroke="#000" stroke-width=".4"/><path d="m22.27,315.9l1.03-2.67" fill="none" stroke="#000" stroke-width=".4"/><path d="m20.11,312.98l-.18-3.32" fill="none" stroke="#000" stroke-linecap="round" stroke-width=".4"/><path d="m23.13,360.7h-.61" fill="none" stroke="#000" stroke-width=".4"/><path d="m23.21,361.3h-.69" fill="none" stroke="#000" stroke-width=".4"/><path d="m24.45,360.6l-.12-1.5-.12-1.5-.59-7.51-.12-1.5-.47-6.01-.12-1.5-.05-.48-.03-.12-.04-.1-.04-.09-.05-.07-.05-.06-.06-.04-.06-.03-.06-.02h-.06s-.07-.01-.07-.01h-.07s-.07.03-.07.03l-.06.03-.06.03-.06.04-.06.04-.06.05-.06.05-.06.05-.05.06-.05.06-.05.06-.05.06-.05.06-.04.06-.18.44-.58,1.57-1.17,3.14-.58,1.57-1.75,4.71-1.17,3.14-.58,1.57-1.75,4.71" fill="none" stroke="#000" stroke-width=".4"/><path d="m16.73,365.4c.94,1.65,1.6,3.45,1.95,5.32h-4.91c.35-1.87,1.01-3.66,1.95-5.32" fill="#333" stroke="#000" stroke-width=".4"/><path d="m14.48,365.4h3.48" fill="none" stroke="#000" stroke-width=".4"/><path d="m4.42,364.7c-.01.25.07.49.22.68h3.48c.07-.09.12-.19.16-.3" fill="none" stroke="#000" stroke-width=".4"/><path d="m8.22,364.7c-.01.25.07.49.22.68" fill="none" stroke="#000" stroke-width=".4"/><path d="m14.6,298.3h-3.87l-.14.11v3.44h1.07v-1.29l.1-.09h2.84c.72,0,1.05-.19,1.05-.69v-.79c0-.5-.34-.69-1.05-.69m0,1.27c0,.23-.15.28-.49.28h-2.34l-.11-.11v-.74l.1-.09h2.35c.34,0,.49.05.49.28v.38h0Z" fill="#005288" stroke-width="0"/><polyline points="12.35 306.13 13.28 307.48 13.22 307.61 11.19 307.61 10.67 308.25 13.7 308.25 13.91 308.38 14.38 309.03 15.61 309.03 12.92 305.43" fill="#005288" stroke-width="0"/><polyline points="11.79 324.06 11.79 323.1 11.9 323.01 13.95 323.01 13.95 322.4 10.7 322.4 10.7 324.76 15.49 324.76 15.49 324.15 11.9 324.15" fill="#005288" stroke-width="0"/><rect x="10.7" y="321.21" width="4.84" height=".67" fill="#005288" stroke-width="0"/><path d="m11.77,313.8h3.9c-.06-.5-.37-.63-1.15-.63h-2.79c-.88,0-1.16.17-1.16.84v1.87c0,.67.28.84,1.16.84h2.79c.79,0,1.1-.15,1.12-.66h-3.87l-.11-.11v-2.07" fill="#005288" stroke-width="0"/><path d="m14.56,291.5h-2.84l-.08-.09v-.61l.08-.06h3.83l.05-.13c-.13-.34-.47-.49-1.09-.49h-2.66c-.88,0-1.16.17-1.16.84v.39c0,.67.28.84,1.16.84h2.83l.09.08v.63l-.07.1h-3.24s-.85,0-.85,0c0,0-.1.05-.09.07.07.47.39.6,1.15.6h2.9c.88,0,1.17-.17,1.17-.84v-.49c0-.67-.29-.84-1.17-.84" fill="#005288" stroke-width="0"/><path d="m11.83,329.43h-1.59l-.09.16,1.77,1.29c.34-.19.7-.39,1.1-.58" fill="#005288" stroke-width="0"/><path d="m13.25,331.86l1.56,1.13h1.61l.07-.15-2.32-1.7c-.31.23-.61.47-.91.72" fill="#005288" stroke-width="0"/><path d="m11.59,332.99h-1.44l-.12-.19c.98-.95,5.46-4.5,11.28-4.96,0,0-5.1.57-9.72,5.15" fill="#a7a9ac" stroke-width="0"/><rect x="8.6" y="138.1" width="9.2" height="5.17" fill="#b22234" stroke-width="0"/><path d="m8.6,138.7h9.2m0,.8h-9.2m0,.8h9.2m0,.8h-9.2m0,.8h9.2m0,.8h-9.2" stroke="#fff" stroke-miterlimit="10" stroke-width=".37"/><rect x="8.6" y="138.1" width="3.68" height="2.78" fill="#3c3b6e" stroke-width="0"/><path d="m8.9,138.22l.09.29-.23-.18h.28l-.23.18.09-.29Z" fill="#fff" stroke-width="0"/><path id="s" d="m8.9,138.78l.09.29-.23-.18h.28l-.23.18.09-.29Z" fill="#fff" stroke-width="0"/><path id="s-2" d="m8.9,139.34l.09.29-.23-.18h.28l-.23.18.09-.29Z" fill="#fff" stroke-width="0"/><path id="s-3" d="m8.9,139.89l.09.29-.23-.18h.28l-.23.18.09-.29Z" fill="#fff" stroke-width="0"/><path id="s-4" d="m8.9,140.45l.09.29-.23-.18h.28l-.23.18.09-.29Z" fill="#fff" stroke-width="0"/><g id="d"><path id="s-5" d="m9.21,138.5l.09.29-.23-.18h.28l-.23.18.09-.29Z" fill="#fff" stroke-width="0"/><path id="s-6" d="m9.21,139.06l.09.29-.23-.18h.28l-.23.18.09-.29Z" fill="#fff" stroke-width="0"/><path id="s-7" d="m9.21,139.62l.09.29-.23-.18h.28l-.23.18.09-.29Z" fill="#fff" stroke-width="0"/><path id="s-8" d="m9.21,140.17l.09.29-.23-.18h.28l-.23.18.09-.29Z" fill="#fff" stroke-width="0"/></g><g id="a"><g id="c"><g id="d-2"><path id="s-9" d="m9.52,138.22l.09.29-.23-.18h.28l-.23.18.09-.29Z" fill="#fff" stroke-width="0"/><path id="s-10" d="m9.52,138.78l.09.29-.23-.18h.28l-.23.18.09-.29Z" fill="#fff" stroke-width="0"/><path id="s-11" d="m9.52,139.34l.09.29-.23-.18h.28l-.23.18.09-.29Z" fill="#fff" stroke-width="0"/><path id="s-12" d="m9.52,139.89l.09.29-.23-.18h.28l-.23.18.09-.29Z" fill="#fff" stroke-width="0"/></g><path id="s-13" d="m9.52,140.45l.09.29-.23-.18h.28l-.23.18.09-.29Z" fill="#fff" stroke-width="0"/></g><g id="d-3"><path id="s-14" d="m9.82,138.5l.09.29-.23-.18h.28l-.23.18.09-.29Z" fill="#fff" stroke-width="0"/><path id="s-15" d="m9.82,139.06l.09.29-.23-.18h.28l-.23.18.09-.29Z" fill="#fff" stroke-width="0"/><path id="s-16" d="m9.82,139.62l.09.29-.23-.18h.28l-.23.18.09-.29Z" fill="#fff" stroke-width="0"/><path id="s-17" d="m9.82,140.17l.09.29-.23-.18h.28l-.23.18.09-.29Z" fill="#fff" stroke-width="0"/></g></g><g id="e"><g id="a-2"><g id="c-2"><g id="d-4"><path id="s-18" d="m10.13,138.22l.09.29-.23-.18h.28l-.23.18.09-.29Z" fill="#fff" stroke-width="0"/><path id="s-19" d="m10.13,138.78l.09.29-.23-.18h.28l-.23.18.09-.29Z" fill="#fff" stroke-width="0"/><path id="s-20" d="m10.13,139.34l.09.29-.23-.18h.28l-.23.18.09-.29Z" fill="#fff" stroke-width="0"/><path id="s-21" d="m10.13,139.89l.09.29-.23-.18h.28l-.23.18.09-.29Z" fill="#fff" stroke-width="0"/></g><path id="s-22" d="m10.13,140.45l.09.29-.23-.18h.28l-.23.18.09-.29Z" fill="#fff" stroke-width="0"/></g><g id="d-5"><path id="s-23" d="m10.44,138.5l.09.29-.23-.18h.28l-.23.18.09-.29Z" fill="#fff" stroke-width="0"/><path id="s-24" d="m10.44,139.06l.09.29-.23-.18h.28l-.23.18.09-.29Z" fill="#fff" stroke-width="0"/><path id="s-25" d="m10.44,139.62l.09.29-.23-.18h.28l-.23.18.09-.29Z" fill="#fff" stroke-width="0"/><path id="s-26" d="m10.44,140.17l.09.29-.23-.18h.28l-.23.18.09-.29Z" fill="#fff" stroke-width="0"/></g></g><g id="a-3"><g id="c-3"><g id="d-6"><path id="s-27" d="m10.74,138.22l.09.29-.23-.18h.28l-.23.18.09-.29Z" fill="#fff" stroke-width="0"/><path id="s-28" d="m10.74,138.78l.09.29-.23-.18h.28l-.23.18.09-.29Z" fill="#fff" stroke-width="0"/><path id="s-29" d="m10.74,139.34l.09.29-.23-.18h.28l-.23.18.09-.29Z" fill="#fff" stroke-width="0"/><path id="s-30" d="m10.74,139.89l.09.29-.23-.18h.28l-.23.18.09-.29Z" fill="#fff" stroke-width="0"/></g><path id="s-31" d="m10.74,140.45l.09.29-.23-.18h.28l-.23.18.09-.29Z" fill="#fff" stroke-width="0"/></g><g id="d-7"><path id="s-32" d="m11.05,138.5l.09.29-.23-.18h.28l-.23.18.09-.29Z" fill="#fff" stroke-width="0"/><path id="s-33" d="m11.05,139.06l.09.29-.23-.18h.28l-.23.18.09-.29Z" fill="#fff" stroke-width="0"/><path id="s-34" d="m11.05,139.62l.09.29-.23-.18h.28l-.23.18.09-.29Z" fill="#fff" stroke-width="0"/><path id="s-35" d="m11.05,140.17l.09.29-.23-.18h.28l-.23.18.09-.29Z" fill="#fff" stroke-width="0"/></g></g></g><g id="a-4"><g id="c-4"><g id="d-8"><path id="s-36" d="m11.36,138.22l.09.29-.23-.18h.28l-.23.18.09-.29Z" fill="#fff" stroke-width="0"/><path id="s-37" d="m11.36,138.78l.09.29-.23-.18h.28l-.23.18.09-.29Z" fill="#fff" stroke-width="0"/><path id="s-38" d="m11.36,139.34l.09.29-.23-.18h.28l-.23.18.09-.29Z" fill="#fff" stroke-width="0"/><path id="s-39" d="m11.36,139.89l.09.29-.23-.18h.28l-.23.18.09-.29Z" fill="#fff" stroke-width="0"/></g><path id="s-40" d="m11.36,140.45l.09.29-.23-.18h.28l-.23.18.09-.29Z" fill="#fff" stroke-width="0"/></g><g id="d-9"><path id="s-41" d="m11.66,138.5l.09.29-.23-.18h.28l-.23.18.09-.29Z" fill="#fff" stroke-width="0"/><path id="s-42" d="m11.66,139.06l.09.29-.23-.18h.28l-.23.18.09-.29Z" fill="#fff" stroke-width="0"/><path id="s-43" d="m11.66,139.62l.09.29-.23-.18h.28l-.23.18.09-.29Z" fill="#fff" stroke-width="0"/><path id="s-44" d="m11.66,140.17l.09.29-.23-.18h.28l-.23.18.09-.29Z" fill="#fff" stroke-width="0"/></g></g><g id="c-5"><g id="d-10"><path id="s-45" d="m11.97,138.22l.09.29-.23-.18h.28l-.23.18.09-.29Z" fill="#fff" stroke-width="0"/><path id="s-46" d="m11.97,138.78l.09.29-.23-.18h.28l-.23.18.09-.29Z" fill="#fff" stroke-width="0"/><path id="s-47" d="m11.97,139.34l.09.29-.23-.18h.28l-.23.18.09-.29Z" fill="#fff" stroke-width="0"/><path id="s-48" d="m11.97,139.89l.09.29-.23-.18h.28l-.23.18.09-.29Z" fill="#fff" stroke-width="0"/></g><path id="s-49" d="m11.97,140.45l.09.29-.23-.18h.28l-.23.18.09-.29Z" fill="#fff" stroke-width="0"/></g><path d="m10.54,130.36c.31-.16.62-.33.94-.45-3.67-1.93-3.88-3.38-4.63-4.91.58,1.77,1.07,3.54,3.69,5.36h0Z" fill="#a80126" fill-rule="evenodd" stroke-width="0"/><path d="m8.62,127.46c1.4,1.17,2.61,2,3.51,2.26.89-.47,3.81-.73,3.75-.06-.64-.32-1.02-.17-1.39-.05.18,0,.67-.06.81,0-.06.07-.12.1-.19.14.24.05.46.12.65.23.12-.01.2,0,.24.03-.12.03-.27.19-.34.3.81.02,1.68.02,1.77.87.26-.76-.2-1.16-1.1-1.33-.12-.26-.31-.48-.49-.73-2.45-.14-4.89-.3-7.22-1.65h0Z" fill="#a80126" fill-rule="evenodd" stroke-width="0"/><path d="m6.7,133.38v-1.48h.99c-.04.05-.07.1-.16.14h-.62v.39h.55s-.07.09-.13.11h-.43v.53c-.05.12-.1.23-.21.32h0Z" fill-rule="evenodd" stroke-width="0"/><path d="m9.38,132.05v1.08h.28v-1.02c-.38-.35-.76-.35-1.14,0v1.02h.25v-.6h.2s.08-.05.1-.09h-.29v-.39c.23-.16.41-.16.6,0h0Z" fill-rule="evenodd" stroke-width="0"/><path d="m12.32,133.17h-1.14v-1.25h.29v1.15h1s-.06.09-.15.1h0Z" fill-rule="evenodd" stroke-width="0"/><path d="m14.02,131.9v.25c-.46.62.32,1.37,1.2.82h.07c-.55.6-2.54.1-1.27-1.07h0Z" fill-rule="evenodd" stroke-width="0"/><path d="m13.42,131.93v.45c.44-.79,1.05-1.18,2.91-.66-1.79-.7-2.45-.33-2.91.21Z" fill-rule="evenodd" stroke-width="0"/><path d="m16.9,131.8c-.37,0-.75.26-.75.73,0,.94,1.49.99,1.49,0,0-.5-.37-.73-.75-.73h0Zm0,.1c.22,0,.44.21.45.63,0,.85-.88.83-.88,0,0-.41.22-.63.44-.63h0Z" fill-rule="evenodd" stroke-width="0"/><path d="m19.03,132.05v1.13h-.22v-1.18l.22-.11v.05c.34,0,.58.15.64.24v1.01h-.22v-.99c-.08-.13-.17-.17-.43-.17v.03Z" fill-rule="evenodd" stroke-width="0"/><path d="m13.21,134.05c-2.3.01-1.7,1.85-.43,1.82.59-.02.7-.08,1.1-.5-.25,1.24-1.09,1.24-2.11,1.34-.13.08-.15.1-.24.24,1.72-.03,3.17-.34,3.13-1.68-.03-.94-.66-1.22-1.45-1.21h0Zm-.03.22c.42,0,.76.27.76.6h0c0,.33-.34.6-.76.6-.42,0-.76-.27-.76-.59,0-.33.34-.6.76-.6Z" fill-rule="evenodd" stroke-width="0"/><path d="m22.79,155.54l.03-6.41-1.06-1.56.03-1.69-.84-1.59-.28-.91-.69-.25-.69.06-.41.12-.38,1-.22,1.09-.03.94v1l.09.72-.81.91v6.47l.62.12,4.63-.03Z" fill="#fff" fill-rule="evenodd" stroke="#040404" stroke-linecap="round" stroke-linejoin="round" stroke-width=".2"/><path d="m18.17,149.13v6.43h4.62v-6.4l-.93-1.62h-2.21l-1.48,1.59Z" fill="none" stroke="#040404" stroke-linecap="square" stroke-linejoin="round" stroke-width=".2"/><path d="m21.8,155.43v-9.48l-.77-1.55c-.9-.42-1.67-.27-2.34.31l.11,2.89" fill="none" stroke="#040404" stroke-linecap="square" stroke-linejoin="round" stroke-width=".2"/><path d="m19.75,147.59v7.95" fill="none" stroke="#040404" stroke-linecap="square" stroke-linejoin="round" stroke-width=".2"/><path d="m19.68,147.56l-.75-.02-1.37,1.48v6.47l.63.06" fill="none" stroke="#040404" stroke-linecap="square" stroke-linejoin="round" stroke-width=".2"/><path d="m19.61,147.52l-.02-1.59-.86-1.1" fill="none" stroke="#040404" stroke-linecap="square" stroke-linejoin="round" stroke-width=".2"/><path d="m21.05,144.4l-.4-.97c-.49-.29-1.1-.29-1.77-.11-.66,1.51-.73,3.1-.51,4.73" fill="none" stroke="#040404" stroke-linecap="square" stroke-linejoin="round" stroke-width=".2"/><path d="m21.75,145.82c-.81-.33-1.51-.28-2.14-.02" fill="none" stroke="#040404" stroke-linecap="round" stroke-linejoin="round" stroke-width=".2"/><path d="m19.76,155.54l-1.57-1.73" fill="#fff" fill-rule="evenodd" stroke="#040404" stroke-linecap="round" stroke-linejoin="round" stroke-width=".2"/><path d="m21.17,155.54l-2.98-3.77" fill="#fff" fill-rule="evenodd" stroke="#040404" stroke-linecap="round" stroke-linejoin="round" stroke-width=".2"/><path d="m18.18,149.93l4.39,5.58" fill="#fff" fill-rule="evenodd" stroke="#040404" stroke-linecap="round" stroke-linejoin="round" stroke-width=".2"/><path d="m18.62,148.68l4.14,5.3" fill="#fff" fill-rule="evenodd" stroke="#040404" stroke-linecap="round" stroke-linejoin="round" stroke-width=".2"/><path d="m19.45,147.79l3.34,4.38" fill="#fff" fill-rule="evenodd" stroke="#040404" stroke-linecap="round" stroke-linejoin="round" stroke-width=".2"/><path d="m20.74,147.57l2.04,2.62" fill="#fff" fill-rule="evenodd" stroke="#040404" stroke-linecap="round" stroke-linejoin="round" stroke-width=".2"/><path d="m20.44,155.53l2.35-3.34" fill="#fff" fill-rule="evenodd" stroke="#040404" stroke-linecap="round" stroke-linejoin="round" stroke-width=".2"/><path d="m22.73,154.01l-.97,1.53" fill="#fff" fill-rule="evenodd" stroke="#040404" stroke-linecap="round" stroke-linejoin="round" stroke-width=".2"/><path d="m18.89,155.53l3.87-5.05" fill="#fff" fill-rule="evenodd" stroke="#040404" stroke-linecap="round" stroke-linejoin="round" stroke-width=".2"/><path d="m18.2,154.57l4.44-5.62" fill="#fff" fill-rule="evenodd" stroke="#040404" stroke-linecap="round" stroke-linejoin="round" stroke-width=".2"/><path d="m18.2,152.6l3.88-4.56" fill="#fff" fill-rule="evenodd" stroke="#040404" stroke-linecap="round" stroke-linejoin="round" stroke-width=".2"/><path d="m18.17,150.79l2.81-3.19" fill="#fff" fill-rule="evenodd" stroke="#040404" stroke-linecap="round" stroke-linejoin="round" stroke-width=".2"/><path d="m17.55,149l.61.13" fill="#ccc" fill-rule="evenodd" stroke="#040404" stroke-linecap="round" stroke-linejoin="round" stroke-width=".2"/><path d="m3.57,155.54l-.03-6.41,1.06-1.56-.03-1.69.84-1.59.28-.91.69-.25.69.06.41.12.38,1,.22,1.09.03.94v1l-.09.72.81.91v6.47l-.62.12-4.63-.03Z" fill="#fff" fill-rule="evenodd" stroke="#040404" stroke-linecap="round" stroke-linejoin="round" stroke-width=".2"/><path d="m8.19,149.13v6.43H3.57v-6.4l.93-1.62h2.21l1.48,1.59Z" fill="none" stroke="#040404" stroke-linecap="square" stroke-linejoin="round" stroke-width=".2"/><path d="m4.56,155.43v-9.48l.77-1.55c.9-.42,1.67-.27,2.34.31l-.11,2.89" fill="none" stroke="#040404" stroke-linecap="square" stroke-linejoin="round" stroke-width=".2"/><path d="m6.61,147.59v7.95" fill="none" stroke="#040404" stroke-linecap="square" stroke-linejoin="round" stroke-width=".2"/><path d="m6.68,147.56l.75-.02,1.37,1.48v6.47l-.63.06" fill="none" stroke="#040404" stroke-linecap="square" stroke-linejoin="round" stroke-width=".2"/><path d="m6.75,147.52l.02-1.59.86-1.1" fill="none" stroke="#040404" stroke-linecap="square" stroke-linejoin="round" stroke-width=".2"/><path d="m5.31,144.4l.4-.97c.49-.29,1.1-.29,1.77-.11.66,1.51.73,3.1.51,4.73" fill="none" stroke="#040404" stroke-linecap="square" stroke-linejoin="round" stroke-width=".2"/><path d="m4.61,145.82c.81-.33,1.51-.28,2.14-.02" fill="none" stroke="#040404" stroke-linecap="round" stroke-linejoin="round" stroke-width=".2"/><path d="m6.6,155.54l1.57-1.73" fill="#fff" fill-rule="evenodd" stroke="#040404" stroke-linecap="round" stroke-linejoin="round" stroke-width=".2"/><path d="m5.19,155.54l2.98-3.77" fill="#fff" fill-rule="evenodd" stroke="#040404" stroke-linecap="round" stroke-linejoin="round" stroke-width=".2"/><path d="m8.18,149.93l-4.39,5.58" fill="#fff" fill-rule="evenodd" stroke="#040404" stroke-linecap="round" stroke-linejoin="round" stroke-width=".2"/><path d="m7.74,148.68l-4.14,5.3" fill="#fff" fill-rule="evenodd" stroke="#040404" stroke-linecap="round" stroke-linejoin="round" stroke-width=".2"/><path d="m6.91,147.79l-3.34,4.38" fill="#fff" fill-rule="evenodd" stroke="#040404" stroke-linecap="round" stroke-linejoin="round" stroke-width=".2"/><path d="m5.62,147.57l-2.04,2.62" fill="#fff" fill-rule="evenodd" stroke="#040404" stroke-linecap="round" stroke-linejoin="round" stroke-width=".2"/><path d="m5.92,155.53l-2.35-3.34" fill="#fff" fill-rule="evenodd" stroke="#040404" stroke-linecap="round" stroke-linejoin="round" stroke-width=".2"/><path d="m3.63,154.01l.97,1.53" fill="#fff" fill-rule="evenodd" stroke="#040404" stroke-linecap="round" stroke-linejoin="round" stroke-width=".2"/><path d="m7.47,155.53l-3.87-5.05" fill="#fff" fill-rule="evenodd" stroke="#040404" stroke-linecap="round" stroke-linejoin="round" stroke-width=".2"/><path d="m8.16,154.57l-4.44-5.62" fill="#fff" fill-rule="evenodd" stroke="#040404" stroke-linecap="round" stroke-linejoin="round" stroke-width=".2"/><path d="m8.16,152.6l-3.88-4.56" fill="#fff" fill-rule="evenodd" stroke="#040404" stroke-linecap="round" stroke-linejoin="round" stroke-width=".2"/><path d="m8.19,150.79l-2.81-3.19" fill="#fff" fill-rule="evenodd" stroke="#040404" stroke-linecap="round" stroke-linejoin="round" stroke-width=".2"/><path d="m8.81,149l-.61.13" fill="#ccc" fill-rule="evenodd" stroke="#040404" stroke-linecap="round" stroke-linejoin="round" stroke-width=".2"/></svg>