<?xml version="1.0" encoding="UTF-8"?><svg id="Layer_1" xmlns="http://www.w3.org/2000/svg" xmlns:xlink="http://www.w3.org/1999/xlink" viewBox="0 0 26.41 371.75"><defs><linearGradient id="linear-gradient" x1="-22.85" y1="-436.96" x2="-4.18" y2="-436.96" gradientTransform="translate(26.71 -224.78) scale(1 -1)" gradientUnits="userSpaceOnUse"><stop offset="0" stop-color="#f6f6f6"/><stop offset=".5" stop-color="#fff"/><stop offset="1" stop-color="#f6f6f6"/></linearGradient><linearGradient id="linear-gradient-2" x1="-22.84" y1="-90.85" x2="-4.17" y2="-90.85" gradientTransform="translate(26.69 -96.08) scale(1 -2.53)" gradientUnits="userSpaceOnUse"><stop offset="0" stop-color="#101010"/><stop offset=".5" stop-color="#282828"/><stop offset="1" stop-color="#101010"/></linearGradient><linearGradient id="linear-gradient-3" x1="-22.85" y1="-579.22" x2="-4.18" y2="-579.22" gradientTransform="translate(26.71 -225.89) scale(1 -1)" gradientUnits="userSpaceOnUse"><stop offset="0" stop-color="#101010"/><stop offset=".5" stop-color="#282828"/><stop offset="1" stop-color="#101010"/></linearGradient><linearGradient id="linear-gradient-4" x1="-22.81" y1="-588.72" x2="-4.23" y2="-588.72" gradientTransform="translate(26.71 -225.89) scale(1 -1)" gradientUnits="userSpaceOnUse"><stop offset="0" stop-color="#101010"/><stop offset=".5" stop-color="#282828"/><stop offset="1" stop-color="#101010"/></linearGradient><linearGradient id="linear-gradient-5" x1="-25.39" y1="-559.73" x2="-13.35" y2="-559.73" gradientTransform="translate(26.71 -225.89) scale(1 -1)" gradientUnits="userSpaceOnUse"><stop offset="0" stop-color="#181818"/><stop offset="1" stop-color="#3c3c3c"/></linearGradient><linearGradient id="linear-gradient-6" x1="-23.26" y1="-566.49" x2="-19.63" y2="-585.84" gradientTransform="translate(26.71 -225.89) scale(1 -1)" gradientUnits="userSpaceOnUse"><stop offset="0" stop-color="#080808"/><stop offset="1" stop-color="#141414"/></linearGradient><linearGradient id="linear-gradient-7" x1="-1456.98" y1="-559.73" x2="-1444.94" y2="-559.73" gradientTransform="translate(-1431.86 -225.89) rotate(-180)" gradientUnits="userSpaceOnUse"><stop offset="0" stop-color="#181818"/><stop offset="1" stop-color="#3c3c3c"/></linearGradient><linearGradient id="linear-gradient-8" x1="-1454.85" y1="-566.49" x2="-1451.22" y2="-585.84" gradientTransform="translate(-1431.86 -225.89) rotate(-180)" gradientUnits="userSpaceOnUse"><stop offset="0" stop-color="#080808"/><stop offset="1" stop-color="#141414"/></linearGradient><linearGradient id="linear-gradient-9" x1="-393.63" y1="278.29" x2="-379.51" y2="278.29" gradientTransform="translate(390.53 309.88) scale(1 -1)" gradientUnits="userSpaceOnUse"><stop offset="0" stop-color="#e6e6e6"/><stop offset="1" stop-color="#f9f9f9"/></linearGradient><linearGradient id="linear-gradient-10" x1="-393.63" y1="243.55" x2="-379.51" y2="243.55" gradientTransform="translate(390.53 309.88) scale(1 -1)" gradientUnits="userSpaceOnUse"><stop offset="0" stop-color="#e6e6e6"/><stop offset="1" stop-color="#f9f9f9"/></linearGradient><linearGradient id="linear-gradient-11" x1="-1826.08" y1="278.29" x2="-1808.6" y2="278.29" gradientTransform="translate(-1795.65 309.88) rotate(-180)" gradientUnits="userSpaceOnUse"><stop offset="0" stop-color="#e6e6e6"/><stop offset="1" stop-color="#f9f9f9"/></linearGradient><linearGradient id="linear-gradient-12" x1="-1826.08" y1="243.55" x2="-1808.6" y2="243.55" gradientTransform="translate(-1795.65 309.88) rotate(-180)" gradientUnits="userSpaceOnUse"><stop offset="0" stop-color="#e6e6e6"/><stop offset="1" stop-color="#f9f9f9"/></linearGradient></defs><rect x="3.86" y="68.32" width="18.67" height="292" fill="url(#linear-gradient)" stroke-width="0"/><rect x="3.86" y="115.96" width="18.67" height="35.7" fill="url(#linear-gradient-2)" stroke-width="0"/><rect x="3.86" y="346.27" width="18.67" height="14.11" fill="url(#linear-gradient-3)" stroke-width="0"/><path d="m4.73,365.2c-.03-.05-.08-.19-.08-.23v-.03h3.39v.06c.04.12.04.14.01.19l-.03.04h-3.27l-.02-.04h0Z" fill="#f7f7f7" stroke-width="0"/><path d="m8.52,365.2c-.03-.06-.08-.2-.08-.22,0-.01.73-.01,1.75-.01h1.75v.03c-.02.07-.05.15-.08.2l-.03.06h-3.27l-.03-.06h0Z" fill="#f7f7f7" stroke-width="0"/><path d="m12.23,365.3s.01-.04.03-.08c.02-.06.05-.16.07-.26v-.04h.88c.83,0,.88,0,.88.02,0,.01,0,.04.01.07,0,.03.02.1.04.16.02.06.04.12.04.12h-.98c-.54,0-.98,0-.98-.01h0Z" fill="#f7f7f7" stroke-width="0"/><path d="m14.56,365.2c-.03-.06-.08-.2-.08-.22,0-.01.73-.01,1.75-.01,1.3,0,1.75,0,1.75.01,0,.03-.05.16-.08.22l-.03.06h-3.27l-.03-.06h0Z" fill="#f7f7f7" stroke-width="0"/><path d="m18.37,365.2c-.03-.05-.04-.08-.02-.17.01-.05.02-.09.02-.09,0,0,.77-.01,1.7-.01h1.7v.03c-.02.06-.06.16-.08.21l-.03.05h-3.27l-.02-.04h0Z" fill="#f7f7f7" stroke-width="0"/><path d="m3.9,360.3l18.57.03v3.27s-.69,1.75-.69,1.75l-17.17-.05-.7-1.75-.02-3.25Z" fill="url(#linear-gradient-4)" stroke-width="0"/><path d="m8.17,368c-.19-.48-.45-1.03-.7-1.53l-.1-.19.04-.08c.07-.13.23-.42.33-.58l.04-.06h.2c.11,0,.33,0,.49,0h.29l.04.06c.08.14.3.52.35.62l.02.03-.05.1c-.28.53-.55,1.13-.77,1.69l-.04.09h-.06l-.06-.16h0Z" fill="#333" stroke-width="0"/><path d="m17.98,367.8c-.19-.48-.45-1.03-.7-1.53l-.1-.19.04-.08c.07-.13.23-.42.33-.58l.04-.06h.2c.11,0,.33,0,.49,0h.29l.04.06c.08.14.3.52.35.62l.02.03-.05.1c-.28.53-.55,1.13-.77,1.69l-.04.09h-.06l-.06-.16h0Z" fill="#333" stroke-width="0"/><path d="m12.1,367.3c.08-.16.23-.43.33-.62l.19-.33-.22-.39-.22-.39h-.38c-.32,0-.38-.01-.38-.04,0-.03-.03-.04-.16-.03-.15.01-.17.01-.22.1l-.05.09.28.54c.15.3.36.72.46.94.1.22.19.4.2.4,0,0,.08-.13.16-.28h0Z" fill="#333" stroke-width="0"/><path d="m14.37,367.3c-.08-.16-.23-.43-.33-.62l-.19-.33.22-.39.22-.39h.38c.32,0,.38-.01.38-.04,0-.03.03-.04.16-.03.15.01.17.01.22.1l.05.09-.28.54c-.15.3-.36.72-.46.94-.1.22-.19.4-.2.4,0,0-.08-.13-.16-.28h0Z" fill="#333" stroke-width="0"/><path d="m10.86,371.5s.08-.38.09-.42c.17-2.25.35-1.78,1.06-3.15,0-.07.48-1.05.75-1.52l.14-.24v-.63h.67v.64l.14.25c.15.27.57,1.08.66,1.3l.06.13c.88,2.4.22.29,1.13,3.39.02.1.04.2.04.22,0,.03,0,.03-2.38.03-1.31,0-2.38,0-2.38-.01h0Z" fill="#333" stroke-width="0"/><path d="m3.88,116.01h18.65" fill="none" stroke="#000" stroke-width=".4"/><path d="m16.74,365.4h-1.02" fill="none" stroke="#000" stroke-width=".4"/><path d="m5.83,370.7h4.91" fill="none" stroke="#000" stroke-width=".4"/><path d="m7.78,365.4h1.02" fill="none" stroke="#000" stroke-width=".4"/><path d="m9.24,366.2c-.14-.28-.29-.56-.44-.83" fill="none" stroke="#000" stroke-width=".4"/><path d="m7.78,365.4c-.15.27-.3.55-.44.83" fill="none" stroke="#000" stroke-width=".4"/><path d="m11.16,365.4h.76" fill="none" stroke="#000" stroke-width=".4"/><path d="m12.67,366.3c-.14-.29-.29-.57-.45-.85" fill="none" stroke="#000" stroke-width=".4"/><path d="m11.16,365.4c-.08.14-.16.28-.23.42" fill="none" stroke="#000" stroke-width=".4"/><path d="m20.58,370.7h-4.91" fill="none" stroke="#000" stroke-width=".4"/><path d="m18.64,365.4h-1.02" fill="none" stroke="#000" stroke-width=".4"/><path d="m17.62,365.4c-.15.27-.3.55-.44.83" fill="none" stroke="#000" stroke-width=".4"/><path d="m19.08,366.2c-.14-.28-.29-.56-.44-.83" fill="none" stroke="#000" stroke-width=".4"/><path d="m15.25,365.4h-.76" fill="none" stroke="#000" stroke-width=".4"/><path d="m11.92,365.4c.15-.2.23-.44.22-.68" fill="none" stroke="#000" stroke-width=".4"/><path d="m8.45,365.4h3.48" fill="none" stroke="#000" stroke-width=".4"/><path d="m14.27,364.7c-.01.25.07.49.22.68" fill="none" stroke="#000" stroke-width=".4"/><path d="m17.97,365.4c.15-.2.23-.44.22-.68" fill="none" stroke="#000" stroke-width=".4"/><path d="m12.22,365.5h1.97" fill="none" stroke="#000" stroke-width=".4"/><path d="m11.41,365.4s.04.05.05.08" fill="none" stroke="#000" stroke-width=".4"/><path d="m14.95,365.5s.04-.05.05-.08" fill="none" stroke="#000" stroke-width=".4"/><path d="m11.47,365.5h3.48" fill="none" stroke="#000" stroke-width=".4"/><path d="m14.24,365.5c-.16.28-.31.56-.45.85" fill="none" stroke="#000" stroke-width=".4"/><path d="m14.24,365.5c-.16.28-.31.56-.45.85" fill="none" stroke="#000" stroke-width=".4"/><path d="m15.51,365.8c-.07-.13-.14-.25-.21-.38" fill="none" stroke="#000" stroke-width=".4"/><path d="m22.53,68.39v242" fill="none" stroke="#000" stroke-width=".4"/><path d="m10.95,370.7c-.07.28-.12.55-.18.83h4.91c-.05-.28-.11-.56-.18-.83" fill="none" stroke="#000" stroke-width=".4"/><path d="m11.87,367.9c.25-.58.53-1.16.85-1.71v-.75" fill="none" stroke="#000" stroke-width=".4"/><path d="m13.74,365.5v.75c.3.53.58,1.08.82,1.65" fill="none" stroke="#000" stroke-width=".4"/><path d="m8.29,368.6c-.36-1.09-.82-2.14-1.39-3.14h-1.02c-.94,1.65-1.6,3.45-1.95,5.32h4.91" fill="#333" stroke="#000" stroke-width=".4"/><path d="m18.13,365.1c.04.11.09.21.16.3h3.48c.15-.2.23-.44.22-.68" fill="none" stroke="#000" stroke-width=".4"/><path d="m17.57,370.7h4.91c-.35-1.87-1.01-3.66-1.95-5.32h-1.02c-.57,1-1.03,2.05-1.39,3.14" fill="#333" stroke="#000" stroke-width=".4"/><path d="m9.68,365.4c-.94,1.65-1.6,3.45-1.95,5.32h4.91c-.35-1.87-1.01-3.66-1.95-5.32h-1.02Z" fill="#333" stroke="#000" stroke-width=".4"/><path d="m3.88,310.39V68.39" fill="none" stroke="#000" stroke-width=".4"/><path d="m22.53,354.91v8.31c-.02.54-.19,1.06-.49,1.51H4.37c-.3-.45-.46-.97-.49-1.51v-8.31" fill="none" stroke="#000" stroke-width=".4"/><path d="m16.74,365.4c.94,1.65,1.6,3.45,1.95,5.32h-4.91c.35-1.87,1.01-3.66,1.95-5.32" fill="#333" stroke="#000" stroke-width=".4"/><path d="m14.49,365.4h3.48" fill="none" stroke="#000" stroke-width=".4"/><path d="m4.43,364.7c-.01.25.07.49.22.68h3.48c.07-.09.12-.19.16-.3" fill="none" stroke="#000" stroke-width=".4"/><path d="m8.23,364.7c-.01.25.07.49.22.68" fill="none" stroke="#000" stroke-width=".4"/><path d="m3.88,151.7h18.65" fill="none" stroke="#000" stroke-width=".4"/><path d="m14.61,238.3h-3.87l-.14.11v3.44h1.07v-1.29l.1-.09h2.84c.72,0,1.05-.19,1.05-.69v-.79c0-.5-.34-.69-1.05-.69m0,1.27c0,.23-.15.28-.49.28h-2.34l-.11-.11v-.74l.1-.09h2.35c.34,0,.49.05.49.28v.38h0Z" fill="#005288" stroke-width="0"/><polyline points="12.36 246.13 13.29 247.48 13.23 247.61 11.2 247.61 10.68 248.25 13.71 248.25 13.92 248.38 14.39 249.03 15.62 249.03 12.93 245.43" fill="#005288" stroke-width="0"/><polyline points="11.8 264.06 11.8 263.1 11.91 263.01 13.96 263.01 13.96 262.4 10.71 262.4 10.71 264.76 15.5 264.76 15.5 264.15 11.91 264.15" fill="#005288" stroke-width="0"/><rect x="10.71" y="261.21" width="4.84" height=".67" fill="#005288" stroke-width="0"/><path d="m11.78,253.8h3.9c-.06-.5-.37-.63-1.15-.63h-2.79c-.88,0-1.16.17-1.16.84v1.87c0,.67.28.84,1.16.84h2.79c.79,0,1.1-.15,1.12-.66h-3.87l-.11-.11v-2.07" fill="#005288" stroke-width="0"/><path d="m14.57,231.5h-2.84l-.08-.09v-.61l.08-.06h3.83l.05-.13c-.13-.34-.47-.49-1.09-.49h-2.66c-.88,0-1.16.17-1.16.84v.39c0,.67.28.84,1.16.84h2.83l.09.08v.63l-.07.1h-3.24s-.85,0-.85,0c0,0-.1.05-.09.07.07.47.39.6,1.15.6h2.9c.88,0,1.17-.17,1.17-.84v-.49c0-.67-.29-.84-1.17-.84" fill="#005288" stroke-width="0"/><path d="m11.84,269.43h-1.59l-.09.16,1.77,1.29c.34-.19.7-.39,1.1-.58" fill="#005288" stroke-width="0"/><path d="m13.26,271.86l1.56,1.13h1.61l.07-.15-2.32-1.7c-.31.23-.61.47-.91.72" fill="#005288" stroke-width="0"/><path d="m11.6,272.99h-1.44l-.12-.19c.98-.95,5.46-4.5,11.28-4.96,0,0-5.1.57-9.72,5.15" fill="#a7a9ac" stroke-width="0"/><rect x="8.59" y="174.1" width="9.2" height="5.17" fill="#b22234" stroke-width="0"/><path d="m8.59,174.7h9.2m0,.8h-9.2m0,.8h9.2m0,.8h-9.2m0,.8h9.2m0,.8h-9.2" stroke="#fff" stroke-miterlimit="10" stroke-width=".37"/><rect x="8.59" y="174.1" width="3.68" height="2.78" fill="#3c3b6e" stroke-width="0"/><path d="m8.89,174.22l.09.29-.23-.18h.28l-.23.18.09-.29Z" fill="#fff" stroke-width="0"/><path id="s" d="m8.89,174.78l.09.29-.23-.18h.28l-.23.18.09-.29Z" fill="#fff" stroke-width="0"/><path id="s-2" d="m8.89,175.34l.09.29-.23-.18h.28l-.23.18.09-.29Z" fill="#fff" stroke-width="0"/><path id="s-3" d="m8.89,175.89l.09.29-.23-.18h.28l-.23.18.09-.29Z" fill="#fff" stroke-width="0"/><path id="s-4" d="m8.89,176.45l.09.29-.23-.18h.28l-.23.18.09-.29Z" fill="#fff" stroke-width="0"/><g id="d"><path id="s-5" d="m9.2,174.5l.09.29-.23-.18h.28l-.23.18.09-.29Z" fill="#fff" stroke-width="0"/><path id="s-6" d="m9.2,175.06l.09.29-.23-.18h.28l-.23.18.09-.29Z" fill="#fff" stroke-width="0"/><path id="s-7" d="m9.2,175.62l.09.29-.23-.18h.28l-.23.18.09-.29Z" fill="#fff" stroke-width="0"/><path id="s-8" d="m9.2,176.17l.09.29-.23-.18h.28l-.23.18.09-.29Z" fill="#fff" stroke-width="0"/></g><g id="a"><g id="c"><g id="d-2"><path id="s-9" d="m9.51,174.22l.09.29-.23-.18h.28l-.23.18.09-.29Z" fill="#fff" stroke-width="0"/><path id="s-10" d="m9.51,174.78l.09.29-.23-.18h.28l-.23.18.09-.29Z" fill="#fff" stroke-width="0"/><path id="s-11" d="m9.51,175.34l.09.29-.23-.18h.28l-.23.18.09-.29Z" fill="#fff" stroke-width="0"/><path id="s-12" d="m9.51,175.89l.09.29-.23-.18h.28l-.23.18.09-.29Z" fill="#fff" stroke-width="0"/></g><path id="s-13" d="m9.51,176.45l.09.29-.23-.18h.28l-.23.18.09-.29Z" fill="#fff" stroke-width="0"/></g><g id="d-3"><path id="s-14" d="m9.81,174.5l.09.29-.23-.18h.28l-.23.18.09-.29Z" fill="#fff" stroke-width="0"/><path id="s-15" d="m9.81,175.06l.09.29-.23-.18h.28l-.23.18.09-.29Z" fill="#fff" stroke-width="0"/><path id="s-16" d="m9.81,175.62l.09.29-.23-.18h.28l-.23.18.09-.29Z" fill="#fff" stroke-width="0"/><path id="s-17" d="m9.81,176.17l.09.29-.23-.18h.28l-.23.18.09-.29Z" fill="#fff" stroke-width="0"/></g></g><g id="e"><g id="a-2"><g id="c-2"><g id="d-4"><path id="s-18" d="m10.12,174.22l.09.29-.23-.18h.28l-.23.18.09-.29Z" fill="#fff" stroke-width="0"/><path id="s-19" d="m10.12,174.78l.09.29-.23-.18h.28l-.23.18.09-.29Z" fill="#fff" stroke-width="0"/><path id="s-20" d="m10.12,175.34l.09.29-.23-.18h.28l-.23.18.09-.29Z" fill="#fff" stroke-width="0"/><path id="s-21" d="m10.12,175.89l.09.29-.23-.18h.28l-.23.18.09-.29Z" fill="#fff" stroke-width="0"/></g><path id="s-22" d="m10.12,176.45l.09.29-.23-.18h.28l-.23.18.09-.29Z" fill="#fff" stroke-width="0"/></g><g id="d-5"><path id="s-23" d="m10.43,174.5l.09.29-.23-.18h.28l-.23.18.09-.29Z" fill="#fff" stroke-width="0"/><path id="s-24" d="m10.43,175.06l.09.29-.23-.18h.28l-.23.18.09-.29Z" fill="#fff" stroke-width="0"/><path id="s-25" d="m10.43,175.62l.09.29-.23-.18h.28l-.23.18.09-.29Z" fill="#fff" stroke-width="0"/><path id="s-26" d="m10.43,176.17l.09.29-.23-.18h.28l-.23.18.09-.29Z" fill="#fff" stroke-width="0"/></g></g><g id="a-3"><g id="c-3"><g id="d-6"><path id="s-27" d="m10.73,174.22l.09.29-.23-.18h.28l-.23.18.09-.29Z" fill="#fff" stroke-width="0"/><path id="s-28" d="m10.73,174.78l.09.29-.23-.18h.28l-.23.18.09-.29Z" fill="#fff" stroke-width="0"/><path id="s-29" d="m10.73,175.34l.09.29-.23-.18h.28l-.23.18.09-.29Z" fill="#fff" stroke-width="0"/><path id="s-30" d="m10.73,175.89l.09.29-.23-.18h.28l-.23.18.09-.29Z" fill="#fff" stroke-width="0"/></g><path id="s-31" d="m10.73,176.45l.09.29-.23-.18h.28l-.23.18.09-.29Z" fill="#fff" stroke-width="0"/></g><g id="d-7"><path id="s-32" d="m11.04,174.5l.09.29-.23-.18h.28l-.23.18.09-.29Z" fill="#fff" stroke-width="0"/><path id="s-33" d="m11.04,175.06l.09.29-.23-.18h.28l-.23.18.09-.29Z" fill="#fff" stroke-width="0"/><path id="s-34" d="m11.04,175.62l.09.29-.23-.18h.28l-.23.18.09-.29Z" fill="#fff" stroke-width="0"/><path id="s-35" d="m11.04,176.17l.09.29-.23-.18h.28l-.23.18.09-.29Z" fill="#fff" stroke-width="0"/></g></g></g><g id="a-4"><g id="c-4"><g id="d-8"><path id="s-36" d="m11.35,174.22l.09.29-.23-.18h.28l-.23.18.09-.29Z" fill="#fff" stroke-width="0"/><path id="s-37" d="m11.35,174.78l.09.29-.23-.18h.28l-.23.18.09-.29Z" fill="#fff" stroke-width="0"/><path id="s-38" d="m11.35,175.34l.09.29-.23-.18h.28l-.23.18.09-.29Z" fill="#fff" stroke-width="0"/><path id="s-39" d="m11.35,175.89l.09.29-.23-.18h.28l-.23.18.09-.29Z" fill="#fff" stroke-width="0"/></g><path id="s-40" d="m11.35,176.45l.09.29-.23-.18h.28l-.23.18.09-.29Z" fill="#fff" stroke-width="0"/></g><g id="d-9"><path id="s-41" d="m11.65,174.5l.09.29-.23-.18h.28l-.23.18.09-.29Z" fill="#fff" stroke-width="0"/><path id="s-42" d="m11.65,175.06l.09.29-.23-.18h.28l-.23.18.09-.29Z" fill="#fff" stroke-width="0"/><path id="s-43" d="m11.65,175.62l.09.29-.23-.18h.28l-.23.18.09-.29Z" fill="#fff" stroke-width="0"/><path id="s-44" d="m11.65,176.17l.09.29-.23-.18h.28l-.23.18.09-.29Z" fill="#fff" stroke-width="0"/></g></g><g id="c-5"><g id="d-10"><path id="s-45" d="m11.96,174.22l.09.29-.23-.18h.28l-.23.18.09-.29Z" fill="#fff" stroke-width="0"/><path id="s-46" d="m11.96,174.78l.09.29-.23-.18h.28l-.23.18.09-.29Z" fill="#fff" stroke-width="0"/><path id="s-47" d="m11.96,175.34l.09.29-.23-.18h.28l-.23.18.09-.29Z" fill="#fff" stroke-width="0"/><path id="s-48" d="m11.96,175.89l.09.29-.23-.18h.28l-.23.18.09-.29Z" fill="#fff" stroke-width="0"/></g><path id="s-49" d="m11.96,176.45l.09.29-.23-.18h.28l-.23.18.09-.29Z" fill="#fff" stroke-width="0"/></g><path d="m10.53,166.36c.31-.16.62-.33.94-.45-3.67-1.93-3.88-3.38-4.63-4.91.58,1.77,1.07,3.54,3.69,5.36h0Z" fill="#a80126" fill-rule="evenodd" stroke-width="0"/><path d="m8.61,163.46c1.4,1.17,2.61,2,3.51,2.26.89-.47,3.81-.73,3.75-.06-.64-.32-1.02-.17-1.39-.05.18,0,.67-.06.81,0-.06.07-.12.1-.19.14.24.05.46.12.65.23.12-.01.2,0,.24.03-.12.03-.27.19-.34.3.81.02,1.68.02,1.77.87.26-.76-.2-1.16-1.1-1.33-.12-.26-.31-.48-.49-.73-2.45-.14-4.89-.3-7.22-1.65h0Z" fill="#a80126" fill-rule="evenodd" stroke-width="0"/><path d="m6.69,169.38v-1.48h.99c-.04.05-.07.1-.16.14h-.62v.39h.55s-.07.09-.13.11h-.43v.53c-.05.12-.1.23-.21.32h0Z" fill-rule="evenodd" stroke-width="0"/><path d="m9.37,168.05v1.08h.28v-1.02c-.38-.35-.76-.35-1.14,0v1.02h.25v-.6h.2s.08-.05.1-.09h-.29v-.39c.23-.16.41-.16.6,0h0Z" fill-rule="evenodd" stroke-width="0"/><path d="m12.31,169.17h-1.14v-1.25h.29v1.15h1s-.06.09-.15.1h0Z" fill-rule="evenodd" stroke-width="0"/><path d="m14.01,167.9v.25c-.46.62.32,1.37,1.2.82h.07c-.55.6-2.54.1-1.27-1.07h0Z" fill-rule="evenodd" stroke-width="0"/><path d="m13.41,167.93v.45c.44-.79,1.05-1.18,2.91-.66-1.79-.7-2.45-.33-2.91.21Z" fill-rule="evenodd" stroke-width="0"/><path d="m16.89,167.8c-.37,0-.75.26-.75.73,0,.94,1.49.99,1.49,0,0-.5-.37-.73-.75-.73h0Zm0,.1c.22,0,.44.21.45.63,0,.85-.88.83-.88,0,0-.41.22-.63.44-.63h0Z" fill-rule="evenodd" stroke-width="0"/><path d="m19.02,168.05v1.13h-.22v-1.18l.22-.11v.05c.34,0,.58.15.64.24v1.01h-.22v-.99c-.08-.13-.17-.17-.43-.17v.03Z" fill-rule="evenodd" stroke-width="0"/><path d="m13.2,170.05c-2.3.01-1.7,1.85-.43,1.82.59-.02.7-.08,1.1-.5-.25,1.24-1.09,1.24-2.11,1.34-.13.08-.15.1-.24.24,1.72-.03,3.17-.34,3.13-1.68-.03-.94-.66-1.22-1.45-1.21h0Zm-.03.22c.42,0,.76.27.76.6h0c0,.33-.34.6-.76.6-.42,0-.76-.27-.76-.59,0-.33.34-.6.76-.6Z" fill-rule="evenodd" stroke-width="0"/><path d="m22.52,152.05l1.28,2.21v21.3l-.53,3.45v176.4l-.97,3.69v-33.5l-.5-1.62v-2.88l.47-1.76v-15.93l-.55-2.06v-4.13l.46-2.12v-110.06l-.44-2.44v-30.5l.78-.05Z" fill="#101010" fill-rule="evenodd" stroke="#000" stroke-linecap="round" stroke-linejoin="round" stroke-width=".4"/><path d="m3.88,360.3h18.65" fill="none" stroke="#000" stroke-width=".4"/><path d="m3.88,346.34h18.65" fill="none" stroke="#000" stroke-width=".4"/><rect x="3.31" y="360.7" width=".48" height=".45" fill="#101010" stroke-width="0"/><path d="m6.23,306.11h-.06s-.06.01-.06.01l-.06.02-.06.02-.06.03-.06.03-.06.04-.06.05-.06.05-.06.06-.07.07-.07.08-.07.08-.07.09-.07.1-.07.11-.07.12-.07.13-.07.14-.08.14-.08.15-.08.16-.08.16-.07.17-.07.17-.07.17-.07.17-.07.17-.07.17-.06.17-.06.17-.06.17-.05.17-.05.17-.04.17-.04.17-.04.17-.04.17-.03.15v.04s-.04.08-.04.08l-.03.08-.05.15-.05.14-.05.14-.04.14-.04.14-.04.14-.04.14-.04.13-.04.14-.03.14-.03.14-.03.14-.03.15v.08s-.03.08-.03.08l-.02.08v.08s-.03.08-.03.08v.08s-.03.09-.03.09v.09s-.03.09-.03.09l-.02.09v.05s0,.01,0,.01h0v.05s-.02.45-.02.45l-.06,1.8-.24,7.21-.48,14.43-.48,14.43-.24,7.21v.11s0,.06,0,.06h0s0,.02,0,.02v.02s.01.05.01.05l.02.09.04.19.02.09.05.19.03.09.03.09.04.09.04.09.04.09.05.09.05.09.06.09.06.09.07.09.04.04.04.04.04.04.04.04.04.04.04.04.05.04.05.04.05.04.05.04.05.04.11.08.06.04.06.04.06.04.06.04.03.02h.07s.01-.02.01-.02l.02-.02h0s0-.03,0-.03h0s0-.03,0-.03v-.03s.02-.13.02-.13l.03-.26.03-.26.03-.26.03-.26.06-.54.03-.27.06-.55.03-.28.06-.55.06-.56.06-.56.06-.56.12-1.13.06-.56.06-.56.06-.55.06-.55.03-.27.03-.27.03-.27.03-.27.03-.26.03-.26.03-.26.03-.26.03-.26.03-.25.04-.25.03-.24.04-.24.04-.24.04-.23.04-.23.04-.23.04-.22.04-.22.04-.21.05-.14.08-.15.11-.16.13-.16.16-.15.18-.14.2-.11.21-.08.22-.04h.23l.24.05.24.11.4,1.06.42,1.17.42,1.17.42,1.17.42,1.17.42,1.17.42,1.17.42,1.17.42,1.17.42,1.17.42,1.17.42,1.17.11.28.02.03.02.03.02.03.03.03.03.03.03.02.03.02.03.02.03.02.03.02h.03s.07.03.07.03h.03s.3.01.3.01l.05-.03.05-.05.05-.07.05-.09.05-.11.04-.13.04-.14.04-.15.03-.16.03-.16.02-.16-.19-1.82-.45-3.82-.45-3.81-.45-3.82-.45-3.81-.45-3.82-.45-3.81-.45-3.82-.45-3.81-.45-3.82-.45-3.81-.45-3.82-.29-2.58v-.25s0-.25,0-.25v-.5s0-.25,0-.25v-.25s0-.25,0-.25v-.5s0-.25,0-.25v-.25s-.01-.31-.01-.31l-.04-.49-.04-.44-.04-.4-.04-.36-.04-.32-.04-.29-.04-.26-.04-.23-.04-.21-.04-.19-.04-.17-.04-.16-.04-.14-.05-.13-.04-.12-.05-.11-.05-.1-.05-.09-.05-.08-.05-.07-.05-.07-.05-.06-.05-.05-.05-.04-.05-.04-.05-.03-.05-.03-.06-.02h-.06s-.06-.02-.06-.02h-.06Z" fill="url(#linear-gradient-5)" stroke-width="0"/><path d="m3.16,361.6l.69-6.28.17-1.97.61-4.62.09-.64.33-.53.42-.38.42-.19.44-.05.3.05.27.2,5.09,14.12.3.27.34.06-.02-.23-7.69-20.67-.38-.42-.41-.27-.42.11-.17.52-1.61,19.91.39.5.39.36.44.16Z" fill="url(#linear-gradient-6)" fill-rule="evenodd" stroke-width="0"/><path d="m7.71,310.97l-1.23-1.31" fill="none" stroke="#000" stroke-width=".4"/><path d="m6.48,309.66h-2.43" fill="none" stroke="#000" stroke-width=".4"/><path d="m3.96,340.02l.17-24.12" fill="none" stroke="#000" stroke-width=".4"/><path d="m4.14,315.9l2.16-2.93" fill="none" stroke="#000" stroke-width=".4"/><path d="m4.14,315.9l-1.03-2.67" fill="none" stroke="#000" stroke-width=".4"/><path d="m6.3,312.98l.18-3.32" fill="none" stroke="#000" stroke-linecap="round" stroke-width=".4"/><path d="m3.27,360.7h.61" fill="none" stroke="#000" stroke-width=".4"/><path d="m3.19,361.3h.69" fill="none" stroke="#000" stroke-width=".4"/><path d="m1.95,360.6l.36-4.51.12-1.5.59-7.51.12-1.5.36-4.51.05-.48.03-.12.04-.1.04-.09.05-.07.05-.06.06-.04.06-.03.06-.02h.06s.07-.01.07-.01h.07s.07.03.07.03l.06.03.06.03.06.04.06.04.06.05.06.05.06.05.05.06.05.06.05.06.05.06.05.06.04.06.18.44,1.75,4.71.58,1.57,1.75,4.71,1.17,3.14.58,1.57,1.17,3.14.58,1.57" fill="none" stroke="#000" stroke-width=".4"/><path d="m6.23,306.11h-.06s-.06.01-.06.01l-.06.02-.06.02-.06.03-.06.03-.06.04-.06.05-.06.05-.06.06-.07.07-.07.08-.07.08-.07.09-.07.1-.07.11-.07.12-.07.13-.07.14-.08.14-.08.15-.08.16-.08.16-.07.17-.07.17-.07.17-.07.17-.07.17-.07.17-.06.17-.06.17-.06.17-.05.17-.05.17-.04.17-.04.17-.04.17-.04.17-.03.15v.04s-.04.08-.04.08l-.03.08-.05.15-.05.14-.05.14-.04.14-.04.14-.04.14-.04.14-.04.13-.04.14-.03.14-.03.14-.03.14-.03.15v.08s-.03.08-.03.08l-.02.08v.08s-.03.08-.03.08v.08s-.03.09-.03.09v.09s-.03.09-.03.09l-.02.09v.05s0,.01,0,.01h0v.05s-.02.45-.02.45l-.06,1.8-.24,7.21-.48,14.43-.48,14.43-.24,7.21v.11s0,.06,0,.06h0s0,.02,0,.02v.02s.01.05.01.05l.02.09.04.19.02.09.05.19.03.09.03.09.04.09.04.09.04.09.05.09.05.09.06.09.06.09.07.09.04.04.04.04.04.04.04.04.04.04.04.04.05.04.05.04.05.04.05.04.05.04.11.08.06.04.06.04.06.04.06.04.03.02h.07s.01-.02.01-.02l.02-.02h0s0-.03,0-.03h0s0-.03,0-.03v-.03s.02-.13.02-.13l.03-.26.03-.26.03-.26.03-.26.06-.54.03-.27.06-.55.03-.28.06-.55.06-.56.06-.56.06-.56.12-1.13.06-.56.06-.56.06-.55.06-.55.03-.27.03-.27.03-.27.03-.27.03-.26.03-.26.03-.26.03-.26.03-.26.03-.25.04-.25.03-.24.04-.24.04-.24.04-.23.04-.23.04-.23.04-.22.04-.22.04-.21.05-.14.08-.15.11-.16.13-.16.16-.15.18-.14.2-.11.21-.08.22-.04h.23l.24.05.24.11.4,1.06.42,1.17.42,1.17.42,1.17.42,1.17.42,1.17.42,1.17.42,1.17.42,1.17.42,1.17.42,1.17.42,1.17.11.28.02.03.02.03.02.03.03.03.03.03.03.02.03.02.03.02.03.02.03.02h.03s.07.03.07.03h.03s.3.01.3.01l.05-.03.05-.05.05-.07.05-.09.05-.11.04-.13.04-.14.04-.15.03-.16.03-.16.02-.16-.19-1.82-.45-3.82-.45-3.81-.45-3.82-.45-3.81-.45-3.82-.45-3.81-.45-3.82-.45-3.81-.45-3.82-.45-3.81-.45-3.82-.29-2.58v-.25s0-.25,0-.25v-.5s0-.25,0-.25v-.25s0-.25,0-.25v-.5s0-.25,0-.25v-.25s-.01-.31-.01-.31l-.04-.49-.04-.44-.04-.4-.04-.36-.04-.32-.04-.29-.04-.26-.04-.23-.04-.21-.04-.19-.04-.17-.04-.16-.04-.14-.05-.13-.04-.12-.05-.11-.05-.1-.05-.09-.05-.08-.05-.07-.05-.07-.05-.06-.05-.05-.05-.04-.05-.04-.05-.03-.05-.03-.06-.02h-.06s-.06-.02-.06-.02h-.06Z" fill="none" stroke="#000" stroke-width=".4"/><rect x="22.65" y="360.7" width=".48" height=".45" fill="#101010" stroke-width="0"/><path d="m20.21,306.11h.06s.06.01.06.01l.06.02.06.02.06.03.06.03.06.04.06.05.06.05.06.06.07.07.07.08.07.08.07.09.07.1.07.11.07.12.07.13.07.14.08.14.08.15.08.16.08.16.07.17.07.17.07.17.07.17.07.17.07.17.06.17.06.17.06.17.05.17.05.17.04.17.04.17.04.17.04.17.03.15v.04s.04.08.04.08l.03.08.05.15.05.14.05.14.04.14.04.14.04.14.04.14.04.13.04.14.03.14.03.14.03.14.03.15v.08s.03.08.03.08l.02.08v.08s.03.08.03.08v.08s.03.09.03.09v.09s.03.09.03.09l.02.09v.05s0,.01,0,.01h0v.05s.02.45.02.45l.06,1.8.24,7.21.48,14.43.48,14.43.24,7.21v.11s0,.06,0,.06h0s0,.02,0,.02v.02s-.01.05-.01.05l-.02.09-.04.19-.02.09-.05.19-.03.09-.03.09-.04.09-.04.09-.04.09-.05.09-.05.09-.06.09-.06.09-.07.09-.04.04-.04.04-.04.04-.04.04-.04.04-.04.04-.05.04-.05.04-.05.04-.05.04-.05.04-.11.08-.06.04-.06.04-.06.04-.06.04-.03.02h-.07s-.01-.02-.01-.02l-.02-.02h0s0-.03,0-.03h0s0-.03,0-.03v-.03s-.02-.13-.02-.13l-.03-.26-.03-.26-.03-.26-.03-.26-.06-.54-.03-.27-.06-.55-.03-.28-.06-.55-.06-.56-.06-.56-.06-.56-.12-1.13-.06-.56-.06-.56-.06-.55-.06-.55-.03-.27-.03-.27-.03-.27-.03-.27-.03-.26-.03-.26-.03-.26-.03-.26-.03-.26-.03-.25-.04-.25-.03-.24-.04-.24-.04-.24-.04-.23-.04-.23-.04-.23-.04-.22-.04-.22-.04-.21-.05-.14-.08-.15-.11-.16-.13-.16-.16-.15-.18-.14-.2-.11-.21-.08-.22-.04h-.23l-.24.05-.24.11-.4,1.06-.42,1.17-.42,1.17-.42,1.17-.42,1.17-.42,1.17-.42,1.17-.42,1.17-.42,1.17-.42,1.17-.42,1.17-.42,1.17-.11.28-.02.03-.02.03-.02.03-.03.03-.03.03-.03.02-.03.02-.03.02-.03.02-.03.02h-.03s-.07.03-.07.03h-.03s-.3.01-.3.01l-.05-.03-.05-.05-.05-.07-.05-.09-.05-.11-.04-.13-.04-.14-.04-.15-.03-.16-.03-.16-.02-.16.19-1.82.45-3.82.45-3.81.45-3.82.45-3.81.45-3.82.45-3.81.45-3.82.45-3.81.45-3.82.45-3.81.45-3.82.29-2.58v-.25s0-.25,0-.25v-.5s0-.25,0-.25v-.25s0-.25,0-.25v-.5s0-.25,0-.25v-.25s.01-.31.01-.31l.04-.49.04-.44.04-.4.04-.36.04-.32.04-.29.04-.26.04-.23.04-.21.04-.19.04-.17.04-.16.04-.14.05-.13.04-.12.05-.11.05-.1.05-.09.05-.08.05-.07.05-.07.05-.06.05-.05.05-.04.05-.04.05-.03.05-.03.06-.02h.06s.06-.02.06-.02h.06Z" fill="url(#linear-gradient-7)" stroke-width="0"/><path d="m23.28,361.6l-.69-6.28-.17-1.97-.61-4.62-.09-.64-.33-.53-.42-.38-.42-.19-.44-.05-.3.05-.27.2-5.09,14.12-.3.27-.34.06.02-.23,7.69-20.67.38-.42.41-.27.42.11.17.52,1.61,19.91-.39.5-.39.36-.44.16Z" fill="url(#linear-gradient-8)" fill-rule="evenodd" stroke-width="0"/><path d="m18.73,310.97l1.23-1.31" fill="none" stroke="#000" stroke-width=".4"/><path d="m19.96,309.66h2.43" fill="none" stroke="#000" stroke-width=".4"/><path d="m22.48,340.02l-.17-24.12" fill="none" stroke="#000" stroke-width=".4"/><path d="m22.3,315.9l-2.16-2.93" fill="none" stroke="#000" stroke-width=".4"/><path d="m22.3,315.9l1.03-2.67" fill="none" stroke="#000" stroke-width=".4"/><path d="m20.14,312.98l-.18-3.32" fill="none" stroke="#000" stroke-linecap="round" stroke-width=".4"/><path d="m23.17,360.7h-.61" fill="none" stroke="#000" stroke-width=".4"/><path d="m23.25,361.3h-.69" fill="none" stroke="#000" stroke-width=".4"/><path d="m24.49,360.6l-.36-4.51-.12-1.5-.59-7.51-.12-1.5-.36-4.51-.05-.48-.03-.12-.04-.1-.04-.09-.05-.07-.05-.06-.06-.04-.06-.03-.06-.02h-.06s-.07-.01-.07-.01h-.07s-.07.03-.07.03l-.06.03-.06.03-.06.04-.06.04-.06.05-.06.05-.06.05-.05.06-.05.06-.05.06-.05.06-.05.06-.04.06-.18.44-1.75,4.71-.58,1.57-1.75,4.71-1.17,3.14-.58,1.57-1.17,3.14-.58,1.57" fill="none" stroke="#000" stroke-width=".4"/><path d="m20.21,306.11h.06s.06.01.06.01l.06.02.06.02.06.03.06.03.06.04.06.05.06.05.06.06.07.07.07.08.07.08.07.09.07.1.07.11.07.12.07.13.07.14.08.14.08.15.08.16.08.16.07.17.07.17.07.17.07.17.07.17.07.17.06.17.06.17.06.17.05.17.05.17.04.17.04.17.04.17.04.17.03.15v.04s.04.08.04.08l.03.08.05.15.05.14.05.14.04.14.04.14.04.14.04.14.04.13.04.14.03.14.03.14.03.14.03.15v.08s.03.08.03.08l.02.08v.08s.03.08.03.08v.08s.03.09.03.09v.09s.03.09.03.09l.02.09v.05s0,.01,0,.01h0v.05s.02.45.02.45l.06,1.8.24,7.21.48,14.43.48,14.43.24,7.21v.11s0,.06,0,.06h0s0,.02,0,.02v.02s-.01.05-.01.05l-.02.09-.04.19-.02.09-.05.19-.03.09-.03.09-.04.09-.04.09-.04.09-.05.09-.05.09-.06.09-.06.09-.07.09-.04.04-.04.04-.04.04-.04.04-.04.04-.04.04-.05.04-.05.04-.05.04-.05.04-.05.04-.11.08-.06.04-.06.04-.06.04-.06.04-.03.02h-.07s-.01-.02-.01-.02l-.02-.02h0s0-.03,0-.03h0s0-.03,0-.03v-.03s-.02-.13-.02-.13l-.03-.26-.03-.26-.03-.26-.03-.26-.06-.54-.03-.27-.06-.55-.03-.28-.06-.55-.06-.56-.06-.56-.06-.56-.12-1.13-.06-.56-.06-.56-.06-.55-.06-.55-.03-.27-.03-.27-.03-.27-.03-.27-.03-.26-.03-.26-.03-.26-.03-.26-.03-.26-.03-.25-.04-.25-.03-.24-.04-.24-.04-.24-.04-.23-.04-.23-.04-.23-.04-.22-.04-.22-.04-.21-.05-.14-.08-.15-.11-.16-.13-.16-.16-.15-.18-.14-.2-.11-.21-.08-.22-.04h-.23l-.24.05-.24.11-.4,1.06-.42,1.17-.42,1.17-.42,1.17-.42,1.17-.42,1.17-.42,1.17-.42,1.17-.42,1.17-.42,1.17-.42,1.17-.42,1.17-.11.28-.02.03-.02.03-.02.03-.03.03-.03.03-.03.02-.03.02-.03.02-.03.02-.03.02h-.03s-.07.03-.07.03h-.03s-.3.01-.3.01l-.05-.03-.05-.05-.05-.07-.05-.09-.05-.11-.04-.13-.04-.14-.04-.15-.03-.16-.03-.16-.02-.16.19-1.82.45-3.82.45-3.81.45-3.82.45-3.81.45-3.82.45-3.81.45-3.82.45-3.81.45-3.82.45-3.81.45-3.82.29-2.58v-.25s0-.25,0-.25v-.5s0-.25,0-.25v-.25s0-.25,0-.25v-.5s0-.25,0-.25v-.25s.01-.31.01-.31l.04-.49.04-.44.04-.4.04-.36.04-.32.04-.29.04-.26.04-.23.04-.21.04-.19.04-.17.04-.16.04-.14.05-.13.04-.12.05-.11.05-.1.05-.09.05-.08.05-.07.05-.07.05-.06.05-.05.05-.04.05-.04.05-.03.05-.03.06-.02h.06s.06-.02.06-.02h.06Z" fill="none" stroke="#000" stroke-width=".4"/><path d="m.44,60.98c-.06-1-.09-9.85-.05-19.67.07-19.4.06-19.16,1.12-24.12,1.21-5.66,3.52-10.11,7.44-14.31,1.55-1.66,2.79-2.49,3.73-2.49h.4s0,62.4,0,62.4H.56l-.12-1.81h0Z" fill="url(#linear-gradient-9)" stroke-width="0"/><path d="m3.93,69.29c-.09-.12-.75-1.29-1.46-2.61-.71-1.31-1.44-2.65-1.63-2.96l-.34-.57h12.58v6.36h-4.49c-3.38,0-4.53-.05-4.66-.22h0Z" fill="url(#linear-gradient-10)" stroke-width="0"/><path d="m26.03,60.98c.06-1,.09-9.85.05-19.67-.07-19.4-.06-19.16-1.12-24.12-1.21-5.66-3.52-10.11-7.44-14.31-1.55-1.66-2.79-2.49-3.73-2.49h-.4s0,62.4,0,62.4h12.52l.12-1.81h0Z" fill="url(#linear-gradient-11)" stroke-width="0"/><path d="m22.54,69.29c.09-.12.75-1.29,1.46-2.61.71-1.31,1.44-2.65,1.63-2.96l.34-.57h-12.58v6.36h4.49c3.38,0,4.53-.05,4.66-.22h0Z" fill="url(#linear-gradient-12)" stroke-width="0"/><path d="m3.88,69.62h18.65" fill="none" stroke="#000" stroke-width=".4"/><path d="m.24,62.94h25.92" fill="none" stroke="#000" stroke-width=".4"/><path d="m3.88,69.62l-.39-.71-1.56-2.86-.39-.71-.39-.71-.78-1.43-.14-2.86V25.1s.06-.53.06-.53l.05-.53.05-.53.05-.53.06-.53.06-.53.06-.53.07-.53.07-.53.08-.53.08-.53.09-.53.1-.53.1-.53.11-.53.12-.53.12-.52.13-.52.14-.52.15-.52.15-.51.16-.51.17-.5.18-.5.19-.5.2-.49.21-.49.22-.48.23-.48.23-.47.24-.47.25-.46.26-.46.27-.45.28-.45.29-.44.3-.44.31-.44.32-.43.32-.43.33-.43.34-.43.35-.42.36-.42.37-.42.37-.42.38-.41.4-.39.41-.37.42-.34.44-.29.46-.24.49-.18.51-.12.54-.07h.57s.54.06.54.06l.51.12.49.18.46.24.44.29.43.34.41.37.4.39.38.41.37.42.37.42.36.42.35.42.34.43.33.43.32.43.32.43.31.44.3.44.29.44.28.45.27.45.26.46.25.46.24.47.24.47.23.48.22.48.21.49.2.49.19.5.18.5.17.5.16.51.15.51.15.52.14.52.13.52.12.52.12.53.11.53.1.53.09.53.09.53.08.53.07.53.07.53.06.53.06.53.05.53.05.53.05.53.05.53.04.53.04.53v2.99s.01,32.24.01,32.24l-.14,2.86-.78,1.43-1.56,2.86-.39.71-.78,1.43" fill="none" stroke="#000" stroke-width=".4"/><path d="m13.2,69.62V.22" fill="none" stroke="#000" stroke-width=".4"/><path d="m20.56,146.39l.82.38.22.9-.58.74-1.07.06-.61-.68.15-.84.44-.51.63-.05Z" fill="#1a1a1a" fill-rule="evenodd" stroke-width="0"/><path d="m18.8,148.56l-.53-.07-1.3,1.59-.02.93-.16.77.2.84-.18.93.12.77-.14.69.2.69-.18.82.08.55-.06.82.65.2-.02-7.92,1.34-1.62Z" fill="#474747" fill-rule="evenodd" stroke-width="0"/><path d="m17.47,158.14l5.87-.03v-7.95l-1.72-2.6-.69.97-.91.06-.37-.35-.55-.27-.29.66-1.35,1.53v7.98Z" fill="#999" fill-rule="evenodd" stroke-width="0"/><path d="m17.51,150.18v7.87h5.79l-5.79-7.87,1.3-1.63.38-1" fill="none" stroke="#000" stroke-linecap="round" stroke-linejoin="round" stroke-width=".38"/><path d="m17.51,152l4.53,6.02" fill="none" stroke="#000" stroke-linecap="round" stroke-linejoin="round" stroke-width=".38"/><path d="m20.85,158.02l-3.34-4.4" fill="none" stroke="#000" stroke-linecap="round" stroke-linejoin="round" stroke-width=".38"/><path d="m19.75,158l-2.25-2.74" fill="none" stroke="#000" stroke-linecap="round" stroke-linejoin="round" stroke-width=".38"/><path d="m18.56,158.05l-1.05-1.33" fill="none" stroke="#000" stroke-linecap="round" stroke-linejoin="round" stroke-width=".38"/><path d="m23.29,158.03v-7.9l-1.14-1.73" fill="none" stroke="#000" stroke-linecap="round" stroke-linejoin="round" stroke-width=".38"/><path d="m17.52,158.05l5.75-7.88" fill="none" stroke="#000" stroke-linecap="round" stroke-linejoin="round" stroke-width=".38"/><path d="m23.3,152l-4.53,6.02" fill="none" stroke="#000" stroke-linecap="round" stroke-linejoin="round" stroke-width=".38"/><path d="m19.92,158.02l3.34-4.4" fill="none" stroke="#000" stroke-linecap="round" stroke-linejoin="round" stroke-width=".38"/><path d="m21.05,158l2.23-2.73" fill="none" stroke="#000" stroke-linecap="round" stroke-linejoin="round" stroke-width=".38"/><path d="m19.75,158l-2.25-2.74" fill="none" stroke="#000" stroke-linecap="round" stroke-linejoin="round" stroke-width=".38"/><path d="m22.23,158.05l1.05-1.33" fill="none" stroke="#000" stroke-linecap="round" stroke-linejoin="round" stroke-width=".38"/><path d="m17.52,156.54l5.21-7.26" fill="none" stroke="#000" stroke-linecap="round" stroke-linejoin="round" stroke-width=".38"/><path d="m17.49,155.04l4.12-5.87" fill="none" stroke="#000" stroke-linecap="round" stroke-linejoin="round" stroke-width=".38"/><path d="m23.29,156.51l-5.13-7.13" fill="none" stroke="#000" stroke-linecap="round" stroke-linejoin="round" stroke-width=".38"/><path d="m23.29,154.95l-3.98-5.67" fill="none" stroke="#000" stroke-linecap="round" stroke-linejoin="round" stroke-width=".38"/><path d="m17.48,153.38l2.94-4.19,1.24-1.52" fill="none" stroke="#000" stroke-linecap="round" stroke-linejoin="round" stroke-width=".38"/><path d="m23.32,153.38l-2.89-4.22-1.25-1.62" fill="none" stroke="#000" stroke-linecap="round" stroke-linejoin="round" stroke-width=".38"/><path d="m17.51,151.79l1.8-2.5" fill="none" stroke="#000" stroke-linecap="round" stroke-linejoin="round" stroke-width=".38"/><path d="m23.27,151.76l-1.66-2.58" fill="none" stroke="#000" stroke-linecap="round" stroke-linejoin="round" stroke-width=".38"/><path d="m22.19,148.46l-.24-.02-.33.74.09-.78-.03-.75.5.8Z" fill="#474747" fill-rule="evenodd" stroke="#000" stroke-linecap="round" stroke-linejoin="round" stroke-width=".38"/><path d="m18.8,148.55l.19.02.31.71-.11-.88v-.84s-.4.98-.4.98Z" fill="#474747" fill-rule="evenodd" stroke="#000" stroke-linecap="round" stroke-linejoin="round" stroke-width=".38"/><path d="m20.39,147.63v.71h-.13s-.24.25-.24.25l.42.56.52-.51-.23-.27-.13-.02v-.73s-.23,0-.23,0Z" fill="#474747" fill-rule="evenodd" stroke="#000" stroke-linecap="round" stroke-linejoin="round" stroke-width=".38"/><path d="m20,148.63l-.74.08" fill="none" stroke="#000" stroke-linecap="round" stroke-linejoin="round" stroke-width=".38"/><path d="m20.98,148.63l.7.07" fill="none" stroke="#000" stroke-linecap="round" stroke-linejoin="round" stroke-width=".38"/><path d="m18.84,148.52l-.57-.04s-.11.31-.23.44-.52.28-.52.28c0,0,0,.27-.09.43-.1.16-.53.41-.53.41,0,0,.13.54.11.82-.02.28-.25.82-.25.82,0,0,.24.56.24.85s-.23.8-.23.8c0,0,.19.62.19.91s-.16.79-.16.79c0,0,.21.54.2.81s-.24.72-.24.72c0,0,.2.48.19.71,0,.23-.19.61-.19.61l.72.21" fill="none" stroke="#000" stroke-linecap="round" stroke-linejoin="round" stroke-width=".38"/><path d="m16.92,150.04l.54.12" fill="none" stroke="#000" stroke-linecap="round" stroke-linejoin="round" stroke-width=".38"/><path d="m18.15,149.41l-.07,1.55" fill="none" stroke="#000" stroke-linecap="round" stroke-linejoin="round" stroke-width=".38"/><path d="m19.3,149.35l-.07,1.45" fill="none" stroke="#000" stroke-linecap="round" stroke-linejoin="round" stroke-width=".38"/><path d="m21.6,149.25v1.55" fill="none" stroke="#000" stroke-linecap="round" stroke-linejoin="round" stroke-width=".38"/><path d="m22.73,149.33v1.56" fill="none" stroke="#000" stroke-linecap="round" stroke-linejoin="round" stroke-width=".38"/><path d="m18.91,147.62l.48-.02.08-.56.33-.47.59-.17.42-.06-.48-.36h-.73l-.5.41-.19.67v.56Z" fill="#4d4d4d" fill-rule="evenodd" stroke-width="0"/><path d="m21.03,146.45s-.49-.37-.65-.42c-.2-.06-.41-.09-.61-.07-.18.02-.37.08-.51.2-.13.11-.2.28-.26.44-.07.18-.08.38-.1.58-.02.18-.02.55-.02.55l.47.42" fill="none" stroke="#000" stroke-linecap="round" stroke-linejoin="round" stroke-width=".38"/><path d="m19.39,147.54s.01-.35.08-.51c.09-.21.23-.42.43-.53.16-.09.36-.08.55-.09.18,0,.38-.02.55.04.16.06.32.17.43.31.07.1.09.23.12.35.04.18.08.55.08.55" fill="none" stroke="#000" stroke-linecap="round" stroke-linejoin="round" stroke-width=".38"/><path d="m5.88,146.39l-.82.38-.22.9.58.74,1.07.06.61-.68-.15-.84-.44-.51-.63-.05Z" fill="#1a1a1a" fill-rule="evenodd" stroke-width="0"/><path d="m7.64,148.56l.53-.07,1.3,1.59.02.93.16.77-.2.84.18.93-.12.77.14.69-.2.69.18.82-.08.55.06.82-.65.2.02-7.92-1.34-1.62Z" fill="#474747" fill-rule="evenodd" stroke-width="0"/><path d="m8.97,158.14l-5.87-.03v-7.95l1.72-2.6.69.97.91.06.37-.35.55-.27.29.66,1.35,1.53v7.98Z" fill="#999" fill-rule="evenodd" stroke-width="0"/><path d="m8.93,150.18v7.87H3.14l5.79-7.87-1.3-1.63-.38-1" fill="none" stroke="#000" stroke-linecap="round" stroke-linejoin="round" stroke-width=".38"/><path d="m8.93,152l-4.53,6.02" fill="none" stroke="#000" stroke-linecap="round" stroke-linejoin="round" stroke-width=".38"/><path d="m5.59,158.02l3.34-4.4" fill="none" stroke="#000" stroke-linecap="round" stroke-linejoin="round" stroke-width=".38"/><path d="m6.69,158l2.25-2.74" fill="none" stroke="#000" stroke-linecap="round" stroke-linejoin="round" stroke-width=".38"/><path d="m7.88,158.05l1.05-1.33" fill="none" stroke="#000" stroke-linecap="round" stroke-linejoin="round" stroke-width=".38"/><path d="m3.15,158.03v-7.9l1.14-1.73" fill="none" stroke="#000" stroke-linecap="round" stroke-linejoin="round" stroke-width=".38"/><path d="m8.92,158.05l-5.75-7.88" fill="none" stroke="#000" stroke-linecap="round" stroke-linejoin="round" stroke-width=".38"/><path d="m3.14,152l4.53,6.02" fill="none" stroke="#000" stroke-linecap="round" stroke-linejoin="round" stroke-width=".38"/><path d="m6.52,158.02l-3.34-4.4" fill="none" stroke="#000" stroke-linecap="round" stroke-linejoin="round" stroke-width=".38"/><path d="m5.39,158l-2.23-2.73" fill="none" stroke="#000" stroke-linecap="round" stroke-linejoin="round" stroke-width=".38"/><path d="m6.69,158l2.25-2.74" fill="none" stroke="#000" stroke-linecap="round" stroke-linejoin="round" stroke-width=".38"/><path d="m4.21,158.05l-1.05-1.33" fill="none" stroke="#000" stroke-linecap="round" stroke-linejoin="round" stroke-width=".38"/><path d="m8.92,156.54l-5.21-7.26" fill="none" stroke="#000" stroke-linecap="round" stroke-linejoin="round" stroke-width=".38"/><path d="m8.95,155.04l-4.12-5.87" fill="none" stroke="#000" stroke-linecap="round" stroke-linejoin="round" stroke-width=".38"/><path d="m3.15,156.51l5.13-7.13" fill="none" stroke="#000" stroke-linecap="round" stroke-linejoin="round" stroke-width=".38"/><path d="m3.15,154.95l3.98-5.67" fill="none" stroke="#000" stroke-linecap="round" stroke-linejoin="round" stroke-width=".38"/><path d="m8.96,153.38l-2.94-4.19-1.24-1.52" fill="none" stroke="#000" stroke-linecap="round" stroke-linejoin="round" stroke-width=".38"/><path d="m3.12,153.38l2.89-4.22,1.25-1.62" fill="none" stroke="#000" stroke-linecap="round" stroke-linejoin="round" stroke-width=".38"/><path d="m8.93,151.79l-1.8-2.5" fill="none" stroke="#000" stroke-linecap="round" stroke-linejoin="round" stroke-width=".38"/><path d="m3.17,151.76l1.66-2.58" fill="none" stroke="#000" stroke-linecap="round" stroke-linejoin="round" stroke-width=".38"/><path d="m4.25,148.46l.24-.02.33.74-.09-.78.03-.75-.5.8Z" fill="#474747" fill-rule="evenodd" stroke="#000" stroke-linecap="round" stroke-linejoin="round" stroke-width=".38"/><path d="m7.64,148.55l-.19.02-.31.71.11-.88v-.84s.4.98.4.98Z" fill="#474747" fill-rule="evenodd" stroke="#000" stroke-linecap="round" stroke-linejoin="round" stroke-width=".38"/><path d="m6.05,147.63v.71h.13s.24.25.24.25l-.42.56-.52-.51.23-.27.13-.02v-.73s.23,0,.23,0Z" fill="#474747" fill-rule="evenodd" stroke="#000" stroke-linecap="round" stroke-linejoin="round" stroke-width=".38"/><path d="m6.44,148.63l.74.08" fill="none" stroke="#000" stroke-linecap="round" stroke-linejoin="round" stroke-width=".38"/><path d="m5.46,148.63l-.7.07" fill="none" stroke="#000" stroke-linecap="round" stroke-linejoin="round" stroke-width=".38"/><path d="m7.6,148.52l.57-.04s.11.31.23.44.52.28.52.28c0,0,0,.27.09.43.1.16.53.41.53.41,0,0-.13.54-.11.82.02.28.25.82.25.82,0,0-.24.56-.24.85s.23.8.23.8c0,0-.19.62-.19.91s.16.79.16.79c0,0-.21.54-.2.81s.24.72.24.72c0,0-.2.48-.19.71,0,.23.19.61.19.61l-.72.21" fill="none" stroke="#000" stroke-linecap="round" stroke-linejoin="round" stroke-width=".38"/><path d="m9.52,150.04l-.54.12" fill="none" stroke="#000" stroke-linecap="round" stroke-linejoin="round" stroke-width=".38"/><path d="m8.29,149.41l.07,1.55" fill="none" stroke="#000" stroke-linecap="round" stroke-linejoin="round" stroke-width=".38"/><path d="m7.14,149.35l.07,1.45" fill="none" stroke="#000" stroke-linecap="round" stroke-linejoin="round" stroke-width=".38"/><path d="m4.84,149.25v1.55" fill="none" stroke="#000" stroke-linecap="round" stroke-linejoin="round" stroke-width=".38"/><path d="m3.71,149.33v1.56" fill="none" stroke="#000" stroke-linecap="round" stroke-linejoin="round" stroke-width=".38"/><path d="m7.53,147.62l-.48-.02-.08-.56-.33-.47-.59-.17-.42-.06.48-.36h.73l.5.41.19.67v.56Z" fill="#4d4d4d" fill-rule="evenodd" stroke-width="0"/><path d="m5.41,146.45s.49-.37.65-.42c.2-.06.41-.09.61-.07.18.02.37.08.51.2.13.11.2.28.26.44.07.18.08.38.1.58.02.18.02.55.02.55l-.47.42" fill="none" stroke="#000" stroke-linecap="round" stroke-linejoin="round" stroke-width=".38"/><path d="m7.05,147.54s-.01-.35-.08-.51c-.09-.21-.23-.42-.43-.53-.16-.09-.36-.08-.55-.09-.18,0-.38-.02-.55.04-.16.06-.32.17-.43.31-.07.1-.09.23-.12.35-.04.18-.08.55-.08.55" fill="none" stroke="#000" stroke-linecap="round" stroke-linejoin="round" stroke-width=".38"/></svg>